<svg width="25" height="24" viewBox="0 0 25 24" fill="none" xmlns="http://www.w3.org/2000/svg">
<path d="M3.5 1.5H2V21C2 21.3978 2.15804 21.7794 2.43934 22.0607C2.72064 22.342 3.10218 22.5 3.5 22.5H23V21H3.5V1.5Z" fill="#FAFAFA"/>
<path d="M23 6.75H17.75V8.25H20.4425L14.75 13.9425L11.5325 10.7175C11.4628 10.6472 11.3798 10.5914 11.2884 10.5533C11.197 10.5153 11.099 10.4957 11 10.4957C10.901 10.4957 10.803 10.5153 10.7116 10.5533C10.6202 10.5914 10.5372 10.6472 10.4675 10.7175L5 16.1925L6.0575 17.25L11 12.3075L14.2175 15.5325C14.2872 15.6028 14.3702 15.6586 14.4616 15.6967C14.553 15.7347 14.651 15.7543 14.75 15.7543C14.849 15.7543 14.947 15.7347 15.0384 15.6967C15.1298 15.6586 15.2128 15.6028 15.2825 15.5325L21.5 9.3075V12H23V6.75Z" fill="#FAFAFA"/>
</svg>
