<svg width="24" height="25" viewBox="0 0 24 25" fill="none" xmlns="http://www.w3.org/2000/svg">
<path fill-rule="evenodd" clip-rule="evenodd" d="M12 2.5C6.47717 2.5 2 6.97717 2 12.5C2 18.0228 6.47717 22.5 12 22.5C17.5228 22.5 22 18.0228 22 12.5C22 6.97717 17.5228 2.5 12 2.5ZM12 20.5C7.58881 20.5 4.00002 16.9112 4.00002 12.5C4.00002 8.08877 7.58877 4.50002 12 4.50002C16.4112 4.50002 20 8.08877 20 12.5C20 16.9112 16.4112 20.5 12 20.5ZM15.7657 8.92722L17.1798 10.3413L11 16.547L7.29298 12.84L8.70702 11.4259L11 13.7189L15.7657 8.92722Z" fill="#275429"/>
</svg>
