<svg width="328" height="252" viewBox="0 0 328 252" fill="none" xmlns="http://www.w3.org/2000/svg">
<g clip-path="url(#clip0_2695_11523)">
<path d="M244.631 119.152C244.918 118.781 245.119 118.351 245.221 117.893C245.323 117.435 245.324 116.96 245.223 116.502C245.121 116.044 244.921 115.614 244.636 115.242C244.35 114.869 243.987 114.564 243.57 114.348L244.205 107.042L239.859 105.574L239.108 115.903C238.791 116.626 238.749 117.441 238.992 118.192C239.235 118.944 239.746 119.58 240.426 119.98C241.107 120.381 241.911 120.518 242.685 120.365C243.46 120.213 244.152 119.781 244.63 119.153L244.631 119.152Z" fill="#FFB8B8"/>
<path d="M266.315 175.95H262.405L260.544 160.858H266.318L266.315 175.95Z" fill="#FFB8B8"/>
<path d="M259.61 174.831H267.155V179.582H254.859C254.859 178.322 255.36 177.113 256.251 176.222C257.142 175.332 258.35 174.831 259.61 174.831Z" fill="#2F2E41"/>
<path d="M257.436 165.935L253.637 166.869L248.229 152.659L253.836 151.281L257.436 165.935Z" fill="#FFB8B8"/>
<path d="M250.71 166.315L258.037 164.512L259.172 169.124L247.233 172.063C246.932 170.84 247.129 169.547 247.781 168.469C248.433 167.391 249.487 166.616 250.71 166.315Z" fill="#2F2E41"/>
<path d="M261.737 171.137C261.38 171.138 261.035 171.007 260.77 170.768C260.504 170.529 260.337 170.2 260.3 169.844L255.799 127.907L251.882 140.731L257.43 160.762C257.526 161.105 257.491 161.472 257.333 161.791C257.175 162.11 256.904 162.36 256.573 162.492L252.162 164.256C251.981 164.329 251.786 164.364 251.591 164.359C251.395 164.355 251.202 164.311 251.024 164.229C250.846 164.148 250.687 164.032 250.555 163.887C250.423 163.743 250.322 163.573 250.258 163.388L243.458 143.88C242.714 141.75 242.385 139.497 242.488 137.243L243.437 116.189L268.433 117.248L268.043 169.337C268.038 169.699 267.898 170.047 267.651 170.312C267.403 170.577 267.066 170.74 266.704 170.769L261.85 171.135C261.812 171.137 261.775 171.137 261.737 171.137Z" fill="#2F2E41"/>
<path d="M257.598 69.5959C262.24 69.5959 266.003 65.8329 266.003 61.191C266.003 56.5491 262.24 52.7861 257.598 52.7861C252.956 52.7861 249.193 56.5491 249.193 61.191C249.193 65.8329 252.956 69.5959 257.598 69.5959Z" fill="#FFB8B8"/>
<path d="M263.778 118.617C261.565 118.617 258.817 118.436 255.97 118.249C252.083 117.993 248.063 117.729 245.063 117.902C244.657 117.943 244.249 117.878 243.875 117.716C243.502 117.553 243.177 117.298 242.93 116.974C239.837 113.013 244.607 97.5678 244.812 96.9125L248.694 79.6421C249.55 75.8436 252.277 73.0417 255.816 72.3299C259.129 71.6646 262.333 72.9907 264.388 75.8802C264.497 76.0336 264.606 76.1909 264.715 76.3521C271.406 86.2614 267.621 110.881 267.368 112.468C267.721 112.891 269.632 115.285 269.107 116.948C268.893 117.625 268.313 118.085 267.382 118.317C266.195 118.552 264.986 118.652 263.777 118.616L263.778 118.617Z" fill="#8094D4"/>
<path d="M245.199 118.625C244.437 118.625 243.41 118.344 242.026 117.769C241.431 117.521 239.62 116.768 241.818 97.5544C242.898 88.1164 244.445 78.7441 244.461 78.6506L244.475 78.5603L244.559 78.5226C244.599 78.5045 248.55 76.6935 249.237 74.3662C249.26 74.2857 249.286 74.2075 249.317 74.1318C249.506 73.6145 249.888 73.1901 250.382 72.9473C250.876 72.7045 251.445 72.662 251.97 72.8287C252.525 72.9612 253.008 73.2998 253.322 73.7757C253.637 74.2515 253.758 74.8291 253.662 75.3911C253.422 76.9091 252.962 78.3839 252.296 79.7686C250.437 83.6047 249.177 93.7744 249.165 93.8767C249.094 94.7452 247.406 115.323 247.081 116.885C246.968 117.43 246.759 118.098 246.146 118.421C245.852 118.566 245.527 118.637 245.199 118.627L245.199 118.625Z" fill="#2F2E41"/>
<path d="M254.381 117.836C254.227 117.836 254.078 117.785 253.957 117.691C251.484 115.812 255.486 93.0344 257.858 85.1757C258.333 83.6015 258.756 82.2543 259.116 81.1698C259.771 79.2239 260.229 77.2169 260.481 75.1792C260.612 74.0752 260.896 73.4449 261.349 73.2515C261.664 73.1171 262.034 73.2084 262.451 73.5229C264.644 73.4148 266.774 74.31 268.748 75.2959L270.525 76.1822L272.518 111.48C272.462 113.733 268.021 115.323 266.085 115.425C262.974 115.588 257.389 116.095 254.929 117.652C254.768 117.765 254.578 117.828 254.381 117.836L254.381 117.836Z" fill="#2F2E41"/>
<path d="M243.274 111.213C243.245 111.213 243.215 111.213 243.186 111.21L239.159 110.962C238.958 110.95 238.762 110.896 238.584 110.804C238.405 110.712 238.248 110.584 238.122 110.428C237.995 110.271 237.903 110.091 237.85 109.897C237.798 109.703 237.786 109.5 237.816 109.302L239.638 97.229L243.069 80.2899C243.153 79.8726 243.324 79.4778 243.571 79.1309C243.818 78.7841 244.135 78.493 244.502 78.2766C244.868 78.0601 245.276 77.9231 245.699 77.8744C246.122 77.8257 246.551 77.8665 246.957 77.994C247.651 78.2155 248.243 78.678 248.627 79.298C249.01 79.9179 249.159 80.6545 249.047 81.3747L246.322 98.348L244.708 109.965C244.658 110.31 244.486 110.626 244.223 110.856C243.96 111.085 243.623 111.212 243.274 111.213Z" fill="#2F2E41"/>
<path d="M257.03 97.9984C257.276 97.5987 257.606 97.2578 257.998 96.9995C258.39 96.7413 258.833 96.5721 259.297 96.5038C259.761 96.4355 260.235 96.4699 260.684 96.6043C261.134 96.7388 261.548 96.9702 261.898 97.2821L268.501 94.0928L271.418 97.6325L262.03 102.006C261.467 102.559 260.721 102.887 259.932 102.927C259.143 102.967 258.367 102.717 257.751 102.223C257.134 101.729 256.721 101.026 256.588 100.247C256.455 99.4688 256.613 98.6686 257.03 97.9984Z" fill="#FFB8B8"/>
<path d="M266.203 101.424C265.878 101.424 265.562 101.314 265.307 101.113C265.052 100.912 264.871 100.631 264.795 100.315L263.837 96.3279C263.764 96.0281 263.789 95.7127 263.908 95.4281C264.028 95.1436 264.236 94.9049 264.501 94.7473L270.284 91.2855L267.328 80.4602C267.072 79.5332 267.189 78.5429 267.654 77.7012C268.12 76.8596 268.896 76.2336 269.817 75.9571C270.738 75.6806 271.731 75.7757 272.582 76.222C273.434 76.6683 274.078 77.4304 274.375 78.345L277.639 88.3118C278.04 89.5267 278.043 90.8378 277.648 92.0547C277.253 93.2715 276.48 94.3307 275.442 95.0782L267.051 101.149C266.804 101.327 266.507 101.424 266.203 101.424Z" fill="#2F2E41"/>
<path d="M203.717 0H41.7871C40.2738 0.00181125 38.823 0.60377 37.7529 1.67383C36.6829 2.7439 36.0809 4.19469 36.0791 5.70798V23.1331C36.0809 24.6464 36.6829 26.0972 37.7529 27.1672C38.823 28.2373 40.2738 28.8393 41.7871 28.8411H203.717C205.23 28.8393 206.681 28.2373 207.751 27.1672C208.821 26.0972 209.423 24.6464 209.425 23.1331V5.70798C209.423 4.19469 208.821 2.7439 207.751 1.67383C206.681 0.60377 205.23 0.00181125 203.717 0ZM208.824 23.1331C208.822 24.4869 208.283 25.7848 207.326 26.7421C206.368 27.6995 205.07 28.2382 203.717 28.2401H41.7871C40.4332 28.2382 39.1354 27.6995 38.178 26.7421C37.2207 25.7848 36.682 24.4869 36.68 23.1331V5.70798C36.682 4.35411 37.2207 3.05627 38.178 2.09894C39.1354 1.14161 40.4332 0.602903 41.7871 0.600911H203.717C205.07 0.602903 206.368 1.14161 207.326 2.09894C208.283 3.05627 208.822 4.35411 208.824 5.70798V23.1331Z" fill="#3F3D56"/>
<path d="M203.717 69.9989H41.7871C40.2738 69.9971 38.823 69.3952 37.7529 68.3251C36.6829 67.255 36.0809 65.8042 36.0791 64.2909V46.8662C36.0809 45.3529 36.6829 43.9021 37.7529 42.832C38.823 41.762 40.2738 41.16 41.7871 41.1582H203.717C205.23 41.16 206.681 41.762 207.751 42.832C208.821 43.9021 209.423 45.3529 209.425 46.8662V64.2909C209.423 65.8042 208.821 67.255 207.751 68.3251C206.681 69.3952 205.23 69.9971 203.717 69.9989ZM41.7871 41.7591C40.4331 41.7607 39.135 42.2992 38.1775 43.2566C37.2201 44.2141 36.6816 45.5122 36.68 46.8662V64.2909C36.6813 65.6451 37.2197 66.9435 38.1772 67.9011C39.1346 68.8588 40.4329 69.3975 41.7871 69.399H203.717C205.071 69.3976 206.369 68.8591 207.326 67.9016C208.284 66.9442 208.822 65.646 208.824 64.292V46.8662C208.822 45.5122 208.284 44.2141 207.326 43.2566C206.369 42.2992 205.071 41.7607 203.717 41.7591H41.7871Z" fill="#CCCCCC"/>
<path d="M203.717 111.157H41.7871C40.2738 111.155 38.823 110.553 37.7529 109.483C36.6829 108.413 36.0809 106.962 36.0791 105.449V88.0244C36.0809 86.5111 36.6829 85.0603 37.7529 83.9902C38.823 82.9202 40.2738 82.3182 41.7871 82.3164H203.717C205.23 82.3182 206.681 82.9202 207.751 83.9902C208.821 85.0603 209.423 86.5111 209.425 88.0244V105.449C209.423 106.962 208.821 108.413 207.751 109.483C206.681 110.553 205.23 111.155 203.717 111.157ZM41.7871 82.9159C40.4331 82.9175 39.135 83.4561 38.1775 84.4135C37.2201 85.3709 36.6816 86.669 36.68 88.023V105.448C36.6815 106.802 37.22 108.1 38.1774 109.058C39.1349 110.015 40.433 110.554 41.7871 110.555H203.717C205.071 110.554 206.369 110.015 207.326 109.058C208.284 108.1 208.822 106.802 208.824 105.448V88.0244C208.823 86.6701 208.284 85.3716 207.327 84.4138C206.369 83.4561 205.071 82.9174 203.717 82.9159H41.7871Z" fill="#CCCCCC"/>
<path d="M63.6673 24.3552C61.7024 24.3552 59.7816 23.7725 58.1478 22.6808C56.514 21.5892 55.2406 20.0375 54.4887 18.2222C53.7367 16.4068 53.54 14.4092 53.9233 12.4821C54.3067 10.5549 55.2529 8.78464 56.6423 7.39522C58.0317 6.0058 59.8019 5.05959 61.7291 4.67625C63.6563 4.29291 65.6539 4.48966 67.4693 5.2416C69.2846 5.99355 70.8362 7.26693 71.9279 8.90072C73.0196 10.5345 73.6022 12.4553 73.6022 14.4203C73.6022 17.0552 72.5555 19.5821 70.6924 21.4453C68.8292 23.3085 66.3022 24.3552 63.6673 24.3552Z" fill="#8094D4"/>
<path d="M189.049 22.5316H82.9992C82.3617 22.5316 81.7504 22.2783 81.2997 21.8276C80.8489 21.3769 80.5957 20.7655 80.5957 20.1281C80.5957 19.4906 80.8489 18.8793 81.2997 18.4286C81.7504 17.9778 82.3617 17.7246 82.9992 17.7246H189.049C189.686 17.7246 190.297 17.9778 190.748 18.4286C191.199 18.8793 191.452 19.4906 191.452 20.1281C191.452 20.7655 191.199 21.3769 190.748 21.8276C190.297 22.2783 189.686 22.5316 189.049 22.5316Z" fill="#CCCCCC"/>
<path d="M154.497 12.3177H82.9963C82.3588 12.3177 81.7475 12.0645 81.2967 11.6137C80.846 11.163 80.5928 10.5517 80.5928 9.91422C80.5928 9.27678 80.846 8.66544 81.2967 8.2147C81.7475 7.76396 82.3588 7.51074 82.9963 7.51074H154.497C155.135 7.51074 155.746 7.76396 156.197 8.2147C156.648 8.66544 156.901 9.27678 156.901 9.91422C156.901 10.5517 156.648 11.163 156.197 11.6137C155.746 12.0645 155.135 12.3177 154.497 12.3177Z" fill="#CCCCCC"/>
<path d="M63.6673 65.5134C61.7024 65.5134 59.7816 64.9307 58.1478 63.839C56.514 62.7474 55.2406 61.1958 54.4887 59.3804C53.7367 57.565 53.54 55.5674 53.9233 53.6403C54.3067 51.7131 55.2529 49.9428 56.6423 48.5534C58.0317 47.164 59.8019 46.2178 61.7291 45.8345C63.6563 45.4511 65.6539 45.6479 67.4693 46.3998C69.2846 47.1518 70.8362 48.4251 71.9279 50.0589C73.0196 51.6927 73.6022 53.6135 73.6022 55.5785C73.6022 58.2134 72.5555 60.7403 70.6924 62.6035C68.8292 64.4667 66.3022 65.5134 63.6673 65.5134Z" fill="#E6E6E6"/>
<path d="M189.049 63.6907H82.9992C82.3617 63.6907 81.7504 63.4375 81.2997 62.9868C80.8489 62.536 80.5957 61.9247 80.5957 61.2873C80.5957 60.6498 80.8489 60.0385 81.2997 59.5877C81.7504 59.137 82.3617 58.8838 82.9992 58.8838H189.049C189.686 58.8838 190.297 59.137 190.748 59.5877C191.199 60.0385 191.452 60.6498 191.452 61.2873C191.452 61.9247 191.199 62.536 190.748 62.9868C190.297 63.4375 189.686 63.6907 189.049 63.6907Z" fill="#E6E6E6"/>
<path d="M154.497 53.4759H82.9963C82.3588 53.4759 81.7475 53.2227 81.2967 52.7719C80.846 52.3212 80.5928 51.7099 80.5928 51.0724C80.5928 50.435 80.846 49.8236 81.2967 49.3729C81.7475 48.9222 82.3588 48.6689 82.9963 48.6689H154.497C155.135 48.6689 155.746 48.9222 156.197 49.3729C156.648 49.8236 156.901 50.435 156.901 51.0724C156.901 51.7099 156.648 52.3212 156.197 52.7719C155.746 53.2227 155.135 53.4759 154.497 53.4759Z" fill="#E6E6E6"/>
<path d="M63.6673 106.672C61.7024 106.672 59.7816 106.089 58.1478 104.997C56.514 103.906 55.2406 102.354 54.4887 100.539C53.7367 98.7232 53.54 96.7256 53.9233 94.7985C54.3067 92.8713 55.2529 91.101 56.6423 89.7116C58.0317 88.3222 59.8019 87.376 61.7291 86.9927C63.6563 86.6093 65.6539 86.8061 67.4693 87.558C69.2846 88.31 70.8362 89.5833 71.9279 91.2171C73.0196 92.8509 73.6022 94.7717 73.6022 96.7367C73.6022 99.3716 72.5555 101.899 70.6924 103.762C68.8292 105.625 66.3022 106.672 63.6673 106.672Z" fill="#E6E6E6"/>
<path d="M189.049 104.849H82.9992C82.3617 104.849 81.7504 104.596 81.2997 104.145C80.8489 103.694 80.5957 103.083 80.5957 102.445C80.5957 101.808 80.8489 101.197 81.2997 100.746C81.7504 100.295 82.3617 100.042 82.9992 100.042H189.049C189.686 100.042 190.297 100.295 190.748 100.746C191.199 101.197 191.452 101.808 191.452 102.445C191.452 103.083 191.199 103.694 190.748 104.145C190.297 104.596 189.686 104.849 189.049 104.849Z" fill="#E6E6E6"/>
<path d="M154.497 94.6341H82.9963C82.3588 94.6341 81.7475 94.3809 81.2967 93.9301C80.846 93.4794 80.5928 92.8681 80.5928 92.2306C80.5928 91.5932 80.846 90.9818 81.2967 90.5311C81.7475 90.0804 82.3588 89.8271 82.9963 89.8271H154.497C155.135 89.8271 155.746 90.0804 156.197 90.5311C156.648 90.9818 156.901 91.5932 156.901 92.2306C156.901 92.8681 156.648 93.4794 156.197 93.9301C155.746 94.3809 155.135 94.6341 154.497 94.6341Z" fill="#E6E6E6"/>
<path d="M63.1604 17.9152C62.9136 17.9158 62.6734 17.8361 62.476 17.688L62.4637 17.6788L59.8886 15.709C59.7693 15.6176 59.6692 15.5036 59.594 15.3735C59.5188 15.2434 59.47 15.0997 59.4503 14.9507C59.4306 14.8018 59.4405 14.6504 59.4793 14.5052C59.5181 14.36 59.5852 14.2239 59.6766 14.1046C59.768 13.9854 59.882 13.8853 60.0121 13.8101C60.1423 13.7349 60.2859 13.686 60.4349 13.6663C60.5839 13.6466 60.7353 13.6565 60.8805 13.6953C61.0256 13.7342 61.1617 13.8012 61.281 13.8926L62.9489 15.1718L66.8901 10.0298C67.0747 9.78913 67.3473 9.63161 67.648 9.59189C67.9487 9.55217 68.2529 9.63349 68.4937 9.81798L68.4694 9.8522L68.4944 9.81798C68.7348 10.0029 68.8921 10.2755 68.9317 10.5762C68.9713 10.8769 68.8901 11.181 68.7058 11.4219L64.07 17.4673C63.9626 17.6063 63.8246 17.7188 63.6668 17.7959C63.5089 17.8731 63.3354 17.9128 63.1597 17.9122L63.1604 17.9152Z" fill="white"/>
<path d="M291.576 180H223.82C223.729 180 223.642 179.964 223.578 179.9C223.514 179.835 223.478 179.748 223.478 179.658C223.478 179.567 223.514 179.48 223.578 179.416C223.642 179.351 223.729 179.315 223.82 179.315H291.576C291.667 179.315 291.754 179.351 291.818 179.416C291.883 179.48 291.919 179.567 291.919 179.658C291.919 179.748 291.883 179.835 291.818 179.9C291.754 179.964 291.667 180 291.576 180Z" fill="#CCCCCC"/>
<path d="M260.688 63.4307C260.688 63.4307 259.665 57.7754 257.337 58.4511C255.01 59.1268 249.02 59.8181 249.009 57.1547C248.998 54.4914 254.647 52.1372 257.978 52.4559C261.309 52.7745 266.972 53.7492 266.66 58.7444C266.411 61.8904 265.438 64.9363 263.819 67.6451L260.688 63.4307Z" fill="#2F2E41"/>
</g>
<path d="M74.0274 214V202.8H75.7394L82.7634 211.424H81.9154V202.8H83.9794V214H82.2674L75.2434 205.376H76.0914V214H74.0274ZM90.6286 214.112C89.7539 214.112 88.9752 213.925 88.2926 213.552C87.6099 213.168 87.0712 212.645 86.6766 211.984C86.2819 211.323 86.0846 210.571 86.0846 209.728C86.0846 208.875 86.2819 208.123 86.6766 207.472C87.0712 206.811 87.6099 206.293 88.2926 205.92C88.9752 205.547 89.7539 205.36 90.6286 205.36C91.5139 205.36 92.2979 205.547 92.9806 205.92C93.6739 206.293 94.2126 206.805 94.5966 207.456C94.9912 208.107 95.1886 208.864 95.1886 209.728C95.1886 210.571 94.9912 211.323 94.5966 211.984C94.2126 212.645 93.6739 213.168 92.9806 213.552C92.2979 213.925 91.5139 214.112 90.6286 214.112ZM90.6286 212.4C91.1192 212.4 91.5566 212.293 91.9406 212.08C92.3246 211.867 92.6232 211.557 92.8366 211.152C93.0606 210.747 93.1726 210.272 93.1726 209.728C93.1726 209.173 93.0606 208.699 92.8366 208.304C92.6232 207.899 92.3246 207.589 91.9406 207.376C91.5566 207.163 91.1246 207.056 90.6446 207.056C90.1539 207.056 89.7166 207.163 89.3326 207.376C88.9592 207.589 88.6606 207.899 88.4366 208.304C88.2126 208.699 88.1006 209.173 88.1006 209.728C88.1006 210.272 88.2126 210.747 88.4366 211.152C88.6606 211.557 88.9592 211.867 89.3326 212.08C89.7166 212.293 90.1486 212.4 90.6286 212.4ZM101.715 214V202.8H103.795V212.24H109.651V214H101.715ZM115.039 214.112C114.09 214.112 113.258 213.925 112.543 213.552C111.839 213.168 111.29 212.645 110.895 211.984C110.511 211.323 110.319 210.571 110.319 209.728C110.319 208.875 110.506 208.123 110.879 207.472C111.263 206.811 111.786 206.293 112.447 205.92C113.119 205.547 113.882 205.36 114.735 205.36C115.567 205.36 116.308 205.541 116.959 205.904C117.61 206.267 118.122 206.779 118.495 207.44C118.868 208.101 119.055 208.88 119.055 209.776C119.055 209.861 119.05 209.957 119.039 210.064C119.039 210.171 119.034 210.272 119.023 210.368H111.903V209.04H117.967L117.183 209.456C117.194 208.965 117.092 208.533 116.879 208.16C116.666 207.787 116.372 207.493 115.999 207.28C115.636 207.067 115.215 206.96 114.735 206.96C114.244 206.96 113.812 207.067 113.439 207.28C113.076 207.493 112.788 207.792 112.575 208.176C112.372 208.549 112.271 208.992 112.271 209.504V209.824C112.271 210.336 112.388 210.789 112.623 211.184C112.858 211.579 113.188 211.883 113.615 212.096C114.042 212.309 114.532 212.416 115.087 212.416C115.567 212.416 115.999 212.341 116.383 212.192C116.767 212.043 117.108 211.808 117.407 211.488L118.479 212.72C118.095 213.168 117.61 213.515 117.023 213.76C116.447 213.995 115.786 214.112 115.039 214.112ZM126.006 214V212.272L125.894 211.904V208.88C125.894 208.293 125.718 207.84 125.366 207.52C125.014 207.189 124.48 207.024 123.766 207.024C123.286 207.024 122.811 207.099 122.342 207.248C121.883 207.397 121.494 207.605 121.174 207.872L120.39 206.416C120.848 206.064 121.392 205.803 122.022 205.632C122.662 205.451 123.323 205.36 124.006 205.36C125.243 205.36 126.198 205.659 126.87 206.256C127.552 206.843 127.894 207.755 127.894 208.992V214H126.006ZM123.318 214.112C122.678 214.112 122.118 214.005 121.638 213.792C121.158 213.568 120.784 213.264 120.518 212.88C120.262 212.485 120.134 212.043 120.134 211.552C120.134 211.072 120.246 210.64 120.47 210.256C120.704 209.872 121.083 209.568 121.606 209.344C122.128 209.12 122.822 209.008 123.686 209.008H126.166V210.336H123.83C123.147 210.336 122.688 210.448 122.454 210.672C122.219 210.885 122.102 211.152 122.102 211.472C122.102 211.835 122.246 212.123 122.534 212.336C122.822 212.549 123.222 212.656 123.734 212.656C124.224 212.656 124.662 212.544 125.046 212.32C125.44 212.096 125.723 211.765 125.894 211.328L126.23 212.528C126.038 213.029 125.691 213.419 125.19 213.696C124.699 213.973 124.075 214.112 123.318 214.112ZM132.576 214L128.912 205.456H130.992L134.144 212.992H133.12L136.384 205.456H138.304L134.64 214H132.576ZM143.336 214.112C142.386 214.112 141.554 213.925 140.84 213.552C140.136 213.168 139.586 212.645 139.192 211.984C138.808 211.323 138.616 210.571 138.616 209.728C138.616 208.875 138.802 208.123 139.176 207.472C139.56 206.811 140.082 206.293 140.744 205.92C141.416 205.547 142.178 205.36 143.032 205.36C143.864 205.36 144.605 205.541 145.256 205.904C145.906 206.267 146.418 206.779 146.792 207.44C147.165 208.101 147.352 208.88 147.352 209.776C147.352 209.861 147.346 209.957 147.336 210.064C147.336 210.171 147.33 210.272 147.32 210.368H140.2V209.04H146.264L145.48 209.456C145.49 208.965 145.389 208.533 145.176 208.16C144.962 207.787 144.669 207.493 144.296 207.28C143.933 207.067 143.512 206.96 143.032 206.96C142.541 206.96 142.109 207.067 141.736 207.28C141.373 207.493 141.085 207.792 140.872 208.176C140.669 208.549 140.568 208.992 140.568 209.504V209.824C140.568 210.336 140.685 210.789 140.92 211.184C141.154 211.579 141.485 211.883 141.912 212.096C142.338 212.309 142.829 212.416 143.384 212.416C143.864 212.416 144.296 212.341 144.68 212.192C145.064 212.043 145.405 211.808 145.704 211.488L146.776 212.72C146.392 213.168 145.906 213.515 145.32 213.76C144.744 213.995 144.082 214.112 143.336 214.112ZM152.303 214L157.343 202.8H159.391L164.447 214H162.271L157.935 203.904H158.767L154.447 214H152.303ZM154.623 211.408L155.183 209.776H161.231L161.791 211.408H154.623ZM170.415 214.112C169.722 214.112 169.087 213.952 168.511 213.632C167.946 213.312 167.493 212.832 167.151 212.192C166.821 211.541 166.655 210.72 166.655 209.728C166.655 208.725 166.815 207.904 167.135 207.264C167.466 206.624 167.914 206.149 168.479 205.84C169.045 205.52 169.69 205.36 170.415 205.36C171.258 205.36 171.999 205.541 172.639 205.904C173.29 206.267 173.802 206.773 174.175 207.424C174.559 208.075 174.751 208.843 174.751 209.728C174.751 210.613 174.559 211.387 174.175 212.048C173.802 212.699 173.29 213.205 172.639 213.568C171.999 213.931 171.258 214.112 170.415 214.112ZM165.679 217.104V205.456H167.583V207.472L167.519 209.744L167.679 212.016V217.104H165.679ZM170.191 212.4C170.671 212.4 171.098 212.293 171.471 212.08C171.855 211.867 172.159 211.557 172.383 211.152C172.607 210.747 172.719 210.272 172.719 209.728C172.719 209.173 172.607 208.699 172.383 208.304C172.159 207.899 171.855 207.589 171.471 207.376C171.098 207.163 170.671 207.056 170.191 207.056C169.711 207.056 169.279 207.163 168.895 207.376C168.511 207.589 168.207 207.899 167.983 208.304C167.759 208.699 167.647 209.173 167.647 209.728C167.647 210.272 167.759 210.747 167.983 211.152C168.207 211.557 168.511 211.867 168.895 212.08C169.279 212.293 169.711 212.4 170.191 212.4ZM181.384 214.112C180.691 214.112 180.056 213.952 179.48 213.632C178.915 213.312 178.461 212.832 178.12 212.192C177.789 211.541 177.624 210.72 177.624 209.728C177.624 208.725 177.784 207.904 178.104 207.264C178.435 206.624 178.883 206.149 179.448 205.84C180.013 205.52 180.659 205.36 181.384 205.36C182.227 205.36 182.968 205.541 183.608 205.904C184.259 206.267 184.771 206.773 185.144 207.424C185.528 208.075 185.72 208.843 185.72 209.728C185.72 210.613 185.528 211.387 185.144 212.048C184.771 212.699 184.259 213.205 183.608 213.568C182.968 213.931 182.227 214.112 181.384 214.112ZM176.648 217.104V205.456H178.552V207.472L178.488 209.744L178.648 212.016V217.104H176.648ZM181.16 212.4C181.64 212.4 182.067 212.293 182.44 212.08C182.824 211.867 183.128 211.557 183.352 211.152C183.576 210.747 183.688 210.272 183.688 209.728C183.688 209.173 183.576 208.699 183.352 208.304C183.128 207.899 182.824 207.589 182.44 207.376C182.067 207.163 181.64 207.056 181.16 207.056C180.68 207.056 180.248 207.163 179.864 207.376C179.48 207.589 179.176 207.899 178.952 208.304C178.728 208.699 178.616 209.173 178.616 209.728C178.616 210.272 178.728 210.747 178.952 211.152C179.176 211.557 179.48 211.867 179.864 212.08C180.248 212.293 180.68 212.4 181.16 212.4ZM187.617 214V202.128H189.617V214H187.617ZM192.242 214V205.456H194.242V214H192.242ZM193.25 204.048C192.876 204.048 192.567 203.931 192.322 203.696C192.087 203.461 191.97 203.179 191.97 202.848C191.97 202.507 192.087 202.224 192.322 202C192.567 201.765 192.876 201.648 193.25 201.648C193.623 201.648 193.927 201.76 194.162 201.984C194.407 202.197 194.53 202.469 194.53 202.8C194.53 203.152 194.412 203.451 194.178 203.696C193.943 203.931 193.634 204.048 193.25 204.048ZM200.787 214.112C199.891 214.112 199.091 213.925 198.387 213.552C197.693 213.168 197.149 212.645 196.755 211.984C196.36 211.323 196.163 210.571 196.163 209.728C196.163 208.875 196.36 208.123 196.755 207.472C197.149 206.811 197.693 206.293 198.387 205.92C199.091 205.547 199.891 205.36 200.787 205.36C201.619 205.36 202.349 205.531 202.979 205.872C203.619 206.203 204.104 206.693 204.435 207.344L202.899 208.24C202.643 207.835 202.328 207.536 201.955 207.344C201.592 207.152 201.197 207.056 200.771 207.056C200.28 207.056 199.837 207.163 199.443 207.376C199.048 207.589 198.739 207.899 198.515 208.304C198.291 208.699 198.179 209.173 198.179 209.728C198.179 210.283 198.291 210.763 198.515 211.168C198.739 211.563 199.048 211.867 199.443 212.08C199.837 212.293 200.28 212.4 200.771 212.4C201.197 212.4 201.592 212.304 201.955 212.112C202.328 211.92 202.643 211.621 202.899 211.216L204.435 212.112C204.104 212.752 203.619 213.248 202.979 213.6C202.349 213.941 201.619 214.112 200.787 214.112ZM211.428 214V212.272L211.316 211.904V208.88C211.316 208.293 211.14 207.84 210.788 207.52C210.436 207.189 209.902 207.024 209.188 207.024C208.708 207.024 208.233 207.099 207.764 207.248C207.305 207.397 206.916 207.605 206.596 207.872L205.812 206.416C206.27 206.064 206.814 205.803 207.444 205.632C208.084 205.451 208.745 205.36 209.428 205.36C210.665 205.36 211.62 205.659 212.292 206.256C212.974 206.843 213.316 207.755 213.316 208.992V214H211.428ZM208.74 214.112C208.1 214.112 207.54 214.005 207.06 213.792C206.58 213.568 206.206 213.264 205.94 212.88C205.684 212.485 205.556 212.043 205.556 211.552C205.556 211.072 205.668 210.64 205.892 210.256C206.126 209.872 206.505 209.568 207.028 209.344C207.55 209.12 208.244 209.008 209.108 209.008H211.588V210.336H209.252C208.569 210.336 208.11 210.448 207.876 210.672C207.641 210.885 207.524 211.152 207.524 211.472C207.524 211.835 207.668 212.123 207.956 212.336C208.244 212.549 208.644 212.656 209.156 212.656C209.646 212.656 210.084 212.544 210.468 212.32C210.862 212.096 211.145 211.765 211.316 211.328L211.652 212.528C211.46 213.029 211.113 213.419 210.612 213.696C210.121 213.973 209.497 214.112 208.74 214.112ZM219.098 214.112C218.16 214.112 217.434 213.872 216.922 213.392C216.41 212.901 216.154 212.181 216.154 211.232V203.568H218.154V211.184C218.154 211.589 218.256 211.904 218.458 212.128C218.672 212.352 218.965 212.464 219.338 212.464C219.786 212.464 220.16 212.347 220.458 212.112L221.018 213.536C220.784 213.728 220.496 213.872 220.154 213.968C219.813 214.064 219.461 214.112 219.098 214.112ZM214.746 207.12V205.52H220.442V207.12H214.746ZM222.664 214V205.456H224.664V214H222.664ZM223.672 204.048C223.298 204.048 222.989 203.931 222.744 203.696C222.509 203.461 222.392 203.179 222.392 202.848C222.392 202.507 222.509 202.224 222.744 202C222.989 201.765 223.298 201.648 223.672 201.648C224.045 201.648 224.349 201.76 224.584 201.984C224.829 202.197 224.952 202.469 224.952 202.8C224.952 203.152 224.834 203.451 224.6 203.696C224.365 203.931 224.056 204.048 223.672 204.048ZM231.129 214.112C230.254 214.112 229.475 213.925 228.793 213.552C228.11 213.168 227.571 212.645 227.177 211.984C226.782 211.323 226.585 210.571 226.585 209.728C226.585 208.875 226.782 208.123 227.177 207.472C227.571 206.811 228.11 206.293 228.793 205.92C229.475 205.547 230.254 205.36 231.129 205.36C232.014 205.36 232.798 205.547 233.481 205.92C234.174 206.293 234.713 206.805 235.097 207.456C235.491 208.107 235.689 208.864 235.689 209.728C235.689 210.571 235.491 211.323 235.097 211.984C234.713 212.645 234.174 213.168 233.481 213.552C232.798 213.925 232.014 214.112 231.129 214.112ZM231.129 212.4C231.619 212.4 232.057 212.293 232.441 212.08C232.825 211.867 233.123 211.557 233.337 211.152C233.561 210.747 233.673 210.272 233.673 209.728C233.673 209.173 233.561 208.699 233.337 208.304C233.123 207.899 232.825 207.589 232.441 207.376C232.057 207.163 231.625 207.056 231.145 207.056C230.654 207.056 230.217 207.163 229.833 207.376C229.459 207.589 229.161 207.899 228.937 208.304C228.713 208.699 228.601 209.173 228.601 209.728C228.601 210.272 228.713 210.747 228.937 211.152C229.161 211.557 229.459 211.867 229.833 212.08C230.217 212.293 230.649 212.4 231.129 212.4ZM242.449 205.36C243.132 205.36 243.74 205.493 244.273 205.76C244.817 206.027 245.244 206.437 245.553 206.992C245.862 207.536 246.017 208.24 246.017 209.104V214H244.017V209.36C244.017 208.603 243.836 208.037 243.473 207.664C243.121 207.291 242.625 207.104 241.985 207.104C241.516 207.104 241.1 207.2 240.737 207.392C240.374 207.584 240.092 207.872 239.889 208.256C239.697 208.629 239.601 209.104 239.601 209.68V214H237.601V205.456H239.505V207.76L239.169 207.056C239.468 206.512 239.9 206.096 240.465 205.808C241.041 205.509 241.702 205.36 242.449 205.36ZM251.194 214.112C250.48 214.112 249.792 214.021 249.13 213.84C248.48 213.648 247.962 213.419 247.578 213.152L248.346 211.632C248.73 211.877 249.189 212.08 249.722 212.24C250.256 212.4 250.789 212.48 251.322 212.48C251.952 212.48 252.405 212.395 252.682 212.224C252.97 212.053 253.114 211.824 253.114 211.536C253.114 211.301 253.018 211.125 252.826 211.008C252.634 210.88 252.384 210.784 252.074 210.72C251.765 210.656 251.418 210.597 251.034 210.544C250.661 210.491 250.282 210.421 249.898 210.336C249.525 210.24 249.184 210.107 248.874 209.936C248.565 209.755 248.314 209.515 248.122 209.216C247.93 208.917 247.834 208.523 247.834 208.032C247.834 207.488 247.989 207.019 248.298 206.624C248.608 206.219 249.04 205.909 249.594 205.696C250.16 205.472 250.826 205.36 251.594 205.36C252.17 205.36 252.752 205.424 253.338 205.552C253.925 205.68 254.41 205.861 254.794 206.096L254.026 207.616C253.621 207.371 253.21 207.205 252.794 207.12C252.389 207.024 251.984 206.976 251.578 206.976C250.97 206.976 250.517 207.067 250.218 207.248C249.93 207.429 249.786 207.659 249.786 207.936C249.786 208.192 249.882 208.384 250.074 208.512C250.266 208.64 250.517 208.741 250.826 208.816C251.136 208.891 251.477 208.955 251.85 209.008C252.234 209.051 252.613 209.12 252.986 209.216C253.36 209.312 253.701 209.445 254.01 209.616C254.33 209.776 254.586 210.005 254.778 210.304C254.97 210.603 255.066 210.992 255.066 211.472C255.066 212.005 254.906 212.469 254.586 212.864C254.277 213.259 253.834 213.568 253.258 213.792C252.682 214.005 251.994 214.112 251.194 214.112Z" fill="black"/>
<path d="M36.8631 246V234.8H37.8391L45.5671 244.528H45.0551V234.8H46.2231V246H45.2471L37.5351 236.272H38.0471V246H36.8631ZM53.0627 246.08C52.252 246.08 51.5214 245.899 50.8707 245.536C50.2307 245.163 49.724 244.656 49.3507 244.016C48.9774 243.365 48.7907 242.624 48.7907 241.792C48.7907 240.949 48.9774 240.208 49.3507 239.568C49.724 238.928 50.2307 238.427 50.8707 238.064C51.5107 237.701 52.2414 237.52 53.0627 237.52C53.8947 237.52 54.6307 237.701 55.2707 238.064C55.9214 238.427 56.428 238.928 56.7907 239.568C57.164 240.208 57.3507 240.949 57.3507 241.792C57.3507 242.624 57.164 243.365 56.7907 244.016C56.428 244.656 55.9214 245.163 55.2707 245.536C54.62 245.899 53.884 246.08 53.0627 246.08ZM53.0627 245.072C53.6707 245.072 54.2094 244.939 54.6787 244.672C55.148 244.395 55.516 244.011 55.7827 243.52C56.06 243.019 56.1987 242.443 56.1987 241.792C56.1987 241.131 56.06 240.555 55.7827 240.064C55.516 239.573 55.148 239.195 54.6787 238.928C54.2094 238.651 53.676 238.512 53.0787 238.512C52.4814 238.512 51.948 238.651 51.4787 238.928C51.0094 239.195 50.636 239.573 50.3587 240.064C50.0814 240.555 49.9427 241.131 49.9427 241.792C49.9427 242.443 50.0814 243.019 50.3587 243.52C50.636 244.011 51.0094 244.395 51.4787 244.672C51.948 244.939 52.476 245.072 53.0627 245.072ZM67.2814 246.08C66.4708 246.08 65.7401 245.899 65.0894 245.536C64.4494 245.163 63.9428 244.656 63.5694 244.016C63.1961 243.365 63.0094 242.624 63.0094 241.792C63.0094 240.949 63.1961 240.208 63.5694 239.568C63.9428 238.928 64.4494 238.427 65.0894 238.064C65.7294 237.701 66.4601 237.52 67.2814 237.52C68.1134 237.52 68.8494 237.701 69.4894 238.064C70.1401 238.427 70.6468 238.928 71.0094 239.568C71.3828 240.208 71.5694 240.949 71.5694 241.792C71.5694 242.624 71.3828 243.365 71.0094 244.016C70.6468 244.656 70.1401 245.163 69.4894 245.536C68.8388 245.899 68.1028 246.08 67.2814 246.08ZM67.2814 245.072C67.8894 245.072 68.4281 244.939 68.8974 244.672C69.3668 244.395 69.7348 244.011 70.0014 243.52C70.2788 243.019 70.4174 242.443 70.4174 241.792C70.4174 241.131 70.2788 240.555 70.0014 240.064C69.7348 239.573 69.3668 239.195 68.8974 238.928C68.4281 238.651 67.8948 238.512 67.2974 238.512C66.7001 238.512 66.1668 238.651 65.6974 238.928C65.2281 239.195 64.8548 239.573 64.5774 240.064C64.3001 240.555 64.1614 241.131 64.1614 241.792C64.1614 242.443 64.3001 243.019 64.5774 243.52C64.8548 244.011 65.2281 244.395 65.6974 244.672C66.1668 244.939 66.6948 245.072 67.2814 245.072ZM78.1767 237.52C78.8594 237.52 79.4567 237.653 79.9687 237.92C80.4914 238.176 80.8967 238.571 81.1847 239.104C81.4834 239.637 81.6327 240.309 81.6327 241.12V246H80.4967V241.232C80.4967 240.347 80.2727 239.68 79.8247 239.232C79.3874 238.773 78.7687 238.544 77.9687 238.544C77.3714 238.544 76.8487 238.667 76.4007 238.912C75.9634 239.147 75.622 239.493 75.3767 239.952C75.142 240.4 75.0247 240.944 75.0247 241.584V246H73.8887V237.6H74.9767V239.904L74.8007 239.472C75.0674 238.864 75.494 238.389 76.0807 238.048C76.6674 237.696 77.366 237.52 78.1767 237.52ZM88.2692 246.08C87.3945 246.08 86.6265 245.899 85.9652 245.536C85.3039 245.163 84.7865 244.656 84.4132 244.016C84.0399 243.365 83.8532 242.624 83.8532 241.792C83.8532 240.96 84.0292 240.224 84.3812 239.584C84.7439 238.944 85.2345 238.443 85.8532 238.08C86.4825 237.707 87.1865 237.52 87.9652 237.52C88.7545 237.52 89.4532 237.701 90.0612 238.064C90.6799 238.416 91.1652 238.917 91.5172 239.568C91.8692 240.208 92.0452 240.949 92.0452 241.792C92.0452 241.845 92.0399 241.904 92.0292 241.968C92.0292 242.021 92.0292 242.08 92.0292 242.144H84.7172V241.296H91.4212L90.9732 241.632C90.9732 241.024 90.8399 240.485 90.5732 240.016C90.3172 239.536 89.9652 239.163 89.5172 238.896C89.0692 238.629 88.5519 238.496 87.9652 238.496C87.3892 238.496 86.8719 238.629 86.4132 238.896C85.9545 239.163 85.5972 239.536 85.3412 240.016C85.0852 240.496 84.9572 241.045 84.9572 241.664V241.84C84.9572 242.48 85.0959 243.045 85.3732 243.536C85.6612 244.016 86.0559 244.395 86.5572 244.672C87.0692 244.939 87.6505 245.072 88.3012 245.072C88.8132 245.072 89.2879 244.981 89.7252 244.8C90.1732 244.619 90.5572 244.341 90.8772 243.968L91.5172 244.704C91.1439 245.152 90.6745 245.493 90.1092 245.728C89.5545 245.963 88.9412 246.08 88.2692 246.08ZM102.833 237.52C103.516 237.52 104.113 237.653 104.625 237.92C105.148 238.176 105.553 238.571 105.841 239.104C106.14 239.637 106.289 240.309 106.289 241.12V246H105.153V241.232C105.153 240.347 104.929 239.68 104.481 239.232C104.044 238.773 103.425 238.544 102.625 238.544C102.028 238.544 101.505 238.667 101.057 238.912C100.62 239.147 100.278 239.493 100.033 239.952C99.7983 240.4 99.6809 240.944 99.6809 241.584V246H98.5449V234.128H99.6809V239.904L99.4569 239.472C99.7236 238.864 100.15 238.389 100.737 238.048C101.324 237.696 102.022 237.52 102.833 237.52ZM114.621 246V244.144L114.573 243.84V240.736C114.573 240.021 114.371 239.472 113.965 239.088C113.571 238.704 112.979 238.512 112.189 238.512C111.645 238.512 111.128 238.603 110.637 238.784C110.147 238.965 109.731 239.205 109.389 239.504L108.877 238.656C109.304 238.293 109.816 238.016 110.413 237.824C111.011 237.621 111.64 237.52 112.301 237.52C113.389 237.52 114.227 237.792 114.813 238.336C115.411 238.869 115.709 239.685 115.709 240.784V246H114.621ZM111.725 246.08C111.096 246.08 110.547 245.979 110.077 245.776C109.619 245.563 109.267 245.275 109.021 244.912C108.776 244.539 108.653 244.112 108.653 243.632C108.653 243.195 108.755 242.8 108.957 242.448C109.171 242.085 109.512 241.797 109.981 241.584C110.461 241.36 111.101 241.248 111.901 241.248H114.797V242.096H111.933C111.123 242.096 110.557 242.24 110.237 242.528C109.928 242.816 109.773 243.173 109.773 243.6C109.773 244.08 109.96 244.464 110.333 244.752C110.707 245.04 111.229 245.184 111.901 245.184C112.541 245.184 113.091 245.04 113.549 244.752C114.019 244.453 114.36 244.027 114.573 243.472L114.829 244.256C114.616 244.811 114.243 245.253 113.709 245.584C113.187 245.915 112.525 246.08 111.725 246.08ZM121.051 246.08C120.358 246.08 119.702 245.984 119.083 245.792C118.464 245.589 117.979 245.339 117.627 245.04L118.139 244.144C118.48 244.4 118.918 244.624 119.451 244.816C119.984 244.997 120.544 245.088 121.131 245.088C121.931 245.088 122.507 244.965 122.859 244.72C123.211 244.464 123.387 244.128 123.387 243.712C123.387 243.403 123.286 243.163 123.083 242.992C122.891 242.811 122.635 242.677 122.315 242.592C121.995 242.496 121.638 242.416 121.243 242.352C120.848 242.288 120.454 242.213 120.059 242.128C119.675 242.043 119.323 241.92 119.003 241.76C118.683 241.589 118.422 241.36 118.219 241.072C118.027 240.784 117.931 240.4 117.931 239.92C117.931 239.461 118.059 239.051 118.315 238.688C118.571 238.325 118.944 238.043 119.435 237.84C119.936 237.627 120.544 237.52 121.259 237.52C121.803 237.52 122.347 237.595 122.891 237.744C123.435 237.883 123.883 238.069 124.235 238.304L123.739 239.216C123.366 238.96 122.966 238.779 122.539 238.672C122.112 238.555 121.686 238.496 121.259 238.496C120.502 238.496 119.942 238.629 119.579 238.896C119.227 239.152 119.051 239.483 119.051 239.888C119.051 240.208 119.147 240.459 119.339 240.64C119.542 240.821 119.803 240.965 120.123 241.072C120.454 241.168 120.811 241.248 121.195 241.312C121.59 241.376 121.979 241.456 122.363 241.552C122.758 241.637 123.115 241.76 123.435 241.92C123.766 242.069 124.027 242.288 124.219 242.576C124.422 242.853 124.523 243.221 124.523 243.68C124.523 244.171 124.384 244.597 124.107 244.96C123.84 245.312 123.446 245.589 122.923 245.792C122.411 245.984 121.787 246.08 121.051 246.08ZM136.059 246V244.144L136.011 243.84V240.736C136.011 240.021 135.808 239.472 135.403 239.088C135.008 238.704 134.416 238.512 133.627 238.512C133.083 238.512 132.566 238.603 132.075 238.784C131.584 238.965 131.168 239.205 130.827 239.504L130.315 238.656C130.742 238.293 131.254 238.016 131.851 237.824C132.448 237.621 133.078 237.52 133.739 237.52C134.827 237.52 135.664 237.792 136.251 238.336C136.848 238.869 137.147 239.685 137.147 240.784V246H136.059ZM133.163 246.08C132.534 246.08 131.984 245.979 131.515 245.776C131.056 245.563 130.704 245.275 130.459 244.912C130.214 244.539 130.091 244.112 130.091 243.632C130.091 243.195 130.192 242.8 130.395 242.448C130.608 242.085 130.95 241.797 131.419 241.584C131.899 241.36 132.539 241.248 133.339 241.248H136.235V242.096H133.371C132.56 242.096 131.995 242.24 131.675 242.528C131.366 242.816 131.211 243.173 131.211 243.6C131.211 244.08 131.398 244.464 131.771 244.752C132.144 245.04 132.667 245.184 133.339 245.184C133.979 245.184 134.528 245.04 134.987 244.752C135.456 244.453 135.798 244.027 136.011 243.472L136.267 244.256C136.054 244.811 135.68 245.253 135.147 245.584C134.624 245.915 133.963 246.08 133.163 246.08ZM144.568 246.08C143.843 246.08 143.187 245.915 142.6 245.584C142.014 245.243 141.544 244.757 141.192 244.128C140.851 243.488 140.68 242.709 140.68 241.792C140.68 240.875 140.851 240.101 141.192 239.472C141.534 238.832 141.998 238.347 142.584 238.016C143.171 237.685 143.832 237.52 144.568 237.52C145.368 237.52 146.083 237.701 146.712 238.064C147.352 238.416 147.854 238.917 148.216 239.568C148.579 240.208 148.76 240.949 148.76 241.792C148.76 242.645 148.579 243.392 148.216 244.032C147.854 244.672 147.352 245.173 146.712 245.536C146.083 245.899 145.368 246.08 144.568 246.08ZM140.232 249.104V237.6H141.32V240.128L141.208 241.808L141.368 243.504V249.104H140.232ZM144.488 245.072C145.086 245.072 145.619 244.939 146.088 244.672C146.558 244.395 146.931 244.011 147.208 243.52C147.486 243.019 147.624 242.443 147.624 241.792C147.624 241.141 147.486 240.571 147.208 240.08C146.931 239.589 146.558 239.205 146.088 238.928C145.619 238.651 145.086 238.512 144.488 238.512C143.891 238.512 143.352 238.651 142.872 238.928C142.403 239.205 142.03 239.589 141.752 240.08C141.486 240.571 141.352 241.141 141.352 241.792C141.352 242.443 141.486 243.019 141.752 243.52C142.03 244.011 142.403 244.395 142.872 244.672C143.352 244.939 143.891 245.072 144.488 245.072ZM155.412 246.08C154.687 246.08 154.031 245.915 153.444 245.584C152.858 245.243 152.388 244.757 152.036 244.128C151.695 243.488 151.524 242.709 151.524 241.792C151.524 240.875 151.695 240.101 152.036 239.472C152.378 238.832 152.842 238.347 153.428 238.016C154.015 237.685 154.676 237.52 155.412 237.52C156.212 237.52 156.927 237.701 157.556 238.064C158.196 238.416 158.698 238.917 159.06 239.568C159.423 240.208 159.604 240.949 159.604 241.792C159.604 242.645 159.423 243.392 159.06 244.032C158.698 244.672 158.196 245.173 157.556 245.536C156.927 245.899 156.212 246.08 155.412 246.08ZM151.076 249.104V237.6H152.164V240.128L152.052 241.808L152.212 243.504V249.104H151.076ZM155.332 245.072C155.93 245.072 156.463 244.939 156.932 244.672C157.402 244.395 157.775 244.011 158.052 243.52C158.33 243.019 158.468 242.443 158.468 241.792C158.468 241.141 158.33 240.571 158.052 240.08C157.775 239.589 157.402 239.205 156.932 238.928C156.463 238.651 155.93 238.512 155.332 238.512C154.735 238.512 154.196 238.651 153.716 238.928C153.247 239.205 152.874 239.589 152.596 240.08C152.33 240.571 152.196 241.141 152.196 241.792C152.196 242.443 152.33 243.019 152.596 243.52C152.874 244.011 153.247 244.395 153.716 244.672C154.196 244.939 154.735 245.072 155.332 245.072ZM161.92 246V234.128H163.056V246H161.92ZM166.217 246V237.6H167.353V246H166.217ZM166.793 235.744C166.558 235.744 166.361 235.664 166.201 235.504C166.041 235.344 165.961 235.152 165.961 234.928C165.961 234.704 166.041 234.517 166.201 234.368C166.361 234.208 166.558 234.128 166.793 234.128C167.027 234.128 167.225 234.203 167.385 234.352C167.545 234.501 167.625 234.688 167.625 234.912C167.625 235.147 167.545 235.344 167.385 235.504C167.235 235.664 167.038 235.744 166.793 235.744ZM174.082 246.08C173.207 246.08 172.439 245.899 171.778 245.536C171.116 245.163 170.599 244.656 170.226 244.016C169.852 243.365 169.666 242.624 169.666 241.792C169.666 240.96 169.842 240.224 170.194 239.584C170.556 238.944 171.047 238.443 171.666 238.08C172.295 237.707 172.999 237.52 173.778 237.52C174.567 237.52 175.266 237.701 175.874 238.064C176.492 238.416 176.978 238.917 177.33 239.568C177.682 240.208 177.858 240.949 177.858 241.792C177.858 241.845 177.852 241.904 177.842 241.968C177.842 242.021 177.842 242.08 177.842 242.144H170.53V241.296H177.234L176.786 241.632C176.786 241.024 176.652 240.485 176.386 240.016C176.13 239.536 175.778 239.163 175.33 238.896C174.882 238.629 174.364 238.496 173.778 238.496C173.202 238.496 172.684 238.629 172.226 238.896C171.767 239.163 171.41 239.536 171.154 240.016C170.898 240.496 170.77 241.045 170.77 241.664V241.84C170.77 242.48 170.908 243.045 171.186 243.536C171.474 244.016 171.868 244.395 172.37 244.672C172.882 244.939 173.463 245.072 174.114 245.072C174.626 245.072 175.1 244.981 175.538 244.8C175.986 244.619 176.37 244.341 176.69 243.968L177.33 244.704C176.956 245.152 176.487 245.493 175.922 245.728C175.367 245.963 174.754 246.08 174.082 246.08ZM183.514 246.08C182.714 246.08 181.994 245.899 181.354 245.536C180.725 245.173 180.229 244.672 179.866 244.032C179.503 243.381 179.322 242.635 179.322 241.792C179.322 240.939 179.503 240.192 179.866 239.552C180.229 238.912 180.725 238.416 181.354 238.064C181.994 237.701 182.714 237.52 183.514 237.52C184.25 237.52 184.906 237.685 185.482 238.016C186.069 238.347 186.533 238.832 186.874 239.472C187.226 240.101 187.402 240.875 187.402 241.792C187.402 242.699 187.231 243.472 186.89 244.112C186.549 244.752 186.085 245.243 185.498 245.584C184.922 245.915 184.261 246.08 183.514 246.08ZM183.594 245.072C184.191 245.072 184.725 244.939 185.194 244.672C185.674 244.395 186.047 244.011 186.314 243.52C186.591 243.019 186.73 242.443 186.73 241.792C186.73 241.131 186.591 240.555 186.314 240.064C186.047 239.573 185.674 239.195 185.194 238.928C184.725 238.651 184.191 238.512 183.594 238.512C183.007 238.512 182.479 238.651 182.01 238.928C181.541 239.195 181.167 239.573 180.89 240.064C180.613 240.555 180.474 241.131 180.474 241.792C180.474 242.443 180.613 243.019 180.89 243.52C181.167 244.011 181.541 244.395 182.01 244.672C182.479 244.939 183.007 245.072 183.594 245.072ZM186.762 246V243.472L186.874 241.776L186.714 240.08V234.128H187.85V246H186.762ZM195.393 246V236.544C195.393 235.797 195.612 235.195 196.049 234.736C196.487 234.277 197.116 234.048 197.937 234.048C198.257 234.048 198.567 234.091 198.865 234.176C199.164 234.261 199.415 234.395 199.617 234.576L199.233 235.424C199.073 235.285 198.887 235.184 198.673 235.12C198.46 235.045 198.231 235.008 197.985 235.008C197.505 235.008 197.137 235.141 196.881 235.408C196.625 235.675 196.497 236.069 196.497 236.592V237.872L196.529 238.4V246H195.393ZM193.889 238.544V237.6H199.089V238.544H193.889ZM203.906 246.08C203.096 246.08 202.365 245.899 201.714 245.536C201.074 245.163 200.568 244.656 200.194 244.016C199.821 243.365 199.634 242.624 199.634 241.792C199.634 240.949 199.821 240.208 200.194 239.568C200.568 238.928 201.074 238.427 201.714 238.064C202.354 237.701 203.085 237.52 203.906 237.52C204.738 237.52 205.474 237.701 206.114 238.064C206.765 238.427 207.272 238.928 207.634 239.568C208.008 240.208 208.194 240.949 208.194 241.792C208.194 242.624 208.008 243.365 207.634 244.016C207.272 244.656 206.765 245.163 206.114 245.536C205.464 245.899 204.728 246.08 203.906 246.08ZM203.906 245.072C204.514 245.072 205.053 244.939 205.522 244.672C205.992 244.395 206.36 244.011 206.626 243.52C206.904 243.019 207.042 242.443 207.042 241.792C207.042 241.131 206.904 240.555 206.626 240.064C206.36 239.573 205.992 239.195 205.522 238.928C205.053 238.651 204.52 238.512 203.922 238.512C203.325 238.512 202.792 238.651 202.322 238.928C201.853 239.195 201.48 239.573 201.202 240.064C200.925 240.555 200.786 241.131 200.786 241.792C200.786 242.443 200.925 243.019 201.202 243.52C201.48 244.011 201.853 244.395 202.322 244.672C202.792 244.939 203.32 245.072 203.906 245.072ZM210.514 246V237.6H211.602V239.888L211.49 239.488C211.724 238.848 212.119 238.363 212.674 238.032C213.228 237.691 213.916 237.52 214.738 237.52V238.624C214.695 238.624 214.652 238.624 214.61 238.624C214.567 238.613 214.524 238.608 214.482 238.608C213.596 238.608 212.903 238.88 212.402 239.424C211.9 239.957 211.65 240.72 211.65 241.712V246H210.514ZM221.123 246V234.128H222.259V246H221.123ZM228.988 246.08C228.113 246.08 227.345 245.899 226.684 245.536C226.023 245.163 225.505 244.656 225.132 244.016C224.759 243.365 224.572 242.624 224.572 241.792C224.572 240.96 224.748 240.224 225.1 239.584C225.463 238.944 225.953 238.443 226.572 238.08C227.201 237.707 227.905 237.52 228.684 237.52C229.473 237.52 230.172 237.701 230.78 238.064C231.399 238.416 231.884 238.917 232.236 239.568C232.588 240.208 232.764 240.949 232.764 241.792C232.764 241.845 232.759 241.904 232.748 241.968C232.748 242.021 232.748 242.08 232.748 242.144H225.436V241.296H232.14L231.692 241.632C231.692 241.024 231.559 240.485 231.292 240.016C231.036 239.536 230.684 239.163 230.236 238.896C229.788 238.629 229.271 238.496 228.684 238.496C228.108 238.496 227.591 238.629 227.132 238.896C226.673 239.163 226.316 239.536 226.06 240.016C225.804 240.496 225.676 241.045 225.676 241.664V241.84C225.676 242.48 225.815 243.045 226.092 243.536C226.38 244.016 226.775 244.395 227.276 244.672C227.788 244.939 228.369 245.072 229.02 245.072C229.532 245.072 230.007 244.981 230.444 244.8C230.892 244.619 231.276 244.341 231.596 243.968L232.236 244.704C231.863 245.152 231.393 245.493 230.828 245.728C230.273 245.963 229.66 246.08 228.988 246.08ZM240.106 246V244.144L240.058 243.84V240.736C240.058 240.021 239.855 239.472 239.45 239.088C239.055 238.704 238.463 238.512 237.674 238.512C237.13 238.512 236.612 238.603 236.122 238.784C235.631 238.965 235.215 239.205 234.874 239.504L234.362 238.656C234.788 238.293 235.3 238.016 235.898 237.824C236.495 237.621 237.124 237.52 237.786 237.52C238.874 237.52 239.711 237.792 240.298 238.336C240.895 238.869 241.194 239.685 241.194 240.784V246H240.106ZM237.21 246.08C236.58 246.08 236.031 245.979 235.562 245.776C235.103 245.563 234.751 245.275 234.506 244.912C234.26 244.539 234.138 244.112 234.138 243.632C234.138 243.195 234.239 242.8 234.442 242.448C234.655 242.085 234.996 241.797 235.466 241.584C235.946 241.36 236.586 241.248 237.386 241.248H240.282V242.096H237.418C236.607 242.096 236.042 242.24 235.722 242.528C235.412 242.816 235.258 243.173 235.258 243.6C235.258 244.08 235.444 244.464 235.818 244.752C236.191 245.04 236.714 245.184 237.386 245.184C238.026 245.184 238.575 245.04 239.034 244.752C239.503 244.453 239.844 244.027 240.058 243.472L240.314 244.256C240.1 244.811 239.727 245.253 239.194 245.584C238.671 245.915 238.01 246.08 237.21 246.08ZM246.283 246L242.555 237.6H243.739L247.163 245.392H246.603L250.075 237.6H251.195L247.451 246H246.283ZM256.129 246.08C255.254 246.08 254.486 245.899 253.825 245.536C253.163 245.163 252.646 244.656 252.273 244.016C251.899 243.365 251.713 242.624 251.713 241.792C251.713 240.96 251.889 240.224 252.241 239.584C252.603 238.944 253.094 238.443 253.713 238.08C254.342 237.707 255.046 237.52 255.825 237.52C256.614 237.52 257.313 237.701 257.921 238.064C258.539 238.416 259.025 238.917 259.377 239.568C259.729 240.208 259.905 240.949 259.905 241.792C259.905 241.845 259.899 241.904 259.889 241.968C259.889 242.021 259.889 242.08 259.889 242.144H252.577V241.296H259.281L258.833 241.632C258.833 241.024 258.699 240.485 258.433 240.016C258.177 239.536 257.825 239.163 257.377 238.896C256.929 238.629 256.411 238.496 255.825 238.496C255.249 238.496 254.731 238.629 254.273 238.896C253.814 239.163 253.457 239.536 253.201 240.016C252.945 240.496 252.817 241.045 252.817 241.664V241.84C252.817 242.48 252.955 243.045 253.233 243.536C253.521 244.016 253.915 244.395 254.417 244.672C254.929 244.939 255.51 245.072 256.161 245.072C256.673 245.072 257.147 244.981 257.585 244.8C258.033 244.619 258.417 244.341 258.737 243.968L259.377 244.704C259.003 245.152 258.534 245.493 257.969 245.728C257.414 245.963 256.801 246.08 256.129 246.08ZM266.468 249.184C266.074 249.184 265.695 249.12 265.332 248.992C264.98 248.864 264.676 248.672 264.42 248.416L264.948 247.568C265.162 247.771 265.391 247.925 265.636 248.032C265.892 248.149 266.175 248.208 266.484 248.208C266.858 248.208 267.178 248.101 267.444 247.888C267.722 247.685 267.983 247.323 268.228 246.8L268.772 245.568L268.9 245.392L272.356 237.6H273.476L269.268 247.008C269.034 247.552 268.772 247.984 268.484 248.304C268.207 248.624 267.903 248.848 267.572 248.976C267.242 249.115 266.874 249.184 266.468 249.184ZM268.708 246.24L264.836 237.6H266.02L269.444 245.312L268.708 246.24ZM278.41 246.08C277.535 246.08 276.767 245.899 276.106 245.536C275.444 245.163 274.927 244.656 274.554 244.016C274.18 243.365 273.994 242.624 273.994 241.792C273.994 240.96 274.17 240.224 274.522 239.584C274.884 238.944 275.375 238.443 275.994 238.08C276.623 237.707 277.327 237.52 278.106 237.52C278.895 237.52 279.594 237.701 280.202 238.064C280.82 238.416 281.306 238.917 281.658 239.568C282.01 240.208 282.186 240.949 282.186 241.792C282.186 241.845 282.18 241.904 282.17 241.968C282.17 242.021 282.17 242.08 282.17 242.144H274.858V241.296H281.562L281.114 241.632C281.114 241.024 280.98 240.485 280.714 240.016C280.458 239.536 280.106 239.163 279.658 238.896C279.21 238.629 278.692 238.496 278.106 238.496C277.53 238.496 277.012 238.629 276.554 238.896C276.095 239.163 275.738 239.536 275.482 240.016C275.226 240.496 275.098 241.045 275.098 241.664V241.84C275.098 242.48 275.236 243.045 275.514 243.536C275.802 244.016 276.196 244.395 276.698 244.672C277.21 244.939 277.791 245.072 278.442 245.072C278.954 245.072 279.428 244.981 279.866 244.8C280.314 244.619 280.698 244.341 281.018 243.968L281.658 244.704C281.284 245.152 280.815 245.493 280.25 245.728C279.695 245.963 279.082 246.08 278.41 246.08ZM287.154 246.08C286.365 246.08 285.757 245.867 285.33 245.44C284.903 245.013 284.69 244.411 284.69 243.632V235.744H285.826V243.568C285.826 244.059 285.949 244.437 286.194 244.704C286.45 244.971 286.813 245.104 287.282 245.104C287.783 245.104 288.199 244.96 288.53 244.672L288.93 245.488C288.706 245.691 288.434 245.84 288.114 245.936C287.805 246.032 287.485 246.08 287.154 246.08ZM283.186 238.544V237.6H288.386V238.544H283.186ZM291.266 246.08C291.032 246.08 290.829 245.995 290.658 245.824C290.498 245.653 290.418 245.445 290.418 245.2C290.418 244.944 290.498 244.736 290.658 244.576C290.829 244.416 291.032 244.336 291.266 244.336C291.501 244.336 291.698 244.416 291.858 244.576C292.029 244.736 292.114 244.944 292.114 245.2C292.114 245.445 292.029 245.653 291.858 245.824C291.698 245.995 291.501 246.08 291.266 246.08Z" fill="black"/>
<defs>
<clipPath id="clip0_2695_11523">
<rect width="255.84" height="180" fill="white" transform="translate(36.0801)"/>
</clipPath>
</defs>
</svg>
