<svg width="328" height="316" viewBox="0 0 328 316" fill="none" xmlns="http://www.w3.org/2000/svg">
<g clip-path="url(#clip0_2711_13356)">
<path d="M273.846 70.3488H273.555C270.395 70.3453 267.366 69.0884 265.131 66.854C262.897 64.6196 261.64 61.5901 261.636 58.4302V54.3605H226.171V53.7791H262.218V58.4302C262.221 61.3857 263.377 64.2232 265.44 66.3396C267.503 68.4561 270.31 69.6845 273.264 69.7638V53.7791H281.694C282.85 53.7778 283.959 53.3179 284.776 52.5005C285.594 51.683 286.054 50.5747 286.055 49.4186V4.94186C286.054 3.78579 285.594 2.67745 284.776 1.85999C283.959 1.04253 282.85 0.582703 281.694 0.581395H170.648C169.492 0.582703 168.384 1.04253 167.566 1.85999C166.749 2.67745 166.289 3.78579 166.287 4.94186V37.2093H165.706V4.94186C165.708 3.63165 166.229 2.37553 167.155 1.44907C168.082 0.522607 169.338 0.00147496 170.648 0H281.694C283.005 0.00147496 284.261 0.522607 285.187 1.44907C286.114 2.37553 286.635 3.63165 286.636 4.94186V49.4186C286.635 50.7288 286.114 51.9849 285.187 52.9114C284.261 53.8379 283.005 54.359 281.694 54.3605H273.846V70.3488Z" fill="#CCCCCC"/>
<path d="M263.375 14.6827C263.338 13.7448 262.94 12.8574 262.264 12.2066C261.587 11.5558 260.685 11.192 259.747 11.1914H192.596C191.632 11.1914 190.708 11.5742 190.026 12.2557C189.345 12.9372 188.962 13.8614 188.962 14.8251C188.962 15.7888 189.345 16.7131 190.026 17.3946C190.708 18.076 191.632 18.4588 192.596 18.4588H259.747C260.71 18.4575 261.634 18.0743 262.315 17.3931C262.996 16.7119 263.379 15.7884 263.381 14.8251C263.381 14.7776 263.38 14.73 263.375 14.6827Z" fill="#CCCCCC"/>
<path d="M263.375 26.8926C263.338 25.9547 262.94 25.0674 262.264 24.4166C261.587 23.7657 260.685 23.4019 259.747 23.4014H192.596C191.632 23.4014 190.708 23.7842 190.026 24.4657C189.345 25.1471 188.962 26.0714 188.962 27.0351C188.962 27.9988 189.345 28.9231 190.026 29.6045C190.708 30.286 191.632 30.6688 192.596 30.6688H259.747C260.71 30.6675 261.634 30.2842 262.315 29.603C262.996 28.9219 263.379 27.9984 263.381 27.0351C263.381 26.9875 263.38 26.94 263.375 26.8926Z" fill="#CCCCCC"/>
<path d="M263.374 39.1016C263.338 38.1637 262.94 37.2764 262.263 36.6255C261.587 35.9747 260.685 35.6109 259.746 35.6104H192.595C192.063 35.6104 191.536 35.7276 191.054 35.9536C190.572 36.1797 190.145 36.5091 189.804 36.9185C189.655 37.0997 189.523 37.2943 189.409 37.4999H221.52C222.676 37.5013 223.784 37.9611 224.601 38.7786C225.419 39.596 225.879 40.7043 225.88 41.8604V42.8778H259.746C260.71 42.8765 261.633 42.4932 262.314 41.812C262.996 41.1309 263.379 40.2074 263.38 39.2441C263.381 39.1965 263.379 39.1489 263.374 39.1016Z" fill="#CCCCCC"/>
<path d="M34.2456 199.042C34.4037 199.172 34.5619 199.296 34.7238 199.418H74.6669C74.9644 199.296 75.2606 199.171 75.5556 199.042C79.7723 197.207 83.6972 194.763 87.2048 191.789C89.534 189.816 91.6767 187.779 93.23 185.869C95.3971 183.205 97.393 180.302 98.3213 176.994C99.2476 173.685 98.9709 169.893 96.9016 167.15C96.2608 166.306 95.4731 165.585 94.5762 165.02C94.4275 164.926 94.2769 164.836 94.1225 164.751C91.5481 163.366 88.545 163.004 85.7155 163.74C81.7144 164.774 78.3893 167.66 76.0169 171.046C73.6445 174.429 72.1043 178.315 70.5868 182.158C69.0466 175.299 64.3827 169.155 58.0826 166.032C51.7844 162.908 43.9593 162.946 37.7948 166.329C35.8552 167.4 34.1031 168.78 32.6075 170.415C32.4588 170.575 32.3137 170.739 32.1707 170.904C29.1638 174.386 27.2828 178.844 27.1284 183.442C27.059 186.411 27.6634 189.357 28.8961 192.059C30.1288 194.761 31.9577 197.148 34.2456 199.042Z" fill="#F2F2F2"/>
<path d="M73.0703 199.419H73.6352C73.6426 199.293 73.6521 199.168 73.6634 199.042C73.8608 196.579 74.2741 194.138 74.8986 191.748C76.3312 186.29 78.7782 181.151 82.1118 176.598C85.4359 172.031 89.6265 168.163 94.4446 165.215C94.4798 165.194 94.51 165.166 94.5328 165.133C94.5557 165.099 94.5705 165.061 94.5763 165.021C94.5855 164.968 94.5796 164.914 94.5593 164.865C94.5389 164.815 94.5049 164.773 94.4613 164.742C94.4177 164.711 94.3663 164.693 94.3129 164.691C94.2596 164.688 94.2067 164.701 94.1602 164.727C94.1472 164.734 94.1347 164.743 94.1226 164.751C91.3929 166.415 88.8589 168.381 86.5685 170.611C82.4716 174.608 79.168 179.343 76.8323 184.569C74.7716 189.145 73.5094 194.04 73.1004 199.042C73.0891 199.168 73.0797 199.294 73.0703 199.419Z" fill="white"/>
<path d="M32.1712 170.904C32.1753 170.906 32.1797 170.908 32.1843 170.908C32.5967 170.983 33.0109 171.062 33.4214 171.147C36.7908 171.839 40.0892 172.841 43.2745 174.139C46.4514 175.435 49.5072 177.011 52.4063 178.846C55.3092 180.68 58.0465 182.765 60.5873 185.075C63.1282 187.381 65.4589 189.909 67.5521 192.629C69.1165 194.666 70.5389 196.809 71.8092 199.042C71.8807 199.166 71.9504 199.292 72.0201 199.418H72.6659C72.5981 199.292 72.5284 199.166 72.4569 199.042C70.9201 196.306 69.1579 193.703 67.1886 191.26C65.011 188.556 62.597 186.051 59.9754 183.775C57.3705 181.512 54.5747 179.479 51.6193 177.698C48.6516 175.909 45.5315 174.387 42.2953 173.149C39.1549 171.948 35.9127 171.033 32.608 170.415C32.5158 170.398 32.4254 170.381 32.3331 170.364C31.9811 170.3 31.8304 170.831 32.1712 170.904Z" fill="white"/>
<path d="M43.4033 190.559C47.3367 190.018 51.3312 190.108 55.2362 190.826C59.1298 191.538 62.8887 192.852 66.3776 194.721C68.3383 195.775 70.1993 197.004 71.9375 198.395C72.2215 198.621 71.8195 199.019 71.5381 198.794C68.488 196.368 65.0689 194.446 61.4107 193.101C57.7815 191.759 53.9669 190.985 50.1015 190.807C47.9143 190.706 45.7226 190.806 43.5535 191.104C43.4814 191.121 43.4054 191.11 43.3409 191.074C43.2764 191.037 43.2282 190.977 43.2061 190.906C43.1866 190.834 43.1964 190.757 43.2333 190.692C43.2703 190.627 43.3314 190.579 43.4033 190.559Z" fill="white"/>
<path d="M221.23 37.5H110.183C108.873 37.5019 107.617 38.0231 106.691 38.9495C105.764 39.8759 105.243 41.1318 105.241 42.4419V86.9186C105.243 88.2287 105.764 89.4846 106.691 90.411C107.617 91.3374 108.873 91.8586 110.183 91.8605H118.032V107.849H118.323C121.483 107.846 124.512 106.589 126.747 104.354C128.981 102.12 130.238 99.0902 130.241 95.9302V91.8605H221.23C222.54 91.8586 223.796 91.3374 224.722 90.411C225.648 89.4846 226.17 88.2287 226.171 86.9186V42.4419C226.17 41.1318 225.648 39.8759 224.722 38.9495C223.796 38.0231 222.54 37.5019 221.23 37.5ZM225.59 86.9186C225.589 88.0746 225.129 89.1829 224.311 90.0004C223.494 90.8178 222.386 91.2777 221.23 91.2791H129.66V95.9302C129.656 98.8856 128.5 101.723 126.437 103.839C124.374 105.956 121.568 107.185 118.613 107.265V91.2791H110.183C109.027 91.2777 107.919 90.8178 107.101 90.0004C106.284 89.1829 105.824 88.0746 105.823 86.9186V42.4419C105.824 41.2858 106.284 40.1775 107.101 39.3601C107.919 38.5427 109.027 38.0828 110.183 38.0814H221.23C222.386 38.0828 223.494 38.5427 224.311 39.3601C225.129 40.1775 225.589 41.2858 225.59 42.4419V86.9186Z" fill="#3F3D56"/>
<path d="M199.281 48.6914H132.13C131.191 48.6919 130.289 49.0558 129.613 49.7066C128.937 50.3574 128.539 51.2448 128.502 52.1827C128.497 52.23 128.495 52.2776 128.496 52.3251C128.498 53.2884 128.881 54.2119 129.562 54.8931C130.243 55.5742 131.167 55.9575 132.13 55.9588H199.281C200.245 55.9588 201.169 55.576 201.851 54.8946C202.532 54.2131 202.915 53.2888 202.915 52.3251C202.915 51.3614 202.532 50.4372 201.851 49.7557C201.169 49.0742 200.245 48.6914 199.281 48.6914Z" fill="#8094D4"/>
<path d="M199.281 60.9014H132.13C131.191 60.9019 130.289 61.2657 129.613 61.9166C128.937 62.5674 128.539 63.4548 128.502 64.3926C128.497 64.44 128.495 64.4875 128.496 64.5351C128.498 65.4984 128.881 66.4219 129.562 67.103C130.243 67.7842 131.167 68.1675 132.13 68.1688H199.281C200.245 68.1688 201.169 67.786 201.851 67.1045C202.532 66.4231 202.915 65.4988 202.915 64.5351C202.915 63.5714 202.532 62.6471 201.851 61.9657C201.169 61.2842 200.245 60.9014 199.281 60.9014Z" fill="#8094D4"/>
<path d="M199.281 73.1104H132.13C131.191 73.1109 130.289 73.4747 129.613 74.1255C128.937 74.7764 128.539 75.6637 128.502 76.6016C128.497 76.649 128.495 76.6965 128.496 76.7441C128.498 77.7074 128.881 78.6308 129.562 79.312C130.243 79.9932 131.167 80.3764 132.13 80.3778H199.281C200.245 80.3778 201.169 79.995 201.851 79.3135C202.532 78.632 202.915 77.7078 202.915 76.7441C202.915 75.7803 202.532 74.8561 201.851 74.1746C201.169 73.4932 200.245 73.1104 199.281 73.1104Z" fill="#8094D4"/>
<path d="M92.4463 137.419C92.3154 137.419 92.1846 137.411 92.0548 137.394C91.6075 137.34 91.1768 137.191 90.7911 136.958C90.4053 136.725 90.073 136.413 89.8162 136.043C89.5593 135.673 89.3835 135.252 89.3004 134.809C89.2173 134.367 89.2287 133.911 89.3339 133.473C89.3588 133.371 89.3889 133.271 89.4242 133.172L79.7251 120.755C79.2981 120.204 79.0601 119.53 79.0465 118.833C79.0329 118.137 79.2443 117.454 79.6495 116.887L83.0468 112.168L87.4874 115.594L85.7034 118.658L92.7682 131.042C92.9102 131.055 93.0512 131.078 93.19 131.11C93.9512 131.293 94.6188 131.749 95.0665 132.391C95.5142 133.033 95.7108 133.817 95.6192 134.595C95.5275 135.372 95.1539 136.089 94.5692 136.61C93.9844 137.13 93.2291 137.418 92.4463 137.419Z" fill="#A0616A"/>
<path d="M109.231 196.256L112.795 196.255L114.49 182.509L109.23 182.509L109.231 196.256Z" fill="#A0616A"/>
<path d="M119.669 199.563L108.468 199.564L108.468 195.236L115.341 195.236C115.909 195.236 116.472 195.348 116.997 195.565C117.522 195.783 117.999 196.102 118.401 196.503C118.803 196.905 119.122 197.382 119.339 197.907C119.557 198.432 119.669 198.995 119.669 199.563Z" fill="#2F2E41"/>
<path d="M79.8707 196.256L83.4347 196.255L85.13 182.509L79.8701 182.509L79.8707 196.256Z" fill="#A0616A"/>
<path d="M90.3086 199.563L79.1078 199.564L79.1076 195.236L85.9808 195.236C86.5491 195.236 87.1119 195.348 87.6369 195.565C88.162 195.783 88.6391 196.102 89.0409 196.503C89.4428 196.905 89.7616 197.382 89.9791 197.907C90.1966 198.432 90.3086 198.995 90.3086 199.563Z" fill="#2F2E41"/>
<path d="M82.0586 112.837L90.0599 115.877L92.0134 110.451C92.2728 109.73 92.2692 108.941 92.0031 108.223C91.737 107.505 91.2256 106.904 90.5594 106.526C89.8854 106.145 89.097 106.016 88.3367 106.165C87.5763 106.313 86.8941 106.729 86.4133 107.336L82.0586 112.837Z" fill="#8094D4"/>
<path d="M108.598 185.158C108.278 185.158 107.968 185.051 107.716 184.855C107.464 184.659 107.284 184.385 107.205 184.075C103.215 168.81 99.1633 161.159 94.819 152.312C94.7104 152.091 94.5342 151.911 94.3161 151.797C94.098 151.684 93.8494 151.643 93.6063 151.68C93.3633 151.718 93.1386 151.832 92.9649 152.006C92.7911 152.18 92.6774 152.405 92.6403 152.648L87.2554 183.767C87.2017 184.114 87.0236 184.43 86.7543 184.655C86.485 184.881 86.1429 185.001 85.7917 184.993L77.7971 184.798C77.6031 184.794 77.412 184.751 77.2352 184.671C77.0585 184.591 76.8998 184.476 76.7688 184.333C76.6303 184.196 76.5245 184.029 76.4589 183.846C76.3933 183.662 76.3697 183.466 76.3898 183.272C80.0107 159.393 82.8616 137.778 88.3441 131.184C88.4961 131.04 88.6703 130.922 88.8601 130.833L88.6937 130.808C88.6462 130.8 88.5196 130.781 88.518 130.654L88.5164 130.531L88.6415 130.507C88.8411 130.5 89.0404 130.53 89.2291 130.595L101.742 132.521C102.089 132.574 102.404 132.752 102.629 133.021C102.855 133.289 102.975 133.631 102.967 133.981C103.647 137.164 104.69 141.967 104.783 142.204C111.459 154.896 114.05 164.891 116.742 181.958C116.798 182.319 116.715 182.689 116.509 182.992C116.304 183.295 115.991 183.509 115.634 183.591L108.924 185.122C108.817 185.146 108.707 185.158 108.598 185.158Z" fill="#2F2E41"/>
<path d="M101.576 134.602C101.464 134.602 101.352 134.589 101.243 134.563L88.9233 131.632C88.7345 131.588 88.5567 131.506 88.4009 131.39C88.2452 131.275 88.1147 131.129 88.0176 130.961C87.9174 130.787 87.8533 130.595 87.8291 130.396C87.8049 130.197 87.8212 129.996 87.8769 129.803C89.2053 125.198 87.4634 119.488 85.3831 114.005C85.1185 112.401 85.3777 110.755 86.1222 109.311C86.8668 107.866 88.0571 106.7 89.5166 105.985L89.5501 105.969L96.018 106.295C97.08 106.574 98.0651 107.089 98.8993 107.803C99.7334 108.517 100.395 109.411 100.834 110.417C103.327 116.252 104.041 123.738 103.016 133.305C102.978 133.661 102.81 133.99 102.545 134.23C102.279 134.469 101.934 134.602 101.576 134.602Z" fill="#8094D4"/>
<path d="M103.233 121.284C102.575 121.285 101.934 121.081 101.398 120.7L96.626 117.299L100.03 112.843L103.104 114.612L115.453 107.488C115.465 107.346 115.487 107.204 115.519 107.065C115.664 106.45 115.988 105.891 116.451 105.459C116.913 105.028 117.493 104.743 118.117 104.641C118.741 104.539 119.382 104.625 119.957 104.887C120.533 105.149 121.018 105.576 121.351 106.114C121.684 106.651 121.85 107.276 121.828 107.908C121.806 108.54 121.597 109.151 121.228 109.665C120.859 110.178 120.345 110.57 119.753 110.792C119.161 111.014 118.516 111.055 117.9 110.91C117.799 110.886 117.698 110.856 117.599 110.821L105.194 120.608C104.635 121.047 103.944 121.285 103.233 121.284Z" fill="#A0616A"/>
<path d="M95.1129 118.688L102.191 113.874L98.8645 109.163C98.4228 108.538 97.7742 108.088 97.0333 107.895C96.2924 107.701 95.5068 107.775 94.8155 108.105C94.1162 108.438 93.5591 109.011 93.2449 109.719C92.9307 110.427 92.88 111.224 93.102 111.966L95.1129 118.688Z" fill="#8094D4"/>
<path d="M91.7082 103.553C95.6514 103.553 98.848 100.356 98.848 96.4133C98.848 92.47 95.6514 89.2734 91.7082 89.2734C87.765 89.2734 84.5684 92.47 84.5684 96.4133C84.5684 100.356 87.765 103.553 91.7082 103.553Z" fill="#A0616A"/>
<path d="M92.3628 103.718C91.2912 103.713 90.4645 102.585 90.5126 101.514C90.5606 100.444 91.2796 99.5019 92.1459 98.871C93.0122 98.2402 94.0281 97.8559 94.9941 97.3921C95.9602 96.9283 96.9178 96.3498 97.5143 95.4595C97.8746 94.8768 98.0897 94.2161 98.1415 93.5329C98.1932 92.8498 98.0801 92.1642 97.8117 91.5338C97.2567 90.2731 96.3036 89.2291 95.0986 88.5617C93.3086 87.5139 91.1895 87.1788 89.1635 87.6233C87.1375 88.0678 85.3533 89.2591 84.1663 90.96L82.943 94.2908C81.6966 95.7897 81.4989 98.0156 82.2651 99.8082C83.0313 101.601 84.6628 102.949 86.5038 103.591C88.3716 104.191 90.3711 104.251 92.2715 103.763" fill="#2F2E41"/>
<path d="M84.6483 93.0283C84.1591 92.274 83.492 91.6518 82.7056 91.2163C81.9192 90.7808 81.0377 90.5454 80.1389 90.531C79.2401 90.5165 78.3515 90.7235 77.5516 91.1335C76.7516 91.5435 76.0648 92.1441 75.5517 92.8822C74.6929 94.1178 74.3809 95.6409 73.7904 97.0249C72.7208 99.5035 70.7755 101.501 68.3262 102.636C70.4708 103.013 72.6073 101.922 74.3218 100.58C76.0364 99.2377 77.5442 97.5994 79.4644 96.5725C80.975 95.7677 82.672 95.378 84.3823 95.443" fill="#2F2E41"/>
<path d="M144.745 200H33.9889C33.9118 200 33.8379 199.97 33.7834 199.915C33.7289 199.861 33.6982 199.787 33.6982 199.71C33.6982 199.633 33.7289 199.559 33.7834 199.504C33.8379 199.45 33.9118 199.419 33.9889 199.419H144.745C144.822 199.419 144.896 199.45 144.95 199.504C145.005 199.559 145.035 199.633 145.035 199.71C145.035 199.787 145.005 199.861 144.95 199.915C144.896 199.97 144.822 200 144.745 200Z" fill="#3F3D56"/>
<path d="M283.729 106.395C293.202 106.395 300.88 98.7163 300.88 89.2439C300.88 79.7716 293.202 72.0928 283.729 72.0928C274.257 72.0928 266.578 79.7716 266.578 89.2439C266.578 98.7163 274.257 106.395 283.729 106.395Z" fill="#E6E6E6"/>
<path d="M285.365 101.468C284.667 101.449 283.797 101.424 283.128 100.935C282.929 100.784 282.765 100.59 282.648 100.369C282.531 100.147 282.464 99.9027 282.452 99.6525C282.44 99.4747 282.469 99.2965 282.537 99.1318C282.605 98.9672 282.711 98.8205 282.845 98.7033C283.044 98.5544 283.278 98.4578 283.525 98.4223C283.771 98.3868 284.022 98.4136 284.256 98.5002L283.686 94.3327L284.104 94.2754L284.775 99.1748L284.425 99.0144C284.02 98.8285 283.463 98.734 283.118 99.026C283.033 99.1024 282.967 99.1973 282.924 99.3033C282.882 99.4094 282.865 99.5238 282.874 99.6375C282.884 99.8238 282.935 100.006 283.021 100.171C283.108 100.336 283.23 100.48 283.377 100.594C283.898 100.975 284.591 101.024 285.377 101.046L285.365 101.468Z" fill="#3F3D56"/>
<path d="M281.615 94.6924H279.339V95.1149H281.615V94.6924Z" fill="#3F3D56"/>
<path d="M288.798 94.6924H286.522V95.1149H288.798V94.6924Z" fill="#3F3D56"/>
<path d="M275.386 88.8575C273.553 88.6486 272.134 86.8927 271.978 85.1111C271.793 82.9917 273.027 80.9787 274.72 79.7893C276.491 78.5456 278.698 78.0262 280.832 77.9118C284.997 77.7046 289.089 79.0536 292.314 81.6964C293.914 83.0249 295.408 84.7173 295.974 86.7614C296.466 88.5366 296.066 90.5478 294.638 91.7911C294.285 92.0958 293.872 92.3239 293.426 92.4612C292.981 92.5985 292.511 92.6418 292.048 92.5886C290.94 92.4735 289.918 91.891 289.033 91.2477C287.312 89.9962 285.899 88.2529 283.802 87.5989C282.264 87.1194 280.269 87.5415 279.329 88.9319C279.116 89.2502 278.978 89.6128 278.925 89.9922C278.906 90.0731 278.918 90.1584 278.959 90.2308C279 90.3032 279.067 90.3572 279.147 90.382C279.228 90.4039 279.314 90.3929 279.387 90.3514C279.46 90.31 279.514 90.2415 279.536 90.1607C279.783 88.4094 281.937 87.7559 283.448 88.1559C285.651 88.739 287.13 90.7051 288.937 91.9542C289.873 92.6519 290.976 93.0919 292.134 93.2302C293.139 93.3091 294.137 93.0027 294.924 92.3733C296.468 91.1539 297.059 89.0565 296.717 87.1682C296.322 84.9815 294.85 83.1074 293.235 81.6564C289.961 78.7459 285.711 77.1759 281.331 77.259C279.098 77.3103 276.767 77.7715 274.842 78.9521C272.976 80.0974 271.533 82.0134 271.344 84.2406C271.178 86.2009 272.23 88.2513 274.035 89.1102C274.461 89.3118 274.918 89.4407 275.386 89.4914C275.791 89.5375 275.787 88.9033 275.386 88.8575Z" fill="#3F3D56"/>
</g>
<path d="M67.2774 254V242.8H68.9894L76.0134 251.424H75.1654V242.8H77.2294V254H75.5174L68.4934 245.376H69.3414V254H67.2774ZM83.8786 254.112C83.0039 254.112 82.2252 253.925 81.5426 253.552C80.8599 253.168 80.3212 252.645 79.9266 251.984C79.5319 251.323 79.3346 250.571 79.3346 249.728C79.3346 248.875 79.5319 248.123 79.9266 247.472C80.3212 246.811 80.8599 246.293 81.5426 245.92C82.2252 245.547 83.0039 245.36 83.8786 245.36C84.7639 245.36 85.5479 245.547 86.2306 245.92C86.9239 246.293 87.4626 246.805 87.8466 247.456C88.2412 248.107 88.4386 248.864 88.4386 249.728C88.4386 250.571 88.2412 251.323 87.8466 251.984C87.4626 252.645 86.9239 253.168 86.2306 253.552C85.5479 253.925 84.7639 254.112 83.8786 254.112ZM83.8786 252.4C84.3692 252.4 84.8066 252.293 85.1906 252.08C85.5746 251.867 85.8732 251.557 86.0866 251.152C86.3106 250.747 86.4226 250.272 86.4226 249.728C86.4226 249.173 86.3106 248.699 86.0866 248.304C85.8732 247.899 85.5746 247.589 85.1906 247.376C84.8066 247.163 84.3746 247.056 83.8946 247.056C83.4039 247.056 82.9666 247.163 82.5826 247.376C82.2092 247.589 81.9106 247.899 81.6866 248.304C81.4626 248.699 81.3506 249.173 81.3506 249.728C81.3506 250.272 81.4626 250.747 81.6866 251.152C81.9106 251.557 82.2092 251.867 82.5826 252.08C82.9666 252.293 83.3986 252.4 83.8786 252.4ZM93.3809 254L98.4209 242.8H100.469L105.525 254H103.349L99.0129 243.904H99.8449L95.5249 254H93.3809ZM95.7009 251.408L96.2609 249.776H102.309L102.869 251.408H95.7009ZM111.605 245.36C112.288 245.36 112.896 245.493 113.429 245.76C113.973 246.027 114.4 246.437 114.709 246.992C115.019 247.536 115.173 248.24 115.173 249.104V254H113.173V249.36C113.173 248.603 112.992 248.037 112.629 247.664C112.277 247.291 111.781 247.104 111.141 247.104C110.672 247.104 110.256 247.2 109.893 247.392C109.531 247.584 109.248 247.872 109.045 248.256C108.853 248.629 108.757 249.104 108.757 249.68V254H106.757V245.456H108.661V247.76L108.325 247.056C108.624 246.512 109.056 246.096 109.621 245.808C110.197 245.509 110.859 245.36 111.605 245.36ZM122.558 245.36C123.241 245.36 123.849 245.493 124.382 245.76C124.926 246.027 125.353 246.437 125.662 246.992C125.972 247.536 126.126 248.24 126.126 249.104V254H124.126V249.36C124.126 248.603 123.945 248.037 123.582 247.664C123.23 247.291 122.734 247.104 122.094 247.104C121.625 247.104 121.209 247.2 120.846 247.392C120.484 247.584 120.201 247.872 119.998 248.256C119.806 248.629 119.71 249.104 119.71 249.68V254H117.71V245.456H119.614V247.76L119.278 247.056C119.577 246.512 120.009 246.096 120.574 245.808C121.15 245.509 121.812 245.36 122.558 245.36ZM132.519 254.112C131.645 254.112 130.866 253.925 130.183 253.552C129.501 253.168 128.962 252.645 128.567 251.984C128.173 251.323 127.975 250.571 127.975 249.728C127.975 248.875 128.173 248.123 128.567 247.472C128.962 246.811 129.501 246.293 130.183 245.92C130.866 245.547 131.645 245.36 132.519 245.36C133.405 245.36 134.189 245.547 134.871 245.92C135.565 246.293 136.103 246.805 136.487 247.456C136.882 248.107 137.079 248.864 137.079 249.728C137.079 250.571 136.882 251.323 136.487 251.984C136.103 252.645 135.565 253.168 134.871 253.552C134.189 253.925 133.405 254.112 132.519 254.112ZM132.519 252.4C133.01 252.4 133.447 252.293 133.831 252.08C134.215 251.867 134.514 251.557 134.727 251.152C134.951 250.747 135.063 250.272 135.063 249.728C135.063 249.173 134.951 248.699 134.727 248.304C134.514 247.899 134.215 247.589 133.831 247.376C133.447 247.163 133.015 247.056 132.535 247.056C132.045 247.056 131.607 247.163 131.223 247.376C130.85 247.589 130.551 247.899 130.327 248.304C130.103 248.699 129.991 249.173 129.991 249.728C129.991 250.272 130.103 250.747 130.327 251.152C130.551 251.557 130.85 251.867 131.223 252.08C131.607 252.293 132.039 252.4 132.519 252.4ZM142.608 254.112C141.882 254.112 141.242 253.979 140.688 253.712C140.133 253.435 139.701 253.019 139.392 252.464C139.082 251.899 138.928 251.189 138.928 250.336V245.456H140.928V250.064C140.928 250.832 141.098 251.408 141.44 251.792C141.792 252.165 142.288 252.352 142.928 252.352C143.397 252.352 143.802 252.256 144.144 252.064C144.496 251.872 144.768 251.584 144.96 251.2C145.162 250.816 145.264 250.341 145.264 249.776V245.456H147.264V254H145.36V251.696L145.696 252.4C145.408 252.955 144.986 253.381 144.432 253.68C143.877 253.968 143.269 254.112 142.608 254.112ZM154.73 245.36C155.413 245.36 156.021 245.493 156.554 245.76C157.098 246.027 157.525 246.437 157.834 246.992C158.144 247.536 158.298 248.24 158.298 249.104V254H156.298V249.36C156.298 248.603 156.117 248.037 155.754 247.664C155.402 247.291 154.906 247.104 154.266 247.104C153.797 247.104 153.381 247.2 153.018 247.392C152.656 247.584 152.373 247.872 152.17 248.256C151.978 248.629 151.882 249.104 151.882 249.68V254H149.882V245.456H151.786V247.76L151.45 247.056C151.749 246.512 152.181 246.096 152.746 245.808C153.322 245.509 153.984 245.36 154.73 245.36ZM164.771 254.112C163.875 254.112 163.075 253.925 162.371 253.552C161.678 253.168 161.134 252.645 160.739 251.984C160.344 251.323 160.147 250.571 160.147 249.728C160.147 248.875 160.344 248.123 160.739 247.472C161.134 246.811 161.678 246.293 162.371 245.92C163.075 245.547 163.875 245.36 164.771 245.36C165.603 245.36 166.334 245.531 166.963 245.872C167.603 246.203 168.088 246.693 168.419 247.344L166.883 248.24C166.627 247.835 166.312 247.536 165.939 247.344C165.576 247.152 165.182 247.056 164.755 247.056C164.264 247.056 163.822 247.163 163.427 247.376C163.032 247.589 162.723 247.899 162.499 248.304C162.275 248.699 162.163 249.173 162.163 249.728C162.163 250.283 162.275 250.763 162.499 251.168C162.723 251.563 163.032 251.867 163.427 252.08C163.822 252.293 164.264 252.4 164.755 252.4C165.182 252.4 165.576 252.304 165.939 252.112C166.312 251.92 166.627 251.621 166.883 251.216L168.419 252.112C168.088 252.752 167.603 253.248 166.963 253.6C166.334 253.941 165.603 254.112 164.771 254.112ZM174.039 254.112C173.09 254.112 172.258 253.925 171.543 253.552C170.839 253.168 170.29 252.645 169.895 251.984C169.511 251.323 169.319 250.571 169.319 249.728C169.319 248.875 169.506 248.123 169.879 247.472C170.263 246.811 170.786 246.293 171.447 245.92C172.119 245.547 172.882 245.36 173.735 245.36C174.567 245.36 175.308 245.541 175.959 245.904C176.61 246.267 177.122 246.779 177.495 247.44C177.868 248.101 178.055 248.88 178.055 249.776C178.055 249.861 178.05 249.957 178.039 250.064C178.039 250.171 178.034 250.272 178.023 250.368H170.903V249.04H176.967L176.183 249.456C176.194 248.965 176.092 248.533 175.879 248.16C175.666 247.787 175.372 247.493 174.999 247.28C174.636 247.067 174.215 246.96 173.735 246.96C173.244 246.96 172.812 247.067 172.439 247.28C172.076 247.493 171.788 247.792 171.575 248.176C171.372 248.549 171.271 248.992 171.271 249.504V249.824C171.271 250.336 171.388 250.789 171.623 251.184C171.858 251.579 172.188 251.883 172.615 252.096C173.042 252.309 173.532 252.416 174.087 252.416C174.567 252.416 174.999 252.341 175.383 252.192C175.767 252.043 176.108 251.808 176.407 251.488L177.479 252.72C177.095 253.168 176.61 253.515 176.023 253.76C175.447 253.995 174.786 254.112 174.039 254.112ZM190.76 245.36C191.443 245.36 192.045 245.493 192.568 245.76C193.101 246.027 193.517 246.437 193.816 246.992C194.115 247.536 194.264 248.24 194.264 249.104V254H192.264V249.36C192.264 248.603 192.099 248.037 191.768 247.664C191.437 247.291 190.963 247.104 190.344 247.104C189.907 247.104 189.517 247.2 189.176 247.392C188.845 247.584 188.584 247.867 188.392 248.24C188.211 248.613 188.12 249.088 188.12 249.664V254H186.12V249.36C186.12 248.603 185.955 248.037 185.624 247.664C185.293 247.291 184.819 247.104 184.2 247.104C183.763 247.104 183.373 247.2 183.032 247.392C182.701 247.584 182.44 247.867 182.248 248.24C182.067 248.613 181.976 249.088 181.976 249.664V254H179.976V245.456H181.88V247.728L181.544 247.056C181.832 246.501 182.248 246.08 182.792 245.792C183.347 245.504 183.976 245.36 184.68 245.36C185.48 245.36 186.173 245.557 186.76 245.952C187.357 246.347 187.752 246.944 187.944 247.744L187.16 247.472C187.437 246.832 187.896 246.32 188.536 245.936C189.176 245.552 189.917 245.36 190.76 245.36ZM200.851 254.112C199.902 254.112 199.07 253.925 198.355 253.552C197.651 253.168 197.102 252.645 196.707 251.984C196.323 251.323 196.131 250.571 196.131 249.728C196.131 248.875 196.318 248.123 196.691 247.472C197.075 246.811 197.598 246.293 198.259 245.92C198.931 245.547 199.694 245.36 200.547 245.36C201.379 245.36 202.121 245.541 202.771 245.904C203.422 246.267 203.934 246.779 204.307 247.44C204.681 248.101 204.867 248.88 204.867 249.776C204.867 249.861 204.862 249.957 204.851 250.064C204.851 250.171 204.846 250.272 204.835 250.368H197.715V249.04H203.779L202.995 249.456C203.006 248.965 202.905 248.533 202.691 248.16C202.478 247.787 202.185 247.493 201.811 247.28C201.449 247.067 201.027 246.96 200.547 246.96C200.057 246.96 199.625 247.067 199.251 247.28C198.889 247.493 198.601 247.792 198.387 248.176C198.185 248.549 198.083 248.992 198.083 249.504V249.824C198.083 250.336 198.201 250.789 198.435 251.184C198.67 251.579 199.001 251.883 199.427 252.096C199.854 252.309 200.345 252.416 200.899 252.416C201.379 252.416 201.811 252.341 202.195 252.192C202.579 252.043 202.921 251.808 203.219 251.488L204.291 252.72C203.907 253.168 203.422 253.515 202.835 253.76C202.259 253.995 201.598 254.112 200.851 254.112ZM211.637 245.36C212.319 245.36 212.927 245.493 213.461 245.76C214.005 246.027 214.431 246.437 214.741 246.992C215.05 247.536 215.205 248.24 215.205 249.104V254H213.205V249.36C213.205 248.603 213.023 248.037 212.661 247.664C212.309 247.291 211.813 247.104 211.173 247.104C210.703 247.104 210.287 247.2 209.925 247.392C209.562 247.584 209.279 247.872 209.077 248.256C208.885 248.629 208.789 249.104 208.789 249.68V254H206.789V245.456H208.693V247.76L208.357 247.056C208.655 246.512 209.087 246.096 209.653 245.808C210.229 245.509 210.89 245.36 211.637 245.36ZM220.958 254.112C220.019 254.112 219.294 253.872 218.782 253.392C218.27 252.901 218.014 252.181 218.014 251.232V243.568H220.014V251.184C220.014 251.589 220.115 251.904 220.318 252.128C220.531 252.352 220.824 252.464 221.198 252.464C221.646 252.464 222.019 252.347 222.318 252.112L222.878 253.536C222.643 253.728 222.355 253.872 222.014 253.968C221.672 254.064 221.32 254.112 220.958 254.112ZM216.606 247.12V245.52H222.302V247.12H216.606ZM227.163 254.112C226.448 254.112 225.76 254.021 225.099 253.84C224.448 253.648 223.931 253.419 223.547 253.152L224.315 251.632C224.699 251.877 225.158 252.08 225.691 252.24C226.224 252.4 226.758 252.48 227.291 252.48C227.92 252.48 228.374 252.395 228.651 252.224C228.939 252.053 229.083 251.824 229.083 251.536C229.083 251.301 228.987 251.125 228.795 251.008C228.603 250.88 228.352 250.784 228.043 250.72C227.734 250.656 227.387 250.597 227.003 250.544C226.63 250.491 226.251 250.421 225.867 250.336C225.494 250.24 225.152 250.107 224.843 249.936C224.534 249.755 224.283 249.515 224.091 249.216C223.899 248.917 223.803 248.523 223.803 248.032C223.803 247.488 223.958 247.019 224.267 246.624C224.576 246.219 225.008 245.909 225.563 245.696C226.128 245.472 226.795 245.36 227.563 245.36C228.139 245.36 228.72 245.424 229.307 245.552C229.894 245.68 230.379 245.861 230.763 246.096L229.995 247.616C229.59 247.371 229.179 247.205 228.763 247.12C228.358 247.024 227.952 246.976 227.547 246.976C226.939 246.976 226.486 247.067 226.187 247.248C225.899 247.429 225.755 247.659 225.755 247.936C225.755 248.192 225.851 248.384 226.043 248.512C226.235 248.64 226.486 248.741 226.795 248.816C227.104 248.891 227.446 248.955 227.819 249.008C228.203 249.051 228.582 249.12 228.955 249.216C229.328 249.312 229.67 249.445 229.979 249.616C230.299 249.776 230.555 250.005 230.747 250.304C230.939 250.603 231.035 250.992 231.035 251.472C231.035 252.005 230.875 252.469 230.555 252.864C230.246 253.259 229.803 253.568 229.227 253.792C228.651 254.005 227.963 254.112 227.163 254.112ZM240.123 254V249.568L240.587 250.848L235.723 242.8H237.947L241.851 249.28H240.603L244.539 242.8H246.587L241.723 250.848L242.203 249.568V254H240.123ZM250.82 254.112C249.871 254.112 249.039 253.925 248.324 253.552C247.62 253.168 247.071 252.645 246.676 251.984C246.292 251.323 246.1 250.571 246.1 249.728C246.1 248.875 246.287 248.123 246.66 247.472C247.044 246.811 247.567 246.293 248.228 245.92C248.9 245.547 249.663 245.36 250.516 245.36C251.348 245.36 252.09 245.541 252.74 245.904C253.391 246.267 253.903 246.779 254.276 247.44C254.65 248.101 254.836 248.88 254.836 249.776C254.836 249.861 254.831 249.957 254.82 250.064C254.82 250.171 254.815 250.272 254.804 250.368H247.684V249.04H253.748L252.964 249.456C252.975 248.965 252.874 248.533 252.66 248.16C252.447 247.787 252.154 247.493 251.78 247.28C251.418 247.067 250.996 246.96 250.516 246.96C250.026 246.96 249.594 247.067 249.22 247.28C248.858 247.493 248.57 247.792 248.356 248.176C248.154 248.549 248.052 248.992 248.052 249.504V249.824C248.052 250.336 248.17 250.789 248.404 251.184C248.639 251.579 248.97 251.883 249.396 252.096C249.823 252.309 250.314 252.416 250.868 252.416C251.348 252.416 251.78 252.341 252.164 252.192C252.548 252.043 252.89 251.808 253.188 251.488L254.26 252.72C253.876 253.168 253.391 253.515 252.804 253.76C252.228 253.995 251.567 254.112 250.82 254.112ZM259.973 254.112C259.035 254.112 258.309 253.872 257.797 253.392C257.285 252.901 257.029 252.181 257.029 251.232V243.568H259.029V251.184C259.029 251.589 259.131 251.904 259.333 252.128C259.547 252.352 259.84 252.464 260.213 252.464C260.661 252.464 261.035 252.347 261.333 252.112L261.893 253.536C261.659 253.728 261.371 253.872 261.029 253.968C260.688 254.064 260.336 254.112 259.973 254.112ZM255.621 247.12V245.52H261.317V247.12H255.621Z" fill="black"/>
<path d="M33.3208 286.096C32.4781 286.096 31.6995 285.957 30.9848 285.68C30.2701 285.392 29.6515 284.992 29.1288 284.48C28.6061 283.968 28.1955 283.365 27.8968 282.672C27.6088 281.979 27.4648 281.221 27.4648 280.4C27.4648 279.579 27.6088 278.821 27.8968 278.128C28.1955 277.435 28.6061 276.832 29.1288 276.32C29.6621 275.808 30.2861 275.413 31.0008 275.136C31.7155 274.848 32.4941 274.704 33.3368 274.704C34.1475 274.704 34.9101 274.843 35.6248 275.12C36.3395 275.387 36.9421 275.792 37.4328 276.336L36.6808 277.088C36.2221 276.619 35.7155 276.283 35.1608 276.08C34.6061 275.867 34.0088 275.76 33.3688 275.76C32.6968 275.76 32.0728 275.877 31.4968 276.112C30.9208 276.336 30.4195 276.661 29.9928 277.088C29.5661 277.504 29.2301 277.995 28.9848 278.56C28.7501 279.115 28.6328 279.728 28.6328 280.4C28.6328 281.072 28.7501 281.691 28.9848 282.256C29.2301 282.811 29.5661 283.301 29.9928 283.728C30.4195 284.144 30.9208 284.469 31.4968 284.704C32.0728 284.928 32.6968 285.04 33.3688 285.04C34.0088 285.04 34.6061 284.933 35.1608 284.72C35.7155 284.507 36.2221 284.165 36.6808 283.696L37.4328 284.448C36.9421 284.992 36.3395 285.403 35.6248 285.68C34.9101 285.957 34.1421 286.096 33.3208 286.096ZM39.7168 286V277.6H40.8048V279.888L40.6928 279.488C40.9275 278.848 41.3221 278.363 41.8768 278.032C42.4315 277.691 43.1195 277.52 43.9408 277.52V278.624C43.8981 278.624 43.8555 278.624 43.8128 278.624C43.7701 278.613 43.7275 278.608 43.6848 278.608C42.7995 278.608 42.1061 278.88 41.6048 279.424C41.1035 279.957 40.8528 280.72 40.8528 281.712V286H39.7168ZM49.5036 286.08C48.6289 286.08 47.8609 285.899 47.1996 285.536C46.5382 285.163 46.0209 284.656 45.6476 284.016C45.2742 283.365 45.0876 282.624 45.0876 281.792C45.0876 280.96 45.2636 280.224 45.6156 279.584C45.9782 278.944 46.4689 278.443 47.0876 278.08C47.7169 277.707 48.4209 277.52 49.1996 277.52C49.9889 277.52 50.6876 277.701 51.2956 278.064C51.9142 278.416 52.3996 278.917 52.7516 279.568C53.1036 280.208 53.2796 280.949 53.2796 281.792C53.2796 281.845 53.2742 281.904 53.2636 281.968C53.2636 282.021 53.2636 282.08 53.2636 282.144H45.9516V281.296H52.6556L52.2076 281.632C52.2076 281.024 52.0742 280.485 51.8076 280.016C51.5516 279.536 51.1996 279.163 50.7516 278.896C50.3036 278.629 49.7862 278.496 49.1996 278.496C48.6236 278.496 48.1062 278.629 47.6476 278.896C47.1889 279.163 46.8316 279.536 46.5756 280.016C46.3196 280.496 46.1916 281.045 46.1916 281.664V281.84C46.1916 282.48 46.3302 283.045 46.6076 283.536C46.8956 284.016 47.2902 284.395 47.7916 284.672C48.3036 284.939 48.8849 285.072 49.5356 285.072C50.0476 285.072 50.5222 284.981 50.9596 284.8C51.4076 284.619 51.7916 284.341 52.1116 283.968L52.7516 284.704C52.3782 285.152 51.9089 285.493 51.3436 285.728C50.7889 285.963 50.1756 286.08 49.5036 286.08ZM60.6214 286V284.144L60.5734 283.84V280.736C60.5734 280.021 60.3708 279.472 59.9654 279.088C59.5708 278.704 58.9788 278.512 58.1894 278.512C57.6454 278.512 57.1281 278.603 56.6374 278.784C56.1468 278.965 55.7308 279.205 55.3894 279.504L54.8774 278.656C55.3041 278.293 55.8161 278.016 56.4134 277.824C57.0108 277.621 57.6401 277.52 58.3014 277.52C59.3894 277.52 60.2268 277.792 60.8134 278.336C61.4108 278.869 61.7094 279.685 61.7094 280.784V286H60.6214ZM57.7254 286.08C57.0961 286.08 56.5468 285.979 56.0774 285.776C55.6188 285.563 55.2668 285.275 55.0214 284.912C54.7761 284.539 54.6534 284.112 54.6534 283.632C54.6534 283.195 54.7548 282.8 54.9574 282.448C55.1708 282.085 55.5121 281.797 55.9814 281.584C56.4614 281.36 57.1014 281.248 57.9014 281.248H60.7974V282.096H57.9334C57.1228 282.096 56.5574 282.24 56.2374 282.528C55.9281 282.816 55.7734 283.173 55.7734 283.6C55.7734 284.08 55.9601 284.464 56.3334 284.752C56.7068 285.04 57.2294 285.184 57.9014 285.184C58.5414 285.184 59.0908 285.04 59.5494 284.752C60.0188 284.453 60.3601 284.027 60.5734 283.472L60.8294 284.256C60.6161 284.811 60.2428 285.253 59.7094 285.584C59.1868 285.915 58.5254 286.08 57.7254 286.08ZM67.4509 286.08C66.6616 286.08 66.0536 285.867 65.6269 285.44C65.2003 285.013 64.9869 284.411 64.9869 283.632V275.744H66.1229V283.568C66.1229 284.059 66.2456 284.437 66.4909 284.704C66.7469 284.971 67.1096 285.104 67.5789 285.104C68.0803 285.104 68.4963 284.96 68.8269 284.672L69.2269 285.488C69.0029 285.691 68.7309 285.84 68.4109 285.936C68.1016 286.032 67.7816 286.08 67.4509 286.08ZM63.4829 278.544V277.6H68.6829V278.544H63.4829ZM74.5661 286.08C73.6914 286.08 72.9234 285.899 72.2621 285.536C71.6007 285.163 71.0834 284.656 70.7101 284.016C70.3367 283.365 70.1501 282.624 70.1501 281.792C70.1501 280.96 70.3261 280.224 70.6781 279.584C71.0407 278.944 71.5314 278.443 72.1501 278.08C72.7794 277.707 73.4834 277.52 74.2621 277.52C75.0514 277.52 75.7501 277.701 76.3581 278.064C76.9767 278.416 77.4621 278.917 77.8141 279.568C78.1661 280.208 78.3421 280.949 78.3421 281.792C78.3421 281.845 78.3367 281.904 78.3261 281.968C78.3261 282.021 78.3261 282.08 78.3261 282.144H71.0141V281.296H77.7181L77.2701 281.632C77.2701 281.024 77.1367 280.485 76.8701 280.016C76.6141 279.536 76.2621 279.163 75.8141 278.896C75.3661 278.629 74.8487 278.496 74.2621 278.496C73.6861 278.496 73.1687 278.629 72.7101 278.896C72.2514 279.163 71.8941 279.536 71.6381 280.016C71.3821 280.496 71.2541 281.045 71.2541 281.664V281.84C71.2541 282.48 71.3927 283.045 71.6701 283.536C71.9581 284.016 72.3527 284.395 72.8541 284.672C73.3661 284.939 73.9474 285.072 74.5981 285.072C75.1101 285.072 75.5847 284.981 76.0221 284.8C76.4701 284.619 76.8541 284.341 77.1741 283.968L77.8141 284.704C77.4407 285.152 76.9714 285.493 76.4061 285.728C75.8514 285.963 75.2381 286.08 74.5661 286.08ZM90.1058 286V284.144L90.0578 283.84V280.736C90.0578 280.021 89.8551 279.472 89.4498 279.088C89.0551 278.704 88.4631 278.512 87.6738 278.512C87.1298 278.512 86.6125 278.603 86.1218 278.784C85.6311 278.965 85.2151 279.205 84.8738 279.504L84.3618 278.656C84.7885 278.293 85.3005 278.016 85.8978 277.824C86.4951 277.621 87.1245 277.52 87.7858 277.52C88.8738 277.52 89.7111 277.792 90.2978 278.336C90.8951 278.869 91.1938 279.685 91.1938 280.784V286H90.1058ZM87.2098 286.08C86.5805 286.08 86.0311 285.979 85.5618 285.776C85.1031 285.563 84.7511 285.275 84.5058 284.912C84.2605 284.539 84.1378 284.112 84.1378 283.632C84.1378 283.195 84.2391 282.8 84.4418 282.448C84.6551 282.085 84.9965 281.797 85.4658 281.584C85.9458 281.36 86.5858 281.248 87.3858 281.248H90.2818V282.096H87.4178C86.6071 282.096 86.0418 282.24 85.7218 282.528C85.4125 282.816 85.2578 283.173 85.2578 283.6C85.2578 284.08 85.4445 284.464 85.8178 284.752C86.1911 285.04 86.7138 285.184 87.3858 285.184C88.0258 285.184 88.5751 285.04 89.0338 284.752C89.5031 284.453 89.8445 284.027 90.0578 283.472L90.3138 284.256C90.1005 284.811 89.7271 285.253 89.1938 285.584C88.6711 285.915 88.0098 286.08 87.2098 286.08ZM98.5673 277.52C99.25 277.52 99.8473 277.653 100.359 277.92C100.882 278.176 101.287 278.571 101.575 279.104C101.874 279.637 102.023 280.309 102.023 281.12V286H100.887V281.232C100.887 280.347 100.663 279.68 100.215 279.232C99.778 278.773 99.1593 278.544 98.3593 278.544C97.762 278.544 97.2393 278.667 96.7913 278.912C96.354 279.147 96.0126 279.493 95.7673 279.952C95.5326 280.4 95.4153 280.944 95.4153 281.584V286H94.2793V277.6H95.3673V279.904L95.1913 279.472C95.458 278.864 95.8846 278.389 96.4713 278.048C97.058 277.696 97.7566 277.52 98.5673 277.52ZM114.543 286V284.144L114.495 283.84V280.736C114.495 280.021 114.293 279.472 113.887 279.088C113.493 278.704 112.901 278.512 112.111 278.512C111.567 278.512 111.05 278.603 110.559 278.784C110.069 278.965 109.653 279.205 109.311 279.504L108.799 278.656C109.226 278.293 109.738 278.016 110.335 277.824C110.933 277.621 111.562 277.52 112.223 277.52C113.311 277.52 114.149 277.792 114.735 278.336C115.333 278.869 115.631 279.685 115.631 280.784V286H114.543ZM111.647 286.08C111.018 286.08 110.469 285.979 109.999 285.776C109.541 285.563 109.189 285.275 108.943 284.912C108.698 284.539 108.575 284.112 108.575 283.632C108.575 283.195 108.677 282.8 108.879 282.448C109.093 282.085 109.434 281.797 109.903 281.584C110.383 281.36 111.023 281.248 111.823 281.248H114.719V282.096H111.855C111.045 282.096 110.479 282.24 110.159 282.528C109.85 282.816 109.695 283.173 109.695 283.6C109.695 284.08 109.882 284.464 110.255 284.752C110.629 285.04 111.151 285.184 111.823 285.184C112.463 285.184 113.013 285.04 113.471 284.752C113.941 284.453 114.282 284.027 114.495 283.472L114.751 284.256C114.538 284.811 114.165 285.253 113.631 285.584C113.109 285.915 112.447 286.08 111.647 286.08ZM123.005 277.52C123.687 277.52 124.285 277.653 124.797 277.92C125.319 278.176 125.725 278.571 126.013 279.104C126.311 279.637 126.461 280.309 126.461 281.12V286H125.325V281.232C125.325 280.347 125.101 279.68 124.653 279.232C124.215 278.773 123.597 278.544 122.797 278.544C122.199 278.544 121.677 278.667 121.229 278.912C120.791 279.147 120.45 279.493 120.205 279.952C119.97 280.4 119.853 280.944 119.853 281.584V286H118.717V277.6H119.805V279.904L119.629 279.472C119.895 278.864 120.322 278.389 120.909 278.048C121.495 277.696 122.194 277.52 123.005 277.52ZM133.817 277.52C134.5 277.52 135.097 277.653 135.609 277.92C136.132 278.176 136.537 278.571 136.825 279.104C137.124 279.637 137.273 280.309 137.273 281.12V286H136.137V281.232C136.137 280.347 135.913 279.68 135.465 279.232C135.028 278.773 134.409 278.544 133.609 278.544C133.012 278.544 132.489 278.667 132.041 278.912C131.604 279.147 131.263 279.493 131.017 279.952C130.783 280.4 130.665 280.944 130.665 281.584V286H129.529V277.6H130.617V279.904L130.441 279.472C130.708 278.864 131.135 278.389 131.721 278.048C132.308 277.696 133.007 277.52 133.817 277.52ZM143.766 286.08C142.955 286.08 142.224 285.899 141.574 285.536C140.934 285.163 140.427 284.656 140.054 284.016C139.68 283.365 139.494 282.624 139.494 281.792C139.494 280.949 139.68 280.208 140.054 279.568C140.427 278.928 140.934 278.427 141.574 278.064C142.214 277.701 142.944 277.52 143.766 277.52C144.598 277.52 145.334 277.701 145.974 278.064C146.624 278.427 147.131 278.928 147.494 279.568C147.867 280.208 148.054 280.949 148.054 281.792C148.054 282.624 147.867 283.365 147.494 284.016C147.131 284.656 146.624 285.163 145.974 285.536C145.323 285.899 144.587 286.08 143.766 286.08ZM143.766 285.072C144.374 285.072 144.912 284.939 145.382 284.672C145.851 284.395 146.219 284.011 146.486 283.52C146.763 283.019 146.902 282.443 146.902 281.792C146.902 281.131 146.763 280.555 146.486 280.064C146.219 279.573 145.851 279.195 145.382 278.928C144.912 278.651 144.379 278.512 143.782 278.512C143.184 278.512 142.651 278.651 142.182 278.928C141.712 279.195 141.339 279.573 141.062 280.064C140.784 280.555 140.646 281.131 140.646 281.792C140.646 282.443 140.784 283.019 141.062 283.52C141.339 284.011 141.712 284.395 142.182 284.672C142.651 284.939 143.179 285.072 143.766 285.072ZM153.845 286.08C153.13 286.08 152.506 285.947 151.973 285.68C151.44 285.413 151.024 285.013 150.725 284.48C150.437 283.947 150.293 283.28 150.293 282.48V277.6H151.429V282.352C151.429 283.248 151.648 283.925 152.085 284.384C152.533 284.832 153.157 285.056 153.957 285.056C154.544 285.056 155.05 284.939 155.477 284.704C155.914 284.459 156.245 284.107 156.469 283.648C156.704 283.189 156.821 282.64 156.821 282V277.6H157.957V286H156.869V283.696L157.045 284.112C156.778 284.731 156.362 285.216 155.797 285.568C155.242 285.909 154.592 286.08 153.845 286.08ZM165.411 277.52C166.094 277.52 166.691 277.653 167.203 277.92C167.726 278.176 168.131 278.571 168.419 279.104C168.718 279.637 168.867 280.309 168.867 281.12V286H167.731V281.232C167.731 280.347 167.507 279.68 167.059 279.232C166.622 278.773 166.003 278.544 165.203 278.544C164.606 278.544 164.083 278.667 163.635 278.912C163.198 279.147 162.856 279.493 162.611 279.952C162.376 280.4 162.259 280.944 162.259 281.584V286H161.123V277.6H162.211V279.904L162.035 279.472C162.302 278.864 162.728 278.389 163.315 278.048C163.902 277.696 164.6 277.52 165.411 277.52ZM175.424 286.08C174.592 286.08 173.845 285.899 173.184 285.536C172.533 285.163 172.021 284.656 171.648 284.016C171.274 283.365 171.088 282.624 171.088 281.792C171.088 280.949 171.274 280.208 171.648 279.568C172.021 278.928 172.533 278.427 173.184 278.064C173.845 277.701 174.592 277.52 175.424 277.52C176.138 277.52 176.784 277.659 177.36 277.936C177.936 278.213 178.389 278.629 178.72 279.184L177.872 279.76C177.584 279.333 177.226 279.019 176.8 278.816C176.373 278.613 175.909 278.512 175.408 278.512C174.81 278.512 174.272 278.651 173.792 278.928C173.312 279.195 172.933 279.573 172.656 280.064C172.378 280.555 172.24 281.131 172.24 281.792C172.24 282.453 172.378 283.029 172.656 283.52C172.933 284.011 173.312 284.395 173.792 284.672C174.272 284.939 174.81 285.072 175.408 285.072C175.909 285.072 176.373 284.971 176.8 284.768C177.226 284.565 177.584 284.256 177.872 283.84L178.72 284.416C178.389 284.96 177.936 285.376 177.36 285.664C176.784 285.941 176.138 286.08 175.424 286.08ZM184.379 286.08C183.504 286.08 182.736 285.899 182.075 285.536C181.413 285.163 180.896 284.656 180.523 284.016C180.149 283.365 179.963 282.624 179.963 281.792C179.963 280.96 180.139 280.224 180.491 279.584C180.853 278.944 181.344 278.443 181.963 278.08C182.592 277.707 183.296 277.52 184.075 277.52C184.864 277.52 185.563 277.701 186.171 278.064C186.789 278.416 187.275 278.917 187.627 279.568C187.979 280.208 188.155 280.949 188.155 281.792C188.155 281.845 188.149 281.904 188.139 281.968C188.139 282.021 188.139 282.08 188.139 282.144H180.827V281.296H187.531L187.083 281.632C187.083 281.024 186.949 280.485 186.683 280.016C186.427 279.536 186.075 279.163 185.627 278.896C185.179 278.629 184.661 278.496 184.075 278.496C183.499 278.496 182.981 278.629 182.523 278.896C182.064 279.163 181.707 279.536 181.451 280.016C181.195 280.496 181.067 281.045 181.067 281.664V281.84C181.067 282.48 181.205 283.045 181.483 283.536C181.771 284.016 182.165 284.395 182.667 284.672C183.179 284.939 183.76 285.072 184.411 285.072C184.923 285.072 185.397 284.981 185.835 284.8C186.283 284.619 186.667 284.341 186.987 283.968L187.627 284.704C187.253 285.152 186.784 285.493 186.219 285.728C185.664 285.963 185.051 286.08 184.379 286.08ZM200.963 277.52C201.645 277.52 202.237 277.653 202.739 277.92C203.251 278.176 203.645 278.571 203.923 279.104C204.211 279.637 204.355 280.309 204.355 281.12V286H203.219V281.232C203.219 280.347 203.005 279.68 202.579 279.232C202.163 278.773 201.571 278.544 200.803 278.544C200.227 278.544 199.725 278.667 199.299 278.912C198.883 279.147 198.557 279.493 198.323 279.952C198.099 280.4 197.987 280.944 197.987 281.584V286H196.851V281.232C196.851 280.347 196.637 279.68 196.211 279.232C195.784 278.773 195.187 278.544 194.419 278.544C193.853 278.544 193.357 278.667 192.931 278.912C192.504 279.147 192.173 279.493 191.939 279.952C191.715 280.4 191.603 280.944 191.603 281.584V286H190.467V277.6H191.555V279.872L191.379 279.472C191.635 278.864 192.045 278.389 192.611 278.048C193.187 277.696 193.864 277.52 194.643 277.52C195.464 277.52 196.163 277.728 196.739 278.144C197.315 278.549 197.688 279.163 197.859 279.984L197.411 279.808C197.656 279.125 198.088 278.576 198.707 278.16C199.336 277.733 200.088 277.52 200.963 277.52ZM211.004 286.08C210.129 286.08 209.361 285.899 208.7 285.536C208.038 285.163 207.521 284.656 207.148 284.016C206.774 283.365 206.588 282.624 206.588 281.792C206.588 280.96 206.764 280.224 207.116 279.584C207.478 278.944 207.969 278.443 208.588 278.08C209.217 277.707 209.921 277.52 210.7 277.52C211.489 277.52 212.188 277.701 212.796 278.064C213.414 278.416 213.9 278.917 214.252 279.568C214.604 280.208 214.78 280.949 214.78 281.792C214.78 281.845 214.774 281.904 214.764 281.968C214.764 282.021 214.764 282.08 214.764 282.144H207.452V281.296H214.156L213.708 281.632C213.708 281.024 213.574 280.485 213.308 280.016C213.052 279.536 212.7 279.163 212.252 278.896C211.804 278.629 211.286 278.496 210.7 278.496C210.124 278.496 209.606 278.629 209.148 278.896C208.689 279.163 208.332 279.536 208.076 280.016C207.82 280.496 207.692 281.045 207.692 281.664V281.84C207.692 282.48 207.83 283.045 208.108 283.536C208.396 284.016 208.79 284.395 209.292 284.672C209.804 284.939 210.385 285.072 211.036 285.072C211.548 285.072 212.022 284.981 212.46 284.8C212.908 284.619 213.292 284.341 213.612 283.968L214.252 284.704C213.878 285.152 213.409 285.493 212.844 285.728C212.289 285.963 211.676 286.08 211.004 286.08ZM221.38 277.52C222.062 277.52 222.66 277.653 223.172 277.92C223.694 278.176 224.1 278.571 224.388 279.104C224.686 279.637 224.836 280.309 224.836 281.12V286H223.7V281.232C223.7 280.347 223.476 279.68 223.028 279.232C222.59 278.773 221.972 278.544 221.172 278.544C220.574 278.544 220.052 278.667 219.604 278.912C219.166 279.147 218.825 279.493 218.58 279.952C218.345 280.4 218.228 280.944 218.228 281.584V286H217.092V277.6H218.18V279.904L218.004 279.472C218.27 278.864 218.697 278.389 219.284 278.048C219.87 277.696 220.569 277.52 221.38 277.52ZM230.56 286.08C229.771 286.08 229.163 285.867 228.736 285.44C228.31 285.013 228.096 284.411 228.096 283.632V275.744H229.232V283.568C229.232 284.059 229.355 284.437 229.6 284.704C229.856 284.971 230.219 285.104 230.688 285.104C231.19 285.104 231.606 284.96 231.936 284.672L232.336 285.488C232.112 285.691 231.84 285.84 231.52 285.936C231.211 286.032 230.891 286.08 230.56 286.08ZM226.592 278.544V277.6H231.792V278.544H226.592ZM241.248 286.08C240.458 286.08 239.85 285.867 239.424 285.44C238.997 285.013 238.784 284.411 238.784 283.632V275.744H239.92V283.568C239.92 284.059 240.042 284.437 240.288 284.704C240.544 284.971 240.906 285.104 241.376 285.104C241.877 285.104 242.293 284.96 242.624 284.672L243.024 285.488C242.8 285.691 242.528 285.84 242.208 285.936C241.898 286.032 241.578 286.08 241.248 286.08ZM237.28 278.544V277.6H242.48V278.544H237.28ZM248.219 286.08C247.408 286.08 246.678 285.899 246.027 285.536C245.387 285.163 244.88 284.656 244.507 284.016C244.134 283.365 243.947 282.624 243.947 281.792C243.947 280.949 244.134 280.208 244.507 279.568C244.88 278.928 245.387 278.427 246.027 278.064C246.667 277.701 247.398 277.52 248.219 277.52C249.051 277.52 249.787 277.701 250.427 278.064C251.078 278.427 251.584 278.928 251.947 279.568C252.32 280.208 252.507 280.949 252.507 281.792C252.507 282.624 252.32 283.365 251.947 284.016C251.584 284.656 251.078 285.163 250.427 285.536C249.776 285.899 249.04 286.08 248.219 286.08ZM248.219 285.072C248.827 285.072 249.366 284.939 249.835 284.672C250.304 284.395 250.672 284.011 250.939 283.52C251.216 283.019 251.355 282.443 251.355 281.792C251.355 281.131 251.216 280.555 250.939 280.064C250.672 279.573 250.304 279.195 249.835 278.928C249.366 278.651 248.832 278.512 248.235 278.512C247.638 278.512 247.104 278.651 246.635 278.928C246.166 279.195 245.792 279.573 245.515 280.064C245.238 280.555 245.099 281.131 245.099 281.792C245.099 282.443 245.238 283.019 245.515 283.52C245.792 284.011 246.166 284.395 246.635 284.672C247.104 284.939 247.632 285.072 248.219 285.072ZM261.27 286.08C260.576 286.08 259.92 285.984 259.302 285.792C258.683 285.589 258.198 285.339 257.846 285.04L258.358 284.144C258.699 284.4 259.136 284.624 259.67 284.816C260.203 284.997 260.763 285.088 261.35 285.088C262.15 285.088 262.726 284.965 263.078 284.72C263.43 284.464 263.606 284.128 263.606 283.712C263.606 283.403 263.504 283.163 263.302 282.992C263.11 282.811 262.854 282.677 262.534 282.592C262.214 282.496 261.856 282.416 261.462 282.352C261.067 282.288 260.672 282.213 260.278 282.128C259.894 282.043 259.542 281.92 259.222 281.76C258.902 281.589 258.64 281.36 258.438 281.072C258.246 280.784 258.15 280.4 258.15 279.92C258.15 279.461 258.278 279.051 258.534 278.688C258.79 278.325 259.163 278.043 259.654 277.84C260.155 277.627 260.763 277.52 261.478 277.52C262.022 277.52 262.566 277.595 263.11 277.744C263.654 277.883 264.102 278.069 264.454 278.304L263.958 279.216C263.584 278.96 263.184 278.779 262.758 278.672C262.331 278.555 261.904 278.496 261.478 278.496C260.72 278.496 260.16 278.629 259.798 278.896C259.446 279.152 259.27 279.483 259.27 279.888C259.27 280.208 259.366 280.459 259.558 280.64C259.76 280.821 260.022 280.965 260.342 281.072C260.672 281.168 261.03 281.248 261.414 281.312C261.808 281.376 262.198 281.456 262.582 281.552C262.976 281.637 263.334 281.76 263.654 281.92C263.984 282.069 264.246 282.288 264.438 282.576C264.64 282.853 264.742 283.221 264.742 283.68C264.742 284.171 264.603 284.597 264.326 284.96C264.059 285.312 263.664 285.589 263.142 285.792C262.63 285.984 262.006 286.08 261.27 286.08ZM271.114 277.52C271.797 277.52 272.394 277.653 272.906 277.92C273.429 278.176 273.834 278.571 274.122 279.104C274.421 279.637 274.57 280.309 274.57 281.12V286H273.434V281.232C273.434 280.347 273.21 279.68 272.762 279.232C272.325 278.773 271.706 278.544 270.906 278.544C270.309 278.544 269.786 278.667 269.338 278.912C268.901 279.147 268.56 279.493 268.314 279.952C268.08 280.4 267.962 280.944 267.962 281.584V286H266.826V274.128H267.962V279.904L267.738 279.472C268.005 278.864 268.432 278.389 269.018 278.048C269.605 277.696 270.304 277.52 271.114 277.52ZM282.903 286V284.144L282.855 283.84V280.736C282.855 280.021 282.652 279.472 282.247 279.088C281.852 278.704 281.26 278.512 280.471 278.512C279.927 278.512 279.409 278.603 278.919 278.784C278.428 278.965 278.012 279.205 277.671 279.504L277.159 278.656C277.585 278.293 278.097 278.016 278.695 277.824C279.292 277.621 279.921 277.52 280.583 277.52C281.671 277.52 282.508 277.792 283.095 278.336C283.692 278.869 283.991 279.685 283.991 280.784V286H282.903ZM280.007 286.08C279.377 286.08 278.828 285.979 278.359 285.776C277.9 285.563 277.548 285.275 277.303 284.912C277.057 284.539 276.935 284.112 276.935 283.632C276.935 283.195 277.036 282.8 277.239 282.448C277.452 282.085 277.793 281.797 278.263 281.584C278.743 281.36 279.383 281.248 280.183 281.248H283.079V282.096H280.215C279.404 282.096 278.839 282.24 278.519 282.528C278.209 282.816 278.055 283.173 278.055 283.6C278.055 284.08 278.241 284.464 278.615 284.752C278.988 285.04 279.511 285.184 280.183 285.184C280.823 285.184 281.372 285.04 281.831 284.752C282.3 284.453 282.641 284.027 282.855 283.472L283.111 284.256C282.897 284.811 282.524 285.253 281.991 285.584C281.468 285.915 280.807 286.08 280.007 286.08ZM287.076 286V277.6H288.164V279.888L288.052 279.488C288.287 278.848 288.682 278.363 289.236 278.032C289.791 277.691 290.479 277.52 291.3 277.52V278.624C291.258 278.624 291.215 278.624 291.172 278.624C291.13 278.613 291.087 278.608 291.044 278.608C290.159 278.608 289.466 278.88 288.964 279.424C288.463 279.957 288.212 280.72 288.212 281.712V286H287.076ZM296.863 286.08C295.988 286.08 295.22 285.899 294.559 285.536C293.898 285.163 293.38 284.656 293.007 284.016C292.634 283.365 292.447 282.624 292.447 281.792C292.447 280.96 292.623 280.224 292.975 279.584C293.338 278.944 293.828 278.443 294.447 278.08C295.076 277.707 295.78 277.52 296.559 277.52C297.348 277.52 298.047 277.701 298.655 278.064C299.274 278.416 299.759 278.917 300.111 279.568C300.463 280.208 300.639 280.949 300.639 281.792C300.639 281.845 300.634 281.904 300.623 281.968C300.623 282.021 300.623 282.08 300.623 282.144H293.311V281.296H300.015L299.567 281.632C299.567 281.024 299.434 280.485 299.167 280.016C298.911 279.536 298.559 279.163 298.111 278.896C297.663 278.629 297.146 278.496 296.559 278.496C295.983 278.496 295.466 278.629 295.007 278.896C294.548 279.163 294.191 279.536 293.935 280.016C293.679 280.496 293.551 281.045 293.551 281.664V281.84C293.551 282.48 293.69 283.045 293.967 283.536C294.255 284.016 294.65 284.395 295.151 284.672C295.663 284.939 296.244 285.072 296.895 285.072C297.407 285.072 297.882 284.981 298.319 284.8C298.767 284.619 299.151 284.341 299.471 283.968L300.111 284.704C299.738 285.152 299.268 285.493 298.703 285.728C298.148 285.963 297.535 286.08 296.863 286.08ZM87.9981 310V301.6H89.1341V310H87.9981ZM88.5741 299.744C88.3394 299.744 88.1421 299.664 87.9821 299.504C87.8221 299.344 87.7421 299.152 87.7421 298.928C87.7421 298.704 87.8221 298.517 87.9821 298.368C88.1421 298.208 88.3394 298.128 88.5741 298.128C88.8087 298.128 89.0061 298.203 89.1661 298.352C89.3261 298.501 89.4061 298.688 89.4061 298.912C89.4061 299.147 89.3261 299.344 89.1661 299.504C89.0167 299.664 88.8194 299.744 88.5741 299.744ZM102.791 301.52C103.474 301.52 104.066 301.653 104.567 301.92C105.079 302.176 105.474 302.571 105.751 303.104C106.039 303.637 106.183 304.309 106.183 305.12V310H105.047V305.232C105.047 304.347 104.834 303.68 104.407 303.232C103.991 302.773 103.399 302.544 102.631 302.544C102.055 302.544 101.554 302.667 101.127 302.912C100.711 303.147 100.386 303.493 100.151 303.952C99.9269 304.4 99.8149 304.944 99.8149 305.584V310H98.6789V305.232C98.6789 304.347 98.4656 303.68 98.0389 303.232C97.6123 302.773 97.0149 302.544 96.2469 302.544C95.6816 302.544 95.1856 302.667 94.7589 302.912C94.3323 303.147 94.0016 303.493 93.7669 303.952C93.5429 304.4 93.4309 304.944 93.4309 305.584V310H92.2949V301.6H93.3829V303.872L93.2069 303.472C93.4629 302.864 93.8736 302.389 94.4389 302.048C95.0149 301.696 95.6923 301.52 96.4709 301.52C97.2923 301.52 97.9909 301.728 98.5669 302.144C99.1429 302.549 99.5163 303.163 99.6869 303.984L99.2389 303.808C99.4843 303.125 99.9163 302.576 100.535 302.16C101.164 301.733 101.916 301.52 102.791 301.52ZM113.6 310.08C112.874 310.08 112.218 309.915 111.632 309.584C111.045 309.243 110.576 308.757 110.224 308.128C109.882 307.488 109.712 306.709 109.712 305.792C109.712 304.875 109.882 304.101 110.224 303.472C110.565 302.832 111.029 302.347 111.616 302.016C112.202 301.685 112.864 301.52 113.6 301.52C114.4 301.52 115.114 301.701 115.744 302.064C116.384 302.416 116.885 302.917 117.248 303.568C117.61 304.208 117.792 304.949 117.792 305.792C117.792 306.645 117.61 307.392 117.248 308.032C116.885 308.672 116.384 309.173 115.744 309.536C115.114 309.899 114.4 310.08 113.6 310.08ZM109.264 313.104V301.6H110.352V304.128L110.24 305.808L110.4 307.504V313.104H109.264ZM113.52 309.072C114.117 309.072 114.65 308.939 115.12 308.672C115.589 308.395 115.962 308.011 116.24 307.52C116.517 307.019 116.656 306.443 116.656 305.792C116.656 305.141 116.517 304.571 116.24 304.08C115.962 303.589 115.589 303.205 115.12 302.928C114.65 302.651 114.117 302.512 113.52 302.512C112.922 302.512 112.384 302.651 111.904 302.928C111.434 303.205 111.061 303.589 110.784 304.08C110.517 304.571 110.384 305.141 110.384 305.792C110.384 306.443 110.517 307.019 110.784 307.52C111.061 308.011 111.434 308.395 111.904 308.672C112.384 308.939 112.922 309.072 113.52 309.072ZM123.531 310.08C122.721 310.08 121.99 309.899 121.339 309.536C120.699 309.163 120.193 308.656 119.819 308.016C119.446 307.365 119.259 306.624 119.259 305.792C119.259 304.949 119.446 304.208 119.819 303.568C120.193 302.928 120.699 302.427 121.339 302.064C121.979 301.701 122.71 301.52 123.531 301.52C124.363 301.52 125.099 301.701 125.739 302.064C126.39 302.427 126.897 302.928 127.259 303.568C127.633 304.208 127.819 304.949 127.819 305.792C127.819 306.624 127.633 307.365 127.259 308.016C126.897 308.656 126.39 309.163 125.739 309.536C125.089 309.899 124.353 310.08 123.531 310.08ZM123.531 309.072C124.139 309.072 124.678 308.939 125.147 308.672C125.617 308.395 125.985 308.011 126.251 307.52C126.529 307.019 126.667 306.443 126.667 305.792C126.667 305.131 126.529 304.555 126.251 304.064C125.985 303.573 125.617 303.195 125.147 302.928C124.678 302.651 124.145 302.512 123.547 302.512C122.95 302.512 122.417 302.651 121.947 302.928C121.478 303.195 121.105 303.573 120.827 304.064C120.55 304.555 120.411 305.131 120.411 305.792C120.411 306.443 120.55 307.019 120.827 307.52C121.105 308.011 121.478 308.395 121.947 308.672C122.417 308.939 122.945 309.072 123.531 309.072ZM130.139 310V301.6H131.227V303.888L131.115 303.488C131.349 302.848 131.744 302.363 132.299 302.032C132.853 301.691 133.541 301.52 134.363 301.52V302.624C134.32 302.624 134.277 302.624 134.235 302.624C134.192 302.613 134.149 302.608 134.107 302.608C133.221 302.608 132.528 302.88 132.027 303.424C131.525 303.957 131.275 304.72 131.275 305.712V310H130.139ZM139.451 310.08C138.662 310.08 138.054 309.867 137.627 309.44C137.2 309.013 136.987 308.411 136.987 307.632V299.744H138.123V307.568C138.123 308.059 138.246 308.437 138.491 308.704C138.747 308.971 139.11 309.104 139.579 309.104C140.08 309.104 140.496 308.96 140.827 308.672L141.227 309.488C141.003 309.691 140.731 309.84 140.411 309.936C140.102 310.032 139.782 310.08 139.451 310.08ZM135.483 302.544V301.6H140.683V302.544H135.483ZM148.559 310V308.144L148.511 307.84V304.736C148.511 304.021 148.308 303.472 147.903 303.088C147.508 302.704 146.916 302.512 146.127 302.512C145.583 302.512 145.066 302.603 144.575 302.784C144.084 302.965 143.668 303.205 143.327 303.504L142.815 302.656C143.242 302.293 143.754 302.016 144.351 301.824C144.948 301.621 145.578 301.52 146.239 301.52C147.327 301.52 148.164 301.792 148.751 302.336C149.348 302.869 149.647 303.685 149.647 304.784V310H148.559ZM145.663 310.08C145.034 310.08 144.484 309.979 144.015 309.776C143.556 309.563 143.204 309.275 142.959 308.912C142.714 308.539 142.591 308.112 142.591 307.632C142.591 307.195 142.692 306.8 142.895 306.448C143.108 306.085 143.45 305.797 143.919 305.584C144.399 305.36 145.039 305.248 145.839 305.248H148.735V306.096H145.871C145.06 306.096 144.495 306.24 144.175 306.528C143.866 306.816 143.711 307.173 143.711 307.6C143.711 308.08 143.898 308.464 144.271 308.752C144.644 309.04 145.167 309.184 145.839 309.184C146.479 309.184 147.028 309.04 147.487 308.752C147.956 308.453 148.298 308.027 148.511 307.472L148.767 308.256C148.554 308.811 148.18 309.253 147.647 309.584C147.124 309.915 146.463 310.08 145.663 310.08ZM157.02 301.52C157.703 301.52 158.3 301.653 158.812 301.92C159.335 302.176 159.74 302.571 160.028 303.104C160.327 303.637 160.476 304.309 160.476 305.12V310H159.34V305.232C159.34 304.347 159.116 303.68 158.668 303.232C158.231 302.773 157.612 302.544 156.812 302.544C156.215 302.544 155.692 302.667 155.244 302.912C154.807 303.147 154.466 303.493 154.22 303.952C153.986 304.4 153.868 304.944 153.868 305.584V310H152.732V301.6H153.82V303.904L153.644 303.472C153.911 302.864 154.338 302.389 154.924 302.048C155.511 301.696 156.21 301.52 157.02 301.52ZM166.201 310.08C165.412 310.08 164.804 309.867 164.377 309.44C163.95 309.013 163.737 308.411 163.737 307.632V299.744H164.873V307.568C164.873 308.059 164.996 308.437 165.241 308.704C165.497 308.971 165.86 309.104 166.329 309.104C166.83 309.104 167.246 308.96 167.577 308.672L167.977 309.488C167.753 309.691 167.481 309.84 167.161 309.936C166.852 310.032 166.532 310.08 166.201 310.08ZM162.233 302.544V301.6H167.433V302.544H162.233ZM177.704 310.08C176.99 310.08 176.366 309.947 175.832 309.68C175.299 309.413 174.883 309.013 174.584 308.48C174.296 307.947 174.152 307.28 174.152 306.48V301.6H175.288V306.352C175.288 307.248 175.507 307.925 175.944 308.384C176.392 308.832 177.016 309.056 177.816 309.056C178.403 309.056 178.91 308.939 179.336 308.704C179.774 308.459 180.104 308.107 180.328 307.648C180.563 307.189 180.68 306.64 180.68 306V301.6H181.816V310H180.728V307.696L180.904 308.112C180.638 308.731 180.222 309.216 179.656 309.568C179.102 309.909 178.451 310.08 177.704 310.08ZM189.318 310.08C188.593 310.08 187.937 309.915 187.35 309.584C186.764 309.243 186.294 308.757 185.942 308.128C185.601 307.488 185.43 306.709 185.43 305.792C185.43 304.875 185.601 304.101 185.942 303.472C186.284 302.832 186.748 302.347 187.334 302.016C187.921 301.685 188.582 301.52 189.318 301.52C190.118 301.52 190.833 301.701 191.462 302.064C192.102 302.416 192.604 302.917 192.966 303.568C193.329 304.208 193.51 304.949 193.51 305.792C193.51 306.645 193.329 307.392 192.966 308.032C192.604 308.672 192.102 309.173 191.462 309.536C190.833 309.899 190.118 310.08 189.318 310.08ZM184.982 313.104V301.6H186.07V304.128L185.958 305.808L186.118 307.504V313.104H184.982ZM189.238 309.072C189.836 309.072 190.369 308.939 190.838 308.672C191.308 308.395 191.681 308.011 191.958 307.52C192.236 307.019 192.374 306.443 192.374 305.792C192.374 305.141 192.236 304.571 191.958 304.08C191.681 303.589 191.308 303.205 190.838 302.928C190.369 302.651 189.836 302.512 189.238 302.512C188.641 302.512 188.102 302.651 187.622 302.928C187.153 303.205 186.78 303.589 186.502 304.08C186.236 304.571 186.102 305.141 186.102 305.792C186.102 306.443 186.236 307.019 186.502 307.52C186.78 308.011 187.153 308.395 187.622 308.672C188.102 308.939 188.641 309.072 189.238 309.072ZM199.17 310.08C198.37 310.08 197.65 309.899 197.01 309.536C196.381 309.173 195.885 308.672 195.522 308.032C195.16 307.381 194.978 306.635 194.978 305.792C194.978 304.939 195.16 304.192 195.522 303.552C195.885 302.912 196.381 302.416 197.01 302.064C197.65 301.701 198.37 301.52 199.17 301.52C199.906 301.52 200.562 301.685 201.138 302.016C201.725 302.347 202.189 302.832 202.53 303.472C202.882 304.101 203.058 304.875 203.058 305.792C203.058 306.699 202.888 307.472 202.546 308.112C202.205 308.752 201.741 309.243 201.154 309.584C200.578 309.915 199.917 310.08 199.17 310.08ZM199.25 309.072C199.848 309.072 200.381 308.939 200.85 308.672C201.33 308.395 201.704 308.011 201.97 307.52C202.248 307.019 202.386 306.443 202.386 305.792C202.386 305.131 202.248 304.555 201.97 304.064C201.704 303.573 201.33 303.195 200.85 302.928C200.381 302.651 199.848 302.512 199.25 302.512C198.664 302.512 198.136 302.651 197.666 302.928C197.197 303.195 196.824 303.573 196.546 304.064C196.269 304.555 196.13 305.131 196.13 305.792C196.13 306.443 196.269 307.019 196.546 307.52C196.824 308.011 197.197 308.395 197.666 308.672C198.136 308.939 198.664 309.072 199.25 309.072ZM202.418 310V307.472L202.53 305.776L202.37 304.08V298.128H203.506V310H202.418ZM211.934 310V308.144L211.886 307.84V304.736C211.886 304.021 211.683 303.472 211.278 303.088C210.883 302.704 210.291 302.512 209.502 302.512C208.958 302.512 208.441 302.603 207.95 302.784C207.459 302.965 207.043 303.205 206.702 303.504L206.19 302.656C206.617 302.293 207.129 302.016 207.726 301.824C208.323 301.621 208.953 301.52 209.614 301.52C210.702 301.52 211.539 301.792 212.126 302.336C212.723 302.869 213.022 303.685 213.022 304.784V310H211.934ZM209.038 310.08C208.409 310.08 207.859 309.979 207.39 309.776C206.931 309.563 206.579 309.275 206.334 308.912C206.089 308.539 205.966 308.112 205.966 307.632C205.966 307.195 206.067 306.8 206.27 306.448C206.483 306.085 206.825 305.797 207.294 305.584C207.774 305.36 208.414 305.248 209.214 305.248H212.11V306.096H209.246C208.435 306.096 207.87 306.24 207.55 306.528C207.241 306.816 207.086 307.173 207.086 307.6C207.086 308.08 207.273 308.464 207.646 308.752C208.019 309.04 208.542 309.184 209.214 309.184C209.854 309.184 210.403 309.04 210.862 308.752C211.331 308.453 211.673 308.027 211.886 307.472L212.142 308.256C211.929 308.811 211.555 309.253 211.022 309.584C210.499 309.915 209.838 310.08 209.038 310.08ZM218.763 310.08C217.974 310.08 217.366 309.867 216.939 309.44C216.513 309.013 216.299 308.411 216.299 307.632V299.744H217.435V307.568C217.435 308.059 217.558 308.437 217.803 308.704C218.059 308.971 218.422 309.104 218.891 309.104C219.393 309.104 219.809 308.96 220.139 308.672L220.539 309.488C220.315 309.691 220.043 309.84 219.723 309.936C219.414 310.032 219.094 310.08 218.763 310.08ZM214.795 302.544V301.6H219.995V302.544H214.795ZM225.879 310.08C225.004 310.08 224.236 309.899 223.575 309.536C222.913 309.163 222.396 308.656 222.023 308.016C221.649 307.365 221.463 306.624 221.463 305.792C221.463 304.96 221.639 304.224 221.991 303.584C222.353 302.944 222.844 302.443 223.463 302.08C224.092 301.707 224.796 301.52 225.575 301.52C226.364 301.52 227.063 301.701 227.671 302.064C228.289 302.416 228.775 302.917 229.127 303.568C229.479 304.208 229.655 304.949 229.655 305.792C229.655 305.845 229.649 305.904 229.639 305.968C229.639 306.021 229.639 306.08 229.639 306.144H222.327V305.296H229.031L228.583 305.632C228.583 305.024 228.449 304.485 228.183 304.016C227.927 303.536 227.575 303.163 227.127 302.896C226.679 302.629 226.161 302.496 225.575 302.496C224.999 302.496 224.481 302.629 224.023 302.896C223.564 303.163 223.207 303.536 222.951 304.016C222.695 304.496 222.567 305.045 222.567 305.664V305.84C222.567 306.48 222.705 307.045 222.983 307.536C223.271 308.016 223.665 308.395 224.167 308.672C224.679 308.939 225.26 309.072 225.911 309.072C226.423 309.072 226.897 308.981 227.335 308.8C227.783 308.619 228.167 308.341 228.487 307.968L229.127 308.704C228.753 309.152 228.284 309.493 227.719 309.728C227.164 309.963 226.551 310.08 225.879 310.08ZM234.223 310.08C233.529 310.08 232.873 309.984 232.255 309.792C231.636 309.589 231.151 309.339 230.799 309.04L231.311 308.144C231.652 308.4 232.089 308.624 232.623 308.816C233.156 308.997 233.716 309.088 234.303 309.088C235.103 309.088 235.679 308.965 236.031 308.72C236.383 308.464 236.559 308.128 236.559 307.712C236.559 307.403 236.457 307.163 236.255 306.992C236.063 306.811 235.807 306.677 235.487 306.592C235.167 306.496 234.809 306.416 234.415 306.352C234.02 306.288 233.625 306.213 233.231 306.128C232.847 306.043 232.495 305.92 232.175 305.76C231.855 305.589 231.593 305.36 231.391 305.072C231.199 304.784 231.103 304.4 231.103 303.92C231.103 303.461 231.231 303.051 231.487 302.688C231.743 302.325 232.116 302.043 232.607 301.84C233.108 301.627 233.716 301.52 234.431 301.52C234.975 301.52 235.519 301.595 236.063 301.744C236.607 301.883 237.055 302.069 237.407 302.304L236.911 303.216C236.537 302.96 236.137 302.779 235.711 302.672C235.284 302.555 234.857 302.496 234.431 302.496C233.673 302.496 233.113 302.629 232.751 302.896C232.399 303.152 232.223 303.483 232.223 303.888C232.223 304.208 232.319 304.459 232.511 304.64C232.713 304.821 232.975 304.965 233.295 305.072C233.625 305.168 233.983 305.248 234.367 305.312C234.761 305.376 235.151 305.456 235.535 305.552C235.929 305.637 236.287 305.76 236.607 305.92C236.937 306.069 237.199 306.288 237.391 306.576C237.593 306.853 237.695 307.221 237.695 307.68C237.695 308.171 237.556 308.597 237.279 308.96C237.012 309.312 236.617 309.589 236.095 309.792C235.583 309.984 234.959 310.08 234.223 310.08ZM239.891 310.08C239.657 310.08 239.454 309.995 239.283 309.824C239.123 309.653 239.043 309.445 239.043 309.2C239.043 308.944 239.123 308.736 239.283 308.576C239.454 308.416 239.657 308.336 239.891 308.336C240.126 308.336 240.323 308.416 240.483 308.576C240.654 308.736 240.739 308.944 240.739 309.2C240.739 309.445 240.654 309.653 240.483 309.824C240.323 309.995 240.126 310.08 239.891 310.08Z" fill="black"/>
<defs>
<clipPath id="clip0_2711_13356">
<rect width="273.761" height="200" fill="white" transform="translate(27.1191)"/>
</clipPath>
</defs>
</svg>
