<svg width="296" height="100" viewBox="0 0 296 100" fill="none" xmlns="http://www.w3.org/2000/svg">
<g clip-path="url(#clip0_2716_9233)">
<path d="M65.037 22.4898H37.4323C36.8033 22.4905 36.2002 22.7408 35.7554 23.1856C35.3106 23.6304 35.0603 24.2335 35.0596 24.8625V86.2143L34.7432 86.3108L27.9713 88.3846C27.6504 88.4825 27.3037 88.449 27.0075 88.2915C26.7112 88.134 26.4895 87.8654 26.3911 87.5447L6.24785 21.7479C6.14982 21.4269 6.18323 21.0802 6.34073 20.7839C6.49824 20.4876 6.76695 20.2659 7.08781 20.1676L17.5233 16.9723L47.776 7.71217L58.2114 4.51685C58.3702 4.46797 58.5371 4.45089 58.7025 4.46659C58.8679 4.48228 59.0286 4.53044 59.1754 4.60832C59.3222 4.68619 59.4522 4.79224 59.5579 4.9204C59.6637 5.04857 59.7431 5.19633 59.7917 5.35523L64.9406 22.1734L65.037 22.4898Z" fill="#F2F2F2"/>
<path d="M71.0607 22.173L64.8551 1.90325C64.7518 1.56552 64.5831 1.25144 64.3584 0.978966C64.1337 0.70649 63.8576 0.480956 63.5457 0.315252C63.2338 0.149547 62.8923 0.0469175 62.5408 0.0132324C62.1892 -0.0204528 61.8345 0.0154662 61.4968 0.118933L46.8252 4.60979L16.5741 13.8715L1.90251 18.3639C1.22095 18.5732 0.650265 19.0444 0.315727 19.674C-0.0188108 20.3036 -0.0898713 21.0402 0.118146 21.7222L21.3275 90.9958C21.4965 91.5463 21.8375 92.0282 22.3004 92.3706C22.7633 92.7131 23.3238 92.8982 23.8996 92.8988C24.1661 92.8989 24.4312 92.8589 24.6858 92.7802L34.7431 89.7019L35.0595 89.6038V89.2732L34.7431 89.3697L24.5925 92.478C23.9909 92.6614 23.3411 92.5987 22.7856 92.3036C22.2302 92.0086 21.8145 91.5053 21.6297 90.9041L0.421925 21.6288C0.33035 21.331 0.298434 21.018 0.328003 20.7077C0.357572 20.3975 0.448042 20.0962 0.594239 19.8209C0.740436 19.5457 0.939488 19.3021 1.17999 19.1039C1.42049 18.9057 1.69773 18.7569 1.99581 18.666L16.6674 14.1736L46.9186 4.9135L61.5902 0.421068C61.8163 0.352068 62.0514 0.316886 62.2878 0.316666C62.7951 0.317805 63.2887 0.481361 63.6963 0.783377C64.104 1.08539 64.4042 1.51 64.553 1.995L70.7301 22.173L70.8282 22.4894H71.1572L71.0607 22.173Z" fill="#3F3D56"/>
<path d="M19.4064 20.219C19.1015 20.2188 18.8047 20.1208 18.5596 19.9396C18.3144 19.7583 18.1338 19.5033 18.0442 19.2119L16.0067 12.5568C15.952 12.378 15.933 12.1902 15.9508 12.0041C15.9687 11.818 16.023 11.6372 16.1107 11.4721C16.1984 11.307 16.3178 11.1608 16.462 11.0418C16.6063 10.9228 16.7725 10.8334 16.9513 10.7787L44.7821 2.25834C45.1431 2.14817 45.5331 2.18574 45.8665 2.36281C46.1998 2.53988 46.4493 2.84198 46.5602 3.20281L48.5977 9.85798C48.7078 10.219 48.6702 10.609 48.4931 10.9423C48.316 11.2757 48.014 11.5252 47.6532 11.6361L19.8223 20.1565C19.6875 20.1979 19.5474 20.2189 19.4064 20.219Z" fill="#5662AC"/>
<path d="M30.0794 7.11155C31.8267 7.11155 33.2431 5.69512 33.2431 3.94787C33.2431 2.20061 31.8267 0.78418 30.0794 0.78418C28.3321 0.78418 26.9157 2.20061 26.9157 3.94787C26.9157 5.69512 28.3321 7.11155 30.0794 7.11155Z" fill="#5662AC"/>
<path d="M30.0795 5.95103C31.1859 5.95103 32.0829 5.0541 32.0829 3.94768C32.0829 2.84126 31.1859 1.94434 30.0795 1.94434C28.9731 1.94434 28.0762 2.84126 28.0762 3.94768C28.0762 5.0541 28.9731 5.95103 30.0795 5.95103Z" fill="white"/>
<path d="M95.3278 92.0907H41.8615C41.5051 92.0903 41.1633 91.9485 40.9112 91.6964C40.6592 91.4444 40.5174 91.1026 40.517 90.7461V26.6815C40.5174 26.325 40.6592 25.9832 40.9112 25.7312C41.1633 25.4791 41.5051 25.3373 41.8615 25.3369H95.3278C95.6843 25.3373 96.0261 25.4791 96.2781 25.7312C96.5302 25.9832 96.672 26.325 96.6724 26.6815V90.7461C96.672 91.1026 96.5302 91.4444 96.2781 91.6964C96.0261 91.9485 95.6843 92.0903 95.3278 92.0907Z" fill="#E6E6E6"/>
<path d="M70.7302 22.1729H37.4324C36.7195 22.1739 36.0361 22.4575 35.532 22.9616C35.0279 23.4657 34.7442 24.1491 34.7432 24.862V89.3696L35.0596 89.2731V24.862C35.0604 24.2329 35.3106 23.6298 35.7554 23.185C36.2002 22.7402 36.8033 22.49 37.4324 22.4892H70.8283L70.7302 22.1729ZM99.757 22.1729H37.4324C36.7195 22.1739 36.0361 22.4575 35.532 22.9616C35.0279 23.4657 34.7442 24.1491 34.7432 24.862V97.3104C34.7442 98.0233 35.0279 98.7067 35.532 99.2108C36.0361 99.7149 36.7195 99.9985 37.4324 99.9995H99.757C100.47 99.9985 101.153 99.7149 101.657 99.2108C102.161 98.7067 102.445 98.0233 102.446 97.3104V24.862C102.445 24.1491 102.161 23.4657 101.657 22.9616C101.153 22.4575 100.47 22.1739 99.757 22.1729ZM102.13 97.3104C102.129 97.9395 101.879 98.5426 101.434 98.9874C100.989 99.4322 100.386 99.6824 99.757 99.6832H37.4324C36.8033 99.6824 36.2002 99.4322 35.7554 98.9874C35.3106 98.5426 35.0604 97.9395 35.0596 97.3104V24.862C35.0604 24.2329 35.3106 23.6298 35.7554 23.185C36.2002 22.7402 36.8033 22.49 37.4324 22.4892H99.757C100.386 22.49 100.989 22.7402 101.434 23.185C101.879 23.6298 102.129 24.2329 102.13 24.862V97.3104Z" fill="#3F3D56"/>
<path d="M83.1476 29.1336H54.0417C53.6643 29.1332 53.3024 28.983 53.0355 28.7162C52.7686 28.4493 52.6185 28.0874 52.618 27.7099V20.7498C52.6185 20.3724 52.7686 20.0105 53.0355 19.7436C53.3024 19.4767 53.6643 19.3266 54.0417 19.3262H83.1476C83.5251 19.3266 83.8869 19.4767 84.1538 19.7436C84.4207 20.0105 84.5709 20.3724 84.5713 20.7498V27.7099C84.5709 28.0874 84.4207 28.4493 84.1538 28.7162C83.8869 28.983 83.5251 29.1332 83.1476 29.1336Z" fill="#5662AC"/>
<path d="M68.5947 19.801C70.3419 19.801 71.7583 18.3846 71.7583 16.6373C71.7583 14.8901 70.3419 13.4736 68.5947 13.4736C66.8474 13.4736 65.431 14.8901 65.431 16.6373C65.431 18.3846 66.8474 19.801 68.5947 19.801Z" fill="#5662AC"/>
<path d="M68.5946 18.5639C69.6588 18.5639 70.5216 17.7012 70.5216 16.6369C70.5216 15.5727 69.6588 14.71 68.5946 14.71C67.5303 14.71 66.6676 15.5727 66.6676 16.6369C66.6676 17.7012 67.5303 18.5639 68.5946 18.5639Z" fill="white"/>
</g>
<path d="M115.762 33.5V23.7H117.26L123.406 31.246H122.664V23.7H124.47V33.5H122.972L116.826 25.954H117.568V33.5H115.762ZM130.288 33.598C129.523 33.598 128.841 33.4347 128.244 33.108C127.647 32.772 127.175 32.3147 126.83 31.736C126.485 31.1573 126.312 30.4993 126.312 29.762C126.312 29.0153 126.485 28.3573 126.83 27.788C127.175 27.2093 127.647 26.7567 128.244 26.43C128.841 26.1033 129.523 25.94 130.288 25.94C131.063 25.94 131.749 26.1033 132.346 26.43C132.953 26.7567 133.424 27.2047 133.76 27.774C134.105 28.3433 134.278 29.006 134.278 29.762C134.278 30.4993 134.105 31.1573 133.76 31.736C133.424 32.3147 132.953 32.772 132.346 33.108C131.749 33.4347 131.063 33.598 130.288 33.598ZM130.288 32.1C130.717 32.1 131.1 32.0067 131.436 31.82C131.772 31.6333 132.033 31.3627 132.22 31.008C132.416 30.6533 132.514 30.238 132.514 29.762C132.514 29.2767 132.416 28.8613 132.22 28.516C132.033 28.1613 131.772 27.8907 131.436 27.704C131.1 27.5173 130.722 27.424 130.302 27.424C129.873 27.424 129.49 27.5173 129.154 27.704C128.827 27.8907 128.566 28.1613 128.37 28.516C128.174 28.8613 128.076 29.2767 128.076 29.762C128.076 30.238 128.174 30.6533 128.37 31.008C128.566 31.3627 128.827 31.6333 129.154 31.82C129.49 32.0067 129.868 32.1 130.288 32.1ZM142.984 33.598C142.266 33.598 141.617 33.4393 141.038 33.122C140.469 32.7953 140.021 32.3473 139.694 31.778C139.368 31.2087 139.204 30.5367 139.204 29.762C139.204 28.9873 139.368 28.3153 139.694 27.746C140.021 27.1767 140.469 26.7333 141.038 26.416C141.617 26.0987 142.266 25.94 142.984 25.94C143.61 25.94 144.17 26.08 144.664 26.36C145.159 26.6307 145.551 27.046 145.84 27.606C146.13 28.166 146.274 28.8847 146.274 29.762C146.274 30.63 146.134 31.3487 145.854 31.918C145.574 32.478 145.187 32.898 144.692 33.178C144.198 33.458 143.628 33.598 142.984 33.598ZM143.194 32.1C143.614 32.1 143.988 32.0067 144.314 31.82C144.65 31.6333 144.916 31.3627 145.112 31.008C145.318 30.6533 145.42 30.238 145.42 29.762C145.42 29.2767 145.318 28.8613 145.112 28.516C144.916 28.1613 144.65 27.8907 144.314 27.704C143.988 27.5173 143.614 27.424 143.194 27.424C142.774 27.424 142.396 27.5173 142.06 27.704C141.734 27.8907 141.468 28.1613 141.262 28.516C141.066 28.8613 140.968 29.2767 140.968 29.762C140.968 30.238 141.066 30.6533 141.262 31.008C141.468 31.3627 141.734 31.6333 142.06 31.82C142.396 32.0067 142.774 32.1 143.194 32.1ZM145.462 33.5V31.736L145.532 29.748L145.392 27.76V23.112H147.128V33.5H145.462ZM154.038 33.5V31.988L153.94 31.666V29.02C153.94 28.5067 153.786 28.11 153.478 27.83C153.17 27.5407 152.703 27.396 152.078 27.396C151.658 27.396 151.242 27.4613 150.832 27.592C150.43 27.7227 150.09 27.9047 149.81 28.138L149.124 26.864C149.525 26.556 150.001 26.3273 150.552 26.178C151.112 26.0193 151.69 25.94 152.288 25.94C153.37 25.94 154.206 26.2013 154.794 26.724C155.391 27.2373 155.69 28.0353 155.69 29.118V33.5H154.038ZM151.686 33.598C151.126 33.598 150.636 33.5047 150.216 33.318C149.796 33.122 149.469 32.856 149.236 32.52C149.012 32.1747 148.9 31.7873 148.9 31.358C148.9 30.938 148.998 30.56 149.194 30.224C149.399 29.888 149.73 29.622 150.188 29.426C150.645 29.23 151.252 29.132 152.008 29.132H154.178V30.294H152.134C151.536 30.294 151.135 30.392 150.93 30.588C150.724 30.7747 150.622 31.008 150.622 31.288C150.622 31.6053 150.748 31.8573 151 32.044C151.252 32.2307 151.602 32.324 152.05 32.324C152.479 32.324 152.862 32.226 153.198 32.03C153.543 31.834 153.79 31.5447 153.94 31.162L154.234 32.212C154.066 32.6507 153.762 32.9913 153.324 33.234C152.894 33.4767 152.348 33.598 151.686 33.598ZM160.75 33.598C159.928 33.598 159.294 33.388 158.846 32.968C158.398 32.5387 158.174 31.9087 158.174 31.078V24.372H159.924V31.036C159.924 31.3907 160.012 31.666 160.19 31.862C160.376 32.058 160.633 32.156 160.96 32.156C161.352 32.156 161.678 32.0533 161.94 31.848L162.43 33.094C162.224 33.262 161.972 33.388 161.674 33.472C161.375 33.556 161.067 33.598 160.75 33.598ZM156.942 27.48V26.08H161.926V27.48H156.942ZM168.475 33.5V31.988L168.377 31.666V29.02C168.377 28.5067 168.223 28.11 167.915 27.83C167.607 27.5407 167.141 27.396 166.515 27.396C166.095 27.396 165.68 27.4613 165.269 27.592C164.868 27.7227 164.527 27.9047 164.247 28.138L163.561 26.864C163.963 26.556 164.439 26.3273 164.989 26.178C165.549 26.0193 166.128 25.94 166.725 25.94C167.808 25.94 168.643 26.2013 169.231 26.724C169.829 27.2373 170.127 28.0353 170.127 29.118V33.5H168.475ZM166.123 33.598C165.563 33.598 165.073 33.5047 164.653 33.318C164.233 33.122 163.907 32.856 163.673 32.52C163.449 32.1747 163.337 31.7873 163.337 31.358C163.337 30.938 163.435 30.56 163.631 30.224C163.837 29.888 164.168 29.622 164.625 29.426C165.083 29.23 165.689 29.132 166.445 29.132H168.615V30.294H166.571C165.974 30.294 165.573 30.392 165.367 30.588C165.162 30.7747 165.059 31.008 165.059 31.288C165.059 31.6053 165.185 31.8573 165.437 32.044C165.689 32.2307 166.039 32.324 166.487 32.324C166.917 32.324 167.299 32.226 167.635 32.03C167.981 31.834 168.228 31.5447 168.377 31.162L168.671 32.212C168.503 32.6507 168.2 32.9913 167.761 33.234C167.332 33.4767 166.786 33.598 166.123 33.598ZM175.024 33.5L179.434 23.7H181.226L185.65 33.5H183.746L179.952 24.666H180.68L176.9 33.5H175.024ZM177.054 31.232L177.544 29.804H182.836L183.326 31.232H177.054ZM188.334 33.5L185.128 26.024H186.948L189.706 32.618H188.81L191.666 26.024H193.346L190.14 33.5H188.334ZM198.813 33.5V31.988L198.715 31.666V29.02C198.715 28.5067 198.561 28.11 198.253 27.83C197.945 27.5407 197.479 27.396 196.853 27.396C196.433 27.396 196.018 27.4613 195.607 27.592C195.206 27.7227 194.865 27.9047 194.585 28.138L193.899 26.864C194.301 26.556 194.777 26.3273 195.327 26.178C195.887 26.0193 196.466 25.94 197.063 25.94C198.146 25.94 198.981 26.2013 199.569 26.724C200.167 27.2373 200.465 28.0353 200.465 29.118V33.5H198.813ZM196.461 33.598C195.901 33.598 195.411 33.5047 194.991 33.318C194.571 33.122 194.245 32.856 194.011 32.52C193.787 32.1747 193.675 31.7873 193.675 31.358C193.675 30.938 193.773 30.56 193.969 30.224C194.175 29.888 194.506 29.622 194.963 29.426C195.421 29.23 196.027 29.132 196.783 29.132H198.953V30.294H196.909C196.312 30.294 195.911 30.392 195.705 30.588C195.5 30.7747 195.397 31.008 195.397 31.288C195.397 31.6053 195.523 31.8573 195.775 32.044C196.027 32.2307 196.377 32.324 196.825 32.324C197.255 32.324 197.637 32.226 197.973 32.03C198.319 31.834 198.566 31.5447 198.715 31.162L199.009 32.212C198.841 32.6507 198.538 32.9913 198.099 33.234C197.67 33.4767 197.124 33.598 196.461 33.598ZM202.711 33.5V26.024H204.461V33.5H202.711ZM203.593 24.792C203.266 24.792 202.996 24.6893 202.781 24.484C202.576 24.2787 202.473 24.0313 202.473 23.742C202.473 23.4433 202.576 23.196 202.781 23C202.996 22.7947 203.266 22.692 203.593 22.692C203.92 22.692 204.186 22.79 204.391 22.986C204.606 23.1727 204.713 23.4107 204.713 23.7C204.713 24.008 204.61 24.2693 204.405 24.484C204.2 24.6893 203.929 24.792 203.593 24.792ZM206.758 33.5V23.112H208.508V33.5H206.758ZM215.411 33.5V31.988L215.313 31.666V29.02C215.313 28.5067 215.159 28.11 214.851 27.83C214.543 27.5407 214.076 27.396 213.451 27.396C213.031 27.396 212.616 27.4613 212.205 27.592C211.804 27.7227 211.463 27.9047 211.183 28.138L210.497 26.864C210.898 26.556 211.374 26.3273 211.925 26.178C212.485 26.0193 213.064 25.94 213.661 25.94C214.744 25.94 215.579 26.2013 216.167 26.724C216.764 27.2373 217.063 28.0353 217.063 29.118V33.5H215.411ZM213.059 33.598C212.499 33.598 212.009 33.5047 211.589 33.318C211.169 33.122 210.842 32.856 210.609 32.52C210.385 32.1747 210.273 31.7873 210.273 31.358C210.273 30.938 210.371 30.56 210.567 30.224C210.772 29.888 211.104 29.622 211.561 29.426C212.018 29.23 212.625 29.132 213.381 29.132H215.551V30.294H213.507C212.91 30.294 212.508 30.392 212.303 30.588C212.098 30.7747 211.995 31.008 211.995 31.288C211.995 31.6053 212.121 31.8573 212.373 32.044C212.625 32.2307 212.975 32.324 213.423 32.324C213.852 32.324 214.235 32.226 214.571 32.03C214.916 31.834 215.164 31.5447 215.313 31.162L215.607 32.212C215.439 32.6507 215.136 32.9913 214.697 33.234C214.268 33.4767 213.722 33.598 213.059 33.598ZM223.453 33.598C222.818 33.598 222.253 33.458 221.759 33.178C221.264 32.898 220.872 32.478 220.583 31.918C220.303 31.3487 220.163 30.63 220.163 29.762C220.163 28.8847 220.307 28.166 220.597 27.606C220.895 27.046 221.292 26.6307 221.787 26.36C222.291 26.08 222.846 25.94 223.453 25.94C224.19 25.94 224.839 26.0987 225.399 26.416C225.968 26.7333 226.416 27.1767 226.743 27.746C227.079 28.3153 227.247 28.9873 227.247 29.762C227.247 30.5367 227.079 31.2087 226.743 31.778C226.416 32.3473 225.968 32.7953 225.399 33.122C224.839 33.4393 224.19 33.598 223.453 33.598ZM219.309 33.5V23.112H221.059V27.76L220.919 29.748L220.975 31.736V33.5H219.309ZM223.257 32.1C223.677 32.1 224.05 32.0067 224.377 31.82C224.713 31.6333 224.979 31.3627 225.175 31.008C225.371 30.6533 225.469 30.238 225.469 29.762C225.469 29.2767 225.371 28.8613 225.175 28.516C224.979 28.1613 224.713 27.8907 224.377 27.704C224.05 27.5173 223.677 27.424 223.257 27.424C222.837 27.424 222.459 27.5173 222.123 27.704C221.787 27.8907 221.521 28.1613 221.325 28.516C221.129 28.8613 221.031 29.2767 221.031 29.762C221.031 30.238 221.129 30.6533 221.325 31.008C221.521 31.3627 221.787 31.6333 222.123 31.82C222.459 32.0067 222.837 32.1 223.257 32.1ZM228.906 33.5V23.112H230.656V33.5H228.906ZM236.467 33.598C235.637 33.598 234.909 33.4347 234.283 33.108C233.667 32.772 233.187 32.3147 232.841 31.736C232.505 31.1573 232.337 30.4993 232.337 29.762C232.337 29.0153 232.501 28.3573 232.827 27.788C233.163 27.2093 233.621 26.7567 234.199 26.43C234.787 26.1033 235.455 25.94 236.201 25.94C236.929 25.94 237.578 26.0987 238.147 26.416C238.717 26.7333 239.165 27.1813 239.491 27.76C239.818 28.3387 239.981 29.02 239.981 29.804C239.981 29.8787 239.977 29.9627 239.967 30.056C239.967 30.1493 239.963 30.238 239.953 30.322H233.723V29.16H239.029L238.343 29.524C238.353 29.0947 238.264 28.7167 238.077 28.39C237.891 28.0633 237.634 27.8067 237.307 27.62C236.99 27.4333 236.621 27.34 236.201 27.34C235.772 27.34 235.394 27.4333 235.067 27.62C234.75 27.8067 234.498 28.068 234.311 28.404C234.134 28.7307 234.045 29.118 234.045 29.566V29.846C234.045 30.294 234.148 30.6907 234.353 31.036C234.559 31.3813 234.848 31.6473 235.221 31.834C235.595 32.0207 236.024 32.114 236.509 32.114C236.929 32.114 237.307 32.0487 237.643 31.918C237.979 31.7873 238.278 31.582 238.539 31.302L239.477 32.38C239.141 32.772 238.717 33.0753 238.203 33.29C237.699 33.4953 237.121 33.598 236.467 33.598Z" fill="#2D3439"/>
<path d="M119.198 59.572C118.126 59.572 117.282 59.264 116.666 58.648C116.05 58.032 115.742 57.12 115.742 55.912V51.1H116.63V55.876C116.63 56.868 116.854 57.6 117.302 58.072C117.75 58.544 118.382 58.78 119.198 58.78C120.022 58.78 120.658 58.544 121.106 58.072C121.554 57.6 121.778 56.868 121.778 55.876V51.1H122.642V55.912C122.642 57.12 122.334 58.032 121.718 58.648C121.11 59.264 120.27 59.572 119.198 59.572ZM128.39 59.56C127.846 59.56 127.354 59.436 126.914 59.188C126.474 58.932 126.122 58.568 125.858 58.096C125.602 57.616 125.474 57.032 125.474 56.344C125.474 55.656 125.602 55.076 125.858 54.604C126.114 54.124 126.462 53.76 126.902 53.512C127.342 53.264 127.838 53.14 128.39 53.14C128.99 53.14 129.526 53.276 129.998 53.548C130.478 53.812 130.854 54.188 131.126 54.676C131.398 55.156 131.534 55.712 131.534 56.344C131.534 56.984 131.398 57.544 131.126 58.024C130.854 58.504 130.478 58.88 129.998 59.152C129.526 59.424 128.99 59.56 128.39 59.56ZM125.138 61.828V53.2H125.954V55.096L125.87 56.356L125.99 57.628V61.828H125.138ZM128.33 58.804C128.778 58.804 129.178 58.704 129.53 58.504C129.882 58.296 130.162 58.008 130.37 57.64C130.578 57.264 130.682 56.832 130.682 56.344C130.682 55.856 130.578 55.428 130.37 55.06C130.162 54.692 129.882 54.404 129.53 54.196C129.178 53.988 128.778 53.884 128.33 53.884C127.882 53.884 127.478 53.988 127.118 54.196C126.766 54.404 126.486 54.692 126.278 55.06C126.078 55.428 125.978 55.856 125.978 56.344C125.978 56.832 126.078 57.264 126.278 57.64C126.486 58.008 126.766 58.296 127.118 58.504C127.478 58.704 127.882 58.804 128.33 58.804ZM135.779 59.56C135.179 59.56 134.639 59.424 134.159 59.152C133.687 58.88 133.315 58.504 133.043 58.024C132.771 57.536 132.635 56.976 132.635 56.344C132.635 55.704 132.771 55.144 133.043 54.664C133.315 54.184 133.687 53.812 134.159 53.548C134.639 53.276 135.179 53.14 135.779 53.14C136.331 53.14 136.823 53.264 137.255 53.512C137.695 53.76 138.043 54.124 138.299 54.604C138.563 55.076 138.695 55.656 138.695 56.344C138.695 57.024 138.567 57.604 138.311 58.084C138.055 58.564 137.707 58.932 137.267 59.188C136.835 59.436 136.339 59.56 135.779 59.56ZM135.839 58.804C136.287 58.804 136.687 58.704 137.039 58.504C137.399 58.296 137.679 58.008 137.879 57.64C138.087 57.264 138.191 56.832 138.191 56.344C138.191 55.848 138.087 55.416 137.879 55.048C137.679 54.68 137.399 54.396 137.039 54.196C136.687 53.988 136.287 53.884 135.839 53.884C135.399 53.884 135.003 53.988 134.651 54.196C134.299 54.396 134.019 54.68 133.811 55.048C133.603 55.416 133.499 55.848 133.499 56.344C133.499 56.832 133.603 57.264 133.811 57.64C134.019 58.008 134.299 58.296 134.651 58.504C135.003 58.704 135.399 58.804 135.839 58.804ZM138.215 59.5V57.604L138.299 56.332L138.179 55.06V50.596H139.031V59.5H138.215ZM145.351 59.5V58.108L145.315 57.88V55.552C145.315 55.016 145.163 54.604 144.859 54.316C144.563 54.028 144.119 53.884 143.527 53.884C143.119 53.884 142.731 53.952 142.363 54.088C141.995 54.224 141.683 54.404 141.427 54.628L141.043 53.992C141.363 53.72 141.747 53.512 142.195 53.368C142.643 53.216 143.115 53.14 143.611 53.14C144.427 53.14 145.055 53.344 145.495 53.752C145.943 54.152 146.167 54.764 146.167 55.588V59.5H145.351ZM143.179 59.56C142.707 59.56 142.295 59.484 141.943 59.332C141.599 59.172 141.335 58.956 141.151 58.684C140.967 58.404 140.875 58.084 140.875 57.724C140.875 57.396 140.951 57.1 141.103 56.836C141.263 56.564 141.519 56.348 141.871 56.188C142.231 56.02 142.711 55.936 143.311 55.936H145.483V56.572H143.335C142.727 56.572 142.303 56.68 142.063 56.896C141.831 57.112 141.715 57.38 141.715 57.7C141.715 58.06 141.855 58.348 142.135 58.564C142.415 58.78 142.807 58.888 143.311 58.888C143.791 58.888 144.203 58.78 144.547 58.564C144.899 58.34 145.155 58.02 145.315 57.604L145.507 58.192C145.347 58.608 145.067 58.94 144.667 59.188C144.275 59.436 143.779 59.56 143.179 59.56ZM150.474 59.56C149.882 59.56 149.426 59.4 149.106 59.08C148.786 58.76 148.626 58.308 148.626 57.724V51.808H149.478V57.676C149.478 58.044 149.57 58.328 149.754 58.528C149.946 58.728 150.218 58.828 150.57 58.828C150.946 58.828 151.258 58.72 151.506 58.504L151.806 59.116C151.638 59.268 151.434 59.38 151.194 59.452C150.962 59.524 150.722 59.56 150.474 59.56ZM147.498 53.908V53.2H151.398V53.908H147.498ZM155.81 59.56C155.154 59.56 154.578 59.424 154.082 59.152C153.586 58.872 153.198 58.492 152.918 58.012C152.638 57.524 152.498 56.968 152.498 56.344C152.498 55.72 152.63 55.168 152.894 54.688C153.166 54.208 153.534 53.832 153.998 53.56C154.47 53.28 154.998 53.14 155.582 53.14C156.174 53.14 156.698 53.276 157.154 53.548C157.618 53.812 157.982 54.188 158.246 54.676C158.51 55.156 158.642 55.712 158.642 56.344C158.642 56.384 158.638 56.428 158.63 56.476C158.63 56.516 158.63 56.56 158.63 56.608H153.146V55.972H158.174L157.838 56.224C157.838 55.768 157.738 55.364 157.538 55.012C157.346 54.652 157.082 54.372 156.746 54.172C156.41 53.972 156.022 53.872 155.582 53.872C155.15 53.872 154.762 53.972 154.418 54.172C154.074 54.372 153.806 54.652 153.614 55.012C153.422 55.372 153.326 55.784 153.326 56.248V56.38C153.326 56.86 153.43 57.284 153.638 57.652C153.854 58.012 154.15 58.296 154.526 58.504C154.91 58.704 155.346 58.804 155.834 58.804C156.218 58.804 156.574 58.736 156.902 58.6C157.238 58.464 157.526 58.256 157.766 57.976L158.246 58.528C157.966 58.864 157.614 59.12 157.19 59.296C156.774 59.472 156.314 59.56 155.81 59.56ZM165.209 59.56C164.689 59.56 164.197 59.488 163.733 59.344C163.269 59.192 162.905 59.004 162.641 58.78L163.025 58.108C163.281 58.3 163.609 58.468 164.009 58.612C164.409 58.748 164.829 58.816 165.269 58.816C165.869 58.816 166.301 58.724 166.565 58.54C166.829 58.348 166.961 58.096 166.961 57.784C166.961 57.552 166.885 57.372 166.733 57.244C166.589 57.108 166.397 57.008 166.157 56.944C165.917 56.872 165.649 56.812 165.353 56.764C165.057 56.716 164.761 56.66 164.465 56.596C164.177 56.532 163.913 56.44 163.673 56.32C163.433 56.192 163.237 56.02 163.085 55.804C162.941 55.588 162.869 55.3 162.869 54.94C162.869 54.596 162.965 54.288 163.157 54.016C163.349 53.744 163.629 53.532 163.997 53.38C164.373 53.22 164.829 53.14 165.365 53.14C165.773 53.14 166.181 53.196 166.589 53.308C166.997 53.412 167.333 53.552 167.597 53.728L167.225 54.412C166.945 54.22 166.645 54.084 166.325 54.004C166.005 53.916 165.685 53.872 165.365 53.872C164.797 53.872 164.377 53.972 164.105 54.172C163.841 54.364 163.709 54.612 163.709 54.916C163.709 55.156 163.781 55.344 163.925 55.48C164.077 55.616 164.273 55.724 164.513 55.804C164.761 55.876 165.029 55.936 165.317 55.984C165.613 56.032 165.905 56.092 166.193 56.164C166.489 56.228 166.757 56.32 166.997 56.44C167.245 56.552 167.441 56.716 167.585 56.932C167.737 57.14 167.813 57.416 167.813 57.76C167.813 58.128 167.709 58.448 167.501 58.72C167.301 58.984 167.005 59.192 166.613 59.344C166.229 59.488 165.761 59.56 165.209 59.56ZM171.368 59.56C170.776 59.56 170.32 59.4 170 59.08C169.68 58.76 169.52 58.308 169.52 57.724V51.808H170.372V57.676C170.372 58.044 170.464 58.328 170.648 58.528C170.84 58.728 171.112 58.828 171.464 58.828C171.84 58.828 172.152 58.72 172.4 58.504L172.7 59.116C172.532 59.268 172.328 59.38 172.088 59.452C171.856 59.524 171.616 59.56 171.368 59.56ZM168.392 53.908V53.2H172.292V53.908H168.392ZM178.199 59.5V58.108L178.163 57.88V55.552C178.163 55.016 178.011 54.604 177.707 54.316C177.411 54.028 176.967 53.884 176.375 53.884C175.967 53.884 175.579 53.952 175.211 54.088C174.843 54.224 174.531 54.404 174.275 54.628L173.891 53.992C174.211 53.72 174.595 53.512 175.043 53.368C175.491 53.216 175.963 53.14 176.459 53.14C177.275 53.14 177.903 53.344 178.343 53.752C178.791 54.152 179.015 54.764 179.015 55.588V59.5H178.199ZM176.027 59.56C175.555 59.56 175.143 59.484 174.791 59.332C174.447 59.172 174.183 58.956 173.999 58.684C173.815 58.404 173.723 58.084 173.723 57.724C173.723 57.396 173.799 57.1 173.951 56.836C174.111 56.564 174.367 56.348 174.719 56.188C175.079 56.02 175.559 55.936 176.159 55.936H178.331V56.572H176.183C175.575 56.572 175.151 56.68 174.911 56.896C174.679 57.112 174.563 57.38 174.563 57.7C174.563 58.06 174.703 58.348 174.983 58.564C175.263 58.78 175.655 58.888 176.159 58.888C176.639 58.888 177.051 58.78 177.395 58.564C177.747 58.34 178.003 58.02 178.163 57.604L178.355 58.192C178.195 58.608 177.915 58.94 177.515 59.188C177.123 59.436 176.627 59.56 176.027 59.56ZM181.473 59.5V52.408C181.473 51.848 181.637 51.396 181.965 51.052C182.293 50.708 182.765 50.536 183.381 50.536C183.621 50.536 183.853 50.568 184.077 50.632C184.301 50.696 184.489 50.796 184.641 50.932L184.353 51.568C184.233 51.464 184.093 51.388 183.933 51.34C183.773 51.284 183.601 51.256 183.417 51.256C183.057 51.256 182.781 51.356 182.589 51.556C182.397 51.756 182.301 52.052 182.301 52.444V53.404L182.325 53.8V59.5H181.473ZM180.345 53.908V53.2H184.245V53.908H180.345ZM185.563 59.5V52.408C185.563 51.848 185.727 51.396 186.055 51.052C186.383 50.708 186.855 50.536 187.471 50.536C187.711 50.536 187.943 50.568 188.167 50.632C188.391 50.696 188.579 50.796 188.731 50.932L188.443 51.568C188.323 51.464 188.183 51.388 188.023 51.34C187.863 51.284 187.691 51.256 187.507 51.256C187.147 51.256 186.871 51.356 186.679 51.556C186.487 51.756 186.391 52.052 186.391 52.444V53.404L186.415 53.8V59.5H185.563ZM184.435 53.908V53.2H188.335V53.908H184.435ZM195.134 59.56C194.534 59.56 193.994 59.424 193.514 59.152C193.042 58.88 192.67 58.504 192.398 58.024C192.126 57.536 191.99 56.976 191.99 56.344C191.99 55.704 192.126 55.144 192.398 54.664C192.67 54.184 193.042 53.812 193.514 53.548C193.994 53.276 194.534 53.14 195.134 53.14C195.686 53.14 196.178 53.264 196.61 53.512C197.05 53.76 197.398 54.124 197.654 54.604C197.918 55.076 198.05 55.656 198.05 56.344C198.05 57.024 197.922 57.604 197.666 58.084C197.41 58.564 197.062 58.932 196.622 59.188C196.19 59.436 195.694 59.56 195.134 59.56ZM195.194 58.804C195.642 58.804 196.042 58.704 196.394 58.504C196.754 58.296 197.034 58.008 197.234 57.64C197.442 57.264 197.546 56.832 197.546 56.344C197.546 55.848 197.442 55.416 197.234 55.048C197.034 54.68 196.754 54.396 196.394 54.196C196.042 53.988 195.642 53.884 195.194 53.884C194.754 53.884 194.358 53.988 194.006 54.196C193.654 54.396 193.374 54.68 193.166 55.048C192.958 55.416 192.854 55.848 192.854 56.344C192.854 56.832 192.958 57.264 193.166 57.64C193.374 58.008 193.654 58.296 194.006 58.504C194.358 58.704 194.754 58.804 195.194 58.804ZM197.57 59.5V57.604L197.654 56.332L197.534 55.06V50.596H198.386V59.5H197.57ZM203.435 59.56C202.779 59.56 202.203 59.424 201.707 59.152C201.211 58.872 200.823 58.492 200.543 58.012C200.263 57.524 200.123 56.968 200.123 56.344C200.123 55.72 200.255 55.168 200.519 54.688C200.791 54.208 201.159 53.832 201.623 53.56C202.095 53.28 202.623 53.14 203.207 53.14C203.799 53.14 204.323 53.276 204.779 53.548C205.243 53.812 205.607 54.188 205.871 54.676C206.135 55.156 206.267 55.712 206.267 56.344C206.267 56.384 206.263 56.428 206.255 56.476C206.255 56.516 206.255 56.56 206.255 56.608H200.771V55.972H205.799L205.463 56.224C205.463 55.768 205.363 55.364 205.163 55.012C204.971 54.652 204.707 54.372 204.371 54.172C204.035 53.972 203.647 53.872 203.207 53.872C202.775 53.872 202.387 53.972 202.043 54.172C201.699 54.372 201.431 54.652 201.239 55.012C201.047 55.372 200.951 55.784 200.951 56.248V56.38C200.951 56.86 201.055 57.284 201.263 57.652C201.479 58.012 201.775 58.296 202.151 58.504C202.535 58.704 202.971 58.804 203.459 58.804C203.843 58.804 204.199 58.736 204.527 58.6C204.863 58.464 205.151 58.256 205.391 57.976L205.871 58.528C205.591 58.864 205.239 59.12 204.815 59.296C204.399 59.472 203.939 59.56 203.435 59.56ZM209.993 59.56C209.401 59.56 208.945 59.4 208.625 59.08C208.305 58.76 208.145 58.308 208.145 57.724V51.808H208.997V57.676C208.997 58.044 209.089 58.328 209.273 58.528C209.465 58.728 209.737 58.828 210.089 58.828C210.465 58.828 210.777 58.72 211.025 58.504L211.325 59.116C211.157 59.268 210.953 59.38 210.713 59.452C210.481 59.524 210.241 59.56 209.993 59.56ZM207.017 53.908V53.2H210.917V53.908H207.017ZM216.824 59.5V58.108L216.788 57.88V55.552C216.788 55.016 216.636 54.604 216.332 54.316C216.036 54.028 215.592 53.884 215 53.884C214.592 53.884 214.204 53.952 213.836 54.088C213.468 54.224 213.156 54.404 212.9 54.628L212.516 53.992C212.836 53.72 213.22 53.512 213.668 53.368C214.116 53.216 214.588 53.14 215.084 53.14C215.9 53.14 216.528 53.344 216.968 53.752C217.416 54.152 217.64 54.764 217.64 55.588V59.5H216.824ZM214.652 59.56C214.18 59.56 213.768 59.484 213.416 59.332C213.072 59.172 212.808 58.956 212.624 58.684C212.44 58.404 212.348 58.084 212.348 57.724C212.348 57.396 212.424 57.1 212.576 56.836C212.736 56.564 212.992 56.348 213.344 56.188C213.704 56.02 214.184 55.936 214.784 55.936H216.956V56.572H214.808C214.2 56.572 213.776 56.68 213.536 56.896C213.304 57.112 213.188 57.38 213.188 57.7C213.188 58.06 213.328 58.348 213.608 58.564C213.888 58.78 214.28 58.888 214.784 58.888C215.264 58.888 215.676 58.78 216.02 58.564C216.372 58.34 216.628 58.02 216.788 57.604L216.98 58.192C216.82 58.608 216.54 58.94 216.14 59.188C215.748 59.436 215.252 59.56 214.652 59.56ZM219.954 59.5V53.2H220.806V59.5H219.954ZM220.386 51.808C220.21 51.808 220.062 51.748 219.942 51.628C219.822 51.508 219.762 51.364 219.762 51.196C219.762 51.028 219.822 50.888 219.942 50.776C220.062 50.656 220.21 50.596 220.386 50.596C220.562 50.596 220.71 50.652 220.83 50.764C220.95 50.876 221.01 51.016 221.01 51.184C221.01 51.36 220.95 51.508 220.83 51.628C220.718 51.748 220.57 51.808 220.386 51.808ZM223.177 59.5V50.596H224.029V59.5H223.177ZM228.092 59.56C227.572 59.56 227.08 59.488 226.616 59.344C226.152 59.192 225.788 59.004 225.524 58.78L225.908 58.108C226.164 58.3 226.492 58.468 226.892 58.612C227.292 58.748 227.712 58.816 228.152 58.816C228.752 58.816 229.184 58.724 229.448 58.54C229.712 58.348 229.844 58.096 229.844 57.784C229.844 57.552 229.768 57.372 229.616 57.244C229.472 57.108 229.28 57.008 229.04 56.944C228.8 56.872 228.532 56.812 228.236 56.764C227.94 56.716 227.644 56.66 227.348 56.596C227.06 56.532 226.796 56.44 226.556 56.32C226.316 56.192 226.12 56.02 225.968 55.804C225.824 55.588 225.752 55.3 225.752 54.94C225.752 54.596 225.848 54.288 226.04 54.016C226.232 53.744 226.512 53.532 226.88 53.38C227.256 53.22 227.712 53.14 228.248 53.14C228.656 53.14 229.064 53.196 229.472 53.308C229.88 53.412 230.216 53.552 230.48 53.728L230.108 54.412C229.828 54.22 229.528 54.084 229.208 54.004C228.888 53.916 228.568 53.872 228.248 53.872C227.68 53.872 227.26 53.972 226.988 54.172C226.724 54.364 226.592 54.612 226.592 54.916C226.592 55.156 226.664 55.344 226.808 55.48C226.96 55.616 227.156 55.724 227.396 55.804C227.644 55.876 227.912 55.936 228.2 55.984C228.496 56.032 228.788 56.092 229.076 56.164C229.372 56.228 229.64 56.32 229.88 56.44C230.128 56.552 230.324 56.716 230.468 56.932C230.62 57.14 230.696 57.416 230.696 57.76C230.696 58.128 230.592 58.448 230.384 58.72C230.184 58.984 229.888 59.192 229.496 59.344C229.112 59.488 228.644 59.56 228.092 59.56ZM237.392 59.56C236.8 59.56 236.344 59.4 236.024 59.08C235.704 58.76 235.544 58.308 235.544 57.724V51.808H236.396V57.676C236.396 58.044 236.488 58.328 236.672 58.528C236.864 58.728 237.136 58.828 237.488 58.828C237.864 58.828 238.176 58.72 238.424 58.504L238.724 59.116C238.556 59.268 238.352 59.38 238.112 59.452C237.88 59.524 237.64 59.56 237.392 59.56ZM234.416 53.908V53.2H238.316V53.908H234.416ZM242.62 59.56C242.012 59.56 241.464 59.424 240.976 59.152C240.496 58.872 240.116 58.492 239.836 58.012C239.556 57.524 239.416 56.968 239.416 56.344C239.416 55.712 239.556 55.156 239.836 54.676C240.116 54.196 240.496 53.82 240.976 53.548C241.456 53.276 242.004 53.14 242.62 53.14C243.244 53.14 243.796 53.276 244.276 53.548C244.764 53.82 245.144 54.196 245.416 54.676C245.696 55.156 245.836 55.712 245.836 56.344C245.836 56.968 245.696 57.524 245.416 58.012C245.144 58.492 244.764 58.872 244.276 59.152C243.788 59.424 243.236 59.56 242.62 59.56ZM242.62 58.804C243.076 58.804 243.48 58.704 243.832 58.504C244.184 58.296 244.46 58.008 244.66 57.64C244.868 57.264 244.972 56.832 244.972 56.344C244.972 55.848 244.868 55.416 244.66 55.048C244.46 54.68 244.184 54.396 243.832 54.196C243.48 53.988 243.08 53.884 242.632 53.884C242.184 53.884 241.784 53.988 241.432 54.196C241.08 54.396 240.8 54.68 240.592 55.048C240.384 55.416 240.28 55.848 240.28 56.344C240.28 56.832 240.384 57.264 240.592 57.64C240.8 58.008 241.08 58.296 241.432 58.504C241.784 58.704 242.18 58.804 242.62 58.804ZM252.336 59.5L249.54 53.2H250.428L252.996 59.044H252.576L255.18 53.2H256.02L253.212 59.5H252.336ZM257.22 59.5V53.2H258.072V59.5H257.22ZM257.652 51.808C257.476 51.808 257.328 51.748 257.208 51.628C257.088 51.508 257.028 51.364 257.028 51.196C257.028 51.028 257.088 50.888 257.208 50.776C257.328 50.656 257.476 50.596 257.652 50.596C257.828 50.596 257.976 50.652 258.096 50.764C258.216 50.876 258.276 51.016 258.276 51.184C258.276 51.36 258.216 51.508 258.096 51.628C257.984 51.748 257.836 51.808 257.652 51.808ZM263.119 59.56C262.463 59.56 261.887 59.424 261.391 59.152C260.895 58.872 260.507 58.492 260.227 58.012C259.947 57.524 259.807 56.968 259.807 56.344C259.807 55.72 259.939 55.168 260.203 54.688C260.475 54.208 260.843 53.832 261.307 53.56C261.779 53.28 262.307 53.14 262.891 53.14C263.483 53.14 264.007 53.276 264.463 53.548C264.927 53.812 265.291 54.188 265.555 54.676C265.819 55.156 265.951 55.712 265.951 56.344C265.951 56.384 265.947 56.428 265.939 56.476C265.939 56.516 265.939 56.56 265.939 56.608H260.455V55.972H265.483L265.147 56.224C265.147 55.768 265.047 55.364 264.847 55.012C264.655 54.652 264.391 54.372 264.055 54.172C263.719 53.972 263.331 53.872 262.891 53.872C262.459 53.872 262.071 53.972 261.727 54.172C261.383 54.372 261.115 54.652 260.923 55.012C260.731 55.372 260.635 55.784 260.635 56.248V56.38C260.635 56.86 260.739 57.284 260.947 57.652C261.163 58.012 261.459 58.296 261.835 58.504C262.219 58.704 262.655 58.804 263.143 58.804C263.527 58.804 263.883 58.736 264.211 58.6C264.547 58.464 264.835 58.256 265.075 57.976L265.555 58.528C265.275 58.864 264.923 59.12 264.499 59.296C264.083 59.472 263.623 59.56 263.119 59.56ZM268.852 59.5L266.476 53.2H267.292L269.452 59.044H269.08L271.3 53.2H272.032L274.228 59.044H273.856L276.052 53.2H276.832L274.444 59.5H273.64L271.528 54.004H271.78L269.656 59.5H268.852ZM117.626 77.56C117.034 77.56 116.578 77.4 116.258 77.08C115.938 76.76 115.778 76.308 115.778 75.724V69.808H116.63V75.676C116.63 76.044 116.722 76.328 116.906 76.528C117.098 76.728 117.37 76.828 117.722 76.828C118.098 76.828 118.41 76.72 118.658 76.504L118.958 77.116C118.79 77.268 118.586 77.38 118.346 77.452C118.114 77.524 117.874 77.56 117.626 77.56ZM114.65 71.908V71.2H118.55V71.908H114.65ZM123.725 71.14C124.237 71.14 124.685 71.24 125.069 71.44C125.461 71.632 125.765 71.928 125.981 72.328C126.205 72.728 126.317 73.232 126.317 73.84V77.5H125.465V73.924C125.465 73.26 125.297 72.76 124.961 72.424C124.633 72.08 124.169 71.908 123.569 71.908C123.121 71.908 122.729 72 122.393 72.184C122.065 72.36 121.809 72.62 121.625 72.964C121.449 73.3 121.361 73.708 121.361 74.188V77.5H120.509V68.596H121.361V72.928L121.193 72.604C121.393 72.148 121.713 71.792 122.153 71.536C122.593 71.272 123.117 71.14 123.725 71.14ZM131.294 77.56C130.638 77.56 130.062 77.424 129.566 77.152C129.07 76.872 128.682 76.492 128.402 76.012C128.122 75.524 127.982 74.968 127.982 74.344C127.982 73.72 128.114 73.168 128.378 72.688C128.65 72.208 129.018 71.832 129.482 71.56C129.954 71.28 130.482 71.14 131.066 71.14C131.658 71.14 132.182 71.276 132.638 71.548C133.102 71.812 133.466 72.188 133.73 72.676C133.994 73.156 134.126 73.712 134.126 74.344C134.126 74.384 134.122 74.428 134.114 74.476C134.114 74.516 134.114 74.56 134.114 74.608H128.63V73.972H133.658L133.322 74.224C133.322 73.768 133.222 73.364 133.022 73.012C132.83 72.652 132.566 72.372 132.23 72.172C131.894 71.972 131.506 71.872 131.066 71.872C130.634 71.872 130.246 71.972 129.902 72.172C129.558 72.372 129.29 72.652 129.098 73.012C128.906 73.372 128.81 73.784 128.81 74.248V74.38C128.81 74.86 128.914 75.284 129.122 75.652C129.338 76.012 129.634 76.296 130.01 76.504C130.394 76.704 130.83 76.804 131.318 76.804C131.702 76.804 132.058 76.736 132.386 76.6C132.722 76.464 133.01 76.256 133.25 75.976L133.73 76.528C133.45 76.864 133.098 77.12 132.674 77.296C132.258 77.472 131.798 77.56 131.294 77.56ZM135.86 77.5V71.2H136.712V77.5H135.86ZM136.292 69.808C136.116 69.808 135.968 69.748 135.848 69.628C135.728 69.508 135.668 69.364 135.668 69.196C135.668 69.028 135.728 68.888 135.848 68.776C135.968 68.656 136.116 68.596 136.292 68.596C136.468 68.596 136.616 68.652 136.736 68.764C136.856 68.876 136.916 69.016 136.916 69.184C136.916 69.36 136.856 69.508 136.736 69.628C136.624 69.748 136.476 69.808 136.292 69.808ZM139.083 77.5V71.2H139.899V72.916L139.815 72.616C139.991 72.136 140.287 71.772 140.703 71.524C141.119 71.268 141.635 71.14 142.251 71.14V71.968C142.219 71.968 142.187 71.968 142.155 71.968C142.123 71.96 142.091 71.956 142.059 71.956C141.395 71.956 140.875 72.16 140.499 72.568C140.123 72.968 139.935 73.54 139.935 74.284V77.5H139.083ZM154.912 71.14C155.424 71.14 155.868 71.24 156.244 71.44C156.628 71.632 156.924 71.928 157.132 72.328C157.348 72.728 157.456 73.232 157.456 73.84V77.5H156.604V73.924C156.604 73.26 156.444 72.76 156.124 72.424C155.812 72.08 155.368 71.908 154.792 71.908C154.36 71.908 153.984 72 153.664 72.184C153.352 72.36 153.108 72.62 152.932 72.964C152.764 73.3 152.68 73.708 152.68 74.188V77.5H151.828V73.924C151.828 73.26 151.668 72.76 151.348 72.424C151.028 72.08 150.58 71.908 150.004 71.908C149.58 71.908 149.208 72 148.888 72.184C148.568 72.36 148.32 72.62 148.144 72.964C147.976 73.3 147.892 73.708 147.892 74.188V77.5H147.04V71.2H147.856V72.904L147.724 72.604C147.916 72.148 148.224 71.792 148.648 71.536C149.08 71.272 149.588 71.14 150.172 71.14C150.788 71.14 151.312 71.296 151.744 71.608C152.176 71.912 152.456 72.372 152.584 72.988L152.248 72.856C152.432 72.344 152.756 71.932 153.22 71.62C153.692 71.3 154.256 71.14 154.912 71.14ZM162.443 77.56C161.787 77.56 161.211 77.424 160.715 77.152C160.219 76.872 159.831 76.492 159.551 76.012C159.271 75.524 159.131 74.968 159.131 74.344C159.131 73.72 159.263 73.168 159.527 72.688C159.799 72.208 160.167 71.832 160.631 71.56C161.103 71.28 161.631 71.14 162.215 71.14C162.807 71.14 163.331 71.276 163.787 71.548C164.251 71.812 164.615 72.188 164.879 72.676C165.143 73.156 165.275 73.712 165.275 74.344C165.275 74.384 165.271 74.428 165.263 74.476C165.263 74.516 165.263 74.56 165.263 74.608H159.779V73.972H164.807L164.471 74.224C164.471 73.768 164.371 73.364 164.171 73.012C163.979 72.652 163.715 72.372 163.379 72.172C163.043 71.972 162.655 71.872 162.215 71.872C161.783 71.872 161.395 71.972 161.051 72.172C160.707 72.372 160.439 72.652 160.247 73.012C160.055 73.372 159.959 73.784 159.959 74.248V74.38C159.959 74.86 160.063 75.284 160.271 75.652C160.487 76.012 160.783 76.296 161.159 76.504C161.543 76.704 161.979 76.804 162.467 76.804C162.851 76.804 163.207 76.736 163.535 76.6C163.871 76.464 164.159 76.256 164.399 75.976L164.879 76.528C164.599 76.864 164.247 77.12 163.823 77.296C163.407 77.472 162.947 77.56 162.443 77.56ZM169.001 77.56C168.409 77.56 167.953 77.4 167.633 77.08C167.313 76.76 167.153 76.308 167.153 75.724V69.808H168.005V75.676C168.005 76.044 168.097 76.328 168.281 76.528C168.473 76.728 168.745 76.828 169.097 76.828C169.473 76.828 169.785 76.72 170.033 76.504L170.333 77.116C170.165 77.268 169.961 77.38 169.721 77.452C169.489 77.524 169.249 77.56 169.001 77.56ZM166.025 71.908V71.2H169.925V71.908H166.025ZM171.884 77.5V71.2H172.7V72.916L172.616 72.616C172.792 72.136 173.088 71.772 173.504 71.524C173.92 71.268 174.436 71.14 175.052 71.14V71.968C175.02 71.968 174.988 71.968 174.956 71.968C174.924 71.96 174.892 71.956 174.86 71.956C174.196 71.956 173.676 72.16 173.3 72.568C172.924 72.968 172.736 73.54 172.736 74.284V77.5H171.884ZM176.607 77.5V71.2H177.459V77.5H176.607ZM177.039 69.808C176.863 69.808 176.715 69.748 176.595 69.628C176.475 69.508 176.415 69.364 176.415 69.196C176.415 69.028 176.475 68.888 176.595 68.776C176.715 68.656 176.863 68.596 177.039 68.596C177.215 68.596 177.363 68.652 177.483 68.764C177.603 68.876 177.663 69.016 177.663 69.184C177.663 69.36 177.603 69.508 177.483 69.628C177.371 69.748 177.223 69.808 177.039 69.808ZM182.445 77.56C181.821 77.56 181.261 77.424 180.765 77.152C180.277 76.872 179.893 76.492 179.613 76.012C179.333 75.524 179.193 74.968 179.193 74.344C179.193 73.712 179.333 73.156 179.613 72.676C179.893 72.196 180.277 71.82 180.765 71.548C181.261 71.276 181.821 71.14 182.445 71.14C182.981 71.14 183.465 71.244 183.897 71.452C184.329 71.66 184.669 71.972 184.917 72.388L184.281 72.82C184.065 72.5 183.797 72.264 183.477 72.112C183.157 71.96 182.809 71.884 182.433 71.884C181.985 71.884 181.581 71.988 181.221 72.196C180.861 72.396 180.577 72.68 180.369 73.048C180.161 73.416 180.057 73.848 180.057 74.344C180.057 74.84 180.161 75.272 180.369 75.64C180.577 76.008 180.861 76.296 181.221 76.504C181.581 76.704 181.985 76.804 182.433 76.804C182.809 76.804 183.157 76.728 183.477 76.576C183.797 76.424 184.065 76.192 184.281 75.88L184.917 76.312C184.669 76.72 184.329 77.032 183.897 77.248C183.465 77.456 182.981 77.56 182.445 77.56ZM188.283 77.56C187.763 77.56 187.271 77.488 186.807 77.344C186.343 77.192 185.979 77.004 185.715 76.78L186.099 76.108C186.355 76.3 186.683 76.468 187.083 76.612C187.483 76.748 187.903 76.816 188.343 76.816C188.943 76.816 189.375 76.724 189.639 76.54C189.903 76.348 190.035 76.096 190.035 75.784C190.035 75.552 189.959 75.372 189.807 75.244C189.663 75.108 189.471 75.008 189.231 74.944C188.991 74.872 188.723 74.812 188.427 74.764C188.131 74.716 187.835 74.66 187.539 74.596C187.251 74.532 186.987 74.44 186.747 74.32C186.507 74.192 186.311 74.02 186.159 73.804C186.015 73.588 185.943 73.3 185.943 72.94C185.943 72.596 186.039 72.288 186.231 72.016C186.423 71.744 186.703 71.532 187.071 71.38C187.447 71.22 187.903 71.14 188.439 71.14C188.847 71.14 189.255 71.196 189.663 71.308C190.071 71.412 190.407 71.552 190.671 71.728L190.299 72.412C190.019 72.22 189.719 72.084 189.399 72.004C189.079 71.916 188.759 71.872 188.439 71.872C187.871 71.872 187.451 71.972 187.179 72.172C186.915 72.364 186.783 72.612 186.783 72.916C186.783 73.156 186.855 73.344 186.999 73.48C187.151 73.616 187.347 73.724 187.587 73.804C187.835 73.876 188.103 73.936 188.391 73.984C188.687 74.032 188.979 74.092 189.267 74.164C189.563 74.228 189.831 74.32 190.071 74.44C190.319 74.552 190.515 74.716 190.659 74.932C190.811 75.14 190.887 75.416 190.887 75.76C190.887 76.128 190.783 76.448 190.575 76.72C190.375 76.984 190.079 77.192 189.687 77.344C189.303 77.488 188.835 77.56 188.283 77.56ZM198.807 71.14C199.319 71.14 199.767 71.24 200.151 71.44C200.543 71.632 200.847 71.928 201.063 72.328C201.287 72.728 201.399 73.232 201.399 73.84V77.5H200.547V73.924C200.547 73.26 200.379 72.76 200.043 72.424C199.715 72.08 199.251 71.908 198.651 71.908C198.203 71.908 197.811 72 197.475 72.184C197.147 72.36 196.891 72.62 196.707 72.964C196.531 73.3 196.443 73.708 196.443 74.188V77.5H195.591V68.596H196.443V72.928L196.275 72.604C196.475 72.148 196.795 71.792 197.235 71.536C197.675 71.272 198.199 71.14 198.807 71.14ZM206.376 77.56C205.72 77.56 205.144 77.424 204.648 77.152C204.152 76.872 203.764 76.492 203.484 76.012C203.204 75.524 203.064 74.968 203.064 74.344C203.064 73.72 203.196 73.168 203.46 72.688C203.732 72.208 204.1 71.832 204.564 71.56C205.036 71.28 205.564 71.14 206.148 71.14C206.74 71.14 207.264 71.276 207.72 71.548C208.184 71.812 208.548 72.188 208.812 72.676C209.076 73.156 209.208 73.712 209.208 74.344C209.208 74.384 209.204 74.428 209.196 74.476C209.196 74.516 209.196 74.56 209.196 74.608H203.712V73.972H208.74L208.404 74.224C208.404 73.768 208.304 73.364 208.104 73.012C207.912 72.652 207.648 72.372 207.312 72.172C206.976 71.972 206.588 71.872 206.148 71.872C205.716 71.872 205.328 71.972 204.984 72.172C204.64 72.372 204.372 72.652 204.18 73.012C203.988 73.372 203.892 73.784 203.892 74.248V74.38C203.892 74.86 203.996 75.284 204.204 75.652C204.42 76.012 204.716 76.296 205.092 76.504C205.476 76.704 205.912 76.804 206.4 76.804C206.784 76.804 207.14 76.736 207.468 76.6C207.804 76.464 208.092 76.256 208.332 75.976L208.812 76.528C208.532 76.864 208.18 77.12 207.756 77.296C207.34 77.472 206.88 77.56 206.376 77.56ZM210.943 77.5V71.2H211.759V72.916L211.675 72.616C211.851 72.136 212.147 71.772 212.563 71.524C212.979 71.268 213.495 71.14 214.111 71.14V71.968C214.079 71.968 214.047 71.968 214.015 71.968C213.983 71.96 213.951 71.956 213.919 71.956C213.255 71.956 212.735 72.16 212.359 72.568C211.983 72.968 211.795 73.54 211.795 74.284V77.5H210.943ZM218.283 77.56C217.627 77.56 217.051 77.424 216.555 77.152C216.059 76.872 215.671 76.492 215.391 76.012C215.111 75.524 214.971 74.968 214.971 74.344C214.971 73.72 215.103 73.168 215.367 72.688C215.639 72.208 216.007 71.832 216.471 71.56C216.943 71.28 217.471 71.14 218.055 71.14C218.647 71.14 219.171 71.276 219.627 71.548C220.091 71.812 220.455 72.188 220.719 72.676C220.983 73.156 221.115 73.712 221.115 74.344C221.115 74.384 221.111 74.428 221.103 74.476C221.103 74.516 221.103 74.56 221.103 74.608H215.619V73.972H220.647L220.311 74.224C220.311 73.768 220.211 73.364 220.011 73.012C219.819 72.652 219.555 72.372 219.219 72.172C218.883 71.972 218.495 71.872 218.055 71.872C217.623 71.872 217.235 71.972 216.891 72.172C216.547 72.372 216.279 72.652 216.087 73.012C215.895 73.372 215.799 73.784 215.799 74.248V74.38C215.799 74.86 215.903 75.284 216.111 75.652C216.327 76.012 216.623 76.296 216.999 76.504C217.383 76.704 217.819 76.804 218.307 76.804C218.691 76.804 219.047 76.736 219.375 76.6C219.711 76.464 219.999 76.256 220.239 75.976L220.719 76.528C220.439 76.864 220.087 77.12 219.663 77.296C219.247 77.472 218.787 77.56 218.283 77.56ZM222.933 77.56C222.757 77.56 222.605 77.496 222.477 77.368C222.357 77.24 222.297 77.084 222.297 76.9C222.297 76.708 222.357 76.552 222.477 76.432C222.605 76.312 222.757 76.252 222.933 76.252C223.109 76.252 223.257 76.312 223.377 76.432C223.505 76.552 223.569 76.708 223.569 76.9C223.569 77.084 223.505 77.24 223.377 77.368C223.257 77.496 223.109 77.56 222.933 77.56Z" fill="#2D3439"/>
<defs>
<clipPath id="clip0_2716_9233">
<rect width="102.446" height="100" fill="white"/>
</clipPath>
</defs>
</svg>
