<svg width="12" height="10" viewBox="0 0 12 10" fill="none" xmlns="http://www.w3.org/2000/svg">
<path d="M10.625 4.99995H4.4475M2.267 4.99995H1.375M2.267 4.99995C2.267 4.71086 2.38184 4.43361 2.58625 4.2292C2.79067 4.02478 3.06791 3.90995 3.357 3.90995C3.64609 3.90995 3.92333 4.02478 4.12775 4.2292C4.33216 4.43361 4.447 4.71086 4.447 4.99995C4.447 5.28903 4.33216 5.56628 4.12775 5.77069C3.92333 5.97511 3.64609 6.08995 3.357 6.08995C3.06791 6.08995 2.79067 5.97511 2.58625 5.77069C2.38184 5.56628 2.267 5.28903 2.267 4.99995ZM10.625 8.30345H7.751M7.751 8.30345C7.751 8.5926 7.63588 8.87016 7.43142 9.07462C7.22696 9.27908 6.94965 9.39395 6.6605 9.39395C6.37141 9.39395 6.09417 9.27861 5.88975 9.07419C5.68534 8.86978 5.5705 8.59253 5.5705 8.30345M7.751 8.30345C7.751 8.01429 7.63588 7.73723 7.43142 7.53277C7.22696 7.32831 6.94965 7.21345 6.6605 7.21345C6.37141 7.21345 6.09417 7.32828 5.88975 7.5327C5.68534 7.73711 5.5705 8.01436 5.5705 8.30345M5.5705 8.30345H1.375M10.625 1.69645H9.0725M6.892 1.69645H1.375M6.892 1.69645C6.892 1.40736 7.00684 1.13011 7.21125 0.925699C7.41567 0.721284 7.69291 0.606445 7.982 0.606445C8.12514 0.606445 8.26688 0.634639 8.39913 0.689417C8.53137 0.744194 8.65153 0.824483 8.75275 0.925699C8.85396 1.02691 8.93425 1.14708 8.98903 1.27932C9.04381 1.41157 9.072 1.5533 9.072 1.69645C9.072 1.83959 9.04381 1.98133 8.98903 2.11357C8.93425 2.24582 8.85396 2.36598 8.75275 2.46719C8.65153 2.56841 8.53137 2.6487 8.39913 2.70347C8.26688 2.75825 8.12514 2.78645 7.982 2.78645C7.69291 2.78645 7.41567 2.67161 7.21125 2.46719C7.00684 2.26278 6.892 1.98553 6.892 1.69645Z" stroke="#5B6C78" stroke-miterlimit="10" stroke-linecap="round"/>
</svg>
