<svg width="328" height="56" viewBox="0 0 328 56" fill="none" xmlns="http://www.w3.org/2000/svg">
<rect x="1" y="1" width="326" height="54" rx="7" stroke="#C80D0D" stroke-width="2"/>
<path d="M22.848 34V32.144L22.8 31.84V28.736C22.8 28.0213 22.5973 27.472 22.192 27.088C21.7973 26.704 21.2053 26.512 20.416 26.512C19.872 26.512 19.3547 26.6027 18.864 26.784C18.3733 26.9653 17.9573 27.2053 17.616 27.504L17.104 26.656C17.5307 26.2933 18.0427 26.016 18.64 25.824C19.2373 25.6213 19.8667 25.52 20.528 25.52C21.616 25.52 22.4533 25.792 23.04 26.336C23.6373 26.8693 23.936 27.6853 23.936 28.784V34H22.848ZM19.952 34.08C19.3227 34.08 18.7733 33.9787 18.304 33.776C17.8453 33.5627 17.4933 33.2747 17.248 32.912C17.0027 32.5387 16.88 32.112 16.88 31.632C16.88 31.1947 16.9813 30.8 17.184 30.448C17.3973 30.0853 17.7387 29.7973 18.208 29.584C18.688 29.36 19.328 29.248 20.128 29.248H23.024V30.096H20.16C19.3493 30.096 18.784 30.24 18.464 30.528C18.1547 30.816 18 31.1733 18 31.6C18 32.08 18.1867 32.464 18.56 32.752C18.9333 33.04 19.456 33.184 20.128 33.184C20.768 33.184 21.3173 33.04 21.776 32.752C22.2453 32.4533 22.5867 32.0267 22.8 31.472L23.056 32.256C22.8427 32.8107 22.4693 33.2533 21.936 33.584C21.4133 33.9147 20.752 34.08 19.952 34.08ZM29.2775 34.08C28.5842 34.08 27.9282 33.984 27.3095 33.792C26.6908 33.5893 26.2055 33.3387 25.8535 33.04L26.3655 32.144C26.7068 32.4 27.1442 32.624 27.6775 32.816C28.2108 32.9973 28.7708 33.088 29.3575 33.088C30.1575 33.088 30.7335 32.9653 31.0855 32.72C31.4375 32.464 31.6135 32.128 31.6135 31.712C31.6135 31.4027 31.5122 31.1627 31.3095 30.992C31.1175 30.8107 30.8615 30.6773 30.5415 30.592C30.2215 30.496 29.8642 30.416 29.4695 30.352C29.0748 30.288 28.6802 30.2133 28.2855 30.128C27.9015 30.0427 27.5495 29.92 27.2295 29.76C26.9095 29.5893 26.6482 29.36 26.4455 29.072C26.2535 28.784 26.1575 28.4 26.1575 27.92C26.1575 27.4613 26.2855 27.0507 26.5415 26.688C26.7975 26.3253 27.1708 26.0427 27.6615 25.84C28.1628 25.6267 28.7708 25.52 29.4855 25.52C30.0295 25.52 30.5735 25.5947 31.1175 25.744C31.6615 25.8827 32.1095 26.0693 32.4615 26.304L31.9655 27.216C31.5922 26.96 31.1922 26.7787 30.7655 26.672C30.3388 26.5547 29.9122 26.496 29.4855 26.496C28.7282 26.496 28.1682 26.6293 27.8055 26.896C27.4535 27.152 27.2775 27.4827 27.2775 27.888C27.2775 28.208 27.3735 28.4587 27.5655 28.64C27.7682 28.8213 28.0295 28.9653 28.3495 29.072C28.6802 29.168 29.0375 29.248 29.4215 29.312C29.8162 29.376 30.2055 29.456 30.5895 29.552C30.9842 29.6373 31.3415 29.76 31.6615 29.92C31.9922 30.0693 32.2535 30.288 32.4455 30.576C32.6482 30.8533 32.7495 31.2213 32.7495 31.68C32.7495 32.1707 32.6108 32.5973 32.3335 32.96C32.0668 33.312 31.6722 33.5893 31.1495 33.792C30.6375 33.984 30.0135 34.08 29.2775 34.08ZM38.322 34.08C37.49 34.08 36.7433 33.8987 36.082 33.536C35.4313 33.1627 34.9193 32.656 34.546 32.016C34.1727 31.3653 33.986 30.624 33.986 29.792C33.986 28.9493 34.1727 28.208 34.546 27.568C34.9193 26.928 35.4313 26.4267 36.082 26.064C36.7433 25.7013 37.49 25.52 38.322 25.52C39.0367 25.52 39.682 25.6587 40.258 25.936C40.834 26.2133 41.2873 26.6293 41.618 27.184L40.77 27.76C40.482 27.3333 40.1247 27.0187 39.698 26.816C39.2713 26.6133 38.8073 26.512 38.306 26.512C37.7087 26.512 37.17 26.6507 36.69 26.928C36.21 27.1947 35.8313 27.5733 35.554 28.064C35.2767 28.5547 35.138 29.1307 35.138 29.792C35.138 30.4533 35.2767 31.0293 35.554 31.52C35.8313 32.0107 36.21 32.3947 36.69 32.672C37.17 32.9387 37.7087 33.072 38.306 33.072C38.8073 33.072 39.2713 32.9707 39.698 32.768C40.1247 32.5653 40.482 32.256 40.77 31.84L41.618 32.416C41.2873 32.96 40.834 33.376 40.258 33.664C39.682 33.9413 39.0367 34.08 38.322 34.08ZM47.293 37.184C46.525 37.184 45.789 37.072 45.085 36.848C44.381 36.624 43.8103 36.304 43.373 35.888L43.949 35.024C44.3437 35.376 44.829 35.6533 45.405 35.856C45.9917 36.0693 46.6103 36.176 47.261 36.176C48.3277 36.176 49.1117 35.9253 49.613 35.424C50.1143 34.9333 50.365 34.1653 50.365 33.12V31.024L50.525 29.584L50.413 28.144V25.6H51.501V32.976C51.501 34.4267 51.1437 35.488 50.429 36.16C49.725 36.8427 48.6797 37.184 47.293 37.184ZM47.085 33.68C46.285 33.68 45.565 33.5093 44.925 33.168C44.285 32.816 43.7783 32.3307 43.405 31.712C43.0423 31.0933 42.861 30.384 42.861 29.584C42.861 28.784 43.0423 28.08 43.405 27.472C43.7783 26.8533 44.285 26.3733 44.925 26.032C45.565 25.6907 46.285 25.52 47.085 25.52C47.8317 25.52 48.5037 25.6747 49.101 25.984C49.6983 26.2933 50.173 26.752 50.525 27.36C50.877 27.968 51.053 28.7093 51.053 29.584C51.053 30.4587 50.877 31.2 50.525 31.808C50.173 32.416 49.6983 32.88 49.101 33.2C48.5037 33.52 47.8317 33.68 47.085 33.68ZM47.197 32.672C47.8157 32.672 48.365 32.544 48.845 32.288C49.325 32.0213 49.7037 31.6587 49.981 31.2C50.2583 30.7307 50.397 30.192 50.397 29.584C50.397 28.976 50.2583 28.4427 49.981 27.984C49.7037 27.5253 49.325 27.168 48.845 26.912C48.365 26.6453 47.8157 26.512 47.197 26.512C46.589 26.512 46.0397 26.6453 45.549 26.912C45.069 27.168 44.6903 27.5253 44.413 27.984C44.1463 28.4427 44.013 28.976 44.013 29.584C44.013 30.192 44.1463 30.7307 44.413 31.2C44.6903 31.6587 45.069 32.0213 45.549 32.288C46.0397 32.544 46.589 32.672 47.197 32.672ZM61.3181 37.2C60.2195 37.2 59.2168 37.0187 58.3101 36.656C57.4035 36.304 56.6195 35.8027 55.9581 35.152C55.3075 34.512 54.8008 33.7493 54.4381 32.864C54.0861 31.968 53.9101 30.992 53.9101 29.936C53.9101 28.8693 54.0861 27.8987 54.4381 27.024C54.8008 26.1387 55.3128 25.376 55.9741 24.736C56.6461 24.0853 57.4408 23.584 58.3581 23.232C59.2755 22.88 60.2835 22.704 61.3821 22.704C62.4701 22.704 63.4621 22.8747 64.3581 23.216C65.2648 23.5573 66.0488 24.0427 66.7101 24.672C67.3715 25.2907 67.8781 26.032 68.2301 26.896C68.5928 27.76 68.7741 28.7147 68.7741 29.76C68.7741 30.656 68.6675 31.4293 68.4541 32.08C68.2515 32.72 67.9528 33.216 67.5581 33.568C67.1635 33.9093 66.6888 34.08 66.1341 34.08C65.5901 34.08 65.1528 33.9147 64.8221 33.584C64.4915 33.2533 64.3261 32.7893 64.3261 32.192V30.928L64.4541 29.904L64.2941 28.304V25.888H65.3341V31.952C65.3341 32.4 65.4301 32.7147 65.6221 32.896C65.8141 33.0773 66.0488 33.168 66.3261 33.168C66.6568 33.168 66.9448 33.0347 67.1901 32.768C67.4355 32.5013 67.6221 32.1173 67.7501 31.616C67.8888 31.104 67.9581 30.4907 67.9581 29.776C67.9581 28.8373 67.7981 27.984 67.4781 27.216C67.1581 26.448 66.7048 25.7867 66.1181 25.232C65.5315 24.6773 64.8381 24.256 64.0381 23.968C63.2381 23.6693 62.3528 23.52 61.3821 23.52C60.4115 23.52 59.5208 23.6747 58.7101 23.984C57.8995 24.2933 57.2008 24.736 56.6141 25.312C56.0381 25.8773 55.5901 26.5547 55.2701 27.344C54.9501 28.1227 54.7901 28.9867 54.7901 29.936C54.7901 30.8853 54.9448 31.7547 55.2541 32.544C55.5741 33.3333 56.0221 34.0107 56.5981 34.576C57.1741 35.152 57.8621 35.5947 58.6621 35.904C59.4621 36.224 60.3475 36.384 61.3181 36.384C61.7981 36.384 62.3101 36.3253 62.8541 36.208C63.4088 36.0907 63.9208 35.9147 64.3901 35.68L64.6621 36.464C64.1821 36.7093 63.6381 36.8907 63.0301 37.008C62.4221 37.136 61.8515 37.2 61.3181 37.2ZM61.1261 34.08C60.3688 34.08 59.6915 33.904 59.0941 33.552C58.4968 33.1893 58.0221 32.6987 57.6701 32.08C57.3288 31.4507 57.1581 30.736 57.1581 29.936C57.1581 29.136 57.3288 28.4267 57.6701 27.808C58.0221 27.1893 58.4968 26.704 59.0941 26.352C59.6915 26 60.3688 25.824 61.1261 25.824C61.8621 25.824 62.5128 25.9893 63.0781 26.32C63.6541 26.6507 64.1021 27.1253 64.4221 27.744C64.7528 28.352 64.9181 29.0827 64.9181 29.936C64.9181 30.7893 64.7528 31.5253 64.4221 32.144C64.1021 32.7627 63.6595 33.2427 63.0941 33.584C62.5288 33.9147 61.8728 34.08 61.1261 34.08ZM61.2701 33.152C61.8461 33.152 62.3635 33.0187 62.8221 32.752C63.2915 32.4853 63.6541 32.112 63.9101 31.632C64.1768 31.1413 64.3101 30.576 64.3101 29.936C64.3101 29.2853 64.1768 28.7253 63.9101 28.256C63.6541 27.776 63.2915 27.408 62.8221 27.152C62.3635 26.8853 61.8461 26.752 61.2701 26.752C60.6728 26.752 60.1448 26.8853 59.6861 27.152C59.2275 27.408 58.8648 27.776 58.5981 28.256C58.3421 28.736 58.2141 29.296 58.2141 29.936C58.2141 30.576 58.3421 31.136 58.5981 31.616C58.8648 32.096 59.2275 32.4747 59.6861 32.752C60.1448 33.0187 60.6728 33.152 61.2701 33.152ZM71.2414 30.64L71.0174 22.8H72.3614L72.1214 30.64H71.2414ZM71.6894 34.08C71.4547 34.08 71.252 34 71.0814 33.84C70.9214 33.6693 70.8414 33.472 70.8414 33.248C70.8414 33.0133 70.9214 32.8213 71.0814 32.672C71.252 32.512 71.4547 32.432 71.6894 32.432C71.9347 32.432 72.132 32.512 72.2814 32.672C72.4414 32.8213 72.5214 33.0133 72.5214 33.248C72.5214 33.472 72.4414 33.6693 72.2814 33.84C72.132 34 71.9347 34.08 71.6894 34.08ZM75.3976 30.64L75.1736 22.8H76.5176L76.2776 30.64H75.3976ZM75.8456 34.08C75.611 34.08 75.4083 34 75.2376 33.84C75.0776 33.6693 74.9976 33.472 74.9976 33.248C74.9976 33.0133 75.0776 32.8213 75.2376 32.672C75.4083 32.512 75.611 32.432 75.8456 32.432C76.091 32.432 76.2883 32.512 76.4376 32.672C76.5976 32.8213 76.6776 33.0133 76.6776 33.248C76.6776 33.472 76.5976 33.6693 76.4376 33.84C76.2883 34 76.091 34.08 75.8456 34.08ZM84.4499 34L85.8259 22.8H86.6899L85.3139 34H84.4499ZM78.3859 30.96V30.08H88.0659V30.96H78.3859ZM80.2899 34L81.6659 22.8H82.5459L81.1539 34H80.2899ZM78.8979 26.72V25.84H88.5779V26.72H78.8979ZM90.8865 37.104V22.128H91.9425V37.104H90.8865Z" fill="#2D3439"/>
<path d="M300 33C300.283 33 300.521 32.904 300.713 32.712C300.905 32.52 301.001 32.2827 301 32C300.999 31.7173 300.903 31.48 300.712 31.288C300.521 31.096 300.283 31 300 31C299.717 31 299.479 31.096 299.288 31.288C299.097 31.48 299.001 31.7173 299 32C298.999 32.2827 299.095 32.5203 299.288 32.713C299.481 32.9057 299.718 33.0013 300 33ZM299 29H301V23H299V29ZM300 38C298.617 38 297.317 37.7373 296.1 37.212C294.883 36.6867 293.825 35.9743 292.925 35.075C292.025 34.1757 291.313 33.1173 290.788 31.9C290.263 30.6827 290.001 29.3827 290 28C289.999 26.6173 290.262 25.3173 290.788 24.1C291.314 22.8827 292.026 21.8243 292.925 20.925C293.824 20.0257 294.882 19.3133 296.1 18.788C297.318 18.2627 298.618 18 300 18C301.382 18 302.682 18.2627 303.9 18.788C305.118 19.3133 306.176 20.0257 307.075 20.925C307.974 21.8243 308.686 22.8827 309.213 24.1C309.74 25.3173 310.002 26.6173 310 28C309.998 29.3827 309.735 30.6827 309.212 31.9C308.689 33.1173 307.976 34.1757 307.075 35.075C306.174 35.9743 305.115 36.687 303.9 37.213C302.685 37.739 301.385 38.0013 300 38Z" fill="#C80D0D"/>
</svg>
