<svg width="207" height="203" viewBox="0 0 207 203" fill="none" xmlns="http://www.w3.org/2000/svg">
<path d="M206.576 136.207H127.608V90.5095H206.576V136.207ZM128.09 135.725H206.094V90.9914H128.09V135.725Z" fill="#E0E0E0"/>
<path d="M190.285 114.876H138.184V116.403H190.285V114.876Z" fill="#F0F0F0"/>
<path d="M193.875 120.571H138.184V122.238H193.875V120.571Z" fill="#F0F0F0"/>
<path d="M193.875 126.334H138.184V128.001H193.875V126.334Z" fill="#F0F0F0"/>
<path d="M156.393 106.603H138.184V110.568H156.393V106.603Z" fill="#F0F0F0"/>
<path d="M206.335 90.7505H127.863V98.0262H206.335V90.7505Z" fill="#E0E0E0"/>
<path d="M200.298 96.9372C200.196 96.8409 201.208 95.6218 202.553 94.2149C203.897 92.8079 205.077 91.743 205.174 91.8346C205.27 91.9261 204.263 93.15 202.919 94.5618C201.574 95.9736 200.394 97.0336 200.298 96.9372Z" fill="white"/>
<path d="M205.183 96.9371C205.087 97.0335 203.911 95.9734 202.562 94.5617C201.213 93.1499 200.206 91.9308 200.307 91.8345C200.408 91.7381 201.579 92.7981 202.928 94.2147C204.278 95.6313 205.275 96.8407 205.183 96.9371Z" fill="white"/>
<path d="M109.404 0.256592H30.9321V45.477H109.404V0.256592Z" fill="#E6E6E6"/>
<path d="M93.3588 24.387H41.2578V25.9144H93.3588V24.387Z" fill="#F0F0F0"/>
<path d="M96.9485 30.0823H41.2578V31.7494H96.9485V30.0823Z" fill="#F0F0F0"/>
<path d="M96.9485 35.845H41.2578V37.5121H96.9485V35.845Z" fill="#F0F0F0"/>
<path d="M59.4664 16.1138H41.2578V20.0793H59.4664V16.1138Z" fill="#F0F0F0"/>
<path d="M109.404 0.256592H30.9321V7.53233H109.404V0.256592Z" fill="#E0E0E0"/>
<path d="M103.102 6.40956C103.001 6.31801 104.012 5.09414 105.357 3.68718C106.701 2.28021 107.882 1.21535 107.978 1.31172C108.074 1.40809 107.067 2.62714 105.723 4.0341C104.379 5.44106 103.198 6.49629 103.102 6.40956Z" fill="white"/>
<path d="M107.978 6.40958C107.882 6.50595 106.706 5.44591 105.357 4.03412C104.008 2.62234 103.001 1.40811 103.102 1.31175C103.203 1.21538 104.374 2.27542 105.723 3.6872C107.072 5.09898 108.079 6.31803 107.978 6.40958Z" fill="white"/>
<path d="M79.6843 84.2601H0.730469V38.5579H79.6843V84.2601ZM1.21231 83.7783H79.2024V39.0397H1.21231V83.7783Z" fill="#E0E0E0"/>
<path d="M63.3984 62.9292H11.2974V64.4566H63.3984V62.9292Z" fill="#F0F0F0"/>
<path d="M66.9881 68.6245H11.2974V70.2917H66.9881V68.6245Z" fill="#F0F0F0"/>
<path d="M66.9881 74.3872H11.2974V76.0544H66.9881V74.3872Z" fill="#F0F0F0"/>
<path d="M29.506 54.656H11.2974V58.6215H29.506V54.656Z" fill="#F0F0F0"/>
<path d="M79.4432 38.7988H0.971191V46.0746H79.4432V38.7988Z" fill="#E0E0E0"/>
<path d="M170.805 94.7305H78.1475V177.684H170.805V94.7305Z" fill="#E6E6E6"/>
<path d="M82.8066 68.6003H10.2227V144.013H82.8066V68.6003Z" fill="#F0F0F0"/>
<path d="M82.8066 68.6003H10.2227V76.8157H82.8066V68.6003Z" fill="#E0E0E0"/>
<path d="M16.2166 72.6238C16.2034 72.9217 16.103 73.2091 15.9278 73.4505C15.7527 73.6919 15.5105 73.8765 15.2314 73.9815C14.9523 74.0864 14.6485 74.1071 14.3577 74.041C14.0669 73.9748 13.802 73.8247 13.5957 73.6094C13.3895 73.394 13.251 73.1228 13.1975 72.8294C13.1441 72.536 13.1779 72.2334 13.2949 71.9591C13.4118 71.6848 13.6068 71.4509 13.8555 71.2864C14.1042 71.1218 14.3958 71.034 14.694 71.0337C15.1063 71.0438 15.498 71.2167 15.7833 71.5146C16.0685 71.8126 16.2243 72.2113 16.2166 72.6238Z" fill="white"/>
<path d="M22.3988 72.6238C22.3865 72.9231 22.2865 73.2122 22.1111 73.4551C21.9358 73.698 21.6929 73.884 21.4126 73.9899C21.1324 74.0958 20.8272 74.117 20.5351 74.0508C20.2429 73.9846 19.9766 73.8339 19.7694 73.6175C19.5622 73.4011 19.4233 73.1286 19.3698 72.8338C19.3163 72.5391 19.3506 72.2351 19.4686 71.9597C19.5865 71.6843 19.7829 71.4497 20.0332 71.2851C20.2834 71.1204 20.5766 71.033 20.8762 71.0337C21.2886 71.0438 21.6802 71.2167 21.9655 71.5147C22.2508 71.8126 22.4065 72.2113 22.3988 72.6238Z" fill="white"/>
<path d="M28.5804 72.6238C28.5681 72.9231 28.4681 73.2122 28.2928 73.4551C28.1174 73.698 27.8745 73.884 27.5943 73.9899C27.3141 74.0958 27.0089 74.117 26.7167 74.0508C26.4245 73.9846 26.1583 73.8339 25.9511 73.6175C25.7439 73.4011 25.6049 73.1286 25.5514 72.8338C25.4979 72.5391 25.5323 72.2351 25.6502 71.9597C25.7682 71.6843 25.9645 71.4497 26.2148 71.2851C26.4651 71.1204 26.7582 71.033 27.0578 71.0337C27.4702 71.0438 27.8618 71.2167 28.1471 71.5147C28.4324 71.8126 28.5882 72.2113 28.5804 72.6238Z" fill="white"/>
<path d="M196.212 16.7498H103.555V109.099H196.212V16.7498Z" fill="#F0F0F0"/>
<path d="M196.212 16.7498H103.555V27.567H196.212V16.7498Z" fill="#E0E0E0"/>
<path d="M111.447 22.0501C111.43 22.4433 111.298 22.8229 111.067 23.1418C110.836 23.4606 110.517 23.7046 110.148 23.8434C109.78 23.9823 109.379 24.0099 108.995 23.9229C108.611 23.8358 108.261 23.6379 107.989 23.3538C107.717 23.0696 107.534 22.7117 107.463 22.3245C107.392 21.9373 107.437 21.5379 107.591 21.1757C107.745 20.8136 108.003 20.5048 108.331 20.2876C108.659 20.0704 109.044 19.9545 109.438 19.9541C109.982 19.9667 110.498 20.1944 110.875 20.5872C111.252 20.98 111.457 21.506 111.447 22.0501Z" fill="white"/>
<path d="M118.998 20.6335C119.265 20.9236 119.441 21.2859 119.503 21.6752C119.566 22.0645 119.513 22.4637 119.35 22.823C119.187 23.1822 118.923 23.4857 118.589 23.6956C118.255 23.9055 117.867 24.0125 117.473 24.0033C117.078 23.9941 116.696 23.8691 116.372 23.6439C116.048 23.4186 115.798 23.1031 115.652 22.7367C115.507 22.3702 115.472 21.969 115.553 21.583C115.634 21.197 115.826 20.8434 116.107 20.5661C116.499 20.1924 117.024 19.9896 117.566 20.0023C118.108 20.0149 118.623 20.2419 118.998 20.6335Z" fill="white"/>
<path d="M127.723 22.0501C127.706 22.4433 127.574 22.8229 127.343 23.1418C127.112 23.4606 126.793 23.7046 126.425 23.8434C126.056 23.9823 125.655 24.0099 125.271 23.9229C124.888 23.8358 124.538 23.6379 124.265 23.3538C123.993 23.0696 123.81 22.7117 123.739 22.3245C123.669 21.9373 123.713 21.5379 123.867 21.1757C124.022 20.8136 124.279 20.5048 124.607 20.2876C124.935 20.0704 125.32 19.9545 125.714 19.9541C126.258 19.9667 126.775 20.1944 127.151 20.5872C127.528 20.98 127.734 21.506 127.723 22.0501Z" fill="white"/>
<path d="M176.196 202.185C176.196 202.252 142.737 202.31 101.478 202.31C60.2179 202.31 26.7446 202.252 26.7446 202.185C26.7446 202.117 60.1986 202.06 101.478 202.06C142.757 202.06 176.196 202.122 176.196 202.185Z" fill="#263238"/>
<path d="M143.595 143.198C136.151 137.999 134.464 128.348 134.758 119.67C134.807 118.225 134.648 116.692 135.337 115.425C136.026 114.158 137.635 113.286 138.931 113.893C140.006 114.399 140.473 115.652 141.075 116.688C141.879 118.067 143.057 119.192 144.472 119.93C145.393 120.412 146.534 120.701 147.445 120.2C148.698 119.511 148.842 117.791 148.833 116.346C148.833 113.657 148.817 110.971 148.785 108.289C148.698 106.849 148.844 105.404 149.218 104.011C149.666 102.642 150.664 101.375 152.027 100.989C153.391 100.604 155.092 101.399 155.4 102.806C155.453 103.402 155.468 104.001 155.444 104.598C155.482 105.201 155.762 105.861 156.325 106.044C156.889 106.227 157.477 105.808 157.911 105.384C159.395 103.938 160.407 102.054 161.346 100.194C162.286 98.3345 163.206 96.4216 164.555 94.8363C165.904 93.2511 167.769 91.9935 169.855 91.873C171.942 91.7526 174.115 93.0343 174.635 95.058C175.156 97.0817 173.975 99.1488 172.708 100.792C170.796 103.231 168.541 105.381 166.015 107.176C165.522 107.445 165.128 107.866 164.892 108.376C164.579 109.34 165.49 110.303 166.439 110.607C167.514 110.963 168.68 110.853 169.812 110.988C170.944 111.122 172.149 111.614 172.578 112.674C173.166 114.148 171.932 115.69 170.723 116.702C168.294 118.726 165.537 120.318 162.57 121.41C161.51 121.795 160.397 122.137 159.539 122.879C158.682 123.621 158.171 124.917 158.686 125.934C159.202 126.951 160.527 127.274 161.64 127.066C162.753 126.859 163.741 126.262 164.801 125.862C166.781 125.115 169.335 125.25 170.583 126.96C170.97 127.55 171.214 128.221 171.298 128.92C171.382 129.62 171.302 130.33 171.065 130.993C170.583 132.314 169.84 133.525 168.882 134.554C165.726 138.325 161.626 141.19 157 142.856C152.408 144.446 148.153 144.88 143.59 143.208" fill="#8094D4"/>
<path d="M172.515 93.0632C172.515 93.0632 172.472 93.1114 172.375 93.1981L171.947 93.5788C171.571 93.9161 171.017 94.4076 170.318 95.058C168.337 96.8973 166.498 98.8833 164.815 100.999C163.741 102.334 162.628 103.847 161.443 105.49C160.257 107.133 159.033 108.906 157.819 110.79C156.525 112.777 155.339 114.832 154.268 116.948C153.709 118.051 153.218 119.203 152.712 120.379L151.218 123.968C149.249 128.49 147.534 133.118 146.082 137.831C144.911 141.687 144.105 145.644 143.672 149.65C143.392 152.354 143.347 155.077 143.537 157.788C143.615 158.752 143.687 159.489 143.754 159.99C143.783 160.231 143.802 160.424 143.822 160.564V160.761C143.801 160.699 143.787 160.634 143.778 160.569C143.754 160.429 143.725 160.241 143.687 160C143.6 159.518 143.509 158.757 143.422 157.793C143.189 155.077 143.206 152.345 143.47 149.631C143.876 145.607 144.665 141.632 145.826 137.758C147.267 133.032 148.977 128.393 150.948 123.862L152.48 120.287C152.986 119.116 153.483 117.955 154.046 116.847C155.125 114.725 156.32 112.664 157.626 110.674C158.86 108.747 160.103 107.003 161.274 105.374C162.445 103.746 163.577 102.223 164.647 100.893C166.346 98.7828 168.21 96.8108 170.222 94.9954C170.935 94.3546 171.503 93.8727 171.889 93.5499L172.337 93.1885C172.392 93.1407 172.452 93.0987 172.515 93.0632Z" fill="#263238"/>
<path d="M154.109 116.837C154.041 116.639 153.994 116.434 153.969 116.225C153.892 115.825 153.806 115.262 153.704 114.529C153.497 113.084 153.285 111.103 153.059 108.911C152.832 106.719 152.577 104.733 152.365 103.302C152.254 102.589 152.158 102.016 152.09 101.616C152.038 101.411 152.01 101.201 152.008 100.99C152.091 101.183 152.151 101.385 152.187 101.592C152.293 101.987 152.413 102.555 152.548 103.273C152.823 104.719 153.092 106.685 153.319 108.882C153.545 111.079 153.738 113.007 153.887 114.505C153.96 115.18 154.022 115.753 154.071 116.211C154.108 116.417 154.121 116.628 154.109 116.837Z" fill="#263238"/>
<path d="M172.65 113.377C172.415 113.428 172.177 113.457 171.937 113.464C171.455 113.507 170.771 113.565 169.923 113.662C168.227 113.845 165.895 114.182 163.336 114.664C160.777 115.146 158.479 115.69 156.826 116.109C156.002 116.321 155.337 116.514 154.899 116.644C154.665 116.727 154.423 116.786 154.176 116.818C154.399 116.706 154.631 116.614 154.87 116.543C155.323 116.384 155.978 116.162 156.797 115.926C158.441 115.444 160.739 114.871 163.307 114.38C165.483 113.964 167.678 113.658 169.884 113.464C170.737 113.392 171.426 113.363 171.908 113.353C172.155 113.336 172.404 113.345 172.65 113.377Z" fill="#263238"/>
<path d="M146.062 137.421C146.011 137.351 145.969 137.275 145.937 137.195L145.619 136.525C145.344 135.942 144.973 135.079 144.53 134.024C143.634 131.904 142.492 128.936 141.278 125.64C140.063 122.344 138.946 119.376 138.098 117.232C137.683 116.191 137.341 115.339 137.086 114.703L136.816 114.014C136.778 113.934 136.753 113.85 136.739 113.763C136.79 113.833 136.832 113.909 136.864 113.989L137.182 114.659C137.452 115.242 137.828 116.105 138.271 117.16C139.167 119.28 140.309 122.248 141.523 125.544C142.738 128.84 143.856 131.808 144.704 133.952C145.118 134.993 145.46 135.846 145.711 136.482C145.821 136.756 145.913 136.963 145.985 137.171C146.023 137.25 146.049 137.334 146.062 137.421Z" fill="#263238"/>
<path d="M170.675 129.485C170.598 129.53 170.515 129.564 170.429 129.587L169.716 129.827L167.08 130.68C164.854 131.403 161.78 132.434 158.407 133.571C155.034 134.708 151.946 135.72 149.705 136.395C148.587 136.737 147.677 136.997 147.045 137.171L146.318 137.359C146.233 137.385 146.146 137.403 146.058 137.412C146.135 137.367 146.217 137.333 146.303 137.31L147.016 137.069L149.652 136.217C151.878 135.494 154.952 134.463 158.325 133.326C161.698 132.188 164.782 131.177 167.022 130.502C168.145 130.16 169.051 129.9 169.687 129.726L170.414 129.538C170.499 129.511 170.586 129.494 170.675 129.485Z" fill="#263238"/>
<path d="M160.633 12.6062L158.151 13.4927L157.086 10.25C155.13 4.27037 148.895 1.09506 143.166 3.11396C137.437 5.13286 134.387 11.6907 136.343 17.6703L137.408 20.913L134.917 21.8044C133.967 22.1729 133.196 22.8932 132.763 23.8157C132.331 24.7382 132.27 25.7918 132.595 26.7577L139.499 47.8573C139.643 48.3355 139.881 48.7799 140.199 49.1643C140.518 49.5486 140.91 49.8651 141.353 50.0947C141.796 50.3244 142.281 50.4627 142.779 50.5013C143.277 50.5399 143.777 50.4781 144.25 50.3195L169.966 41.1213C170.928 40.7535 171.711 40.0268 172.148 39.094C172.586 38.1612 172.645 37.0951 172.312 36.1198L165.403 15.0202C165.256 14.5434 165.014 14.1011 164.693 13.7197C164.371 13.3383 163.976 13.0256 163.53 12.8003C163.085 12.575 162.599 12.4417 162.101 12.4083C161.603 12.375 161.104 12.4423 160.633 12.6062ZM141.032 15.979C140.504 14.4242 140.599 12.7256 141.296 11.2391C141.993 9.75258 143.238 8.59347 144.771 8.00461C145.527 7.74568 146.329 7.64185 147.126 7.69931C147.924 7.75677 148.702 7.97434 149.414 8.33904C150.126 8.70373 150.757 9.20809 151.27 9.82201C151.782 10.4359 152.166 11.1468 152.398 11.9123L153.458 15.1551L142.092 19.2218L141.032 15.979ZM155.487 34.7032L157.25 40.0901C157.283 40.1981 157.272 40.3145 157.221 40.415C157.17 40.5155 157.082 40.5924 156.976 40.6298L154.504 41.5116C154.405 41.5388 154.3 41.527 154.21 41.4785C154.121 41.43 154.053 41.3486 154.022 41.2514L152.244 35.8885C151.264 35.8351 150.323 35.4835 149.548 34.8807C148.773 34.2779 148.201 33.4527 147.907 32.5157C147.488 31.2768 147.565 29.9239 148.121 28.7402C148.677 27.5564 149.669 26.6336 150.89 26.165C151.493 25.9591 152.131 25.8766 152.766 25.9225C153.402 25.9684 154.021 26.1417 154.588 26.4322C155.155 26.7226 155.658 27.1243 156.067 27.6131C156.475 28.102 156.781 28.6681 156.966 29.2777C157.276 30.2296 157.302 31.2512 157.04 32.2175C156.778 33.1837 156.24 34.0526 155.492 34.7177L155.487 34.7032Z" fill="#8094D4"/>
<path d="M158.041 13.4348C158.041 13.5023 153.439 15.2321 147.715 17.2895C141.991 19.347 137.322 20.9997 137.297 20.9515C137.273 20.9033 141.899 19.159 147.628 17.0968C153.357 15.0345 158.016 13.3722 158.041 13.4348Z" fill="#263238"/>
<path d="M163.505 14.3215C163.526 14.3633 163.544 14.4069 163.558 14.4516C163.596 14.548 163.64 14.6733 163.697 14.8275C163.823 15.1792 163.996 15.6659 164.213 16.273L166.063 21.6599C166.834 23.9438 167.754 26.6517 168.776 29.6584C169.258 31.1666 169.826 32.7373 170.356 34.39C170.64 35.2417 170.763 36.1388 170.718 37.0353C170.677 37.5016 170.544 37.9552 170.327 38.37C170.096 38.7835 169.787 39.1483 169.417 39.4445C168.672 39.9879 167.846 40.4092 166.969 40.6925L164.488 41.5839L159.79 43.2655L151.835 46.0987L146.462 47.9875L145.017 48.4693L144.631 48.5946C144.59 48.6129 144.546 48.6243 144.501 48.6283C144.501 48.6283 144.54 48.6283 144.621 48.5705L144.997 48.4211L146.443 47.8767L151.786 45.9108L159.727 43.0197L164.415 41.3237L166.897 40.4275C167.749 40.1557 168.551 39.7472 169.272 39.2181C169.616 38.9432 169.904 38.6045 170.12 38.2206C170.324 37.837 170.447 37.4155 170.482 36.9823C170.526 36.1185 170.408 35.254 170.135 34.4334C169.614 32.7952 169.065 31.2099 168.569 29.7018C167.567 26.6903 166.641 23.9727 165.909 21.6888C165.177 19.4049 164.56 17.5691 164.136 16.2778C163.933 15.6466 163.779 15.1551 163.654 14.7986L163.538 14.4131C163.524 14.3839 163.513 14.3532 163.505 14.3215Z" fill="#263238"/>
<path d="M149.936 7.67696C149.936 7.67696 149.68 7.55168 149.208 7.35895C148.535 7.10033 147.823 6.95698 147.103 6.93493C146.034 6.8983 144.971 7.09907 143.99 7.52277C142.797 8.05037 141.776 8.90375 141.046 9.98496C140.311 11.0631 139.916 12.3372 139.914 13.6421C139.924 14.7116 140.086 15.7743 140.395 16.7981C140.646 17.6751 140.906 18.3737 141.08 18.8604C141.182 19.1076 141.266 19.3621 141.33 19.6217C141.193 19.3906 141.079 19.147 140.988 18.8941C140.791 18.4123 140.506 17.7281 140.227 16.8463C139.884 15.8118 139.697 14.7318 139.673 13.6421C139.66 12.2879 140.064 10.9624 140.829 9.84523C141.585 8.72452 142.647 7.84475 143.889 7.31076C144.901 6.88474 145.997 6.69681 147.093 6.76147C147.829 6.79899 148.553 6.97044 149.227 7.2674C149.408 7.35064 149.582 7.44728 149.748 7.5565C149.816 7.58661 149.88 7.62725 149.936 7.67696Z" fill="#263238"/>
<path d="M150.158 26.5313C150.234 26.4847 150.315 26.4444 150.398 26.4109C150.64 26.302 150.889 26.2134 151.145 26.1458C151.551 26.026 151.97 25.9548 152.393 25.9338C152.969 25.9029 153.544 25.9898 154.085 26.1892C155.318 26.6229 156.45 27.8805 157.009 29.5621C157.277 30.4645 157.277 31.4254 157.009 32.3278C156.712 33.3073 156.179 34.199 155.458 34.9249L155.487 34.7948C156.127 36.5535 156.826 38.4616 157.549 40.4516L157.592 40.572L157.472 40.6154L156.368 40.9816L153.959 41.7863L153.839 41.8248L153.8 41.7044C153.14 39.7096 152.417 37.8497 151.873 36.0235L151.979 36.1054C151.037 36.0272 150.139 35.6736 149.396 35.0887C148.724 34.5713 148.174 33.9136 147.782 33.1614C147.429 32.4943 147.253 31.7477 147.271 30.9931C147.294 30.2219 147.486 29.4652 147.835 28.7771C148.184 28.0891 148.681 27.4867 149.29 27.0131C149.541 26.8096 149.822 26.647 150.124 26.5313C149.852 26.6928 149.588 26.8681 149.334 27.0565C148.664 27.6226 148.152 28.3509 147.845 29.1718C147.581 29.7908 147.458 30.4604 147.484 31.1327C147.509 31.805 147.684 32.4633 147.994 33.0602C148.379 33.7838 148.917 34.4151 149.57 34.9105C150.278 35.4664 151.134 35.8015 152.032 35.8741H152.114L152.138 35.9464C152.668 37.7388 153.395 39.6132 154.065 41.6176L153.906 41.5405L156.315 40.7359L157.414 40.3649L157.337 40.5287C156.619 38.5387 155.925 36.6258 155.289 34.8671V34.7948L155.347 34.737C156.047 34.0412 156.57 33.1866 156.87 32.2459C157.125 31.3827 157.125 30.4639 156.87 29.6006C156.344 27.9816 155.26 26.753 154.085 26.3193C153.564 26.1186 153.008 26.0252 152.451 26.0447C152.035 26.0542 151.621 26.1108 151.218 26.2133C150.5 26.3916 150.162 26.5554 150.158 26.5313Z" fill="#263238"/>
<path d="M135.264 165.657L87.1335 165.435C84.354 165.42 81.6942 164.302 79.7383 162.327C77.7823 160.352 76.6902 157.682 76.7018 154.902L77.2125 34.2453C77.2182 32.8683 77.4952 31.5058 78.0277 30.2359C78.5602 28.9659 79.3378 27.8134 80.3161 26.8441C81.2943 25.8749 82.4539 25.1079 83.7287 24.5871C85.0035 24.0662 86.3684 23.8018 87.7455 23.8087L135.871 24.0304C138.651 24.0444 141.311 25.161 143.268 27.135C145.225 29.109 146.318 31.779 146.308 34.5585L145.797 155.211C145.791 156.588 145.515 157.951 144.982 159.221C144.45 160.492 143.672 161.645 142.694 162.615C141.716 163.585 140.557 164.353 139.282 164.875C138.007 165.397 136.642 165.662 135.264 165.657Z" fill="#455A64"/>
<path d="M135.799 28.1791H126.471C126.166 28.1847 125.866 28.2503 125.587 28.372C125.308 28.4937 125.056 28.6692 124.844 28.8885C124.633 29.1077 124.467 29.3664 124.356 29.6498C124.245 29.9332 124.191 30.2357 124.196 30.5401V32.2313C124.202 32.5355 124.148 32.8378 124.036 33.1209C123.925 33.404 123.759 33.6624 123.548 33.8812C123.337 34.1001 123.084 34.2752 122.805 34.3963C122.526 34.5175 122.226 34.5825 121.922 34.5875L103.738 34.5056C103.122 34.4892 102.539 34.2293 102.115 33.783C101.691 33.3367 101.462 32.7405 101.478 32.1253V30.4341C101.493 29.8197 101.265 29.2242 100.842 28.7781C100.419 28.3319 99.837 28.0715 99.2227 28.0538H95.9414L87.7742 28.0153C85.8317 28.0037 83.9636 28.7624 82.5792 30.1251C81.1948 31.4879 80.4068 33.3437 80.3877 35.2862L79.9058 153.057C79.9014 154.02 80.0868 154.976 80.4515 155.868C80.8162 156.76 81.353 157.571 82.0313 158.256C82.7096 158.94 83.5161 159.485 84.4048 159.857C85.2934 160.23 86.2468 160.424 87.2105 160.429L135.24 160.651C136.204 160.655 137.16 160.469 138.053 160.104C138.945 159.74 139.757 159.202 140.442 158.524C141.127 157.845 141.672 157.038 142.045 156.149C142.418 155.259 142.613 154.305 142.617 153.341L143.099 35.5705C143.11 33.6225 142.348 31.7496 140.979 30.3636C139.61 28.9776 137.747 28.1918 135.799 28.1791Z" fill="white"/>
<path d="M129.338 144.938L93.624 144.784C93.253 144.784 92.9542 144.379 92.959 143.887L92.9976 134.545C92.9976 134.063 93.3012 133.648 93.6722 133.648L129.386 133.812C129.592 133.848 129.775 133.961 129.899 134.129C130.023 134.297 130.078 134.506 130.051 134.713L130.017 144.046C130.017 144.543 129.709 144.943 129.338 144.938Z" fill="#8094D4"/>
<path d="M103.718 137.432C103.65 137.432 103.585 137.421 103.523 137.399C103.461 137.377 103.413 137.348 103.38 137.313L103.417 137.239C103.449 137.271 103.492 137.297 103.546 137.319C103.601 137.34 103.658 137.35 103.718 137.35C103.775 137.35 103.821 137.343 103.857 137.329C103.893 137.314 103.92 137.295 103.936 137.271C103.954 137.246 103.962 137.219 103.962 137.19C103.962 137.154 103.952 137.126 103.931 137.104C103.911 137.082 103.885 137.065 103.852 137.053C103.819 137.04 103.782 137.029 103.742 137.019C103.703 137.01 103.663 137 103.623 136.99C103.583 136.978 103.546 136.964 103.512 136.945C103.479 136.927 103.452 136.903 103.432 136.874C103.412 136.843 103.402 136.804 103.402 136.755C103.402 136.71 103.413 136.669 103.437 136.632C103.461 136.594 103.498 136.563 103.547 136.541C103.597 136.517 103.66 136.506 103.737 136.506C103.788 136.506 103.839 136.513 103.89 136.528C103.94 136.542 103.983 136.561 104.02 136.586L103.987 136.663C103.948 136.637 103.906 136.618 103.862 136.606C103.819 136.594 103.777 136.588 103.736 136.588C103.681 136.588 103.636 136.595 103.601 136.61C103.565 136.624 103.539 136.644 103.521 136.669C103.505 136.694 103.497 136.722 103.497 136.753C103.497 136.788 103.507 136.817 103.527 136.839C103.547 136.86 103.574 136.877 103.607 136.889C103.641 136.902 103.678 136.912 103.718 136.922C103.758 136.931 103.797 136.942 103.836 136.953C103.876 136.964 103.912 136.979 103.945 136.997C103.979 137.015 104.006 137.038 104.026 137.068C104.047 137.097 104.057 137.136 104.057 137.183C104.057 137.228 104.045 137.269 104.021 137.307C103.997 137.344 103.959 137.375 103.909 137.398C103.86 137.421 103.796 137.432 103.718 137.432ZM104.267 137.424V136.513H104.363V137.424H104.267ZM104.66 137.424V136.513H104.739L105.367 137.304H105.326V136.513H105.421V137.424H105.341L104.714 136.633H104.756V137.424H104.66ZM106.117 137.432C106.048 137.432 105.984 137.421 105.925 137.398C105.867 137.375 105.816 137.342 105.773 137.3C105.73 137.259 105.697 137.21 105.672 137.153C105.649 137.097 105.637 137.036 105.637 136.969C105.637 136.902 105.649 136.84 105.672 136.784C105.697 136.728 105.731 136.679 105.774 136.637C105.817 136.595 105.868 136.563 105.926 136.541C105.985 136.517 106.049 136.506 106.119 136.506C106.188 136.506 106.251 136.516 106.309 136.538C106.367 136.56 106.416 136.593 106.457 136.637L106.397 136.698C106.359 136.66 106.317 136.633 106.271 136.616C106.225 136.6 106.176 136.591 106.123 136.591C106.066 136.591 106.014 136.601 105.967 136.62C105.92 136.638 105.878 136.665 105.843 136.699C105.808 136.733 105.781 136.773 105.761 136.819C105.742 136.864 105.732 136.914 105.732 136.969C105.732 137.022 105.742 137.072 105.761 137.118C105.781 137.164 105.808 137.205 105.843 137.239C105.878 137.273 105.92 137.3 105.967 137.319C106.014 137.337 106.066 137.346 106.121 137.346C106.173 137.346 106.222 137.338 106.268 137.323C106.315 137.307 106.358 137.281 106.397 137.243L106.452 137.316C106.408 137.354 106.358 137.383 106.3 137.403C106.241 137.422 106.181 137.432 106.117 137.432ZM106.359 137.304V136.969H106.452V137.316L106.359 137.304ZM107.432 137.432C107.315 137.432 107.224 137.398 107.157 137.332C107.09 137.265 107.057 137.166 107.057 137.035V136.513H107.153V137.031C107.153 137.139 107.178 137.218 107.226 137.269C107.275 137.32 107.343 137.346 107.432 137.346C107.521 137.346 107.59 137.32 107.639 137.269C107.687 137.218 107.711 137.139 107.711 137.031V136.513H107.805V137.035C107.805 137.166 107.772 137.265 107.705 137.332C107.639 137.398 107.548 137.432 107.432 137.432ZM108.095 137.424V136.513H108.436C108.513 136.513 108.58 136.526 108.635 136.551C108.691 136.575 108.733 136.611 108.763 136.658C108.793 136.704 108.808 136.76 108.808 136.826C108.808 136.89 108.793 136.945 108.763 136.992C108.733 137.038 108.691 137.074 108.635 137.099C108.58 137.124 108.513 137.137 108.436 137.137H108.148L108.191 137.091V137.424H108.095ZM108.191 137.099L108.148 137.052H108.433C108.524 137.052 108.593 137.032 108.64 136.993C108.688 136.954 108.712 136.898 108.712 136.826C108.712 136.753 108.688 136.696 108.64 136.656C108.593 136.617 108.524 136.597 108.433 136.597H108.148L108.191 136.551V137.099Z" fill="#E8E8E3"/>
<path d="M100.747 62.7992L88.3545 62.7429L88.3442 65.0172L100.737 65.0734L100.747 62.7992Z" fill="#8094D4"/>
<path opacity="0.1" d="M100.747 62.7992L88.3545 62.7429L88.3442 65.0172L100.737 65.0734L100.747 62.7992Z" fill="black"/>
<path d="M137.076 76.7627C137.173 76.7529 137.269 76.7302 137.36 76.6953C137.493 76.6431 137.609 76.5544 137.695 76.4394C137.78 76.3243 137.831 76.1876 137.842 76.0448C137.842 75.2787 137.842 74.1608 137.842 72.7249C137.842 72.007 137.842 71.2023 137.842 70.3158C137.842 70.0989 137.842 69.8725 137.842 69.646C137.873 69.4263 137.825 69.2025 137.707 69.0148C137.641 68.9248 137.554 68.8514 137.455 68.8004C137.355 68.7494 137.245 68.7222 137.134 68.7209H136.382H129.419L89.1185 68.5715C89.0154 68.5698 88.9133 68.5929 88.8211 68.6391C88.7288 68.6852 88.649 68.7529 88.5885 68.8365C88.4722 69.025 88.4277 69.2491 88.4632 69.4677C88.4632 69.9496 88.4632 70.4314 88.4632 70.9132C88.4632 71.8769 88.4632 72.8406 88.4632 73.8043C88.4632 74.2861 88.4632 74.7679 88.4632 75.2498C88.4433 75.4742 88.4433 75.6999 88.4632 75.9243C88.4886 76.0206 88.5356 76.1097 88.6008 76.1849C88.6659 76.26 88.7474 76.3193 88.8391 76.358C88.934 76.3958 89.0357 76.4138 89.1378 76.411H91.5904L102.292 76.4688L120.409 76.5796L132.624 76.676L135.943 76.7146H136.806C137.004 76.7146 137.1 76.7146 137.1 76.7146H136.806H135.943H132.624H120.409L102.292 76.6567L91.5904 76.6134H89.1378C89.0028 76.6188 88.8682 76.5958 88.7427 76.5459C88.6158 76.4918 88.503 76.4094 88.4128 76.305C88.3226 76.2006 88.2575 76.077 88.2223 75.9436C88.1944 75.8172 88.1847 75.6874 88.1934 75.5581V75.2016C88.1934 74.7197 88.1934 74.2379 88.1934 73.7561C88.1934 72.7924 88.1934 71.8287 88.1934 70.8651C88.1934 70.3832 88.1934 69.9014 88.1934 69.4195C88.1842 69.2912 88.1842 69.1624 88.1934 69.0341C88.2115 68.8923 88.2663 68.7578 88.3524 68.6438C88.4355 68.5275 88.5456 68.433 88.6731 68.3684C88.8006 68.3038 88.9419 68.271 89.0848 68.2728L129.386 68.4944L136.348 68.5426H137.1C137.232 68.5427 137.363 68.5747 137.48 68.636C137.598 68.6972 137.699 68.7858 137.774 68.8943C137.91 69.1038 137.965 69.3556 137.929 69.6026C137.929 69.8291 137.929 70.0556 137.929 70.2724C137.929 71.1493 137.929 71.954 137.929 72.6816C137.929 74.1271 137.895 75.2353 137.885 76.0063C137.873 76.1545 137.82 76.2963 137.73 76.4149C137.64 76.5336 137.519 76.6242 137.379 76.676C137.288 76.7325 137.183 76.7625 137.076 76.7627Z" fill="#E0E0E0"/>
<path d="M114.743 70.9902H92.0771V73.1151H114.743V70.9902Z" fill="#8094D4"/>
<path opacity="0.2" d="M114.743 70.9902H92.0771V73.1151H114.743V70.9902Z" fill="white"/>
<path d="M100.663 83.5465L88.27 83.4902L88.2597 85.7645L100.652 85.8207L100.663 83.5465Z" fill="#8094D4"/>
<path opacity="0.1" d="M100.663 83.5465L88.27 83.4902L88.2597 85.7645L100.652 85.8207L100.663 83.5465Z" fill="black"/>
<path d="M136.763 97.5105C136.86 97.4985 136.957 97.4808 137.052 97.4574C137.186 97.4146 137.31 97.3434 137.415 97.2487C137.52 97.1539 137.603 97.0378 137.659 96.9082C137.735 96.7136 137.765 96.5042 137.746 96.2962C137.746 96.0649 137.746 95.8144 137.746 95.5349C137.746 94.976 137.746 94.34 137.746 93.6076V90.5479C137.769 90.3264 137.72 90.1034 137.606 89.9119C137.487 89.7155 137.3 89.5697 137.081 89.5023C136.841 89.4595 136.596 89.4465 136.353 89.4638H129.42L89.2585 89.3144C89.0425 89.3149 88.834 89.3938 88.6718 89.5365C88.5096 89.6792 88.4047 89.876 88.3767 90.0902C88.3767 90.5479 88.3767 91.0538 88.3767 91.5357C88.3767 92.4993 88.3767 93.463 88.3767 94.4267C88.3767 94.9085 88.3767 95.3904 88.3767 95.8722C88.3588 96.0974 88.3685 96.3239 88.4056 96.5468C88.4658 96.7422 88.5896 96.9118 88.7574 97.0286C88.9354 97.1416 89.1444 97.1955 89.3548 97.1828H90.0246H91.4171L102.08 97.2358L120.135 97.3466L132.306 97.443L135.616 97.4815H132.306H120.135L102.071 97.4623L91.4075 97.4237H89.3115C89.0509 97.4392 88.7922 97.3699 88.5743 97.2262C88.355 97.0743 88.195 96.8513 88.1213 96.595C88.0782 96.3501 88.0652 96.1009 88.0828 95.8529C88.0828 95.3711 88.0828 94.8893 88.0828 94.4074C88.0828 93.4437 88.0828 92.4801 88.0828 91.5164C88.0828 91.0346 88.0828 90.5527 88.0828 90.0709C88.118 89.7954 88.2523 89.5421 88.4607 89.3585C88.6692 89.1749 88.9374 89.0736 89.2151 89.0735L129.376 89.2951L136.31 89.3481C136.568 89.3323 136.827 89.3501 137.081 89.4011C137.331 89.4829 137.542 89.6546 137.673 89.883C137.798 90.0952 137.852 90.3415 137.828 90.5865C137.828 90.8129 137.828 91.0346 137.828 91.2562C137.828 92.1283 137.828 92.9282 137.828 93.6654C137.828 94.4026 137.828 95.0242 137.828 95.5927C137.828 95.8674 137.828 96.1228 137.828 96.3589C137.845 96.5743 137.81 96.7909 137.726 96.9901C137.664 97.123 137.573 97.2409 137.461 97.3357C137.349 97.4305 137.218 97.5 137.076 97.5394C136.971 97.5481 136.865 97.5383 136.763 97.5105Z" fill="#E0E0E0"/>
<path d="M100.569 105.195L88.1768 105.138L88.1664 107.413L100.559 107.469L100.569 105.195Z" fill="#8094D4"/>
<path opacity="0.1" d="M100.569 105.195L88.1768 105.138L88.1664 107.413L100.559 107.469L100.569 105.195Z" fill="black"/>
<path d="M136.666 119.15C136.764 119.138 136.86 119.121 136.955 119.097C137.089 119.054 137.213 118.984 137.317 118.89C137.422 118.796 137.506 118.681 137.562 118.552C137.638 118.358 137.668 118.148 137.649 117.94C137.649 117.704 137.649 117.459 137.649 117.174C137.649 116.62 137.649 115.979 137.649 115.247V112.187C137.672 111.966 137.623 111.743 137.509 111.551C137.388 111.358 137.202 111.215 136.984 111.146C136.744 111.102 136.5 111.087 136.257 111.103H129.323L89.1619 110.954C88.9459 110.954 88.7374 111.033 88.5752 111.176C88.413 111.319 88.3082 111.515 88.2801 111.729C88.2801 112.211 88.2801 112.693 88.2801 113.175C88.2801 114.139 88.2801 115.102 88.2801 116.066C88.2801 116.548 88.2801 117.03 88.2801 117.512C88.2622 117.735 88.2719 117.96 88.309 118.181C88.3667 118.378 88.4911 118.548 88.6608 118.663C88.8377 118.779 89.0476 118.833 89.2583 118.817H91.3542L102.017 118.875L120.072 118.986L132.243 119.082L135.553 119.121H132.243H120.072L102.017 119.068L91.3542 119.024H89.2583C88.9974 119.042 88.7381 118.973 88.5211 118.827C88.3018 118.675 88.1418 118.452 88.0681 118.196C88.0249 117.951 88.012 117.702 88.0296 117.454C88.0296 116.972 88.0296 116.49 88.0296 116.008C88.0296 115.044 88.0296 114.081 88.0296 113.117C88.0296 112.635 88.0296 112.153 88.0296 111.648C88.0636 111.372 88.197 111.119 88.4047 110.936C88.6123 110.752 88.8799 110.65 89.1571 110.65L129.318 110.872L136.252 110.925C136.51 110.909 136.769 110.927 137.023 110.978C137.273 111.06 137.484 111.231 137.615 111.46C137.74 111.672 137.794 111.918 137.77 112.163C137.77 112.39 137.77 112.616 137.77 112.833C137.77 113.705 137.77 114.505 137.77 115.242C137.77 115.979 137.77 116.601 137.77 117.169C137.77 117.444 137.77 117.699 137.77 117.936C137.788 118.151 137.753 118.368 137.668 118.567C137.606 118.7 137.515 118.818 137.403 118.912C137.291 119.007 137.159 119.077 137.018 119.116C136.905 119.155 136.784 119.166 136.666 119.15Z" fill="#E0E0E0"/>
<path d="M114.259 92.3389L91.5938 92.2361L91.5841 94.361L114.249 94.4638L114.259 92.3389Z" fill="#8094D4"/>
<path opacity="0.2" d="M114.259 92.3389L91.5938 92.2361L91.5841 94.361L114.249 94.4638L114.259 92.3389Z" fill="white"/>
<path d="M93.6431 115.218C93.6289 115.412 93.5581 115.597 93.4395 115.751C93.3209 115.905 93.1597 116.021 92.976 116.084C92.7922 116.147 92.5939 116.155 92.4057 116.107C92.2175 116.058 92.0477 115.956 91.9173 115.811C91.7869 115.667 91.7016 115.488 91.6721 115.296C91.6426 115.104 91.6702 114.907 91.7513 114.731C91.8325 114.554 91.9637 114.405 92.1287 114.303C92.2937 114.2 92.4852 114.148 92.6795 114.153C92.9479 114.168 93.1996 114.288 93.38 114.488C93.5604 114.687 93.655 114.949 93.6431 115.218Z" fill="#8094D4"/>
<path d="M96.7123 115.233C96.7217 115.368 96.7032 115.505 96.6577 115.633C96.6122 115.761 96.5408 115.879 96.448 115.979C96.3551 116.078 96.2427 116.158 96.1178 116.212C95.993 116.266 95.8582 116.294 95.7221 116.294C95.5859 116.294 95.4512 116.266 95.3263 116.212C95.2014 116.158 95.0891 116.078 94.9962 115.979C94.9033 115.879 94.8319 115.761 94.7865 115.633C94.741 115.505 94.7224 115.368 94.7319 115.233C94.7224 115.097 94.741 114.96 94.7865 114.832C94.8319 114.704 94.9033 114.586 94.9962 114.487C95.0891 114.387 95.2014 114.308 95.3263 114.253C95.4512 114.199 95.5859 114.171 95.7221 114.171C95.8582 114.171 95.993 114.199 96.1178 114.253C96.2427 114.308 96.3551 114.387 96.448 114.487C96.5408 114.586 96.6122 114.704 96.6577 114.832C96.7032 114.96 96.7217 115.097 96.7123 115.233Z" fill="#8094D4"/>
<path d="M99.7867 115.247C99.7725 115.441 99.7017 115.626 99.5831 115.78C99.4645 115.934 99.3033 116.05 99.1195 116.113C98.9357 116.176 98.7375 116.184 98.5493 116.135C98.3611 116.087 98.1912 115.984 98.0608 115.84C97.9304 115.696 97.8452 115.517 97.8157 115.325C97.7862 115.133 97.8137 114.936 97.8949 114.76C97.9761 114.583 98.1073 114.434 98.2723 114.332C98.4373 114.229 98.6288 114.177 98.823 114.182C99.091 114.198 99.342 114.319 99.5222 114.518C99.7023 114.717 99.7973 114.979 99.7867 115.247Z" fill="#8094D4"/>
<path d="M102.856 115.262C102.842 115.455 102.771 115.641 102.652 115.795C102.534 115.949 102.373 116.064 102.189 116.128C102.005 116.191 101.807 116.199 101.619 116.15C101.43 116.102 101.261 115.999 101.13 115.855C101 115.711 100.915 115.532 100.885 115.34C100.856 115.147 100.883 114.951 100.964 114.774C101.045 114.598 101.177 114.449 101.342 114.346C101.507 114.244 101.698 114.191 101.892 114.197C102.16 114.213 102.411 114.333 102.591 114.532C102.772 114.731 102.867 114.993 102.856 115.262Z" fill="#8094D4"/>
<path d="M105.925 115.271C105.912 115.465 105.842 115.651 105.724 115.806C105.606 115.96 105.445 116.077 105.261 116.141C105.077 116.205 104.879 116.213 104.69 116.165C104.502 116.117 104.331 116.015 104.201 115.871C104.07 115.727 103.984 115.548 103.954 115.356C103.924 115.163 103.952 114.966 104.033 114.79C104.114 114.613 104.245 114.464 104.41 114.361C104.575 114.258 104.767 114.206 104.962 114.211C105.229 114.227 105.479 114.347 105.659 114.545C105.839 114.743 105.935 115.004 105.925 115.271Z" fill="#8094D4"/>
<path d="M108.999 115.285C108.986 115.478 108.917 115.664 108.8 115.818C108.683 115.972 108.524 116.089 108.341 116.153C108.159 116.218 107.961 116.228 107.773 116.182C107.585 116.136 107.415 116.036 107.283 115.895C107.151 115.753 107.063 115.576 107.031 115.385C106.998 115.194 107.022 114.998 107.1 114.821C107.177 114.643 107.305 114.493 107.467 114.387C107.629 114.281 107.818 114.225 108.012 114.225C108.283 114.235 108.539 114.353 108.725 114.551C108.91 114.75 109.009 115.014 108.999 115.285Z" fill="#8094D4"/>
<path d="M112.069 115.3C112.078 115.436 112.06 115.572 112.014 115.701C111.969 115.829 111.897 115.946 111.804 116.046C111.712 116.146 111.599 116.225 111.474 116.279C111.349 116.334 111.215 116.362 111.079 116.362C110.942 116.362 110.808 116.334 110.683 116.279C110.558 116.225 110.446 116.146 110.353 116.046C110.26 115.946 110.188 115.829 110.143 115.701C110.097 115.572 110.079 115.436 110.088 115.3C110.079 115.164 110.097 115.028 110.143 114.899C110.188 114.771 110.26 114.653 110.353 114.554C110.446 114.454 110.558 114.375 110.683 114.321C110.808 114.266 110.942 114.238 111.079 114.238C111.215 114.238 111.349 114.266 111.474 114.321C111.599 114.375 111.712 114.454 111.804 114.554C111.897 114.653 111.969 114.771 112.014 114.899C112.06 115.028 112.078 115.164 112.069 115.3Z" fill="#8094D4"/>
<path d="M115.138 115.314C115.124 115.508 115.055 115.693 114.938 115.847C114.821 116.001 114.662 116.118 114.479 116.182C114.297 116.247 114.1 116.257 113.912 116.211C113.724 116.165 113.553 116.065 113.421 115.924C113.289 115.782 113.202 115.605 113.169 115.414C113.136 115.223 113.16 115.027 113.238 114.85C113.315 114.672 113.443 114.522 113.605 114.416C113.767 114.31 113.956 114.254 114.15 114.254C114.421 114.264 114.678 114.382 114.863 114.58C115.048 114.779 115.147 115.043 115.138 115.314Z" fill="#8094D4"/>
<path d="M118.207 115.329C118.194 115.523 118.124 115.709 118.006 115.864C117.887 116.018 117.727 116.135 117.543 116.199C117.359 116.263 117.161 116.271 116.972 116.223C116.783 116.175 116.613 116.073 116.482 115.929C116.351 115.785 116.266 115.606 116.236 115.413C116.206 115.221 116.233 115.024 116.314 114.847C116.396 114.671 116.527 114.521 116.692 114.419C116.857 114.316 117.049 114.264 117.243 114.269C117.51 114.285 117.761 114.405 117.941 114.603C118.121 114.801 118.216 115.061 118.207 115.329Z" fill="#8094D4"/>
<g opacity="0.2">
<path d="M93.6431 115.218C93.6289 115.412 93.5581 115.597 93.4395 115.751C93.3209 115.905 93.1597 116.021 92.976 116.084C92.7922 116.147 92.5939 116.155 92.4057 116.107C92.2175 116.058 92.0477 115.956 91.9173 115.811C91.7869 115.667 91.7016 115.488 91.6721 115.296C91.6426 115.104 91.6702 114.907 91.7513 114.731C91.8325 114.554 91.9637 114.405 92.1287 114.303C92.2937 114.2 92.4852 114.148 92.6795 114.153C92.9479 114.168 93.1996 114.288 93.38 114.488C93.5604 114.687 93.655 114.949 93.6431 115.218Z" fill="white"/>
<path d="M96.7123 115.233C96.7217 115.368 96.7032 115.505 96.6577 115.633C96.6122 115.761 96.5408 115.879 96.448 115.979C96.3551 116.078 96.2427 116.158 96.1178 116.212C95.993 116.266 95.8582 116.294 95.7221 116.294C95.5859 116.294 95.4512 116.266 95.3263 116.212C95.2014 116.158 95.0891 116.078 94.9962 115.979C94.9033 115.879 94.8319 115.761 94.7865 115.633C94.741 115.505 94.7224 115.368 94.7319 115.233C94.7224 115.097 94.741 114.96 94.7865 114.832C94.8319 114.704 94.9033 114.586 94.9962 114.487C95.0891 114.387 95.2014 114.308 95.3263 114.253C95.4512 114.199 95.5859 114.171 95.7221 114.171C95.8582 114.171 95.993 114.199 96.1178 114.253C96.2427 114.308 96.3551 114.387 96.448 114.487C96.5408 114.586 96.6122 114.704 96.6577 114.832C96.7032 114.96 96.7217 115.097 96.7123 115.233Z" fill="white"/>
<path d="M99.7867 115.247C99.7725 115.441 99.7017 115.626 99.5831 115.78C99.4645 115.934 99.3033 116.05 99.1195 116.113C98.9357 116.176 98.7375 116.184 98.5493 116.135C98.3611 116.087 98.1912 115.984 98.0608 115.84C97.9304 115.696 97.8452 115.517 97.8157 115.325C97.7862 115.133 97.8137 114.936 97.8949 114.76C97.9761 114.583 98.1073 114.434 98.2723 114.332C98.4373 114.229 98.6288 114.177 98.823 114.182C99.091 114.198 99.342 114.319 99.5222 114.518C99.7023 114.717 99.7973 114.979 99.7867 115.247Z" fill="white"/>
<path d="M102.856 115.262C102.842 115.455 102.771 115.641 102.652 115.795C102.534 115.949 102.373 116.064 102.189 116.128C102.005 116.191 101.807 116.199 101.619 116.15C101.43 116.102 101.261 115.999 101.13 115.855C101 115.711 100.915 115.532 100.885 115.34C100.856 115.147 100.883 114.951 100.964 114.774C101.045 114.598 101.177 114.449 101.342 114.346C101.507 114.244 101.698 114.191 101.892 114.197C102.16 114.213 102.411 114.333 102.591 114.532C102.772 114.731 102.867 114.993 102.856 115.262Z" fill="white"/>
<path d="M105.925 115.271C105.912 115.465 105.842 115.651 105.724 115.806C105.606 115.96 105.445 116.077 105.261 116.141C105.077 116.205 104.879 116.213 104.69 116.165C104.502 116.117 104.331 116.015 104.201 115.871C104.07 115.727 103.984 115.548 103.954 115.356C103.924 115.163 103.952 114.966 104.033 114.79C104.114 114.613 104.245 114.464 104.41 114.361C104.575 114.258 104.767 114.206 104.962 114.211C105.229 114.227 105.479 114.347 105.659 114.545C105.839 114.743 105.935 115.004 105.925 115.271Z" fill="white"/>
<path d="M108.999 115.285C108.986 115.478 108.917 115.664 108.8 115.818C108.683 115.972 108.524 116.089 108.341 116.153C108.159 116.218 107.961 116.228 107.773 116.182C107.585 116.136 107.415 116.036 107.283 115.895C107.151 115.753 107.063 115.576 107.031 115.385C106.998 115.194 107.022 114.998 107.1 114.821C107.177 114.643 107.305 114.493 107.467 114.387C107.629 114.281 107.818 114.225 108.012 114.225C108.283 114.235 108.539 114.353 108.725 114.551C108.91 114.75 109.009 115.014 108.999 115.285Z" fill="white"/>
<path d="M112.069 115.3C112.078 115.436 112.06 115.572 112.014 115.701C111.969 115.829 111.897 115.946 111.804 116.046C111.712 116.146 111.599 116.225 111.474 116.279C111.349 116.334 111.215 116.362 111.079 116.362C110.942 116.362 110.808 116.334 110.683 116.279C110.558 116.225 110.446 116.146 110.353 116.046C110.26 115.946 110.188 115.829 110.143 115.701C110.097 115.572 110.079 115.436 110.088 115.3C110.079 115.164 110.097 115.028 110.143 114.899C110.188 114.771 110.26 114.653 110.353 114.554C110.446 114.454 110.558 114.375 110.683 114.321C110.808 114.266 110.942 114.238 111.079 114.238C111.215 114.238 111.349 114.266 111.474 114.321C111.599 114.375 111.712 114.454 111.804 114.554C111.897 114.653 111.969 114.771 112.014 114.899C112.06 115.028 112.078 115.164 112.069 115.3Z" fill="white"/>
<path d="M115.138 115.314C115.124 115.508 115.055 115.693 114.938 115.847C114.821 116.001 114.662 116.118 114.479 116.182C114.297 116.247 114.1 116.257 113.912 116.211C113.724 116.165 113.553 116.065 113.421 115.924C113.289 115.782 113.202 115.605 113.169 115.414C113.136 115.223 113.16 115.027 113.238 114.85C113.315 114.672 113.443 114.522 113.605 114.416C113.767 114.31 113.956 114.254 114.15 114.254C114.421 114.264 114.678 114.382 114.863 114.58C115.048 114.779 115.147 115.043 115.138 115.314Z" fill="white"/>
<path d="M118.207 115.329C118.194 115.523 118.124 115.709 118.006 115.864C117.887 116.018 117.727 116.135 117.543 116.199C117.359 116.263 117.161 116.271 116.972 116.223C116.783 116.175 116.613 116.073 116.482 115.929C116.351 115.785 116.266 115.606 116.236 115.413C116.206 115.221 116.233 115.024 116.314 114.847C116.396 114.671 116.527 114.521 116.692 114.419C116.857 114.316 117.049 114.264 117.243 114.269C117.51 114.285 117.761 114.405 117.941 114.603C118.121 114.801 118.216 115.061 118.207 115.329Z" fill="white"/>
</g>
<path d="M113.847 45.7709C114.181 45.6235 114.465 45.3809 114.663 45.0733C114.861 44.7658 114.964 44.4068 114.96 44.0411C114.972 43.8034 114.936 43.5656 114.854 43.3422C114.771 43.1189 114.644 42.9146 114.481 42.7419C114.317 42.5693 114.119 42.4317 113.901 42.3378C113.682 42.2438 113.446 42.1953 113.208 42.1953C112.97 42.1953 112.735 42.2438 112.516 42.3378C112.297 42.4317 112.1 42.5693 111.936 42.7419C111.772 42.9146 111.645 43.1189 111.563 43.3422C111.48 43.5656 111.444 43.8034 111.457 44.0411C111.45 44.4105 111.552 44.7737 111.751 45.085C111.95 45.3963 112.236 45.6417 112.575 45.7902C109.876 46.1949 109.997 49.1245 109.997 49.1245L116.376 49.1534C116.376 49.1534 116.526 46.1708 113.847 45.7709Z" fill="#8094D4"/>
<path opacity="0.1" d="M113.847 45.7709C114.181 45.6235 114.465 45.3809 114.663 45.0733C114.861 44.7658 114.964 44.4068 114.96 44.0411C114.972 43.8034 114.936 43.5656 114.854 43.3422C114.771 43.1189 114.644 42.9146 114.481 42.7419C114.317 42.5693 114.119 42.4317 113.901 42.3378C113.682 42.2438 113.446 42.1953 113.208 42.1953C112.97 42.1953 112.735 42.2438 112.516 42.3378C112.297 42.4317 112.1 42.5693 111.936 42.7419C111.772 42.9146 111.645 43.1189 111.563 43.3422C111.48 43.5656 111.444 43.8034 111.457 44.0411C111.45 44.4105 111.552 44.7737 111.751 45.085C111.95 45.3963 112.236 45.6417 112.575 45.7902C109.876 46.1949 109.997 49.1245 109.997 49.1245L116.376 49.1534C116.376 49.1534 116.526 46.1708 113.847 45.7709Z" fill="black"/>
<path d="M124.213 51.0429L101.476 50.9397L101.463 53.6572L124.201 53.7604L124.213 51.0429Z" fill="#8094D4"/>
<path opacity="0.2" d="M124.213 51.0429L101.476 50.9397L101.463 53.6572L124.201 53.7604L124.213 51.0429Z" fill="white"/>
<path d="M40.6219 65.1263H40.3954L39.7401 65.1744C39.3855 65.1957 39.0328 65.2424 38.6849 65.3142C38.4595 65.3458 38.236 65.3892 38.0151 65.4443L37.2683 65.6515C35.9971 66.0415 34.7978 66.6354 33.7171 67.4102C32.2894 68.4465 31.0972 69.7733 30.219 71.3034C29.7028 72.1854 29.2921 73.125 28.9951 74.1029C28.6832 75.1657 28.5035 76.2629 28.4603 77.3697C28.4316 77.9512 28.4412 78.5338 28.4892 79.114C28.4892 79.4079 28.5711 79.7018 28.6097 80.0006C28.6421 80.3017 28.6985 80.5998 28.7783 80.892C29.2116 82.8255 30.0907 84.6309 31.3456 86.1644C32.6005 87.6978 34.1963 88.9168 36.0059 89.724C37.3156 90.2892 38.7193 90.6046 40.1449 90.654C41.6172 90.735 43.091 90.5237 44.4814 90.0324L44.9054 89.8734H44.9632L45.0114 89.9023L51.0874 92.9861L50.9091 93.1403C50.2586 91.1262 49.6322 89.1747 49.0251 87.3004V87.2281L49.0781 87.1751C50.5521 85.6905 51.6462 83.8724 52.2679 81.8749C52.8309 80.0487 52.9952 78.1229 52.7497 76.2278C52.5313 74.5435 51.9898 72.9173 51.1548 71.4383C50.4351 70.1679 49.5066 69.0277 48.4084 68.0655C47.5023 67.3039 46.4994 66.6655 45.4258 66.167C44.6135 65.8167 43.7675 65.5503 42.901 65.372L41.9373 65.213L41.2386 65.16L40.8146 65.1311H40.6701C40.7181 65.1257 40.7666 65.1257 40.8146 65.1311H41.2434L41.9421 65.16L42.9058 65.2997C43.7831 65.4649 44.6406 65.7217 45.4643 66.0658C46.5563 66.5584 47.5773 67.1953 48.4999 67.9595C49.6184 68.9174 50.5665 70.0578 51.3042 71.3323C52.1629 72.8272 52.721 74.4754 52.9473 76.1844C53.2132 78.1089 53.0603 80.068 52.4992 81.9279C51.8735 83.967 50.7624 85.8238 49.2612 87.3389L49.2901 87.2137C49.8972 89.088 50.5284 91.0395 51.1837 93.0487L51.2753 93.3426L51.0006 93.2029L44.9247 90.124H45.0307L44.597 90.283C43.1799 90.7816 41.6788 90.9977 40.1786 90.919C38.7223 90.8636 37.2892 90.5367 35.9529 89.9553C33.4038 88.8636 31.283 86.9662 29.9155 84.5539C29.2861 83.4398 28.8265 82.2381 28.5519 80.9883C28.4766 80.6886 28.4203 80.3845 28.3832 80.0777C28.3447 79.7741 28.282 79.4754 28.2676 79.1766C28.1372 77.4622 28.3184 75.7383 28.8024 74.0884C29.1067 73.0971 29.5289 72.1459 30.06 71.2552C30.9592 69.7112 32.1762 68.376 33.6304 67.3379C34.7288 66.5612 35.9483 65.9718 37.2394 65.5936L37.9959 65.4009C38.2185 65.3493 38.4437 65.3091 38.6704 65.2804C39.022 65.2153 39.3779 65.1767 39.7353 65.1648L40.3954 65.1407C40.4705 65.1306 40.5461 65.1258 40.6219 65.1263Z" fill="#8094D4"/>
<path d="M43.3682 76.3628H42.4768L40.5494 73.6549V71.8769C40.5494 71.8769 39.1714 71.7901 39.3352 74.1174C39.499 76.4447 39.3352 75.852 39.3352 75.852C39.3352 75.852 36.4105 75.852 36.1695 76.117C35.9286 76.3821 35.9142 79.2056 35.8804 80.7812C35.862 81.161 35.971 81.5361 36.1901 81.8469C36.4092 82.1577 36.7259 82.3864 37.0898 82.4966C37.1919 82.5248 37.2972 82.5394 37.403 82.5399C38.1354 82.5399 41.86 81.9473 41.86 81.9473H43.3971L43.3682 76.3628Z" fill="#8094D4"/>
<path d="M45.9171 75.8857L45.3678 81.9762H43.8452V76.011L45.9171 75.8857Z" fill="#8094D4"/>
<path d="M64.0771 199.877V195.757L56.6906 195.704L56.6279 201.934L57.0857 201.968C59.1238 202.098 67.4548 202.291 68.8232 201.867C70.3458 201.395 64.0771 199.877 64.0771 199.877Z" fill="#8094D4"/>
<path d="M68.997 201.481C68.997 201.549 66.2313 201.607 62.8247 201.607C59.4181 201.607 56.6523 201.549 56.6523 201.481C56.6523 201.414 59.4181 201.356 62.8247 201.356C66.2313 201.356 68.997 201.414 68.997 201.481Z" fill="#263238"/>
<path d="M64.2072 200.72C64.1446 200.686 64.2072 200.47 64.3566 200.238C64.506 200.007 64.7083 199.911 64.7565 199.959C64.8047 200.007 64.7035 200.19 64.559 200.388C64.4144 200.585 64.2699 200.754 64.2072 200.72Z" fill="#263238"/>
<path d="M64.6799 200.99C64.6124 200.99 64.6461 200.72 64.7907 200.465C64.9352 200.209 65.128 200.055 65.181 200.094C65.234 200.132 65.1472 200.349 65.0123 200.576C64.8774 200.802 64.7425 201.014 64.6799 200.99Z" fill="#263238"/>
<path d="M58.8783 201.462C58.8494 201.462 58.7386 201.375 58.5796 201.192C58.3855 200.957 58.1692 200.741 57.9339 200.547C57.7025 200.362 57.4267 200.241 57.134 200.195C56.9076 200.166 56.763 200.195 56.7486 200.166C56.7341 200.137 56.8739 200.036 57.1389 200.017C57.4886 200.009 57.8298 200.125 58.1025 200.344C58.3581 200.553 58.5736 200.806 58.7386 201.091C58.8494 201.303 58.9072 201.443 58.8783 201.462Z" fill="#263238"/>
<path d="M64.2316 199.944C64.2654 200.002 64.1401 200.147 63.9281 200.224C63.7161 200.301 63.5281 200.272 63.5185 200.224C63.5089 200.176 63.6582 200.074 63.8413 200.007C64.0244 199.94 64.1931 199.887 64.2316 199.944Z" fill="#263238"/>
<path d="M64.1157 199.544C64.1157 199.617 63.9229 199.674 63.6724 199.679C63.4218 199.684 63.2243 199.626 63.2291 199.559C63.2339 199.491 63.4315 199.429 63.6724 199.424C63.9133 199.419 64.106 199.477 64.1157 199.544Z" fill="#263238"/>
<path d="M82.2666 199.877V195.757L74.88 195.704L74.8174 201.872L75.2751 201.905C77.3133 202.035 85.6491 202.291 87.0127 201.867C88.5353 201.395 82.2666 199.877 82.2666 199.877Z" fill="#8094D4"/>
<path d="M87.186 201.491C87.186 201.558 84.4251 201.616 81.0137 201.616C77.6023 201.616 74.8462 201.558 74.8462 201.491C74.8462 201.424 77.6071 201.366 81.0137 201.366C84.4203 201.366 87.186 201.424 87.186 201.491Z" fill="#263238"/>
<path d="M82.3966 200.72C82.3388 200.686 82.3966 200.47 82.546 200.238C82.6953 200.007 82.8977 199.911 82.9459 199.959C82.9941 200.007 82.8929 200.19 82.7483 200.388C82.6038 200.585 82.4592 200.754 82.3966 200.72Z" fill="#263238"/>
<path d="M82.869 200.99C82.8063 200.99 82.8352 200.72 82.9846 200.465C83.134 200.209 83.3219 200.055 83.3749 200.094C83.4279 200.132 83.3363 200.349 83.2014 200.576C83.0665 200.802 82.9364 201.014 82.869 200.99Z" fill="#263238"/>
<path d="M77.0677 201.462C77.0388 201.462 76.9328 201.375 76.769 201.192C76.5749 200.957 76.3587 200.741 76.1233 200.547C75.8919 200.362 75.6162 200.241 75.3235 200.195C75.1019 200.166 74.9525 200.195 74.938 200.166C74.9236 200.137 75.0633 200.036 75.3283 200.017C75.6781 200.009 76.0192 200.125 76.292 200.344C76.5489 200.551 76.7646 200.805 76.928 201.091C77.0388 201.303 77.0967 201.443 77.0677 201.462Z" fill="#263238"/>
<path d="M82.4211 199.944C82.4548 200.002 82.3295 200.147 82.1175 200.224C81.9055 200.301 81.7176 200.272 81.708 200.224C81.6983 200.176 81.8477 200.074 82.0308 200.007C82.2139 199.94 82.3825 199.887 82.4211 199.944Z" fill="#263238"/>
<path d="M82.315 199.544C82.315 199.617 82.1222 199.674 81.8717 199.679C81.6211 199.684 81.4284 199.626 81.4332 199.559C81.438 199.491 81.6307 199.429 81.8717 199.424C82.1126 199.419 82.315 199.477 82.315 199.544Z" fill="#263238"/>
<path d="M109.481 77.5384C109.288 77.3408 108.811 77.4372 108.811 77.4372C108.859 77.1598 108.859 76.8762 108.811 76.5988C108.724 76.329 108.117 76.382 108.117 76.382C108.089 76.1547 108.089 75.925 108.117 75.6978C108.122 75.6474 108.111 75.5968 108.086 75.5528C108.061 75.5088 108.023 75.4736 107.978 75.452C107.69 75.3349 107.382 75.2791 107.072 75.2882C106.701 75.0232 108.204 72.9176 108.763 72.243C109.322 71.5684 109.221 71.0432 108.724 71.0432C108.382 71.0432 106.628 73.0669 106.089 73.7463C105.549 74.4257 104.118 76.3145 104.07 74.8064C104.022 73.2982 103.415 72.1611 103.034 71.9683C102.653 71.7756 102.248 72.2285 102.456 72.6477C102.638 73.124 102.751 73.6236 102.793 74.1318C102.845 74.5366 102.827 74.9473 102.74 75.346C102.58 76.0878 102.363 76.816 102.089 77.5239H102.051C102.051 77.5239 91.5372 87.6088 90.7759 88.3267C90.0965 88.9724 76.4316 87.5606 73.69 87.2715C72.7583 87.1352 71.8176 87.0707 70.8761 87.0788C69.6859 87.1318 69.4739 87.3004 68.2886 87.3148C65.2952 87.3481 62.3087 87.6107 59.3553 88.1002C58.0181 88.3276 56.7689 88.9179 55.7442 89.8066C54.7195 90.6954 53.9585 91.8486 53.5444 93.1403C50.7835 101.765 44.5292 122.181 43.4258 133.648C42.592 135.16 41.8393 136.716 41.1708 138.308C40.3951 140.418 40.583 140.49 40.8432 140.539C41.5466 140.669 42.3465 136.881 42.6452 137.797C42.944 138.712 41.1274 142.312 41.8647 142.418C42.8283 142.553 43.5944 138.563 43.686 138.245C43.7775 137.927 44.2546 138.028 44.1678 138.327C44.0281 138.751 42.6741 143.246 43.6185 143.391C44.1389 143.468 44.1967 142.519 44.1967 142.519C44.1967 142.519 45.1604 138.216 45.5989 138.303C46.0374 138.39 45.57 140.929 45.3483 141.777C45.1267 142.625 45.4351 143.054 45.888 142.847C46.1964 142.702 46.9336 140.124 47.136 139.286C47.3383 138.447 47.8442 136.125 48.5236 137.469C49.203 138.814 50.2342 139.594 50.6582 139.613C50.7537 139.602 50.8438 139.563 50.9168 139.5C50.9898 139.438 51.0423 139.355 51.0677 139.262C51.0931 139.169 51.0902 139.071 51.0593 138.98C51.0284 138.889 50.9709 138.809 50.8943 138.751C50.5296 138.395 50.2166 137.989 49.9643 137.546C49.7396 137.201 49.5765 136.82 49.4825 136.419C49.2883 135.62 49.1753 134.803 49.1452 133.981L49.0681 133.499C50.1474 128.155 53.2553 112.472 57.7412 102.454L59.5818 106.241L60.3816 109.046L55.4766 121.154L76.3979 120.88L73.2756 108.863L77.0677 96.3348C81.1681 96.4264 91.6962 96.5806 93.4501 95.7855C95.6569 94.8219 107.072 80.4053 107.072 80.4053C107.816 79.8271 108.528 79.2095 109.206 78.5551C109.206 78.5551 109.9 77.972 109.481 77.5384Z" fill="#FFBE9D"/>
<path d="M54.5564 112.207C55.1635 110.135 58.281 99.8908 58.281 99.8908C58.281 99.8908 59.8133 108.241 59.4085 109.248C59.0362 110.11 58.5964 110.942 58.0931 111.734C54.5564 117.116 55.019 119.81 55.019 119.81L76.3885 119.159C76.4367 116.172 74.6683 109.224 74.3021 108.116C73.9359 107.008 75.155 103.379 75.155 103.379C75.155 103.379 77.5642 100.927 77.4774 99.6644C77.4317 98.5304 77.2914 97.4022 77.0582 96.2915L90.0678 96.7733L89.6583 87.9557L70.9726 86.0862C70.3221 87.922 64.4389 87.0209 64.4389 87.0209C58.0883 87.233 57.6932 88.399 55.0527 90.4516C52.4123 92.5043 48.042 110.12 48.042 110.12L54.5564 112.207Z" fill="#8094D4"/>
<path d="M67.1901 110.12C66.8198 110.187 66.4426 110.206 66.0674 110.178C65.3688 110.178 64.4099 110.13 63.3547 110.024C62.2995 109.918 61.3454 109.769 60.666 109.634C60.2914 109.585 59.9241 109.492 59.5723 109.354C59.949 109.354 60.3249 109.39 60.6949 109.46C61.3792 109.547 62.3284 109.667 63.3788 109.773C64.4292 109.879 65.3832 109.952 66.0722 110C66.4478 110.005 66.8221 110.045 67.1901 110.12Z" fill="#263238"/>
<path d="M68.6548 108.304C68.2844 108.485 67.8927 108.62 67.4888 108.704C65.5664 109.209 63.5831 109.444 61.5959 109.402C61.1847 109.416 60.7735 109.377 60.3721 109.287C60.7779 109.235 61.187 109.214 61.5959 109.224C62.3524 109.2 63.3932 109.147 64.54 109.012C65.6867 108.877 66.7082 108.684 67.431 108.53C67.8324 108.423 68.2416 108.347 68.6548 108.304Z" fill="#263238"/>
<path d="M75.8438 100.199C75.8341 100.567 75.784 100.932 75.6945 101.288C75.5692 101.958 75.3765 102.873 75.1307 103.876C74.885 104.878 74.6489 105.803 74.4369 106.429C74.3516 106.788 74.2255 107.136 74.061 107.465C74.0879 107.099 74.1558 106.737 74.2634 106.386C74.4465 105.634 74.6537 104.767 74.885 103.818C75.1163 102.869 75.3379 102.001 75.521 101.25C75.5862 100.888 75.6946 100.535 75.8438 100.199Z" fill="#263238"/>
<path d="M54.7829 110.978C53.6682 110.806 52.5681 110.55 51.492 110.212C50.3924 109.955 49.3133 109.616 48.2637 109.2C49.3778 109.375 50.4777 109.631 51.5546 109.966C52.6545 110.222 53.7336 110.561 54.7829 110.978Z" fill="#263238"/>
<path d="M77.2895 96.1855C77.1077 96.2168 76.9219 96.2168 76.7402 96.1855C76.2369 96.1339 75.7427 96.0156 75.2706 95.8338C74.4824 95.5376 73.7648 95.0798 73.164 94.4898C72.5632 93.8998 72.0925 93.1907 71.7821 92.4079C71.439 91.5469 71.2925 90.6201 71.3532 89.6952C71.3747 88.9323 71.6029 88.1896 72.0134 87.5462C72.3021 87.1128 72.7333 86.794 73.2324 86.6451C73.3658 86.6084 73.5036 86.5905 73.642 86.5921C73.7383 86.5921 73.7865 86.5921 73.7865 86.5921C73.7865 86.5921 73.5842 86.5921 73.2613 86.7222C72.8035 86.8914 72.4152 87.2085 72.1579 87.6233C71.5026 88.6544 71.3195 90.5384 72.0182 92.2971C72.3434 93.1263 72.8524 93.871 73.5071 94.475C74.0435 94.9692 74.6613 95.367 75.3332 95.6507C75.9638 95.8999 76.6198 96.0792 77.2895 96.1855Z" fill="#263238"/>
<path d="M88.5211 96.6C88.4006 95.1224 88.362 93.6393 88.4055 92.1574C88.3677 90.6768 88.4128 89.1953 88.5404 87.7197C88.661 89.1957 88.6996 90.6772 88.656 92.1574C88.6965 93.6396 88.6515 95.123 88.5211 96.6Z" fill="#263238"/>
<path d="M70.8473 86.6258C70.9003 85.5513 71.0111 84.3371 71.0111 84.3371C71.0111 84.3371 73.6708 84.0432 73.8298 81.2967C73.9889 78.5502 73.8298 72.2141 73.8298 72.2141L69.0115 69.7471L63.6631 73.9535L64.487 87.6859L69.3921 87.9991C69.7671 88.0094 70.1308 87.8707 70.4036 87.6133C70.6764 87.3558 70.8359 87.0007 70.8473 86.6258Z" fill="#FFBE9D"/>
<path d="M71.3244 79.1237C71.3244 79.1237 71.3244 79.1767 71.281 79.2393C71.2452 79.2847 71.1988 79.3208 71.1459 79.3443C71.093 79.3678 71.0352 79.378 70.9775 79.3742C70.6691 79.3742 70.3704 79.0177 70.2644 78.6033C70.214 78.4024 70.214 78.1922 70.2644 77.9913C70.2742 77.9037 70.3059 77.8198 70.3563 77.7475C70.4068 77.6751 70.4746 77.6165 70.5534 77.577C70.6182 77.5502 70.691 77.5502 70.7558 77.577C70.8039 77.6008 70.8428 77.6397 70.8666 77.6878C70.9004 77.7697 70.8666 77.8227 70.8666 77.8179C70.8666 77.8131 70.8666 77.7697 70.8185 77.7215C70.7933 77.687 70.7562 77.663 70.7144 77.6541C70.6727 77.6452 70.6291 77.6521 70.592 77.6733C70.5329 77.7091 70.4838 77.7592 70.4492 77.819C70.4147 77.8788 70.3959 77.9464 70.3944 78.0154C70.3539 78.1947 70.3539 78.3807 70.3944 78.5599C70.4908 78.9357 70.751 79.2393 70.9823 79.2682C71.0275 79.2743 71.0736 79.2711 71.1175 79.2587C71.1614 79.2462 71.2023 79.2249 71.2377 79.1959C71.2955 79.1574 71.3148 79.1188 71.3244 79.1237Z" fill="#EB996E"/>
<path d="M75.4826 70.7301C75.1116 69.4677 73.7672 68.8413 72.5434 68.4944C70.6786 67.9644 68.6646 67.7331 66.8432 68.4028C65.0219 69.0726 62.8343 70.2483 62.8343 72.2575C61.7598 72.1708 61.1431 73.1104 60.7191 74.2764C60.448 74.9868 60.2855 75.734 60.2372 76.4929C60.1023 79.1237 59.3651 82.7568 57.6594 84.6841C56.6957 85.7586 55.361 86.5006 54.8118 87.8401C54.3299 89.0014 54.5805 90.3794 54.1324 91.5551C53.7324 92.5911 52.8507 93.3283 52.205 94.2293C51.5472 95.2515 51.1601 96.4241 51.08 97.637C51 98.8498 51.2296 100.063 51.7473 101.163C52.2687 102.234 53.0028 103.189 53.9049 103.967C54.807 104.746 55.8582 105.333 56.9945 105.692C59.2452 106.377 61.6452 106.4 63.9088 105.76C65.6077 105.353 67.1924 104.568 68.5441 103.461C69.9271 102.332 70.8771 100.759 71.2328 99.0091C71.5749 97.0432 71.0256 95.0436 70.616 93.0873C69.3343 86.9054 69.7005 86.5825 71.3195 80.8439C71.358 80.7427 71.3773 80.6367 71.4062 80.5355C71.4351 80.4343 71.4496 80.3861 71.4689 80.309C71.5148 80.0822 71.539 79.8515 71.5411 79.62C71.3047 79.7079 71.048 79.7265 70.8013 79.6736C70.5547 79.6207 70.3282 79.4985 70.1486 79.3213C69.9686 79.1323 69.8431 78.8982 69.7854 78.6437C69.7277 78.3892 69.74 78.1238 69.821 77.8757C69.9347 77.6044 70.1041 77.36 70.3182 77.1583C70.5324 76.9566 70.7865 76.8021 71.0641 76.7049C71.599 76.4832 72.1723 76.3676 72.6975 76.1219C73.8106 75.5918 74.5815 74.4933 75.1067 73.3417C75.5385 72.5435 75.6718 71.6176 75.4826 70.7301Z" fill="#263238"/>
<path d="M71.517 79.2539C71.6188 79.4043 71.7029 79.566 71.7676 79.7357C71.9121 80.0393 72.1049 80.4681 72.3169 80.9644L72.3554 81.056H72.2542L71.7724 81.0993C71.4399 81.0993 71.1605 81.162 70.8328 81.1572C70.8043 81.1507 70.7778 81.1372 70.7559 81.1178C70.734 81.0985 70.7174 81.0739 70.7075 81.0463C70.6932 81.0025 70.6932 80.9553 70.7075 80.9114C70.7187 80.8465 70.7332 80.7821 70.7509 80.7187L70.8376 80.3766C70.8812 80.1484 70.9491 79.9255 71.04 79.7116C71.031 79.9443 70.9971 80.1753 70.9388 80.4007L70.8714 80.7428C70.8473 80.8584 70.8039 81.0367 70.8714 81.0222C71.1123 81.0222 71.4544 80.9692 71.7724 80.95L72.2542 80.9066L72.1916 81.0126C71.9844 80.5308 71.8109 80.0778 71.7098 79.7647C71.621 79.6047 71.5561 79.4326 71.517 79.2539Z" fill="#8094D4"/>
<path d="M55.0187 119.81L76.3882 119.16L85.6876 155.461L83.9771 197.102H72.678L74.0609 156.348L65.7974 131.075L67.0694 198.716L55.6499 198.884L54.4501 135.306C54.3971 133.538 53.8189 129.553 54.0357 127.799L55.0187 119.81Z" fill="#263238"/>
<path d="M68.6402 131.591C68.2904 131.613 67.9393 131.592 67.5946 131.528C66.949 131.451 66.0672 131.316 65.0987 131.124C64.1302 130.931 63.2629 130.709 62.6365 130.531C62.3017 130.457 61.9778 130.341 61.6729 130.184C61.6729 130.112 63.2436 130.488 65.171 130.878C67.0983 131.268 68.6498 131.519 68.6402 131.591Z" fill="#455A64"/>
<path d="M83.8617 194.818C83.8617 194.885 81.3032 194.943 78.1471 194.943C74.9911 194.943 72.4277 194.885 72.4277 194.818C72.4277 194.75 74.9863 194.692 78.1471 194.692C81.308 194.692 83.8617 194.745 83.8617 194.818Z" fill="#455A64"/>
<path d="M66.9683 196.957C66.9683 197.029 64.482 197.082 61.4175 197.082C58.353 197.082 55.8716 197.029 55.8716 196.957C55.8716 196.885 58.3579 196.832 61.4175 196.832C64.4772 196.832 66.9683 196.889 66.9683 196.957Z" fill="#455A64"/>
<path d="M65.494 196.784C65.4266 196.784 65.1278 182.006 64.8243 163.778C64.5207 145.55 64.3424 130.762 64.4051 130.762C64.4677 130.762 64.7761 145.535 65.0748 163.773C65.3736 182.01 65.5663 196.784 65.494 196.784Z" fill="#455A64"/>
<path d="M82.3437 194.818C82.3384 194.752 82.3384 194.686 82.3437 194.62V194.042C82.3437 193.521 82.3823 192.775 82.4112 191.825C82.4786 189.898 82.575 187.099 82.6955 183.668C82.9557 176.768 83.3219 167.257 83.7218 156.757C83.7218 156.656 83.7218 156.56 83.7218 156.473V156.507C81.1921 146.388 78.9034 137.204 77.2411 130.56L75.3137 122.701C75.0921 121.781 74.9234 121.063 74.803 120.562C74.7452 120.326 74.7066 120.143 74.6729 120.003C74.6541 119.94 74.6428 119.875 74.6392 119.81C74.6642 119.871 74.6835 119.934 74.697 119.998C74.7355 120.133 74.7837 120.316 74.8512 120.547C74.9813 121.029 75.1692 121.761 75.4101 122.677C75.8919 124.537 76.5713 127.216 77.4194 130.516C79.0961 137.156 81.409 146.316 83.9723 156.449V156.483C83.9723 156.569 83.9723 156.671 83.9723 156.767C83.5435 167.266 83.1532 176.773 82.8689 183.673C82.7196 187.108 82.5943 189.888 82.5076 191.825C82.4594 192.789 82.4208 193.521 82.3967 194.042C82.3967 194.288 82.3678 194.48 82.363 194.62C82.3637 194.686 82.3573 194.753 82.3437 194.818Z" fill="#455A64"/>
<path d="M78.6579 155.625C77.8464 155.892 77.0103 156.077 76.162 156.179C75.1212 156.357 74.2347 156.483 73.8347 156.502V156.406C73.9648 156.444 74.0323 156.468 74.0323 156.487C74.0323 156.507 73.9504 156.487 73.8155 156.487H73.5264L73.8155 156.401C74.1913 156.29 75.0779 156.107 76.1187 155.919C76.9534 155.738 77.8039 155.639 78.6579 155.625Z" fill="#455A64"/>
<path d="M78.46 157.008C77.7084 157.042 76.9552 157.009 76.2098 156.907C75.4571 156.891 74.7073 156.809 73.9692 156.661C75.4751 156.538 76.9909 156.655 78.46 157.008Z" fill="#455A64"/>
<path opacity="0.2" d="M54.9272 120.576C55.1803 120.901 55.4991 121.169 55.8627 121.363C56.2264 121.556 56.6268 121.671 57.0377 121.699C57.8983 121.801 58.7689 121.785 59.6252 121.651C65.1422 121.039 70.9869 120.475 76.3883 119.16C69.3968 119.55 62.0103 119.42 55.0188 119.81L54.9465 120.408" fill="black"/>
<g opacity="0.2">
<path d="M62.1309 130.43L66.0723 145.723L65.7976 131.075L62.1309 130.43Z" fill="black"/>
</g>
</svg>
