<svg width="287" height="272" viewBox="0 0 287 272" fill="none" xmlns="http://www.w3.org/2000/svg">
<g clip-path="url(#clip0_2736_13791)">
<path d="M286.035 189.386H0.000976562V190.258H286.035V189.386Z" fill="#3F3D56"/>
<path d="M205.794 91.922C203.145 76.043 189.343 63.9424 172.715 63.9424H104.713C88.0911 63.9424 74.2918 76.0333 71.634 91.9026C71.3272 93.7176 71.1689 95.5842 71.1689 97.4863V156.736C71.1689 158.638 71.3272 160.502 71.634 162.317C73.7493 174.96 82.9402 185.207 94.9988 188.846C98.0732 189.776 101.335 190.277 104.713 190.277H172.715C176.093 190.277 179.354 189.776 182.429 188.846C194.491 185.204 203.685 174.95 205.794 162.297C206.097 160.489 206.255 158.632 206.255 156.736V97.4863C206.255 95.5906 206.097 93.7305 205.794 91.922ZM178.469 188.846C176.6 189.179 174.678 189.353 172.715 189.353H104.713C102.749 189.353 100.828 189.179 98.9581 188.846C83.6894 186.13 72.0958 172.787 72.0958 156.736V137.069C72.0958 81.4975 117.143 64.8692 172.715 64.8692C190.728 64.8692 205.332 79.4726 205.332 97.4863V156.736C161.602 162.588 193.738 186.13 178.469 188.846Z" fill="#3F3D56"/>
<path d="M152.245 108.653L154.861 125.658L193.232 120.426L189.525 100.558L152.245 108.653Z" fill="#8094D4"/>
<path d="M182.36 13.2305H166.495V29.6518H182.36V13.2305Z" fill="#2F2E41"/>
<path d="M167.942 30.6038L171.867 18.8311H179.516L179.918 30.6038H167.942Z" fill="#FFB6B6"/>
<path opacity="0.1" d="M167.942 30.6038L171.867 18.8311H179.516L179.918 30.6038H167.942Z" fill="black"/>
<path d="M172.085 135.469L171.649 180.816L171.213 184.304V189.311L177.753 189.972L178.189 179.943C178.189 179.943 185.166 160.322 183.422 145.061C181.678 129.8 182.55 134.161 182.55 134.161L172.085 135.469Z" fill="#FFB6B6"/>
<path d="M176.236 139.031L160.146 181.429L159.283 184.837L157.462 189.501L151.129 187.738L154.371 178.238C154.371 178.238 155.01 157.423 162.186 143.842C169.363 130.261 166.964 134.005 166.964 134.005L176.236 139.031Z" fill="#FFB6B6"/>
<path d="M167.942 29.2966L156.169 34.5289L163.686 73.3407L162.499 129.046L154.65 145.615C154.65 145.615 153.335 155.091 166.852 148.986C180.369 142.882 195.63 141.138 195.63 141.138L191.924 115.63L188.653 48.6998L189.089 33.8749L179.497 27.7705C179.497 27.7705 167.942 29.2966 167.942 29.2966Z" fill="#2F2E41"/>
<path d="M161.386 146.22L148.321 124.35L163.251 73.3399L156.17 34.5281L168.592 29.21C168.592 29.21 175.023 35.4724 175.023 40.6378C175.023 45.8032 161.386 146.22 161.386 146.22Z" fill="#E6E6E6"/>
<path d="M189.728 141.859L177.869 39.991C177.719 38.7047 177.939 37.4024 178.502 36.2363L181.896 29.21L195.194 33.002L189.849 74.6479L204.133 115.629L189.728 141.859Z" fill="#E6E6E6"/>
<path d="M179.062 189.101C179.062 189.101 170.777 184.304 169.905 186.92C169.033 189.537 168.597 191.717 168.597 191.717C168.597 191.717 166.417 200.001 172.957 200.001C179.498 200.001 179.062 196.233 179.062 196.233V189.101Z" fill="#2F2E41"/>
<path d="M150.228 186.449C150.228 186.449 159.69 184.995 159.551 187.749C159.411 190.503 159.024 192.693 159.024 192.693C159.024 192.693 158.041 201.203 151.949 198.823C145.857 196.444 147.634 193.093 147.634 193.093L150.228 186.449Z" fill="#2F2E41"/>
<path d="M176.201 25.2388C182.188 25.2388 187.041 20.3857 187.041 14.3992C187.041 8.41263 182.188 3.55957 176.201 3.55957C170.214 3.55957 165.361 8.41263 165.361 14.3992C165.361 20.3857 170.214 25.2388 176.201 25.2388Z" fill="#FFB6B6"/>
<path d="M184.861 4.73958C184.357 2.06701 181.613 0.259333 178.903 0.0326548C176.193 -0.194023 173.538 0.829391 171.097 2.02932C169.443 2.84272 167.814 3.75952 166.473 5.02562C165.133 6.29172 164.092 7.94566 163.852 9.77358C163.767 10.4203 163.778 11.096 163.513 11.6922C163.183 12.4369 162.473 12.9427 162.044 13.6358C161.276 14.8789 161.629 16.6874 162.808 17.5503C161.326 18.1821 159.802 18.8412 158.672 19.9901C157.542 21.139 156.889 22.9128 157.509 24.4004C157.729 24.9267 158.091 25.3873 158.279 25.9258C158.635 26.9483 158.296 28.1099 157.665 28.9892C157.033 29.8686 156.141 30.5207 155.266 31.1573C157.516 31.5984 159.814 31.9422 162.098 31.7364C164.382 31.5306 166.675 30.73 168.329 29.1413C169.984 27.5525 170.894 25.1017 170.3 22.8863C169.845 21.1891 168.574 19.702 168.575 17.945C168.575 16.5944 169.335 15.3761 170.068 14.2419C171.67 11.765 173.271 9.28805 174.872 6.81112C175.161 6.36558 175.464 5.90452 175.92 5.632C176.694 5.16839 177.698 5.37226 178.515 5.75706C179.331 6.14187 180.077 6.69394 180.948 6.93253C182.724 7.41947 184.785 6.30121 185.345 4.54632" fill="#2F2E41"/>
<path d="M178.458 26.7837C177.555 27.6584 176.253 27.9401 175.047 28.2946C173.841 28.649 172.557 29.2065 172.014 30.3406C171.482 31.4527 171.868 32.8643 172.75 33.7264C173.631 34.5885 174.912 34.9516 176.145 34.9345C177.377 34.9174 178.579 34.5561 179.738 34.1366C182.908 32.9894 185.911 31.3802 188.621 29.3756C186.866 28.8898 185.717 26.8396 186.22 25.0885C186.629 23.6641 187.879 22.6706 188.73 21.4572C190.194 19.368 190.438 16.6141 189.953 14.109C189.468 11.6039 188.326 9.28172 187.196 6.99405C186.839 6.27088 186.473 5.53548 185.916 4.95237C185.359 4.36927 184.569 3.95152 183.767 4.03506C182.436 4.17369 181.586 5.63523 181.577 6.97376C181.568 8.31228 182.155 9.57026 182.6 10.8325C183.059 12.133 183.378 13.5115 183.255 14.8851C183.152 16.0362 182.733 17.1574 182.057 18.0944C181.534 18.818 180.869 19.4252 180.301 20.1136C179.861 20.6458 179.472 21.2486 179.357 21.9289C179.146 23.1668 179.873 24.4194 179.674 25.6592C179.463 26.9697 178.084 27.9731 176.773 27.7699" fill="#2F2E41"/>
<path d="M145.307 178.181C165.776 178.181 182.37 161.588 182.37 141.119C182.37 120.65 165.776 104.057 145.307 104.057C124.838 104.057 108.245 120.65 108.245 141.119C108.245 161.588 124.838 178.181 145.307 178.181Z" fill="#8094D4"/>
<path d="M167.514 138.145H162.906C162.19 133.921 159.978 130.096 156.675 127.368C149.073 121.089 137.82 122.162 131.541 129.763C131.52 129.788 131.499 129.813 131.48 129.838C130.978 130.488 131.098 131.422 131.749 131.924C132.399 132.426 133.333 132.305 133.835 131.655C136.562 128.351 140.691 126.248 145.307 126.248C152.374 126.248 158.466 131.221 159.881 138.145H155.818C155.645 138.145 155.476 138.206 155.343 138.317C155.027 138.58 154.985 139.049 155.247 139.365L161.095 146.384C161.124 146.419 161.155 146.45 161.19 146.479C161.505 146.742 161.974 146.7 162.237 146.384L168.085 139.365C168.196 139.231 168.257 139.063 168.257 138.889C168.257 138.478 167.924 138.145 167.514 138.145Z" fill="white"/>
<path d="M158.866 150.315C158.215 149.814 157.282 149.934 156.78 150.584C154.616 153.204 151.621 155.004 148.293 155.686C140.243 157.334 132.381 152.144 130.733 144.094H134.796C135.207 144.094 135.54 143.761 135.539 143.35C135.539 143.177 135.478 143.008 135.367 142.875L129.519 135.855C129.256 135.54 128.788 135.497 128.472 135.76C128.438 135.789 128.406 135.821 128.377 135.855L122.53 142.875C122.267 143.19 122.31 143.659 122.625 143.922C122.759 144.033 122.927 144.094 123.101 144.094H127.708C128.425 148.318 130.637 152.143 133.94 154.872C141.542 161.151 152.794 160.078 159.073 152.476C159.094 152.452 159.115 152.427 159.135 152.401C159.637 151.751 159.516 150.817 158.866 150.315Z" fill="white"/>
<path d="M155.654 103.423C155.206 106.635 153.184 109.007 151.14 108.721C149.096 108.435 147.804 105.6 148.253 102.387C148.415 101.101 148.883 99.8727 149.617 98.8045L151.69 85.2197L158.045 86.3287L155.326 99.6032C155.739 100.832 155.851 102.142 155.654 103.423Z" fill="#FFB6B6"/>
<path d="M161.184 33.8748C161.184 33.8748 154.644 31.6946 153.772 39.5431C152.9 47.3916 152.028 56.9842 152.028 56.9842C152.028 56.9842 148.103 66.1408 149.847 70.9371C151.591 75.7334 154.644 72.3894 151.591 76.4595C148.539 80.5297 148.965 93.9213 148.965 93.9213L158.786 93.4269C158.786 93.4269 164.236 57.4202 164.236 56.5482C164.236 55.6761 161.184 33.8748 161.184 33.8748Z" fill="#E6E6E6"/>
<path d="M203.696 101.966C203.818 105.207 202.244 107.896 200.182 107.973C198.119 108.05 196.35 105.486 196.228 102.244C196.162 100.949 196.407 99.658 196.942 98.4777L196.6 84.7397L203.051 84.7168L202.703 98.2624C203.325 99.3998 203.666 100.67 203.696 101.966Z" fill="#FFB6B6"/>
<path d="M193.628 33.7268C193.628 33.7268 200.206 31.6638 200.938 39.5266C201.669 47.3895 202.37 61.7924 202.37 61.7924C202.37 61.7924 206.13 71.0177 204.3 75.782C202.471 80.5464 199.479 77.1484 202.458 81.2724C205.437 85.3965 204.368 97.0267 204.368 97.0267L194.557 96.3569C194.557 96.3569 190.155 62.0102 190.171 61.1383C190.187 60.2664 193.628 33.7268 193.628 33.7268Z" fill="#E6E6E6"/>
</g>
<path d="M48.8547 234.16C47.98 234.16 47.1747 234.021 46.4387 233.744C45.7133 233.456 45.0787 233.056 44.5347 232.544C43.9907 232.021 43.5693 231.408 43.2707 230.704C42.972 230 42.8227 229.232 42.8227 228.4C42.8227 227.568 42.972 226.8 43.2707 226.096C43.5693 225.392 43.9907 224.784 44.5347 224.272C45.0893 223.749 45.7347 223.349 46.4707 223.072C47.2067 222.784 48.012 222.64 48.8867 222.64C49.836 222.64 50.6893 222.795 51.4467 223.104C52.2147 223.413 52.86 223.867 53.3827 224.464L52.0707 225.744C51.6333 225.307 51.1587 224.987 50.6467 224.784C50.1453 224.571 49.5907 224.464 48.9827 224.464C48.396 224.464 47.852 224.56 47.3507 224.752C46.8493 224.944 46.4173 225.216 46.0547 225.568C45.692 225.92 45.4093 226.336 45.2067 226.816C45.0147 227.296 44.9187 227.824 44.9187 228.4C44.9187 228.965 45.0147 229.488 45.2067 229.968C45.4093 230.448 45.692 230.869 46.0547 231.232C46.4173 231.584 46.844 231.856 47.3347 232.048C47.8253 232.24 48.3693 232.336 48.9667 232.336C49.5213 232.336 50.0547 232.251 50.5667 232.08C51.0893 231.899 51.5853 231.6 52.0547 231.184L53.2387 232.736C52.652 233.205 51.9693 233.563 51.1907 233.808C50.4227 234.043 49.644 234.16 48.8547 234.16ZM51.2707 232.464V228.272H53.2387V232.736L51.2707 232.464ZM59.406 234.112C58.6807 234.112 58.0407 233.979 57.486 233.712C56.9314 233.435 56.4994 233.019 56.19 232.464C55.8807 231.899 55.726 231.189 55.726 230.336V225.456H57.726V230.064C57.726 230.832 57.8967 231.408 58.238 231.792C58.59 232.165 59.086 232.352 59.726 232.352C60.1954 232.352 60.6007 232.256 60.942 232.064C61.294 231.872 61.566 231.584 61.758 231.2C61.9607 230.816 62.062 230.341 62.062 229.776V225.456H64.062V234H62.158V231.696L62.494 232.4C62.206 232.955 61.7847 233.381 61.23 233.68C60.6754 233.968 60.0674 234.112 59.406 234.112ZM70.6967 234.112C69.7473 234.112 68.9153 233.925 68.2007 233.552C67.4967 233.168 66.9473 232.645 66.5527 231.984C66.1687 231.323 65.9767 230.571 65.9767 229.728C65.9767 228.875 66.1633 228.123 66.5367 227.472C66.9207 226.811 67.4433 226.293 68.1047 225.92C68.7767 225.547 69.5393 225.36 70.3927 225.36C71.2247 225.36 71.966 225.541 72.6167 225.904C73.2673 226.267 73.7793 226.779 74.1527 227.44C74.526 228.101 74.7127 228.88 74.7127 229.776C74.7127 229.861 74.7073 229.957 74.6967 230.064C74.6967 230.171 74.6913 230.272 74.6807 230.368H67.5607V229.04H73.6247L72.8407 229.456C72.8513 228.965 72.75 228.533 72.5367 228.16C72.3233 227.787 72.03 227.493 71.6567 227.28C71.294 227.067 70.8727 226.96 70.3927 226.96C69.902 226.96 69.47 227.067 69.0967 227.28C68.734 227.493 68.446 227.792 68.2327 228.176C68.03 228.549 67.9287 228.992 67.9287 229.504V229.824C67.9287 230.336 68.046 230.789 68.2807 231.184C68.5153 231.579 68.846 231.883 69.2727 232.096C69.6993 232.309 70.19 232.416 70.7447 232.416C71.2247 232.416 71.6567 232.341 72.0407 232.192C72.4247 232.043 72.766 231.808 73.0647 231.488L74.1367 232.72C73.7527 233.168 73.2673 233.515 72.6807 233.76C72.1047 233.995 71.4433 234.112 70.6967 234.112ZM79.2738 234.112C78.5591 234.112 77.8711 234.021 77.2098 233.84C76.5591 233.648 76.0418 233.419 75.6578 233.152L76.4258 231.632C76.8098 231.877 77.2684 232.08 77.8018 232.24C78.3351 232.4 78.8684 232.48 79.4018 232.48C80.0311 232.48 80.4844 232.395 80.7618 232.224C81.0498 232.053 81.1938 231.824 81.1938 231.536C81.1938 231.301 81.0978 231.125 80.9058 231.008C80.7138 230.88 80.4631 230.784 80.1538 230.72C79.8444 230.656 79.4978 230.597 79.1138 230.544C78.7404 230.491 78.3618 230.421 77.9778 230.336C77.6044 230.24 77.2631 230.107 76.9538 229.936C76.6444 229.755 76.3938 229.515 76.2018 229.216C76.0098 228.917 75.9138 228.523 75.9138 228.032C75.9138 227.488 76.0684 227.019 76.3778 226.624C76.6871 226.219 77.1191 225.909 77.6738 225.696C78.2391 225.472 78.9058 225.36 79.6738 225.36C80.2498 225.36 80.8311 225.424 81.4178 225.552C82.0044 225.68 82.4898 225.861 82.8738 226.096L82.1058 227.616C81.7004 227.371 81.2898 227.205 80.8738 227.12C80.4684 227.024 80.0631 226.976 79.6578 226.976C79.0498 226.976 78.5964 227.067 78.2978 227.248C78.0098 227.429 77.8658 227.659 77.8658 227.936C77.8658 228.192 77.9618 228.384 78.1538 228.512C78.3458 228.64 78.5964 228.741 78.9058 228.816C79.2151 228.891 79.5564 228.955 79.9298 229.008C80.3138 229.051 80.6924 229.12 81.0658 229.216C81.4391 229.312 81.7804 229.445 82.0898 229.616C82.4098 229.776 82.6658 230.005 82.8578 230.304C83.0498 230.603 83.1458 230.992 83.1458 231.472C83.1458 232.005 82.9858 232.469 82.6658 232.864C82.3564 233.259 81.9138 233.568 81.3378 233.792C80.7618 234.005 80.0738 234.112 79.2738 234.112ZM88.0842 234.112C87.1455 234.112 86.4202 233.872 85.9082 233.392C85.3962 232.901 85.1402 232.181 85.1402 231.232V223.568H87.1402V231.184C87.1402 231.589 87.2415 231.904 87.4442 232.128C87.6575 232.352 87.9508 232.464 88.3242 232.464C88.7722 232.464 89.1455 232.347 89.4442 232.112L90.0042 233.536C89.7695 233.728 89.4815 233.872 89.1402 233.968C88.7988 234.064 88.4468 234.112 88.0842 234.112ZM83.7322 227.12V225.52H89.4282V227.12H83.7322ZM96.2633 234V222.8H101.159C102.375 222.8 103.442 223.035 104.359 223.504C105.277 223.973 105.991 224.624 106.503 225.456C107.015 226.288 107.271 227.269 107.271 228.4C107.271 229.52 107.015 230.501 106.503 231.344C105.991 232.176 105.277 232.827 104.359 233.296C103.442 233.765 102.375 234 101.159 234H96.2633ZM98.3433 232.24H101.063C101.906 232.24 102.631 232.08 103.239 231.76C103.858 231.44 104.333 230.992 104.663 230.416C105.005 229.84 105.175 229.168 105.175 228.4C105.175 227.621 105.005 226.949 104.663 226.384C104.333 225.808 103.858 225.36 103.239 225.04C102.631 224.72 101.906 224.56 101.063 224.56H98.3433V232.24ZM113.306 234.112C112.357 234.112 111.525 233.925 110.81 233.552C110.106 233.168 109.557 232.645 109.162 231.984C108.778 231.323 108.586 230.571 108.586 229.728C108.586 228.875 108.773 228.123 109.146 227.472C109.53 226.811 110.053 226.293 110.714 225.92C111.386 225.547 112.149 225.36 113.002 225.36C113.834 225.36 114.575 225.541 115.226 225.904C115.877 226.267 116.389 226.779 116.762 227.44C117.135 228.101 117.322 228.88 117.322 229.776C117.322 229.861 117.317 229.957 117.306 230.064C117.306 230.171 117.301 230.272 117.29 230.368H110.17V229.04H116.234L115.45 229.456C115.461 228.965 115.359 228.533 115.146 228.16C114.933 227.787 114.639 227.493 114.266 227.28C113.903 227.067 113.482 226.96 113.002 226.96C112.511 226.96 112.079 227.067 111.706 227.28C111.343 227.493 111.055 227.792 110.842 228.176C110.639 228.549 110.538 228.992 110.538 229.504V229.824C110.538 230.336 110.655 230.789 110.89 231.184C111.125 231.579 111.455 231.883 111.882 232.096C112.309 232.309 112.799 232.416 113.354 232.416C113.834 232.416 114.266 232.341 114.65 232.192C115.034 232.043 115.375 231.808 115.674 231.488L116.746 232.72C116.362 233.168 115.877 233.515 115.29 233.76C114.714 233.995 114.053 234.112 113.306 234.112ZM122.459 234.112C121.52 234.112 120.795 233.872 120.283 233.392C119.771 232.901 119.515 232.181 119.515 231.232V223.568H121.515V231.184C121.515 231.589 121.616 231.904 121.819 232.128C122.032 232.352 122.326 232.464 122.699 232.464C123.147 232.464 123.52 232.347 123.819 232.112L124.379 233.536C124.144 233.728 123.856 233.872 123.515 233.968C123.174 234.064 122.822 234.112 122.459 234.112ZM118.107 227.12V225.52H123.803V227.12H118.107ZM131.288 234V232.272L131.176 231.904V228.88C131.176 228.293 131 227.84 130.648 227.52C130.296 227.189 129.763 227.024 129.048 227.024C128.568 227.024 128.094 227.099 127.624 227.248C127.166 227.397 126.776 227.605 126.456 227.872L125.672 226.416C126.131 226.064 126.675 225.803 127.304 225.632C127.944 225.451 128.606 225.36 129.288 225.36C130.526 225.36 131.48 225.659 132.152 226.256C132.835 226.843 133.176 227.755 133.176 228.992V234H131.288ZM128.6 234.112C127.96 234.112 127.4 234.005 126.92 233.792C126.44 233.568 126.067 233.264 125.8 232.88C125.544 232.485 125.416 232.043 125.416 231.552C125.416 231.072 125.528 230.64 125.752 230.256C125.987 229.872 126.366 229.568 126.888 229.344C127.411 229.12 128.104 229.008 128.968 229.008H131.448V230.336H129.112C128.43 230.336 127.971 230.448 127.736 230.672C127.502 230.885 127.384 231.152 127.384 231.472C127.384 231.835 127.528 232.123 127.816 232.336C128.104 232.549 128.504 232.656 129.016 232.656C129.507 232.656 129.944 232.544 130.328 232.32C130.723 232.096 131.006 231.765 131.176 231.328L131.512 232.528C131.32 233.029 130.974 233.419 130.472 233.696C129.982 233.973 129.358 234.112 128.6 234.112ZM135.743 234V225.456H137.743V234H135.743ZM136.751 224.048C136.378 224.048 136.068 223.931 135.823 223.696C135.588 223.461 135.471 223.179 135.471 222.848C135.471 222.507 135.588 222.224 135.823 222C136.068 221.765 136.378 221.648 136.751 221.648C137.124 221.648 137.428 221.76 137.663 221.984C137.908 222.197 138.031 222.469 138.031 222.8C138.031 223.152 137.914 223.451 137.679 223.696C137.444 223.931 137.135 224.048 136.751 224.048ZM140.368 234V222.128H142.368V234H140.368ZM147.633 234.112C146.918 234.112 146.23 234.021 145.569 233.84C144.918 233.648 144.401 233.419 144.017 233.152L144.785 231.632C145.169 231.877 145.628 232.08 146.161 232.24C146.694 232.4 147.228 232.48 147.761 232.48C148.39 232.48 148.844 232.395 149.121 232.224C149.409 232.053 149.553 231.824 149.553 231.536C149.553 231.301 149.457 231.125 149.265 231.008C149.073 230.88 148.822 230.784 148.513 230.72C148.204 230.656 147.857 230.597 147.473 230.544C147.1 230.491 146.721 230.421 146.337 230.336C145.964 230.24 145.622 230.107 145.313 229.936C145.004 229.755 144.753 229.515 144.561 229.216C144.369 228.917 144.273 228.523 144.273 228.032C144.273 227.488 144.428 227.019 144.737 226.624C145.046 226.219 145.478 225.909 146.033 225.696C146.598 225.472 147.265 225.36 148.033 225.36C148.609 225.36 149.19 225.424 149.777 225.552C150.364 225.68 150.849 225.861 151.233 226.096L150.465 227.616C150.06 227.371 149.649 227.205 149.233 227.12C148.828 227.024 148.422 226.976 148.017 226.976C147.409 226.976 146.956 227.067 146.657 227.248C146.369 227.429 146.225 227.659 146.225 227.936C146.225 228.192 146.321 228.384 146.513 228.512C146.705 228.64 146.956 228.741 147.265 228.816C147.574 228.891 147.916 228.955 148.289 229.008C148.673 229.051 149.052 229.12 149.425 229.216C149.798 229.312 150.14 229.445 150.449 229.616C150.769 229.776 151.025 230.005 151.217 230.304C151.409 230.603 151.505 230.992 151.505 231.472C151.505 232.005 151.345 232.469 151.025 232.864C150.716 233.259 150.273 233.568 149.697 233.792C149.121 234.005 148.433 234.112 147.633 234.112ZM157.841 234V222.8H159.553L166.577 231.424H165.729V222.8H167.793V234H166.081L159.057 225.376H159.905V234H157.841ZM174.443 234.112C173.568 234.112 172.789 233.925 172.107 233.552C171.424 233.168 170.885 232.645 170.491 231.984C170.096 231.323 169.899 230.571 169.899 229.728C169.899 228.875 170.096 228.123 170.491 227.472C170.885 226.811 171.424 226.293 172.107 225.92C172.789 225.547 173.568 225.36 174.443 225.36C175.328 225.36 176.112 225.547 176.795 225.92C177.488 226.293 178.027 226.805 178.411 227.456C178.805 228.107 179.003 228.864 179.003 229.728C179.003 230.571 178.805 231.323 178.411 231.984C178.027 232.645 177.488 233.168 176.795 233.552C176.112 233.925 175.328 234.112 174.443 234.112ZM174.443 232.4C174.933 232.4 175.371 232.293 175.755 232.08C176.139 231.867 176.437 231.557 176.651 231.152C176.875 230.747 176.987 230.272 176.987 229.728C176.987 229.173 176.875 228.699 176.651 228.304C176.437 227.899 176.139 227.589 175.755 227.376C175.371 227.163 174.939 227.056 174.459 227.056C173.968 227.056 173.531 227.163 173.147 227.376C172.773 227.589 172.475 227.899 172.251 228.304C172.027 228.699 171.915 229.173 171.915 229.728C171.915 230.272 172.027 230.747 172.251 231.152C172.475 231.557 172.773 231.867 173.147 232.08C173.531 232.293 173.963 232.4 174.443 232.4ZM184.131 234.112C183.192 234.112 182.467 233.872 181.955 233.392C181.443 232.901 181.187 232.181 181.187 231.232V223.568H183.187V231.184C183.187 231.589 183.288 231.904 183.491 232.128C183.704 232.352 183.998 232.464 184.371 232.464C184.819 232.464 185.192 232.347 185.491 232.112L186.051 233.536C185.816 233.728 185.528 233.872 185.187 233.968C184.846 234.064 184.494 234.112 184.131 234.112ZM179.779 227.12V225.52H185.475V227.12H179.779ZM194.214 227.952H199.798V229.712H194.214V227.952ZM194.39 234H192.31V222.8H200.486V224.544H194.39V234ZM205.911 234.112C205.037 234.112 204.258 233.925 203.575 233.552C202.893 233.168 202.354 232.645 201.959 231.984C201.565 231.323 201.367 230.571 201.367 229.728C201.367 228.875 201.565 228.123 201.959 227.472C202.354 226.811 202.893 226.293 203.575 225.92C204.258 225.547 205.037 225.36 205.911 225.36C206.797 225.36 207.581 225.547 208.263 225.92C208.957 226.293 209.495 226.805 209.879 227.456C210.274 228.107 210.471 228.864 210.471 229.728C210.471 230.571 210.274 231.323 209.879 231.984C209.495 232.645 208.957 233.168 208.263 233.552C207.581 233.925 206.797 234.112 205.911 234.112ZM205.911 232.4C206.402 232.4 206.839 232.293 207.223 232.08C207.607 231.867 207.906 231.557 208.119 231.152C208.343 230.747 208.455 230.272 208.455 229.728C208.455 229.173 208.343 228.699 208.119 228.304C207.906 227.899 207.607 227.589 207.223 227.376C206.839 227.163 206.407 227.056 205.927 227.056C205.437 227.056 204.999 227.163 204.615 227.376C204.242 227.589 203.943 227.899 203.719 228.304C203.495 228.699 203.383 229.173 203.383 229.728C203.383 230.272 203.495 230.747 203.719 231.152C203.943 231.557 204.242 231.867 204.615 232.08C204.999 232.293 205.431 232.4 205.911 232.4ZM216 234.112C215.274 234.112 214.634 233.979 214.08 233.712C213.525 233.435 213.093 233.019 212.784 232.464C212.474 231.899 212.32 231.189 212.32 230.336V225.456H214.32V230.064C214.32 230.832 214.49 231.408 214.832 231.792C215.184 232.165 215.68 232.352 216.32 232.352C216.789 232.352 217.194 232.256 217.536 232.064C217.888 231.872 218.16 231.584 218.352 231.2C218.554 230.816 218.656 230.341 218.656 229.776V225.456H220.656V234H218.752V231.696L219.088 232.4C218.8 232.955 218.378 233.381 217.824 233.68C217.269 233.968 216.661 234.112 216 234.112ZM228.122 225.36C228.805 225.36 229.413 225.493 229.946 225.76C230.49 226.027 230.917 226.437 231.226 226.992C231.536 227.536 231.69 228.24 231.69 229.104V234H229.69V229.36C229.69 228.603 229.509 228.037 229.146 227.664C228.794 227.291 228.298 227.104 227.658 227.104C227.189 227.104 226.773 227.2 226.41 227.392C226.048 227.584 225.765 227.872 225.562 228.256C225.37 228.629 225.274 229.104 225.274 229.68V234H223.274V225.456H225.178V227.76L224.842 227.056C225.141 226.512 225.573 226.096 226.138 225.808C226.714 225.509 227.376 225.36 228.122 225.36ZM237.859 234.112C237.038 234.112 236.296 233.931 235.635 233.568C234.984 233.195 234.472 232.683 234.099 232.032C233.726 231.381 233.539 230.613 233.539 229.728C233.539 228.843 233.726 228.075 234.099 227.424C234.472 226.773 234.984 226.267 235.635 225.904C236.296 225.541 237.038 225.36 237.859 225.36C238.574 225.36 239.214 225.52 239.779 225.84C240.344 226.149 240.792 226.624 241.123 227.264C241.454 227.904 241.619 228.725 241.619 229.728C241.619 230.72 241.459 231.541 241.139 232.192C240.819 232.832 240.376 233.312 239.811 233.632C239.246 233.952 238.595 234.112 237.859 234.112ZM238.099 232.4C238.579 232.4 239.006 232.293 239.379 232.08C239.763 231.867 240.067 231.557 240.291 231.152C240.526 230.747 240.643 230.272 240.643 229.728C240.643 229.173 240.526 228.699 240.291 228.304C240.067 227.899 239.763 227.589 239.379 227.376C239.006 227.163 238.579 227.056 238.099 227.056C237.619 227.056 237.187 227.163 236.803 227.376C236.43 227.589 236.126 227.899 235.891 228.304C235.667 228.699 235.555 229.173 235.555 229.728C235.555 230.272 235.667 230.747 235.891 231.152C236.126 231.557 236.43 231.867 236.803 232.08C237.187 232.293 237.619 232.4 238.099 232.4ZM240.691 234V231.984L240.771 229.712L240.611 227.44V222.128H242.595V234H240.691Z" fill="black"/>
<path d="M9.92415 266L6.14815 254.8H7.36415L10.9002 265.344H10.2922L13.9402 254.8H15.0282L18.6282 265.344H18.0522L21.6202 254.8H22.7562L18.9802 266H17.7322L14.2922 256H14.6122L11.1562 266H9.92415ZM27.6144 266.08C26.7397 266.08 25.9717 265.899 25.3104 265.536C24.6491 265.163 24.1317 264.656 23.7584 264.016C23.3851 263.365 23.1984 262.624 23.1984 261.792C23.1984 260.96 23.3744 260.224 23.7264 259.584C24.0891 258.944 24.5797 258.443 25.1984 258.08C25.8277 257.707 26.5317 257.52 27.3104 257.52C28.0997 257.52 28.7984 257.701 29.4064 258.064C30.0251 258.416 30.5104 258.917 30.8624 259.568C31.2144 260.208 31.3904 260.949 31.3904 261.792C31.3904 261.845 31.3851 261.904 31.3744 261.968C31.3744 262.021 31.3744 262.08 31.3744 262.144H24.0624V261.296H30.7664L30.3184 261.632C30.3184 261.024 30.1851 260.485 29.9184 260.016C29.6624 259.536 29.3104 259.163 28.8624 258.896C28.4144 258.629 27.8971 258.496 27.3104 258.496C26.7344 258.496 26.2171 258.629 25.7584 258.896C25.2997 259.163 24.9424 259.536 24.6864 260.016C24.4304 260.496 24.3024 261.045 24.3024 261.664V261.84C24.3024 262.48 24.4411 263.045 24.7184 263.536C25.0064 264.016 25.4011 264.395 25.9024 264.672C26.4144 264.939 26.9957 265.072 27.6464 265.072C28.1584 265.072 28.6331 264.981 29.0704 264.8C29.5184 264.619 29.9024 264.341 30.2224 263.968L30.8624 264.704C30.4891 265.152 30.0197 265.493 29.4544 265.728C28.8997 265.963 28.2864 266.08 27.6144 266.08ZM41.3782 266.08C40.5462 266.08 39.7995 265.899 39.1382 265.536C38.4875 265.163 37.9755 264.656 37.6022 264.016C37.2288 263.365 37.0422 262.624 37.0422 261.792C37.0422 260.949 37.2288 260.208 37.6022 259.568C37.9755 258.928 38.4875 258.427 39.1382 258.064C39.7995 257.701 40.5462 257.52 41.3782 257.52C42.0928 257.52 42.7382 257.659 43.3142 257.936C43.8902 258.213 44.3435 258.629 44.6742 259.184L43.8262 259.76C43.5382 259.333 43.1808 259.019 42.7542 258.816C42.3275 258.613 41.8635 258.512 41.3622 258.512C40.7648 258.512 40.2262 258.651 39.7462 258.928C39.2662 259.195 38.8875 259.573 38.6102 260.064C38.3328 260.555 38.1942 261.131 38.1942 261.792C38.1942 262.453 38.3328 263.029 38.6102 263.52C38.8875 264.011 39.2662 264.395 39.7462 264.672C40.2262 264.939 40.7648 265.072 41.3622 265.072C41.8635 265.072 42.3275 264.971 42.7542 264.768C43.1808 264.565 43.5382 264.256 43.8262 263.84L44.6742 264.416C44.3435 264.96 43.8902 265.376 43.3142 265.664C42.7382 265.941 42.0928 266.08 41.3782 266.08ZM50.1892 266.08C49.3785 266.08 48.6478 265.899 47.9972 265.536C47.3572 265.163 46.8505 264.656 46.4772 264.016C46.1038 263.365 45.9172 262.624 45.9172 261.792C45.9172 260.949 46.1038 260.208 46.4772 259.568C46.8505 258.928 47.3572 258.427 47.9972 258.064C48.6372 257.701 49.3678 257.52 50.1892 257.52C51.0212 257.52 51.7572 257.701 52.3972 258.064C53.0478 258.427 53.5545 258.928 53.9172 259.568C54.2905 260.208 54.4772 260.949 54.4772 261.792C54.4772 262.624 54.2905 263.365 53.9172 264.016C53.5545 264.656 53.0478 265.163 52.3972 265.536C51.7465 265.899 51.0105 266.08 50.1892 266.08ZM50.1892 265.072C50.7972 265.072 51.3358 264.939 51.8052 264.672C52.2745 264.395 52.6425 264.011 52.9092 263.52C53.1865 263.019 53.3252 262.443 53.3252 261.792C53.3252 261.131 53.1865 260.555 52.9092 260.064C52.6425 259.573 52.2745 259.195 51.8052 258.928C51.3358 258.651 50.8025 258.512 50.2052 258.512C49.6078 258.512 49.0745 258.651 48.6052 258.928C48.1358 259.195 47.7625 259.573 47.4852 260.064C47.2078 260.555 47.0692 261.131 47.0692 261.792C47.0692 262.443 47.2078 263.019 47.4852 263.52C47.7625 264.011 48.1358 264.395 48.6052 264.672C49.0745 264.939 49.6025 265.072 50.1892 265.072ZM60.2684 266.08C59.5537 266.08 58.9297 265.947 58.3964 265.68C57.8631 265.413 57.4471 265.013 57.1484 264.48C56.8604 263.947 56.7164 263.28 56.7164 262.48V257.6H57.8524V262.352C57.8524 263.248 58.0711 263.925 58.5084 264.384C58.9564 264.832 59.5804 265.056 60.3804 265.056C60.9671 265.056 61.4737 264.939 61.9004 264.704C62.3377 264.459 62.6684 264.107 62.8924 263.648C63.1271 263.189 63.2444 262.64 63.2444 262V257.6H64.3804V266H63.2924V263.696L63.4684 264.112C63.2017 264.731 62.7857 265.216 62.2204 265.568C61.6657 265.909 61.0151 266.08 60.2684 266.08ZM67.5464 266V254.128H68.6824V266H67.5464ZM75.1873 266.08C74.3873 266.08 73.6673 265.899 73.0273 265.536C72.3979 265.173 71.9019 264.672 71.5393 264.032C71.1766 263.381 70.9953 262.635 70.9953 261.792C70.9953 260.939 71.1766 260.192 71.5393 259.552C71.9019 258.912 72.3979 258.416 73.0273 258.064C73.6673 257.701 74.3873 257.52 75.1873 257.52C75.9233 257.52 76.5793 257.685 77.1553 258.016C77.7419 258.347 78.2059 258.832 78.5473 259.472C78.8993 260.101 79.0753 260.875 79.0753 261.792C79.0753 262.699 78.9046 263.472 78.5633 264.112C78.2219 264.752 77.7579 265.243 77.1713 265.584C76.5953 265.915 75.9339 266.08 75.1873 266.08ZM75.2673 265.072C75.8646 265.072 76.3979 264.939 76.8673 264.672C77.3473 264.395 77.7206 264.011 77.9873 263.52C78.2646 263.019 78.4033 262.443 78.4033 261.792C78.4033 261.131 78.2646 260.555 77.9873 260.064C77.7206 259.573 77.3473 259.195 76.8673 258.928C76.3979 258.651 75.8646 258.512 75.2673 258.512C74.6806 258.512 74.1526 258.651 73.6833 258.928C73.2139 259.195 72.8406 259.573 72.5633 260.064C72.2859 260.555 72.1473 261.131 72.1473 261.792C72.1473 262.443 72.2859 263.019 72.5633 263.52C72.8406 264.011 73.2139 264.395 73.6833 264.672C74.1526 264.939 74.6806 265.072 75.2673 265.072ZM78.4353 266V263.472L78.5473 261.776L78.3873 260.08V254.128H79.5233V266H78.4353ZM86.975 257.52C87.6577 257.52 88.255 257.653 88.767 257.92C89.2897 258.176 89.695 258.571 89.983 259.104C90.2817 259.637 90.431 260.309 90.431 261.12V266H89.295V261.232C89.295 260.347 89.071 259.68 88.623 259.232C88.1857 258.773 87.567 258.544 86.767 258.544C86.1697 258.544 85.647 258.667 85.199 258.912C84.7617 259.147 84.4204 259.493 84.175 259.952C83.9404 260.4 83.823 260.944 83.823 261.584V266H82.687V257.6H83.775V259.904L83.599 259.472C83.8657 258.864 84.2924 258.389 84.879 258.048C85.4657 257.696 86.1644 257.52 86.975 257.52ZM93.0995 259.024L93.0195 254.8H94.0275L93.9475 259.024H93.0995ZM99.3899 266.08C98.6006 266.08 97.9926 265.867 97.5659 265.44C97.1392 265.013 96.9259 264.411 96.9259 263.632V255.744H98.0619V263.568C98.0619 264.059 98.1846 264.437 98.4299 264.704C98.6859 264.971 99.0486 265.104 99.5179 265.104C100.019 265.104 100.435 264.96 100.766 264.672L101.166 265.488C100.942 265.691 100.67 265.84 100.35 265.936C100.041 266.032 99.7206 266.08 99.3899 266.08ZM95.4219 258.544V257.6H100.622V258.544H95.4219ZM107.613 266V256.544C107.613 255.797 107.832 255.195 108.269 254.736C108.707 254.277 109.336 254.048 110.157 254.048C110.477 254.048 110.787 254.091 111.085 254.176C111.384 254.261 111.635 254.395 111.837 254.576L111.453 255.424C111.293 255.285 111.107 255.184 110.893 255.12C110.68 255.045 110.451 255.008 110.205 255.008C109.725 255.008 109.357 255.141 109.101 255.408C108.845 255.675 108.717 256.069 108.717 256.592V257.872L108.749 258.4V266H107.613ZM106.109 258.544V257.6H111.309V258.544H106.109ZM112.845 266V257.6H113.981V266H112.845ZM113.421 255.744C113.187 255.744 112.989 255.664 112.829 255.504C112.669 255.344 112.589 255.152 112.589 254.928C112.589 254.704 112.669 254.517 112.829 254.368C112.989 254.208 113.187 254.128 113.421 254.128C113.656 254.128 113.853 254.203 114.013 254.352C114.173 254.501 114.253 254.688 114.253 254.912C114.253 255.147 114.173 255.344 114.013 255.504C113.864 255.664 113.667 255.744 113.421 255.744ZM121.459 257.52C122.142 257.52 122.739 257.653 123.251 257.92C123.774 258.176 124.179 258.571 124.467 259.104C124.766 259.637 124.915 260.309 124.915 261.12V266H123.779V261.232C123.779 260.347 123.555 259.68 123.107 259.232C122.67 258.773 122.051 258.544 121.251 258.544C120.654 258.544 120.131 258.667 119.683 258.912C119.246 259.147 118.905 259.493 118.659 259.952C118.425 260.4 118.307 260.944 118.307 261.584V266H117.171V257.6H118.259V259.904L118.083 259.472C118.35 258.864 118.777 258.389 119.363 258.048C119.95 257.696 120.649 257.52 121.459 257.52ZM131.328 266.08C130.528 266.08 129.808 265.899 129.168 265.536C128.539 265.173 128.043 264.672 127.68 264.032C127.317 263.381 127.136 262.635 127.136 261.792C127.136 260.939 127.317 260.192 127.68 259.552C128.043 258.912 128.539 258.416 129.168 258.064C129.808 257.701 130.528 257.52 131.328 257.52C132.064 257.52 132.72 257.685 133.296 258.016C133.883 258.347 134.347 258.832 134.688 259.472C135.04 260.101 135.216 260.875 135.216 261.792C135.216 262.699 135.045 263.472 134.704 264.112C134.363 264.752 133.899 265.243 133.312 265.584C132.736 265.915 132.075 266.08 131.328 266.08ZM131.408 265.072C132.005 265.072 132.539 264.939 133.008 264.672C133.488 264.395 133.861 264.011 134.128 263.52C134.405 263.019 134.544 262.443 134.544 261.792C134.544 261.131 134.405 260.555 134.128 260.064C133.861 259.573 133.488 259.195 133.008 258.928C132.539 258.651 132.005 258.512 131.408 258.512C130.821 258.512 130.293 258.651 129.824 258.928C129.355 259.195 128.981 259.573 128.704 260.064C128.427 260.555 128.288 261.131 128.288 261.792C128.288 262.443 128.427 263.019 128.704 263.52C128.981 264.011 129.355 264.395 129.824 264.672C130.293 264.939 130.821 265.072 131.408 265.072ZM134.576 266V263.472L134.688 261.776L134.528 260.08V254.128H135.664V266H134.576ZM148.279 266V264.144L148.231 263.84V260.736C148.231 260.021 148.028 259.472 147.623 259.088C147.228 258.704 146.636 258.512 145.847 258.512C145.303 258.512 144.786 258.603 144.295 258.784C143.804 258.965 143.388 259.205 143.047 259.504L142.535 258.656C142.962 258.293 143.474 258.016 144.071 257.824C144.668 257.621 145.298 257.52 145.959 257.52C147.047 257.52 147.884 257.792 148.471 258.336C149.068 258.869 149.367 259.685 149.367 260.784V266H148.279ZM145.383 266.08C144.754 266.08 144.204 265.979 143.735 265.776C143.276 265.563 142.924 265.275 142.679 264.912C142.434 264.539 142.311 264.112 142.311 263.632C142.311 263.195 142.412 262.8 142.615 262.448C142.828 262.085 143.17 261.797 143.639 261.584C144.119 261.36 144.759 261.248 145.559 261.248H148.455V262.096H145.591C144.78 262.096 144.215 262.24 143.895 262.528C143.586 262.816 143.431 263.173 143.431 263.6C143.431 264.08 143.618 264.464 143.991 264.752C144.364 265.04 144.887 265.184 145.559 265.184C146.199 265.184 146.748 265.04 147.207 264.752C147.676 264.453 148.018 264.027 148.231 263.472L148.487 264.256C148.274 264.811 147.9 265.253 147.367 265.584C146.844 265.915 146.183 266.08 145.383 266.08ZM156.741 257.52C157.423 257.52 158.021 257.653 158.533 257.92C159.055 258.176 159.461 258.571 159.749 259.104C160.047 259.637 160.197 260.309 160.197 261.12V266H159.061V261.232C159.061 260.347 158.837 259.68 158.389 259.232C157.951 258.773 157.333 258.544 156.533 258.544C155.935 258.544 155.413 258.667 154.965 258.912C154.527 259.147 154.186 259.493 153.941 259.952C153.706 260.4 153.589 260.944 153.589 261.584V266H152.453V257.6H153.541V259.904L153.365 259.472C153.631 258.864 154.058 258.389 154.645 258.048C155.231 257.696 155.93 257.52 156.741 257.52ZM163.173 269.184C162.778 269.184 162.4 269.12 162.037 268.992C161.685 268.864 161.381 268.672 161.125 268.416L161.653 267.568C161.866 267.771 162.096 267.925 162.341 268.032C162.597 268.149 162.88 268.208 163.189 268.208C163.562 268.208 163.882 268.101 164.149 267.888C164.426 267.685 164.688 267.323 164.933 266.8L165.477 265.568L165.605 265.392L169.061 257.6H170.181L165.973 267.008C165.738 267.552 165.477 267.984 165.189 268.304C164.912 268.624 164.608 268.848 164.277 268.976C163.946 269.115 163.578 269.184 163.173 269.184ZM165.413 266.24L161.541 257.6H162.725L166.149 265.312L165.413 266.24ZM179.552 269.184C178.784 269.184 178.048 269.072 177.344 268.848C176.64 268.624 176.07 268.304 175.632 267.888L176.208 267.024C176.603 267.376 177.088 267.653 177.664 267.856C178.251 268.069 178.87 268.176 179.52 268.176C180.587 268.176 181.371 267.925 181.872 267.424C182.374 266.933 182.624 266.165 182.624 265.12V263.024L182.784 261.584L182.672 260.144V257.6H183.76V264.976C183.76 266.427 183.403 267.488 182.688 268.16C181.984 268.843 180.939 269.184 179.552 269.184ZM179.344 265.68C178.544 265.68 177.824 265.509 177.184 265.168C176.544 264.816 176.038 264.331 175.664 263.712C175.302 263.093 175.12 262.384 175.12 261.584C175.12 260.784 175.302 260.08 175.664 259.472C176.038 258.853 176.544 258.373 177.184 258.032C177.824 257.691 178.544 257.52 179.344 257.52C180.091 257.52 180.763 257.675 181.36 257.984C181.958 258.293 182.432 258.752 182.784 259.36C183.136 259.968 183.312 260.709 183.312 261.584C183.312 262.459 183.136 263.2 182.784 263.808C182.432 264.416 181.958 264.88 181.36 265.2C180.763 265.52 180.091 265.68 179.344 265.68ZM179.456 264.672C180.075 264.672 180.624 264.544 181.104 264.288C181.584 264.021 181.963 263.659 182.24 263.2C182.518 262.731 182.656 262.192 182.656 261.584C182.656 260.976 182.518 260.443 182.24 259.984C181.963 259.525 181.584 259.168 181.104 258.912C180.624 258.645 180.075 258.512 179.456 258.512C178.848 258.512 178.299 258.645 177.808 258.912C177.328 259.168 176.95 259.525 176.672 259.984C176.406 260.443 176.272 260.976 176.272 261.584C176.272 262.192 176.406 262.731 176.672 263.2C176.95 263.659 177.328 264.021 177.808 264.288C178.299 264.544 178.848 264.672 179.456 264.672ZM190.393 266.08C189.679 266.08 189.055 265.947 188.521 265.68C187.988 265.413 187.572 265.013 187.273 264.48C186.985 263.947 186.841 263.28 186.841 262.48V257.6H187.977V262.352C187.977 263.248 188.196 263.925 188.633 264.384C189.081 264.832 189.705 265.056 190.505 265.056C191.092 265.056 191.599 264.939 192.025 264.704C192.463 264.459 192.793 264.107 193.017 263.648C193.252 263.189 193.369 262.64 193.369 262V257.6H194.505V266H193.417V263.696L193.593 264.112C193.327 264.731 192.911 265.216 192.345 265.568C191.791 265.909 191.14 266.08 190.393 266.08ZM201.239 266.08C200.365 266.08 199.597 265.899 198.935 265.536C198.274 265.163 197.757 264.656 197.383 264.016C197.01 263.365 196.823 262.624 196.823 261.792C196.823 260.96 196.999 260.224 197.351 259.584C197.714 258.944 198.205 258.443 198.823 258.08C199.453 257.707 200.157 257.52 200.935 257.52C201.725 257.52 202.423 257.701 203.031 258.064C203.65 258.416 204.135 258.917 204.487 259.568C204.839 260.208 205.015 260.949 205.015 261.792C205.015 261.845 205.01 261.904 204.999 261.968C204.999 262.021 204.999 262.08 204.999 262.144H197.687V261.296H204.391L203.943 261.632C203.943 261.024 203.81 260.485 203.543 260.016C203.287 259.536 202.935 259.163 202.487 258.896C202.039 258.629 201.522 258.496 200.935 258.496C200.359 258.496 199.842 258.629 199.383 258.896C198.925 259.163 198.567 259.536 198.311 260.016C198.055 260.496 197.927 261.045 197.927 261.664V261.84C197.927 262.48 198.066 263.045 198.343 263.536C198.631 264.016 199.026 264.395 199.527 264.672C200.039 264.939 200.621 265.072 201.271 265.072C201.783 265.072 202.258 264.981 202.695 264.8C203.143 264.619 203.527 264.341 203.847 263.968L204.487 264.704C204.114 265.152 203.645 265.493 203.079 265.728C202.525 265.963 201.911 266.08 201.239 266.08ZM209.584 266.08C208.89 266.08 208.234 265.984 207.616 265.792C206.997 265.589 206.512 265.339 206.16 265.04L206.672 264.144C207.013 264.4 207.45 264.624 207.984 264.816C208.517 264.997 209.077 265.088 209.664 265.088C210.464 265.088 211.04 264.965 211.392 264.72C211.744 264.464 211.92 264.128 211.92 263.712C211.92 263.403 211.818 263.163 211.616 262.992C211.424 262.811 211.168 262.677 210.848 262.592C210.528 262.496 210.17 262.416 209.776 262.352C209.381 262.288 208.986 262.213 208.592 262.128C208.208 262.043 207.856 261.92 207.536 261.76C207.216 261.589 206.954 261.36 206.752 261.072C206.56 260.784 206.464 260.4 206.464 259.92C206.464 259.461 206.592 259.051 206.848 258.688C207.104 258.325 207.477 258.043 207.968 257.84C208.469 257.627 209.077 257.52 209.792 257.52C210.336 257.52 210.88 257.595 211.424 257.744C211.968 257.883 212.416 258.069 212.768 258.304L212.272 259.216C211.898 258.96 211.498 258.779 211.072 258.672C210.645 258.555 210.218 258.496 209.792 258.496C209.034 258.496 208.474 258.629 208.112 258.896C207.76 259.152 207.584 259.483 207.584 259.888C207.584 260.208 207.68 260.459 207.872 260.64C208.074 260.821 208.336 260.965 208.656 261.072C208.986 261.168 209.344 261.248 209.728 261.312C210.122 261.376 210.512 261.456 210.896 261.552C211.29 261.637 211.648 261.76 211.968 261.92C212.298 262.069 212.56 262.288 212.752 262.576C212.954 262.853 213.056 263.221 213.056 263.68C213.056 264.171 212.917 264.597 212.64 264.96C212.373 265.312 211.978 265.589 211.456 265.792C210.944 265.984 210.32 266.08 209.584 266.08ZM217.796 266.08C217.007 266.08 216.399 265.867 215.972 265.44C215.545 265.013 215.332 264.411 215.332 263.632V255.744H216.468V263.568C216.468 264.059 216.591 264.437 216.836 264.704C217.092 264.971 217.455 265.104 217.924 265.104C218.425 265.104 218.841 264.96 219.172 264.672L219.572 265.488C219.348 265.691 219.076 265.84 218.756 265.936C218.447 266.032 218.127 266.08 217.796 266.08ZM213.828 258.544V257.6H219.028V258.544H213.828ZM229.172 266.08C228.372 266.08 227.652 265.899 227.012 265.536C226.382 265.173 225.886 264.672 225.524 264.032C225.161 263.381 224.98 262.635 224.98 261.792C224.98 260.939 225.161 260.192 225.524 259.552C225.886 258.912 226.382 258.416 227.012 258.064C227.652 257.701 228.372 257.52 229.172 257.52C229.908 257.52 230.564 257.685 231.14 258.016C231.726 258.347 232.19 258.832 232.532 259.472C232.884 260.101 233.06 260.875 233.06 261.792C233.06 262.699 232.889 263.472 232.548 264.112C232.206 264.752 231.742 265.243 231.156 265.584C230.58 265.915 229.918 266.08 229.172 266.08ZM229.252 265.072C229.849 265.072 230.382 264.939 230.852 264.672C231.332 264.395 231.705 264.011 231.972 263.52C232.249 263.019 232.388 262.443 232.388 261.792C232.388 261.131 232.249 260.555 231.972 260.064C231.705 259.573 231.332 259.195 230.852 258.928C230.382 258.651 229.849 258.512 229.252 258.512C228.665 258.512 228.137 258.651 227.668 258.928C227.198 259.195 226.825 259.573 226.548 260.064C226.27 260.555 226.132 261.131 226.132 261.792C226.132 262.443 226.27 263.019 226.548 263.52C226.825 264.011 227.198 264.395 227.668 264.672C228.137 264.939 228.665 265.072 229.252 265.072ZM232.42 266V263.472L232.532 261.776L232.372 260.08V254.128H233.508V266H232.42ZM240.239 266.08C239.365 266.08 238.597 265.899 237.935 265.536C237.274 265.163 236.757 264.656 236.383 264.016C236.01 263.365 235.823 262.624 235.823 261.792C235.823 260.96 235.999 260.224 236.351 259.584C236.714 258.944 237.205 258.443 237.823 258.08C238.453 257.707 239.157 257.52 239.935 257.52C240.725 257.52 241.423 257.701 242.031 258.064C242.65 258.416 243.135 258.917 243.487 259.568C243.839 260.208 244.015 260.949 244.015 261.792C244.015 261.845 244.01 261.904 243.999 261.968C243.999 262.021 243.999 262.08 243.999 262.144H236.687V261.296H243.391L242.943 261.632C242.943 261.024 242.81 260.485 242.543 260.016C242.287 259.536 241.935 259.163 241.487 258.896C241.039 258.629 240.522 258.496 239.935 258.496C239.359 258.496 238.842 258.629 238.383 258.896C237.925 259.163 237.567 259.536 237.311 260.016C237.055 260.496 236.927 261.045 236.927 261.664V261.84C236.927 262.48 237.066 263.045 237.343 263.536C237.631 264.016 238.026 264.395 238.527 264.672C239.039 264.939 239.621 265.072 240.271 265.072C240.783 265.072 241.258 264.981 241.695 264.8C242.143 264.619 242.527 264.341 242.847 263.968L243.487 264.704C243.114 265.152 242.645 265.493 242.079 265.728C241.525 265.963 240.911 266.08 240.239 266.08ZM248.984 266.08C248.194 266.08 247.586 265.867 247.16 265.44C246.733 265.013 246.52 264.411 246.52 263.632V255.744H247.656V263.568C247.656 264.059 247.778 264.437 248.024 264.704C248.28 264.971 248.642 265.104 249.112 265.104C249.613 265.104 250.029 264.96 250.36 264.672L250.76 265.488C250.536 265.691 250.264 265.84 249.944 265.936C249.634 266.032 249.314 266.08 248.984 266.08ZM245.016 258.544V257.6H250.216V258.544H245.016ZM258.092 266V264.144L258.044 263.84V260.736C258.044 260.021 257.841 259.472 257.436 259.088C257.041 258.704 256.449 258.512 255.66 258.512C255.116 258.512 254.598 258.603 254.108 258.784C253.617 258.965 253.201 259.205 252.86 259.504L252.348 258.656C252.774 258.293 253.286 258.016 253.884 257.824C254.481 257.621 255.11 257.52 255.772 257.52C256.86 257.52 257.697 257.792 258.284 258.336C258.881 258.869 259.18 259.685 259.18 260.784V266H258.092ZM255.196 266.08C254.566 266.08 254.017 265.979 253.548 265.776C253.089 265.563 252.737 265.275 252.492 264.912C252.246 264.539 252.124 264.112 252.124 263.632C252.124 263.195 252.225 262.8 252.428 262.448C252.641 262.085 252.982 261.797 253.452 261.584C253.932 261.36 254.572 261.248 255.372 261.248H258.268V262.096H255.404C254.593 262.096 254.028 262.24 253.708 262.528C253.398 262.816 253.244 263.173 253.244 263.6C253.244 264.08 253.43 264.464 253.804 264.752C254.177 265.04 254.7 265.184 255.372 265.184C256.012 265.184 256.561 265.04 257.02 264.752C257.489 264.453 257.83 264.027 258.044 263.472L258.3 264.256C258.086 264.811 257.713 265.253 257.18 265.584C256.657 265.915 255.996 266.08 255.196 266.08ZM262.265 266V257.6H263.401V266H262.265ZM262.841 255.744C262.606 255.744 262.409 255.664 262.249 255.504C262.089 255.344 262.009 255.152 262.009 254.928C262.009 254.704 262.089 254.517 262.249 254.368C262.409 254.208 262.606 254.128 262.841 254.128C263.076 254.128 263.273 254.203 263.433 254.352C263.593 254.501 263.673 254.688 263.673 254.912C263.673 255.147 263.593 255.344 263.433 255.504C263.284 255.664 263.086 255.744 262.841 255.744ZM266.562 266V254.128H267.698V266H266.562ZM273.115 266.08C272.422 266.08 271.766 265.984 271.147 265.792C270.528 265.589 270.043 265.339 269.691 265.04L270.203 264.144C270.544 264.4 270.982 264.624 271.515 264.816C272.048 264.997 272.608 265.088 273.195 265.088C273.995 265.088 274.571 264.965 274.923 264.72C275.275 264.464 275.451 264.128 275.451 263.712C275.451 263.403 275.35 263.163 275.147 262.992C274.955 262.811 274.699 262.677 274.379 262.592C274.059 262.496 273.702 262.416 273.307 262.352C272.912 262.288 272.518 262.213 272.123 262.128C271.739 262.043 271.387 261.92 271.067 261.76C270.747 261.589 270.486 261.36 270.283 261.072C270.091 260.784 269.995 260.4 269.995 259.92C269.995 259.461 270.123 259.051 270.379 258.688C270.635 258.325 271.008 258.043 271.499 257.84C272 257.627 272.608 257.52 273.323 257.52C273.867 257.52 274.411 257.595 274.955 257.744C275.499 257.883 275.947 258.069 276.299 258.304L275.803 259.216C275.43 258.96 275.03 258.779 274.603 258.672C274.176 258.555 273.75 258.496 273.323 258.496C272.566 258.496 272.006 258.629 271.643 258.896C271.291 259.152 271.115 259.483 271.115 259.888C271.115 260.208 271.211 260.459 271.403 260.64C271.606 260.821 271.867 260.965 272.187 261.072C272.518 261.168 272.875 261.248 273.259 261.312C273.654 261.376 274.043 261.456 274.427 261.552C274.822 261.637 275.179 261.76 275.499 261.92C275.83 262.069 276.091 262.288 276.283 262.576C276.486 262.853 276.587 263.221 276.587 263.68C276.587 264.171 276.448 264.597 276.171 264.96C275.904 265.312 275.51 265.589 274.987 265.792C274.475 265.984 273.851 266.08 273.115 266.08ZM278.783 266.08C278.549 266.08 278.346 265.995 278.175 265.824C278.015 265.653 277.935 265.445 277.935 265.2C277.935 264.944 278.015 264.736 278.175 264.576C278.346 264.416 278.549 264.336 278.783 264.336C279.018 264.336 279.215 264.416 279.375 264.576C279.546 264.736 279.631 264.944 279.631 265.2C279.631 265.445 279.546 265.653 279.375 265.824C279.215 265.995 279.018 266.08 278.783 266.08Z" fill="black"/>
<defs>
<clipPath id="clip0_2736_13791">
<rect width="286.034" height="200" fill="white"/>
</clipPath>
</defs>
</svg>
