<svg width="24" height="24" viewBox="0 0 24 24" fill="none" xmlns="http://www.w3.org/2000/svg">
<path d="M2.21996 2.22008C2.09313 2.34695 2.01597 2.51507 2.00249 2.69395C1.989 2.87284 2.04008 3.05063 2.14646 3.19508L2.21996 3.28058L6.25496 7.31558C4.28816 8.69425 2.88392 10.7354 2.29946 13.0651C2.25645 13.2562 2.28994 13.4566 2.39275 13.6233C2.49556 13.7901 2.65954 13.91 2.84962 13.9574C3.0397 14.0048 3.24078 13.976 3.40988 13.8771C3.57897 13.7782 3.70265 13.617 3.75446 13.4281C4.27311 11.3602 5.55074 9.56321 7.33346 8.39408L9.14396 10.2046C8.4177 10.9595 8.01654 11.9693 8.02669 13.0168C8.03684 14.0643 8.45747 15.0661 9.19822 15.8068C9.93897 16.5476 10.9407 16.9682 11.9883 16.9783C13.0358 16.9885 14.0455 16.5873 14.8005 15.8611L20.7195 21.7801C20.8533 21.9134 21.0325 21.9912 21.2213 21.9982C21.41 22.0051 21.5944 21.9405 21.7377 21.8174C21.8809 21.6942 21.9724 21.5216 21.9938 21.3339C22.0153 21.1462 21.9652 20.9574 21.8535 20.8051L21.78 20.7196L15.6675 14.6056V14.6041L14.4675 13.4056L11.598 10.5361L8.71946 7.65758L7.58696 6.52508L3.28046 2.22008C3.13982 2.07947 2.94908 2.00049 2.75021 2.00049C2.55134 2.00049 2.36061 2.07947 2.21996 2.22008ZM10.2045 11.2651L13.7385 14.8006C13.2664 15.2537 12.6356 15.5037 11.9813 15.497C11.327 15.4903 10.7015 15.2274 10.2388 14.7648C9.77612 14.3021 9.51324 13.6765 9.50654 13.0222C9.49984 12.368 9.75136 11.7371 10.2045 11.2651ZM12 5.50058C10.9995 5.50058 10.029 5.64758 9.11096 5.92508L10.3485 7.16108C10.8845 7.05508 11.435 7.00158 12 7.00058C13.8946 7.00091 15.735 7.63389 17.229 8.79911C18.723 9.96432 19.7852 11.595 20.247 13.4326C20.2988 13.6215 20.4224 13.7827 20.5915 13.8816C20.7606 13.9805 20.9617 14.0093 21.1518 13.9619C21.3419 13.9145 21.5059 13.7946 21.6087 13.6278C21.7115 13.4611 21.745 13.2607 21.702 13.0696C21.1592 10.9074 19.9098 8.98842 18.1522 7.61718C16.3945 6.24594 14.2292 5.501 12 5.50058ZM12.195 9.01058L15.996 12.8101C15.9466 11.818 15.5303 10.8796 14.8279 10.1772C14.1255 9.47476 13.1871 9.05995 12.195 9.01058Z" fill="#2D3439"/>
</svg>
