<svg width="20" height="20" viewBox="0 0 20 20" fill="none" xmlns="http://www.w3.org/2000/svg">
<path d="M9.82554 8.89419L9.77721 9.11503C9.56755 10.0897 9.18117 11.0178 8.63721 11.8534M8.63721 11.8534C9.53744 11.4574 10.49 11.193 11.4655 11.0684L11.5447 11.0575M8.63721 11.8534C8.28943 12.0056 7.94832 12.1772 7.61388 12.3684L6.19221 13.1809C5.79638 13.4067 5.71138 14.0092 6.02388 14.3667C6.30054 14.6825 6.75721 14.6484 6.99471 14.2942L8.58638 11.93L8.63721 11.8534ZM9.82471 8.89419L10.2139 7.11419C10.3489 6.49919 9.75054 6.01753 9.28888 6.36919C9.04138 6.55753 8.94971 6.92336 9.07221 7.23336L9.27721 7.74753C9.4361 8.14697 9.6186 8.52919 9.82471 8.89419ZM9.82471 8.89419C10.2786 9.70267 10.8593 10.4331 11.5447 11.0575M11.5447 11.0575L13.4239 10.8192C13.9505 10.7525 14.3322 11.3784 14.0955 11.9192C13.923 12.3142 13.4947 12.46 13.1614 12.2375L12.4522 11.7642C12.1328 11.5512 11.8295 11.315 11.5447 11.0575Z" stroke="#4D5962" stroke-width="0.833333"/>
<path d="M6.49382 17.7084H13.5071C14.2807 17.7084 15.0226 17.4011 15.5695 16.8541C16.1165 16.3072 16.4238 15.5653 16.4238 14.7917V10.1834C16.4241 9.40996 16.1171 8.66807 15.5705 8.12091L10.5963 3.14591C10.3255 2.87508 10.0039 2.66026 9.65002 2.5137C9.29614 2.36714 8.91685 2.29172 8.53381 2.29175H6.49382C5.72027 2.29175 4.9784 2.59904 4.43142 3.14602C3.88444 3.693 3.57715 4.43487 3.57715 5.20841V14.7917C3.57715 15.5653 3.88444 16.3072 4.43142 16.8541C4.9784 17.4011 5.72027 17.7084 6.49382 17.7084Z" stroke="#4D5962" stroke-width="1.25" stroke-linecap="round" stroke-linejoin="round"/>
</svg>
