<svg width="24" height="25" viewBox="0 0 24 25" fill="none" xmlns="http://www.w3.org/2000/svg">
<path d="M18 3.5H14.82C14.4 2.34 13.3 1.5 12 1.5C10.7 1.5 9.6 2.34 9.18 3.5H6C4.9 3.5 4 4.4 4 5.5V20.5C4 21.6 4.9 22.5 6 22.5H12.11C11.5176 21.9264 11.0362 21.2484 10.69 20.5H6V5.5H8V6.5C8 7.6 8.9 8.5 10 8.5H14C15.1 8.5 16 7.6 16 6.5V5.5H18V10.58C18.71 10.68 19.38 10.89 20 11.18V5.5C20 4.4 19.1 3.5 18 3.5ZM12 5.5C11.45 5.5 11 5.05 11 4.5C11 3.95 11.45 3.5 12 3.5C12.55 3.5 13 3.95 13 4.5C13 5.05 12.55 5.5 12 5.5ZM17 12.5C14.24 12.5 12 14.74 12 17.5C12 20.26 14.24 22.5 17 22.5C19.76 22.5 22 20.26 22 17.5C22 14.74 19.76 12.5 17 12.5ZM18.29 19.5L16.64 17.85C16.5458 17.7577 16.4919 17.6319 16.49 17.5V15.01C16.49 14.73 16.71 14.51 16.99 14.51C17.27 14.51 17.49 14.73 17.49 15.01V17.3L18.99 18.8C19.0367 18.8458 19.0739 18.9004 19.0994 18.9606C19.1249 19.0209 19.1382 19.0856 19.1385 19.151C19.1389 19.2165 19.1262 19.2813 19.1013 19.3418C19.0764 19.4023 19.0398 19.4573 18.9936 19.5036C18.9473 19.5498 18.8923 19.5864 18.8318 19.6113C18.7713 19.6362 18.7065 19.6489 18.641 19.6485C18.5756 19.6482 18.5109 19.6349 18.4506 19.6094C18.3904 19.5839 18.3358 19.5467 18.29 19.5Z" fill="#A50F0F"/>
</svg>
