<svg width="36" height="36" viewBox="0 0 36 36" fill="none" xmlns="http://www.w3.org/2000/svg">
<rect width="36" height="36" rx="18" fill="#ECF1F3"/>
<path d="M24.6673 18.0003V12.7912C24.6674 12.7254 24.6544 12.6602 24.6293 12.5995C24.6041 12.5387 24.5672 12.4835 24.5207 12.437L21.8973 9.81366C21.8036 9.71986 21.6765 9.66711 21.544 9.66699H11.834C11.7014 9.66699 11.5742 9.71967 11.4804 9.81344C11.3867 9.90721 11.334 10.0344 11.334 10.167V25.8337C11.334 25.9663 11.3867 26.0934 11.4804 26.1872C11.5742 26.281 11.7014 26.3337 11.834 26.3337H18.834M14.6673 16.3337H21.334M14.6673 13.0003H18.0007M14.6673 19.667H17.1673" stroke="#2D3439" stroke-linecap="round" stroke-linejoin="round"/>
<path d="M21.334 9.66699V12.5003C21.334 12.6329 21.3867 12.7601 21.4804 12.8539C21.5742 12.9476 21.7014 13.0003 21.834 13.0003H24.6673M24.6607 20.6045L26.7907 21.1453C27.0123 21.202 27.1682 21.4037 27.1615 21.632C27.0182 26.4303 24.2507 27.167 24.2507 27.167C24.2507 27.167 21.4832 26.4303 21.3398 21.632C21.3375 21.5209 21.373 21.4123 21.4403 21.3239C21.5077 21.2356 21.6029 21.1726 21.7107 21.1453L23.8407 20.6045C24.1098 20.5362 24.3915 20.5362 24.6607 20.6045Z" stroke="#2D3439" stroke-linecap="round" stroke-linejoin="round"/>
</svg>
