<svg width="36" height="36" viewBox="0 0 36 36" fill="none" xmlns="http://www.w3.org/2000/svg">
<rect width="36" height="36" rx="18" fill="#ECF1F3"/>
<path d="M9.66602 9.66699H26.3327" stroke="#2D3439" stroke-linecap="round" stroke-linejoin="round"/>
<path d="M23.832 9.66699H12.1654C11.7051 9.66699 11.332 10.0401 11.332 10.5003V25.5003C11.332 25.9606 11.7051 26.3337 12.1654 26.3337H23.832C24.2923 26.3337 24.6654 25.9606 24.6654 25.5003V10.5003C24.6654 10.0401 24.2923 9.66699 23.832 9.66699Z" stroke="#2D3439" stroke-linejoin="round"/>
<path d="M16.332 21.334H19.6654V26.334H16.332V21.334Z" stroke="#2D3439" stroke-linecap="round" stroke-linejoin="round"/>
<path d="M14.25 13H15.0833M14.25 15.5H15.0833M17.5833 13H18.4167M17.5833 15.5H18.4167M20.9167 13H21.75M20.9167 15.5H21.75" stroke="#2D3439" stroke-linecap="round"/>
<path d="M9.66602 26.334H26.3327M19.666 21.334H20.4993C20.7293 21.334 20.9202 21.1457 20.876 20.9198C20.646 19.7365 19.4456 18.834 17.9993 18.834C16.5531 18.834 15.3527 19.7361 15.1227 20.9198C15.0785 21.1457 15.2693 21.334 15.4993 21.334H16.3327" stroke="#2D3439" stroke-linecap="round" stroke-linejoin="round"/>
</svg>
