<svg width="18" height="18" viewBox="0 0 18 18" fill="none" xmlns="http://www.w3.org/2000/svg">
<path d="M10.8301 4.33462L3.14856 12.0146C2.92017 12.2429 2.77155 12.5388 2.72481 12.8584L2.31006 15.6889L5.14131 15.2741C5.46093 15.2272 5.75686 15.0783 5.98506 14.8496L13.6651 7.16962M10.8301 4.33462L12.5018 2.66212C12.6132 2.55066 12.7455 2.46224 12.8911 2.40192C13.0368 2.34159 13.1928 2.31055 13.3504 2.31055C13.508 2.31055 13.6641 2.34159 13.8097 2.40192C13.9553 2.46224 14.0876 2.55066 14.1991 2.66212L15.3376 3.80062C15.449 3.91205 15.5374 4.04435 15.5978 4.18996C15.6581 4.33557 15.6891 4.49163 15.6891 4.64924C15.6891 4.80685 15.6581 4.96292 15.5978 5.10852C15.5374 5.25413 15.449 5.38643 15.3376 5.49787L13.6651 7.16962M10.8301 4.33462L13.6651 7.16962" stroke="#2D3439" stroke-width="1.5" stroke-linecap="round" stroke-linejoin="round"/>
</svg>
