<svg width="36" height="36" viewBox="0 0 36 36" fill="none" xmlns="http://www.w3.org/2000/svg">
<rect width="36" height="36" rx="18" fill="#ECF1F3"/>
<path d="M23.0004 16.8054C23.0004 16.4594 23.0004 16.2864 23.0524 16.1324C23.2034 15.6844 23.6024 15.5114 24.0024 15.3294C24.4504 15.1244 24.6744 15.0224 24.8974 15.0044C25.1494 14.9844 25.4024 15.0384 25.6184 15.1594C25.9044 15.3194 26.1044 15.6254 26.3084 15.8734C27.2514 17.0194 27.7234 17.5924 27.8954 18.2234C28.0354 18.7334 28.0354 19.2674 27.8954 19.7764C27.6444 20.6984 26.8494 21.4704 26.2604 22.1864C25.9594 22.5514 25.8084 22.7344 25.6184 22.8414C25.3987 22.9632 25.1478 23.0172 24.8974 22.9964C24.6744 22.9784 24.4504 22.8764 24.0014 22.6714C23.6014 22.4894 23.2034 22.3164 23.0524 21.8684C23.0004 21.7144 23.0004 21.5414 23.0004 21.1954V16.8054ZM13.0004 16.8054C13.0004 16.3694 12.9884 15.9784 12.6364 15.6724C12.5084 15.5614 12.3384 15.4844 11.9994 15.3294C11.5504 15.1254 11.3264 15.0224 11.1034 15.0044C10.4364 14.9504 10.0774 15.4064 9.6934 15.8744C8.7494 17.0194 8.2774 17.5924 8.1044 18.2244C7.9652 18.7327 7.9652 19.2691 8.1044 19.7774C8.3564 20.6984 9.1524 21.4714 9.7404 22.1864C10.1114 22.6364 10.4664 23.0474 11.1034 22.9964C11.3264 22.9784 11.5504 22.8764 11.9994 22.6714C12.3394 22.5174 12.5084 22.4394 12.6364 22.3284C12.9884 22.0224 13.0004 21.6314 13.0004 21.1964V16.8054Z" stroke="#2D3439" stroke-linecap="round" stroke-linejoin="round"/>
<path d="M11 15C11 11.686 14.134 9 18 9C21.866 9 25 11.686 25 15M25 23V23.8C25 25.567 23.21 27 21 27H19" stroke="#2D3439" stroke-linecap="round" stroke-linejoin="round"/>
</svg>
