<svg width="25" height="24" viewBox="0 0 25 24" fill="none" xmlns="http://www.w3.org/2000/svg">
<path d="M21.916 5.25H18.166V3.9375C18.166 3.83437 18.0816 3.75 17.9785 3.75H16.666C16.5629 3.75 16.4785 3.83437 16.4785 3.9375V5.25H13.0098V3.9375C13.0098 3.83437 12.9254 3.75 12.8223 3.75H11.5098C11.4066 3.75 11.3223 3.83437 11.3223 3.9375V5.25H7.85352V3.9375C7.85352 3.83437 7.76914 3.75 7.66602 3.75H6.35352C6.25039 3.75 6.16602 3.83437 6.16602 3.9375V5.25H2.41602C2.00117 5.25 1.66602 5.58516 1.66602 6V19.5C1.66602 19.9148 2.00117 20.25 2.41602 20.25H21.916C22.3309 20.25 22.666 19.9148 22.666 19.5V6C22.666 5.58516 22.3309 5.25 21.916 5.25ZM20.9785 18.5625H3.35352V6.9375H6.16602V8.25C6.16602 8.35313 6.25039 8.4375 6.35352 8.4375H7.66602C7.76914 8.4375 7.85352 8.35313 7.85352 8.25V6.9375H11.3223V8.25C11.3223 8.35313 11.4066 8.4375 11.5098 8.4375H12.8223C12.9254 8.4375 13.0098 8.35313 13.0098 8.25V6.9375H16.4785V8.25C16.4785 8.35313 16.5629 8.4375 16.666 8.4375H17.9785C18.0816 8.4375 18.166 8.35313 18.166 8.25V6.9375H20.9785V18.5625ZM9.91602 11.625H5.60352C5.50039 11.625 5.41602 11.7094 5.41602 11.8125V12.9375C5.41602 13.0406 5.50039 13.125 5.60352 13.125H9.91602C10.0191 13.125 10.1035 13.0406 10.1035 12.9375V11.8125C10.1035 11.7094 10.0191 11.625 9.91602 11.625ZM9.91602 14.8125H5.60352C5.50039 14.8125 5.41602 14.8969 5.41602 15V16.125C5.41602 16.2281 5.50039 16.3125 5.60352 16.3125H9.91602C10.0191 16.3125 10.1035 16.2281 10.1035 16.125V15C10.1035 14.8969 10.0191 14.8125 9.91602 14.8125ZM17.1395 10.6547L14.7113 14.0227L13.4738 12.3094C13.4035 12.2109 13.291 12.1547 13.1715 12.1547H11.8848C11.7324 12.1547 11.6434 12.3281 11.7324 12.4523L14.4066 16.1602C14.4412 16.2081 14.4866 16.2471 14.5392 16.274C14.5917 16.3009 14.6499 16.315 14.709 16.315C14.768 16.315 14.8263 16.3009 14.8788 16.274C14.9314 16.2471 14.9768 16.2081 15.0113 16.1602L18.8785 10.8C18.9676 10.6758 18.8785 10.5023 18.7262 10.5023H17.4395C17.3223 10.5 17.2098 10.5586 17.1395 10.6547Z" fill="#2D3439"/>
</svg>
