<svg width="25" height="24" viewBox="0 0 25 24" fill="none" xmlns="http://www.w3.org/2000/svg">
<path d="M21.9166 5.25H18.1666V3.9375C18.1666 3.83437 18.0823 3.75 17.9791 3.75H16.6666C16.5635 3.75 16.4791 3.83437 16.4791 3.9375V5.25H13.0104V3.9375C13.0104 3.83437 12.926 3.75 12.8229 3.75H11.5104C11.4073 3.75 11.3229 3.83437 11.3229 3.9375V5.25H7.85413V3.9375C7.85413 3.83437 7.76975 3.75 7.66663 3.75H6.35413C6.251 3.75 6.16663 3.83437 6.16663 3.9375V5.25H2.41663C2.00178 5.25 1.66663 5.58516 1.66663 6V19.5C1.66663 19.9148 2.00178 20.25 2.41663 20.25H21.9166C22.3315 20.25 22.6666 19.9148 22.6666 19.5V6C22.6666 5.58516 22.3315 5.25 21.9166 5.25ZM20.9791 18.5625H3.35413V6.9375H6.16663V8.25C6.16663 8.35313 6.251 8.4375 6.35413 8.4375H7.66663C7.76975 8.4375 7.85413 8.35313 7.85413 8.25V6.9375H11.3229V8.25C11.3229 8.35313 11.4073 8.4375 11.5104 8.4375H12.8229C12.926 8.4375 13.0104 8.35313 13.0104 8.25V6.9375H16.4791V8.25C16.4791 8.35313 16.5635 8.4375 16.6666 8.4375H17.9791C18.0823 8.4375 18.1666 8.35313 18.1666 8.25V6.9375H20.9791V18.5625ZM9.91663 11.625H5.60413C5.501 11.625 5.41663 11.7094 5.41663 11.8125V12.9375C5.41663 13.0406 5.501 13.125 5.60413 13.125H9.91663C10.0198 13.125 10.1041 13.0406 10.1041 12.9375V11.8125C10.1041 11.7094 10.0198 11.625 9.91663 11.625ZM9.91663 14.8125H5.60413C5.501 14.8125 5.41663 14.8969 5.41663 15V16.125C5.41663 16.2281 5.501 16.3125 5.60413 16.3125H9.91663C10.0198 16.3125 10.1041 16.2281 10.1041 16.125V15C10.1041 14.8969 10.0198 14.8125 9.91663 14.8125ZM17.1401 10.6547L14.7119 14.0227L13.4744 12.3094C13.4041 12.2109 13.2916 12.1547 13.1721 12.1547H11.8854C11.733 12.1547 11.644 12.3281 11.733 12.4523L14.4073 16.1602C14.4418 16.2081 14.4872 16.2471 14.5398 16.274C14.5923 16.3009 14.6505 16.315 14.7096 16.315C14.7687 16.315 14.8269 16.3009 14.8794 16.274C14.932 16.2471 14.9774 16.2081 15.0119 16.1602L18.8791 10.8C18.9682 10.6758 18.8791 10.5023 18.7268 10.5023H17.4401C17.3229 10.5 17.2104 10.5586 17.1401 10.6547Z" fill="#2D3439"/>
</svg>
