<svg width="328" height="272" viewBox="0 0 328 272" fill="none" xmlns="http://www.w3.org/2000/svg">
<g clip-path="url(#clip0_2708_12561)">
<path d="M196.074 52.9872H163.089C162.367 52.9894 161.654 52.8269 161.004 52.5119C160.354 52.197 159.785 51.738 159.339 51.1698C158.885 50.5963 158.568 49.9268 158.412 49.2123C158.256 48.4978 158.266 47.7571 158.439 47.0467C161.479 34.3132 161.479 21.0429 158.439 8.30953C158.265 7.59907 158.256 6.85844 158.412 6.14398C158.569 5.42953 158.885 4.76008 159.339 4.18656C159.785 3.61837 160.354 3.15935 161.004 2.84442C161.654 2.52948 162.367 2.36694 163.089 2.36916H196.074C197.213 2.37244 198.314 2.77985 199.18 3.51885C200.047 4.25784 200.623 5.28043 200.806 6.40448C202.977 20.5039 202.977 34.8525 200.806 48.9519C200.623 50.076 200.047 51.0986 199.18 51.8375C198.314 52.5765 197.213 52.984 196.074 52.9872Z" fill="#E6E6E6"/>
<path d="M163.09 4.85158C162.743 4.85041 162.4 4.92836 162.088 5.07949C161.776 5.23062 161.503 5.45095 161.288 5.72372C161.068 6.00319 160.914 6.32928 160.838 6.67718C160.763 7.02507 160.768 7.38562 160.853 7.73137C163.984 20.8453 163.984 34.5121 160.853 47.626C160.768 47.9717 160.763 48.3322 160.838 48.68C160.914 49.0278 161.068 49.3539 161.288 49.6333C161.502 49.9061 161.776 50.1267 162.088 50.2779C162.4 50.429 162.743 50.507 163.09 50.5058H196.075C196.622 50.506 197.151 50.3121 197.568 49.9585C197.985 49.605 198.264 49.1148 198.353 48.5753C200.486 34.7258 200.486 20.6316 198.353 6.78207C198.264 6.24256 197.985 5.75239 197.568 5.39886C197.151 5.04533 196.622 4.85138 196.075 4.85157L163.09 4.85158Z" fill="white"/>
<path d="M188.876 16.785H171.567C170.909 16.7843 170.278 16.5226 169.813 16.0573C169.347 15.5921 169.086 14.9612 169.085 14.3032V13.3334C169.086 12.6754 169.347 12.0445 169.813 11.5793C170.278 11.114 170.909 10.8523 171.567 10.8516H188.876C189.534 10.8523 190.165 11.114 190.63 11.5793C191.095 12.0445 191.357 12.6754 191.358 13.3334V14.3032C191.357 14.9612 191.095 15.5921 190.63 16.0573C190.165 16.5226 189.534 16.7843 188.876 16.785Z" fill="#E6E6E6"/>
<path d="M188.876 29.0389H171.567C170.909 29.0382 170.278 28.7765 169.813 28.3112C169.347 27.846 169.086 27.2151 169.085 26.5571V25.5873C169.086 24.9293 169.347 24.2984 169.813 23.8332C170.278 23.3679 170.909 23.1062 171.567 23.1055H188.876C189.534 23.1062 190.165 23.3679 190.63 23.8332C191.095 24.2984 191.357 24.9293 191.358 25.5873V26.5571C191.357 27.2151 191.095 27.846 190.63 28.3112C190.165 28.7765 189.534 29.0382 188.876 29.0389Z" fill="#E6E6E6"/>
<path d="M188.876 41.2948H171.567C170.909 41.2941 170.278 41.0324 169.813 40.5671C169.347 40.1018 169.086 39.471 169.085 38.813V37.8431C169.086 37.1851 169.347 36.5543 169.813 36.089C170.278 35.6237 170.909 35.362 171.567 35.3613H188.876C189.534 35.362 190.165 35.6237 190.63 36.089C191.095 36.5543 191.357 37.1851 191.358 37.8431V38.813C191.357 39.471 191.095 40.1018 190.63 40.5671C190.165 41.0324 189.534 41.2941 188.876 41.2948Z" fill="#E6E6E6"/>
<path d="M258.122 84.4247H225.137C224.415 84.4269 223.702 84.2644 223.052 83.9494C222.402 83.6345 221.833 83.1755 221.387 82.6073C220.933 82.0338 220.616 81.3643 220.46 80.6498C220.304 79.9353 220.313 79.1946 220.487 78.4842C223.527 65.7507 223.527 52.4804 220.487 39.747C220.313 39.0366 220.304 38.2959 220.46 37.5815C220.616 36.867 220.933 36.1976 221.387 35.6241C221.833 35.0559 222.402 34.5968 223.052 34.2819C223.702 33.967 224.415 33.8044 225.137 33.8067H258.122C259.261 33.8099 260.362 34.2174 261.228 34.9563C262.095 35.6953 262.671 36.7179 262.854 37.842C265.025 51.9414 265.025 66.29 262.854 80.3894C262.671 81.5135 262.095 82.5361 261.228 83.275C260.362 84.014 259.261 84.4215 258.122 84.4247Z" fill="#E6E6E6"/>
<path d="M225.136 36.2891C224.79 36.2879 224.447 36.3659 224.135 36.517C223.823 36.6681 223.549 36.8884 223.335 37.1612C223.115 37.4407 222.961 37.7668 222.885 38.1147C222.81 38.4626 222.815 38.8231 222.899 39.1689C226.03 52.2828 226.03 65.9496 222.9 79.0635C222.815 79.4092 222.81 79.7697 222.885 80.1175C222.961 80.4653 223.115 80.7914 223.335 81.0708C223.549 81.3436 223.823 81.5642 224.135 81.7154C224.447 81.8665 224.79 81.9445 225.136 81.9433H258.122C258.669 81.9435 259.198 81.7496 259.615 81.396C260.032 81.0425 260.311 80.5523 260.4 80.0128C262.533 66.1633 262.533 52.0691 260.4 38.2196C260.311 37.6801 260.032 37.1899 259.615 36.8364C259.198 36.4828 258.669 36.2889 258.122 36.2891L225.136 36.2891Z" fill="white"/>
<path d="M192.352 120.206H159.367C158.613 120.208 157.869 120.038 157.191 119.71C156.513 119.381 155.919 118.902 155.454 118.309C154.981 117.711 154.65 117.013 154.488 116.268C154.325 115.523 154.334 114.751 154.515 114.01C157.548 101.308 157.547 88.071 154.515 75.3693C154.334 74.6285 154.325 73.8562 154.488 73.1111C154.65 72.3661 154.981 71.6681 155.454 71.07C155.919 70.4773 156.513 69.9984 157.191 69.6698C157.869 69.3412 158.613 69.1716 159.367 69.1739H192.352C193.54 69.1774 194.688 69.6026 195.592 70.3737C196.496 71.1448 197.097 72.2117 197.288 73.3845C199.462 87.5048 199.462 101.875 197.288 115.995C197.097 117.168 196.496 118.235 195.592 119.006C194.688 119.777 193.54 120.202 192.352 120.206Z" fill="#F2F2F2"/>
<path d="M250.924 54.4276H233.615C232.957 54.4269 232.326 54.1652 231.861 53.6999C231.395 53.2346 231.134 52.6038 231.133 51.9458V50.9759C231.134 50.3179 231.395 49.6871 231.861 49.2218C232.326 48.7566 232.957 48.4949 233.615 48.4941H250.924C251.582 48.4949 252.213 48.7566 252.678 49.2218C253.143 49.6871 253.405 50.3179 253.406 50.9759V51.9458C253.405 52.6038 253.143 53.2346 252.678 53.6999C252.213 54.1652 251.582 54.4269 250.924 54.4276Z" fill="#E6E6E6"/>
<path d="M250.924 66.6815H233.615C232.957 66.6808 232.326 66.4191 231.861 65.9538C231.395 65.4885 231.134 64.8577 231.133 64.1997V63.2298C231.134 62.5719 231.395 61.941 231.861 61.4757C232.326 61.0105 232.957 60.7488 233.615 60.748H250.924C251.582 60.7488 252.213 61.0105 252.678 61.4757C253.143 61.941 253.405 62.5719 253.406 63.2298V64.1997C253.405 64.8577 253.143 65.4885 252.678 65.9538C252.213 66.4191 251.582 66.6808 250.924 66.6815Z" fill="#E6E6E6"/>
<path d="M175.95 104.034C181.205 104.034 185.464 99.7742 185.464 94.5198C185.464 89.2654 181.205 85.0059 175.95 85.0059C170.696 85.0059 166.437 89.2654 166.437 94.5198C166.437 99.7742 170.696 104.034 175.95 104.034Z" fill="white"/>
<path d="M180.501 93.2787H177.192V89.9695C177.192 89.6403 177.061 89.3247 176.829 89.092C176.596 88.8593 176.28 88.7285 175.951 88.7285C175.622 88.7285 175.306 88.8593 175.074 89.092C174.841 89.3247 174.71 89.6403 174.71 89.9695V93.2787H171.401C171.072 93.2787 170.756 93.4094 170.524 93.6421C170.291 93.8749 170.16 94.1905 170.16 94.5196C170.16 94.8487 170.291 95.1644 170.524 95.3971C170.756 95.6298 171.072 95.7606 171.401 95.7606H174.71V99.0698C174.71 99.3989 174.841 99.7145 175.074 99.9473C175.306 100.18 175.622 100.311 175.951 100.311C176.28 100.311 176.596 100.18 176.829 99.9473C177.061 99.7145 177.192 99.3989 177.192 99.0698V95.7606H180.501C180.831 95.7606 181.146 95.6298 181.379 95.3971C181.612 95.1644 181.742 94.8487 181.742 94.5196C181.742 94.1905 181.612 93.8749 181.379 93.6421C181.146 93.4094 180.831 93.2787 180.501 93.2787Z" fill="#E6E6E6"/>
<path d="M187.947 7.03206H170.573C170.08 7.0315 169.607 6.83521 169.258 6.48624C168.909 6.13728 168.712 5.66414 168.712 5.17063V1.86143C168.712 1.36792 168.909 0.894778 169.258 0.545813C169.607 0.196849 170.08 0.000556177 170.573 0H187.947C188.44 0.000556177 188.913 0.196849 189.262 0.545813C189.611 0.894778 189.808 1.36792 189.808 1.86143V5.17063C189.808 5.66414 189.611 6.13728 189.262 6.48624C188.913 6.83521 188.44 7.0315 187.947 7.03206Z" fill="#CCCCCC"/>
<path d="M250.822 38.8836H233.448C232.955 38.8831 232.482 38.6868 232.133 38.3378C231.784 37.9888 231.587 37.5157 231.587 37.0222V33.713C231.587 33.2195 231.784 32.7463 232.133 32.3974C232.482 32.0484 232.955 31.8521 233.448 31.8516H250.822C251.315 31.8521 251.788 32.0484 252.137 32.3974C252.486 32.7463 252.683 33.2195 252.683 33.713V37.0222C252.683 37.5157 252.486 37.9888 252.137 38.3378C251.788 38.6868 251.315 38.8831 250.822 38.8836Z" fill="#CCCCCC"/>
<path d="M100.164 194.856H105.235L106.821 175.295H100.163L100.164 194.856Z" fill="#FFB8B8"/>
<path d="M98.8701 193.2L108.857 193.199H108.858C109.693 193.199 110.521 193.364 111.293 193.684C112.065 194.003 112.767 194.472 113.358 195.063C113.949 195.654 114.418 196.356 114.738 197.128C115.058 197.9 115.222 198.728 115.222 199.564V199.771L98.8704 199.771L98.8701 193.2Z" fill="#2F2E41"/>
<path d="M72.8631 194.856H77.9345L80.3473 175.295H72.8623L72.8631 194.856Z" fill="#FFB8B8"/>
<path d="M71.5693 193.2L81.5564 193.199H81.5568C82.3927 193.199 83.2203 193.364 83.9925 193.684C84.7647 194.003 85.4663 194.472 86.0573 195.063C86.6483 195.654 87.1172 196.356 87.437 197.128C87.7568 197.9 87.9215 198.728 87.9215 199.564V199.771L71.5697 199.771L71.5693 193.2Z" fill="#2F2E41"/>
<path d="M73.7632 188.677C73.2459 188.676 72.7476 188.482 72.3672 188.131C72.163 187.945 71.9985 187.719 71.8837 187.468C71.7688 187.216 71.7059 186.944 71.6988 186.668L69.665 113.777L98.5425 120.996L107.452 147.726C108.601 151.164 109.099 154.787 108.919 158.408L107.813 184.317C107.787 184.848 107.559 185.349 107.174 185.716C106.789 186.082 106.278 186.286 105.747 186.286H100.903C100.403 186.284 99.9208 186.102 99.5444 185.773C99.1679 185.444 98.9227 184.99 98.8536 184.495L95.3918 155.895C95.0893 153.663 94.3088 151.524 93.1036 149.622L86.291 138.836C86.2454 138.763 86.1787 138.707 86.1 138.675C86.0213 138.642 85.9344 138.634 85.8512 138.653C85.768 138.671 85.6926 138.715 85.6353 138.778C85.5779 138.841 85.5414 138.921 85.5308 139.005L80.1846 186.612C80.1272 187.094 79.9013 187.542 79.5466 187.874C79.192 188.207 78.7313 188.404 78.2458 188.43L73.881 188.673C73.8417 188.675 73.8025 188.677 73.7632 188.677Z" fill="#2F2E41"/>
<path d="M93.7368 66.585C99.3479 66.585 103.897 62.0363 103.897 56.4253C103.897 50.8143 99.3479 46.2656 93.7368 46.2656C88.1258 46.2656 83.5771 50.8143 83.5771 56.4253C83.5771 62.0363 88.1258 66.585 93.7368 66.585Z" fill="#FFB8B8"/>
<path d="M98.4042 123.96C98.2294 123.959 98.0553 123.937 97.8859 123.894L69.2344 116.548C68.7222 116.416 68.2796 116.094 67.9978 115.646C67.716 115.199 67.6163 114.661 67.7193 114.142L74.2993 78.6959C74.7092 76.647 75.6103 74.7281 76.9252 73.1042C78.2401 71.4802 79.9295 70.1996 81.8483 69.3724C83.7179 68.5449 85.7625 68.1904 87.8016 68.3401C89.8407 68.4898 91.8116 69.1391 93.5404 70.2308C93.9415 70.4811 94.3455 70.7539 94.741 71.0419C96.3331 72.2164 97.6315 73.7437 98.5342 75.5042C99.437 77.2646 99.9196 79.2102 99.9443 81.1885L100.467 121.862C100.471 122.136 100.42 122.407 100.318 122.661C100.216 122.915 100.065 123.146 99.8731 123.341C99.6813 123.536 99.4527 123.691 99.2005 123.797C98.9484 123.904 98.6778 123.959 98.4042 123.96Z" fill="#8094D4"/>
<path d="M72.1821 124.376C71.8403 123.873 71.6129 123.301 71.516 122.701C71.4191 122.1 71.4551 121.486 71.6212 120.901C71.7874 120.316 72.0799 119.775 72.4779 119.315C72.876 118.855 73.37 118.489 73.9252 118.24L72.6508 103.514L79.4041 107.174L79.5789 120.597C79.9339 121.558 79.9244 122.615 79.552 123.569C79.1797 124.522 78.4705 125.306 77.5587 125.772C76.6469 126.238 75.596 126.353 74.6051 126.096C73.6141 125.838 72.752 125.226 72.1821 124.376Z" fill="#FFB8B8"/>
<path d="M74.5944 116.293C74.4039 116.292 74.2141 116.268 74.0295 116.221C73.6325 116.12 73.2702 115.913 72.9809 115.623C72.6917 115.333 72.4863 114.97 72.3865 114.572L69.0677 101.383C67.9079 96.7772 68.4608 91.9064 70.6236 87.6773L77.5765 74.0757C78.0161 72.4472 79.078 71.0567 80.5334 70.204C81.9889 69.3514 83.7211 69.105 85.3565 69.5178C86.1717 69.7237 86.9379 70.0893 87.6106 70.5935C88.2834 71.0977 88.8494 71.7304 89.2758 72.455C89.711 73.19 89.9956 74.0042 90.113 74.8502C90.2305 75.6962 90.1785 76.5571 89.96 77.3829L80.0624 99.5156L80.1799 112.767C80.183 113.235 80.0424 113.692 79.7772 114.077C79.5121 114.462 79.1351 114.756 78.6972 114.92L75.385 116.15C75.1321 116.244 74.8643 116.293 74.5944 116.293Z" fill="#8094D4"/>
<path d="M121.972 118.961C121.368 118.892 120.786 118.691 120.268 118.373C119.75 118.055 119.308 117.627 118.973 117.119C118.638 116.612 118.418 116.037 118.329 115.435C118.241 114.834 118.285 114.22 118.459 113.637L106.466 104.996L113.645 102.266L123.934 110.89C124.893 111.247 125.688 111.944 126.168 112.848C126.648 113.753 126.779 114.802 126.538 115.797C126.296 116.791 125.698 117.663 124.856 118.246C124.015 118.829 122.989 119.084 121.972 118.961Z" fill="#FFB8B8"/>
<path d="M115.695 112.651C115.341 112.65 114.992 112.568 114.676 112.41L102.515 106.322C98.2673 104.196 94.9363 100.6 93.1413 96.2021L87.3679 82.0593C86.4205 80.6637 86.0594 78.9517 86.3625 77.2923C86.6657 75.633 87.6088 74.1592 88.9885 73.1888C89.6778 72.7041 90.4568 72.3614 91.2799 72.1808C92.103 72.0002 92.9538 71.9852 93.7828 72.1367C94.6215 72.2875 95.422 72.6033 96.1378 73.0657C96.8536 73.5281 97.4705 74.1279 97.9528 74.8305L108.271 96.7703L118.392 105.326C118.748 105.628 119.003 106.033 119.122 106.485C119.241 106.937 119.218 107.415 119.056 107.854L117.828 111.166C117.667 111.601 117.378 111.976 116.998 112.24C116.616 112.507 116.161 112.651 115.695 112.651Z" fill="#8094D4"/>
<path d="M91.603 66.7406C92.1428 66.9768 93.2482 62.6755 92.7531 61.8153C92.0167 60.5359 92.0602 60.5451 91.5713 59.6986C91.0825 58.8522 90.9731 57.6936 91.6062 56.9488C92.2392 56.204 93.7042 56.3028 93.9931 57.2366C93.8072 55.463 95.5616 54.0372 97.2994 53.6366C99.0372 53.2359 100.87 53.4847 102.618 53.1281C104.645 52.7144 106.755 51.0145 105.946 48.7845C105.807 48.4133 105.6 48.0716 105.334 47.7777C104.399 46.7266 103.091 46.2778 101.813 45.8439C99.1529 44.9411 96.4203 44.027 93.6132 44.1266C91.3004 44.2475 89.0729 45.0401 87.2034 46.4073C85.334 47.7744 83.9036 49.6569 83.0873 51.8243C82.8939 52.3666 82.744 52.9234 82.6392 53.4894C81.6757 58.6701 84.6841 63.7802 89.5704 65.753L91.603 66.7406Z" fill="#2F2E41"/>
<path opacity="0.2" d="M79.6074 113.07L79.8378 99.4485L87.0531 84.9414L81.262 99.8328L79.6074 113.07Z" fill="black"/>
<path d="M145.038 147.253L114.577 134.597C113.909 134.322 113.313 133.899 112.834 133.358C112.355 132.818 112.005 132.176 111.811 131.48C111.612 130.776 111.576 130.037 111.707 129.317C111.837 128.597 112.129 127.917 112.562 127.327C120.255 116.735 125.346 104.48 127.425 91.5548C127.537 90.8322 127.813 90.1448 128.231 89.5449C128.649 88.945 129.199 88.4483 129.838 88.0928C130.468 87.7391 131.17 87.5337 131.891 87.4922C132.611 87.4507 133.332 87.5743 133.998 87.8534L164.459 100.509C165.509 100.949 166.37 101.748 166.886 102.763C167.403 103.778 167.543 104.943 167.28 106.051C163.875 119.904 158.37 133.155 150.955 145.342C150.355 146.31 149.431 147.033 148.347 147.383C147.263 147.733 146.091 147.687 145.038 147.253Z" fill="#E6E6E6"/>
<path d="M133.047 90.1443C132.727 90.0101 132.381 89.9507 132.035 89.9705C131.688 89.9903 131.351 90.0888 131.049 90.2586C130.738 90.432 130.471 90.6741 130.267 90.9664C130.064 91.2587 129.93 91.5935 129.876 91.9453C127.736 105.257 122.492 117.878 114.569 128.787C114.358 129.073 114.215 129.404 114.152 129.755C114.088 130.105 114.105 130.465 114.201 130.807C114.294 131.142 114.462 131.45 114.693 131.71C114.923 131.969 115.209 132.172 115.53 132.304L145.99 144.96C146.495 145.17 147.059 145.194 147.58 145.028C148.101 144.861 148.546 144.516 148.836 144.052C156.118 132.08 161.526 119.065 164.871 105.457C164.995 104.925 164.926 104.365 164.676 103.879C164.427 103.392 164.012 103.01 163.507 102.8L133.047 90.1443Z" fill="white"/>
<path d="M149.266 118.318L133.281 111.676C132.674 111.423 132.192 110.939 131.941 110.331C131.689 109.723 131.69 109.04 131.942 108.432L132.314 107.537C132.567 106.929 133.051 106.447 133.659 106.196C134.267 105.945 134.95 105.945 135.558 106.197L151.542 112.838C152.15 113.091 152.632 113.575 152.883 114.183C153.134 114.791 153.134 115.474 152.882 116.082L152.51 116.978C152.257 117.585 151.773 118.067 151.165 118.319C150.557 118.57 149.874 118.569 149.266 118.318Z" fill="#8094D4"/>
<path d="M144.563 129.634L128.579 122.993C127.971 122.74 127.489 122.256 127.238 121.648C126.987 121.039 126.987 120.357 127.239 119.749L127.611 118.853C127.864 118.246 128.348 117.763 128.956 117.512C129.564 117.261 130.247 117.262 130.855 117.513L146.84 124.155C147.447 124.408 147.929 124.891 148.18 125.5C148.431 126.108 148.431 126.791 148.179 127.399L147.807 128.294C147.554 128.902 147.07 129.384 146.462 129.635C145.854 129.886 145.171 129.886 144.563 129.634Z" fill="#8094D4"/>
<path d="M155.67 102.413C155.431 102.413 155.194 102.366 154.972 102.276L138.865 95.7643C138.408 95.5788 138.043 95.2195 137.85 94.7652C137.657 94.3109 137.653 93.7987 137.837 93.341L139.078 90.2729C139.263 89.8153 139.622 89.4499 140.076 89.2571C140.531 89.0644 141.043 89.06 141.501 89.2451L157.608 95.757C158.065 95.9425 158.43 96.3018 158.623 96.7561C158.816 97.2104 158.82 97.7226 158.636 98.1804L157.395 101.248C157.256 101.592 157.017 101.886 156.71 102.094C156.403 102.301 156.041 102.412 155.67 102.413Z" fill="#CCCCCC"/>
<path d="M121.841 199.999H63.9303C63.8205 199.999 63.7153 199.956 63.6378 199.878C63.5602 199.8 63.5166 199.695 63.5166 199.586C63.5166 199.476 63.5602 199.371 63.6378 199.293C63.7153 199.215 63.8205 199.172 63.9303 199.172H121.841C121.951 199.172 122.056 199.215 122.134 199.293C122.211 199.371 122.255 199.476 122.255 199.586C122.255 199.695 122.211 199.8 122.134 199.878C122.056 199.956 121.951 199.999 121.841 199.999Z" fill="#CCCCCC"/>
</g>
<path d="M88.8087 234V222.8H90.5207L97.5447 231.424H96.6967V222.8H98.7607V234H97.0487L90.0247 225.376H90.8727V234H88.8087ZM105.41 234.112C104.535 234.112 103.756 233.925 103.074 233.552C102.391 233.168 101.852 232.645 101.458 231.984C101.063 231.323 100.866 230.571 100.866 229.728C100.866 228.875 101.063 228.123 101.458 227.472C101.852 226.811 102.391 226.293 103.074 225.92C103.756 225.547 104.535 225.36 105.41 225.36C106.295 225.36 107.079 225.547 107.762 225.92C108.455 226.293 108.994 226.805 109.378 227.456C109.772 228.107 109.97 228.864 109.97 229.728C109.97 230.571 109.772 231.323 109.378 231.984C108.994 232.645 108.455 233.168 107.762 233.552C107.079 233.925 106.295 234.112 105.41 234.112ZM105.41 232.4C105.9 232.4 106.338 232.293 106.722 232.08C107.106 231.867 107.404 231.557 107.618 231.152C107.842 230.747 107.954 230.272 107.954 229.728C107.954 229.173 107.842 228.699 107.618 228.304C107.404 227.899 107.106 227.589 106.722 227.376C106.338 227.163 105.906 227.056 105.426 227.056C104.935 227.056 104.498 227.163 104.114 227.376C103.74 227.589 103.442 227.899 103.218 228.304C102.994 228.699 102.882 229.173 102.882 229.728C102.882 230.272 102.994 230.747 103.218 231.152C103.442 231.557 103.74 231.867 104.114 232.08C104.498 232.293 104.93 232.4 105.41 232.4ZM118.768 234V224.56H115.056V222.8H124.56V224.56H120.848V234H118.768ZM130.74 234V232.272L130.628 231.904V228.88C130.628 228.293 130.452 227.84 130.1 227.52C129.748 227.189 129.215 227.024 128.5 227.024C128.02 227.024 127.545 227.099 127.076 227.248C126.617 227.397 126.228 227.605 125.908 227.872L125.124 226.416C125.583 226.064 126.127 225.803 126.756 225.632C127.396 225.451 128.057 225.36 128.74 225.36C129.977 225.36 130.932 225.659 131.604 226.256C132.287 226.843 132.628 227.755 132.628 228.992V234H130.74ZM128.052 234.112C127.412 234.112 126.852 234.005 126.372 233.792C125.892 233.568 125.519 233.264 125.252 232.88C124.996 232.485 124.868 232.043 124.868 231.552C124.868 231.072 124.98 230.64 125.204 230.256C125.439 229.872 125.817 229.568 126.34 229.344C126.863 229.12 127.556 229.008 128.42 229.008H130.9V230.336H128.564C127.881 230.336 127.423 230.448 127.188 230.672C126.953 230.885 126.836 231.152 126.836 231.472C126.836 231.835 126.98 232.123 127.268 232.336C127.556 232.549 127.956 232.656 128.468 232.656C128.959 232.656 129.396 232.544 129.78 232.32C130.175 232.096 130.457 231.765 130.628 231.328L130.964 232.528C130.772 233.029 130.425 233.419 129.924 233.696C129.433 233.973 128.809 234.112 128.052 234.112ZM137.835 234.112C137.12 234.112 136.432 234.021 135.771 233.84C135.12 233.648 134.603 233.419 134.219 233.152L134.987 231.632C135.371 231.877 135.829 232.08 136.363 232.24C136.896 232.4 137.429 232.48 137.963 232.48C138.592 232.48 139.045 232.395 139.323 232.224C139.611 232.053 139.755 231.824 139.755 231.536C139.755 231.301 139.659 231.125 139.467 231.008C139.275 230.88 139.024 230.784 138.715 230.72C138.405 230.656 138.059 230.597 137.675 230.544C137.301 230.491 136.923 230.421 136.539 230.336C136.165 230.24 135.824 230.107 135.515 229.936C135.205 229.755 134.955 229.515 134.763 229.216C134.571 228.917 134.475 228.523 134.475 228.032C134.475 227.488 134.629 227.019 134.939 226.624C135.248 226.219 135.68 225.909 136.235 225.696C136.8 225.472 137.467 225.36 138.235 225.36C138.811 225.36 139.392 225.424 139.979 225.552C140.565 225.68 141.051 225.861 141.435 226.096L140.667 227.616C140.261 227.371 139.851 227.205 139.435 227.12C139.029 227.024 138.624 226.976 138.219 226.976C137.611 226.976 137.157 227.067 136.859 227.248C136.571 227.429 136.427 227.659 136.427 227.936C136.427 228.192 136.523 228.384 136.715 228.512C136.907 228.64 137.157 228.741 137.467 228.816C137.776 228.891 138.117 228.955 138.491 229.008C138.875 229.051 139.253 229.12 139.627 229.216C140 229.312 140.341 229.445 140.651 229.616C140.971 229.776 141.227 230.005 141.419 230.304C141.611 230.603 141.707 230.992 141.707 231.472C141.707 232.005 141.547 232.469 141.227 232.864C140.917 233.259 140.475 233.568 139.899 233.792C139.323 234.005 138.635 234.112 137.835 234.112ZM145.061 232.096L145.109 229.584L149.573 225.456H151.973L148.181 229.264L147.125 230.144L145.061 232.096ZM143.429 234V222.128H145.429V234H143.429ZM149.877 234L146.757 230.144L148.021 228.544L152.309 234H149.877ZM155.975 234.112C155.261 234.112 154.573 234.021 153.911 233.84C153.261 233.648 152.743 233.419 152.359 233.152L153.127 231.632C153.511 231.877 153.97 232.08 154.503 232.24C155.037 232.4 155.57 232.48 156.103 232.48C156.733 232.48 157.186 232.395 157.463 232.224C157.751 232.053 157.895 231.824 157.895 231.536C157.895 231.301 157.799 231.125 157.607 231.008C157.415 230.88 157.165 230.784 156.855 230.72C156.546 230.656 156.199 230.597 155.815 230.544C155.442 230.491 155.063 230.421 154.679 230.336C154.306 230.24 153.965 230.107 153.655 229.936C153.346 229.755 153.095 229.515 152.903 229.216C152.711 228.917 152.615 228.523 152.615 228.032C152.615 227.488 152.77 227.019 153.079 226.624C153.389 226.219 153.821 225.909 154.375 225.696C154.941 225.472 155.607 225.36 156.375 225.36C156.951 225.36 157.533 225.424 158.119 225.552C158.706 225.68 159.191 225.861 159.575 226.096L158.807 227.616C158.402 227.371 157.991 227.205 157.575 227.12C157.17 227.024 156.765 226.976 156.359 226.976C155.751 226.976 155.298 227.067 154.999 227.248C154.711 227.429 154.567 227.659 154.567 227.936C154.567 228.192 154.663 228.384 154.855 228.512C155.047 228.64 155.298 228.741 155.607 228.816C155.917 228.891 156.258 228.955 156.631 229.008C157.015 229.051 157.394 229.12 157.767 229.216C158.141 229.312 158.482 229.445 158.791 229.616C159.111 229.776 159.367 230.005 159.559 230.304C159.751 230.603 159.847 230.992 159.847 231.472C159.847 232.005 159.687 232.469 159.367 232.864C159.058 233.259 158.615 233.568 158.039 233.792C157.463 234.005 156.775 234.112 155.975 234.112ZM164.6 234L169.64 222.8H171.688L176.744 234H174.568L170.232 223.904H171.064L166.744 234H164.6ZM166.92 231.408L167.48 229.776H173.528L174.088 231.408H166.92ZM180.538 234.112C179.823 234.112 179.135 234.021 178.474 233.84C177.823 233.648 177.306 233.419 176.922 233.152L177.69 231.632C178.074 231.877 178.533 232.08 179.066 232.24C179.599 232.4 180.133 232.48 180.666 232.48C181.295 232.48 181.749 232.395 182.026 232.224C182.314 232.053 182.458 231.824 182.458 231.536C182.458 231.301 182.362 231.125 182.17 231.008C181.978 230.88 181.727 230.784 181.418 230.72C181.109 230.656 180.762 230.597 180.378 230.544C180.005 230.491 179.626 230.421 179.242 230.336C178.869 230.24 178.527 230.107 178.218 229.936C177.909 229.755 177.658 229.515 177.466 229.216C177.274 228.917 177.178 228.523 177.178 228.032C177.178 227.488 177.333 227.019 177.642 226.624C177.951 226.219 178.383 225.909 178.938 225.696C179.503 225.472 180.17 225.36 180.938 225.36C181.514 225.36 182.095 225.424 182.682 225.552C183.269 225.68 183.754 225.861 184.138 226.096L183.37 227.616C182.965 227.371 182.554 227.205 182.138 227.12C181.733 227.024 181.327 226.976 180.922 226.976C180.314 226.976 179.861 227.067 179.562 227.248C179.274 227.429 179.13 227.659 179.13 227.936C179.13 228.192 179.226 228.384 179.418 228.512C179.61 228.64 179.861 228.741 180.17 228.816C180.479 228.891 180.821 228.955 181.194 229.008C181.578 229.051 181.957 229.12 182.33 229.216C182.703 229.312 183.045 229.445 183.354 229.616C183.674 229.776 183.93 230.005 184.122 230.304C184.314 230.603 184.41 230.992 184.41 231.472C184.41 232.005 184.25 232.469 183.93 232.864C183.621 233.259 183.178 233.568 182.602 233.792C182.026 234.005 181.338 234.112 180.538 234.112ZM188.772 234.112C188.058 234.112 187.37 234.021 186.708 233.84C186.058 233.648 185.54 233.419 185.156 233.152L185.924 231.632C186.308 231.877 186.767 232.08 187.3 232.24C187.834 232.4 188.367 232.48 188.9 232.48C189.53 232.48 189.983 232.395 190.26 232.224C190.548 232.053 190.692 231.824 190.692 231.536C190.692 231.301 190.596 231.125 190.404 231.008C190.212 230.88 189.962 230.784 189.652 230.72C189.343 230.656 188.996 230.597 188.612 230.544C188.239 230.491 187.86 230.421 187.476 230.336C187.103 230.24 186.762 230.107 186.452 229.936C186.143 229.755 185.892 229.515 185.7 229.216C185.508 228.917 185.412 228.523 185.412 228.032C185.412 227.488 185.567 227.019 185.876 226.624C186.186 226.219 186.618 225.909 187.172 225.696C187.738 225.472 188.404 225.36 189.172 225.36C189.748 225.36 190.33 225.424 190.916 225.552C191.503 225.68 191.988 225.861 192.372 226.096L191.604 227.616C191.199 227.371 190.788 227.205 190.372 227.12C189.967 227.024 189.562 226.976 189.156 226.976C188.548 226.976 188.095 227.067 187.796 227.248C187.508 227.429 187.364 227.659 187.364 227.936C187.364 228.192 187.46 228.384 187.652 228.512C187.844 228.64 188.095 228.741 188.404 228.816C188.714 228.891 189.055 228.955 189.428 229.008C189.812 229.051 190.191 229.12 190.564 229.216C190.938 229.312 191.279 229.445 191.588 229.616C191.908 229.776 192.164 230.005 192.356 230.304C192.548 230.603 192.644 230.992 192.644 231.472C192.644 232.005 192.484 232.469 192.164 232.864C191.855 233.259 191.412 233.568 190.836 233.792C190.26 234.005 189.572 234.112 188.772 234.112ZM194.367 234V225.456H196.367V234H194.367ZM195.375 224.048C195.001 224.048 194.692 223.931 194.447 223.696C194.212 223.461 194.095 223.179 194.095 222.848C194.095 222.507 194.212 222.224 194.447 222C194.692 221.765 195.001 221.648 195.375 221.648C195.748 221.648 196.052 221.76 196.287 221.984C196.532 222.197 196.655 222.469 196.655 222.8C196.655 223.152 196.537 223.451 196.303 223.696C196.068 223.931 195.759 224.048 195.375 224.048ZM202.864 237.216C202.074 237.216 201.301 237.109 200.544 236.896C199.797 236.693 199.184 236.395 198.704 236L199.6 234.496C199.973 234.805 200.442 235.051 201.008 235.232C201.584 235.424 202.165 235.52 202.752 235.52C203.69 235.52 204.378 235.301 204.816 234.864C205.253 234.437 205.472 233.792 205.472 232.928V231.408L205.632 229.472L205.568 227.536V225.456H207.472V232.704C207.472 234.251 207.077 235.387 206.288 236.112C205.498 236.848 204.357 237.216 202.864 237.216ZM202.608 233.616C201.797 233.616 201.061 233.445 200.4 233.104C199.749 232.752 199.232 232.267 198.848 231.648C198.474 231.029 198.288 230.304 198.288 229.472C198.288 228.651 198.474 227.931 198.848 227.312C199.232 226.693 199.749 226.213 200.4 225.872C201.061 225.531 201.797 225.36 202.608 225.36C203.333 225.36 203.984 225.504 204.56 225.792C205.136 226.08 205.594 226.528 205.936 227.136C206.288 227.744 206.464 228.523 206.464 229.472C206.464 230.421 206.288 231.205 205.936 231.824C205.594 232.432 205.136 232.885 204.56 233.184C203.984 233.472 203.333 233.616 202.608 233.616ZM202.912 231.92C203.413 231.92 203.861 231.819 204.256 231.616C204.65 231.403 204.954 231.115 205.168 230.752C205.392 230.379 205.504 229.952 205.504 229.472C205.504 228.992 205.392 228.571 205.168 228.208C204.954 227.835 204.65 227.552 204.256 227.36C203.861 227.157 203.413 227.056 202.912 227.056C202.41 227.056 201.957 227.157 201.552 227.36C201.157 227.552 200.848 227.835 200.624 228.208C200.41 228.571 200.304 228.992 200.304 229.472C200.304 229.952 200.41 230.379 200.624 230.752C200.848 231.115 201.157 231.403 201.552 231.616C201.957 231.819 202.41 231.92 202.912 231.92ZM214.949 225.36C215.632 225.36 216.24 225.493 216.773 225.76C217.317 226.027 217.744 226.437 218.053 226.992C218.362 227.536 218.517 228.24 218.517 229.104V234H216.517V229.36C216.517 228.603 216.336 228.037 215.973 227.664C215.621 227.291 215.125 227.104 214.485 227.104C214.016 227.104 213.6 227.2 213.237 227.392C212.874 227.584 212.592 227.872 212.389 228.256C212.197 228.629 212.101 229.104 212.101 229.68V234H210.101V225.456H212.005V227.76L211.669 227.056C211.968 226.512 212.4 226.096 212.965 225.808C213.541 225.509 214.202 225.36 214.949 225.36ZM225.086 234.112C224.136 234.112 223.304 233.925 222.59 233.552C221.886 233.168 221.336 232.645 220.942 231.984C220.558 231.323 220.366 230.571 220.366 229.728C220.366 228.875 220.552 228.123 220.926 227.472C221.31 226.811 221.832 226.293 222.494 225.92C223.166 225.547 223.928 225.36 224.782 225.36C225.614 225.36 226.355 225.541 227.006 225.904C227.656 226.267 228.168 226.779 228.542 227.44C228.915 228.101 229.102 228.88 229.102 229.776C229.102 229.861 229.096 229.957 229.086 230.064C229.086 230.171 229.08 230.272 229.07 230.368H221.95V229.04H228.014L227.23 229.456C227.24 228.965 227.139 228.533 226.926 228.16C226.712 227.787 226.419 227.493 226.046 227.28C225.683 227.067 225.262 226.96 224.782 226.96C224.291 226.96 223.859 227.067 223.486 227.28C223.123 227.493 222.835 227.792 222.622 228.176C222.419 228.549 222.318 228.992 222.318 229.504V229.824C222.318 230.336 222.435 230.789 222.67 231.184C222.904 231.579 223.235 231.883 223.662 232.096C224.088 232.309 224.579 232.416 225.134 232.416C225.614 232.416 226.046 232.341 226.43 232.192C226.814 232.043 227.155 231.808 227.454 231.488L228.526 232.72C228.142 233.168 227.656 233.515 227.07 233.76C226.494 233.995 225.832 234.112 225.086 234.112ZM234.639 234.112C233.818 234.112 233.076 233.931 232.415 233.568C231.764 233.195 231.252 232.683 230.879 232.032C230.506 231.381 230.319 230.613 230.319 229.728C230.319 228.843 230.506 228.075 230.879 227.424C231.252 226.773 231.764 226.267 232.415 225.904C233.076 225.541 233.818 225.36 234.639 225.36C235.354 225.36 235.994 225.52 236.559 225.84C237.124 226.149 237.572 226.624 237.903 227.264C238.234 227.904 238.399 228.725 238.399 229.728C238.399 230.72 238.239 231.541 237.919 232.192C237.599 232.832 237.156 233.312 236.591 233.632C236.026 233.952 235.375 234.112 234.639 234.112ZM234.879 232.4C235.359 232.4 235.786 232.293 236.159 232.08C236.543 231.867 236.847 231.557 237.071 231.152C237.306 230.747 237.423 230.272 237.423 229.728C237.423 229.173 237.306 228.699 237.071 228.304C236.847 227.899 236.543 227.589 236.159 227.376C235.786 227.163 235.359 227.056 234.879 227.056C234.399 227.056 233.967 227.163 233.583 227.376C233.21 227.589 232.906 227.899 232.671 228.304C232.447 228.699 232.335 229.173 232.335 229.728C232.335 230.272 232.447 230.747 232.671 231.152C232.906 231.557 233.21 231.867 233.583 232.08C233.967 232.293 234.399 232.4 234.879 232.4ZM237.471 234V231.984L237.551 229.712L237.391 227.44V222.128H239.375V234H237.471Z" fill="black"/>
<path d="M6.99588 266V254.8H7.97188L15.6999 264.528H15.1879V254.8H16.3559V266H15.3799L7.66788 256.272H8.17988V266H6.99588ZM23.1955 266.08C22.3848 266.08 21.6542 265.899 21.0035 265.536C20.3635 265.163 19.8568 264.656 19.4835 264.016C19.1102 263.365 18.9235 262.624 18.9235 261.792C18.9235 260.949 19.1102 260.208 19.4835 259.568C19.8568 258.928 20.3635 258.427 21.0035 258.064C21.6435 257.701 22.3742 257.52 23.1955 257.52C24.0275 257.52 24.7635 257.701 25.4035 258.064C26.0542 258.427 26.5608 258.928 26.9235 259.568C27.2968 260.208 27.4835 260.949 27.4835 261.792C27.4835 262.624 27.2968 263.365 26.9235 264.016C26.5608 264.656 26.0542 265.163 25.4035 265.536C24.7528 265.899 24.0168 266.08 23.1955 266.08ZM23.1955 265.072C23.8035 265.072 24.3422 264.939 24.8115 264.672C25.2808 264.395 25.6488 264.011 25.9155 263.52C26.1928 263.019 26.3315 262.443 26.3315 261.792C26.3315 261.131 26.1928 260.555 25.9155 260.064C25.6488 259.573 25.2808 259.195 24.8115 258.928C24.3422 258.651 23.8088 258.512 23.2115 258.512C22.6142 258.512 22.0808 258.651 21.6115 258.928C21.1422 259.195 20.7688 259.573 20.4915 260.064C20.2142 260.555 20.0755 261.131 20.0755 261.792C20.0755 262.443 20.2142 263.019 20.4915 263.52C20.7688 264.011 21.1422 264.395 21.6115 264.672C22.0808 264.939 22.6088 265.072 23.1955 265.072ZM36.6463 266.08C35.8569 266.08 35.2489 265.867 34.8223 265.44C34.3956 265.013 34.1823 264.411 34.1823 263.632V255.744H35.3183V263.568C35.3183 264.059 35.4409 264.437 35.6863 264.704C35.9423 264.971 36.3049 265.104 36.7743 265.104C37.2756 265.104 37.6916 264.96 38.0223 264.672L38.4223 265.488C38.1983 265.691 37.9263 265.84 37.6063 265.936C37.2969 266.032 36.9769 266.08 36.6463 266.08ZM32.6783 258.544V257.6H37.8783V258.544H32.6783ZM45.7543 266V264.144L45.7063 263.84V260.736C45.7063 260.021 45.5036 259.472 45.0983 259.088C44.7036 258.704 44.1116 258.512 43.3223 258.512C42.7783 258.512 42.2609 258.603 41.7703 258.784C41.2796 258.965 40.8636 259.205 40.5223 259.504L40.0103 258.656C40.4369 258.293 40.9489 258.016 41.5463 257.824C42.1436 257.621 42.7729 257.52 43.4343 257.52C44.5223 257.52 45.3596 257.792 45.9463 258.336C46.5436 258.869 46.8423 259.685 46.8423 260.784V266H45.7543ZM42.8583 266.08C42.2289 266.08 41.6796 265.979 41.2103 265.776C40.7516 265.563 40.3996 265.275 40.1543 264.912C39.9089 264.539 39.7863 264.112 39.7863 263.632C39.7863 263.195 39.8876 262.8 40.0903 262.448C40.3036 262.085 40.6449 261.797 41.1143 261.584C41.5943 261.36 42.2343 261.248 43.0343 261.248H45.9303V262.096H43.0663C42.2556 262.096 41.6903 262.24 41.3703 262.528C41.0609 262.816 40.9062 263.173 40.9062 263.6C40.9062 264.08 41.0929 264.464 41.4663 264.752C41.8396 265.04 42.3623 265.184 43.0343 265.184C43.6743 265.184 44.2236 265.04 44.6823 264.752C45.1516 264.453 45.4929 264.027 45.7063 263.472L45.9623 264.256C45.7489 264.811 45.3756 265.253 44.8423 265.584C44.3196 265.915 43.6583 266.08 42.8583 266.08ZM52.1838 266.08C51.4904 266.08 50.8344 265.984 50.2158 265.792C49.5971 265.589 49.1118 265.339 48.7598 265.04L49.2718 264.144C49.6131 264.4 50.0504 264.624 50.5838 264.816C51.1171 264.997 51.6771 265.088 52.2638 265.088C53.0638 265.088 53.6398 264.965 53.9918 264.72C54.3438 264.464 54.5198 264.128 54.5198 263.712C54.5198 263.403 54.4184 263.163 54.2158 262.992C54.0238 262.811 53.7678 262.677 53.4478 262.592C53.1278 262.496 52.7704 262.416 52.3758 262.352C51.9811 262.288 51.5864 262.213 51.1918 262.128C50.8078 262.043 50.4558 261.92 50.1358 261.76C49.8158 261.589 49.5544 261.36 49.3518 261.072C49.1598 260.784 49.0638 260.4 49.0638 259.92C49.0638 259.461 49.1918 259.051 49.4478 258.688C49.7038 258.325 50.0771 258.043 50.5678 257.84C51.0691 257.627 51.6771 257.52 52.3918 257.52C52.9358 257.52 53.4798 257.595 54.0238 257.744C54.5678 257.883 55.0158 258.069 55.3678 258.304L54.8718 259.216C54.4984 258.96 54.0984 258.779 53.6718 258.672C53.2451 258.555 52.8184 258.496 52.3918 258.496C51.6344 258.496 51.0744 258.629 50.7118 258.896C50.3598 259.152 50.1838 259.483 50.1838 259.888C50.1838 260.208 50.2798 260.459 50.4718 260.64C50.6744 260.821 50.9358 260.965 51.2558 261.072C51.5864 261.168 51.9438 261.248 52.3278 261.312C52.7224 261.376 53.1118 261.456 53.4958 261.552C53.8904 261.637 54.2478 261.76 54.5678 261.92C54.8984 262.069 55.1598 262.288 55.3518 262.576C55.5544 262.853 55.6558 263.221 55.6558 263.68C55.6558 264.171 55.5171 264.597 55.2398 264.96C54.9731 265.312 54.5784 265.589 54.0558 265.792C53.5438 265.984 52.9198 266.08 52.1838 266.08ZM58.6363 263.824L58.6683 262.368L63.9003 257.6H65.2923L61.5963 261.136L60.9563 261.68L58.6363 263.824ZM57.7403 266V254.128H58.8763V266H57.7403ZM64.2523 266L60.7483 261.632L61.4843 260.752L65.6443 266H64.2523ZM69.3556 266.08C68.6623 266.08 68.0063 265.984 67.3876 265.792C66.769 265.589 66.2836 265.339 65.9316 265.04L66.4436 264.144C66.785 264.4 67.2223 264.624 67.7556 264.816C68.289 264.997 68.849 265.088 69.4356 265.088C70.2356 265.088 70.8116 264.965 71.1636 264.72C71.5156 264.464 71.6916 264.128 71.6916 263.712C71.6916 263.403 71.5903 263.163 71.3876 262.992C71.1956 262.811 70.9396 262.677 70.6196 262.592C70.2996 262.496 69.9423 262.416 69.5476 262.352C69.153 262.288 68.7583 262.213 68.3636 262.128C67.9796 262.043 67.6276 261.92 67.3076 261.76C66.9876 261.589 66.7263 261.36 66.5236 261.072C66.3316 260.784 66.2356 260.4 66.2356 259.92C66.2356 259.461 66.3636 259.051 66.6196 258.688C66.8756 258.325 67.249 258.043 67.7396 257.84C68.241 257.627 68.849 257.52 69.5636 257.52C70.1076 257.52 70.6516 257.595 71.1956 257.744C71.7396 257.883 72.1876 258.069 72.5396 258.304L72.0436 259.216C71.6703 258.96 71.2703 258.779 70.8436 258.672C70.417 258.555 69.9903 258.496 69.5636 258.496C68.8063 258.496 68.2463 258.629 67.8836 258.896C67.5316 259.152 67.3556 259.483 67.3556 259.888C67.3556 260.208 67.4516 260.459 67.6436 260.64C67.8463 260.821 68.1076 260.965 68.4276 261.072C68.7583 261.168 69.1156 261.248 69.4996 261.312C69.8943 261.376 70.2836 261.456 70.6676 261.552C71.0623 261.637 71.4196 261.76 71.7396 261.92C72.0703 262.069 72.3316 262.288 72.5236 262.576C72.7263 262.853 72.8276 263.221 72.8276 263.68C72.8276 264.171 72.689 264.597 72.4116 264.96C72.145 265.312 71.7503 265.589 71.2276 265.792C70.7156 265.984 70.0916 266.08 69.3556 266.08ZM83.3876 257.52C84.0703 257.52 84.6676 257.653 85.1796 257.92C85.7023 258.176 86.1076 258.571 86.3956 259.104C86.6943 259.637 86.8436 260.309 86.8436 261.12V266H85.7076V261.232C85.7076 260.347 85.4836 259.68 85.0356 259.232C84.5983 258.773 83.9796 258.544 83.1796 258.544C82.5823 258.544 82.0596 258.667 81.6116 258.912C81.1743 259.147 80.833 259.493 80.5876 259.952C80.353 260.4 80.2356 260.944 80.2356 261.584V266H79.0996V254.128H80.2356V259.904L80.0116 259.472C80.2783 258.864 80.705 258.389 81.2916 258.048C81.8783 257.696 82.577 257.52 83.3876 257.52ZM95.1761 266V264.144L95.1281 263.84V260.736C95.1281 260.021 94.9255 259.472 94.5201 259.088C94.1255 258.704 93.5335 258.512 92.7441 258.512C92.2001 258.512 91.6828 258.603 91.1921 258.784C90.7015 258.965 90.2855 259.205 89.9441 259.504L89.4321 258.656C89.8588 258.293 90.3708 258.016 90.9681 257.824C91.5655 257.621 92.1948 257.52 92.8561 257.52C93.9441 257.52 94.7815 257.792 95.3681 258.336C95.9655 258.869 96.2641 259.685 96.2641 260.784V266H95.1761ZM92.2801 266.08C91.6508 266.08 91.1015 265.979 90.6321 265.776C90.1735 265.563 89.8215 265.275 89.5761 264.912C89.3308 264.539 89.2081 264.112 89.2081 263.632C89.2081 263.195 89.3095 262.8 89.5121 262.448C89.7255 262.085 90.0668 261.797 90.5361 261.584C91.0161 261.36 91.6561 261.248 92.4561 261.248H95.3521V262.096H92.4881C91.6775 262.096 91.1121 262.24 90.7921 262.528C90.4828 262.816 90.3281 263.173 90.3281 263.6C90.3281 264.08 90.5148 264.464 90.8881 264.752C91.2615 265.04 91.7841 265.184 92.4561 265.184C93.0961 265.184 93.6455 265.04 94.1041 264.752C94.5735 264.453 94.9148 264.027 95.1281 263.472L95.3841 264.256C95.1708 264.811 94.7975 265.253 94.2641 265.584C93.7415 265.915 93.0801 266.08 92.2801 266.08ZM101.353 266L97.6254 257.6H98.8094L102.233 265.392H101.673L105.145 257.6H106.265L102.521 266H101.353ZM111.199 266.08C110.324 266.08 109.556 265.899 108.895 265.536C108.234 265.163 107.716 264.656 107.343 264.016C106.97 263.365 106.783 262.624 106.783 261.792C106.783 260.96 106.959 260.224 107.311 259.584C107.674 258.944 108.164 258.443 108.783 258.08C109.412 257.707 110.116 257.52 110.895 257.52C111.684 257.52 112.383 257.701 112.991 258.064C113.61 258.416 114.095 258.917 114.447 259.568C114.799 260.208 114.975 260.949 114.975 261.792C114.975 261.845 114.97 261.904 114.959 261.968C114.959 262.021 114.959 262.08 114.959 262.144H107.647V261.296H114.351L113.903 261.632C113.903 261.024 113.77 260.485 113.503 260.016C113.247 259.536 112.895 259.163 112.447 258.896C111.999 258.629 111.482 258.496 110.895 258.496C110.319 258.496 109.802 258.629 109.343 258.896C108.884 259.163 108.527 259.536 108.271 260.016C108.015 260.496 107.887 261.045 107.887 261.664V261.84C107.887 262.48 108.026 263.045 108.303 263.536C108.591 264.016 108.986 264.395 109.487 264.672C109.999 264.939 110.58 265.072 111.231 265.072C111.743 265.072 112.218 264.981 112.655 264.8C113.103 264.619 113.487 264.341 113.807 263.968L114.447 264.704C114.074 265.152 113.604 265.493 113.039 265.728C112.484 265.963 111.871 266.08 111.199 266.08ZM125.811 266.08C125.075 266.08 124.413 265.915 123.827 265.584C123.24 265.243 122.776 264.752 122.435 264.112C122.093 263.472 121.923 262.699 121.923 261.792C121.923 260.875 122.093 260.101 122.435 259.472C122.787 258.832 123.256 258.347 123.843 258.016C124.429 257.685 125.085 257.52 125.811 257.52C126.611 257.52 127.325 257.701 127.955 258.064C128.595 258.416 129.096 258.912 129.459 259.552C129.821 260.192 130.003 260.939 130.003 261.792C130.003 262.635 129.821 263.381 129.459 264.032C129.096 264.672 128.595 265.173 127.955 265.536C127.325 265.899 126.611 266.08 125.811 266.08ZM121.475 266V254.128H122.611V260.08L122.451 261.776L122.563 263.472V266H121.475ZM125.731 265.072C126.328 265.072 126.861 264.939 127.331 264.672C127.8 264.395 128.173 264.011 128.451 263.52C128.728 263.019 128.867 262.443 128.867 261.792C128.867 261.131 128.728 260.555 128.451 260.064C128.173 259.573 127.8 259.195 127.331 258.928C126.861 258.651 126.328 258.512 125.731 258.512C125.133 258.512 124.595 258.651 124.115 258.928C123.645 259.195 123.272 259.573 122.995 260.064C122.728 260.555 122.595 261.131 122.595 261.792C122.595 262.443 122.728 263.019 122.995 263.52C123.272 264.011 123.645 264.395 124.115 264.672C124.595 264.939 125.133 265.072 125.731 265.072ZM135.886 266.08C135.012 266.08 134.244 265.899 133.582 265.536C132.921 265.163 132.404 264.656 132.03 264.016C131.657 263.365 131.47 262.624 131.47 261.792C131.47 260.96 131.646 260.224 131.998 259.584C132.361 258.944 132.852 258.443 133.47 258.08C134.1 257.707 134.804 257.52 135.582 257.52C136.372 257.52 137.07 257.701 137.678 258.064C138.297 258.416 138.782 258.917 139.134 259.568C139.486 260.208 139.662 260.949 139.662 261.792C139.662 261.845 139.657 261.904 139.646 261.968C139.646 262.021 139.646 262.08 139.646 262.144H132.334V261.296H139.038L138.59 261.632C138.59 261.024 138.457 260.485 138.19 260.016C137.934 259.536 137.582 259.163 137.134 258.896C136.686 258.629 136.169 258.496 135.582 258.496C135.006 258.496 134.489 258.629 134.03 258.896C133.572 259.163 133.214 259.536 132.958 260.016C132.702 260.496 132.574 261.045 132.574 261.664V261.84C132.574 262.48 132.713 263.045 132.99 263.536C133.278 264.016 133.673 264.395 134.174 264.672C134.686 264.939 135.268 265.072 135.918 265.072C136.43 265.072 136.905 264.981 137.342 264.8C137.79 264.619 138.174 264.341 138.494 263.968L139.134 264.704C138.761 265.152 138.292 265.493 137.726 265.728C137.172 265.963 136.558 266.08 135.886 266.08ZM145.543 266.08C144.668 266.08 143.9 265.899 143.239 265.536C142.577 265.163 142.06 264.656 141.687 264.016C141.313 263.365 141.127 262.624 141.127 261.792C141.127 260.96 141.303 260.224 141.655 259.584C142.017 258.944 142.508 258.443 143.127 258.08C143.756 257.707 144.46 257.52 145.239 257.52C146.028 257.52 146.727 257.701 147.335 258.064C147.953 258.416 148.439 258.917 148.791 259.568C149.143 260.208 149.319 260.949 149.319 261.792C149.319 261.845 149.313 261.904 149.303 261.968C149.303 262.021 149.303 262.08 149.303 262.144H141.991V261.296H148.695L148.247 261.632C148.247 261.024 148.113 260.485 147.847 260.016C147.591 259.536 147.239 259.163 146.791 258.896C146.343 258.629 145.825 258.496 145.239 258.496C144.663 258.496 144.145 258.629 143.687 258.896C143.228 259.163 142.871 259.536 142.615 260.016C142.359 260.496 142.231 261.045 142.231 261.664V261.84C142.231 262.48 142.369 263.045 142.647 263.536C142.935 264.016 143.329 264.395 143.831 264.672C144.343 264.939 144.924 265.072 145.575 265.072C146.087 265.072 146.561 264.981 146.999 264.8C147.447 264.619 147.831 264.341 148.151 263.968L148.791 264.704C148.417 265.152 147.948 265.493 147.383 265.728C146.828 265.963 146.215 266.08 145.543 266.08ZM155.919 257.52C156.602 257.52 157.199 257.653 157.711 257.92C158.234 258.176 158.639 258.571 158.927 259.104C159.226 259.637 159.375 260.309 159.375 261.12V266H158.239V261.232C158.239 260.347 158.015 259.68 157.567 259.232C157.13 258.773 156.511 258.544 155.711 258.544C155.114 258.544 154.591 258.667 154.143 258.912C153.706 259.147 153.364 259.493 153.119 259.952C152.884 260.4 152.767 260.944 152.767 261.584V266H151.631V257.6H152.719V259.904L152.543 259.472C152.81 258.864 153.236 258.389 153.823 258.048C154.41 257.696 155.108 257.52 155.919 257.52ZM171.895 266V264.144L171.847 263.84V260.736C171.847 260.021 171.644 259.472 171.239 259.088C170.844 258.704 170.252 258.512 169.463 258.512C168.919 258.512 168.402 258.603 167.911 258.784C167.42 258.965 167.004 259.205 166.663 259.504L166.151 258.656C166.578 258.293 167.09 258.016 167.687 257.824C168.284 257.621 168.914 257.52 169.575 257.52C170.663 257.52 171.5 257.792 172.087 258.336C172.684 258.869 172.983 259.685 172.983 260.784V266H171.895ZM168.999 266.08C168.37 266.08 167.82 265.979 167.351 265.776C166.892 265.563 166.54 265.275 166.295 264.912C166.05 264.539 165.927 264.112 165.927 263.632C165.927 263.195 166.028 262.8 166.231 262.448C166.444 262.085 166.786 261.797 167.255 261.584C167.735 261.36 168.375 261.248 169.175 261.248H172.071V262.096H169.207C168.396 262.096 167.831 262.24 167.511 262.528C167.202 262.816 167.047 263.173 167.047 263.6C167.047 264.08 167.234 264.464 167.607 264.752C167.98 265.04 168.503 265.184 169.175 265.184C169.815 265.184 170.364 265.04 170.823 264.752C171.292 264.453 171.634 264.027 171.847 263.472L172.103 264.256C171.89 264.811 171.516 265.253 170.983 265.584C170.46 265.915 169.799 266.08 168.999 266.08ZM178.324 266.08C177.631 266.08 176.975 265.984 176.356 265.792C175.738 265.589 175.252 265.339 174.9 265.04L175.412 264.144C175.754 264.4 176.191 264.624 176.724 264.816C177.258 264.997 177.818 265.088 178.404 265.088C179.204 265.088 179.78 264.965 180.132 264.72C180.484 264.464 180.66 264.128 180.66 263.712C180.66 263.403 180.559 263.163 180.356 262.992C180.164 262.811 179.908 262.677 179.588 262.592C179.268 262.496 178.911 262.416 178.516 262.352C178.122 262.288 177.727 262.213 177.332 262.128C176.948 262.043 176.596 261.92 176.276 261.76C175.956 261.589 175.695 261.36 175.492 261.072C175.3 260.784 175.204 260.4 175.204 259.92C175.204 259.461 175.332 259.051 175.588 258.688C175.844 258.325 176.218 258.043 176.708 257.84C177.21 257.627 177.818 257.52 178.532 257.52C179.076 257.52 179.62 257.595 180.164 257.744C180.708 257.883 181.156 258.069 181.508 258.304L181.012 259.216C180.639 258.96 180.239 258.779 179.812 258.672C179.386 258.555 178.959 258.496 178.532 258.496C177.775 258.496 177.215 258.629 176.852 258.896C176.5 259.152 176.324 259.483 176.324 259.888C176.324 260.208 176.42 260.459 176.612 260.64C176.815 260.821 177.076 260.965 177.396 261.072C177.727 261.168 178.084 261.248 178.468 261.312C178.863 261.376 179.252 261.456 179.636 261.552C180.031 261.637 180.388 261.76 180.708 261.92C181.039 262.069 181.3 262.288 181.492 262.576C181.695 262.853 181.796 263.221 181.796 263.68C181.796 264.171 181.658 264.597 181.38 264.96C181.114 265.312 180.719 265.589 180.196 265.792C179.684 265.984 179.06 266.08 178.324 266.08ZM186.137 266.08C185.444 266.08 184.788 265.984 184.169 265.792C183.55 265.589 183.065 265.339 182.713 265.04L183.225 264.144C183.566 264.4 184.004 264.624 184.537 264.816C185.07 264.997 185.63 265.088 186.217 265.088C187.017 265.088 187.593 264.965 187.945 264.72C188.297 264.464 188.473 264.128 188.473 263.712C188.473 263.403 188.372 263.163 188.169 262.992C187.977 262.811 187.721 262.677 187.401 262.592C187.081 262.496 186.724 262.416 186.329 262.352C185.934 262.288 185.54 262.213 185.145 262.128C184.761 262.043 184.409 261.92 184.089 261.76C183.769 261.589 183.508 261.36 183.305 261.072C183.113 260.784 183.017 260.4 183.017 259.92C183.017 259.461 183.145 259.051 183.401 258.688C183.657 258.325 184.03 258.043 184.521 257.84C185.022 257.627 185.63 257.52 186.345 257.52C186.889 257.52 187.433 257.595 187.977 257.744C188.521 257.883 188.969 258.069 189.321 258.304L188.825 259.216C188.452 258.96 188.052 258.779 187.625 258.672C187.198 258.555 186.772 258.496 186.345 258.496C185.588 258.496 185.028 258.629 184.665 258.896C184.313 259.152 184.137 259.483 184.137 259.888C184.137 260.208 184.233 260.459 184.425 260.64C184.628 260.821 184.889 260.965 185.209 261.072C185.54 261.168 185.897 261.248 186.281 261.312C186.676 261.376 187.065 261.456 187.449 261.552C187.844 261.637 188.201 261.76 188.521 261.92C188.852 262.069 189.113 262.288 189.305 262.576C189.508 262.853 189.609 263.221 189.609 263.68C189.609 264.171 189.47 264.597 189.193 264.96C188.926 265.312 188.532 265.589 188.009 265.792C187.497 265.984 186.873 266.08 186.137 266.08ZM191.693 266V257.6H192.829V266H191.693ZM192.269 255.744C192.035 255.744 191.837 255.664 191.677 255.504C191.517 255.344 191.437 255.152 191.437 254.928C191.437 254.704 191.517 254.517 191.677 254.368C191.837 254.208 192.035 254.128 192.269 254.128C192.504 254.128 192.701 254.203 192.861 254.352C193.021 254.501 193.101 254.688 193.101 254.912C193.101 255.147 193.021 255.344 192.861 255.504C192.712 255.664 192.515 255.744 192.269 255.744ZM199.574 269.184C198.806 269.184 198.07 269.072 197.366 268.848C196.662 268.624 196.092 268.304 195.654 267.888L196.23 267.024C196.625 267.376 197.11 267.653 197.686 267.856C198.273 268.069 198.892 268.176 199.542 268.176C200.609 268.176 201.393 267.925 201.894 267.424C202.396 266.933 202.646 266.165 202.646 265.12V263.024L202.806 261.584L202.694 260.144V257.6H203.782V264.976C203.782 266.427 203.425 267.488 202.71 268.16C202.006 268.843 200.961 269.184 199.574 269.184ZM199.366 265.68C198.566 265.68 197.846 265.509 197.206 265.168C196.566 264.816 196.06 264.331 195.686 263.712C195.324 263.093 195.142 262.384 195.142 261.584C195.142 260.784 195.324 260.08 195.686 259.472C196.06 258.853 196.566 258.373 197.206 258.032C197.846 257.691 198.566 257.52 199.366 257.52C200.113 257.52 200.785 257.675 201.382 257.984C201.98 258.293 202.454 258.752 202.806 259.36C203.158 259.968 203.334 260.709 203.334 261.584C203.334 262.459 203.158 263.2 202.806 263.808C202.454 264.416 201.98 264.88 201.382 265.2C200.785 265.52 200.113 265.68 199.366 265.68ZM199.478 264.672C200.097 264.672 200.646 264.544 201.126 264.288C201.606 264.021 201.985 263.659 202.262 263.2C202.54 262.731 202.678 262.192 202.678 261.584C202.678 260.976 202.54 260.443 202.262 259.984C201.985 259.525 201.606 259.168 201.126 258.912C200.646 258.645 200.097 258.512 199.478 258.512C198.87 258.512 198.321 258.645 197.83 258.912C197.35 259.168 196.972 259.525 196.694 259.984C196.428 260.443 196.294 260.976 196.294 261.584C196.294 262.192 196.428 262.731 196.694 263.2C196.972 263.659 197.35 264.021 197.83 264.288C198.321 264.544 198.87 264.672 199.478 264.672ZM211.231 257.52C211.914 257.52 212.511 257.653 213.023 257.92C213.546 258.176 213.951 258.571 214.239 259.104C214.538 259.637 214.687 260.309 214.687 261.12V266H213.551V261.232C213.551 260.347 213.327 259.68 212.879 259.232C212.442 258.773 211.823 258.544 211.023 258.544C210.426 258.544 209.903 258.667 209.455 258.912C209.018 259.147 208.677 259.493 208.431 259.952C208.197 260.4 208.079 260.944 208.079 261.584V266H206.943V257.6H208.031V259.904L207.855 259.472C208.122 258.864 208.549 258.389 209.135 258.048C209.722 257.696 210.421 257.52 211.231 257.52ZM221.324 266.08C220.449 266.08 219.681 265.899 219.02 265.536C218.359 265.163 217.841 264.656 217.468 264.016C217.095 263.365 216.908 262.624 216.908 261.792C216.908 260.96 217.084 260.224 217.436 259.584C217.799 258.944 218.289 258.443 218.908 258.08C219.537 257.707 220.241 257.52 221.02 257.52C221.809 257.52 222.508 257.701 223.116 258.064C223.735 258.416 224.22 258.917 224.572 259.568C224.924 260.208 225.1 260.949 225.1 261.792C225.1 261.845 225.095 261.904 225.084 261.968C225.084 262.021 225.084 262.08 225.084 262.144H217.772V261.296H224.476L224.028 261.632C224.028 261.024 223.895 260.485 223.628 260.016C223.372 259.536 223.02 259.163 222.572 258.896C222.124 258.629 221.607 258.496 221.02 258.496C220.444 258.496 219.927 258.629 219.468 258.896C219.009 259.163 218.652 259.536 218.396 260.016C218.14 260.496 218.012 261.045 218.012 261.664V261.84C218.012 262.48 218.151 263.045 218.428 263.536C218.716 264.016 219.111 264.395 219.612 264.672C220.124 264.939 220.705 265.072 221.356 265.072C221.868 265.072 222.343 264.981 222.78 264.8C223.228 264.619 223.612 264.341 223.932 263.968L224.572 264.704C224.199 265.152 223.729 265.493 223.164 265.728C222.609 265.963 221.996 266.08 221.324 266.08ZM230.756 266.08C229.956 266.08 229.236 265.899 228.596 265.536C227.967 265.173 227.471 264.672 227.108 264.032C226.745 263.381 226.564 262.635 226.564 261.792C226.564 260.939 226.745 260.192 227.108 259.552C227.471 258.912 227.967 258.416 228.596 258.064C229.236 257.701 229.956 257.52 230.756 257.52C231.492 257.52 232.148 257.685 232.724 258.016C233.311 258.347 233.775 258.832 234.116 259.472C234.468 260.101 234.644 260.875 234.644 261.792C234.644 262.699 234.473 263.472 234.132 264.112C233.791 264.752 233.327 265.243 232.74 265.584C232.164 265.915 231.503 266.08 230.756 266.08ZM230.836 265.072C231.433 265.072 231.967 264.939 232.436 264.672C232.916 264.395 233.289 264.011 233.556 263.52C233.833 263.019 233.972 262.443 233.972 261.792C233.972 261.131 233.833 260.555 233.556 260.064C233.289 259.573 232.916 259.195 232.436 258.928C231.967 258.651 231.433 258.512 230.836 258.512C230.249 258.512 229.721 258.651 229.252 258.928C228.783 259.195 228.409 259.573 228.132 260.064C227.855 260.555 227.716 261.131 227.716 261.792C227.716 262.443 227.855 263.019 228.132 263.52C228.409 264.011 228.783 264.395 229.252 264.672C229.721 264.939 230.249 265.072 230.836 265.072ZM234.004 266V263.472L234.116 261.776L233.956 260.08V254.128H235.092V266H234.004ZM245.099 266.08C244.31 266.08 243.702 265.867 243.275 265.44C242.849 265.013 242.635 264.411 242.635 263.632V255.744H243.771V263.568C243.771 264.059 243.894 264.437 244.139 264.704C244.395 264.971 244.758 265.104 245.227 265.104C245.729 265.104 246.145 264.96 246.475 264.672L246.875 265.488C246.651 265.691 246.379 265.84 246.059 265.936C245.75 266.032 245.43 266.08 245.099 266.08ZM241.131 258.544V257.6H246.331V258.544H241.131ZM252.071 266.08C251.26 266.08 250.529 265.899 249.879 265.536C249.239 265.163 248.732 264.656 248.359 264.016C247.985 263.365 247.799 262.624 247.799 261.792C247.799 260.949 247.985 260.208 248.359 259.568C248.732 258.928 249.239 258.427 249.879 258.064C250.519 257.701 251.249 257.52 252.071 257.52C252.903 257.52 253.639 257.701 254.279 258.064C254.929 258.427 255.436 258.928 255.799 259.568C256.172 260.208 256.359 260.949 256.359 261.792C256.359 262.624 256.172 263.365 255.799 264.016C255.436 264.656 254.929 265.163 254.279 265.536C253.628 265.899 252.892 266.08 252.071 266.08ZM252.071 265.072C252.679 265.072 253.217 264.939 253.687 264.672C254.156 264.395 254.524 264.011 254.791 263.52C255.068 263.019 255.207 262.443 255.207 261.792C255.207 261.131 255.068 260.555 254.791 260.064C254.524 259.573 254.156 259.195 253.687 258.928C253.217 258.651 252.684 258.512 252.087 258.512C251.489 258.512 250.956 258.651 250.487 258.928C250.017 259.195 249.644 259.573 249.367 260.064C249.089 260.555 248.951 261.131 248.951 261.792C248.951 262.443 249.089 263.019 249.367 263.52C249.644 264.011 250.017 264.395 250.487 264.672C250.956 264.939 251.484 265.072 252.071 265.072ZM262.929 269.184C262.535 269.184 262.156 269.12 261.793 268.992C261.441 268.864 261.137 268.672 260.881 268.416L261.409 267.568C261.623 267.771 261.852 267.925 262.097 268.032C262.353 268.149 262.636 268.208 262.945 268.208C263.319 268.208 263.639 268.101 263.905 267.888C264.183 267.685 264.444 267.323 264.689 266.8L265.233 265.568L265.361 265.392L268.817 257.6H269.937L265.729 267.008C265.495 267.552 265.233 267.984 264.945 268.304C264.668 268.624 264.364 268.848 264.033 268.976C263.703 269.115 263.335 269.184 262.929 269.184ZM265.169 266.24L261.297 257.6H262.481L265.905 265.312L265.169 266.24ZM274.727 266.08C273.916 266.08 273.185 265.899 272.535 265.536C271.895 265.163 271.388 264.656 271.015 264.016C270.641 263.365 270.455 262.624 270.455 261.792C270.455 260.949 270.641 260.208 271.015 259.568C271.388 258.928 271.895 258.427 272.535 258.064C273.175 257.701 273.905 257.52 274.727 257.52C275.559 257.52 276.295 257.701 276.935 258.064C277.585 258.427 278.092 258.928 278.455 259.568C278.828 260.208 279.015 260.949 279.015 261.792C279.015 262.624 278.828 263.365 278.455 264.016C278.092 264.656 277.585 265.163 276.935 265.536C276.284 265.899 275.548 266.08 274.727 266.08ZM274.727 265.072C275.335 265.072 275.873 264.939 276.343 264.672C276.812 264.395 277.18 264.011 277.447 263.52C277.724 263.019 277.863 262.443 277.863 261.792C277.863 261.131 277.724 260.555 277.447 260.064C277.18 259.573 276.812 259.195 276.343 258.928C275.873 258.651 275.34 258.512 274.743 258.512C274.145 258.512 273.612 258.651 273.143 258.928C272.673 259.195 272.3 259.573 272.023 260.064C271.745 260.555 271.607 261.131 271.607 261.792C271.607 262.443 271.745 263.019 272.023 263.52C272.3 264.011 272.673 264.395 273.143 264.672C273.612 264.939 274.14 265.072 274.727 265.072ZM284.806 266.08C284.091 266.08 283.467 265.947 282.934 265.68C282.401 265.413 281.985 265.013 281.686 264.48C281.398 263.947 281.254 263.28 281.254 262.48V257.6H282.39V262.352C282.39 263.248 282.609 263.925 283.046 264.384C283.494 264.832 284.118 265.056 284.918 265.056C285.505 265.056 286.011 264.939 286.438 264.704C286.875 264.459 287.206 264.107 287.43 263.648C287.665 263.189 287.782 262.64 287.782 262V257.6H288.918V266H287.83V263.696L288.006 264.112C287.739 264.731 287.323 265.216 286.758 265.568C286.203 265.909 285.553 266.08 284.806 266.08ZM296.336 269.184C295.941 269.184 295.562 269.12 295.2 268.992C294.848 268.864 294.543 268.672 294.287 268.416L294.816 267.568C295.029 267.771 295.258 267.925 295.504 268.032C295.76 268.149 296.042 268.208 296.352 268.208C296.725 268.208 297.045 268.101 297.312 267.888C297.589 267.685 297.85 267.323 298.096 266.8L298.64 265.568L298.768 265.392L302.224 257.6H303.344L299.136 267.008C298.901 267.552 298.64 267.984 298.352 268.304C298.074 268.624 297.77 268.848 297.44 268.976C297.109 269.115 296.741 269.184 296.336 269.184ZM298.576 266.24L294.704 257.6H295.888L299.312 265.312L298.576 266.24ZM308.277 266.08C307.402 266.08 306.634 265.899 305.973 265.536C305.312 265.163 304.794 264.656 304.421 264.016C304.048 263.365 303.861 262.624 303.861 261.792C303.861 260.96 304.037 260.224 304.389 259.584C304.752 258.944 305.242 258.443 305.861 258.08C306.49 257.707 307.194 257.52 307.973 257.52C308.762 257.52 309.461 257.701 310.069 258.064C310.688 258.416 311.173 258.917 311.525 259.568C311.877 260.208 312.053 260.949 312.053 261.792C312.053 261.845 312.048 261.904 312.037 261.968C312.037 262.021 312.037 262.08 312.037 262.144H304.725V261.296H311.429L310.981 261.632C310.981 261.024 310.848 260.485 310.581 260.016C310.325 259.536 309.973 259.163 309.525 258.896C309.077 258.629 308.56 258.496 307.973 258.496C307.397 258.496 306.88 258.629 306.421 258.896C305.962 259.163 305.605 259.536 305.349 260.016C305.093 260.496 304.965 261.045 304.965 261.664V261.84C304.965 262.48 305.104 263.045 305.381 263.536C305.669 264.016 306.064 264.395 306.565 264.672C307.077 264.939 307.658 265.072 308.309 265.072C308.821 265.072 309.296 264.981 309.733 264.8C310.181 264.619 310.565 264.341 310.885 263.968L311.525 264.704C311.152 265.152 310.682 265.493 310.117 265.728C309.562 265.963 308.949 266.08 308.277 266.08ZM317.021 266.08C316.232 266.08 315.624 265.867 315.197 265.44C314.771 265.013 314.557 264.411 314.557 263.632V255.744H315.693V263.568C315.693 264.059 315.816 264.437 316.061 264.704C316.317 264.971 316.68 265.104 317.149 265.104C317.651 265.104 318.067 264.96 318.397 264.672L318.797 265.488C318.573 265.691 318.301 265.84 317.981 265.936C317.672 266.032 317.352 266.08 317.021 266.08ZM313.053 258.544V257.6H318.253V258.544H313.053ZM321.134 266.08C320.899 266.08 320.696 265.995 320.526 265.824C320.366 265.653 320.286 265.445 320.286 265.2C320.286 264.944 320.366 264.736 320.526 264.576C320.696 264.416 320.899 264.336 321.134 264.336C321.368 264.336 321.566 264.416 321.726 264.576C321.896 264.736 321.982 264.944 321.982 265.2C321.982 265.445 321.896 265.653 321.726 265.824C321.566 265.995 321.368 266.08 321.134 266.08Z" fill="black"/>
<defs>
<clipPath id="clip0_2708_12561">
<rect width="200.965" height="200" fill="white" transform="translate(63.5171)"/>
</clipPath>
</defs>
</svg>
