<svg width="116" height="112" viewBox="0 0 116 112" fill="none" xmlns="http://www.w3.org/2000/svg">
<g clip-path="url(#clip0_1906_8366)">
<path d="M44.7882 102.012L41.7674 104.772L44.1681 100.774C42.2767 97.3697 39.1833 94.4277 39.1833 94.4277C39.1833 94.4277 32.7656 100.53 32.7656 105.327C32.7656 110.124 35.6389 111.798 39.1833 111.798C42.7276 111.798 45.6009 110.124 45.6009 105.327C45.6009 104.259 45.2825 103.127 44.7882 102.012Z" fill="#F2F2F2"/>
<path d="M40.9899 104.921V105.158C40.9757 107.906 40.5087 110.051 39.5923 111.56C39.5793 111.583 39.5652 111.604 39.5522 111.626L39.4496 111.564L39.3517 111.503C40.3683 109.873 40.728 107.568 40.741 105.171C40.7422 105.093 40.7434 105.015 40.7422 104.937C40.7387 103.922 40.6762 102.895 40.5759 101.898C40.5688 101.821 40.5606 101.742 40.5523 101.664C40.4132 100.348 40.2127 99.0911 40.0074 97.999C39.9933 97.9218 39.978 97.8445 39.9626 97.7684C39.6076 95.9214 39.2456 94.5835 39.163 94.2874C39.1536 94.2511 39.1477 94.2312 39.1465 94.2265L39.2585 94.1949L39.2597 94.1937L39.3729 94.1621C39.3741 94.1668 39.3942 94.2335 39.4272 94.3576C39.5534 94.8211 39.8813 96.0794 40.2032 97.7392C40.2174 97.8141 40.2327 97.8913 40.2469 97.9686C40.4143 98.8547 40.5783 99.8449 40.708 100.884C40.741 101.145 40.7705 101.403 40.7965 101.657C40.8059 101.735 40.8142 101.814 40.8212 101.891C40.9297 102.969 40.9859 103.979 40.9899 104.921Z" fill="white"/>
<path d="M40.2039 97.7376C40.1248 97.7482 40.0446 97.7587 39.9633 97.7669C39.7423 97.7895 39.5202 97.8008 39.2981 97.8008C38.3513 97.8021 37.4162 97.5925 36.5619 97.1875C36.5124 97.2495 36.4628 97.3116 36.4121 97.3748C37.3109 97.8102 38.298 98.036 39.2981 98.0349C39.5352 98.0349 39.7722 98.0224 40.0081 97.9975C40.0883 97.9893 40.1685 97.9788 40.2475 97.9671C40.8998 97.8742 41.534 97.6836 42.1286 97.4017C42.0779 97.3373 42.0284 97.2741 41.98 97.2121C41.4173 97.4731 40.8188 97.6502 40.2039 97.7376Z" fill="white"/>
<path d="M40.7966 101.656C40.7152 101.661 40.6338 101.663 40.5524 101.663C40.5277 101.664 40.5017 101.664 40.477 101.664C39.451 101.664 38.4403 101.418 37.531 100.947C36.6217 100.475 35.8407 99.7927 35.2546 98.957C35.2074 99.0261 35.1602 99.0951 35.1143 99.1654C35.7251 100.011 36.5302 100.7 37.4628 101.175C38.3953 101.651 39.4286 101.898 40.477 101.899C40.51 101.899 40.543 101.898 40.576 101.897C40.6586 101.896 40.74 101.894 40.8213 101.89C42.0806 101.826 43.2946 101.404 44.3182 100.673C44.2805 100.604 44.2428 100.535 44.2038 100.466C43.209 101.183 42.0249 101.597 40.7966 101.656Z" fill="white"/>
<path d="M40.9903 104.921C40.9078 104.928 40.8252 104.933 40.7427 104.936C40.6542 104.94 40.5657 104.942 40.4773 104.942C39.0987 104.941 37.7578 104.496 36.6552 103.675C35.5526 102.854 34.7477 101.7 34.361 100.387C34.3079 100.482 34.2548 100.575 34.2041 100.67C34.6398 101.98 35.4805 103.121 36.6066 103.93C37.7327 104.739 39.0871 105.175 40.4773 105.176C40.5657 105.176 40.6542 105.175 40.7415 105.171C40.8252 105.168 40.9078 105.164 40.9903 105.158C42.6579 105.028 44.2135 104.275 45.3423 103.05C45.3175 102.963 45.2892 102.878 45.2609 102.791C44.1706 104.025 42.6388 104.789 40.9903 104.921Z" fill="white"/>
<path d="M115.833 5.99728H0.16827C0.123847 5.99713 0.0812999 5.97951 0.0499427 5.94828C0.0185855 5.91705 0.000976562 5.87476 0.000976562 5.83067C0.000976562 5.78658 0.0185855 5.74429 0.0499427 5.71307C0.0812999 5.68184 0.123847 5.66421 0.16827 5.66406H115.833C115.877 5.66421 115.92 5.68184 115.951 5.71307C115.982 5.74429 116 5.78658 116 5.83067C116 5.87476 115.982 5.91705 115.951 5.94828C115.92 5.97951 115.877 5.99713 115.833 5.99728Z" fill="#CACACA"/>
<path d="M3.94621 3.66536C4.96606 3.66536 5.79281 2.84484 5.79281 1.83268C5.79281 0.820519 4.96606 0 3.94621 0C2.92636 0 2.09961 0.820519 2.09961 1.83268C2.09961 2.84484 2.92636 3.66536 3.94621 3.66536Z" fill="#3F3D56"/>
<path d="M10.3251 3.66536C11.345 3.66536 12.1717 2.84484 12.1717 1.83268C12.1717 0.820519 11.345 0 10.3251 0C9.30527 0 8.47852 0.820519 8.47852 1.83268C8.47852 2.84484 9.30527 3.66536 10.3251 3.66536Z" fill="#3F3D56"/>
<path d="M16.705 3.66536C17.7248 3.66536 18.5516 2.84484 18.5516 1.83268C18.5516 0.820519 17.7248 0 16.705 0C15.6851 0 14.8584 0.820519 14.8584 1.83268C14.8584 2.84484 15.6851 3.66536 16.705 3.66536Z" fill="#3F3D56"/>
<path d="M112.01 1.12151H107.477C107.388 1.1212 107.303 1.08596 107.241 1.02351C107.178 0.96105 107.143 0.876469 107.143 0.788294C107.143 0.700119 107.178 0.615538 107.241 0.553081C107.303 0.490624 107.388 0.455385 107.477 0.45508H112.01C112.054 0.454929 112.098 0.463435 112.139 0.480113C112.179 0.49679 112.217 0.521311 112.248 0.552268C112.279 0.583225 112.304 0.620008 112.321 0.660511C112.338 0.701014 112.347 0.744438 112.347 0.788294C112.347 0.832149 112.338 0.875574 112.321 0.916077C112.304 0.956579 112.279 0.993362 112.248 1.02432C112.217 1.05528 112.179 1.0798 112.139 1.09647C112.098 1.11315 112.054 1.12166 112.01 1.12151Z" fill="#3F3D56"/>
<path d="M112.01 2.37151H107.477C107.388 2.3712 107.303 2.33596 107.241 2.27351C107.178 2.21105 107.143 2.12647 107.143 2.03829C107.143 1.95012 107.178 1.86554 107.241 1.80308C107.303 1.74062 107.388 1.70538 107.477 1.70508H112.01C112.054 1.70493 112.098 1.71343 112.139 1.73011C112.179 1.74679 112.217 1.77131 112.248 1.80227C112.279 1.83323 112.304 1.87001 112.321 1.91051C112.338 1.95101 112.347 1.99444 112.347 2.03829C112.347 2.08215 112.338 2.12557 112.321 2.16608C112.304 2.20658 112.279 2.24336 112.248 2.27432C112.217 2.30528 112.179 2.3298 112.139 2.34647C112.098 2.36315 112.054 2.37166 112.01 2.37151Z" fill="#3F3D56"/>
<path d="M112.01 3.61956H107.477C107.388 3.61925 107.303 3.58401 107.241 3.52155C107.178 3.4591 107.143 3.37452 107.143 3.28634C107.143 3.19817 107.178 3.11359 107.241 3.05113C107.303 2.98867 107.388 2.95343 107.477 2.95313H112.01C112.054 2.95298 112.098 2.96148 112.139 2.97816C112.179 2.99484 112.217 3.01936 112.248 3.05032C112.279 3.08127 112.304 3.11806 112.321 3.15856C112.338 3.19906 112.347 3.24249 112.347 3.28634C112.347 3.3302 112.338 3.37362 112.321 3.41412C112.304 3.45463 112.279 3.49141 112.248 3.52237C112.217 3.55333 112.179 3.57784 112.139 3.59452C112.098 3.6112 112.054 3.61971 112.01 3.61956Z" fill="#3F3D56"/>
<path d="M109.481 13.5332H3.48438V69.2683H109.481V13.5332Z" fill="#F0F0F0"/>
<path d="M109.481 23.9659V23.4193H88.8474V13.5332H88.2966V23.4193H67.6633V13.5332H67.1125V23.4193H46.4793V13.5332H45.9285V23.4193H25.2952V13.5332H24.7444V23.4193H3.48438V23.9659H24.7444V34.8875H3.48438V35.4341H24.7444V46.3557H3.48438V46.9023H24.7444V57.8219H3.48438V58.3685H24.7444V69.2683H25.2952V58.3685H45.9285V69.2683H46.4793V58.3685H67.1125V69.2683H67.6633V58.3685H88.2966V69.2683H88.8474V58.3685H109.481V57.8219H88.8474V46.9023H109.481V46.3557H88.8474V35.4341H109.481V34.8875H88.8474V23.9659L109.481 23.9659ZM45.9285 57.8219H25.2952V46.9023H45.9285V57.8219ZM45.9285 46.3557H25.2952V35.4341H45.9285V46.3557ZM45.9285 34.8875H25.2952V23.9659H45.9285V34.8875ZM67.1125 57.8219H46.4793V46.9023H67.1125V57.8219ZM67.1125 46.3557H46.4793V35.4341H67.1125V46.3557ZM67.1125 34.8875H46.4793V23.9659H67.1125V34.8875ZM88.2966 57.8219H67.6633V46.9023H88.2966V57.8219ZM88.2966 46.3557H67.6633V35.4341H88.2966V46.3557ZM88.2966 34.8875H67.6633V23.9659H88.2966V34.8875Z" fill="white"/>
<path d="M36.4916 26.6211H29.4004V33.4345H36.4916V26.6211Z" fill="#CACACA"/>
<path d="M101.778 48.6836H94.6865V55.497H101.778V48.6836Z" fill="#CACACA"/>
<path d="M38.6938 60.0117H31.6025V66.8251H38.6938V60.0117Z" fill="#CACACA"/>
<path d="M40.7895 25.3574H33.6982V32.1708H40.7895V25.3574Z" fill="#8094D4"/>
<path d="M74.124 53.6791L82.539 46.2383L85.0214 47.459L74.9289 57.9649L74.124 53.6791Z" fill="#FFB6B6"/>
<path d="M83.6462 48.7954C84.7522 48.7954 85.6489 47.9056 85.6489 46.8079C85.6489 45.7102 84.7522 44.8203 83.6462 44.8203C82.5402 44.8203 81.6436 45.7102 81.6436 46.8079C81.6436 47.9056 82.5402 48.7954 83.6462 48.7954Z" fill="#FFB6B6"/>
<path d="M66.2471 109.685H64.2558L63.3086 102.062L66.2473 102.063L66.2471 109.685Z" fill="#FFB6B6"/>
<path d="M66.7552 111.6L60.335 111.6V111.519C60.335 110.861 60.5983 110.231 61.0669 109.765C61.5356 109.3 62.1712 109.039 62.8339 109.039L66.7553 109.039L66.7552 111.6Z" fill="#2F2E41"/>
<path d="M59.0381 109.685H57.0469L56.0996 102.062L59.0383 102.063L59.0381 109.685Z" fill="#FFB6B6"/>
<path d="M59.5453 111.6L53.125 111.6V111.519C53.125 110.861 53.3883 110.231 53.857 109.765C54.3256 109.3 54.9612 109.039 55.6239 109.039L59.5454 109.039L59.5453 111.6Z" fill="#2F2E41"/>
<path d="M67.92 66.1141C67.92 66.1141 72.9267 65.7166 71.3245 74.4618C69.7224 83.2071 66.4039 107.13 66.4039 107.13L63.3952 107.54L61.6177 75.6279L60.2729 107.54L56.4464 107.13L52.6999 72.8718C52.6999 72.8718 51.4969 70.1174 52.6992 68.2151C53.9015 66.3128 67.92 66.1141 67.92 66.1141Z" fill="#2F2E41"/>
<path d="M64.7158 44.4488L66.1059 43.7097C66.1059 43.7097 69.5306 43.4198 70.9283 47.4126L74.6349 52.9689L80.6429 47.8012L83.2463 49.59L75.6745 58.5588L72.5262 58.958L65.7171 50.2128L64.7158 44.4488Z" fill="#3F3D56"/>
<path d="M59.672 28.3242C53.9609 28.3242 52.3623 34.5506 52.3623 38.0632C52.3623 41.5759 55.6349 41.0446 59.672 41.0446C61.4048 41.0446 62.9957 41.1417 64.2485 40.9756L64.851 39.5154L65.3359 40.7253C66.3643 40.3504 66.9817 39.5882 66.9817 38.0632C66.9817 34.5506 65.5798 28.3242 59.672 28.3242Z" fill="#2F2E41"/>
<path d="M59.6472 41.0387C62.3638 41.0387 64.566 38.8531 64.566 36.157C64.566 33.461 62.3638 31.2754 59.6472 31.2754C56.9307 31.2754 54.7285 33.461 54.7285 36.157C54.7285 38.8531 56.9307 41.0387 59.6472 41.0387Z" fill="#FFB6B6"/>
<path d="M53.9639 35.6774H55.9093L56.7676 33.2923L56.9392 35.6774H57.869L58.3697 34.2861L58.4698 35.6774H65.379C65.379 34.3069 64.8304 32.9925 63.8539 32.0233C62.8774 31.0542 61.553 30.5098 60.1721 30.5098H59.1708C57.7898 30.5098 56.4654 31.0542 55.4889 32.0233C54.5125 32.9925 53.9639 34.3069 53.9639 35.6774Z" fill="#2F2E41"/>
<path d="M86.851 39.2695H79.7598V46.0829H86.851V39.2695Z" fill="#8094D4"/>
<path d="M69.4762 64.315C68.721 64.3247 66.4462 50.9288 66.4462 50.9288L66.1057 43.71L63.6202 43.6271V43.4649C63.6202 43.139 63.4898 42.8266 63.2576 42.5962C63.0255 42.3658 62.7106 42.2363 62.3823 42.2363H57.6485C57.3341 42.2365 57.0314 42.3555 56.8022 42.5692C56.573 42.7829 56.4345 43.0752 56.4147 43.3867L54.4655 43.3217L51.0898 53.9658C51.0898 53.9658 54.2004 63.856 52.6991 68.2145C52.6991 68.2145 67.3261 69.4611 70.1263 66.6941C70.1263 66.6941 70.2314 64.3054 69.4762 64.315Z" fill="#3F3D56"/>
<path d="M55.3033 44.6475L54.4656 43.3213C54.4656 43.3213 51.7399 42.6526 50.6178 44.4451C49.4957 46.2376 46.1973 55.9501 46.1973 55.9501L49.6018 57.1427L53.4652 51.7672L55.3033 44.6475Z" fill="#3F3D56"/>
<path d="M63.8207 51.5938H56.7295V58.4071H63.8207V51.5938Z" fill="#8094D4"/>
<path d="M51.2886 54.0559L48.8216 53.7969C48.6658 54.1267 48.5876 54.4874 48.593 54.8517C48.5984 55.2159 48.6872 55.5742 48.8527 55.8993C49.0182 56.2245 49.2561 56.508 49.5483 56.7285C49.8405 56.9489 50.1793 57.1006 50.5393 57.1719L60.3009 59.1054L59.2827 55.9931L51.2886 54.0559Z" fill="#FFB6B6"/>
<path d="M60.3298 59.1411C61.4358 59.1411 62.3324 58.2513 62.3324 57.1536C62.3324 56.0559 61.4358 55.166 60.3298 55.166C59.2238 55.166 58.3271 56.0559 58.3271 57.1536C58.3271 58.2513 59.2238 59.1411 60.3298 59.1411Z" fill="#FFB6B6"/>
<path d="M57.8305 59.2012L50.3938 57.5147C49.8549 57.391 49.3573 57.1314 48.9492 56.7609C48.5411 56.3903 48.2363 55.9216 48.0642 55.3998L47.7637 54.48L49.6937 52.9727L58.536 55.4255L57.8305 59.2012Z" fill="#3F3D56"/>
<path d="M99.6194 111.999H23.3184C23.2653 111.999 23.2144 111.978 23.1768 111.941C23.1393 111.904 23.1182 111.853 23.1182 111.8C23.1182 111.748 23.1393 111.697 23.1768 111.66C23.2144 111.623 23.2653 111.602 23.3184 111.602H99.6194C99.6725 111.602 99.7235 111.623 99.761 111.66C99.7986 111.697 99.8197 111.748 99.8197 111.8C99.8197 111.853 99.7986 111.904 99.761 111.941C99.7235 111.978 99.6725 111.999 99.6194 111.999Z" fill="#CACACA"/>
</g>
<defs>
<clipPath id="clip0_1906_8366">
<rect width="116" height="112" fill="white"/>
</clipPath>
</defs>
</svg>
