<svg width="25" height="24" viewBox="0 0 25 24" fill="none" xmlns="http://www.w3.org/2000/svg">
<path d="M13.084 9.75C13.084 9.55109 13.163 9.36032 13.3037 9.21967C13.4443 9.07902 13.6351 9 13.834 9H16.084C16.2829 9 16.4737 9.07902 16.6143 9.21967C16.755 9.36032 16.834 9.55109 16.834 9.75C16.834 9.94891 16.755 10.1397 16.6143 10.2803C16.4737 10.421 16.2829 10.5 16.084 10.5H13.834C13.6351 10.5 13.4443 10.421 13.3037 10.2803C13.163 10.1397 13.084 9.94891 13.084 9.75ZM13.084 15.75C13.084 15.5511 13.163 15.3603 13.3037 15.2197C13.4443 15.079 13.6351 15 13.834 15H16.084C16.2829 15 16.4737 15.079 16.6143 15.2197C16.755 15.3603 16.834 15.5511 16.834 15.75C16.834 15.9489 16.755 16.1397 16.6143 16.2803C16.4737 16.421 16.2829 16.5 16.084 16.5H13.834C13.6351 16.5 13.4443 16.421 13.3037 16.2803C13.163 16.1397 13.084 15.9489 13.084 15.75ZM8.58248 12C8.38396 12 8.19354 11.9212 8.05298 11.781L7.30298 11.031C7.16637 10.8895 7.09077 10.7001 7.09248 10.5034C7.09419 10.3068 7.17306 10.1187 7.31212 9.97964C7.45118 9.84058 7.63929 9.7617 7.83593 9.75999C8.03258 9.75829 8.22203 9.83388 8.36348 9.9705L8.58248 10.1895L10.3015 8.4705C10.4429 8.33388 10.6324 8.25829 10.829 8.25999C11.0257 8.2617 11.2138 8.34058 11.3528 8.47964C11.4919 8.61869 11.5708 8.8068 11.5725 9.00345C11.5742 9.2001 11.4986 9.38955 11.362 9.531L9.11198 11.781C8.97143 11.9212 8.78101 12 8.58248 12ZM8.05298 17.781C8.19357 17.9211 8.38398 17.9998 8.58248 17.9998C8.78099 17.9998 8.9714 17.9211 9.11198 17.781L11.362 15.531C11.4986 15.3895 11.5742 15.2001 11.5725 15.0034C11.5708 14.8068 11.4919 14.6187 11.3528 14.4796C11.2138 14.3406 11.0257 14.2617 10.829 14.26C10.6324 14.2583 10.4429 14.3339 10.3015 14.4705L8.58248 16.1895L8.36348 15.9705C8.22203 15.8339 8.03258 15.7583 7.83593 15.76C7.63929 15.7617 7.45118 15.8406 7.31212 15.9796C7.17306 16.1187 7.09419 16.3068 7.09248 16.5034C7.09077 16.7001 7.16637 16.8895 7.30298 17.031L8.05298 17.781ZM7.96148 3C8.11665 2.56113 8.40411 2.18119 8.78425 1.91254C9.16439 1.64389 9.6185 1.49976 10.084 1.5H14.584C15.0495 1.49976 15.5036 1.64389 15.8837 1.91254C16.2639 2.18119 16.5513 2.56113 16.7065 3H17.584C18.1807 3 18.753 3.23705 19.175 3.65901C19.5969 4.08097 19.834 4.65326 19.834 5.25V20.25C19.834 20.8467 19.5969 21.419 19.175 21.841C18.753 22.2629 18.1807 22.5 17.584 22.5H7.08398C6.48725 22.5 5.91495 22.2629 5.49299 21.841C5.07104 21.419 4.83398 20.8467 4.83398 20.25V5.25C4.83398 4.65326 5.07104 4.08097 5.49299 3.65901C5.91495 3.23705 6.48725 3 7.08398 3H7.96148ZM10.084 3C9.88507 3 9.69431 3.07902 9.55365 3.21967C9.413 3.36032 9.33398 3.55109 9.33398 3.75C9.33398 3.94891 9.413 4.13968 9.55365 4.28033C9.69431 4.42098 9.88507 4.5 10.084 4.5H14.584C14.7829 4.5 14.9737 4.42098 15.1143 4.28033C15.255 4.13968 15.334 3.94891 15.334 3.75C15.334 3.55109 15.255 3.36032 15.1143 3.21967C14.9737 3.07902 14.7829 3 14.584 3H10.084ZM7.96148 4.5H7.08398C6.88507 4.5 6.69431 4.57902 6.55365 4.71967C6.413 4.86032 6.33398 5.05109 6.33398 5.25V20.25C6.33398 20.4489 6.413 20.6397 6.55365 20.7803C6.69431 20.921 6.88507 21 7.08398 21H17.584C17.7829 21 17.9737 20.921 18.1143 20.7803C18.255 20.6397 18.334 20.4489 18.334 20.25V5.25C18.334 5.05109 18.255 4.86032 18.1143 4.71967C17.9737 4.57902 17.7829 4.5 17.584 4.5H16.7065C16.5513 4.93887 16.2639 5.31881 15.8837 5.58746C15.5036 5.85611 15.0495 6.00024 14.584 6H10.084C9.6185 6.00024 9.16439 5.85611 8.78425 5.58746C8.40411 5.31881 8.11665 4.93887 7.96148 4.5Z" fill="#2D3439"/>
</svg>
