<svg width="18" height="19" viewBox="0 0 18 19" fill="none" xmlns="http://www.w3.org/2000/svg">
<g clip-path="url(#clip0_1758_9487)">
<path fill-rule="evenodd" clip-rule="evenodd" d="M6.46875 3.875V2.1875H11.5312V3.875H6.46875ZM4.78125 3.875V1.625C4.78125 1.32663 4.89978 1.04048 5.11075 0.829505C5.32173 0.618526 5.60788 0.5 5.90625 0.5L12.0938 0.5C12.3921 0.5 12.6783 0.618526 12.8892 0.829505C13.1002 1.04048 13.2188 1.32663 13.2188 1.625V3.875H16.0312C16.255 3.875 16.4696 3.96389 16.6279 4.12213C16.7861 4.28036 16.875 4.49497 16.875 4.71875C16.875 4.94253 16.7861 5.15714 16.6279 5.31537C16.4696 5.47361 16.255 5.5625 16.0312 5.5625H15.6206L14.7847 16.4221C14.7414 16.9874 14.4862 17.5154 14.0703 17.9007C13.6544 18.2859 13.1084 18.5 12.5415 18.5H5.4585C4.89159 18.5 4.34558 18.2859 3.92967 17.9007C3.51377 17.5154 3.25862 16.9874 3.21525 16.4221L2.37937 5.5625H1.96875C1.74497 5.5625 1.53036 5.47361 1.37213 5.31537C1.21389 5.15714 1.125 4.94253 1.125 4.71875C1.125 4.49497 1.21389 4.28036 1.37213 4.12213C1.53036 3.96389 1.74497 3.875 1.96875 3.875H4.78125ZM4.0725 5.5625H13.9275L13.1017 16.2928C13.091 16.434 13.0273 16.566 12.9234 16.6624C12.8196 16.7587 12.6832 16.8123 12.5415 16.8125H5.4585C5.31682 16.8123 5.18042 16.7587 5.07656 16.6624C4.9727 16.566 4.90902 16.434 4.89825 16.2928L4.0725 5.5625Z" fill="#4D5962"/>
</g>
<defs>
<clipPath id="clip0_1758_9487">
<rect width="18" height="18" fill="white" transform="translate(0 0.5)"/>
</clipPath>
</defs>
</svg>
