<svg width="32" height="33" viewBox="0 0 32 33" fill="none" xmlns="http://www.w3.org/2000/svg">
<rect x="0.5" y="1" width="31" height="31" rx="15.5" fill="#F3FAF3"/>
<rect x="0.5" y="1" width="31" height="31" rx="15.5" stroke="#C8EAC9"/>
<path d="M13.0001 20.6698L9.53015 17.1998C9.34317 17.0129 9.08957 16.9078 8.82515 16.9078C8.56072 16.9078 8.30712 17.0129 8.12015 17.1998C7.93317 17.3868 7.82812 17.6404 7.82812 17.9048C7.82813 18.0358 7.85391 18.1654 7.90402 18.2864C7.95412 18.4073 8.02756 18.5173 8.12015 18.6098L12.3001 22.7898C12.6901 23.1798 13.3201 23.1798 13.7101 22.7898L24.2901 12.2098C24.4771 12.0229 24.5822 11.7693 24.5822 11.5048C24.5822 11.2404 24.4771 10.9868 24.2901 10.7998C24.1032 10.6129 23.8496 10.5078 23.5851 10.5078C23.3207 10.5078 23.0671 10.6129 22.8801 10.7998L13.0001 20.6698Z" fill="#4D5962"/>
</svg>
