<svg width="288" height="107" viewBox="0 0 288 107" fill="none" xmlns="http://www.w3.org/2000/svg">
<g clip-path="url(#clip0_64_2)">
<path d="M62.3476 54.2473L70.9723 22.9486L68.3141 13.6293H17.4289L14.7725 22.9486L23.3954 54.2473L34.1296 47.5447L38.2228 56.0499L27.4531 90.4424L42.8724 107L58.2899 90.4424L47.5258 56.0517L51.6134 47.5447L62.3476 54.2473ZM60.4161 49.5565L52.9003 44.864L45.2178 40.0679L66.3377 18.0521L67.739 22.9607L60.4161 49.5565ZM58.8463 21.5123H26.8967L22.101 16.5139H63.642L58.8463 21.5123ZM56.0813 24.3969L42.8724 38.165L29.6655 24.3969H56.0813ZM18.0021 22.9607L19.4034 18.0487L40.5252 40.0679L25.3287 49.5565L18.0021 22.9607ZM42.8724 102.575L30.9244 89.7441L41.0553 57.3877H44.6914L54.8168 89.7441L42.8724 102.575ZM44.8525 54.5048H40.8979L36.7598 45.9011L42.8724 42.0849L48.987 45.9011L44.8525 54.5048Z" fill="#FAFAFA"/>
<path d="M92.0834 46.9792V57.2887H103.869V46.9792H110.272V73.8441H103.869V62.2553H92.0834V73.8441H85.6807V46.9792H92.0834ZM125.525 53.8647C128.896 53.8647 131.56 54.8117 133.518 56.7055C135.475 58.5993 136.454 61.0765 136.454 64.1366C136.454 67.2219 135.455 69.6988 133.457 71.5677C131.458 73.4366 128.815 74.3708 125.525 74.3708C122.181 74.3708 119.53 73.4239 117.572 71.5301C115.615 69.6363 114.636 67.1719 114.636 64.1366C114.636 61.001 115.635 58.5051 117.633 56.6491C119.632 54.793 122.262 53.8647 125.525 53.8647ZM120.427 64.1366C120.427 66.1182 120.862 67.6482 121.732 68.727C122.602 69.8057 123.866 70.3449 125.525 70.3449C127.237 70.3449 128.522 69.793 129.379 68.6893C130.235 67.5856 130.663 66.0681 130.663 64.1366C130.663 62.1298 130.221 60.5872 129.338 59.5086C128.454 58.4301 127.17 57.8907 125.484 57.8907C123.853 57.8907 122.602 58.43 121.732 59.5086C120.862 60.5872 120.427 62.1298 120.427 64.1366ZM147.547 48.5595L147.547 54.3915H151.788V57.966H147.547V67.5982C147.547 68.5012 147.71 69.1032 148.036 69.4042C148.363 69.7052 149.015 69.8557 149.994 69.8557C150.701 69.8557 151.299 69.8056 151.788 69.7052V73.8817C150.973 74.0071 149.831 74.0698 148.363 74.0698C146.133 74.0698 144.475 73.7187 143.387 73.0163C142.3 72.3139 141.756 71.0974 141.756 69.3666V57.966H138.249V54.3915H141.756V48.5595H147.547ZM164.308 53.8647C166.293 53.8647 168.06 54.2911 169.61 55.144C171.16 55.9968 172.376 57.2322 173.26 58.8501C174.143 60.468 174.585 62.3305 174.585 64.4376C174.585 64.6382 174.572 64.9643 174.545 65.4158H159.333C159.387 66.971 159.829 68.1813 160.658 69.0467C161.487 69.9121 162.759 70.3448 164.471 70.3448C165.532 70.3448 166.504 70.1003 167.387 69.6111C168.271 69.122 168.835 68.5263 169.08 67.8239H174.177C172.682 72.1885 169.393 74.3708 164.308 74.3708C162.378 74.3457 160.59 73.9569 158.945 73.2044C157.3 72.4519 155.989 71.2793 155.01 69.6864C154.031 68.0935 153.542 66.2436 153.542 64.1366C153.542 62.155 154.038 60.3488 155.03 58.7184C156.023 57.0881 157.341 55.8715 158.986 55.0687C160.631 54.266 162.405 53.8647 164.308 53.8647ZM168.754 62.0295C168.482 60.5747 167.979 59.5212 167.245 58.869C166.511 58.2167 165.464 57.8907 164.104 57.8907C162.691 57.8907 161.576 58.2607 160.76 59.0007C159.945 59.7407 159.469 60.7503 159.333 62.0295H168.754ZM183.924 46.9792V73.8441H178.133V46.9792H183.924ZM202.154 46.3396C205.553 46.3396 208.407 47.2238 210.718 48.9922C213.029 50.7606 214.361 53.0998 214.715 56.0094H208.516C208.298 54.68 207.578 53.5637 206.355 52.6607C205.131 51.7577 203.731 51.3062 202.154 51.3062C199.653 51.3062 197.709 52.1339 196.322 53.7895C194.936 55.445 194.242 57.6902 194.242 60.5245C194.242 63.2838 194.942 65.4723 196.343 67.0902C197.743 68.7081 199.68 69.5171 202.154 69.5171C204.003 69.5171 205.498 68.9966 206.64 67.9556C207.782 66.9146 208.489 65.4285 208.761 63.497H214.96C214.633 66.9083 213.308 69.5923 210.983 71.5489C208.659 73.5054 205.715 74.4837 202.154 74.4837C197.885 74.4837 194.433 73.1856 191.795 70.5894C189.158 67.9932 187.839 64.6381 187.839 60.5245C187.839 56.3605 189.145 52.9553 191.755 50.3091C194.365 47.6629 197.831 46.3396 202.154 46.3396ZM231.028 53.8647C231.517 53.8647 231.938 53.9275 232.292 54.0529V59.0195C231.667 58.8941 230.973 58.8314 230.212 58.8314C226.406 58.8314 224.503 60.9134 224.503 65.0772V73.8441H218.711V54.3915H224.217V58.0036H224.299C224.87 56.7494 225.774 55.746 227.011 54.9935C228.248 54.241 229.587 53.8647 231.028 53.8647ZM243.588 53.8647C245.573 53.8647 247.34 54.2911 248.89 55.144C250.44 55.9968 251.657 57.2322 252.54 58.8501C253.424 60.468 253.866 62.3305 253.866 64.4376C253.866 64.6382 253.852 64.9643 253.825 65.4158H238.613C238.667 66.971 239.109 68.1813 239.938 69.0467C240.768 69.9121 242.039 70.3448 243.752 70.3448C244.812 70.3448 245.784 70.1003 246.667 69.6111C247.551 69.122 248.115 68.5263 248.36 67.8239H253.458C251.962 72.1885 248.673 74.3708 243.588 74.3708C241.658 74.3457 239.871 73.9569 238.226 73.2044C236.581 72.4519 235.269 71.2793 234.29 69.6864C233.311 68.0935 232.822 66.2436 232.822 64.1366C232.822 62.155 233.318 60.3488 234.311 58.7184C235.303 57.0881 236.621 55.8715 238.266 55.0687C239.911 54.266 241.685 53.8647 243.588 53.8647ZM248.034 62.0295C247.762 60.5747 247.259 59.5212 246.525 58.869C245.791 58.2167 244.744 57.8907 243.385 57.8907C241.971 57.8907 240.856 58.2607 240.04 59.0007C239.225 59.7407 238.749 60.7503 238.613 62.0295H248.034ZM261.41 54.3915L265.284 67.5982H265.366L268.873 54.3915H274.501L278.09 67.5606H278.172L282.046 54.3915H288L281.353 73.8441H275.398L271.646 60.7879H271.565L267.976 73.8441H261.981L255.293 54.3915H261.41Z" fill="#FAFAFA"/>
</g>
<defs>
<clipPath id="clip0_64_2">
<rect width="288" height="107" fill="white"/>
</clipPath>
</defs>
</svg>
