<svg width="25" height="24" viewBox="0 0 25 24" fill="none" xmlns="http://www.w3.org/2000/svg">
<path d="M21.916 5.25H18.166V3.9375C18.166 3.83437 18.0816 3.75 17.9785 3.75H16.666C16.5629 3.75 16.4785 3.83437 16.4785 3.9375V5.25H13.0098V3.9375C13.0098 3.83437 12.9254 3.75 12.8223 3.75H11.5098C11.4066 3.75 11.3223 3.83437 11.3223 3.9375V5.25H7.85352V3.9375C7.85352 3.83437 7.76914 3.75 7.66602 3.75H6.35352C6.25039 3.75 6.16602 3.83437 6.16602 3.9375V5.25H2.41602C2.00117 5.25 1.66602 5.58516 1.66602 6V19.5C1.66602 19.9148 2.00117 20.25 2.41602 20.25H21.916C22.3309 20.25 22.666 19.9148 22.666 19.5V6C22.666 5.58516 22.3309 5.25 21.916 5.25ZM10.1035 16.125C10.1035 16.2281 10.0191 16.3125 9.91602 16.3125H5.60352C5.50039 16.3125 5.41602 16.2281 5.41602 16.125V15C5.41602 14.8969 5.50039 14.8125 5.60352 14.8125H9.91602C10.0191 14.8125 10.1035 14.8969 10.1035 15V16.125ZM10.1035 12.9375C10.1035 13.0406 10.0191 13.125 9.91602 13.125H5.60352C5.50039 13.125 5.41602 13.0406 5.41602 12.9375V11.8125C5.41602 11.7094 5.50039 11.625 5.60352 11.625H9.91602C10.0191 11.625 10.1035 11.7094 10.1035 11.8125V12.9375ZM18.8809 10.7977L15.0137 16.1578C14.9791 16.2057 14.9337 16.2447 14.8812 16.2717C14.8286 16.2986 14.7704 16.3126 14.7113 16.3126C14.6523 16.3126 14.5941 16.2986 14.5415 16.2717C14.4889 16.2447 14.4435 16.2057 14.409 16.1578L11.7324 12.45C11.6434 12.3258 11.7324 12.1523 11.8848 12.1523H13.1715C13.291 12.1523 13.4035 12.2109 13.4738 12.307L14.7113 14.0203L17.1418 10.6523C17.2121 10.5539 17.3246 10.4977 17.4441 10.4977H18.7285C18.8809 10.5 18.9699 10.6734 18.8809 10.7977Z" fill="#121212"/>
</svg>
