<svg width="13" height="12" viewBox="0 0 13 12" fill="none" xmlns="http://www.w3.org/2000/svg">
<path d="M8.31 10.56C8.02875 10.8409 7.6475 10.9987 7.25 10.9987C6.8525 10.9987 6.47125 10.8409 6.19 10.56L2.025 6.5C1.725 6.225 1.5 5.815 1.5 5.375V3C1.5 2.60218 1.65804 2.22064 1.93934 1.93934C2.22064 1.65804 2.60218 1.5 3 1.5H5.375C5.815 1.5 6.225 1.725 6.5 2.025L10.535 6.215C10.8159 6.49625 10.9737 6.8775 10.9737 7.275C10.9737 7.6725 10.8159 8.05375 10.535 8.335L8.31 10.56ZM7.955 10.205L10.18 7.98C10.57 7.59 10.57 6.955 10.18 6.565L6.055 2.29C5.89 2.1 5.65 2 5.375 2L2.985 1.985C2.435 1.985 2 2.45 2 3V5.375C2 5.65 2.1 5.89 2.29 6.055L6.54 10.205C6.93 10.595 7.565 10.595 7.955 10.205ZM3.75 2.5C4.08152 2.5 4.39946 2.6317 4.63388 2.86612C4.8683 3.10054 5 3.41848 5 3.75C5 4.08152 4.8683 4.39946 4.63388 4.63388C4.39946 4.8683 4.08152 5 3.75 5C3.41848 5 3.10054 4.8683 2.86612 4.63388C2.6317 4.39946 2.5 4.08152 2.5 3.75C2.5 3.41848 2.6317 3.10054 2.86612 2.86612C3.10054 2.6317 3.41848 2.5 3.75 2.5ZM3.75 3C3.55109 3 3.36032 3.07902 3.21967 3.21967C3.07902 3.36032 3 3.55109 3 3.75C3 3.94891 3.07902 4.13968 3.21967 4.28033C3.36032 4.42098 3.55109 4.5 3.75 4.5C3.94891 4.5 4.13968 4.42098 4.28033 4.28033C4.42098 4.13968 4.5 3.94891 4.5 3.75C4.5 3.55109 4.42098 3.36032 4.28033 3.21967C4.13968 3.07902 3.94891 3 3.75 3Z" fill="#4D5962"/>
</svg>
