<svg width="28" height="28" viewBox="0 0 28 28" fill="none" xmlns="http://www.w3.org/2000/svg">
<path d="M22.1665 24.2087C22.4759 24.2087 22.7727 24.0857 22.9915 23.867C23.2103 23.6482 23.3332 23.3514 23.3332 23.042V21.5883C23.3378 18.3147 18.6968 15.7503 13.9998 15.7503C9.30284 15.7503 4.6665 18.3147 4.6665 21.5883V23.042C4.6665 23.3514 4.78942 23.6482 5.00821 23.867C5.22701 24.0857 5.52375 24.2087 5.83317 24.2087H22.1665ZM18.2045 7.99666C18.2045 8.54882 18.0957 9.09558 17.8844 9.60572C17.6731 10.1158 17.3634 10.5794 16.973 10.9698C16.5825 11.3602 16.119 11.67 15.6089 11.8813C15.0988 12.0926 14.552 12.2013 13.9998 12.2013C13.4477 12.2013 12.9009 12.0926 12.3908 11.8813C11.8806 11.67 11.4171 11.3602 11.0267 10.9698C10.6362 10.5794 10.3265 10.1158 10.1152 9.60572C9.90393 9.09558 9.79517 8.54882 9.79517 7.99666C9.79517 6.88151 10.2382 5.81204 11.0267 5.02351C11.8152 4.23498 12.8847 3.79199 13.9998 3.79199C15.115 3.79199 16.1845 4.23498 16.973 5.02351C17.7615 5.81204 18.2045 6.88151 18.2045 7.99666Z" stroke="#5B6C78" stroke-width="0.75" stroke-linecap="round" stroke-linejoin="round"/>
</svg>
