<svg width="25" height="24" viewBox="0 0 25 24" fill="none" xmlns="http://www.w3.org/2000/svg">
<path d="M14 20C14 20 15 20 16 22C16 22 19.177 17 22 16M7.49997 16H11.5M7.49997 11H15.5M6.99997 3.5C5.44397 3.547 4.51697 3.72 3.87497 4.362C2.99597 5.242 2.99597 6.657 2.99597 9.488V15.994C2.99597 18.826 2.99597 20.241 3.87497 21.121C4.75297 22 6.16797 22 8.99597 22H11.496M15.992 3.5C17.548 3.547 18.476 3.72 19.117 4.362C19.997 5.242 19.997 6.657 19.997 9.488V13.5" stroke="#FAFAFA" stroke-width="2" stroke-linecap="round" stroke-linejoin="round"/>
<path d="M6.99597 3.75C6.99597 2.784 7.77997 2 8.74597 2H14.246C14.7101 2 15.1552 2.18437 15.4834 2.51256C15.8116 2.84075 15.996 3.28587 15.996 3.75C15.996 4.21413 15.8116 4.65925 15.4834 4.98744C15.1552 5.31563 14.7101 5.5 14.246 5.5H8.74597C8.28184 5.5 7.83672 5.31563 7.50853 4.98744C7.18035 4.65925 6.99597 4.21413 6.99597 3.75Z" stroke="#FAFAFA" stroke-width="2" stroke-linecap="round" stroke-linejoin="round"/>
</svg>
