<svg width="130" height="100" viewBox="0 0 130 100" fill="none" xmlns="http://www.w3.org/2000/svg">
<path d="M114.885 71.169H68.1181C67.7161 71.1683 67.3308 71.0083 67.0465 70.724C66.7622 70.4398 66.6022 70.0545 66.6016 69.6525V1.51688C66.6029 1.11533 66.7632 0.730651 67.0474 0.446952C67.3316 0.163253 67.7165 0.00361144 68.1181 0.00292969H114.885C115.286 0.00361144 115.671 0.163253 115.956 0.446952C116.24 0.730651 116.4 1.11533 116.401 1.51688V69.6525C116.401 70.0545 116.241 70.4398 115.956 70.724C115.672 71.0083 115.287 71.1683 114.885 71.169ZM68.1181 0.0676285C67.9268 0.0662641 67.7371 0.102723 67.5599 0.174912C67.3827 0.247101 67.2216 0.353596 67.0857 0.488273C66.9498 0.622951 66.8419 0.783155 66.7682 0.959679C66.6944 1.1362 66.6562 1.32557 66.6559 1.51688V69.6525C66.6559 70.0375 66.8089 70.4068 67.0811 70.6791C67.3534 70.9513 67.7227 71.1043 68.1077 71.1043H114.885C115.27 71.1043 115.639 70.9513 115.911 70.6791C116.184 70.4068 116.337 70.0375 116.337 69.6525V1.51688C116.337 1.13183 116.184 0.762548 115.911 0.490275C115.639 0.218002 115.27 0.06504 114.885 0.06504L68.1181 0.0676285Z" fill="#F0F0F0"/>
<path d="M60.944 71.1686H14.1669C13.7649 71.168 13.3796 71.008 13.0953 70.7237C12.8111 70.4394 12.6511 70.0541 12.6504 69.6521V1.51654C12.6511 1.11454 12.8111 0.729198 13.0953 0.44494C13.3796 0.160682 13.7649 0.000684259 14.1669 0H60.944C61.346 0.000684259 61.7314 0.160682 62.0156 0.44494C62.2999 0.729198 62.4599 1.11454 62.4606 1.51654V69.6521C62.4599 70.0541 62.2999 70.4394 62.0156 70.7237C61.7314 71.008 61.346 71.168 60.944 71.1686ZM14.1669 0.0672873C13.7823 0.0672867 13.4134 0.219893 13.1412 0.491606C12.869 0.76332 12.7158 1.13194 12.7151 1.51654V69.6521C12.7151 70.0372 12.8681 70.4064 13.1403 70.6787C13.4126 70.951 13.7819 71.104 14.1669 71.104H60.944C61.3291 71.104 61.6984 70.951 61.9706 70.6787C62.2429 70.4064 62.3959 70.0372 62.3959 69.6521V1.51654C62.3959 1.13149 62.2429 0.762207 61.9706 0.489934C61.6984 0.217661 61.3291 0.0646988 60.944 0.0646988L14.1669 0.0672873Z" fill="#F0F0F0"/>
<path d="M129.397 86.9736H0V87.0383H129.397V86.9736Z" fill="#E0E0E0"/>
<path d="M121.533 56.2324H72.3623C72.3623 56.6319 72.521 57.015 72.8035 57.2975C73.0859 57.5799 73.469 57.7386 73.8685 57.7386H120.024C120.424 57.7386 120.808 57.58 121.09 57.2976C121.373 57.0152 121.533 56.6321 121.533 56.2324Z" fill="#E0E0E0"/>
<path d="M111.874 70.4873H82.4619V71.8822H111.874V70.4873Z" fill="#E0E0E0"/>
<path d="M110.835 86.9909L114.843 57.7393H113.435L109.427 86.9909H110.835Z" fill="#E6E6E6"/>
<path d="M114.129 86.9909L110.056 57.7393H111.464L115.537 86.9909H114.129Z" fill="#E6E6E6"/>
<path d="M80.2125 86.9909L84.3921 57.7393H82.9842L78.8047 86.9909H80.2125Z" fill="#E6E6E6"/>
<path d="M83.5077 86.9909L79.499 57.7393H80.9069L84.9156 86.9909H83.5077Z" fill="#E6E6E6"/>
<path d="M123.181 53.8135H70.71V56.241H123.181V53.8135Z" fill="#E6E6E6"/>
<path d="M89.6211 53.8211H112.395L112.631 53.275C112.786 52.9256 112.372 52.5737 111.818 52.5737H90.8167C90.6578 52.5597 90.4981 52.5894 90.3549 52.6597C90.2116 52.7299 90.0903 52.838 90.0041 52.9722L89.6211 53.8211Z" fill="#E0E0E0"/>
<path d="M118.634 37.9726L115.72 50.299C115.682 50.4587 115.591 50.601 115.462 50.7029C115.334 50.8048 115.175 50.8603 115.01 50.8606H97.0553C96.9455 50.8603 96.8372 50.8353 96.7384 50.7874C96.6397 50.7395 96.553 50.6699 96.4848 50.5838C96.4167 50.4978 96.3688 50.3975 96.3448 50.2903C96.3208 50.1832 96.3213 50.0721 96.3462 49.9651L99.2602 37.6361C99.2985 37.4769 99.3893 37.3352 99.5179 37.2338C99.6466 37.1324 99.8055 37.0772 99.9693 37.0772H117.924C118.034 37.0769 118.143 37.1016 118.242 37.1494C118.341 37.1971 118.428 37.2667 118.496 37.3529C118.564 37.4391 118.612 37.5396 118.636 37.647C118.66 37.7543 118.659 37.8656 118.634 37.9726Z" fill="#F0F0F0"/>
<path d="M109.91 44.4515C109.862 44.8324 109.678 45.1834 109.394 45.4411C109.109 45.6988 108.741 45.8462 108.358 45.8567C108.179 45.8607 108.001 45.8258 107.837 45.7543C107.673 45.6829 107.527 45.5767 107.408 45.443C107.289 45.3094 107.2 45.1515 107.149 44.9802C107.097 44.809 107.083 44.6286 107.108 44.4515C107.156 44.0705 107.339 43.7195 107.624 43.4618C107.909 43.2041 108.276 43.0567 108.66 43.0462C108.839 43.0422 109.017 43.0772 109.181 43.1486C109.345 43.22 109.491 43.3263 109.61 43.4599C109.729 43.5936 109.817 43.7515 109.869 43.9227C109.921 44.0939 109.935 44.2743 109.91 44.4515Z" fill="#E0E0E0"/>
<path d="M100.681 37.0771L97.5758 50.8606H97.0582C96.9484 50.8603 96.8401 50.8353 96.7414 50.7874C96.6426 50.7395 96.5559 50.6699 96.4877 50.5838C96.4196 50.4978 96.3717 50.3975 96.3477 50.2903C96.3237 50.1832 96.3242 50.0721 96.3491 49.9651L99.2631 37.6361C99.3015 37.4769 99.3923 37.3352 99.5209 37.2338C99.6495 37.1324 99.8085 37.0772 99.9722 37.0771H100.681Z" fill="#E0E0E0"/>
<path d="M105.884 50.8613L105.271 53.7883H107.069L107.682 50.8613H105.884Z" fill="#E0E0E0"/>
<path d="M102.646 53.2931L103.013 52.7755C103.078 52.6841 103.164 52.6096 103.263 52.5582C103.363 52.5069 103.473 52.4802 103.585 52.4805H108.518C108.646 52.4804 108.771 52.5154 108.881 52.5815C108.99 52.6477 109.08 52.7425 109.139 52.8557L109.398 53.3319C109.424 53.3827 109.437 53.4393 109.435 53.4963C109.433 53.5533 109.416 53.6089 109.386 53.6577C109.357 53.7065 109.315 53.7469 109.266 53.775C109.216 53.8032 109.16 53.8181 109.103 53.8184H102.918C102.856 53.8191 102.796 53.8026 102.743 53.771C102.691 53.7394 102.648 53.6938 102.62 53.6394C102.592 53.5849 102.579 53.5237 102.584 53.4626C102.588 53.4014 102.61 53.3428 102.646 53.2931Z" fill="#E0E0E0"/>
<path d="M95.3145 14.1463L95.167 13.9108L103.831 8.4502L112.286 14.0324L112.131 14.2653L103.829 8.78145L95.3145 14.1463Z" fill="#F0F0F0"/>
<path d="M112.47 13.9229H95.0166V24.8388H112.47V13.9229Z" fill="#E0E0E0"/>
<path d="M111.985 24.3543V14.4062L95.5001 14.4063V24.3543H111.985Z" fill="white"/>
<path d="M97.8423 17.5264H96.7891V18.5797H97.8423V17.5264Z" fill="#F0F0F0"/>
<path d="M99.4683 17.5264H98.415V18.5797H99.4683V17.5264Z" fill="#F0F0F0"/>
<path d="M101.09 17.5264H100.037V18.5797H101.09V17.5264Z" fill="#F0F0F0"/>
<path d="M102.715 17.5264H101.662V18.5797H102.715V17.5264Z" fill="#F0F0F0"/>
<path d="M104.337 17.5264H103.284V18.5797H104.337V17.5264Z" fill="#F0F0F0"/>
<path d="M105.962 17.5264H104.909V18.5797H105.962V17.5264Z" fill="#F0F0F0"/>
<path d="M107.586 17.5264H106.532V18.5797H107.586V17.5264Z" fill="#F0F0F0"/>
<path d="M109.211 17.5264H108.158V18.5797H109.211V17.5264Z" fill="#F0F0F0"/>
<path d="M110.834 17.5264H109.78V18.5797H110.834V17.5264Z" fill="#F0F0F0"/>
<path d="M97.8423 18.9746H96.7891V20.0279H97.8423V18.9746Z" fill="#F0F0F0"/>
<path d="M99.4683 18.9746H98.415V20.0279H99.4683V18.9746Z" fill="#F0F0F0"/>
<path d="M101.09 18.9746H100.037V20.0279H101.09V18.9746Z" fill="#F0F0F0"/>
<path d="M102.715 18.9746H101.662V20.0279H102.715V18.9746Z" fill="#F0F0F0"/>
<path d="M104.337 18.9746H103.284V20.0279H104.337V18.9746Z" fill="#F0F0F0"/>
<path d="M105.962 18.9746H104.909V20.0279H105.962V18.9746Z" fill="#F0F0F0"/>
<path d="M107.586 18.9746H106.532V20.0279H107.586V18.9746Z" fill="#F0F0F0"/>
<path d="M109.211 18.9746H108.158V20.0279H109.211V18.9746Z" fill="#F0F0F0"/>
<path d="M110.834 18.9746H109.78V20.0279H110.834V18.9746Z" fill="#F0F0F0"/>
<path d="M97.8423 20.4229H96.7891V21.4761H97.8423V20.4229Z" fill="#F0F0F0"/>
<path d="M99.4683 20.4229H98.415V21.4761H99.4683V20.4229Z" fill="#F0F0F0"/>
<path d="M101.09 20.4229H100.037V21.4761H101.09V20.4229Z" fill="#F0F0F0"/>
<path d="M102.715 20.4229H101.662V21.4761H102.715V20.4229Z" fill="#F0F0F0"/>
<path d="M104.337 20.4229H103.284V21.4761H104.337V20.4229Z" fill="#F0F0F0"/>
<path d="M105.962 20.4229H104.909V21.4761H105.962V20.4229Z" fill="#F0F0F0"/>
<path d="M107.586 20.4229H106.532V21.4761H107.586V20.4229Z" fill="#F0F0F0"/>
<path d="M109.211 20.4229H108.158V21.4761H109.211V20.4229Z" fill="#F0F0F0"/>
<path d="M110.834 20.4229H109.78V21.4761H110.834V20.4229Z" fill="#F0F0F0"/>
<path d="M97.8423 21.9844H96.7891V23.0377H97.8423V21.9844Z" fill="#F0F0F0"/>
<path d="M99.4683 21.9844H98.415V23.0377H99.4683V21.9844Z" fill="#F0F0F0"/>
<path d="M101.09 21.9844H100.037V23.0377H101.09V21.9844Z" fill="#F0F0F0"/>
<path d="M102.715 21.9844H101.662V23.0377H102.715V21.9844Z" fill="#F0F0F0"/>
<path d="M108.497 15.3789H99.126V16.2899H108.497V15.3789Z" fill="#E0E0E0"/>
<path d="M104.387 8.54786C104.387 8.65023 104.356 8.75031 104.3 8.83542C104.243 8.92054 104.162 8.98688 104.067 9.02606C103.973 9.06523 103.869 9.07548 103.768 9.05551C103.668 9.03554 103.576 8.98624 103.503 8.91386C103.431 8.84147 103.381 8.74924 103.362 8.64884C103.342 8.54844 103.352 8.44437 103.391 8.34979C103.43 8.25521 103.496 8.17438 103.582 8.1175C103.667 8.06063 103.767 8.03027 103.869 8.03027C104.006 8.03027 104.138 8.0848 104.235 8.18187C104.332 8.27894 104.387 8.41059 104.387 8.54786Z" fill="#E0E0E0"/>
<path d="M88.5988 3.17578H70.4004V47.3909H88.5988V3.17578Z" fill="#F0F0F0"/>
<path d="M87.4877 4.28906H71.5098V46.2837H87.4877V4.28906Z" fill="#FAFAFA"/>
<path d="M87.4877 6.08691V9.25715L71.5098 25.2378V22.0649L87.4877 6.08691Z" fill="white"/>
<path d="M87.4877 17.0508V21.5228L71.5098 37.4982V33.0236L87.4877 17.0508Z" fill="white"/>
<path d="M80.051 3.17578H78.9512V47.3909H80.051V3.17578Z" fill="#F0F0F0"/>
<path d="M56.6105 3.17578H38.4121V47.3909H56.6105V3.17578Z" fill="#F0F0F0"/>
<path d="M55.5014 4.28906H39.5234V46.2837H55.5014V4.28906Z" fill="#FAFAFA"/>
<path d="M55.5014 6.08691V9.25715L39.5234 25.2378V22.0649L55.5014 6.08691Z" fill="white"/>
<path d="M55.5014 17.0508V21.5228L39.5234 37.4982V33.0236L55.5014 17.0508Z" fill="white"/>
<path d="M48.0608 3.17578H46.9609V47.3909H48.0608V3.17578Z" fill="#F0F0F0"/>
<path d="M44.0856 81.0679C44.0856 81.0679 41.8859 81.5571 42.2119 80.0328C42.538 78.5085 42.5147 77.9313 41.6219 77.2352C40.729 76.539 39.8284 76.2 40.5117 75.0872C41.1949 73.9744 39.8983 73.1255 39.2177 72.5303C38.5371 71.9351 39.3057 71.4951 39.4765 70.3642C39.6473 69.2332 38.4413 69.4092 38.3481 67.9936C38.255 66.578 39.6913 64.9243 38.4568 62.9756C38.4568 62.9756 40.1157 63.8374 40.6618 65.3487C41.2078 66.8601 40.7679 68.0299 41.7487 68.6044C42.7295 69.1789 43.3429 70.1753 43.009 71.1923C42.6752 72.2094 43.1488 72.7451 43.9536 73.4982C44.7585 74.2513 44.5437 74.5334 44.4453 75.4495C44.347 76.3656 44.5463 76.1457 45.465 77.3879C46.3837 78.6301 46.4251 80.6616 44.0856 81.0679Z" fill="#F0F0F0"/>
<path d="M44.399 81.0013C44.3982 80.9936 44.3982 80.9858 44.399 80.978L39.9995 67.619C39.9951 67.6054 39.9934 67.5911 39.9945 67.5768C39.9956 67.5626 39.9995 67.5487 40.006 67.5359C40.0125 67.5232 40.0214 67.5118 40.0323 67.5026C40.0432 67.4933 40.0558 67.4863 40.0694 67.4819C40.0828 67.4775 40.097 67.4758 40.111 67.4769C40.1251 67.4781 40.1388 67.482 40.1514 67.4885C40.1639 67.495 40.175 67.504 40.184 67.5148C40.1931 67.5257 40.1998 67.5382 40.204 67.5517L44.6035 80.9081C44.6045 80.9193 44.6045 80.9306 44.6035 80.9418L44.399 81.0013Z" fill="#E0E0E0"/>
<path d="M48.0527 81.0408C48.0527 81.0408 50.2421 81.5248 49.916 80.0057C49.5899 78.4865 49.6158 77.9172 50.5035 77.2236C51.3911 76.5301 52.2891 76.1884 51.6059 75.0886C50.9227 73.9887 52.2193 73.1347 52.8999 72.5446C53.5805 71.9545 52.8119 71.5094 52.6411 70.3888C52.4703 69.2683 53.6763 69.4391 53.7617 68.0312C53.8471 66.6234 52.4263 64.9774 53.6556 63.0391C53.6556 63.0391 52.0045 63.8957 51.461 65.4019C50.9175 66.908 51.3549 68.0674 50.3792 68.6394C49.4036 69.2113 48.7928 70.1922 49.1267 71.2273C49.4605 72.2625 48.9869 72.7801 48.1872 73.5203C47.3876 74.2604 47.5998 74.5554 47.6981 75.4612C47.7965 76.367 47.5972 76.1522 46.6836 77.3892C45.7701 78.6263 45.7261 80.6345 48.0527 81.0408Z" fill="#F0F0F0"/>
<path d="M47.5401 80.9159C47.5387 80.9047 47.5387 80.8934 47.5401 80.8822L51.9189 67.5957C51.9231 67.5822 51.9298 67.5696 51.9389 67.5588C51.9479 67.5479 51.959 67.539 51.9715 67.5324C51.9841 67.5259 51.9978 67.522 52.0119 67.5209C52.0259 67.5197 52.0401 67.5214 52.0535 67.5258C52.0671 67.5302 52.0797 67.5372 52.0906 67.5465C52.1015 67.5558 52.1104 67.5671 52.1169 67.5799C52.1234 67.5926 52.1273 67.6065 52.1284 67.6208C52.1295 67.635 52.1278 67.6494 52.1234 67.663L47.7446 80.9495C47.746 80.9581 47.746 80.9668 47.7446 80.9754L47.5401 80.9159Z" fill="#E0E0E0"/>
<path d="M45.6256 80.763C45.6256 80.763 43.1075 80.556 43.9667 79.0213C44.8259 77.4867 44.989 76.8707 44.2618 75.8278C43.5346 74.7848 42.6883 74.1145 43.7882 73.1596C44.888 72.2046 43.7882 70.8537 43.2706 69.9945C42.753 69.1353 43.7105 68.905 44.2721 67.7611C44.8337 66.6173 43.4957 66.3973 43.8529 64.8497C44.21 63.3021 46.3114 62.0029 45.636 59.5107C45.636 59.5107 47.1266 60.9833 47.2094 62.7845C47.2922 64.5857 46.433 65.6908 47.2922 66.6328C48.1514 67.5748 48.4775 68.8429 47.7814 69.8263C47.0852 70.8097 47.4139 71.5447 48.0402 72.6084C48.6664 73.672 48.3274 73.9205 47.9185 74.8599C47.5096 75.7993 47.7943 75.6363 48.3688 77.277C48.9434 78.9178 48.2653 81.1046 45.6256 80.763Z" fill="#F5F5F5"/>
<path d="M45.983 80.7931C45.9815 80.7837 45.9815 80.7741 45.983 80.7647L45.7061 64.9963C45.7057 64.9801 45.7086 64.964 45.7146 64.9489C45.7205 64.9339 45.7295 64.9202 45.7408 64.9086C45.7521 64.897 45.7656 64.8878 45.7806 64.8816C45.7955 64.8753 45.8115 64.8721 45.8277 64.8721C45.8595 64.8721 45.8901 64.8845 45.9128 64.9068C45.9356 64.929 45.9487 64.9593 45.9493 64.9911L46.2263 80.7595C46.2288 80.7723 46.2288 80.7855 46.2263 80.7983L45.983 80.7931Z" fill="#E0E0E0"/>
<path d="M52.4784 79.5469H40.1675C40.0865 79.5491 40.0072 79.5703 39.9359 79.6087C39.8646 79.6472 39.8033 79.7019 39.757 79.7683C39.7107 79.8348 39.6806 79.9112 39.6692 79.9914C39.6578 80.0716 39.6654 80.1533 39.6913 80.2301L39.8751 80.714L39.989 81.022L40.3202 81.8993L40.4367 82.2047L40.7757 83.1053L40.8896 83.4107L42.2456 87.0079H50.4003L51.7563 83.4107L51.8702 83.1053L52.2092 82.2047L52.3257 81.8993L52.6569 81.022L52.7708 80.714L52.9546 80.2301C52.9805 80.1533 52.9881 80.0716 52.9767 79.9914C52.9653 79.9112 52.9352 79.8348 52.8889 79.7683C52.8426 79.7019 52.7813 79.6472 52.71 79.6087C52.6387 79.5703 52.5594 79.5491 52.4784 79.5469Z" fill="#E6E6E6"/>
<path d="M23.0643 14.0398C25.5155 14.0398 27.5026 12.0526 27.5026 9.60142C27.5026 7.1502 25.5155 5.16309 23.0643 5.16309C20.6131 5.16309 18.626 7.1502 18.626 9.60142C18.626 12.0526 20.6131 14.0398 23.0643 14.0398Z" fill="#E0E0E0"/>
<path d="M27.0994 10.2824C27.4733 8.05527 25.971 5.94675 23.7439 5.57286C21.5168 5.19897 19.4083 6.7013 19.0344 8.92841C18.6605 11.1555 20.1628 13.264 22.3899 13.6379C24.617 14.0118 26.7256 12.5095 27.0994 10.2824Z" fill="#FAFAFA"/>
<path d="M23.0765 5.88281H22.9238V6.73684H23.0765V5.88281Z" fill="#E0E0E0"/>
<path d="M23.0765 12.4434H22.9238V13.2974H23.0765V12.4434Z" fill="#E0E0E0"/>
<path d="M20.147 9.51367H19.293V9.66636H20.147V9.51367Z" fill="#E0E0E0"/>
<path d="M26.7075 9.51367H25.8535V9.66636H26.7075V9.51367Z" fill="#E0E0E0"/>
<path d="M25.5686 6.91261L24.9648 7.5166L25.0728 7.62455L25.6766 7.02056L25.5686 6.91261Z" fill="#E0E0E0"/>
<path d="M20.928 11.5493L20.3242 12.1533L20.4322 12.2613L21.036 11.6573L20.928 11.5493Z" fill="#E0E0E0"/>
<path d="M20.4332 6.91645L20.3252 7.02441L20.9291 7.6283L21.037 7.52033L20.4332 6.91645Z" fill="#E0E0E0"/>
<path d="M25.0718 11.5522L24.9639 11.6602L25.5679 12.2639L25.6758 12.156L25.0718 11.5522Z" fill="#E0E0E0"/>
<path d="M22.9722 9.48461L22.9238 9.60742L24.3686 10.1763L24.417 10.0535L22.9722 9.48461Z" fill="#E0E0E0"/>
<path d="M23.0667 9.6562H20.6807V9.52421H22.9348V7.67383H23.0667V9.6562Z" fill="#E0E0E0"/>
<path d="M120.845 98.7612C120.845 99.447 95.7053 100.001 64.6992 100.001C33.693 100.001 8.55371 99.447 8.55371 98.7612C8.55371 98.0754 33.6982 97.5293 64.6992 97.5293C95.7002 97.5293 120.845 98.0779 120.845 98.7612Z" fill="#F5F5F5"/>
<path d="M54.6239 9.89058C56.2429 8.2715 56.2429 5.64647 54.6239 4.02739C53.0048 2.40832 50.3798 2.40832 48.7607 4.02739C47.1416 5.64647 47.1416 8.2715 48.7607 9.89058C50.3798 11.5097 53.0048 11.5097 54.6239 9.89058Z" fill="#8094D4"/>
<path d="M53.7702 6.95048C53.7695 7.04293 53.7324 7.1314 53.6671 7.19677C53.6017 7.26214 53.5132 7.29917 53.4208 7.29985H52.0388V8.68182C52.0313 8.76895 51.9914 8.8501 51.9269 8.90922C51.8625 8.96835 51.7782 9.00115 51.6907 9.00115C51.6033 9.00115 51.519 8.96835 51.4546 8.90922C51.3901 8.8501 51.3502 8.76895 51.3427 8.68182V7.29985H49.9607C49.8682 7.29917 49.7798 7.26214 49.7144 7.19677C49.649 7.1314 49.612 7.04293 49.6113 6.95048C49.612 6.85803 49.649 6.76955 49.7144 6.70418C49.7798 6.63881 49.8682 6.60178 49.9607 6.6011H51.3427V5.22949C51.3502 5.14235 51.3901 5.06121 51.4546 5.00208C51.519 4.94296 51.6033 4.91016 51.6907 4.91016C51.7782 4.91016 51.8625 4.94296 51.9269 5.00208C51.9914 5.06121 52.0313 5.14235 52.0388 5.22949V6.61145H53.4208C53.5115 6.61206 53.5984 6.64766 53.6635 6.71082C53.7286 6.77398 53.7668 6.85984 53.7702 6.95048Z" fill="white"/>
<path d="M51.6919 12.155C51.6755 12.1554 51.6592 12.1524 51.644 12.1463C51.6287 12.1402 51.6149 12.131 51.6033 12.1194C51.5917 12.1078 51.5826 12.094 51.5764 12.0787C51.5703 12.0635 51.5673 12.0472 51.5677 12.0308V11.772C51.5651 11.7543 51.5664 11.7364 51.5714 11.7193C51.5764 11.7021 51.585 11.6863 51.5967 11.6728C51.6083 11.6594 51.6228 11.6485 51.639 11.6411C51.6552 11.6337 51.6728 11.6299 51.6906 11.6299C51.7085 11.6299 51.7261 11.6337 51.7423 11.6411C51.7585 11.6485 51.7729 11.6594 51.7846 11.6728C51.7962 11.6863 51.8049 11.7021 51.8099 11.7193C51.8149 11.7364 51.8161 11.7543 51.8136 11.772V12.0308C51.8139 12.047 51.811 12.0631 51.805 12.0781C51.7991 12.0932 51.7902 12.1069 51.7789 12.1185C51.7675 12.13 51.754 12.1392 51.7391 12.1455C51.7241 12.1518 51.7081 12.155 51.6919 12.155ZM51.8136 17.965V17.4707C51.8161 17.453 51.8149 17.435 51.8099 17.4179C51.8049 17.4008 51.7962 17.385 51.7846 17.3715C51.7729 17.358 51.7585 17.3472 51.7423 17.3398C51.7261 17.3324 51.7085 17.3286 51.6906 17.3286C51.6728 17.3286 51.6552 17.3324 51.639 17.3398C51.6228 17.3472 51.6083 17.358 51.5967 17.3715C51.585 17.385 51.5764 17.4008 51.5714 17.4179C51.5664 17.435 51.5651 17.453 51.5677 17.4707V17.965C51.572 17.9945 51.5868 18.0215 51.6094 18.041C51.6319 18.0605 51.6608 18.0713 51.6906 18.0713C51.7205 18.0713 51.7493 18.0605 51.7719 18.041C51.7945 18.0215 51.8093 17.9945 51.8136 17.965ZM51.8136 16.4821V15.9878C51.8161 15.9701 51.8149 15.9521 51.8099 15.935C51.8049 15.9179 51.7962 15.9021 51.7846 15.8886C51.7729 15.8751 51.7585 15.8643 51.7423 15.8569C51.7261 15.8495 51.7085 15.8457 51.6906 15.8457C51.6728 15.8457 51.6552 15.8495 51.639 15.8569C51.6228 15.8643 51.6083 15.8751 51.5967 15.8886C51.585 15.9021 51.5764 15.9179 51.5714 15.935C51.5664 15.9521 51.5651 15.9701 51.5677 15.9878V16.4821C51.572 16.5116 51.5868 16.5386 51.6094 16.5581C51.6319 16.5777 51.6608 16.5884 51.6906 16.5884C51.7205 16.5884 51.7493 16.5777 51.7719 16.5581C51.7945 16.5386 51.8093 16.5116 51.8136 16.4821ZM51.8136 14.9992V14.5049C51.8161 14.4872 51.8149 14.4692 51.8099 14.4521C51.8049 14.435 51.7962 14.4192 51.7846 14.4057C51.7729 14.3922 51.7585 14.3814 51.7423 14.374C51.7261 14.3666 51.7085 14.3628 51.6906 14.3628C51.6728 14.3628 51.6552 14.3666 51.639 14.374C51.6228 14.3814 51.6083 14.3922 51.5967 14.4057C51.585 14.4192 51.5764 14.435 51.5714 14.4521C51.5664 14.4692 51.5651 14.4872 51.5677 14.5049V14.9992C51.572 15.0287 51.5868 15.0557 51.6094 15.0752C51.6319 15.0948 51.6608 15.1055 51.6906 15.1055C51.7205 15.1055 51.7493 15.0948 51.7719 15.0752C51.7945 15.0557 51.8093 15.0287 51.8136 14.9992ZM51.8136 13.5163V13.0194C51.8093 12.9898 51.7945 12.9628 51.7719 12.9433C51.7493 12.9238 51.7205 12.913 51.6906 12.913C51.6608 12.913 51.6319 12.9238 51.6094 12.9433C51.5868 12.9628 51.572 12.9898 51.5677 13.0194V13.5163C51.572 13.5458 51.5868 13.5728 51.6094 13.5923C51.6319 13.6119 51.6608 13.6226 51.6906 13.6226C51.7205 13.6226 51.7493 13.6119 51.7719 13.5923C51.7945 13.5728 51.8093 13.5458 51.8136 13.5163ZM52.0723 19.2098C52.0723 19.1768 52.0593 19.1452 52.036 19.1219C52.0127 19.0986 51.9811 19.0855 51.9481 19.0855H51.8136V18.9639C51.8161 18.9463 51.8149 18.9283 51.8099 18.9112C51.8049 18.8941 51.7962 18.8782 51.7846 18.8647C51.7729 18.8513 51.7585 18.8405 51.7423 18.833C51.7261 18.8256 51.7085 18.8218 51.6906 18.8218C51.6728 18.8218 51.6552 18.8256 51.639 18.833C51.6228 18.8405 51.6083 18.8513 51.5967 18.8647C51.585 18.8782 51.5764 18.8941 51.5714 18.9112C51.5664 18.9283 51.5651 18.9463 51.5677 18.9639V19.2227C51.5673 19.2391 51.5703 19.2554 51.5764 19.2707C51.5826 19.2859 51.5917 19.2997 51.6033 19.3113C51.6149 19.3229 51.6287 19.3321 51.644 19.3382C51.6592 19.3443 51.6755 19.3473 51.6919 19.3469H51.9378C51.9572 19.3495 51.977 19.3473 51.9954 19.3406C52.0138 19.3339 52.0304 19.3228 52.0436 19.3083C52.0568 19.2938 52.0663 19.2764 52.0713 19.2574C52.0763 19.2384 52.0767 19.2185 52.0723 19.1994V19.2098ZM57.6934 19.2098C57.6934 19.1768 57.6803 19.1452 57.657 19.1219C57.6337 19.0986 57.6021 19.0855 57.5691 19.0855H57.1007C57.068 19.0862 57.0368 19.0995 57.0136 19.1227C56.9905 19.1458 56.9772 19.177 56.9765 19.2098C56.9765 19.2427 56.9896 19.2743 57.0129 19.2976C57.0362 19.3209 57.0678 19.334 57.1007 19.334H57.5691C57.5856 19.333 57.6017 19.3287 57.6165 19.3214C57.6312 19.314 57.6443 19.3037 57.6549 19.2911C57.6656 19.2785 57.6736 19.2639 57.6784 19.2481C57.6832 19.2324 57.6848 19.2158 57.683 19.1994L57.6934 19.2098ZM56.2881 19.2098C56.2881 19.1768 56.275 19.1452 56.2517 19.1219C56.2284 19.0986 56.1968 19.0855 56.1639 19.0855H55.6955C55.6627 19.0862 55.6315 19.0995 55.6084 19.1227C55.5852 19.1458 55.5719 19.177 55.5713 19.2098C55.5713 19.2427 55.5843 19.2743 55.6076 19.2976C55.6309 19.3209 55.6625 19.334 55.6955 19.334H56.1639C56.1804 19.333 56.1964 19.3287 56.2112 19.3214C56.2259 19.314 56.239 19.3037 56.2497 19.2911C56.2603 19.2785 56.2683 19.2639 56.2731 19.2481C56.278 19.2324 56.2795 19.2158 56.2778 19.1994L56.2881 19.2098ZM54.8829 19.2098C54.8829 19.1768 54.8698 19.1452 54.8465 19.1219C54.8232 19.0986 54.7916 19.0855 54.7586 19.0855H54.2902C54.2575 19.0862 54.2263 19.0995 54.2031 19.1227C54.18 19.1458 54.1667 19.177 54.166 19.2098C54.166 19.2427 54.1791 19.2743 54.2024 19.2976C54.2257 19.3209 54.2573 19.334 54.2902 19.334H54.7586C54.7751 19.333 54.7912 19.3287 54.8059 19.3214C54.8207 19.314 54.8338 19.3037 54.8444 19.2911C54.8551 19.2785 54.8631 19.2639 54.8679 19.2481C54.8727 19.2324 54.8743 19.2158 54.8725 19.1994L54.8829 19.2098ZM53.4776 19.2098C53.4776 19.1768 53.4645 19.1452 53.4412 19.1219C53.4179 19.0986 53.3863 19.0855 53.3534 19.0855H52.8746C52.8419 19.0862 52.8107 19.0995 52.7875 19.1227C52.7644 19.1458 52.7511 19.177 52.7504 19.2098C52.7504 19.2427 52.7635 19.2743 52.7868 19.2976C52.8101 19.3209 52.8417 19.334 52.8746 19.334H53.343C53.3604 19.3344 53.3776 19.3312 53.3936 19.3245C53.4096 19.3177 53.4239 19.3076 53.4357 19.2949C53.4475 19.2821 53.4564 19.267 53.4618 19.2506C53.4672 19.2341 53.4691 19.2167 53.4673 19.1994L53.4776 19.2098ZM58.8786 19.2098C58.878 19.177 58.8647 19.1458 58.8415 19.1227C58.8184 19.0995 58.7872 19.0862 58.7544 19.0855H58.4956C58.4631 19.0862 58.4322 19.0996 58.4095 19.1228C58.3867 19.146 58.374 19.1773 58.374 19.2098C58.3737 19.2259 58.3765 19.242 58.3825 19.2571C58.3885 19.2722 58.3974 19.2859 58.4087 19.2974C58.42 19.309 58.4335 19.3182 58.4485 19.3245C58.4634 19.3308 58.4794 19.334 58.4956 19.334H58.7544C58.7708 19.3327 58.7867 19.3282 58.8013 19.3207C58.8158 19.3132 58.8288 19.3029 58.8394 19.2904C58.85 19.2779 58.858 19.2634 58.8629 19.2478C58.8679 19.2322 58.8697 19.2157 58.8683 19.1994L58.8786 19.2098Z" fill="#8094D4"/>
<path d="M105.491 92.6113L105.752 96.7702L103.977 96.9099L102.786 92.821L105.491 92.6113Z" fill="#CE7A63"/>
<path d="M104.391 96.4944C104.319 96.4036 104.223 96.3349 104.114 96.2959C104.005 96.257 103.888 96.2496 103.775 96.2745C103.431 96.3883 102.978 96.9525 102.978 96.9525C102.978 96.9525 101.109 97.5529 100.605 97.584C100.1 97.615 99.766 97.9385 99.7246 98.8779H106.083C106.083 98.8779 106.083 96.673 105.868 96.29C105.682 95.9587 105.307 96.3857 105.307 96.3857L104.391 96.4944Z" fill="#263238"/>
<path d="M99.8694 98.5905L100.974 98.5776L105.798 98.5284C105.809 98.5259 105.819 98.5198 105.826 98.5111C105.833 98.5024 105.836 98.4916 105.836 98.4805C105.836 98.4694 105.833 98.4586 105.826 98.45C105.819 98.4413 105.809 98.4352 105.798 98.4326H105.47C105.371 98.1947 105.367 97.9278 105.459 97.6871C105.551 97.4464 105.732 97.2501 105.964 97.1387C105.97 97.1359 105.975 97.132 105.979 97.1271C105.984 97.1223 105.987 97.1166 105.989 97.1104C105.991 97.1042 105.991 97.0977 105.991 97.0913C105.99 97.0848 105.988 97.0786 105.985 97.073C105.981 97.0674 105.977 97.0625 105.972 97.0587C105.967 97.0549 105.961 97.0522 105.954 97.0509C105.948 97.0495 105.941 97.0495 105.935 97.0508C105.929 97.0521 105.923 97.0547 105.917 97.0584C105.669 97.1788 105.475 97.3885 105.374 97.6456C105.273 97.9028 105.273 98.1884 105.374 98.4456H104.693L99.8694 98.4973C99.8596 98.5006 99.8512 98.5069 99.8452 98.5152C99.8392 98.5236 99.8359 98.5336 99.8359 98.5439C99.8359 98.5542 99.8392 98.5642 99.8452 98.5726C99.8512 98.5809 99.8596 98.5872 99.8694 98.5905Z" fill="white"/>
<path d="M103.195 97.3403C103.152 97.2684 103.093 97.2065 103.024 97.1589C102.955 97.1113 102.876 97.0789 102.793 97.064C102.711 97.049 102.626 97.0519 102.544 97.0723C102.463 97.0927 102.386 97.1303 102.32 97.1824C102.271 97.2187 102.225 97.1359 102.274 97.0996C102.351 97.0414 102.439 97 102.533 96.9781C102.626 96.9561 102.724 96.9541 102.818 96.9722C102.913 96.9902 103.003 97.0279 103.082 97.0829C103.161 97.1378 103.228 97.2088 103.278 97.2911C103.312 97.3403 103.231 97.3895 103.195 97.3403Z" fill="white"/>
<path d="M102.668 97.4977C102.624 97.4261 102.566 97.3646 102.496 97.3172C102.427 97.2698 102.348 97.2376 102.266 97.2227C102.183 97.2077 102.098 97.2105 102.017 97.2307C101.935 97.2509 101.859 97.2881 101.793 97.3398C101.744 97.3761 101.697 97.2932 101.747 97.257C101.823 97.199 101.912 97.1577 102.006 97.1359C102.1 97.1142 102.197 97.1124 102.292 97.1307C102.386 97.149 102.476 97.187 102.555 97.2422C102.634 97.2974 102.701 97.3685 102.751 97.4511C102.784 97.5003 102.704 97.5469 102.668 97.4977Z" fill="white"/>
<path d="M102.123 97.6577C102.079 97.5858 102.021 97.5239 101.952 97.4763C101.882 97.4286 101.804 97.3963 101.721 97.3814C101.638 97.3664 101.553 97.3693 101.472 97.3897C101.39 97.4101 101.314 97.4477 101.248 97.4998C101.199 97.5361 101.152 97.4532 101.199 97.417C101.276 97.3588 101.364 97.3174 101.458 97.2955C101.552 97.2735 101.649 97.2715 101.744 97.2895C101.838 97.3076 101.928 97.3453 102.007 97.4002C102.086 97.4552 102.153 97.5261 102.203 97.6085C102.239 97.6577 102.156 97.7069 102.123 97.6577Z" fill="white"/>
<path d="M91.8963 92.5674L91.6504 96.7676L89.8596 96.91L89.166 92.7796L91.8963 92.5674Z" fill="#CE7A63"/>
<path d="M90.2709 96.4943C90.1993 96.4035 90.1035 96.3347 89.9945 96.2958C89.8856 96.2569 89.7679 96.2494 89.655 96.2743C89.3108 96.3882 88.8579 96.9523 88.8579 96.9523C88.8579 96.9523 86.9894 97.5527 86.4847 97.5838C85.9801 97.6148 85.5376 97.8995 85.3486 98.8778H91.4717C91.4717 98.8778 91.7124 96.6676 91.7486 96.2898C91.7849 95.912 91.187 96.3856 91.187 96.3856L90.2709 96.4943Z" fill="#263238"/>
<path d="M85.5302 98.5905L86.6327 98.5776L91.4566 98.5284C91.4674 98.5259 91.4771 98.5198 91.484 98.5111C91.4909 98.5024 91.4946 98.4916 91.4946 98.4805C91.4946 98.4694 91.4909 98.4586 91.484 98.45C91.4771 98.4413 91.4674 98.4352 91.4566 98.4326H91.1306C91.0319 98.1943 91.0284 97.9273 91.1208 97.6865C91.2133 97.4457 91.3946 97.2496 91.6274 97.1387C91.6333 97.1359 91.6386 97.132 91.6428 97.1271C91.6471 97.1223 91.6503 97.1166 91.6523 97.1104C91.6542 97.1042 91.6549 97.0977 91.6542 97.0913C91.6534 97.0848 91.6514 97.0786 91.6481 97.073C91.6449 97.0674 91.6405 97.0625 91.6353 97.0587C91.63 97.0549 91.624 97.0522 91.6177 97.0509C91.6114 97.0495 91.6048 97.0495 91.5985 97.0508C91.5921 97.0521 91.5861 97.0547 91.5809 97.0584C91.3323 97.1788 91.1384 97.3885 91.0376 97.6456C90.9369 97.9028 90.9368 98.1884 91.0374 98.4456H90.3568L85.5328 98.4973C85.523 98.5003 85.5143 98.5064 85.5081 98.5146C85.5019 98.5227 85.4984 98.5327 85.4981 98.543C85.4978 98.5533 85.5007 98.5634 85.5065 98.5719C85.5123 98.5804 85.5206 98.5869 85.5302 98.5905Z" fill="white"/>
<path d="M89.0799 97.3403C89.0364 97.2684 88.978 97.2065 88.9088 97.1589C88.8395 97.1113 88.7609 97.0789 88.6782 97.064C88.5955 97.049 88.5105 97.0519 88.4289 97.0723C88.3474 97.0927 88.2711 97.1303 88.2052 97.1824C88.156 97.2187 88.1094 97.1359 88.1586 97.0996C88.2354 97.0414 88.3236 97 88.4174 96.9781C88.5112 96.9561 88.6086 96.9541 88.7033 96.9722C88.7979 96.9902 88.8877 97.0279 88.9668 97.0829C89.046 97.1378 89.1127 97.2088 89.1627 97.2911C89.199 97.3403 89.1162 97.3895 89.0799 97.3403Z" fill="white"/>
<path d="M88.5471 97.4977C88.5036 97.4262 88.4454 97.3647 88.3763 97.3173C88.3073 97.2699 88.2289 97.2377 88.1465 97.2228C88.0641 97.2079 87.9795 97.2106 87.8982 97.2308C87.817 97.2509 87.7409 97.2881 87.675 97.3398C87.6258 97.3761 87.5767 97.2932 87.6258 97.257C87.7028 97.199 87.7911 97.1577 87.885 97.1359C87.979 97.1142 88.0764 97.1124 88.1711 97.1307C88.2657 97.149 88.3555 97.187 88.4346 97.2422C88.5136 97.2974 88.5802 97.3685 88.63 97.4511C88.6662 97.5003 88.5834 97.5469 88.5471 97.4977Z" fill="white"/>
<path d="M88.0037 97.6577C87.9602 97.5858 87.9019 97.5239 87.8326 97.4763C87.7634 97.4286 87.6847 97.3963 87.602 97.3814C87.5193 97.3664 87.4343 97.3693 87.3528 97.3897C87.2712 97.4101 87.1949 97.4477 87.129 97.4998C87.0798 97.5361 87.0333 97.4532 87.0824 97.417C87.1592 97.3588 87.2474 97.3174 87.3412 97.2955C87.435 97.2735 87.5324 97.2715 87.6271 97.2895C87.7217 97.3076 87.8115 97.3453 87.8907 97.4002C87.9698 97.4552 88.0366 97.5261 88.0866 97.6085C88.1202 97.6577 88.04 97.7069 88.0037 97.6577Z" fill="white"/>
<path d="M87.7242 48.7869C87.7242 48.7869 86.689 62.8265 86.7486 68.9936C86.821 75.4066 88.9121 94.0734 88.9121 94.0734H92.3385C92.3385 94.0734 92.97 75.7352 93.2754 69.4362C93.6092 62.5677 95.6614 47.6611 95.6614 47.6611L87.7242 48.7869Z" fill="#263238"/>
<path opacity="0.2" d="M93.9303 61.7976C94.1891 59.277 94.5074 56.6735 94.7869 54.3987L94.3858 51.9971C94.3858 51.9971 93.0426 55.7444 93.9303 61.7976Z" fill="black"/>
<path d="M92.5944 93.0361C92.5944 93.4062 92.5608 94.1438 92.5608 94.1438H88.6142L88.4951 93.0361H92.5944Z" fill="#8094D4"/>
<path d="M93.5703 47.6611C93.5703 47.6611 94.6055 63.1241 95.7287 68.916C96.9528 75.2539 102.509 94.0734 102.509 94.0734H106.212C106.212 94.0734 103.832 75.8154 103.2 69.5371C102.512 62.7256 102.214 48.968 102.214 48.968L93.5703 47.6611Z" fill="#263238"/>
<path d="M106.378 93.0098C106.414 93.3876 106.471 94.1433 106.471 94.1433H102.134L101.875 93.0098H106.378Z" fill="#8094D4"/>
<path d="M102.843 50.2856C95.439 50.7902 89.8723 50.8291 86.9221 49.7162C86.7176 36.6781 87.1809 28.5675 87.7865 26.5851C87.8672 26.3207 88.0006 26.0753 88.1784 25.8637C88.3563 25.652 88.5751 25.4784 88.8216 25.3533C89.5531 24.9857 90.3399 24.7409 91.1508 24.6287C92.7035 24.3983 95.2682 24.331 97.0461 24.3362C98.0218 24.3362 99.0233 24.4139 99.8489 24.4967C100.884 24.6028 101.544 25.5189 101.5 26.5489C101.412 28.5313 101.404 30.5369 101.451 32.5012C101.479 33.6347 101.523 34.7527 101.58 35.8474C101.945 42.8401 102.83 48.7613 102.843 50.2856Z" fill="#8094D4"/>
<path opacity="0.2" d="M101.574 35.8517L98.3965 28.8643L101.445 32.5081C101.474 33.639 101.518 34.757 101.574 35.8517Z" fill="black"/>
<path d="M92.2169 14.1985C91.8262 13.7741 90.5141 13.7378 89.8878 14.5556C89.2201 15.4304 88.3738 17.0452 87.8355 16.626C87.9154 16.8677 88.0668 17.0796 88.2697 17.2334C88.4725 17.3873 88.7173 17.476 88.9717 17.4878C88.9717 17.4878 88.4256 18.0856 87.7217 17.8656C87.8445 18.2122 88.0622 18.5172 88.35 18.746C88.6378 18.9748 88.9842 19.1181 89.3495 19.1596C90.5529 19.3356 92.2299 15.8858 92.4964 15.3217C92.4964 14.6773 92.4447 14.7161 92.2169 14.1985Z" fill="#263238"/>
<path d="M92.9618 14.3396C93.4926 14.2754 94.031 14.3216 94.5431 14.4752C95.0552 14.6289 95.5301 14.8867 95.938 15.2324C96.4711 15.6931 96.8852 16.2987 96.7014 17.0233C96.2718 18.7106 95.1331 21.4228 95.1331 21.4228L90.0245 17.4917C90.0245 17.4917 89.9986 15.8535 90.819 15.0409C91.2486 14.6191 92.1854 14.4276 92.9618 14.3396Z" fill="#263238"/>
<path d="M92.0283 14.2461C92.0283 14.2461 93.7881 12.9909 96.1302 14.7326C98.4723 16.4743 96.1302 19.6264 96.1302 19.6264C96.1302 19.6264 95.3797 21.0213 96.0422 21.3655C95.8097 21.4555 95.5617 21.4986 95.3124 21.4923C95.3124 21.4923 95.5402 21.9168 95.83 21.8779C95.83 21.8779 95.4237 22.041 94.7043 21.7201C93.9848 21.3992 92.0283 14.2461 92.0283 14.2461Z" fill="#263238"/>
<path d="M92.1389 22.9413C92.1389 22.9413 92.1389 22.9413 92.1389 22.9646L92.2787 23.9843C92.2758 24.186 92.2541 24.387 92.214 24.5847C92.1813 24.7446 92.1372 24.902 92.082 25.0557C91.8232 25.3274 91.6395 25.9899 92.4133 26.0909C93.3889 26.2177 95.3532 25.0117 95.4722 24.5898C95.185 23.2001 94.9986 21.5956 95.229 20.3301L93.9686 21.3963L92.1389 22.9413Z" fill="#CE7A63"/>
<path opacity="0.2" d="M92.1445 22.9674L92.2843 23.9871C92.9287 23.7852 93.643 23.2624 93.8681 22.631C94.0286 22.1755 93.8681 21.7097 93.6869 21.6631L92.1445 22.9674Z" fill="black"/>
<path d="M89.9319 20.5886C89.9629 20.8111 90.0018 21.0311 90.0432 21.2485C90.4314 23.1713 92.688 23.6191 94.2719 22.4338C94.4155 22.3263 94.5504 22.2077 94.6756 22.0792C95.7237 21.0052 95.6098 20.0684 95.7289 17.9851C95.7607 17.5018 95.6687 17.0184 95.4616 16.5805C95.2545 16.1427 94.9391 15.765 94.5452 15.4831C94.1514 15.2012 93.6921 15.0244 93.2109 14.9695C92.7297 14.9146 92.2424 14.9834 91.7952 15.1694C89.9526 15.9251 89.6162 18.3655 89.9319 20.5886Z" fill="#CE7A63"/>
<path d="M92.4243 18.8939C92.4243 19.0622 92.3415 19.1993 92.2302 19.2019C92.119 19.2045 92.031 19.0673 92.0284 18.8991C92.0258 18.7309 92.1138 18.5938 92.2225 18.5938C92.3312 18.5938 92.4243 18.7257 92.4243 18.8939Z" fill="#263238"/>
<path d="M90.5968 18.9115C90.5968 19.0797 90.5114 19.2169 90.4027 19.2195C90.294 19.2221 90.2009 19.0849 90.1983 18.9167C90.1957 18.7485 90.2837 18.6113 90.395 18.6113C90.5063 18.6113 90.5942 18.7433 90.5968 18.9115Z" fill="#263238"/>
<path d="M91.7637 21.1838H91.7042C91.6882 21.1796 91.6744 21.1695 91.6653 21.1557C91.6562 21.1419 91.6526 21.1252 91.6551 21.1088C91.6569 21.1004 91.6604 21.0925 91.6653 21.0855C91.6702 21.0785 91.6764 21.0726 91.6836 21.068C91.6908 21.0634 91.6989 21.0604 91.7073 21.0589C91.7157 21.0575 91.7244 21.0577 91.7327 21.0596C91.856 21.0837 91.9829 21.0825 92.1058 21.0562C92.2286 21.0298 92.3449 20.9788 92.4475 20.9062C92.55 20.8336 92.6368 20.741 92.7026 20.6339C92.7683 20.5268 92.8117 20.4075 92.83 20.2832C92.8318 20.2749 92.8353 20.267 92.8402 20.26C92.8451 20.253 92.8513 20.247 92.8585 20.2425C92.8658 20.2379 92.8738 20.2348 92.8822 20.2334C92.8907 20.2319 92.8993 20.2321 92.9076 20.2341C92.9236 20.2389 92.9373 20.2495 92.9459 20.2639C92.9545 20.2782 92.9575 20.2953 92.9542 20.3117C92.9102 20.5844 92.7606 20.8287 92.5378 20.9919C92.3151 21.1552 92.037 21.2241 91.7637 21.1838Z" fill="#263238"/>
<path d="M95.7305 18.1773C95.4302 18.4077 95.2109 18.7276 95.1043 19.0908C95.1012 19.1305 95.0862 19.1682 95.0613 19.1992C95.0363 19.2301 95.0026 19.2528 94.9645 19.2642L94.2088 19.3263C94.2088 19.3263 94.6695 17.3181 94.1312 17.2767C93.5929 17.2352 94.2865 16.3942 93.9811 16.2208C93.2616 15.8145 91.1913 15.5324 90.2363 16.6814C90.2363 16.6814 90.6038 15.4754 91.6701 14.9372C92.7363 14.3989 94.7316 14.5075 95.407 15.579C96.0825 16.6504 95.7305 18.1773 95.7305 18.1773Z" fill="#263238"/>
<path d="M96.6325 19.3725C96.4868 19.8755 96.1482 20.3006 95.6905 20.5551C95.0797 20.8864 94.6191 20.3792 94.6553 19.7218C94.6916 19.1292 95.0513 18.2441 95.7267 18.1846C96.4022 18.1251 96.8007 18.7539 96.6273 19.3725" fill="#CE7A63"/>
<path d="M90.0976 18.2159C90.112 18.2161 90.1261 18.2124 90.1384 18.2051C90.1508 18.1978 90.1608 18.1872 90.1675 18.1745C90.1931 18.1214 90.2293 18.074 90.2738 18.0353C90.3183 17.9966 90.3702 17.9674 90.4263 17.9494C90.5408 17.9274 90.6593 17.9447 90.7628 17.9985C90.772 18.0045 90.7824 18.0086 90.7932 18.0104C90.8041 18.0122 90.8152 18.0117 90.8259 18.0091C90.8366 18.0064 90.8466 18.0016 90.8553 17.9949C90.864 17.9881 90.8713 17.9797 90.8766 17.9701C90.8823 17.9607 90.886 17.9504 90.8876 17.9396C90.8892 17.9288 90.8887 17.9178 90.886 17.9072C90.8834 17.8966 90.8787 17.8867 90.8722 17.8779C90.8657 17.8692 90.8575 17.8618 90.8481 17.8562C90.7067 17.7793 90.5421 17.7563 90.3849 17.7915C90.3074 17.8139 90.2355 17.8525 90.1739 17.9047C90.1124 17.9569 90.0626 18.0215 90.0278 18.0943C90.0219 18.1035 90.0181 18.1138 90.0165 18.1246C90.0149 18.1354 90.0156 18.1464 90.0185 18.1569C90.0214 18.1674 90.0265 18.1771 90.0335 18.1855C90.0404 18.1939 90.0491 18.2007 90.0588 18.2056C90.0706 18.2125 90.084 18.2161 90.0976 18.2159Z" fill="#263238"/>
<path d="M93.2731 18.1513C93.2851 18.1493 93.2965 18.1449 93.3068 18.1384C93.3165 18.1336 93.3252 18.1267 93.3321 18.1183C93.3391 18.1099 93.3442 18.1002 93.3471 18.0897C93.35 18.0792 93.3507 18.0682 93.3491 18.0574C93.3475 18.0466 93.3437 18.0363 93.3378 18.0271C93.2539 17.8892 93.1222 17.7869 92.9677 17.7398C92.8892 17.7216 92.8078 17.7197 92.7285 17.7344C92.6492 17.7491 92.5738 17.78 92.5071 17.8252C92.4882 17.8366 92.4746 17.8549 92.4693 17.8763C92.4639 17.8976 92.4673 17.9202 92.4786 17.9391C92.49 17.958 92.5083 17.9716 92.5297 17.9769C92.551 17.9823 92.5736 17.9789 92.5925 17.9676C92.6403 17.9336 92.6948 17.9101 92.7523 17.8985C92.8098 17.8869 92.8691 17.8875 92.9263 17.9003C93.0346 17.9376 93.1262 18.0118 93.1851 18.1099C93.1932 18.1255 93.2062 18.138 93.2221 18.1455C93.238 18.153 93.2559 18.155 93.2731 18.1513Z" fill="#263238"/>
<path d="M91.4219 18.752C91.3309 19.0966 91.1422 19.4076 90.8784 19.6474C90.454 20.0071 91.2951 20.3203 91.2951 20.3203L91.4219 18.752Z" fill="#BA4D3C"/>
<path d="M95.0325 18.579C94.3813 18.4907 93.7193 18.6247 93.1537 18.9594C93.1045 18.4987 92.8043 18.1416 92.4368 18.1416C92.0693 18.1416 91.7381 18.5376 91.7174 19.037C91.6089 18.9587 91.4785 18.9166 91.3447 18.9166C91.2109 18.9166 91.0805 18.9587 90.9721 19.037C90.9462 18.5453 90.633 18.1545 90.25 18.1545C89.867 18.1545 89.5254 18.579 89.5254 19.1043C89.5254 19.6297 89.8515 20.0541 90.25 20.0541C90.6486 20.0541 90.9695 19.6348 90.9746 19.1173C91.0109 19.0836 91.2748 18.8455 91.7148 19.1173C91.7148 19.6348 92.0435 20.0489 92.4368 20.0489C92.8302 20.0489 93.164 19.6219 93.164 19.0991C93.1653 19.0793 93.1653 19.0594 93.164 19.0396C93.7219 18.6946 94.3834 18.5572 95.0325 18.6514C95.0368 18.6522 95.0412 18.652 95.0454 18.6509C95.0496 18.6499 95.0536 18.6479 95.057 18.6452C95.0604 18.6426 95.0632 18.6392 95.0652 18.6353C95.0673 18.6315 95.0685 18.6273 95.0688 18.623C95.0699 18.6176 95.0699 18.612 95.0686 18.6067C95.0673 18.6014 95.0648 18.5964 95.0613 18.5922C95.0579 18.5879 95.0535 18.5845 95.0485 18.5822C95.0435 18.58 95.038 18.5788 95.0325 18.579ZM90.25 19.9765C89.8851 19.9765 89.5901 19.5779 89.5901 19.0914C89.5901 18.6048 89.8851 18.2063 90.25 18.2063C90.6149 18.2063 90.9125 18.6023 90.9125 19.0914C90.9125 19.5805 90.6071 19.9765 90.2422 19.9765H90.25ZM92.4368 19.9765C92.0745 19.9765 91.7769 19.5779 91.7769 19.0914C91.7769 18.6048 92.0745 18.2063 92.4368 18.2063C92.7991 18.2063 93.0993 18.6023 93.0993 19.0914C93.0993 19.5805 92.794 19.9765 92.4291 19.9765H92.4368Z" fill="white"/>
<path d="M87.6545 27.1045L85.4341 32.4201C85.0614 33.3 84.681 34.1748 84.2954 35.0314C84.1039 35.4584 83.9046 35.8802 83.7053 36.2865C83.5061 36.6928 83.3016 37.0914 83.1075 37.4175C83.0552 37.5067 82.9982 37.5931 82.9367 37.6763L82.6495 37.8134L82.3337 37.9558L81.6867 38.2379L79.0238 39.3662C77.2355 40.1245 75.4446 40.906 73.6719 41.7316L74.2982 43.6829C76.2314 43.3154 78.1413 42.8832 80.046 42.3889C80.9958 42.1301 81.9455 41.892 82.8927 41.6125L83.6174 41.3926L83.9848 41.2761L84.3756 41.1415L84.5231 41.0872L84.5904 41.0587L84.8492 40.9423L84.989 40.8776C85.0459 40.8439 85.1002 40.8129 85.152 40.7766C85.2038 40.7404 85.2607 40.7042 85.2917 40.6809C85.4169 40.5856 85.5353 40.4818 85.6463 40.3703C85.7628 40.2513 85.8585 40.1426 85.9413 40.0417C86.0992 39.8527 86.2131 39.6897 86.3295 39.5241C86.5262 39.2394 86.697 38.9651 86.8471 38.6985C86.9661 38.5044 87.0748 38.3155 87.1835 38.1266C87.4423 37.6711 87.6752 37.2208 87.9056 36.7731C88.3688 35.8751 88.7906 34.9615 89.1995 34.0738C90.0199 32.2623 90.7834 30.4662 91.4795 28.6055L87.6545 27.1045ZM83.0558 37.6271H83.0402L83.0661 37.609L83.0894 37.596L83.0558 37.6271Z" fill="#8094D4"/>
<path opacity="0.2" d="M87.4549 30.3584C87.2401 31.9112 86.8726 38.6968 86.8726 38.6968C86.8731 38.7028 86.8731 38.7089 86.8726 38.7149C86.7121 38.9737 86.5413 39.2558 86.355 39.5404C86.2385 39.7035 86.1247 39.8665 85.9668 40.058C86.0962 36.792 87.4549 30.3584 87.4549 30.3584Z" fill="black"/>
<path d="M74.4559 43.0814C74.3989 42.6979 74.2991 42.322 74.1582 41.9608C73.8443 41.632 73.4247 41.4241 72.973 41.3733C72.326 41.3578 71.811 41.1741 71.327 41.1974C70.8431 41.2206 71.3581 41.6218 71.6738 41.7822C71.9895 41.9427 72.3493 42.1238 72.1914 42.3438C72.0335 42.5638 69.9218 43.5136 69.7355 43.8422C69.5491 44.1709 69.9425 44.1217 69.9425 44.1217C69.9425 44.1217 69.4689 44.3391 69.4767 44.5953C69.4844 44.8515 69.8234 44.805 69.8234 44.805C69.8234 44.805 69.5103 44.9602 69.6475 45.1673C69.7173 45.276 70.2556 45.1906 70.7629 45.087C70.6568 45.1388 70.5843 45.2009 70.5714 45.2785C70.5248 45.5943 71.2235 45.4908 71.7825 45.4183C72.3595 45.3525 72.8956 45.0881 73.299 44.6704C73.6847 44.246 74.5594 43.7387 74.4559 43.0814ZM71.6479 44.8929C71.6643 44.8911 71.6808 44.8911 71.6971 44.8929H71.6479Z" fill="#CE7A63"/>
<path d="M69.9116 44.8203C70.4525 44.577 71.0011 44.3493 71.5524 44.1448C71.6109 44.2878 71.6801 44.4263 71.7594 44.5589C71.7982 44.6262 71.8836 44.5408 71.8448 44.4761C71.6036 44.0582 71.4561 43.5928 71.4126 43.1122C71.4126 43.032 71.2987 43.0579 71.3065 43.1381C71.3188 43.2599 71.3378 43.3808 71.3634 43.5004C71.3534 43.4967 71.3424 43.4967 71.3324 43.5004C70.8806 43.6296 70.4461 43.8129 70.0384 44.0465C69.9763 44.0827 70.0177 44.1966 70.0824 44.1604C70.4785 43.9318 70.9009 43.7519 71.3402 43.6247C71.3476 43.6221 71.3544 43.618 71.3602 43.6127C71.366 43.6073 71.3706 43.6008 71.3738 43.5936C71.4059 43.7441 71.4492 43.892 71.5032 44.0361C70.9494 44.2406 70.4033 44.4657 69.8599 44.7116C69.8029 44.7349 69.8443 44.8513 69.9116 44.8203Z" fill="#BA4D3C"/>
<path d="M71.9836 43.568C72.1547 43.3047 72.4088 43.1063 72.7056 43.004C73.0025 42.9018 73.3249 42.9017 73.6218 43.0038C73.6865 43.0297 73.7279 42.9106 73.6632 42.8847C73.0266 42.6492 72.3511 42.8847 71.8956 43.4981C71.8895 43.5036 71.8847 43.5105 71.8815 43.5181C71.8782 43.5257 71.8767 43.5339 71.877 43.5421C71.8773 43.5504 71.8793 43.5585 71.883 43.5659C71.8867 43.5732 71.892 43.5797 71.8985 43.5849C71.9049 43.59 71.9125 43.5937 71.9205 43.5956C71.9285 43.5975 71.9369 43.5977 71.945 43.5961C71.9531 43.5945 71.9607 43.5912 71.9674 43.5863C71.9741 43.5814 71.9796 43.5752 71.9836 43.568Z" fill="#BA4D3C"/>
<path d="M101.142 25.2832C102.408 26.9266 103.616 28.6035 104.809 30.2987C105.41 31.1423 105.997 31.9964 106.582 32.8556C107.167 33.7148 107.739 34.5688 108.326 35.4875L108.44 35.6635L108.577 35.8886L108.645 36.0025L108.663 36.031L108.722 36.1422L108.787 36.2768C108.808 36.3234 108.826 36.37 108.834 36.3933C108.871 36.4968 108.903 36.6022 108.929 36.709L108.958 36.8332L108.976 36.9342C109.008 37.1371 109.027 37.342 109.03 37.5475C109.03 37.7183 109.03 37.8788 109.03 38.0289C109.015 38.6293 108.968 39.1676 108.916 39.7084C108.81 40.7824 108.658 41.8228 108.502 42.8606C108.179 44.9309 107.772 46.978 107.294 49.0199L105.122 48.7611C105.122 46.6907 105.146 44.6204 105.177 42.5811C105.177 41.5459 105.195 40.5392 105.177 39.5454C105.177 39.0537 105.153 38.5594 105.115 38.1272C105.115 38.0185 105.094 37.9202 105.081 37.8322C105.076 37.7798 105.064 37.7283 105.045 37.6795V37.7105C105.053 37.7557 105.066 37.8 105.084 37.8425L105.112 37.9124C105.124 37.9433 105.138 37.9735 105.153 38.003L105.192 38.0729V38.0599L105.153 38.0107L104.975 37.7675C104.39 36.9911 103.743 36.1604 103.127 35.3426C102.511 34.5248 101.877 33.707 101.259 32.8814C100.016 31.2329 98.7845 29.5766 97.5967 27.8867L101.142 25.2832Z" fill="#8094D4"/>
<path d="M107.253 48.8881C106.779 47.6615 105.721 47.9746 105.41 48.2852C105.41 48.2852 104.634 49.0822 104.466 49.5377C104.297 49.9932 104.072 50.4383 104.152 50.6454C104.191 50.7437 104.328 50.6454 104.463 50.5056C104.396 50.6709 104.354 50.8454 104.339 51.0232C104.339 51.0232 104.458 52.2809 104.947 52.6743C105.436 53.0677 105.343 51.9367 105.343 51.9367C105.343 51.9367 105.402 53.0573 106.585 52.695C107.041 52.5579 107.543 51.2147 107.62 50.4668C107.83 49.8353 107.253 48.8881 107.253 48.8881Z" fill="#CE7A63"/>
<path d="M92.3049 24.192C92.3049 24.192 91.2982 24.0833 90.7522 24.6967C90.5348 25.4498 91.011 26.3452 91.5286 27.251L92.644 26.0993C92.7242 26.1019 92.1445 25.1159 92.3049 24.192Z" fill="#8094D4"/>
<path opacity="0.2" d="M92.3049 24.192C92.3049 24.192 91.2982 24.0833 90.7522 24.6967C90.5348 25.4498 91.011 26.3452 91.5286 27.251L92.644 26.0993C92.7242 26.1019 92.1445 25.1159 92.3049 24.192Z" fill="black"/>
<path d="M95.3046 23.6419C94.8285 24.7418 93.8088 25.469 92.6494 26.0979L93.2783 27.2495L97.1602 24.3355C97.1602 24.3355 96.0474 23.3469 95.3046 23.6419Z" fill="#8094D4"/>
<path opacity="0.2" d="M95.3046 23.6419C94.8285 24.7418 93.8088 25.469 92.6494 26.0979L93.2783 27.2495L97.1602 24.3355C97.1602 24.3355 96.0474 23.3469 95.3046 23.6419Z" fill="black"/>
<path opacity="0.2" d="M92.6544 27.7598C92.6544 27.7994 92.6426 27.838 92.6206 27.8708C92.5986 27.9036 92.5673 27.9292 92.5308 27.9442C92.4942 27.9592 92.454 27.963 92.4153 27.9551C92.3766 27.9472 92.3411 27.9279 92.3133 27.8998C92.2855 27.8717 92.2668 27.8359 92.2594 27.7971C92.252 27.7583 92.2563 27.7181 92.2718 27.6818C92.2873 27.6454 92.3132 27.6145 92.3463 27.5929C92.3794 27.5713 92.4182 27.5601 92.4577 27.5606C92.5101 27.5612 92.5601 27.5825 92.597 27.6198C92.6338 27.6571 92.6544 27.7074 92.6544 27.7598Z" fill="black"/>
<path opacity="0.2" d="M92.6544 29.0596C92.6544 29.0992 92.6426 29.1378 92.6206 29.1706C92.5986 29.2034 92.5673 29.229 92.5308 29.244C92.4942 29.259 92.454 29.2628 92.4153 29.2549C92.3766 29.247 92.3411 29.2277 92.3133 29.1996C92.2855 29.1715 92.2668 29.1357 92.2594 29.0969C92.252 29.0581 92.2563 29.0179 92.2718 28.9816C92.2873 28.9452 92.3132 28.9143 92.3463 28.8927C92.3794 28.8711 92.4182 28.8599 92.4577 28.8604C92.5101 28.861 92.5601 28.8823 92.597 28.9196C92.6338 28.9569 92.6544 29.0072 92.6544 29.0596Z" fill="black"/>
<path opacity="0.2" d="M92.6544 30.3585C92.6544 30.398 92.6426 30.4366 92.6206 30.4694C92.5986 30.5023 92.5673 30.5278 92.5308 30.5428C92.4942 30.5578 92.454 30.5616 92.4153 30.5537C92.3766 30.5458 92.3411 30.5266 92.3133 30.4984C92.2855 30.4703 92.2668 30.4346 92.2594 30.3957C92.252 30.3569 92.2563 30.3168 92.2718 30.2804C92.2873 30.244 92.3132 30.2131 92.3463 30.1915C92.3794 30.1699 92.4182 30.1587 92.4577 30.1592C92.5101 30.1599 92.5601 30.1812 92.597 30.2185C92.6338 30.2558 92.6544 30.3061 92.6544 30.3585Z" fill="black"/>
<path d="M67.8809 94.1738L68.414 96.8601H69.8322L70.0211 94.1738H67.8809Z" fill="#FFC3BD"/>
<path d="M69.6453 96.5191C69.7163 96.429 69.8112 96.3606 69.9192 96.3217C70.0272 96.2828 70.1439 96.275 70.2561 96.2991C70.5977 96.413 71.0324 96.972 71.0324 96.972C71.0324 96.972 72.8854 97.5672 73.3849 97.5983C73.8844 97.6294 74.3243 97.9114 74.5106 98.8923H68.4574C68.4574 98.8923 68.2193 96.7055 68.1805 96.3302C68.1417 95.955 68.7395 96.4234 68.7395 96.4234L69.6453 96.5191Z" fill="#263238"/>
<path d="M74.3299 98.5898H73.2378L68.4605 98.5406C68.4009 98.5406 68.4009 98.4449 68.4605 98.4475H68.784C68.8856 98.2101 68.8912 97.9425 68.7995 97.7011C68.7078 97.4598 68.5259 97.2634 68.2922 97.1535C68.2379 97.125 68.2922 97.0422 68.3388 97.0733C68.5846 97.193 68.7764 97.4008 68.8761 97.6553C68.9758 97.9099 68.9762 98.1926 68.8771 98.4475C69.1023 98.4475 69.3274 98.4475 69.5526 98.4475L74.3273 98.4966C74.3334 98.4965 74.3395 98.4975 74.3453 98.4997C74.351 98.5019 74.3562 98.5052 74.3606 98.5094C74.3651 98.5136 74.3687 98.5186 74.3712 98.5242C74.3737 98.5298 74.375 98.5358 74.3752 98.5419C74.3754 98.5481 74.3743 98.5541 74.3722 98.5599C74.37 98.5656 74.3667 98.5708 74.3625 98.5752C74.3583 98.5797 74.3532 98.5833 74.3476 98.5858C74.3421 98.5883 74.336 98.5896 74.3299 98.5898Z" fill="#8094D4"/>
<path d="M70.8285 97.3526C70.8721 97.2817 70.9301 97.2209 70.9988 97.174C71.0675 97.1272 71.1454 97.0953 71.2272 97.0807C71.3091 97.066 71.3931 97.0688 71.4738 97.0889C71.5545 97.109 71.6301 97.146 71.6955 97.1973C71.7447 97.2335 71.7913 97.1507 71.7421 97.1145C71.666 97.0569 71.5786 97.0159 71.4857 96.9943C71.3927 96.9727 71.2962 96.9708 71.2025 96.9889C71.1088 97.0069 71.0199 97.0445 70.9417 97.0991C70.8634 97.1538 70.7976 97.2242 70.7483 97.306C70.7147 97.3552 70.7949 97.4017 70.8285 97.3526Z" fill="white"/>
<path d="M71.35 97.5088C71.3935 97.438 71.4515 97.3771 71.5202 97.3303C71.5889 97.2834 71.6668 97.2516 71.7487 97.2369C71.8305 97.2223 71.9145 97.2251 71.9953 97.2452C72.076 97.2653 72.1515 97.3022 72.2169 97.3535C72.2661 97.3898 72.3127 97.307 72.2635 97.2707C72.1874 97.2131 72.1 97.1722 72.0071 97.1505C71.9141 97.1289 71.8177 97.127 71.724 97.1451C71.6302 97.1632 71.5414 97.2007 71.4631 97.2554C71.3849 97.31 71.319 97.3805 71.2697 97.4622C71.2335 97.5114 71.3163 97.558 71.35 97.5088Z" fill="white"/>
<path d="M71.8917 97.6691C71.9349 97.5979 71.9928 97.5368 72.0615 97.4897C72.1302 97.4426 72.2081 97.4106 72.2901 97.3959C72.3721 97.3813 72.4563 97.3842 72.537 97.4045C72.6178 97.4248 72.6933 97.4621 72.7586 97.5138C72.8052 97.5501 72.8518 97.4672 72.8052 97.431C72.7289 97.3734 72.6413 97.3324 72.5482 97.3107C72.455 97.2891 72.3584 97.2872 72.2644 97.3053C72.1705 97.3233 72.0814 97.3609 72.003 97.4155C71.9245 97.4702 71.8584 97.5407 71.8088 97.6225C71.7752 97.6717 71.8554 97.7183 71.8917 97.6691Z" fill="white"/>
<path d="M55.1807 94.1924L55.4757 96.8606H56.8939L57.3183 94.1924H55.1807Z" fill="#FFC3BD"/>
<path d="M56.7088 96.5191C56.7798 96.429 56.8747 96.3606 56.9827 96.3217C57.0906 96.2828 57.2073 96.275 57.3195 96.2991C57.6611 96.413 58.0959 96.972 58.0959 96.972C58.0959 96.972 59.9489 97.5672 60.4484 97.5983C60.9478 97.6294 61.3852 97.9114 61.5741 98.8923H55.5209C55.5209 98.8923 55.2828 96.7055 55.244 96.3302C55.2052 95.955 55.803 96.4234 55.803 96.4234L56.7088 96.5191Z" fill="#263238"/>
<path d="M61.4022 98.5898H60.3101L55.5327 98.5406C55.5204 98.5406 55.5085 98.5357 55.4998 98.527C55.491 98.5183 55.4861 98.5064 55.4861 98.4941C55.4861 98.4817 55.491 98.4699 55.4998 98.4611C55.5085 98.4524 55.5204 98.4475 55.5327 98.4475H55.8562C55.9579 98.2101 55.9635 97.9425 55.8718 97.7011C55.78 97.4598 55.5982 97.2634 55.3645 97.1535C55.3102 97.125 55.3645 97.0422 55.4111 97.0733C55.6569 97.193 55.8486 97.4008 55.9484 97.6553C56.0481 97.9099 56.0484 98.1926 55.9494 98.4475C56.1745 98.4475 56.3997 98.4475 56.6248 98.4475L61.3996 98.4966C61.4057 98.4965 61.4118 98.4975 61.4175 98.4997C61.4232 98.5019 61.4285 98.5052 61.4329 98.5094C61.4374 98.5136 61.4409 98.5186 61.4434 98.5242C61.4459 98.5298 61.4473 98.5358 61.4475 98.5419C61.4476 98.5481 61.4466 98.5541 61.4444 98.5599C61.4422 98.5656 61.4389 98.5708 61.4347 98.5752C61.4305 98.5797 61.4255 98.5833 61.4199 98.5858C61.4143 98.5883 61.4083 98.5896 61.4022 98.5898Z" fill="#8094D4"/>
<path d="M57.891 97.3526C57.9346 97.2817 57.9926 97.2209 58.0613 97.174C58.13 97.1272 58.2079 97.0953 58.2897 97.0807C58.3716 97.066 58.4556 97.0688 58.5363 97.0889C58.617 97.109 58.6926 97.146 58.758 97.1973C58.8072 97.2335 58.8538 97.1507 58.8046 97.1145C58.7285 97.0569 58.6411 97.0159 58.5482 96.9943C58.4552 96.9727 58.3587 96.9708 58.265 96.9889C58.1713 97.0069 58.0825 97.0445 58.0042 97.0991C57.9259 97.1538 57.8601 97.2242 57.8108 97.306C57.7772 97.3552 57.8574 97.4017 57.891 97.3526Z" fill="white"/>
<path d="M58.4144 97.5088C58.4579 97.438 58.516 97.3771 58.5847 97.3303C58.6534 97.2834 58.7312 97.2516 58.8131 97.2369C58.895 97.2223 58.979 97.2251 59.0597 97.2452C59.1404 97.2653 59.2159 97.3022 59.2814 97.3535C59.3305 97.3898 59.3771 97.307 59.328 97.2707C59.2519 97.2131 59.1645 97.1722 59.0715 97.1505C58.9786 97.1289 58.8821 97.127 58.7884 97.1451C58.6947 97.1632 58.6058 97.2007 58.5276 97.2554C58.4493 97.31 58.3834 97.3805 58.3342 97.4622C58.298 97.5114 58.3808 97.558 58.4144 97.5088Z" fill="white"/>
<path d="M58.9542 97.6691C58.9974 97.5983 59.0552 97.5375 59.1237 97.4907C59.1922 97.4438 59.2698 97.412 59.3515 97.3974C59.4331 97.3827 59.517 97.3855 59.5975 97.4056C59.678 97.4256 59.7533 97.4625 59.8185 97.5138C59.8677 97.5501 59.9143 97.4672 59.8677 97.431C59.7914 97.3734 59.7038 97.3324 59.6107 97.3107C59.5175 97.2891 59.4209 97.2872 59.3269 97.3053C59.233 97.3233 59.1439 97.3609 59.0655 97.4155C58.987 97.4702 58.9209 97.5407 58.8713 97.6225C58.8377 97.6717 58.9179 97.7183 58.9542 97.6691Z" fill="white"/>
<path d="M67.4092 94.2678H70.5406C70.8124 90.2357 71.5758 76.8664 70.9728 70.2516C71.4102 61.0747 70.0075 48.8906 70.0075 48.8906H60.0957C60.0957 48.8906 60.8229 57.0453 64.0889 70.1118C64.0527 80.4817 66.5811 90.8387 67.4092 94.2678Z" fill="#8094D4"/>
<path opacity="0.2" d="M67.4092 94.2678H70.5406C70.8124 90.2357 71.5758 76.8664 70.9728 70.2516C71.4102 61.0747 70.0075 48.8906 70.0075 48.8906H60.0957C60.0957 48.8906 60.8229 57.0453 64.0889 70.1118C64.0527 80.4817 66.5811 90.8387 67.4092 94.2678Z" fill="white"/>
<path opacity="0.2" d="M63.5405 67.9223C65.3339 60.5958 63.7578 51.1006 63.7578 51.1006L62.2051 61.9545L63.5405 67.9223Z" fill="black"/>
<path d="M67.0361 94.1894L67.2665 95.3798L70.8585 95.3643L70.8611 94.1738L67.0361 94.1894Z" fill="#263238"/>
<path d="M54.7337 94.3842H57.8677C58.9831 90.2435 61.232 76.8923 61.584 70.2775C63.3593 61.098 64.2081 48.8906 64.2081 48.8906H54.2834C54.2834 48.8906 53.3595 57.1384 54.7182 70.2128C54.4542 81.6153 54.6612 90.8387 54.7337 94.3842Z" fill="#8094D4"/>
<path opacity="0.2" d="M54.7337 94.3842H57.8677C58.9831 90.2435 61.232 76.8923 61.584 70.2775C63.3593 61.098 64.2081 48.8906 64.2081 48.8906H54.2834C54.2834 48.8906 53.3595 57.1384 54.7182 70.2128C54.4542 81.6153 54.6612 90.8387 54.7337 94.3842Z" fill="white"/>
<path d="M54.4593 94.1875L54.4541 95.3676H58.0746L58.2636 94.1875H54.4593Z" fill="#263238"/>
<path d="M71.3045 50.3887C64.4206 53.0336 53.207 51.116 53.207 51.116C53.2821 49.2293 53.352 46.3101 53.3908 43.1295C53.3908 42.2755 53.4089 41.4034 53.4141 40.5261C53.4141 38.8439 53.4141 37.1462 53.4141 35.5443C53.4141 35.4149 53.4141 35.2855 53.4141 35.1586C53.4141 34.3823 53.3934 33.6059 53.3778 32.8916C53.3778 32.8036 53.3778 32.7156 53.3778 32.6328C53.3468 31.2172 53.295 29.9646 53.2303 28.9631C53.1035 27.0765 54.1309 25.3193 55.9968 25.0061C56.5636 24.9104 57.1769 24.825 57.8084 24.7473C57.9585 24.7292 58.1138 24.7163 58.2691 24.7007C60.0895 24.5219 61.9191 24.4553 63.7477 24.5015H64.0065H64.1463H64.3766C65.153 24.5325 65.9138 24.592 66.5841 24.68C68.1058 24.8767 69.4567 26.0775 69.4826 27.6148C69.5059 29.0226 69.6431 31.9962 69.8423 35.3502C69.92 36.6183 70.0054 37.9381 70.1011 39.2606C70.4479 44.4753 70.9163 49.483 71.3045 50.3887Z" fill="#263238"/>
<path opacity="0.2" d="M57.2491 30.3564C57.2491 30.3564 57.1016 37.6648 57.5881 38.5525C58.0747 39.4402 67.4767 42.1239 67.4767 42.1239C62.7692 41.4846 58.217 40.7678 55.8076 38.9743L57.2491 30.3564Z" fill="black"/>
<path opacity="0.2" d="M67.7874 44.2737C62.3087 45.5677 55.9009 43.9062 53.3906 43.1298C53.3906 42.2758 53.4087 41.4037 53.4139 40.5264C57.2725 43.3809 67.7874 44.2737 67.7874 44.2737Z" fill="black"/>
<path d="M63.1309 28.9785L62.207 39.2139L64.0548 42.9302L65.4963 38.8671L64.0031 28.9785H63.1309Z" fill="#8094D4"/>
<path d="M63.3518 26.7793L62.3555 28.257L63.5278 29.6105L64.6976 27.8662L63.3518 26.7793Z" fill="#8094D4"/>
<path d="M65.378 14.5147C64.8468 14.3195 64.281 14.2358 63.716 14.2687C63.151 14.3017 62.5988 14.4506 62.0939 14.7062C61.4314 15.0504 60.8569 15.5784 60.8724 16.3703C60.9034 18.2155 61.4184 21.3029 61.4184 21.3029L67.6502 18.4872C67.6502 18.4872 68.1031 16.9345 67.3733 15.9536C66.8748 15.2773 66.1771 14.7742 65.378 14.5147Z" fill="#263238"/>
<path d="M63.0511 14.359C63.0511 14.359 62.2075 13.8906 61.3638 14.7627C60.6573 15.49 60.9652 17.8683 60.9652 17.8683L63.0511 14.359Z" fill="#263238"/>
<path d="M62.4248 14.5532C62.4248 14.5532 62.6681 13.1453 65.2379 13.5671C67.8077 13.989 69.847 16.1111 68.9102 17.2213C67.9734 18.3316 65.2379 16.5096 65.2379 16.5096L62.4248 14.5532Z" fill="#263238"/>
<path d="M64.1402 23.5978C64.1411 23.6047 64.1411 23.6117 64.1402 23.6185L63.7494 24.6382C63.7038 24.8476 63.6769 25.0606 63.6692 25.2748C63.6652 25.4477 63.673 25.6206 63.6925 25.7924C63.8892 26.134 63.9202 26.8638 63.0999 26.7784C62.0647 26.6723 60.3049 25.0445 60.2842 24.5787C60.9182 23.2148 61.5212 21.5094 61.5782 20.1455L62.6133 21.5533L64.1402 23.5978Z" fill="#FFC3BD"/>
<path d="M63.3516 26.7796C63.5974 26.2362 63.5948 25.584 63.6802 24.9991C63.7029 24.7739 63.7615 24.5537 63.8536 24.347C63.8536 24.347 64.5627 24.1813 64.9794 24.5566C65.1294 25.6907 65.0268 26.844 64.6792 27.9339L63.3516 26.7796Z" fill="#263238"/>
<path d="M59.418 24.6078C59.418 24.6078 59.9925 23.5027 60.7792 23.3682C60.875 24.701 61.4184 25.7594 63.3516 26.7791L62.2078 28.4742C60.6136 27.1725 59.7233 25.8862 59.418 24.6078Z" fill="#263238"/>
<g opacity="0.2">
<path d="M64.1295 23.6224L63.7387 24.642C63.1202 24.2771 62.512 23.5654 62.4318 22.8563C62.3774 22.3387 62.6518 21.9065 62.8562 21.9014L64.1295 23.6224Z" fill="black"/>
</g>
<path d="M66.9947 21.701C66.9067 21.9235 66.8135 22.1409 66.7178 22.3557C65.8508 24.2449 63.4104 24.1673 62.0595 22.5524C61.9371 22.4069 61.8263 22.252 61.7282 22.0892C60.9078 20.7279 61.252 19.7859 61.635 17.6068C61.7187 17.0995 61.9306 16.6219 62.2506 16.2195C62.5706 15.817 62.9882 15.503 63.4637 15.3073C63.9392 15.1115 64.4568 15.0405 64.9674 15.101C65.4781 15.1615 65.9647 15.3515 66.3813 15.6529C68.1178 16.8822 67.859 19.4857 66.9947 21.701Z" fill="#FFC3BD"/>
<path d="M62.8936 18.4394C62.8936 18.4394 62.8807 20.2509 63.5924 20.5097C64.3041 20.7685 64.8346 20.1655 65.6162 20.9186C65.7732 20.8432 65.9477 20.8115 66.1213 20.827C66.2948 20.8425 66.461 20.9046 66.6022 21.0066C67.0732 21.3612 66.9955 21.5734 66.9955 21.5734C66.9955 21.5734 66.8144 24.2881 64.33 23.9724C61.8455 23.6567 61.5453 21.2214 61.7161 19.9274L62.2078 18.3203L62.8936 18.4394Z" fill="#263238"/>
<path d="M64.5083 20.9805C65.0138 21.154 65.5277 21.3017 66.0481 21.423C66.0041 21.5234 65.94 21.6137 65.8597 21.6883C65.7795 21.7629 65.6848 21.8203 65.5815 21.8569C65.4782 21.8936 65.3685 21.9086 65.2591 21.9012C65.1498 21.8938 65.0431 21.864 64.9457 21.8138C64.4462 21.599 64.5083 20.9805 64.5083 20.9805Z" fill="white"/>
<path d="M66.5653 15.4457C65.5948 14.6279 63.5089 14.2579 62.5488 15.1869C61.5887 16.116 61.5835 17.7904 61.5835 17.7904C61.5719 17.9712 61.6293 18.1497 61.7439 18.2899C61.7679 18.3149 61.7888 18.3427 61.8061 18.3727L62.8878 18.5487C62.9732 18.1036 63.1466 17.2935 63.4546 17.2547C64.0239 17.1771 63.6357 16.5508 63.76 16.1988C64.1559 15.055 67.264 15.8365 67.6212 17.586C67.6263 17.5937 67.5409 16.2661 66.5653 15.4457Z" fill="#263238"/>
<path d="M60.371 18.8121C60.4007 19.3677 60.648 19.8893 61.0594 20.264C61.6106 20.7531 62.2084 20.339 62.3249 19.6506C62.431 19.0321 62.2731 18.0306 61.5899 17.8028C60.9067 17.5751 60.3451 18.1315 60.371 18.8121Z" fill="#FFC3BD"/>
<path d="M64.8241 18.9405C64.7827 19.1088 64.8396 19.264 64.9483 19.2925C65.057 19.321 65.1786 19.2045 65.22 19.0337C65.2615 18.8629 65.2019 18.7102 65.0932 18.6843C64.9845 18.6584 64.8629 18.7723 64.8344 18.9431" fill="#263238"/>
<path d="M66.5887 19.3566C66.5473 19.5248 66.6043 19.68 66.713 19.7085C66.8217 19.737 66.9433 19.6205 66.9847 19.4497C67.0261 19.2789 66.9666 19.1262 66.8579 19.1003C66.7492 19.0745 66.6276 19.1883 66.5991 19.3591" fill="#263238"/>
<path d="M67.3426 18.8532C67.3277 18.8492 67.3141 18.8413 67.3032 18.8304C67.2923 18.8195 67.2845 18.8059 67.2805 18.791C67.2675 18.7305 67.2422 18.6733 67.2062 18.623C67.1701 18.5727 67.124 18.5303 67.0709 18.4986C66.959 18.444 66.8308 18.4329 66.7111 18.4676C66.6888 18.4742 66.6648 18.472 66.6441 18.4614C66.6234 18.4508 66.6076 18.4326 66.5999 18.4106C66.5939 18.3883 66.5964 18.3646 66.6069 18.344C66.6174 18.3235 66.6352 18.3075 66.6568 18.2993C66.8223 18.2533 66.9989 18.269 67.1537 18.3433C67.2273 18.3863 67.2914 18.4438 67.3421 18.5123C67.3929 18.5808 67.4291 18.6589 67.4487 18.7419C67.4551 18.7642 67.4525 18.7881 67.4413 18.8085C67.4302 18.8288 67.4114 18.844 67.3892 18.8506C67.3741 18.8553 67.3581 18.8562 67.3426 18.8532Z" fill="#263238"/>
<path d="M64.4639 18.1635C64.4497 18.1606 64.4364 18.1544 64.4251 18.1453C64.4074 18.1274 64.3975 18.1032 64.3975 18.0781C64.3975 18.0529 64.4074 18.0287 64.4251 18.0108C64.5464 17.8686 64.716 17.7764 64.9013 17.752C64.9937 17.747 65.0861 17.7609 65.1729 17.793C65.2597 17.825 65.339 17.8745 65.4059 17.9383C65.4236 17.9562 65.4335 17.9804 65.4335 18.0056C65.4335 18.0308 65.4236 18.055 65.4059 18.0729C65.3975 18.0819 65.3872 18.0891 65.3759 18.094C65.3645 18.0989 65.3523 18.1014 65.3399 18.1014C65.3276 18.1014 65.3153 18.0989 65.304 18.094C65.2926 18.0891 65.2824 18.0819 65.2739 18.0729C65.2258 18.0258 65.1687 17.9889 65.106 17.9644C65.0433 17.94 64.9763 17.9285 64.909 17.9305C64.7753 17.9482 64.6528 18.0146 64.5648 18.1169C64.5547 18.1339 64.5396 18.1475 64.5216 18.1558C64.5036 18.1641 64.4835 18.1668 64.4639 18.1635Z" fill="#263238"/>
<path d="M65.9853 18.9863C66.0373 19.4356 66.146 19.8765 66.3088 20.2984C66.5443 20.8367 65.6152 20.6349 65.6152 20.6349L65.9853 18.9863Z" fill="#ED847E"/>
<path d="M72.958 43.7947C72.6112 43.1943 71.3457 42.6457 71.3457 42.6457C71.0036 42.5891 70.6553 42.5795 70.3105 42.6172H70.3597C70.3597 42.6172 71.1878 42.141 70.9808 42.0272C70.7738 41.9133 70.2665 42.097 69.7619 42.2031C69.3697 42.3199 69.0046 42.5134 68.6879 42.7725C68.3178 42.9976 68.103 43.6938 68.3644 44.6151C68.3644 44.6151 69.4203 45.6192 70.176 45.759C70.9187 45.9401 72.4352 46.0333 72.7639 45.5701C73.473 44.597 72.1661 43.9138 72.1661 43.9138C72.1661 43.9138 73.2944 44.3951 72.958 43.7947Z" fill="#FFC3BD"/>
<path d="M68.2738 42.3291L67.9787 44.3554C65.8281 44.239 63.706 44.0449 61.571 43.7602C60.5022 43.6205 59.4359 43.4497 58.3568 43.2426C57.8159 43.1417 57.275 43.0252 56.7212 42.8881C56.1327 42.7529 55.5535 42.58 54.9873 42.3705C54.8294 42.3084 54.6638 42.2385 54.4826 42.1505C54.2627 42.0414 54.0539 41.9114 53.8589 41.7623C53.6971 41.6394 53.5495 41.4988 53.419 41.3431C53.3197 41.22 53.233 41.0874 53.1602 40.9471C53.1111 40.8533 53.0678 40.7565 53.0308 40.6573L52.9764 40.4865L52.9635 40.4295C52.9081 40.2057 52.8683 39.9783 52.8444 39.7489C52.772 39.0683 52.759 38.5274 52.7461 37.9632C52.7461 36.853 52.7461 35.779 52.7953 34.7024C52.8677 32.5518 53.023 30.4349 53.2404 28.2998L57.3656 28.6595C57.306 29.6947 57.2103 30.7532 57.143 31.7987L56.8997 34.9327C56.8221 35.9679 56.7367 37.0031 56.6927 38.0227C56.6746 38.3773 56.6591 38.7422 56.6565 39.0579C56.9722 39.2054 57.3526 39.3504 57.7331 39.4823C58.1989 39.6428 58.6828 39.7929 59.172 39.943C60.1502 40.2406 61.1569 40.5098 62.1662 40.7789C64.1796 41.2991 66.2345 41.8167 68.2738 42.3291Z" fill="#263238"/>
<path d="M86.4481 28.8286C85.0584 30.1407 83.6143 31.3725 82.1211 32.5604C81.3783 33.1608 80.6123 33.7328 79.823 34.3099C79.4219 34.5894 79.0181 34.8689 78.5601 35.151C78.4436 35.2208 78.3246 35.2907 78.1926 35.3632C78.0373 35.4518 77.8765 35.5305 77.7112 35.5987C77.5595 35.6601 77.4028 35.7086 77.2428 35.7436L77.1367 35.7617L76.997 35.7772C76.849 35.7932 76.6998 35.7932 76.5518 35.7772H76.4768L76.3707 35.7565C76.3023 35.7406 76.2349 35.7207 76.1688 35.697H76.1326L76.0601 35.6711C75.9721 35.6375 75.8557 35.5961 75.7884 35.565L75.5658 35.4667C75.0146 35.2079 74.585 34.9672 74.145 34.7162C73.7051 34.4651 73.291 34.2141 72.8821 33.9398C72.0643 33.4222 71.2621 32.9046 70.4805 32.343L70.3563 32.2576L69.6343 31.74C68.3636 30.8343 67.1291 29.9 65.918 28.9062L68.449 25.6299C69.9578 26.7065 71.451 27.8426 72.9287 28.9606C73.6715 29.5118 74.4038 30.0786 75.1414 30.6143C75.5115 30.8731 75.8738 31.1526 76.2335 31.4062C76.4923 31.5873 76.7511 31.7711 77.0099 31.9238C77.3386 31.7711 77.6879 31.5899 78.0451 31.4062C78.8551 30.9947 79.6677 30.5392 80.4907 30.0967C82.1314 29.2038 83.7903 28.2851 85.4777 27.4466L86.4481 28.8286Z" fill="#263238"/>
<path opacity="0.2" d="M70.3567 32.2337L69.6347 31.7161L69.4121 28.1836L70.3567 32.2337Z" fill="black"/>
<path d="M86.2839 28.8596C86.4288 28.849 86.5697 28.808 86.6977 28.7393C86.8257 28.6707 86.9377 28.5759 87.0267 28.4611C87.4563 27.7597 88.1343 27.6303 88.406 27.4802C88.6778 27.3301 88.3672 26.8695 87.6788 27.017C87.6788 27.017 87.9739 26.0568 88.212 25.8239C88.45 25.591 89.7026 25.0941 89.6793 24.9156C89.656 24.737 88.6855 25.0268 88.1265 25.283C87.5675 25.5393 86.4133 26.96 85.3781 27.4699C85.3704 27.4699 84.9615 28.5465 86.2839 28.8596Z" fill="#FFC3BD"/>
<path d="M37.0286 27.7402C37.2537 29.4457 37.4219 31.1589 37.572 32.8721C37.6522 33.7262 37.7118 34.5854 37.7842 35.4368L37.88 36.7152L37.9732 37.8539C37.9863 37.9869 38.014 38.1179 38.056 38.2447C38.1025 38.4155 38.1595 38.607 38.2216 38.796C38.3432 39.1764 38.4804 39.5723 38.6227 39.9631C38.897 40.7576 39.2024 41.5521 39.4923 42.357C40.0875 43.9589 40.6905 45.5764 41.2521 47.2068L39.4146 48.1178C38.4519 46.6582 37.5617 45.1701 36.7051 43.6458C36.2729 42.8875 35.8666 42.1137 35.4603 41.3166C35.2584 40.9207 35.0643 40.5169 34.8728 40.0977C34.777 39.8855 34.6813 39.6733 34.5881 39.4378C34.4712 39.1627 34.376 38.8789 34.3034 38.5889L34.2672 38.4336L34.2517 38.3379L34.218 38.1619L34.1585 37.8229L34.0498 37.1707L33.8428 35.8768C33.7186 35.0176 33.584 34.1635 33.4779 33.3069C33.2502 31.5937 33.0483 29.8831 32.9111 28.1621L37.0286 27.7402Z" fill="#8094D4"/>
<path d="M39.405 37.8008L44.4836 43.7958C44.5449 43.868 44.5749 43.9617 44.5671 44.0561C44.5593 44.1505 44.5143 44.2379 44.442 44.2991L35.9985 51.4521C35.9263 51.5133 35.8326 51.5433 35.7382 51.5355C35.6438 51.5277 35.5564 51.4827 35.4952 51.4105L30.4165 45.4155C30.3557 45.3438 30.3259 45.2508 30.3337 45.1571C30.3414 45.0634 30.3861 44.9766 30.4578 44.9158L38.9033 37.7611C38.975 37.7003 39.068 37.6706 39.1617 37.6783C39.2554 37.6861 39.3422 37.7307 39.403 37.8025L39.405 37.8008Z" fill="#263238"/>
<path opacity="0.2" d="M39.405 37.8008L44.4836 43.7958C44.5449 43.868 44.5749 43.9617 44.5671 44.0561C44.5593 44.1505 44.5143 44.2379 44.442 44.2991L35.9985 51.4521C35.9263 51.5133 35.8326 51.5433 35.7382 51.5355C35.6438 51.5277 35.5564 51.4827 35.4952 51.4105L30.4165 45.4155C30.3557 45.3438 30.3259 45.2508 30.3337 45.1571C30.3414 45.0634 30.3861 44.9766 30.4578 44.9158L38.9033 37.7611C38.975 37.7003 39.068 37.6706 39.1617 37.6783C39.2554 37.6861 39.3422 37.7307 39.403 37.8025L39.405 37.8008Z" fill="white"/>
<path d="M38.5628 44.6021C38.5633 44.8228 38.4984 45.0387 38.3761 45.2225C38.2539 45.4062 38.0798 45.5496 37.8761 45.6344C37.6723 45.7192 37.448 45.7417 37.2314 45.699C37.0149 45.6562 36.8159 45.5502 36.6596 45.3943C36.5034 45.2384 36.3969 45.0397 36.3537 44.8232C36.3104 44.6068 36.3323 44.3824 36.4167 44.1784C36.501 43.9745 36.644 43.8001 36.8275 43.6774C37.011 43.5547 37.2267 43.4893 37.4474 43.4893C37.7428 43.4893 38.0261 43.6064 38.2352 43.815C38.4443 44.0237 38.5622 44.3067 38.5628 44.6021Z" fill="#263238"/>
<path d="M31.8315 14.599C31.8315 14.599 29.8724 14.5757 29.3963 16.7858C28.902 19.0891 28.757 18.1833 27.7037 19.2806C26.6505 20.3779 27.8021 21.8685 25.9854 22.6915C25.9854 22.6915 27.4993 24.1615 30.4444 23.5844C33.3895 23.0072 32.978 25.1035 36.7797 24.5497C36.6134 24.2156 36.5469 23.8407 36.5882 23.4698C36.6295 23.099 36.7769 22.7479 37.0126 22.4586C37.8407 21.47 37.2248 20.748 37.2584 19.6973C37.2921 18.6465 37.5638 16.3614 36.1197 15.378C34.6757 14.3945 33.4024 14.8241 33.4024 14.8241C32.9029 14.6298 32.3655 14.5527 31.8315 14.599Z" fill="#263238"/>
<path d="M36.9482 93.665L37.6884 96.7188H39.2981L39.3706 93.665H36.9482Z" fill="#FF8B7B"/>
<path d="M43.9662 98.8818C43.8807 97.8854 43.4486 97.5878 42.9025 97.5567C42.3565 97.5257 40.3379 96.8502 40.3379 96.8502C40.3379 96.8502 39.9186 96.2162 39.5615 96.0894C39.2043 95.9626 38.8368 96.3352 38.8368 96.3352L37.8275 96.2136C37.8275 96.2136 37.5248 95.7581 37.31 96.1567C36.9891 96.7726 37.0279 98.4858 37.0512 98.8818H43.9662Z" fill="#8094D4"/>
<path d="M43.8369 98.619H42.5818L37.0953 98.5905C37.0254 98.5905 37.041 98.4844 37.1083 98.487H37.4809V98.4741C37.5598 98.3559 37.613 98.2226 37.6372 98.0826C37.6614 97.9427 37.656 97.7992 37.6214 97.6615C37.5868 97.5237 37.5237 97.3948 37.4362 97.2829C37.3487 97.171 37.2388 97.0787 37.1134 97.0119C37.0565 96.9808 37.1134 96.8876 37.1781 96.9213C37.3102 96.9932 37.4262 97.0912 37.5192 97.2094C37.6121 97.3276 37.68 97.4634 37.7188 97.6087C37.7575 97.754 37.7663 97.9056 37.7445 98.0544C37.7227 98.2032 37.6709 98.346 37.5922 98.4741H38.3686L43.8524 98.5025C43.9197 98.5155 43.9068 98.6216 43.8369 98.619Z" fill="black"/>
<path d="M40.0357 97.271C40.3203 96.9345 40.737 96.8414 41.0398 97.0924C41.089 97.1338 41.1562 97.0432 41.1071 97.0018C40.7577 96.712 40.2738 96.8388 39.9503 97.2166C39.9037 97.2735 39.9865 97.3253 40.0357 97.271Z" fill="white"/>
<path d="M40.6018 97.4572C40.8865 97.1208 41.3031 97.0276 41.6059 97.2786C41.6551 97.32 41.7224 97.2269 41.6732 97.188C41.3239 96.8982 40.8399 97.0224 40.5164 97.4028C40.4698 97.4598 40.5552 97.5115 40.6018 97.4572Z" fill="white"/>
<path d="M41.1865 97.6359C41.4737 97.2995 41.8904 97.2037 42.1932 97.4573C42.2423 97.4987 42.307 97.4056 42.2605 97.3668C41.9111 97.0769 41.4271 97.2011 41.1036 97.5816C41.0545 97.6359 41.1399 97.6903 41.1865 97.6359Z" fill="white"/>
<path d="M30.2941 53.6591C30.7683 57.7585 31.4812 61.8268 32.4291 65.8432C32.7742 67.3321 33.1581 68.9194 33.5808 70.605C32.3981 80.3823 37.0305 94.5047 37.0305 94.5047L39.5123 94.4504C39.5123 94.4504 39.8229 78.6639 39.5305 70.4032C39.0543 56.8656 37.4032 43.9595 37.4032 43.9595L30.646 43.9336C30.646 43.9336 29.4789 45.9781 30.2941 53.6591Z" fill="#263238"/>
<path opacity="0.2" d="M30.2939 53.6598C30.7682 57.7592 31.4811 61.8274 32.429 65.8438C33.8498 60.4273 31.2774 48.8721 31.2774 48.8721L30.2939 53.6598Z" fill="black"/>
<path d="M39.7978 95.0353L39.8754 93.9717H36.5654L36.7543 95.0353H39.7978Z" fill="#263238"/>
<path d="M26.6582 93.665L27.4009 96.7188H29.0081L29.0831 93.665H26.6582Z" fill="#FF8B7B"/>
<path d="M29.5693 95.0353L29.6469 93.9717H26.3369L26.5232 95.0353H29.5693Z" fill="#263238"/>
<path d="M33.679 98.8818C33.591 97.8854 33.1614 97.5878 32.6154 97.5567C32.0693 97.5257 30.0481 96.8502 30.0481 96.8502C30.0481 96.8502 29.6289 96.2162 29.2717 96.0894C28.9146 95.9626 28.5445 96.3352 28.5445 96.3352L27.5352 96.2136C27.5352 96.2136 27.2324 95.7581 27.0176 96.1567C26.6941 96.7726 26.733 98.4858 26.7588 98.8818H33.679Z" fill="#8094D4"/>
<path d="M33.5482 98.62H32.2956L26.8092 98.5916C26.7367 98.5916 26.7522 98.4855 26.8221 98.4881H27.1922V98.4751C27.2681 98.357 27.3188 98.2245 27.341 98.0859C27.3632 97.9473 27.3564 97.8056 27.3212 97.6697C27.2859 97.5338 27.2229 97.4066 27.1362 97.2963C27.0494 97.1859 26.9407 97.0947 26.8169 97.0285C26.76 96.9974 26.8169 96.9042 26.8842 96.9379C27.0163 97.0097 27.1324 97.1078 27.2253 97.226C27.3182 97.3443 27.386 97.4803 27.4245 97.6256C27.463 97.771 27.4714 97.9227 27.4493 98.0714C27.4272 98.2202 27.3749 98.3628 27.2957 98.4907H28.0721L33.5585 98.5191C33.6336 98.5165 33.618 98.6226 33.5482 98.62Z" fill="black"/>
<path d="M29.746 97.271C30.0307 96.9345 30.4474 96.8414 30.7527 97.0924C30.8019 97.1338 30.8666 97.0432 30.8174 97.0018C30.4707 96.712 29.9841 96.8388 29.6632 97.2166C29.614 97.2735 29.6994 97.3253 29.746 97.271Z" fill="white"/>
<path d="M30.3124 97.4572C30.5971 97.1208 31.0138 97.0276 31.3191 97.2786C31.3683 97.32 31.433 97.2269 31.3838 97.188C31.0371 96.8982 30.5505 97.0224 30.2296 97.4028C30.1805 97.4598 30.2659 97.5115 30.3124 97.4572Z" fill="white"/>
<path d="M30.8997 97.6359C31.1843 97.2995 31.601 97.2037 31.9038 97.4573C31.953 97.4987 32.0202 97.4056 31.9711 97.3668C31.6217 97.0769 31.1378 97.2011 30.8143 97.5816C30.7677 97.6359 30.8531 97.6903 30.8997 97.6359Z" fill="white"/>
<path d="M32.6215 44.4908C32.6215 44.4908 31.3689 63.1784 30.9445 70.6161C30.4735 79.102 29.4098 93.5661 29.2675 94.5133H26.7106C27.003 94.8005 23.4187 81.8168 24.8654 71.2476C23.5093 61.1365 21.8608 53.7349 23.9855 44.2139L32.6215 44.4908Z" fill="#263238"/>
<path d="M23.207 44.9405C28.5977 46.721 37.6555 46.1361 37.6555 44.9017C37.6555 41.426 36.4237 37.5157 36.7549 35.2512C39.304 33.4681 37.3113 31.8558 37.5313 29.2135C37.6077 28.2385 37.3165 27.2703 36.715 26.4992C36.1134 25.7281 35.2451 25.21 34.2808 25.0469C33.8228 24.9693 33.344 24.8916 32.8756 24.8321C32.7798 24.8166 32.6841 24.8062 32.5909 24.7959C31.3402 24.6534 30.0815 24.5938 28.8229 24.6173C28.3622 24.6173 27.886 24.6173 27.3866 24.6328C26.8871 24.6484 26.4057 24.6613 25.9451 24.6949C25.5397 24.7235 25.1449 24.837 24.7863 25.028C24.4277 25.219 24.1132 25.4833 23.8633 25.8037C23.6134 26.1242 23.4337 26.4935 23.3358 26.8879C23.2379 27.2823 23.224 27.6928 23.295 28.0929C23.7042 30.4125 23.9635 32.756 24.0714 35.1089C24.0921 35.5954 24.1102 36.0638 24.1154 36.5245C24.1485 38.1355 24.075 39.747 23.8954 41.3484C23.8954 41.3769 23.8954 41.4079 23.8954 41.4364C23.8178 42.073 23.7238 42.6605 23.6133 43.1988C23.5797 43.3696 23.5435 43.53 23.5046 43.6879C23.427 44.0218 23.2976 44.6092 23.207 44.9405Z" fill="#8094D4"/>
<path opacity="0.2" d="M37.6549 44.9017C37.6549 46.1361 28.5971 46.7132 23.209 44.9405C23.297 44.6092 23.4264 44.0218 23.504 43.6879C23.5428 43.5301 23.5791 43.3696 23.6127 43.1988C23.7231 42.6605 23.8172 42.073 23.8948 41.4364C23.8948 41.4079 23.8948 41.3769 23.8948 41.3484C24.0755 39.7471 24.1516 38.1357 24.1225 36.5245C24.1225 36.0638 24.1018 35.5954 24.0785 35.1089C24.0475 34.3972 24.0009 33.6648 23.931 32.9091C23.8896 32.4226 23.8404 31.9257 23.7809 31.4236C23.6567 30.347 23.4962 29.2342 23.2944 28.0929C23.2234 27.6928 23.2372 27.2823 23.3351 26.8879C23.4331 26.4935 23.6128 26.1242 23.8627 25.8037C24.1126 25.4833 24.427 25.219 24.7857 25.028C25.1443 24.837 25.5391 24.7235 25.9444 24.6949C26.4051 24.6613 26.889 24.6406 27.3859 24.6328C27.8828 24.6251 28.3616 24.6173 28.8222 24.6173C30.0808 24.5938 31.3396 24.6534 32.5903 24.7959C32.686 24.7959 32.7792 24.8166 32.875 24.8321C33.3434 24.8916 33.8221 24.9693 34.2828 25.0469C35.2461 25.21 36.1136 25.7273 36.7151 26.4973C37.3165 27.2672 37.6083 28.2342 37.5333 29.2083C37.3133 31.8506 39.3034 33.4629 36.7569 35.246C36.4256 37.5157 37.6549 41.426 37.6549 44.9017Z" fill="white"/>
<path opacity="0.2" d="M26.6222 28.8584L23.9333 32.9085C23.8919 32.422 23.8427 31.9251 23.7832 31.4231L26.6222 28.8584Z" fill="black"/>
<path d="M32.877 29.2398C32.877 29.2858 32.8952 29.3299 32.9277 29.3624C32.9603 29.3949 33.0044 29.4132 33.0503 29.4132C33.0963 29.4132 33.1404 29.3949 33.173 29.3624C33.2055 29.3299 33.2237 29.2858 33.2237 29.2398C33.2237 29.1938 33.2055 29.1497 33.173 29.1172C33.1404 29.0847 33.0963 29.0664 33.0503 29.0664C33.0044 29.0664 32.9603 29.0847 32.9277 29.1172C32.8952 29.1497 32.877 29.1938 32.877 29.2398Z" fill="#8094D4"/>
<path d="M33.1568 30.9679C33.2526 30.9679 33.3302 30.8902 33.3302 30.7945C33.3302 30.6987 33.2526 30.6211 33.1568 30.6211C33.061 30.6211 32.9834 30.6987 32.9834 30.7945C32.9834 30.8902 33.061 30.9679 33.1568 30.9679Z" fill="#8094D4"/>
<path d="M33.1568 32.548C33.2526 32.548 33.3302 32.4703 33.3302 32.3746C33.3302 32.2788 33.2526 32.2012 33.1568 32.2012C33.061 32.2012 32.9834 32.2788 32.9834 32.3746C32.9834 32.4703 33.061 32.548 33.1568 32.548Z" fill="#8094D4"/>
<path d="M28.8242 24.6172C30.1001 26.861 33.1021 28.2041 33.1021 28.2041C33.5084 27.1974 33.3816 25.5877 32.8769 24.8398C32.7812 24.8243 32.6854 24.8139 32.5923 24.8036C31.3417 24.6585 30.083 24.5963 28.8242 24.6172Z" fill="#FF8B7B"/>
<path d="M32.9214 25.4996C32.9336 25.5351 32.9501 25.569 32.9706 25.6005C33.4028 26.2863 32.9318 26.91 32.1942 26.8582C32.1228 26.8532 32.0519 26.8428 31.982 26.8272C31.7125 26.7731 31.4665 26.6365 31.2781 26.4364C30.7037 25.8199 30.0825 25.2488 29.4199 24.7284C30.5431 24.1254 30.9546 21.9877 31.0581 20.6523L32.7998 22.8728L33.1259 23.3568C32.9664 23.6263 32.8396 23.9139 32.748 24.2134C32.6705 24.4258 32.6458 24.6538 32.676 24.8779C32.7062 25.1019 32.7904 25.3153 32.9214 25.4996Z" fill="#FF8B7B"/>
<path d="M29.57 24.616C29.57 24.616 28.5348 24.3572 27.7041 24.616L29.3966 27.5249C30.2895 26.8753 31.3091 27.7189 33.1026 28.2029C31.6187 27.3535 30.3967 26.1127 29.57 24.616Z" fill="#8094D4"/>
<path d="M29.57 24.616C29.57 24.616 28.5348 24.3572 27.7041 24.616L29.3966 27.5249C30.2895 26.8753 31.3091 27.7189 33.1026 28.2029C31.6187 27.3535 30.3967 26.1127 29.57 24.616Z" fill="#8094D4"/>
<path d="M32.6621 24.749C32.6621 24.749 33.6973 24.5601 34.2951 25.0466C34.5125 25.7973 34.6751 26.5627 34.7816 27.3369C34.7816 27.3369 33.7853 26.8401 33.115 28.2039C33.1021 28.2039 33.4385 26.0326 32.6621 24.749Z" fill="#8094D4"/>
<path d="M32.6621 24.749C32.6621 24.749 33.6973 24.5601 34.2951 25.0466C34.5125 25.7973 34.6751 26.5627 34.7816 27.3369C34.7816 27.3369 33.7853 26.8401 33.115 28.2039C33.1021 28.2039 33.4385 26.0326 32.6621 24.749Z" fill="#8094D4"/>
<g opacity="0.2">
<path d="M32.7242 24.2107C32.8158 23.9112 32.9426 23.6236 33.1021 23.3541L32.776 22.8701L31.6787 22.896C31.8724 23.4377 32.2401 23.9 32.7242 24.2107Z" fill="black"/>
</g>
<path d="M30.7141 18.2714C30.5407 20.466 30.4216 21.3769 31.3404 22.6579C32.7249 24.5653 35.4086 24.2884 36.2212 22.1895C36.9536 20.3003 37.1167 17.0292 35.1498 15.8698C33.183 14.7103 30.8901 16.0768 30.7141 18.2714Z" fill="#FF8B7B"/>
<path d="M31.1977 19.7078C30.0978 19.4154 30.53 18.2793 30.53 18.2793L32.15 18.5381C32.15 18.5381 32.2975 19.9977 31.1977 19.7078Z" fill="#263238"/>
<path d="M35.6387 16.0742C35.6387 16.0742 35.6102 17.288 34.1221 17.3527C32.6341 17.4174 32.7635 19.6171 31.0968 19.2677C29.4302 18.9184 30.2557 16.8506 30.9674 16.2994C31.6791 15.7481 33.4389 14.0996 35.6387 16.0742Z" fill="#263238"/>
<path d="M35.3069 21.6539C35.3069 21.6539 34.2381 21.1699 34.013 20.7041C34.013 20.7041 33.8577 21.5374 34.4167 21.8428C34.5619 21.9279 34.7337 21.9557 34.8984 21.9208C35.0631 21.8858 35.2088 21.7906 35.3069 21.6539Z" fill="white"/>
<path d="M34.3237 19.2491C34.3004 19.4277 34.3729 19.583 34.4893 19.5985C34.6058 19.614 34.7196 19.4846 34.7481 19.3086C34.7766 19.1327 34.7015 18.9748 34.5851 18.9593C34.4686 18.9437 34.3547 19.0731 34.3263 19.2491" fill="#263238"/>
<path d="M36.1252 19.5421C36.0994 19.7207 36.1744 19.8759 36.2883 19.8941C36.4021 19.9122 36.5186 19.7776 36.5471 19.6016C36.5755 19.4256 36.4979 19.2678 36.3814 19.2522C36.265 19.2367 36.1511 19.3661 36.1226 19.5421" fill="#263238"/>
<path d="M36.3271 19.2532L36.7697 19.1885C36.7697 19.1885 36.5109 19.4913 36.3271 19.2532Z" fill="#263238"/>
<path d="M35.4646 19.5049C35.4646 19.5049 35.7026 20.0225 35.9821 20.4702C36.0055 20.504 36.0205 20.543 36.0258 20.5838C36.0311 20.6246 36.0266 20.666 36.0127 20.7047C35.9988 20.7434 35.9758 20.7783 35.9458 20.8063C35.9157 20.8344 35.8794 20.8549 35.8398 20.8661C35.6522 20.9249 35.4586 20.9622 35.2627 20.9774L35.4646 19.5049Z" fill="#FF5652"/>
<path d="M29.7309 19.6689C29.7852 19.8616 29.88 20.0405 30.009 20.1935C30.138 20.3466 30.2982 20.4704 30.4789 20.5566C30.9447 20.761 31.2552 20.2641 31.1983 19.7077C31.144 19.2056 30.8386 18.494 30.3391 18.5328C29.8396 18.5716 29.5627 19.1616 29.7309 19.6689Z" fill="#FF8B7B"/>
<path d="M33.8399 18.5411C33.8539 18.5416 33.8678 18.5391 33.8808 18.5337C33.8937 18.5284 33.9054 18.5203 33.9149 18.5101C34.0032 18.4116 34.1133 18.3352 34.2365 18.2871C34.3597 18.239 34.4924 18.2205 34.624 18.2332C34.6496 18.2341 34.6747 18.2257 34.6946 18.2095C34.7144 18.1934 34.7278 18.1706 34.7322 18.1454C34.7367 18.1202 34.7318 18.0942 34.7186 18.0723C34.7053 18.0504 34.6846 18.034 34.6603 18.0261C34.4943 18.0059 34.326 18.0262 34.1696 18.0853C34.0132 18.1443 33.8734 18.2403 33.7622 18.3652C33.7431 18.3849 33.7324 18.4114 33.7324 18.4389C33.7324 18.4664 33.7431 18.4929 33.7622 18.5127C33.7718 18.5221 33.7831 18.5295 33.7955 18.5344C33.808 18.5393 33.8213 18.5416 33.8347 18.5411" fill="#263238"/>
<path d="M36.9508 18.8554C36.9775 18.8575 37.0041 18.8502 37.0259 18.8347C37.0474 18.8165 37.061 18.7908 37.0639 18.7628C37.0668 18.7348 37.0587 18.7067 37.0414 18.6846C36.9403 18.5521 36.8086 18.4459 36.6577 18.3752C36.5068 18.3044 36.341 18.2712 36.1744 18.2783C36.1606 18.2792 36.1471 18.283 36.1347 18.2893C36.1223 18.2956 36.1113 18.3043 36.1024 18.3149C36.0935 18.3255 36.0868 18.3379 36.0827 18.3511C36.0786 18.3644 36.0772 18.3783 36.0787 18.3921C36.08 18.4061 36.084 18.4197 36.0906 18.4321C36.0971 18.4444 36.1061 18.4554 36.1169 18.4643C36.1278 18.4732 36.1402 18.4799 36.1537 18.4839C36.1671 18.488 36.1812 18.4893 36.1951 18.4879C36.327 18.4841 36.4578 18.512 36.5767 18.5692C36.6956 18.6264 36.799 18.7112 36.8783 18.8166C36.887 18.8278 36.898 18.837 36.9104 18.8437C36.9229 18.8504 36.9367 18.8544 36.9508 18.8554Z" fill="#263238"/>
<path d="M34.5283 18.9622L34.9709 18.8975C34.9709 18.8975 34.7121 19.2003 34.5283 18.9622Z" fill="#263238"/>
<path d="M21.0737 38.3487C21.9769 39.7979 22.9836 41.255 23.9696 42.6913L22.4453 44.0629C21.083 42.848 19.8026 41.5443 18.6126 40.1603C17.9831 39.439 17.4037 38.6755 16.8786 37.8751C16.7415 37.6603 16.6069 37.4377 16.4775 37.1893C16.329 36.916 16.2026 36.6313 16.0997 36.3378C16.034 36.1456 15.9847 35.9483 15.9521 35.7478C15.9014 35.4489 15.9014 35.1435 15.9521 34.8446C15.9988 34.5772 16.0779 34.3165 16.1876 34.0682C16.2587 33.9046 16.3382 33.7448 16.4257 33.5894C16.6982 33.1226 17.0044 32.6763 17.3419 32.2541C17.6472 31.8633 17.9526 31.4984 18.2606 31.1438C18.8869 30.4451 19.5132 29.7748 20.1627 29.133C21.4567 27.839 22.7714 26.633 24.187 25.4736L26.8759 28.6232L22.9939 32.1065C22.3599 32.694 21.7233 33.2685 21.1306 33.8612C20.8304 34.151 20.538 34.4435 20.2688 34.7333C20.0302 34.9847 19.8055 35.2491 19.596 35.5252V35.5382C19.6141 35.5873 19.6322 35.6417 19.6529 35.696C19.7124 35.8487 19.7849 36.0169 19.8625 36.1903C20.2277 36.9307 20.632 37.6512 21.0737 38.3487Z" fill="#8094D4"/>
<path opacity="0.2" d="M21.0737 38.3487C21.9769 39.7979 22.9836 41.255 23.9696 42.6913L22.4453 44.0629C21.083 42.848 19.8026 41.5443 18.6126 40.1603C17.9831 39.439 17.4037 38.6755 16.8786 37.8751C16.7415 37.6603 16.6069 37.4377 16.4775 37.1893C16.329 36.916 16.2026 36.6313 16.0997 36.3378C16.034 36.1456 15.9847 35.9483 15.9521 35.7478C15.9014 35.4489 15.9014 35.1435 15.9521 34.8446C15.9988 34.5772 16.0779 34.3165 16.1876 34.0682C16.2587 33.9046 16.3382 33.7448 16.4257 33.5894C16.6982 33.1226 17.0044 32.6763 17.3419 32.2541C17.6472 31.8633 17.9526 31.4984 18.2606 31.1438C18.8869 30.4451 19.5132 29.7748 20.1627 29.133C21.4567 27.839 22.7714 26.633 24.187 25.4736L26.8759 28.6232L22.9939 32.1065C22.3599 32.694 21.7233 33.2685 21.1306 33.8612C20.8304 34.151 20.538 34.4435 20.2688 34.7333C20.0302 34.9847 19.8055 35.2491 19.596 35.5252V35.5382C19.6141 35.5873 19.6322 35.6417 19.6529 35.696C19.7124 35.8487 19.7849 36.0169 19.8625 36.1903C20.2277 36.9307 20.632 37.6512 21.0737 38.3487Z" fill="white"/>
<path d="M23.8635 42.0488C23.8635 42.0488 25.5819 42.6855 25.8459 43.0219C26.1098 43.3583 24.4251 45.2579 23.7755 45.5219C23.1259 45.7858 23.4598 45.0043 23.4598 45.0043C23.4598 45.0043 22.6135 45.2035 22.2176 44.5591C21.8216 43.9147 22.2874 42.1472 23.8635 42.0488Z" fill="#FF8B7B"/>
<path d="M42.1682 46.9728C42.1682 46.9728 42.326 46.9366 42.6262 46.5251C42.8116 46.2487 42.9107 45.9236 42.9109 45.5908L41.824 46.5121C41.824 46.5121 40.8587 46.1421 40.2712 46.5794C39.0704 47.4619 39.4094 48.4557 39.5492 48.7429C39.6889 49.0302 40.6801 48.8542 41.3607 48.2823C41.7684 47.9481 42.0526 47.4871 42.1682 46.9728Z" fill="#FF8B7B"/>
</svg>
