<svg width="25" height="25" viewBox="0 0 25 25" fill="none" xmlns="http://www.w3.org/2000/svg">
<path d="M20 2H5C4.58516 2 4.25 2.33516 4.25 2.75V22.25C4.25 22.6648 4.58516 23 5 23H20C20.4148 23 20.75 22.6648 20.75 22.25V2.75C20.75 2.33516 20.4148 2 20 2ZM5.9375 3.6875H19.0625V8.5625H5.9375V3.6875ZM19.0625 14.9375H5.9375V10.0625H19.0625V14.9375ZM19.0625 21.3125H5.9375V16.4375H19.0625V21.3125ZM7.625 6.125C7.625 6.37364 7.72377 6.6121 7.89959 6.78791C8.0754 6.96373 8.31386 7.0625 8.5625 7.0625C8.81114 7.0625 9.0496 6.96373 9.22541 6.78791C9.40123 6.6121 9.5 6.37364 9.5 6.125C9.5 5.87636 9.40123 5.6379 9.22541 5.46209C9.0496 5.28627 8.81114 5.1875 8.5625 5.1875C8.31386 5.1875 8.0754 5.28627 7.89959 5.46209C7.72377 5.6379 7.625 5.87636 7.625 6.125ZM7.625 12.5C7.625 12.7486 7.72377 12.9871 7.89959 13.1629C8.0754 13.3387 8.31386 13.4375 8.5625 13.4375C8.81114 13.4375 9.0496 13.3387 9.22541 13.1629C9.40123 12.9871 9.5 12.7486 9.5 12.5C9.5 12.2514 9.40123 12.0129 9.22541 11.8371C9.0496 11.6613 8.81114 11.5625 8.5625 11.5625C8.31386 11.5625 8.0754 11.6613 7.89959 11.8371C7.72377 12.0129 7.625 12.2514 7.625 12.5ZM7.625 18.875C7.625 19.1236 7.72377 19.3621 7.89959 19.5379C8.0754 19.7137 8.31386 19.8125 8.5625 19.8125C8.81114 19.8125 9.0496 19.7137 9.22541 19.5379C9.40123 19.3621 9.5 19.1236 9.5 18.875C9.5 18.6264 9.40123 18.3879 9.22541 18.2121C9.0496 18.0363 8.81114 17.9375 8.5625 17.9375C8.31386 17.9375 8.0754 18.0363 7.89959 18.2121C7.72377 18.3879 7.625 18.6264 7.625 18.875Z" fill="#FAFAFA"/>
</svg>
