<svg width="328" height="272" viewBox="0 0 328 272" fill="none" xmlns="http://www.w3.org/2000/svg">
<g clip-path="url(#clip0_2695_11053)">
<path d="M196.075 52.9872H163.09C162.368 52.9894 161.655 52.8269 161.005 52.5119C160.355 52.197 159.786 51.738 159.34 51.1698C158.886 50.5963 158.569 49.9268 158.413 49.2123C158.257 48.4978 158.266 47.7571 158.44 47.0467C161.48 34.3132 161.48 21.0429 158.44 8.30953C158.266 7.59907 158.257 6.85844 158.413 6.14398C158.569 5.42953 158.886 4.76008 159.34 4.18656C159.786 3.61837 160.355 3.15935 161.005 2.84442C161.655 2.52948 162.368 2.36694 163.09 2.36916H196.075C197.214 2.37244 198.315 2.77985 199.181 3.51885C200.048 4.25784 200.624 5.28043 200.807 6.40448C202.978 20.5039 202.978 34.8525 200.807 48.9519C200.624 50.076 200.048 51.0986 199.181 51.8375C198.315 52.5765 197.214 52.984 196.075 52.9872Z" fill="#E6E6E6"/>
<path d="M163.091 4.85158C162.744 4.85041 162.401 4.92836 162.089 5.07949C161.777 5.23062 161.504 5.45095 161.289 5.72372C161.069 6.00319 160.915 6.32928 160.839 6.67718C160.764 7.02507 160.769 7.38562 160.853 7.73137C163.985 20.8453 163.985 34.5121 160.854 47.626C160.769 47.9717 160.764 48.3322 160.839 48.68C160.915 49.0278 161.069 49.3539 161.289 49.6333C161.503 49.9061 161.777 50.1267 162.089 50.2779C162.401 50.429 162.744 50.507 163.091 50.5058H196.076C196.623 50.506 197.152 50.3121 197.569 49.9585C197.986 49.605 198.265 49.1148 198.354 48.5753C200.487 34.7258 200.487 20.6316 198.354 6.78207C198.265 6.24256 197.986 5.75239 197.569 5.39886C197.152 5.04533 196.623 4.85138 196.076 4.85157L163.091 4.85158Z" fill="white"/>
<path d="M188.877 16.785H171.568C170.91 16.7843 170.279 16.5226 169.814 16.0573C169.348 15.5921 169.087 14.9612 169.086 14.3032V13.3334C169.087 12.6754 169.348 12.0445 169.814 11.5793C170.279 11.114 170.91 10.8523 171.568 10.8516H188.877C189.535 10.8523 190.166 11.114 190.631 11.5793C191.096 12.0445 191.358 12.6754 191.359 13.3334V14.3032C191.358 14.9612 191.096 15.5921 190.631 16.0573C190.166 16.5226 189.535 16.7843 188.877 16.785Z" fill="#E6E6E6"/>
<path d="M188.877 29.0389H171.568C170.91 29.0382 170.279 28.7765 169.814 28.3112C169.348 27.846 169.087 27.2151 169.086 26.5571V25.5873C169.087 24.9293 169.348 24.2984 169.814 23.8332C170.279 23.3679 170.91 23.1062 171.568 23.1055H188.877C189.535 23.1062 190.166 23.3679 190.631 23.8332C191.096 24.2984 191.358 24.9293 191.359 25.5873V26.5571C191.358 27.2151 191.096 27.846 190.631 28.3112C190.166 28.7765 189.535 29.0382 188.877 29.0389Z" fill="#E6E6E6"/>
<path d="M188.877 41.2948H171.568C170.91 41.2941 170.279 41.0324 169.814 40.5671C169.348 40.1018 169.087 39.471 169.086 38.813V37.8431C169.087 37.1851 169.348 36.5543 169.814 36.089C170.279 35.6237 170.91 35.362 171.568 35.3613H188.877C189.535 35.362 190.166 35.6237 190.631 36.089C191.096 36.5543 191.358 37.1851 191.359 37.8431V38.813C191.358 39.471 191.096 40.1018 190.631 40.5671C190.166 41.0324 189.535 41.2941 188.877 41.2948Z" fill="#E6E6E6"/>
<path d="M258.123 84.4247H225.138C224.416 84.4269 223.703 84.2644 223.053 83.9494C222.403 83.6345 221.834 83.1755 221.388 82.6073C220.934 82.0338 220.617 81.3643 220.461 80.6498C220.305 79.9353 220.314 79.1946 220.488 78.4842C223.528 65.7507 223.528 52.4804 220.488 39.747C220.314 39.0366 220.305 38.2959 220.461 37.5815C220.617 36.867 220.934 36.1976 221.388 35.6241C221.834 35.0559 222.403 34.5968 223.053 34.2819C223.703 33.967 224.416 33.8044 225.138 33.8067H258.123C259.262 33.8099 260.363 34.2174 261.229 34.9563C262.096 35.6953 262.672 36.7179 262.855 37.842C265.026 51.9414 265.026 66.29 262.855 80.3894C262.672 81.5135 262.096 82.5361 261.229 83.275C260.363 84.014 259.262 84.4215 258.123 84.4247Z" fill="#E6E6E6"/>
<path d="M225.137 36.2891C224.791 36.2879 224.448 36.3659 224.136 36.517C223.824 36.6681 223.55 36.8884 223.336 37.1612C223.116 37.4407 222.962 37.7668 222.886 38.1147C222.811 38.4626 222.816 38.8231 222.9 39.1689C226.031 52.2828 226.031 65.9496 222.901 79.0635C222.816 79.4092 222.811 79.7697 222.886 80.1175C222.962 80.4653 223.116 80.7914 223.336 81.0708C223.55 81.3436 223.824 81.5642 224.136 81.7154C224.448 81.8665 224.791 81.9445 225.137 81.9433H258.123C258.669 81.9435 259.199 81.7496 259.616 81.396C260.033 81.0425 260.312 80.5523 260.401 80.0128C262.534 66.1633 262.534 52.0691 260.401 38.2196C260.312 37.6801 260.033 37.1899 259.616 36.8364C259.199 36.4828 258.669 36.2889 258.123 36.2891L225.137 36.2891Z" fill="white"/>
<path d="M192.353 120.206H159.367C158.614 120.208 157.87 120.038 157.192 119.71C156.514 119.381 155.92 118.902 155.455 118.309C154.982 117.711 154.651 117.013 154.489 116.268C154.326 115.523 154.335 114.751 154.516 114.01C157.549 101.308 157.548 88.071 154.516 75.3693C154.335 74.6285 154.326 73.8562 154.489 73.1111C154.651 72.3661 154.982 71.6681 155.455 71.07C155.92 70.4773 156.514 69.9984 157.192 69.6698C157.87 69.3412 158.614 69.1716 159.367 69.1739H192.353C193.541 69.1774 194.689 69.6026 195.593 70.3737C196.497 71.1448 197.098 72.2117 197.289 73.3845C199.463 87.5048 199.463 101.875 197.289 115.995C197.098 117.168 196.497 118.235 195.593 119.006C194.689 119.777 193.541 120.202 192.353 120.206Z" fill="#F2F2F2"/>
<path d="M250.925 54.4276H233.616C232.958 54.4269 232.327 54.1652 231.861 53.6999C231.396 53.2346 231.135 52.6038 231.134 51.9458V50.9759C231.135 50.3179 231.396 49.6871 231.861 49.2218C232.327 48.7566 232.958 48.4949 233.616 48.4941H250.925C251.583 48.4949 252.214 48.7566 252.679 49.2218C253.144 49.6871 253.406 50.3179 253.407 50.9759V51.9458C253.406 52.6038 253.144 53.2346 252.679 53.6999C252.214 54.1652 251.583 54.4269 250.925 54.4276Z" fill="#E6E6E6"/>
<path d="M250.925 66.6815H233.616C232.958 66.6808 232.327 66.4191 231.861 65.9538C231.396 65.4885 231.135 64.8577 231.134 64.1997V63.2298C231.135 62.5719 231.396 61.941 231.861 61.4757C232.327 61.0105 232.958 60.7488 233.616 60.748H250.925C251.583 60.7488 252.214 61.0105 252.679 61.4757C253.144 61.941 253.406 62.5719 253.407 63.2298V64.1997C253.406 64.8577 253.144 65.4885 252.679 65.9538C252.214 66.4191 251.583 66.6808 250.925 66.6815Z" fill="#E6E6E6"/>
<path d="M175.951 104.034C181.206 104.034 185.465 99.7742 185.465 94.5198C185.465 89.2654 181.206 85.0059 175.951 85.0059C170.697 85.0059 166.438 89.2654 166.438 94.5198C166.438 99.7742 170.697 104.034 175.951 104.034Z" fill="white"/>
<path d="M180.502 93.2787H177.193V89.9695C177.193 89.6403 177.062 89.3247 176.83 89.092C176.597 88.8593 176.281 88.7285 175.952 88.7285C175.623 88.7285 175.307 88.8593 175.075 89.092C174.842 89.3247 174.711 89.6403 174.711 89.9695V93.2787H171.402C171.073 93.2787 170.757 93.4094 170.525 93.6421C170.292 93.8749 170.161 94.1905 170.161 94.5196C170.161 94.8487 170.292 95.1644 170.525 95.3971C170.757 95.6298 171.073 95.7606 171.402 95.7606H174.711V99.0698C174.711 99.3989 174.842 99.7145 175.075 99.9473C175.307 100.18 175.623 100.311 175.952 100.311C176.281 100.311 176.597 100.18 176.83 99.9473C177.062 99.7145 177.193 99.3989 177.193 99.0698V95.7606H180.502C180.832 95.7606 181.147 95.6298 181.38 95.3971C181.613 95.1644 181.743 94.8487 181.743 94.5196C181.743 94.1905 181.613 93.8749 181.38 93.6421C181.147 93.4094 180.832 93.2787 180.502 93.2787Z" fill="#E6E6E6"/>
<path d="M187.948 7.03206H170.574C170.081 7.0315 169.608 6.83521 169.259 6.48624C168.91 6.13728 168.713 5.66414 168.713 5.17063V1.86143C168.713 1.36792 168.91 0.894778 169.259 0.545813C169.608 0.196849 170.081 0.000556177 170.574 0H187.948C188.441 0.000556177 188.914 0.196849 189.263 0.545813C189.612 0.894778 189.809 1.36792 189.809 1.86143V5.17063C189.809 5.66414 189.612 6.13728 189.263 6.48624C188.914 6.83521 188.441 7.0315 187.948 7.03206Z" fill="#CCCCCC"/>
<path d="M250.823 38.8836H233.449C232.956 38.8831 232.483 38.6868 232.134 38.3378C231.785 37.9888 231.588 37.5157 231.588 37.0222V33.713C231.588 33.2195 231.785 32.7463 232.134 32.3974C232.483 32.0484 232.956 31.8521 233.449 31.8516H250.823C251.316 31.8521 251.789 32.0484 252.138 32.3974C252.487 32.7463 252.684 33.2195 252.684 33.713V37.0222C252.684 37.5157 252.487 37.9888 252.138 38.3378C251.789 38.6868 251.316 38.8831 250.823 38.8836Z" fill="#CCCCCC"/>
<path d="M100.165 194.856H105.236L106.822 175.295H100.164L100.165 194.856Z" fill="#FFB8B8"/>
<path d="M98.8711 193.2L108.858 193.199H108.859C109.694 193.199 110.522 193.364 111.294 193.684C112.066 194.003 112.768 194.472 113.359 195.063C113.95 195.654 114.419 196.356 114.739 197.128C115.059 197.9 115.223 198.728 115.223 199.564V199.771L98.8714 199.771L98.8711 193.2Z" fill="#2F2E41"/>
<path d="M72.8641 194.856H77.9355L80.3483 175.295H72.8633L72.8641 194.856Z" fill="#FFB8B8"/>
<path d="M71.5703 193.2L81.5574 193.199H81.5578C82.3936 193.199 83.2213 193.364 83.9935 193.684C84.7657 194.003 85.4673 194.472 86.0583 195.063C86.6493 195.654 87.1181 196.356 87.438 197.128C87.7578 197.9 87.9225 198.728 87.9224 199.564V199.771L71.5706 199.771L71.5703 193.2Z" fill="#2F2E41"/>
<path d="M73.7642 188.677C73.2469 188.676 72.7485 188.482 72.3681 188.131C72.1639 187.945 71.9995 187.719 71.8846 187.468C71.7698 187.216 71.7069 186.944 71.6998 186.668L69.666 113.777L98.5434 120.996L107.453 147.726C108.602 151.164 109.1 154.787 108.92 158.408L107.814 184.317C107.788 184.848 107.56 185.349 107.175 185.716C106.79 186.082 106.279 186.286 105.748 186.286H100.904C100.404 186.284 99.9218 186.102 99.5453 185.773C99.1689 185.444 98.9236 184.99 98.8546 184.495L95.3928 155.895C95.0903 153.663 94.3098 151.524 93.1046 149.622L86.292 138.836C86.2464 138.763 86.1797 138.707 86.101 138.675C86.0223 138.642 85.9354 138.634 85.8522 138.653C85.769 138.671 85.6936 138.715 85.6362 138.778C85.5789 138.841 85.5424 138.921 85.5318 139.005L80.1856 186.612C80.1282 187.094 79.9023 187.542 79.5476 187.874C79.193 188.207 78.7323 188.404 78.2468 188.43L73.8819 188.673C73.8427 188.675 73.8035 188.677 73.7642 188.677Z" fill="#2F2E41"/>
<path d="M93.7378 66.585C99.3488 66.585 103.897 62.0363 103.897 56.4253C103.897 50.8143 99.3488 46.2656 93.7378 46.2656C88.1268 46.2656 83.5781 50.8143 83.5781 56.4253C83.5781 62.0363 88.1268 66.585 93.7378 66.585Z" fill="#FFB8B8"/>
<path d="M98.4052 123.96C98.2304 123.959 98.0562 123.937 97.8869 123.894L69.2354 116.548C68.7231 116.416 68.2806 116.094 67.9988 115.646C67.717 115.199 67.6173 114.661 67.7202 114.142L74.3002 78.6959C74.7102 76.647 75.6113 74.7281 76.9262 73.1042C78.2411 71.4802 79.9304 70.1996 81.8492 69.3724C83.7189 68.5449 85.7635 68.1904 87.8026 68.3401C89.8417 68.4898 91.8126 69.1391 93.5413 70.2308C93.9425 70.4811 94.3465 70.7539 94.742 71.0419C96.3341 72.2164 97.6324 73.7437 98.5352 75.5042C99.438 77.2646 99.9206 79.2102 99.9452 81.1885L100.468 121.862C100.472 122.136 100.421 122.407 100.319 122.661C100.217 122.915 100.066 123.146 99.8741 123.341C99.6822 123.536 99.4536 123.691 99.2015 123.797C98.9494 123.904 98.6787 123.959 98.4052 123.96Z" fill="#8094D4"/>
<path d="M72.183 124.376C71.8412 123.873 71.6139 123.301 71.517 122.701C71.4201 122.1 71.456 121.486 71.6222 120.901C71.7884 120.316 72.0808 119.775 72.4789 119.315C72.877 118.855 73.371 118.489 73.9262 118.24L72.6518 103.514L79.405 107.174L79.5799 120.597C79.9349 121.558 79.9253 122.615 79.553 123.569C79.1807 124.522 78.4714 125.306 77.5597 125.772C76.6479 126.238 75.597 126.353 74.6061 126.096C73.6151 125.838 72.753 125.226 72.183 124.376Z" fill="#FFB8B8"/>
<path d="M74.5954 116.293C74.4049 116.292 74.2151 116.268 74.0305 116.221C73.6334 116.12 73.2711 115.913 72.9819 115.623C72.6927 115.333 72.4873 114.97 72.3875 114.572L69.0687 101.383C67.9089 96.7772 68.4618 91.9064 70.6245 87.6773L77.5775 74.0757C78.017 72.4472 79.079 71.0567 80.5344 70.204C81.9898 69.3514 83.722 69.105 85.3575 69.5178C86.1727 69.7237 86.9388 70.0893 87.6116 70.5935C88.2844 71.0977 88.8504 71.7304 89.2768 72.455C89.712 73.19 89.9966 74.0042 90.114 74.8502C90.2315 75.6962 90.1795 76.5571 89.961 77.3829L80.0634 99.5156L80.1809 112.767C80.184 113.235 80.0434 113.692 79.7782 114.077C79.513 114.462 79.1361 114.756 78.6982 114.92L75.386 116.15C75.133 116.244 74.8653 116.293 74.5954 116.293Z" fill="#8094D4"/>
<path d="M121.973 118.961C121.369 118.892 120.787 118.691 120.269 118.373C119.751 118.055 119.309 117.627 118.974 117.119C118.639 116.612 118.419 116.037 118.33 115.435C118.242 114.834 118.286 114.22 118.46 113.637L106.467 104.996L113.646 102.266L123.935 110.89C124.894 111.247 125.689 111.944 126.169 112.848C126.649 113.753 126.78 114.802 126.539 115.797C126.297 116.791 125.699 117.663 124.857 118.246C124.016 118.829 122.989 119.084 121.973 118.961Z" fill="#FFB8B8"/>
<path d="M115.696 112.651C115.342 112.65 114.993 112.568 114.677 112.41L102.516 106.322C98.2683 104.196 94.9373 100.6 93.1423 96.2021L87.3689 82.0593C86.4214 80.6637 86.0604 78.9517 86.3635 77.2923C86.6666 75.633 87.6097 74.1592 88.9895 73.1888C89.6788 72.7041 90.4577 72.3614 91.2809 72.1808C92.104 72.0002 92.9548 71.9852 93.7838 72.1367C94.6225 72.2875 95.423 72.6033 96.1387 73.0657C96.8545 73.5281 97.4714 74.1279 97.9537 74.8305L108.272 96.7703L118.393 105.326C118.749 105.628 119.004 106.033 119.123 106.485C119.242 106.937 119.219 107.415 119.057 107.854L117.829 111.166C117.668 111.601 117.379 111.976 116.999 112.24C116.617 112.507 116.162 112.651 115.696 112.651Z" fill="#8094D4"/>
<path d="M91.604 66.7406C92.1438 66.9768 93.2492 62.6755 92.754 61.8153C92.0176 60.5359 92.0612 60.5451 91.5723 59.6986C91.0835 58.8522 90.9741 57.6936 91.6071 56.9488C92.2402 56.204 93.7052 56.3028 93.9941 57.2366C93.8082 55.463 95.5626 54.0372 97.3004 53.6366C99.0382 53.2359 100.871 53.4847 102.619 53.1281C104.646 52.7144 106.756 51.0145 105.947 48.7845C105.808 48.4133 105.601 48.0716 105.335 47.7777C104.4 46.7266 103.092 46.2778 101.814 45.8439C99.1538 44.9411 96.4213 44.027 93.6142 44.1266C91.3013 44.2475 89.0739 45.0401 87.2044 46.4073C85.3349 47.7744 83.9046 49.6569 83.0883 51.8243C82.8949 52.3666 82.745 52.9234 82.6402 53.4894C81.6767 58.6701 84.6851 63.7802 89.5714 65.753L91.604 66.7406Z" fill="#2F2E41"/>
<path opacity="0.2" d="M79.6084 113.07L79.8388 99.4485L87.0541 84.9414L81.263 99.8328L79.6084 113.07Z" fill="black"/>
<path d="M145.039 147.253L114.578 134.597C113.91 134.322 113.314 133.899 112.835 133.358C112.356 132.818 112.006 132.176 111.812 131.48C111.613 130.776 111.577 130.037 111.708 129.317C111.838 128.597 112.13 127.917 112.563 127.327C120.256 116.735 125.347 104.48 127.426 91.5548C127.538 90.8322 127.814 90.1448 128.232 89.5449C128.65 88.945 129.2 88.4483 129.839 88.0928C130.469 87.7391 131.171 87.5337 131.891 87.4922C132.612 87.4507 133.333 87.5743 133.999 87.8534L164.46 100.509C165.51 100.949 166.371 101.748 166.887 102.763C167.404 103.778 167.543 104.943 167.281 106.051C163.876 119.904 158.371 133.155 150.956 145.342C150.356 146.31 149.432 147.033 148.348 147.383C147.264 147.733 146.091 147.687 145.039 147.253Z" fill="#E6E6E6"/>
<path d="M133.047 90.1443C132.727 90.0101 132.381 89.9507 132.035 89.9705C131.689 89.9903 131.352 90.0888 131.049 90.2586C130.738 90.432 130.471 90.6741 130.268 90.9664C130.065 91.2587 129.931 91.5935 129.876 91.9453C127.736 105.257 122.493 117.878 114.57 128.787C114.359 129.073 114.216 129.404 114.152 129.755C114.088 130.105 114.105 130.465 114.202 130.807C114.295 131.142 114.463 131.45 114.693 131.71C114.923 131.969 115.21 132.172 115.53 132.304L145.991 144.96C146.496 145.17 147.059 145.194 147.58 145.028C148.101 144.861 148.546 144.516 148.836 144.052C156.119 132.08 161.527 119.065 164.871 105.457C164.996 104.925 164.927 104.365 164.677 103.879C164.427 103.392 164.013 103.01 163.508 102.8L133.047 90.1443Z" fill="white"/>
<path d="M149.266 118.318L133.282 111.676C132.674 111.423 132.192 110.939 131.941 110.331C131.69 109.723 131.69 109.04 131.942 108.432L132.314 107.537C132.567 106.929 133.051 106.447 133.659 106.196C134.267 105.945 134.95 105.945 135.558 106.197L151.543 112.838C152.15 113.091 152.632 113.575 152.883 114.183C153.134 114.791 153.134 115.474 152.882 116.082L152.51 116.978C152.257 117.585 151.773 118.067 151.165 118.319C150.557 118.57 149.874 118.569 149.266 118.318Z" fill="#8094D4"/>
<path d="M144.564 129.634L128.58 122.993C127.972 122.74 127.49 122.256 127.239 121.648C126.988 121.039 126.988 120.357 127.24 119.749L127.612 118.853C127.865 118.246 128.349 117.763 128.957 117.512C129.565 117.261 130.248 117.262 130.856 117.513L146.841 124.155C147.448 124.408 147.93 124.891 148.181 125.5C148.432 126.108 148.432 126.791 148.18 127.399L147.808 128.294C147.555 128.902 147.071 129.384 146.463 129.635C145.855 129.886 145.172 129.886 144.564 129.634Z" fill="#8094D4"/>
<path d="M155.671 102.413C155.432 102.413 155.195 102.366 154.973 102.276L138.866 95.7643C138.409 95.5788 138.044 95.2195 137.851 94.7652C137.658 94.3109 137.654 93.7987 137.838 93.341L139.079 90.2729C139.264 89.8153 139.623 89.4499 140.077 89.2571C140.532 89.0644 141.044 89.06 141.502 89.2451L157.609 95.757C158.066 95.9425 158.431 96.3018 158.624 96.7561C158.817 97.2104 158.821 97.7226 158.637 98.1804L157.396 101.248C157.257 101.592 157.018 101.886 156.711 102.094C156.404 102.301 156.042 102.412 155.671 102.413Z" fill="#CCCCCC"/>
<path d="M121.842 199.999H63.9312C63.8215 199.999 63.7163 199.956 63.6387 199.878C63.5612 199.8 63.5176 199.695 63.5176 199.586C63.5176 199.476 63.5612 199.371 63.6387 199.293C63.7163 199.215 63.8215 199.172 63.9312 199.172H121.842C121.952 199.172 122.057 199.215 122.135 199.293C122.212 199.371 122.256 199.476 122.256 199.586C122.256 199.695 122.212 199.8 122.135 199.878C122.057 199.956 121.952 199.999 121.842 199.999Z" fill="#CCCCCC"/>
</g>
<path d="M113.637 234V222.8H115.349L122.373 231.424H121.525V222.8H123.589V234H121.877L114.853 225.376H115.701V234H113.637ZM130.238 234.112C129.363 234.112 128.585 233.925 127.902 233.552C127.219 233.168 126.681 232.645 126.286 231.984C125.891 231.323 125.694 230.571 125.694 229.728C125.694 228.875 125.891 228.123 126.286 227.472C126.681 226.811 127.219 226.293 127.902 225.92C128.585 225.547 129.363 225.36 130.238 225.36C131.123 225.36 131.907 225.547 132.59 225.92C133.283 226.293 133.822 226.805 134.206 227.456C134.601 228.107 134.798 228.864 134.798 229.728C134.798 230.571 134.601 231.323 134.206 231.984C133.822 232.645 133.283 233.168 132.59 233.552C131.907 233.925 131.123 234.112 130.238 234.112ZM130.238 232.4C130.729 232.4 131.166 232.293 131.55 232.08C131.934 231.867 132.233 231.557 132.446 231.152C132.67 230.747 132.782 230.272 132.782 229.728C132.782 229.173 132.67 228.699 132.446 228.304C132.233 227.899 131.934 227.589 131.55 227.376C131.166 227.163 130.734 227.056 130.254 227.056C129.763 227.056 129.326 227.163 128.942 227.376C128.569 227.589 128.27 227.899 128.046 228.304C127.822 228.699 127.71 229.173 127.71 229.728C127.71 230.272 127.822 230.747 128.046 231.152C128.27 231.557 128.569 231.867 128.942 232.08C129.326 232.293 129.758 232.4 130.238 232.4ZM143.596 234V224.56H139.884V222.8H149.388V224.56H145.676V234H143.596ZM155.568 234V232.272L155.456 231.904V228.88C155.456 228.293 155.28 227.84 154.928 227.52C154.576 227.189 154.043 227.024 153.328 227.024C152.848 227.024 152.374 227.099 151.904 227.248C151.446 227.397 151.056 227.605 150.736 227.872L149.952 226.416C150.411 226.064 150.955 225.803 151.584 225.632C152.224 225.451 152.886 225.36 153.568 225.36C154.806 225.36 155.76 225.659 156.432 226.256C157.115 226.843 157.456 227.755 157.456 228.992V234H155.568ZM152.88 234.112C152.24 234.112 151.68 234.005 151.2 233.792C150.72 233.568 150.347 233.264 150.08 232.88C149.824 232.485 149.696 232.043 149.696 231.552C149.696 231.072 149.808 230.64 150.032 230.256C150.267 229.872 150.646 229.568 151.168 229.344C151.691 229.12 152.384 229.008 153.248 229.008H155.728V230.336H153.392C152.71 230.336 152.251 230.448 152.016 230.672C151.782 230.885 151.664 231.152 151.664 231.472C151.664 231.835 151.808 232.123 152.096 232.336C152.384 232.549 152.784 232.656 153.296 232.656C153.787 232.656 154.224 232.544 154.608 232.32C155.003 232.096 155.286 231.765 155.456 231.328L155.792 232.528C155.6 233.029 155.254 233.419 154.752 233.696C154.262 233.973 153.638 234.112 152.88 234.112ZM162.663 234.112C161.948 234.112 161.26 234.021 160.599 233.84C159.948 233.648 159.431 233.419 159.047 233.152L159.815 231.632C160.199 231.877 160.658 232.08 161.191 232.24C161.724 232.4 162.258 232.48 162.791 232.48C163.42 232.48 163.874 232.395 164.151 232.224C164.439 232.053 164.583 231.824 164.583 231.536C164.583 231.301 164.487 231.125 164.295 231.008C164.103 230.88 163.852 230.784 163.543 230.72C163.234 230.656 162.887 230.597 162.503 230.544C162.13 230.491 161.751 230.421 161.367 230.336C160.994 230.24 160.652 230.107 160.343 229.936C160.034 229.755 159.783 229.515 159.591 229.216C159.399 228.917 159.303 228.523 159.303 228.032C159.303 227.488 159.458 227.019 159.767 226.624C160.076 226.219 160.508 225.909 161.063 225.696C161.628 225.472 162.295 225.36 163.063 225.36C163.639 225.36 164.22 225.424 164.807 225.552C165.394 225.68 165.879 225.861 166.263 226.096L165.495 227.616C165.09 227.371 164.679 227.205 164.263 227.12C163.858 227.024 163.452 226.976 163.047 226.976C162.439 226.976 161.986 227.067 161.687 227.248C161.399 227.429 161.255 227.659 161.255 227.936C161.255 228.192 161.351 228.384 161.543 228.512C161.735 228.64 161.986 228.741 162.295 228.816C162.604 228.891 162.946 228.955 163.319 229.008C163.703 229.051 164.082 229.12 164.455 229.216C164.828 229.312 165.17 229.445 165.479 229.616C165.799 229.776 166.055 230.005 166.247 230.304C166.439 230.603 166.535 230.992 166.535 231.472C166.535 232.005 166.375 232.469 166.055 232.864C165.746 233.259 165.303 233.568 164.727 233.792C164.151 234.005 163.463 234.112 162.663 234.112ZM169.889 232.096L169.937 229.584L174.401 225.456H176.801L173.009 229.264L171.953 230.144L169.889 232.096ZM168.257 234V222.128H170.257V234H168.257ZM174.705 234L171.585 230.144L172.849 228.544L177.137 234H174.705ZM180.804 234.112C180.089 234.112 179.401 234.021 178.74 233.84C178.089 233.648 177.572 233.419 177.188 233.152L177.956 231.632C178.34 231.877 178.798 232.08 179.332 232.24C179.865 232.4 180.398 232.48 180.932 232.48C181.561 232.48 182.014 232.395 182.292 232.224C182.58 232.053 182.724 231.824 182.724 231.536C182.724 231.301 182.628 231.125 182.436 231.008C182.244 230.88 181.993 230.784 181.684 230.72C181.374 230.656 181.028 230.597 180.644 230.544C180.27 230.491 179.892 230.421 179.508 230.336C179.134 230.24 178.793 230.107 178.484 229.936C178.174 229.755 177.924 229.515 177.732 229.216C177.54 228.917 177.444 228.523 177.444 228.032C177.444 227.488 177.598 227.019 177.908 226.624C178.217 226.219 178.649 225.909 179.204 225.696C179.769 225.472 180.436 225.36 181.204 225.36C181.78 225.36 182.361 225.424 182.948 225.552C183.534 225.68 184.02 225.861 184.404 226.096L183.636 227.616C183.23 227.371 182.82 227.205 182.404 227.12C181.998 227.024 181.593 226.976 181.188 226.976C180.58 226.976 180.126 227.067 179.828 227.248C179.54 227.429 179.396 227.659 179.396 227.936C179.396 228.192 179.492 228.384 179.684 228.512C179.876 228.64 180.126 228.741 180.436 228.816C180.745 228.891 181.086 228.955 181.46 229.008C181.844 229.051 182.222 229.12 182.596 229.216C182.969 229.312 183.31 229.445 183.62 229.616C183.94 229.776 184.196 230.005 184.388 230.304C184.58 230.603 184.676 230.992 184.676 231.472C184.676 232.005 184.516 232.469 184.196 232.864C183.886 233.259 183.444 233.568 182.868 233.792C182.292 234.005 181.604 234.112 180.804 234.112ZM193.764 234V229.568L194.228 230.848L189.364 222.8H191.588L195.492 229.28H194.244L198.18 222.8H200.228L195.364 230.848L195.844 229.568V234H193.764ZM204.461 234.112C203.511 234.112 202.679 233.925 201.965 233.552C201.261 233.168 200.711 232.645 200.317 231.984C199.933 231.323 199.741 230.571 199.741 229.728C199.741 228.875 199.927 228.123 200.301 227.472C200.685 226.811 201.207 226.293 201.869 225.92C202.541 225.547 203.303 225.36 204.157 225.36C204.989 225.36 205.73 225.541 206.381 225.904C207.031 226.267 207.543 226.779 207.917 227.44C208.29 228.101 208.477 228.88 208.477 229.776C208.477 229.861 208.471 229.957 208.461 230.064C208.461 230.171 208.455 230.272 208.445 230.368H201.325V229.04H207.389L206.605 229.456C206.615 228.965 206.514 228.533 206.301 228.16C206.087 227.787 205.794 227.493 205.421 227.28C205.058 227.067 204.637 226.96 204.157 226.96C203.666 226.96 203.234 227.067 202.861 227.28C202.498 227.493 202.21 227.792 201.997 228.176C201.794 228.549 201.693 228.992 201.693 229.504V229.824C201.693 230.336 201.81 230.789 202.045 231.184C202.279 231.579 202.61 231.883 203.037 232.096C203.463 232.309 203.954 232.416 204.509 232.416C204.989 232.416 205.421 232.341 205.805 232.192C206.189 232.043 206.53 231.808 206.829 231.488L207.901 232.72C207.517 233.168 207.031 233.515 206.445 233.76C205.869 233.995 205.207 234.112 204.461 234.112ZM213.614 234.112C212.675 234.112 211.95 233.872 211.438 233.392C210.926 232.901 210.67 232.181 210.67 231.232V223.568H212.67V231.184C212.67 231.589 212.771 231.904 212.974 232.128C213.187 232.352 213.481 232.464 213.854 232.464C214.302 232.464 214.675 232.347 214.974 232.112L215.534 233.536C215.299 233.728 215.011 233.872 214.67 233.968C214.329 234.064 213.977 234.112 213.614 234.112ZM209.262 227.12V225.52H214.958V227.12H209.262Z" fill="black"/>
<path d="M6.14138 266L11.2614 254.8H12.4294L17.5494 266H16.3014L11.5974 255.488H12.0774L7.37338 266H6.14138ZM8.15738 263.008L8.50938 262.048H15.0214L15.3734 263.008H8.15738ZM22.428 266.08C21.628 266.08 20.908 265.899 20.268 265.536C19.6387 265.173 19.1427 264.672 18.78 264.032C18.4173 263.381 18.236 262.635 18.236 261.792C18.236 260.939 18.4173 260.192 18.78 259.552C19.1427 258.912 19.6387 258.416 20.268 258.064C20.908 257.701 21.628 257.52 22.428 257.52C23.164 257.52 23.82 257.685 24.396 258.016C24.9827 258.347 25.4467 258.832 25.788 259.472C26.14 260.101 26.316 260.875 26.316 261.792C26.316 262.699 26.1453 263.472 25.804 264.112C25.4627 264.752 24.9987 265.243 24.412 265.584C23.836 265.915 23.1747 266.08 22.428 266.08ZM22.508 265.072C23.1053 265.072 23.6387 264.939 24.108 264.672C24.588 264.395 24.9613 264.011 25.228 263.52C25.5053 263.019 25.644 262.443 25.644 261.792C25.644 261.131 25.5053 260.555 25.228 260.064C24.9613 259.573 24.588 259.195 24.108 258.928C23.6387 258.651 23.1053 258.512 22.508 258.512C21.9213 258.512 21.3933 258.651 20.924 258.928C20.4547 259.195 20.0813 259.573 19.804 260.064C19.5267 260.555 19.388 261.131 19.388 261.792C19.388 262.443 19.5267 263.019 19.804 263.52C20.0813 264.011 20.4547 264.395 20.924 264.672C21.3933 264.939 21.9213 265.072 22.508 265.072ZM25.676 266V263.472L25.788 261.776L25.628 260.08V254.128H26.764V266H25.676ZM33.2718 266.08C32.4718 266.08 31.7518 265.899 31.1118 265.536C30.4824 265.173 29.9864 264.672 29.6238 264.032C29.2611 263.381 29.0798 262.635 29.0798 261.792C29.0798 260.939 29.2611 260.192 29.6238 259.552C29.9864 258.912 30.4824 258.416 31.1118 258.064C31.7518 257.701 32.4718 257.52 33.2718 257.52C34.0078 257.52 34.6638 257.685 35.2398 258.016C35.8264 258.347 36.2904 258.832 36.6318 259.472C36.9838 260.101 37.1597 260.875 37.1597 261.792C37.1597 262.699 36.9891 263.472 36.6478 264.112C36.3064 264.752 35.8424 265.243 35.2558 265.584C34.6798 265.915 34.0184 266.08 33.2718 266.08ZM33.3518 265.072C33.9491 265.072 34.4824 264.939 34.9518 264.672C35.4318 264.395 35.8051 264.011 36.0718 263.52C36.3491 263.019 36.4878 262.443 36.4878 261.792C36.4878 261.131 36.3491 260.555 36.0718 260.064C35.8051 259.573 35.4318 259.195 34.9518 258.928C34.4824 258.651 33.9491 258.512 33.3518 258.512C32.7651 258.512 32.2371 258.651 31.7678 258.928C31.2984 259.195 30.9251 259.573 30.6478 260.064C30.3704 260.555 30.2318 261.131 30.2318 261.792C30.2318 262.443 30.3704 263.019 30.6478 263.52C30.9251 264.011 31.2984 264.395 31.7678 264.672C32.2371 264.939 32.7651 265.072 33.3518 265.072ZM36.5198 266V263.472L36.6318 261.776L36.4718 260.08V254.128H37.6078V266H36.5198ZM50.223 266V264.144L50.175 263.84V260.736C50.175 260.021 49.9723 259.472 49.567 259.088C49.1723 258.704 48.5803 258.512 47.791 258.512C47.247 258.512 46.7297 258.603 46.239 258.784C45.7483 258.965 45.3323 259.205 44.991 259.504L44.479 258.656C44.9057 258.293 45.4177 258.016 46.015 257.824C46.6123 257.621 47.2417 257.52 47.903 257.52C48.991 257.52 49.8283 257.792 50.415 258.336C51.0123 258.869 51.311 259.685 51.311 260.784V266H50.223ZM47.327 266.08C46.6977 266.08 46.1483 265.979 45.679 265.776C45.2203 265.563 44.8683 265.275 44.623 264.912C44.3777 264.539 44.255 264.112 44.255 263.632C44.255 263.195 44.3563 262.8 44.559 262.448C44.7723 262.085 45.1137 261.797 45.583 261.584C46.063 261.36 46.703 261.248 47.503 261.248H50.399V262.096H47.535C46.7243 262.096 46.159 262.24 45.839 262.528C45.5297 262.816 45.375 263.173 45.375 263.6C45.375 264.08 45.5617 264.464 45.935 264.752C46.3083 265.04 46.831 265.184 47.503 265.184C48.143 265.184 48.6923 265.04 49.151 264.752C49.6203 264.453 49.9617 264.027 50.175 263.472L50.431 264.256C50.2177 264.811 49.8443 265.253 49.311 265.584C48.7883 265.915 48.127 266.08 47.327 266.08ZM61.24 266.08C60.4507 266.08 59.8427 265.867 59.416 265.44C58.9893 265.013 58.776 264.411 58.776 263.632V255.744H59.912V263.568C59.912 264.059 60.0347 264.437 60.28 264.704C60.536 264.971 60.8987 265.104 61.368 265.104C61.8693 265.104 62.2853 264.96 62.616 264.672L63.016 265.488C62.792 265.691 62.52 265.84 62.2 265.936C61.8907 266.032 61.5707 266.08 61.24 266.08ZM57.272 258.544V257.6H62.472V258.544H57.272ZM70.348 266V264.144L70.3 263.84V260.736C70.3 260.021 70.0973 259.472 69.692 259.088C69.2973 258.704 68.7053 258.512 67.916 258.512C67.372 258.512 66.8547 258.603 66.364 258.784C65.8733 258.965 65.4573 259.205 65.116 259.504L64.604 258.656C65.0307 258.293 65.5427 258.016 66.14 257.824C66.7373 257.621 67.3667 257.52 68.028 257.52C69.116 257.52 69.9533 257.792 70.54 258.336C71.1373 258.869 71.436 259.685 71.436 260.784V266H70.348ZM67.452 266.08C66.8227 266.08 66.2733 265.979 65.804 265.776C65.3453 265.563 64.9933 265.275 64.748 264.912C64.5027 264.539 64.38 264.112 64.38 263.632C64.38 263.195 64.4813 262.8 64.684 262.448C64.8973 262.085 65.2387 261.797 65.708 261.584C66.188 261.36 66.828 261.248 67.628 261.248H70.524V262.096H67.66C66.8493 262.096 66.284 262.24 65.964 262.528C65.6547 262.816 65.5 263.173 65.5 263.6C65.5 264.08 65.6867 264.464 66.06 264.752C66.4333 265.04 66.956 265.184 67.628 265.184C68.268 265.184 68.8173 265.04 69.276 264.752C69.7453 264.453 70.0867 264.027 70.3 263.472L70.556 264.256C70.3427 264.811 69.9693 265.253 69.436 265.584C68.9133 265.915 68.252 266.08 67.452 266.08ZM76.7775 266.08C76.0842 266.08 75.4282 265.984 74.8095 265.792C74.1908 265.589 73.7055 265.339 73.3535 265.04L73.8655 264.144C74.2068 264.4 74.6442 264.624 75.1775 264.816C75.7108 264.997 76.2708 265.088 76.8575 265.088C77.6575 265.088 78.2335 264.965 78.5855 264.72C78.9375 264.464 79.1135 264.128 79.1135 263.712C79.1135 263.403 79.0122 263.163 78.8095 262.992C78.6175 262.811 78.3615 262.677 78.0415 262.592C77.7215 262.496 77.3642 262.416 76.9695 262.352C76.5748 262.288 76.1802 262.213 75.7855 262.128C75.4015 262.043 75.0495 261.92 74.7295 261.76C74.4095 261.589 74.1482 261.36 73.9455 261.072C73.7535 260.784 73.6575 260.4 73.6575 259.92C73.6575 259.461 73.7855 259.051 74.0415 258.688C74.2975 258.325 74.6708 258.043 75.1615 257.84C75.6628 257.627 76.2708 257.52 76.9855 257.52C77.5295 257.52 78.0735 257.595 78.6175 257.744C79.1615 257.883 79.6095 258.069 79.9615 258.304L79.4655 259.216C79.0922 258.96 78.6922 258.779 78.2655 258.672C77.8388 258.555 77.4122 258.496 76.9855 258.496C76.2282 258.496 75.6682 258.629 75.3055 258.896C74.9535 259.152 74.7775 259.483 74.7775 259.888C74.7775 260.208 74.8735 260.459 75.0655 260.64C75.2682 260.821 75.5295 260.965 75.8495 261.072C76.1802 261.168 76.5375 261.248 76.9215 261.312C77.3162 261.376 77.7055 261.456 78.0895 261.552C78.4842 261.637 78.8415 261.76 79.1615 261.92C79.4922 262.069 79.7535 262.288 79.9455 262.576C80.1482 262.853 80.2495 263.221 80.2495 263.68C80.2495 264.171 80.1108 264.597 79.8335 264.96C79.5668 265.312 79.1722 265.589 78.6495 265.792C78.1375 265.984 77.5135 266.08 76.7775 266.08ZM83.23 263.824L83.262 262.368L88.494 257.6H89.886L86.19 261.136L85.55 261.68L83.23 263.824ZM82.334 266V254.128H83.47V266H82.334ZM88.846 266L85.342 261.632L86.078 260.752L90.238 266H88.846ZM98.7869 266.08C97.9975 266.08 97.3895 265.867 96.9629 265.44C96.5362 265.013 96.3229 264.411 96.3229 263.632V255.744H97.4589V263.568C97.4589 264.059 97.5815 264.437 97.8269 264.704C98.0829 264.971 98.4455 265.104 98.9149 265.104C99.4162 265.104 99.8322 264.96 100.163 264.672L100.563 265.488C100.339 265.691 100.067 265.84 99.7469 265.936C99.4375 266.032 99.1175 266.08 98.7869 266.08ZM94.8189 258.544V257.6H100.019V258.544H94.8189ZM105.758 266.08C104.947 266.08 104.217 265.899 103.566 265.536C102.926 265.163 102.419 264.656 102.046 264.016C101.673 263.365 101.486 262.624 101.486 261.792C101.486 260.949 101.673 260.208 102.046 259.568C102.419 258.928 102.926 258.427 103.566 258.064C104.206 257.701 104.937 257.52 105.758 257.52C106.59 257.52 107.326 257.701 107.966 258.064C108.617 258.427 109.123 258.928 109.486 259.568C109.859 260.208 110.046 260.949 110.046 261.792C110.046 262.624 109.859 263.365 109.486 264.016C109.123 264.656 108.617 265.163 107.966 265.536C107.315 265.899 106.579 266.08 105.758 266.08ZM105.758 265.072C106.366 265.072 106.905 264.939 107.374 264.672C107.843 264.395 108.211 264.011 108.478 263.52C108.755 263.019 108.894 262.443 108.894 261.792C108.894 261.131 108.755 260.555 108.478 260.064C108.211 259.573 107.843 259.195 107.374 258.928C106.905 258.651 106.371 258.512 105.774 258.512C105.177 258.512 104.643 258.651 104.174 258.928C103.705 259.195 103.331 259.573 103.054 260.064C102.777 260.555 102.638 261.131 102.638 261.792C102.638 262.443 102.777 263.019 103.054 263.52C103.331 264.011 103.705 264.395 104.174 264.672C104.643 264.939 105.171 265.072 105.758 265.072ZM117.449 263.824L117.481 262.368L122.713 257.6H124.105L120.409 261.136L119.769 261.68L117.449 263.824ZM116.553 266V254.128H117.689V266H116.553ZM123.065 266L119.561 261.632L120.297 260.752L124.457 266H123.065ZM126.162 266V257.6H127.298V266H126.162ZM126.738 255.744C126.503 255.744 126.306 255.664 126.146 255.504C125.986 255.344 125.906 255.152 125.906 254.928C125.906 254.704 125.986 254.517 126.146 254.368C126.306 254.208 126.503 254.128 126.738 254.128C126.973 254.128 127.17 254.203 127.33 254.352C127.49 254.501 127.57 254.688 127.57 254.912C127.57 255.147 127.49 255.344 127.33 255.504C127.181 255.664 126.983 255.744 126.738 255.744ZM133.947 266.08C133.115 266.08 132.368 265.899 131.707 265.536C131.056 265.163 130.544 264.656 130.171 264.016C129.798 263.365 129.611 262.624 129.611 261.792C129.611 260.949 129.798 260.208 130.171 259.568C130.544 258.928 131.056 258.427 131.707 258.064C132.368 257.701 133.115 257.52 133.947 257.52C134.662 257.52 135.307 257.659 135.883 257.936C136.459 258.213 136.912 258.629 137.243 259.184L136.395 259.76C136.107 259.333 135.75 259.019 135.323 258.816C134.896 258.613 134.432 258.512 133.931 258.512C133.334 258.512 132.795 258.651 132.315 258.928C131.835 259.195 131.456 259.573 131.179 260.064C130.902 260.555 130.763 261.131 130.763 261.792C130.763 262.453 130.902 263.029 131.179 263.52C131.456 264.011 131.835 264.395 132.315 264.672C132.795 264.939 133.334 265.072 133.931 265.072C134.432 265.072 134.896 264.971 135.323 264.768C135.75 264.565 136.107 264.256 136.395 263.84L137.243 264.416C136.912 264.96 136.459 265.376 135.883 265.664C135.307 265.941 134.662 266.08 133.947 266.08ZM140.246 263.824L140.278 262.368L145.51 257.6H146.902L143.206 261.136L142.566 261.68L140.246 263.824ZM139.35 266V254.128H140.486V266H139.35ZM145.862 266L142.358 261.632L143.094 260.752L147.254 266H145.862ZM150.965 266.08C150.272 266.08 149.616 265.984 148.997 265.792C148.378 265.589 147.893 265.339 147.541 265.04L148.053 264.144C148.394 264.4 148.832 264.624 149.365 264.816C149.898 264.997 150.458 265.088 151.045 265.088C151.845 265.088 152.421 264.965 152.773 264.72C153.125 264.464 153.301 264.128 153.301 263.712C153.301 263.403 153.2 263.163 152.997 262.992C152.805 262.811 152.549 262.677 152.229 262.592C151.909 262.496 151.552 262.416 151.157 262.352C150.762 262.288 150.368 262.213 149.973 262.128C149.589 262.043 149.237 261.92 148.917 261.76C148.597 261.589 148.336 261.36 148.133 261.072C147.941 260.784 147.845 260.4 147.845 259.92C147.845 259.461 147.973 259.051 148.229 258.688C148.485 258.325 148.858 258.043 149.349 257.84C149.85 257.627 150.458 257.52 151.173 257.52C151.717 257.52 152.261 257.595 152.805 257.744C153.349 257.883 153.797 258.069 154.149 258.304L153.653 259.216C153.28 258.96 152.88 258.779 152.453 258.672C152.026 258.555 151.6 258.496 151.173 258.496C150.416 258.496 149.856 258.629 149.493 258.896C149.141 259.152 148.965 259.483 148.965 259.888C148.965 260.208 149.061 260.459 149.253 260.64C149.456 260.821 149.717 260.965 150.037 261.072C150.368 261.168 150.725 261.248 151.109 261.312C151.504 261.376 151.893 261.456 152.277 261.552C152.672 261.637 153.029 261.76 153.349 261.92C153.68 262.069 153.941 262.288 154.133 262.576C154.336 262.853 154.437 263.221 154.437 263.68C154.437 264.171 154.298 264.597 154.021 264.96C153.754 265.312 153.36 265.589 152.837 265.792C152.325 265.984 151.701 266.08 150.965 266.08ZM159.178 266.08C158.388 266.08 157.78 265.867 157.354 265.44C156.927 265.013 156.714 264.411 156.714 263.632V255.744H157.85V263.568C157.85 264.059 157.972 264.437 158.218 264.704C158.474 264.971 158.836 265.104 159.306 265.104C159.807 265.104 160.223 264.96 160.554 264.672L160.954 265.488C160.73 265.691 160.458 265.84 160.138 265.936C159.828 266.032 159.508 266.08 159.178 266.08ZM155.21 258.544V257.6H160.41V258.544H155.21ZM168.286 266V264.144L168.238 263.84V260.736C168.238 260.021 168.035 259.472 167.63 259.088C167.235 258.704 166.643 258.512 165.854 258.512C165.31 258.512 164.792 258.603 164.302 258.784C163.811 258.965 163.395 259.205 163.054 259.504L162.542 258.656C162.968 258.293 163.48 258.016 164.078 257.824C164.675 257.621 165.304 257.52 165.966 257.52C167.054 257.52 167.891 257.792 168.478 258.336C169.075 258.869 169.374 259.685 169.374 260.784V266H168.286ZM165.39 266.08C164.76 266.08 164.211 265.979 163.742 265.776C163.283 265.563 162.931 265.275 162.686 264.912C162.44 264.539 162.318 264.112 162.318 263.632C162.318 263.195 162.419 262.8 162.622 262.448C162.835 262.085 163.176 261.797 163.646 261.584C164.126 261.36 164.766 261.248 165.566 261.248H168.462V262.096H165.598C164.787 262.096 164.222 262.24 163.902 262.528C163.592 262.816 163.438 263.173 163.438 263.6C163.438 264.08 163.624 264.464 163.998 264.752C164.371 265.04 164.894 265.184 165.566 265.184C166.206 265.184 166.755 265.04 167.214 264.752C167.683 264.453 168.024 264.027 168.238 263.472L168.494 264.256C168.28 264.811 167.907 265.253 167.374 265.584C166.851 265.915 166.19 266.08 165.39 266.08ZM172.459 266V257.6H173.547V259.888L173.435 259.488C173.67 258.848 174.064 258.363 174.619 258.032C175.174 257.691 175.862 257.52 176.683 257.52V258.624C176.64 258.624 176.598 258.624 176.555 258.624C176.512 258.613 176.47 258.608 176.427 258.608C175.542 258.608 174.848 258.88 174.347 259.424C173.846 259.957 173.595 260.72 173.595 261.712V266H172.459ZM181.771 266.08C180.982 266.08 180.374 265.867 179.947 265.44C179.521 265.013 179.307 264.411 179.307 263.632V255.744H180.443V263.568C180.443 264.059 180.566 264.437 180.811 264.704C181.067 264.971 181.43 265.104 181.899 265.104C182.401 265.104 182.817 264.96 183.147 264.672L183.547 265.488C183.323 265.691 183.051 265.84 182.731 265.936C182.422 266.032 182.102 266.08 181.771 266.08ZM177.803 258.544V257.6H183.003V258.544H177.803ZM194.091 257.52C194.773 257.52 195.371 257.653 195.883 257.92C196.405 258.176 196.811 258.571 197.099 259.104C197.397 259.637 197.547 260.309 197.547 261.12V266H196.411V261.232C196.411 260.347 196.187 259.68 195.739 259.232C195.301 258.773 194.683 258.544 193.883 258.544C193.285 258.544 192.763 258.667 192.315 258.912C191.877 259.147 191.536 259.493 191.291 259.952C191.056 260.4 190.939 260.944 190.939 261.584V266H189.803V254.128H190.939V259.904L190.715 259.472C190.981 258.864 191.408 258.389 191.995 258.048C192.581 257.696 193.28 257.52 194.091 257.52ZM204.039 266.08C203.229 266.08 202.498 265.899 201.847 265.536C201.207 265.163 200.701 264.656 200.327 264.016C199.954 263.365 199.767 262.624 199.767 261.792C199.767 260.949 199.954 260.208 200.327 259.568C200.701 258.928 201.207 258.427 201.847 258.064C202.487 257.701 203.218 257.52 204.039 257.52C204.871 257.52 205.607 257.701 206.247 258.064C206.898 258.427 207.405 258.928 207.767 259.568C208.141 260.208 208.327 260.949 208.327 261.792C208.327 262.624 208.141 263.365 207.767 264.016C207.405 264.656 206.898 265.163 206.247 265.536C205.597 265.899 204.861 266.08 204.039 266.08ZM204.039 265.072C204.647 265.072 205.186 264.939 205.655 264.672C206.125 264.395 206.493 264.011 206.759 263.52C207.037 263.019 207.175 262.443 207.175 261.792C207.175 261.131 207.037 260.555 206.759 260.064C206.493 259.573 206.125 259.195 205.655 258.928C205.186 258.651 204.653 258.512 204.055 258.512C203.458 258.512 202.925 258.651 202.455 258.928C201.986 259.195 201.613 259.573 201.335 260.064C201.058 260.555 200.919 261.131 200.919 261.792C200.919 262.443 201.058 263.019 201.335 263.52C201.613 264.011 201.986 264.395 202.455 264.672C202.925 264.939 203.453 265.072 204.039 265.072ZM213.303 266.08C212.513 266.08 211.905 265.867 211.479 265.44C211.052 265.013 210.839 264.411 210.839 263.632V255.744H211.975V263.568C211.975 264.059 212.097 264.437 212.343 264.704C212.599 264.971 212.961 265.104 213.431 265.104C213.932 265.104 214.348 264.96 214.679 264.672L215.079 265.488C214.855 265.691 214.583 265.84 214.263 265.936C213.953 266.032 213.633 266.08 213.303 266.08ZM209.335 258.544V257.6H214.535V258.544H209.335ZM220.418 266.08C219.543 266.08 218.775 265.899 218.114 265.536C217.452 265.163 216.935 264.656 216.562 264.016C216.188 263.365 216.002 262.624 216.002 261.792C216.002 260.96 216.178 260.224 216.53 259.584C216.892 258.944 217.383 258.443 218.002 258.08C218.631 257.707 219.335 257.52 220.114 257.52C220.903 257.52 221.602 257.701 222.21 258.064C222.828 258.416 223.314 258.917 223.666 259.568C224.018 260.208 224.194 260.949 224.194 261.792C224.194 261.845 224.188 261.904 224.178 261.968C224.178 262.021 224.178 262.08 224.178 262.144H216.866V261.296H223.57L223.122 261.632C223.122 261.024 222.988 260.485 222.722 260.016C222.466 259.536 222.114 259.163 221.666 258.896C221.218 258.629 220.7 258.496 220.114 258.496C219.538 258.496 219.02 258.629 218.562 258.896C218.103 259.163 217.746 259.536 217.49 260.016C217.234 260.496 217.106 261.045 217.106 261.664V261.84C217.106 262.48 217.244 263.045 217.522 263.536C217.81 264.016 218.204 264.395 218.706 264.672C219.218 264.939 219.799 265.072 220.45 265.072C220.962 265.072 221.436 264.981 221.874 264.8C222.322 264.619 222.706 264.341 223.026 263.968L223.666 264.704C223.292 265.152 222.823 265.493 222.258 265.728C221.703 265.963 221.09 266.08 220.418 266.08ZM226.506 266V254.128H227.642V266H226.506ZM238.414 266.08C237.604 266.08 236.873 265.899 236.222 265.536C235.582 265.163 235.076 264.656 234.702 264.016C234.329 263.365 234.142 262.624 234.142 261.792C234.142 260.949 234.329 260.208 234.702 259.568C235.076 258.928 235.582 258.427 236.222 258.064C236.862 257.701 237.593 257.52 238.414 257.52C239.246 257.52 239.982 257.701 240.622 258.064C241.273 258.427 241.78 258.928 242.142 259.568C242.516 260.208 242.702 260.949 242.702 261.792C242.702 262.624 242.516 263.365 242.142 264.016C241.78 264.656 241.273 265.163 240.622 265.536C239.972 265.899 239.236 266.08 238.414 266.08ZM238.414 265.072C239.022 265.072 239.561 264.939 240.03 264.672C240.5 264.395 240.868 264.011 241.134 263.52C241.412 263.019 241.55 262.443 241.55 261.792C241.55 261.131 241.412 260.555 241.134 260.064C240.868 259.573 240.5 259.195 240.03 258.928C239.561 258.651 239.028 258.512 238.43 258.512C237.833 258.512 237.3 258.651 236.83 258.928C236.361 259.195 235.988 259.573 235.71 260.064C235.433 260.555 235.294 261.131 235.294 261.792C235.294 262.443 235.433 263.019 235.71 263.52C235.988 264.011 236.361 264.395 236.83 264.672C237.3 264.939 237.828 265.072 238.414 265.072ZM249.358 266.08C248.632 266.08 247.976 265.915 247.39 265.584C246.803 265.243 246.334 264.757 245.982 264.128C245.64 263.488 245.47 262.709 245.47 261.792C245.47 260.875 245.64 260.101 245.982 259.472C246.323 258.832 246.787 258.347 247.374 258.016C247.96 257.685 248.622 257.52 249.358 257.52C250.158 257.52 250.872 257.701 251.502 258.064C252.142 258.416 252.643 258.917 253.006 259.568C253.368 260.208 253.55 260.949 253.55 261.792C253.55 262.645 253.368 263.392 253.006 264.032C252.643 264.672 252.142 265.173 251.502 265.536C250.872 265.899 250.158 266.08 249.358 266.08ZM245.022 269.104V257.6H246.11V260.128L245.998 261.808L246.158 263.504V269.104H245.022ZM249.278 265.072C249.875 265.072 250.408 264.939 250.878 264.672C251.347 264.395 251.72 264.011 251.998 263.52C252.275 263.019 252.414 262.443 252.414 261.792C252.414 261.141 252.275 260.571 251.998 260.08C251.72 259.589 251.347 259.205 250.878 258.928C250.408 258.651 249.875 258.512 249.278 258.512C248.68 258.512 248.142 258.651 247.661 258.928C247.192 259.205 246.819 259.589 246.542 260.08C246.275 260.571 246.142 261.141 246.142 261.792C246.142 262.443 246.275 263.019 246.542 263.52C246.819 264.011 247.192 264.395 247.661 264.672C248.142 264.939 248.68 265.072 249.278 265.072ZM259.433 266.08C258.559 266.08 257.791 265.899 257.129 265.536C256.468 265.163 255.951 264.656 255.577 264.016C255.204 263.365 255.017 262.624 255.017 261.792C255.017 260.96 255.193 260.224 255.545 259.584C255.908 258.944 256.399 258.443 257.017 258.08C257.647 257.707 258.351 257.52 259.129 257.52C259.919 257.52 260.617 257.701 261.225 258.064C261.844 258.416 262.329 258.917 262.681 259.568C263.033 260.208 263.209 260.949 263.209 261.792C263.209 261.845 263.204 261.904 263.193 261.968C263.193 262.021 263.193 262.08 263.193 262.144H255.881V261.296H262.585L262.137 261.632C262.137 261.024 262.004 260.485 261.737 260.016C261.481 259.536 261.129 259.163 260.681 258.896C260.233 258.629 259.716 258.496 259.129 258.496C258.553 258.496 258.036 258.629 257.577 258.896C257.119 259.163 256.761 259.536 256.505 260.016C256.249 260.496 256.121 261.045 256.121 261.664V261.84C256.121 262.48 256.26 263.045 256.537 263.536C256.825 264.016 257.22 264.395 257.721 264.672C258.233 264.939 258.815 265.072 259.465 265.072C259.977 265.072 260.452 264.981 260.889 264.8C261.337 264.619 261.721 264.341 262.041 263.968L262.681 264.704C262.308 265.152 261.839 265.493 261.273 265.728C260.719 265.963 260.105 266.08 259.433 266.08ZM265.522 266V257.6H266.61V259.888L266.498 259.488C266.732 258.848 267.127 258.363 267.682 258.032C268.236 257.691 268.924 257.52 269.746 257.52V258.624C269.703 258.624 269.66 258.624 269.618 258.624C269.575 258.613 269.532 258.608 269.49 258.608C268.604 258.608 267.911 258.88 267.41 259.424C266.908 259.957 266.658 260.72 266.658 261.712V266H265.522ZM276.457 266V264.144L276.409 263.84V260.736C276.409 260.021 276.207 259.472 275.801 259.088C275.407 258.704 274.815 258.512 274.025 258.512C273.481 258.512 272.964 258.603 272.473 258.784C271.983 258.965 271.567 259.205 271.225 259.504L270.713 258.656C271.14 258.293 271.652 258.016 272.249 257.824C272.847 257.621 273.476 257.52 274.137 257.52C275.225 257.52 276.063 257.792 276.649 258.336C277.247 258.869 277.545 259.685 277.545 260.784V266H276.457ZM273.561 266.08C272.932 266.08 272.383 265.979 271.913 265.776C271.455 265.563 271.103 265.275 270.857 264.912C270.612 264.539 270.489 264.112 270.489 263.632C270.489 263.195 270.591 262.8 270.793 262.448C271.007 262.085 271.348 261.797 271.817 261.584C272.297 261.36 272.937 261.248 273.737 261.248H276.633V262.096H273.769C272.959 262.096 272.393 262.24 272.073 262.528C271.764 262.816 271.609 263.173 271.609 263.6C271.609 264.08 271.796 264.464 272.169 264.752C272.543 265.04 273.065 265.184 273.737 265.184C274.377 265.184 274.927 265.04 275.385 264.752C275.855 264.453 276.196 264.027 276.409 263.472L276.665 264.256C276.452 264.811 276.079 265.253 275.545 265.584C275.023 265.915 274.361 266.08 273.561 266.08ZM283.287 266.08C282.498 266.08 281.89 265.867 281.463 265.44C281.036 265.013 280.823 264.411 280.823 263.632V255.744H281.959V263.568C281.959 264.059 282.082 264.437 282.327 264.704C282.583 264.971 282.946 265.104 283.415 265.104C283.916 265.104 284.332 264.96 284.663 264.672L285.063 265.488C284.839 265.691 284.567 265.84 284.247 265.936C283.938 266.032 283.618 266.08 283.287 266.08ZM279.319 258.544V257.6H284.519V258.544H279.319ZM287.131 266V257.6H288.267V266H287.131ZM287.707 255.744C287.472 255.744 287.275 255.664 287.115 255.504C286.955 255.344 286.875 255.152 286.875 254.928C286.875 254.704 286.955 254.517 287.115 254.368C287.275 254.208 287.472 254.128 287.707 254.128C287.942 254.128 288.139 254.203 288.299 254.352C288.459 254.501 288.539 254.688 288.539 254.912C288.539 255.147 288.459 255.344 288.299 255.504C288.15 255.664 287.952 255.744 287.707 255.744ZM294.852 266.08C294.041 266.08 293.31 265.899 292.66 265.536C292.02 265.163 291.513 264.656 291.14 264.016C290.766 263.365 290.58 262.624 290.58 261.792C290.58 260.949 290.766 260.208 291.14 259.568C291.513 258.928 292.02 258.427 292.66 258.064C293.3 257.701 294.03 257.52 294.852 257.52C295.684 257.52 296.42 257.701 297.06 258.064C297.71 258.427 298.217 258.928 298.58 259.568C298.953 260.208 299.14 260.949 299.14 261.792C299.14 262.624 298.953 263.365 298.58 264.016C298.217 264.656 297.71 265.163 297.06 265.536C296.409 265.899 295.673 266.08 294.852 266.08ZM294.852 265.072C295.46 265.072 295.998 264.939 296.468 264.672C296.937 264.395 297.305 264.011 297.572 263.52C297.849 263.019 297.988 262.443 297.988 261.792C297.988 261.131 297.849 260.555 297.572 260.064C297.305 259.573 296.937 259.195 296.468 258.928C295.998 258.651 295.465 258.512 294.868 258.512C294.27 258.512 293.737 258.651 293.268 258.928C292.798 259.195 292.425 259.573 292.148 260.064C291.87 260.555 291.732 261.131 291.732 261.792C291.732 262.443 291.87 263.019 292.148 263.52C292.425 264.011 292.798 264.395 293.268 264.672C293.737 264.939 294.265 265.072 294.852 265.072ZM305.747 257.52C306.43 257.52 307.027 257.653 307.539 257.92C308.062 258.176 308.467 258.571 308.755 259.104C309.054 259.637 309.203 260.309 309.203 261.12V266H308.067V261.232C308.067 260.347 307.843 259.68 307.395 259.232C306.958 258.773 306.339 258.544 305.539 258.544C304.942 258.544 304.419 258.667 303.971 258.912C303.534 259.147 303.192 259.493 302.947 259.952C302.712 260.4 302.595 260.944 302.595 261.584V266H301.459V257.6H302.547V259.904L302.371 259.472C302.638 258.864 303.064 258.389 303.651 258.048C304.238 257.696 304.936 257.52 305.747 257.52ZM314.528 266.08C313.834 266.08 313.178 265.984 312.56 265.792C311.941 265.589 311.456 265.339 311.104 265.04L311.616 264.144C311.957 264.4 312.394 264.624 312.928 264.816C313.461 264.997 314.021 265.088 314.608 265.088C315.408 265.088 315.984 264.965 316.336 264.72C316.688 264.464 316.864 264.128 316.864 263.712C316.864 263.403 316.762 263.163 316.56 262.992C316.368 262.811 316.112 262.677 315.792 262.592C315.472 262.496 315.114 262.416 314.72 262.352C314.325 262.288 313.93 262.213 313.536 262.128C313.152 262.043 312.8 261.92 312.48 261.76C312.16 261.589 311.898 261.36 311.696 261.072C311.504 260.784 311.408 260.4 311.408 259.92C311.408 259.461 311.536 259.051 311.792 258.688C312.048 258.325 312.421 258.043 312.912 257.84C313.413 257.627 314.021 257.52 314.736 257.52C315.28 257.52 315.824 257.595 316.368 257.744C316.912 257.883 317.36 258.069 317.712 258.304L317.216 259.216C316.842 258.96 316.442 258.779 316.016 258.672C315.589 258.555 315.162 258.496 314.736 258.496C313.978 258.496 313.418 258.629 313.056 258.896C312.704 259.152 312.528 259.483 312.528 259.888C312.528 260.208 312.624 260.459 312.816 260.64C313.018 260.821 313.28 260.965 313.6 261.072C313.93 261.168 314.288 261.248 314.672 261.312C315.066 261.376 315.456 261.456 315.84 261.552C316.234 261.637 316.592 261.76 316.912 261.92C317.242 262.069 317.504 262.288 317.696 262.576C317.898 262.853 318 263.221 318 263.68C318 264.171 317.861 264.597 317.584 264.96C317.317 265.312 316.922 265.589 316.4 265.792C315.888 265.984 315.264 266.08 314.528 266.08ZM320.196 266.08C319.961 266.08 319.759 265.995 319.588 265.824C319.428 265.653 319.348 265.445 319.348 265.2C319.348 264.944 319.428 264.736 319.588 264.576C319.759 264.416 319.961 264.336 320.196 264.336C320.431 264.336 320.628 264.416 320.788 264.576C320.959 264.736 321.044 264.944 321.044 265.2C321.044 265.445 320.959 265.653 320.788 265.824C320.628 265.995 320.431 266.08 320.196 266.08Z" fill="black"/>
<defs>
<clipPath id="clip0_2695_11053">
<rect width="200.965" height="200" fill="white" transform="translate(63.5176)"/>
</clipPath>
</defs>
</svg>
