<svg width="316" height="36" viewBox="0 0 316 36" fill="none" xmlns="http://www.w3.org/2000/svg">
<path d="M100.224 13V9.88L100.428 10.432L96.8636 4.6H97.8116L100.944 9.724H100.44L103.572 4.6H104.46L100.896 10.432L101.1 9.88V13H100.224ZM107.51 13.06C106.902 13.06 106.354 12.924 105.866 12.652C105.386 12.372 105.006 11.992 104.726 11.512C104.446 11.024 104.306 10.468 104.306 9.844C104.306 9.212 104.446 8.656 104.726 8.176C105.006 7.696 105.386 7.32 105.866 7.048C106.346 6.776 106.894 6.64 107.51 6.64C108.134 6.64 108.686 6.776 109.166 7.048C109.654 7.32 110.034 7.696 110.306 8.176C110.586 8.656 110.726 9.212 110.726 9.844C110.726 10.468 110.586 11.024 110.306 11.512C110.034 11.992 109.654 12.372 109.166 12.652C108.678 12.924 108.126 13.06 107.51 13.06ZM107.51 12.304C107.966 12.304 108.37 12.204 108.722 12.004C109.074 11.796 109.35 11.508 109.55 11.14C109.758 10.764 109.862 10.332 109.862 9.844C109.862 9.348 109.758 8.916 109.55 8.548C109.35 8.18 109.074 7.896 108.722 7.696C108.37 7.488 107.97 7.384 107.522 7.384C107.074 7.384 106.674 7.488 106.322 7.696C105.97 7.896 105.69 8.18 105.482 8.548C105.274 8.916 105.17 9.348 105.17 9.844C105.17 10.332 105.274 10.764 105.482 11.14C105.69 11.508 105.97 11.796 106.322 12.004C106.674 12.204 107.07 12.304 107.51 12.304ZM115.069 13.06C114.533 13.06 114.065 12.96 113.665 12.76C113.265 12.56 112.953 12.26 112.729 11.86C112.513 11.46 112.405 10.96 112.405 10.36V6.7H113.257V10.264C113.257 10.936 113.421 11.444 113.749 11.788C114.085 12.124 114.553 12.292 115.153 12.292C115.593 12.292 115.973 12.204 116.293 12.028C116.621 11.844 116.869 11.58 117.037 11.236C117.213 10.892 117.301 10.48 117.301 10V6.7H118.153V13H117.337V11.272L117.469 11.584C117.269 12.048 116.957 12.412 116.533 12.676C116.117 12.932 115.629 13.06 115.069 13.06ZM120.012 7.024L120.54 4.816L120.636 5.32C120.452 5.32 120.296 5.264 120.168 5.152C120.048 5.032 119.988 4.876 119.988 4.684C119.988 4.492 120.048 4.336 120.168 4.216C120.296 4.096 120.448 4.036 120.624 4.036C120.808 4.036 120.956 4.1 121.068 4.228C121.188 4.348 121.248 4.5 121.248 4.684C121.248 4.748 121.244 4.812 121.236 4.876C121.228 4.94 121.212 5.012 121.188 5.092C121.172 5.164 121.144 5.256 121.104 5.368L120.588 7.024H120.012ZM123.071 13V6.7H123.887V8.416L123.803 8.116C123.979 7.636 124.275 7.272 124.691 7.024C125.107 6.768 125.623 6.64 126.239 6.64V7.468C126.207 7.468 126.175 7.468 126.143 7.468C126.111 7.46 126.079 7.456 126.047 7.456C125.383 7.456 124.863 7.66 124.487 8.068C124.111 8.468 123.923 9.04 123.923 9.784V13H123.071ZM130.411 13.06C129.755 13.06 129.179 12.924 128.683 12.652C128.187 12.372 127.799 11.992 127.519 11.512C127.239 11.024 127.099 10.468 127.099 9.844C127.099 9.22 127.231 8.668 127.495 8.188C127.767 7.708 128.135 7.332 128.599 7.06C129.071 6.78 129.599 6.64 130.183 6.64C130.775 6.64 131.299 6.776 131.755 7.048C132.219 7.312 132.583 7.688 132.847 8.176C133.111 8.656 133.243 9.212 133.243 9.844C133.243 9.884 133.239 9.928 133.231 9.976C133.231 10.016 133.231 10.06 133.231 10.108H127.747V9.472H132.775L132.439 9.724C132.439 9.268 132.339 8.864 132.139 8.512C131.947 8.152 131.683 7.872 131.347 7.672C131.011 7.472 130.623 7.372 130.183 7.372C129.751 7.372 129.363 7.472 129.019 7.672C128.675 7.872 128.407 8.152 128.215 8.512C128.023 8.872 127.927 9.284 127.927 9.748V9.88C127.927 10.36 128.031 10.784 128.239 11.152C128.455 11.512 128.751 11.796 129.127 12.004C129.511 12.204 129.947 12.304 130.435 12.304C130.819 12.304 131.175 12.236 131.503 12.1C131.839 11.964 132.127 11.756 132.367 11.476L132.847 12.028C132.567 12.364 132.215 12.62 131.791 12.796C131.375 12.972 130.915 13.06 130.411 13.06ZM142.066 13V11.608L142.03 11.38V9.052C142.03 8.516 141.878 8.104 141.574 7.816C141.278 7.528 140.834 7.384 140.242 7.384C139.834 7.384 139.446 7.452 139.078 7.588C138.71 7.724 138.398 7.904 138.142 8.128L137.758 7.492C138.078 7.22 138.462 7.012 138.91 6.868C139.358 6.716 139.83 6.64 140.326 6.64C141.142 6.64 141.77 6.844 142.21 7.252C142.658 7.652 142.882 8.264 142.882 9.088V13H142.066ZM139.894 13.06C139.422 13.06 139.01 12.984 138.658 12.832C138.314 12.672 138.05 12.456 137.866 12.184C137.682 11.904 137.59 11.584 137.59 11.224C137.59 10.896 137.666 10.6 137.818 10.336C137.978 10.064 138.234 9.848 138.586 9.688C138.946 9.52 139.426 9.436 140.026 9.436H142.198V10.072H140.05C139.442 10.072 139.018 10.18 138.778 10.396C138.546 10.612 138.43 10.88 138.43 11.2C138.43 11.56 138.57 11.848 138.85 12.064C139.13 12.28 139.522 12.388 140.026 12.388C140.506 12.388 140.918 12.28 141.262 12.064C141.614 11.84 141.87 11.52 142.03 11.104L142.222 11.692C142.062 12.108 141.782 12.44 141.382 12.688C140.99 12.936 140.494 13.06 139.894 13.06ZM145.196 13V4.096H146.048V13H145.196ZM148.418 13V4.096H149.27V13H148.418ZM157.398 13.06C156.774 13.06 156.214 12.924 155.718 12.652C155.23 12.372 154.846 11.992 154.566 11.512C154.286 11.024 154.146 10.468 154.146 9.844C154.146 9.212 154.286 8.656 154.566 8.176C154.846 7.696 155.23 7.32 155.718 7.048C156.214 6.776 156.774 6.64 157.398 6.64C157.934 6.64 158.418 6.744 158.85 6.952C159.282 7.16 159.622 7.472 159.87 7.888L159.234 8.32C159.018 8 158.75 7.764 158.43 7.612C158.11 7.46 157.762 7.384 157.386 7.384C156.938 7.384 156.534 7.488 156.174 7.696C155.814 7.896 155.53 8.18 155.322 8.548C155.114 8.916 155.01 9.348 155.01 9.844C155.01 10.34 155.114 10.772 155.322 11.14C155.53 11.508 155.814 11.796 156.174 12.004C156.534 12.204 156.938 12.304 157.386 12.304C157.762 12.304 158.11 12.228 158.43 12.076C158.75 11.924 159.018 11.692 159.234 11.38L159.87 11.812C159.622 12.22 159.282 12.532 158.85 12.748C158.418 12.956 157.934 13.06 157.398 13.06ZM165.491 13V11.608L165.455 11.38V9.052C165.455 8.516 165.303 8.104 164.999 7.816C164.703 7.528 164.259 7.384 163.667 7.384C163.259 7.384 162.871 7.452 162.503 7.588C162.135 7.724 161.823 7.904 161.567 8.128L161.183 7.492C161.503 7.22 161.887 7.012 162.335 6.868C162.783 6.716 163.255 6.64 163.751 6.64C164.567 6.64 165.195 6.844 165.635 7.252C166.083 7.652 166.307 8.264 166.307 9.088V13H165.491ZM163.319 13.06C162.847 13.06 162.435 12.984 162.083 12.832C161.739 12.672 161.475 12.456 161.291 12.184C161.107 11.904 161.015 11.584 161.015 11.224C161.015 10.896 161.091 10.6 161.243 10.336C161.403 10.064 161.659 9.848 162.011 9.688C162.371 9.52 162.851 9.436 163.451 9.436H165.623V10.072H163.475C162.867 10.072 162.443 10.18 162.203 10.396C161.971 10.612 161.855 10.88 161.855 11.2C161.855 11.56 161.995 11.848 162.275 12.064C162.555 12.28 162.947 12.388 163.451 12.388C163.931 12.388 164.343 12.28 164.687 12.064C165.039 11.84 165.295 11.52 165.455 11.104L165.647 11.692C165.487 12.108 165.207 12.44 164.807 12.688C164.415 12.936 163.919 13.06 163.319 13.06ZM171.226 13.06C170.69 13.06 170.222 12.96 169.822 12.76C169.422 12.56 169.11 12.26 168.886 11.86C168.67 11.46 168.562 10.96 168.562 10.36V6.7H169.414V10.264C169.414 10.936 169.578 11.444 169.906 11.788C170.242 12.124 170.71 12.292 171.31 12.292C171.75 12.292 172.13 12.204 172.45 12.028C172.778 11.844 173.026 11.58 173.194 11.236C173.37 10.892 173.458 10.48 173.458 10V6.7H174.31V13H173.494V11.272L173.626 11.584C173.426 12.048 173.114 12.412 172.69 12.676C172.274 12.932 171.786 13.06 171.226 13.06ZM179.372 15.388C178.796 15.388 178.244 15.304 177.716 15.136C177.188 14.968 176.76 14.728 176.432 14.416L176.864 13.768C177.16 14.032 177.524 14.24 177.956 14.392C178.396 14.552 178.86 14.632 179.348 14.632C180.148 14.632 180.736 14.444 181.112 14.068C181.488 13.7 181.676 13.124 181.676 12.34V10.768L181.796 9.688L181.712 8.608V6.7H182.528V12.232C182.528 13.32 182.26 14.116 181.724 14.62C181.196 15.132 180.412 15.388 179.372 15.388ZM179.216 12.76C178.616 12.76 178.076 12.632 177.596 12.376C177.116 12.112 176.736 11.748 176.456 11.284C176.184 10.82 176.048 10.288 176.048 9.688C176.048 9.088 176.184 8.56 176.456 8.104C176.736 7.64 177.116 7.28 177.596 7.024C178.076 6.768 178.616 6.64 179.216 6.64C179.776 6.64 180.28 6.756 180.728 6.988C181.176 7.22 181.532 7.564 181.796 8.02C182.06 8.476 182.192 9.032 182.192 9.688C182.192 10.344 182.06 10.9 181.796 11.356C181.532 11.812 181.176 12.16 180.728 12.4C180.28 12.64 179.776 12.76 179.216 12.76ZM179.3 12.004C179.764 12.004 180.176 11.908 180.536 11.716C180.896 11.516 181.18 11.244 181.388 10.9C181.596 10.548 181.7 10.144 181.7 9.688C181.7 9.232 181.596 8.832 181.388 8.488C181.18 8.144 180.896 7.876 180.536 7.684C180.176 7.484 179.764 7.384 179.3 7.384C178.844 7.384 178.432 7.484 178.064 7.684C177.704 7.876 177.42 8.144 177.212 8.488C177.012 8.832 176.912 9.232 176.912 9.688C176.912 10.144 177.012 10.548 177.212 10.9C177.42 11.244 177.704 11.516 178.064 11.716C178.432 11.908 178.844 12.004 179.3 12.004ZM188.115 6.64C188.627 6.64 189.075 6.74 189.459 6.94C189.851 7.132 190.155 7.428 190.371 7.828C190.595 8.228 190.707 8.732 190.707 9.34V13H189.855V9.424C189.855 8.76 189.687 8.26 189.351 7.924C189.023 7.58 188.559 7.408 187.959 7.408C187.511 7.408 187.119 7.5 186.783 7.684C186.455 7.86 186.199 8.12 186.015 8.464C185.839 8.8 185.751 9.208 185.751 9.688V13H184.899V4.096H185.751V8.428L185.583 8.104C185.783 7.648 186.103 7.292 186.543 7.036C186.983 6.772 187.507 6.64 188.115 6.64ZM195 13.06C194.408 13.06 193.952 12.9 193.632 12.58C193.312 12.26 193.152 11.808 193.152 11.224V5.308H194.004V11.176C194.004 11.544 194.096 11.828 194.28 12.028C194.472 12.228 194.744 12.328 195.096 12.328C195.472 12.328 195.784 12.22 196.032 12.004L196.332 12.616C196.164 12.768 195.96 12.88 195.72 12.952C195.488 13.024 195.248 13.06 195 13.06ZM192.024 7.408V6.7H195.924V7.408H192.024ZM203.628 13.06C203.092 13.06 202.624 12.96 202.224 12.76C201.824 12.56 201.512 12.26 201.288 11.86C201.072 11.46 200.964 10.96 200.964 10.36V6.7H201.816V10.264C201.816 10.936 201.98 11.444 202.308 11.788C202.644 12.124 203.112 12.292 203.712 12.292C204.152 12.292 204.532 12.204 204.852 12.028C205.18 11.844 205.428 11.58 205.596 11.236C205.772 10.892 205.86 10.48 205.86 10V6.7H206.712V13H205.896V11.272L206.028 11.584C205.828 12.048 205.516 12.412 205.092 12.676C204.676 12.932 204.188 13.06 203.628 13.06ZM212.338 13.06C211.794 13.06 211.302 12.936 210.862 12.688C210.422 12.432 210.07 12.068 209.806 11.596C209.55 11.116 209.422 10.532 209.422 9.844C209.422 9.156 209.55 8.576 209.806 8.104C210.062 7.624 210.41 7.26 210.85 7.012C211.29 6.764 211.786 6.64 212.338 6.64C212.938 6.64 213.474 6.776 213.946 7.048C214.426 7.312 214.802 7.688 215.074 8.176C215.346 8.656 215.482 9.212 215.482 9.844C215.482 10.484 215.346 11.044 215.074 11.524C214.802 12.004 214.426 12.38 213.946 12.652C213.474 12.924 212.938 13.06 212.338 13.06ZM209.086 15.328V6.7H209.902V8.596L209.818 9.856L209.938 11.128V15.328H209.086ZM212.278 12.304C212.726 12.304 213.126 12.204 213.478 12.004C213.83 11.796 214.11 11.508 214.318 11.14C214.526 10.764 214.63 10.332 214.63 9.844C214.63 9.356 214.526 8.928 214.318 8.56C214.11 8.192 213.83 7.904 213.478 7.696C213.126 7.488 212.726 7.384 212.278 7.384C211.83 7.384 211.426 7.488 211.066 7.696C210.714 7.904 210.434 8.192 210.226 8.56C210.026 8.928 209.926 9.356 209.926 9.844C209.926 10.332 210.026 10.764 210.226 11.14C210.434 11.508 210.714 11.796 211.066 12.004C211.426 12.204 211.83 12.304 212.278 12.304ZM217.255 10.48L217.087 4.6H218.095L217.915 10.48H217.255ZM217.591 13.06C217.415 13.06 217.263 13 217.135 12.88C217.015 12.752 216.955 12.604 216.955 12.436C216.955 12.26 217.015 12.116 217.135 12.004C217.263 11.884 217.415 11.824 217.591 11.824C217.775 11.824 217.923 11.884 218.035 12.004C218.155 12.116 218.215 12.26 218.215 12.436C218.215 12.604 218.155 12.752 218.035 12.88C217.923 13 217.775 13.06 217.591 13.06ZM3.07227 31V23.368H0.120266V22.6H6.91227V23.368H3.96027V31H3.07227ZM11.3669 24.64C11.8789 24.64 12.3269 24.74 12.7109 24.94C13.1029 25.132 13.4069 25.428 13.6229 25.828C13.8469 26.228 13.9589 26.732 13.9589 27.34V31H13.1069V27.424C13.1069 26.76 12.9389 26.26 12.6029 25.924C12.2749 25.58 11.8109 25.408 11.2109 25.408C10.7629 25.408 10.3709 25.5 10.0349 25.684C9.70689 25.86 9.45089 26.12 9.26689 26.464C9.09089 26.8 9.00289 27.208 9.00289 27.688V31H8.15089V22.096H9.00289V26.428L8.83489 26.104C9.03489 25.648 9.35489 25.292 9.79489 25.036C10.2349 24.772 10.7589 24.64 11.3669 24.64ZM18.9363 31.06C18.2803 31.06 17.7043 30.924 17.2083 30.652C16.7123 30.372 16.3243 29.992 16.0443 29.512C15.7643 29.024 15.6243 28.468 15.6243 27.844C15.6243 27.22 15.7563 26.668 16.0203 26.188C16.2923 25.708 16.6603 25.332 17.1243 25.06C17.5963 24.78 18.1243 24.64 18.7083 24.64C19.3003 24.64 19.8243 24.776 20.2803 25.048C20.7443 25.312 21.1083 25.688 21.3723 26.176C21.6363 26.656 21.7683 27.212 21.7683 27.844C21.7683 27.884 21.7643 27.928 21.7563 27.976C21.7563 28.016 21.7563 28.06 21.7563 28.108H16.2723V27.472H21.3003L20.9643 27.724C20.9643 27.268 20.8643 26.864 20.6643 26.512C20.4723 26.152 20.2083 25.872 19.8723 25.672C19.5363 25.472 19.1483 25.372 18.7083 25.372C18.2763 25.372 17.8883 25.472 17.5443 25.672C17.2003 25.872 16.9323 26.152 16.7403 26.512C16.5483 26.872 16.4523 27.284 16.4523 27.748V27.88C16.4523 28.36 16.5563 28.784 16.7643 29.152C16.9803 29.512 17.2763 29.796 17.6523 30.004C18.0363 30.204 18.4723 30.304 18.9603 30.304C19.3443 30.304 19.7003 30.236 20.0283 30.1C20.3643 29.964 20.6523 29.756 20.8923 29.476L21.3723 30.028C21.0923 30.364 20.7403 30.62 20.3163 30.796C19.9003 30.972 19.4403 31.06 18.9363 31.06ZM23.5025 31V24.7H24.3185V26.416L24.2345 26.116C24.4105 25.636 24.7065 25.272 25.1225 25.024C25.5385 24.768 26.0545 24.64 26.6705 24.64V25.468C26.6385 25.468 26.6065 25.468 26.5745 25.468C26.5425 25.46 26.5105 25.456 26.4785 25.456C25.8145 25.456 25.2945 25.66 24.9185 26.068C24.5425 26.468 24.3545 27.04 24.3545 27.784V31H23.5025ZM30.8425 31.06C30.1865 31.06 29.6105 30.924 29.1145 30.652C28.6185 30.372 28.2305 29.992 27.9505 29.512C27.6705 29.024 27.5305 28.468 27.5305 27.844C27.5305 27.22 27.6625 26.668 27.9265 26.188C28.1985 25.708 28.5665 25.332 29.0305 25.06C29.5025 24.78 30.0305 24.64 30.6145 24.64C31.2065 24.64 31.7305 24.776 32.1865 25.048C32.6505 25.312 33.0145 25.688 33.2785 26.176C33.5425 26.656 33.6745 27.212 33.6745 27.844C33.6745 27.884 33.6705 27.928 33.6625 27.976C33.6625 28.016 33.6625 28.06 33.6625 28.108H28.1785V27.472H33.2065L32.8705 27.724C32.8705 27.268 32.7705 26.864 32.5705 26.512C32.3785 26.152 32.1145 25.872 31.7785 25.672C31.4425 25.472 31.0545 25.372 30.6145 25.372C30.1825 25.372 29.7945 25.472 29.4505 25.672C29.1065 25.872 28.8385 26.152 28.6465 26.512C28.4545 26.872 28.3585 27.284 28.3585 27.748V27.88C28.3585 28.36 28.4625 28.784 28.6705 29.152C28.8865 29.512 29.1825 29.796 29.5585 30.004C29.9425 30.204 30.3785 30.304 30.8665 30.304C31.2505 30.304 31.6065 30.236 31.9345 30.1C32.2705 29.964 32.5585 29.756 32.7985 29.476L33.2785 30.028C32.9985 30.364 32.6465 30.62 32.2225 30.796C31.8065 30.972 31.3465 31.06 30.8425 31.06ZM42.4973 31V29.608L42.4613 29.38V27.052C42.4613 26.516 42.3093 26.104 42.0053 25.816C41.7093 25.528 41.2653 25.384 40.6733 25.384C40.2653 25.384 39.8773 25.452 39.5093 25.588C39.1413 25.724 38.8293 25.904 38.5733 26.128L38.1893 25.492C38.5093 25.22 38.8933 25.012 39.3413 24.868C39.7893 24.716 40.2613 24.64 40.7573 24.64C41.5733 24.64 42.2013 24.844 42.6413 25.252C43.0893 25.652 43.3133 26.264 43.3133 27.088V31H42.4973ZM40.3253 31.06C39.8533 31.06 39.4413 30.984 39.0893 30.832C38.7453 30.672 38.4813 30.456 38.2973 30.184C38.1133 29.904 38.0213 29.584 38.0213 29.224C38.0213 28.896 38.0973 28.6 38.2493 28.336C38.4093 28.064 38.6653 27.848 39.0173 27.688C39.3773 27.52 39.8573 27.436 40.4573 27.436H42.6293V28.072H40.4813C39.8733 28.072 39.4493 28.18 39.2093 28.396C38.9773 28.612 38.8613 28.88 38.8613 29.2C38.8613 29.56 39.0013 29.848 39.2813 30.064C39.5613 30.28 39.9533 30.388 40.4573 30.388C40.9373 30.388 41.3493 30.28 41.6933 30.064C42.0453 29.84 42.3013 29.52 42.4613 29.104L42.6533 29.692C42.4933 30.108 42.2133 30.44 41.8133 30.688C41.4213 30.936 40.9253 31.06 40.3253 31.06ZM45.6275 31V24.7H46.4435V26.416L46.3595 26.116C46.5355 25.636 46.8315 25.272 47.2475 25.024C47.6635 24.768 48.1795 24.64 48.7955 24.64V25.468C48.7635 25.468 48.7315 25.468 48.6995 25.468C48.6675 25.46 48.6355 25.456 48.6035 25.456C47.9395 25.456 47.4195 25.66 47.0435 26.068C46.6675 26.468 46.4795 27.04 46.4795 27.784V31H45.6275ZM52.9675 31.06C52.3115 31.06 51.7355 30.924 51.2395 30.652C50.7435 30.372 50.3555 29.992 50.0755 29.512C49.7955 29.024 49.6555 28.468 49.6555 27.844C49.6555 27.22 49.7875 26.668 50.0515 26.188C50.3235 25.708 50.6915 25.332 51.1555 25.06C51.6275 24.78 52.1555 24.64 52.7395 24.64C53.3315 24.64 53.8555 24.776 54.3115 25.048C54.7755 25.312 55.1395 25.688 55.4035 26.176C55.6675 26.656 55.7995 27.212 55.7995 27.844C55.7995 27.884 55.7955 27.928 55.7875 27.976C55.7875 28.016 55.7875 28.06 55.7875 28.108H50.3035V27.472H55.3315L54.9955 27.724C54.9955 27.268 54.8955 26.864 54.6955 26.512C54.5035 26.152 54.2395 25.872 53.9035 25.672C53.5675 25.472 53.1795 25.372 52.7395 25.372C52.3075 25.372 51.9195 25.472 51.5755 25.672C51.2315 25.872 50.9635 26.152 50.7715 26.512C50.5795 26.872 50.4835 27.284 50.4835 27.748V27.88C50.4835 28.36 50.5875 28.784 50.7955 29.152C51.0115 29.512 51.3075 29.796 51.6835 30.004C52.0675 30.204 52.5035 30.304 52.9915 30.304C53.3755 30.304 53.7315 30.236 54.0595 30.1C54.3955 29.964 54.6835 29.756 54.9235 29.476L55.4035 30.028C55.1235 30.364 54.7715 30.62 54.3475 30.796C53.9315 30.972 53.4715 31.06 52.9675 31.06ZM63.8903 24.64C64.4023 24.64 64.8503 24.74 65.2343 24.94C65.6263 25.132 65.9303 25.428 66.1463 25.828C66.3703 26.228 66.4823 26.732 66.4823 27.34V31H65.6303V27.424C65.6303 26.76 65.4623 26.26 65.1263 25.924C64.7983 25.58 64.3343 25.408 63.7343 25.408C63.2863 25.408 62.8943 25.5 62.5583 25.684C62.2303 25.86 61.9743 26.12 61.7903 26.464C61.6143 26.8 61.5263 27.208 61.5263 27.688V31H60.6743V24.7H61.4903V26.428L61.3583 26.104C61.5583 25.648 61.8783 25.292 62.3183 25.036C62.7583 24.772 63.2823 24.64 63.8903 24.64ZM71.3517 31.06C70.7437 31.06 70.1957 30.924 69.7077 30.652C69.2277 30.372 68.8477 29.992 68.5677 29.512C68.2877 29.024 68.1477 28.468 68.1477 27.844C68.1477 27.212 68.2877 26.656 68.5677 26.176C68.8477 25.696 69.2277 25.32 69.7077 25.048C70.1877 24.776 70.7357 24.64 71.3517 24.64C71.9757 24.64 72.5277 24.776 73.0077 25.048C73.4957 25.32 73.8757 25.696 74.1477 26.176C74.4277 26.656 74.5677 27.212 74.5677 27.844C74.5677 28.468 74.4277 29.024 74.1477 29.512C73.8757 29.992 73.4957 30.372 73.0077 30.652C72.5197 30.924 71.9677 31.06 71.3517 31.06ZM71.3517 30.304C71.8077 30.304 72.2117 30.204 72.5637 30.004C72.9157 29.796 73.1917 29.508 73.3917 29.14C73.5997 28.764 73.7037 28.332 73.7037 27.844C73.7037 27.348 73.5997 26.916 73.3917 26.548C73.1917 26.18 72.9157 25.896 72.5637 25.696C72.2117 25.488 71.8117 25.384 71.3637 25.384C70.9157 25.384 70.5157 25.488 70.1637 25.696C69.8117 25.896 69.5317 26.18 69.3237 26.548C69.1157 26.916 69.0117 27.348 69.0117 27.844C69.0117 28.332 69.1157 28.764 69.3237 29.14C69.5317 29.508 69.8117 29.796 70.1637 30.004C70.5157 30.204 70.9117 30.304 71.3517 30.304ZM82.6998 31.06C82.1558 31.06 81.6638 30.936 81.2238 30.688C80.7838 30.432 80.4318 30.068 80.1678 29.596C79.9118 29.116 79.7838 28.532 79.7838 27.844C79.7838 27.156 79.9118 26.576 80.1678 26.104C80.4238 25.624 80.7718 25.26 81.2118 25.012C81.6518 24.764 82.1478 24.64 82.6998 24.64C83.2998 24.64 83.8358 24.776 84.3078 25.048C84.7878 25.312 85.1638 25.688 85.4358 26.176C85.7078 26.656 85.8438 27.212 85.8438 27.844C85.8438 28.484 85.7078 29.044 85.4358 29.524C85.1638 30.004 84.7878 30.38 84.3078 30.652C83.8358 30.924 83.2998 31.06 82.6998 31.06ZM79.4478 33.328V24.7H80.2638V26.596L80.1798 27.856L80.2998 29.128V33.328H79.4478ZM82.6398 30.304C83.0878 30.304 83.4878 30.204 83.8398 30.004C84.1918 29.796 84.4718 29.508 84.6798 29.14C84.8878 28.764 84.9918 28.332 84.9918 27.844C84.9918 27.356 84.8878 26.928 84.6798 26.56C84.4718 26.192 84.1918 25.904 83.8398 25.696C83.4878 25.488 83.0878 25.384 82.6398 25.384C82.1918 25.384 81.7878 25.488 81.4278 25.696C81.0758 25.904 80.7958 26.192 80.5878 26.56C80.3878 26.928 80.2878 27.356 80.2878 27.844C80.2878 28.332 80.3878 28.764 80.5878 29.14C80.7958 29.508 81.0758 29.796 81.4278 30.004C81.7878 30.204 82.1918 30.304 82.6398 30.304ZM90.2566 31.06C89.6006 31.06 89.0246 30.924 88.5286 30.652C88.0326 30.372 87.6446 29.992 87.3646 29.512C87.0846 29.024 86.9446 28.468 86.9446 27.844C86.9446 27.22 87.0766 26.668 87.3406 26.188C87.6126 25.708 87.9806 25.332 88.4446 25.06C88.9166 24.78 89.4446 24.64 90.0286 24.64C90.6206 24.64 91.1446 24.776 91.6006 25.048C92.0646 25.312 92.4286 25.688 92.6926 26.176C92.9566 26.656 93.0886 27.212 93.0886 27.844C93.0886 27.884 93.0846 27.928 93.0766 27.976C93.0766 28.016 93.0766 28.06 93.0766 28.108H87.5926V27.472H92.6206L92.2846 27.724C92.2846 27.268 92.1846 26.864 91.9846 26.512C91.7926 26.152 91.5286 25.872 91.1926 25.672C90.8566 25.472 90.4686 25.372 90.0286 25.372C89.5966 25.372 89.2086 25.472 88.8646 25.672C88.5206 25.872 88.2526 26.152 88.0606 26.512C87.8686 26.872 87.7726 27.284 87.7726 27.748V27.88C87.7726 28.36 87.8766 28.784 88.0846 29.152C88.3006 29.512 88.5966 29.796 88.9726 30.004C89.3566 30.204 89.7926 30.304 90.2806 30.304C90.6646 30.304 91.0206 30.236 91.3486 30.1C91.6846 29.964 91.9726 29.756 92.2126 29.476L92.6926 30.028C92.4126 30.364 92.0606 30.62 91.6366 30.796C91.2206 30.972 90.7606 31.06 90.2566 31.06ZM98.0388 24.64C98.5508 24.64 98.9988 24.74 99.3828 24.94C99.7748 25.132 100.079 25.428 100.295 25.828C100.519 26.228 100.631 26.732 100.631 27.34V31H99.7788V27.424C99.7788 26.76 99.6108 26.26 99.2748 25.924C98.9468 25.58 98.4828 25.408 97.8828 25.408C97.4348 25.408 97.0428 25.5 96.7068 25.684C96.3788 25.86 96.1228 26.12 95.9388 26.464C95.7628 26.8 95.6748 27.208 95.6748 27.688V31H94.8228V24.7H95.6388V26.428L95.5068 26.104C95.7068 25.648 96.0268 25.292 96.4668 25.036C96.9068 24.772 97.4308 24.64 98.0388 24.64ZM105.44 31.06C104.84 31.06 104.3 30.924 103.82 30.652C103.348 30.38 102.976 30.004 102.704 29.524C102.432 29.036 102.296 28.476 102.296 27.844C102.296 27.204 102.432 26.644 102.704 26.164C102.976 25.684 103.348 25.312 103.82 25.048C104.3 24.776 104.84 24.64 105.44 24.64C105.992 24.64 106.484 24.764 106.916 25.012C107.356 25.26 107.704 25.624 107.96 26.104C108.224 26.576 108.356 27.156 108.356 27.844C108.356 28.524 108.228 29.104 107.972 29.584C107.716 30.064 107.368 30.432 106.928 30.688C106.496 30.936 106 31.06 105.44 31.06ZM105.5 30.304C105.948 30.304 106.348 30.204 106.7 30.004C107.06 29.796 107.34 29.508 107.54 29.14C107.748 28.764 107.852 28.332 107.852 27.844C107.852 27.348 107.748 26.916 107.54 26.548C107.34 26.18 107.06 25.896 106.7 25.696C106.348 25.488 105.948 25.384 105.5 25.384C105.06 25.384 104.664 25.488 104.312 25.696C103.96 25.896 103.68 26.18 103.472 26.548C103.264 26.916 103.16 27.348 103.16 27.844C103.16 28.332 103.264 28.764 103.472 29.14C103.68 29.508 103.96 29.796 104.312 30.004C104.664 30.204 105.06 30.304 105.5 30.304ZM107.876 31V29.104L107.96 27.832L107.84 26.56V22.096H108.692V31H107.876ZM111.065 31V24.7H111.917V31H111.065ZM111.497 23.308C111.321 23.308 111.173 23.248 111.053 23.128C110.933 23.008 110.873 22.864 110.873 22.696C110.873 22.528 110.933 22.388 111.053 22.276C111.173 22.156 111.321 22.096 111.497 22.096C111.673 22.096 111.821 22.152 111.941 22.264C112.061 22.376 112.121 22.516 112.121 22.684C112.121 22.86 112.061 23.008 111.941 23.128C111.829 23.248 111.681 23.308 111.497 23.308ZM117.504 24.64C118.016 24.64 118.464 24.74 118.848 24.94C119.24 25.132 119.544 25.428 119.76 25.828C119.984 26.228 120.096 26.732 120.096 27.34V31H119.244V27.424C119.244 26.76 119.076 26.26 118.74 25.924C118.412 25.58 117.948 25.408 117.348 25.408C116.9 25.408 116.508 25.5 116.172 25.684C115.844 25.86 115.588 26.12 115.404 26.464C115.228 26.8 115.14 27.208 115.14 27.688V31H114.288V24.7H115.104V26.428L114.972 26.104C115.172 25.648 115.492 25.292 115.932 25.036C116.372 24.772 116.896 24.64 117.504 24.64ZM125.085 33.388C124.509 33.388 123.957 33.304 123.429 33.136C122.901 32.968 122.473 32.728 122.145 32.416L122.577 31.768C122.873 32.032 123.237 32.24 123.669 32.392C124.109 32.552 124.573 32.632 125.061 32.632C125.861 32.632 126.449 32.444 126.825 32.068C127.201 31.7 127.389 31.124 127.389 30.34V28.768L127.509 27.688L127.425 26.608V24.7H128.241V30.232C128.241 31.32 127.973 32.116 127.437 32.62C126.909 33.132 126.125 33.388 125.085 33.388ZM124.929 30.76C124.329 30.76 123.789 30.632 123.309 30.376C122.829 30.112 122.449 29.748 122.169 29.284C121.897 28.82 121.761 28.288 121.761 27.688C121.761 27.088 121.897 26.56 122.169 26.104C122.449 25.64 122.829 25.28 123.309 25.024C123.789 24.768 124.329 24.64 124.929 24.64C125.489 24.64 125.993 24.756 126.441 24.988C126.889 25.22 127.245 25.564 127.509 26.02C127.773 26.476 127.905 27.032 127.905 27.688C127.905 28.344 127.773 28.9 127.509 29.356C127.245 29.812 126.889 30.16 126.441 30.4C125.993 30.64 125.489 30.76 124.929 30.76ZM125.013 30.004C125.477 30.004 125.889 29.908 126.249 29.716C126.609 29.516 126.893 29.244 127.101 28.9C127.309 28.548 127.413 28.144 127.413 27.688C127.413 27.232 127.309 26.832 127.101 26.488C126.893 26.144 126.609 25.876 126.249 25.684C125.889 25.484 125.477 25.384 125.013 25.384C124.557 25.384 124.145 25.484 123.777 25.684C123.417 25.876 123.133 26.144 122.925 26.488C122.725 26.832 122.625 27.232 122.625 27.688C122.625 28.144 122.725 28.548 122.925 28.9C123.133 29.244 123.417 29.516 123.777 29.716C124.145 29.908 124.557 30.004 125.013 30.004ZM133.752 31V22.096H134.604V31H133.752ZM139.651 31.06C138.995 31.06 138.419 30.924 137.923 30.652C137.427 30.372 137.039 29.992 136.759 29.512C136.479 29.024 136.339 28.468 136.339 27.844C136.339 27.22 136.471 26.668 136.735 26.188C137.007 25.708 137.375 25.332 137.839 25.06C138.311 24.78 138.839 24.64 139.423 24.64C140.015 24.64 140.539 24.776 140.995 25.048C141.459 25.312 141.823 25.688 142.087 26.176C142.351 26.656 142.483 27.212 142.483 27.844C142.483 27.884 142.479 27.928 142.471 27.976C142.471 28.016 142.471 28.06 142.471 28.108H136.987V27.472H142.015L141.679 27.724C141.679 27.268 141.579 26.864 141.379 26.512C141.187 26.152 140.923 25.872 140.587 25.672C140.251 25.472 139.863 25.372 139.423 25.372C138.991 25.372 138.603 25.472 138.259 25.672C137.915 25.872 137.647 26.152 137.455 26.512C137.263 26.872 137.167 27.284 137.167 27.748V27.88C137.167 28.36 137.271 28.784 137.479 29.152C137.695 29.512 137.991 29.796 138.367 30.004C138.751 30.204 139.187 30.304 139.675 30.304C140.059 30.304 140.415 30.236 140.743 30.1C141.079 29.964 141.367 29.756 141.607 29.476L142.087 30.028C141.807 30.364 141.455 30.62 141.031 30.796C140.615 30.972 140.155 31.06 139.651 31.06ZM147.99 31V29.608L147.954 29.38V27.052C147.954 26.516 147.802 26.104 147.498 25.816C147.202 25.528 146.758 25.384 146.166 25.384C145.758 25.384 145.37 25.452 145.002 25.588C144.634 25.724 144.322 25.904 144.066 26.128L143.682 25.492C144.002 25.22 144.386 25.012 144.834 24.868C145.282 24.716 145.754 24.64 146.25 24.64C147.066 24.64 147.694 24.844 148.134 25.252C148.582 25.652 148.806 26.264 148.806 27.088V31H147.99ZM145.818 31.06C145.346 31.06 144.934 30.984 144.582 30.832C144.238 30.672 143.974 30.456 143.79 30.184C143.606 29.904 143.514 29.584 143.514 29.224C143.514 28.896 143.59 28.6 143.742 28.336C143.902 28.064 144.158 27.848 144.51 27.688C144.87 27.52 145.35 27.436 145.95 27.436H148.122V28.072H145.974C145.366 28.072 144.942 28.18 144.702 28.396C144.47 28.612 144.354 28.88 144.354 29.2C144.354 29.56 144.494 29.848 144.774 30.064C145.054 30.28 145.446 30.388 145.95 30.388C146.43 30.388 146.842 30.28 147.186 30.064C147.538 29.84 147.794 29.52 147.954 29.104L148.146 29.692C147.986 30.108 147.706 30.44 147.306 30.688C146.914 30.936 146.418 31.06 145.818 31.06ZM152.622 31L149.826 24.7H150.714L153.282 30.544H152.862L155.466 24.7H156.306L153.498 31H152.622ZM160.007 31.06C159.351 31.06 158.775 30.924 158.279 30.652C157.783 30.372 157.395 29.992 157.115 29.512C156.835 29.024 156.695 28.468 156.695 27.844C156.695 27.22 156.827 26.668 157.091 26.188C157.363 25.708 157.731 25.332 158.195 25.06C158.667 24.78 159.195 24.64 159.779 24.64C160.371 24.64 160.895 24.776 161.351 25.048C161.815 25.312 162.179 25.688 162.443 26.176C162.707 26.656 162.839 27.212 162.839 27.844C162.839 27.884 162.835 27.928 162.827 27.976C162.827 28.016 162.827 28.06 162.827 28.108H157.343V27.472H162.371L162.035 27.724C162.035 27.268 161.935 26.864 161.735 26.512C161.543 26.152 161.279 25.872 160.943 25.672C160.607 25.472 160.219 25.372 159.779 25.372C159.347 25.372 158.959 25.472 158.615 25.672C158.271 25.872 158.003 26.152 157.811 26.512C157.619 26.872 157.523 27.284 157.523 27.748V27.88C157.523 28.36 157.627 28.784 157.835 29.152C158.051 29.512 158.347 29.796 158.723 30.004C159.107 30.204 159.543 30.304 160.031 30.304C160.415 30.304 160.771 30.236 161.099 30.1C161.435 29.964 161.723 29.756 161.963 29.476L162.443 30.028C162.163 30.364 161.811 30.62 161.387 30.796C160.971 30.972 160.511 31.06 160.007 31.06ZM167.713 31V24.7H168.529V26.416L168.445 26.116C168.621 25.636 168.917 25.272 169.333 25.024C169.749 24.768 170.265 24.64 170.881 24.64V25.468C170.849 25.468 170.817 25.468 170.785 25.468C170.753 25.46 170.721 25.456 170.689 25.456C170.025 25.456 169.505 25.66 169.129 26.068C168.753 26.468 168.565 27.04 168.565 27.784V31H167.713ZM175.053 31.06C174.397 31.06 173.821 30.924 173.325 30.652C172.829 30.372 172.441 29.992 172.161 29.512C171.881 29.024 171.741 28.468 171.741 27.844C171.741 27.22 171.873 26.668 172.137 26.188C172.409 25.708 172.777 25.332 173.241 25.06C173.713 24.78 174.241 24.64 174.825 24.64C175.417 24.64 175.941 24.776 176.397 25.048C176.861 25.312 177.225 25.688 177.489 26.176C177.753 26.656 177.885 27.212 177.885 27.844C177.885 27.884 177.881 27.928 177.873 27.976C177.873 28.016 177.873 28.06 177.873 28.108H172.389V27.472H177.417L177.081 27.724C177.081 27.268 176.981 26.864 176.781 26.512C176.589 26.152 176.325 25.872 175.989 25.672C175.653 25.472 175.265 25.372 174.825 25.372C174.393 25.372 174.005 25.472 173.661 25.672C173.317 25.872 173.049 26.152 172.857 26.512C172.665 26.872 172.569 27.284 172.569 27.748V27.88C172.569 28.36 172.673 28.784 172.881 29.152C173.097 29.512 173.393 29.796 173.769 30.004C174.153 30.204 174.589 30.304 175.077 30.304C175.461 30.304 175.817 30.236 176.145 30.1C176.481 29.964 176.769 29.756 177.009 29.476L177.489 30.028C177.209 30.364 176.857 30.62 176.433 30.796C176.017 30.972 175.557 31.06 175.053 31.06ZM182.128 31.06C181.528 31.06 180.988 30.924 180.508 30.652C180.036 30.38 179.664 30.004 179.392 29.524C179.12 29.044 178.984 28.484 178.984 27.844C178.984 27.212 179.12 26.656 179.392 26.176C179.664 25.688 180.036 25.312 180.508 25.048C180.988 24.776 181.528 24.64 182.128 24.64C182.688 24.64 183.184 24.764 183.616 25.012C184.056 25.26 184.404 25.624 184.66 26.104C184.916 26.576 185.044 27.156 185.044 27.844C185.044 28.532 184.912 29.116 184.648 29.596C184.392 30.068 184.044 30.432 183.604 30.688C183.172 30.936 182.68 31.06 182.128 31.06ZM182.188 30.304C182.636 30.304 183.036 30.204 183.388 30.004C183.748 29.796 184.028 29.508 184.228 29.14C184.436 28.764 184.54 28.332 184.54 27.844C184.54 27.356 184.436 26.928 184.228 26.56C184.028 26.192 183.748 25.904 183.388 25.696C183.036 25.488 182.636 25.384 182.188 25.384C181.748 25.384 181.352 25.488 181 25.696C180.648 25.904 180.368 26.192 180.16 26.56C179.952 26.928 179.848 27.356 179.848 27.844C179.848 28.332 179.952 28.764 180.16 29.14C180.368 29.508 180.648 29.796 181 30.004C181.352 30.204 181.748 30.304 182.188 30.304ZM184.528 33.328V29.128L184.648 27.856L184.564 26.596V24.7H185.38V33.328H184.528ZM190.356 31.06C189.82 31.06 189.352 30.96 188.952 30.76C188.552 30.56 188.24 30.26 188.016 29.86C187.8 29.46 187.692 28.96 187.692 28.36V24.7H188.544V28.264C188.544 28.936 188.708 29.444 189.036 29.788C189.372 30.124 189.84 30.292 190.44 30.292C190.88 30.292 191.26 30.204 191.58 30.028C191.908 29.844 192.156 29.58 192.324 29.236C192.5 28.892 192.588 28.48 192.588 28V24.7H193.44V31H192.624V29.272L192.756 29.584C192.556 30.048 192.244 30.412 191.82 30.676C191.404 30.932 190.916 31.06 190.356 31.06ZM198.491 31.06C197.835 31.06 197.259 30.924 196.763 30.652C196.267 30.372 195.879 29.992 195.599 29.512C195.319 29.024 195.179 28.468 195.179 27.844C195.179 27.22 195.311 26.668 195.575 26.188C195.847 25.708 196.215 25.332 196.679 25.06C197.151 24.78 197.679 24.64 198.263 24.64C198.855 24.64 199.379 24.776 199.835 25.048C200.299 25.312 200.663 25.688 200.927 26.176C201.191 26.656 201.323 27.212 201.323 27.844C201.323 27.884 201.319 27.928 201.311 27.976C201.311 28.016 201.311 28.06 201.311 28.108H195.827V27.472H200.855L200.519 27.724C200.519 27.268 200.419 26.864 200.219 26.512C200.027 26.152 199.763 25.872 199.427 25.672C199.091 25.472 198.703 25.372 198.263 25.372C197.831 25.372 197.443 25.472 197.099 25.672C196.755 25.872 196.487 26.152 196.295 26.512C196.103 26.872 196.007 27.284 196.007 27.748V27.88C196.007 28.36 196.111 28.784 196.319 29.152C196.535 29.512 196.831 29.796 197.207 30.004C197.591 30.204 198.027 30.304 198.515 30.304C198.899 30.304 199.255 30.236 199.583 30.1C199.919 29.964 200.207 29.756 200.447 29.476L200.927 30.028C200.647 30.364 200.295 30.62 199.871 30.796C199.455 30.972 198.995 31.06 198.491 31.06ZM204.749 31.06C204.229 31.06 203.737 30.988 203.273 30.844C202.809 30.692 202.445 30.504 202.181 30.28L202.565 29.608C202.821 29.8 203.149 29.968 203.549 30.112C203.949 30.248 204.369 30.316 204.809 30.316C205.409 30.316 205.841 30.224 206.105 30.04C206.369 29.848 206.501 29.596 206.501 29.284C206.501 29.052 206.425 28.872 206.273 28.744C206.129 28.608 205.937 28.508 205.697 28.444C205.457 28.372 205.189 28.312 204.893 28.264C204.597 28.216 204.301 28.16 204.005 28.096C203.717 28.032 203.453 27.94 203.213 27.82C202.973 27.692 202.777 27.52 202.625 27.304C202.481 27.088 202.409 26.8 202.409 26.44C202.409 26.096 202.505 25.788 202.697 25.516C202.889 25.244 203.169 25.032 203.537 24.88C203.913 24.72 204.369 24.64 204.905 24.64C205.313 24.64 205.721 24.696 206.129 24.808C206.537 24.912 206.873 25.052 207.137 25.228L206.765 25.912C206.485 25.72 206.185 25.584 205.865 25.504C205.545 25.416 205.225 25.372 204.905 25.372C204.337 25.372 203.917 25.472 203.645 25.672C203.381 25.864 203.249 26.112 203.249 26.416C203.249 26.656 203.321 26.844 203.465 26.98C203.617 27.116 203.813 27.224 204.053 27.304C204.301 27.376 204.569 27.436 204.857 27.484C205.153 27.532 205.445 27.592 205.733 27.664C206.029 27.728 206.297 27.82 206.537 27.94C206.785 28.052 206.981 28.216 207.125 28.432C207.277 28.64 207.353 28.916 207.353 29.26C207.353 29.628 207.249 29.948 207.041 30.22C206.841 30.484 206.545 30.692 206.153 30.844C205.769 30.988 205.301 31.06 204.749 31.06ZM210.909 31.06C210.317 31.06 209.861 30.9 209.541 30.58C209.221 30.26 209.061 29.808 209.061 29.224V23.308H209.913V29.176C209.913 29.544 210.005 29.828 210.189 30.028C210.381 30.228 210.653 30.328 211.005 30.328C211.381 30.328 211.693 30.22 211.941 30.004L212.241 30.616C212.073 30.768 211.869 30.88 211.629 30.952C211.397 31.024 211.157 31.06 210.909 31.06ZM207.933 25.408V24.7H211.833V25.408H207.933ZM215.484 31.06C214.964 31.06 214.472 30.988 214.008 30.844C213.544 30.692 213.18 30.504 212.916 30.28L213.3 29.608C213.556 29.8 213.884 29.968 214.284 30.112C214.684 30.248 215.104 30.316 215.544 30.316C216.144 30.316 216.576 30.224 216.84 30.04C217.104 29.848 217.236 29.596 217.236 29.284C217.236 29.052 217.16 28.872 217.008 28.744C216.864 28.608 216.672 28.508 216.432 28.444C216.192 28.372 215.924 28.312 215.628 28.264C215.332 28.216 215.036 28.16 214.74 28.096C214.452 28.032 214.188 27.94 213.948 27.82C213.708 27.692 213.512 27.52 213.36 27.304C213.216 27.088 213.144 26.8 213.144 26.44C213.144 26.096 213.24 25.788 213.432 25.516C213.624 25.244 213.904 25.032 214.272 24.88C214.648 24.72 215.104 24.64 215.64 24.64C216.048 24.64 216.456 24.696 216.864 24.808C217.272 24.912 217.608 25.052 217.872 25.228L217.5 25.912C217.22 25.72 216.92 25.584 216.6 25.504C216.28 25.416 215.96 25.372 215.64 25.372C215.072 25.372 214.652 25.472 214.38 25.672C214.116 25.864 213.984 26.112 213.984 26.416C213.984 26.656 214.056 26.844 214.2 26.98C214.352 27.116 214.548 27.224 214.788 27.304C215.036 27.376 215.304 27.436 215.592 27.484C215.888 27.532 216.18 27.592 216.468 27.664C216.764 27.728 217.032 27.82 217.272 27.94C217.52 28.052 217.716 28.216 217.86 28.432C218.012 28.64 218.088 28.916 218.088 29.26C218.088 29.628 217.984 29.948 217.776 30.22C217.576 30.484 217.28 30.692 216.888 30.844C216.504 30.988 216.036 31.06 215.484 31.06ZM226.74 31V29.608L226.704 29.38V27.052C226.704 26.516 226.552 26.104 226.248 25.816C225.952 25.528 225.508 25.384 224.916 25.384C224.508 25.384 224.12 25.452 223.752 25.588C223.384 25.724 223.072 25.904 222.816 26.128L222.432 25.492C222.752 25.22 223.136 25.012 223.584 24.868C224.032 24.716 224.504 24.64 225 24.64C225.816 24.64 226.444 24.844 226.884 25.252C227.332 25.652 227.556 26.264 227.556 27.088V31H226.74ZM224.568 31.06C224.096 31.06 223.684 30.984 223.332 30.832C222.988 30.672 222.724 30.456 222.54 30.184C222.356 29.904 222.264 29.584 222.264 29.224C222.264 28.896 222.34 28.6 222.492 28.336C222.652 28.064 222.908 27.848 223.26 27.688C223.62 27.52 224.1 27.436 224.7 27.436H226.872V28.072H224.724C224.116 28.072 223.692 28.18 223.452 28.396C223.22 28.612 223.104 28.88 223.104 29.2C223.104 29.56 223.244 29.848 223.524 30.064C223.804 30.28 224.196 30.388 224.7 30.388C225.18 30.388 225.592 30.28 225.936 30.064C226.288 29.84 226.544 29.52 226.704 29.104L226.896 29.692C226.736 30.108 226.456 30.44 226.056 30.688C225.664 30.936 225.168 31.06 224.568 31.06ZM231.862 31.06C231.27 31.06 230.814 30.9 230.494 30.58C230.174 30.26 230.014 29.808 230.014 29.224V23.308H230.866V29.176C230.866 29.544 230.958 29.828 231.142 30.028C231.334 30.228 231.606 30.328 231.958 30.328C232.334 30.328 232.646 30.22 232.894 30.004L233.194 30.616C233.026 30.768 232.822 30.88 232.582 30.952C232.35 31.024 232.11 31.06 231.862 31.06ZM228.886 25.408V24.7H232.786V25.408H228.886ZM239.877 31.06C239.285 31.06 238.829 30.9 238.509 30.58C238.189 30.26 238.029 29.808 238.029 29.224V23.308H238.881V29.176C238.881 29.544 238.973 29.828 239.157 30.028C239.349 30.228 239.621 30.328 239.973 30.328C240.349 30.328 240.661 30.22 240.909 30.004L241.209 30.616C241.041 30.768 240.837 30.88 240.597 30.952C240.365 31.024 240.125 31.06 239.877 31.06ZM236.901 25.408V24.7H240.801V25.408H236.901ZM245.976 24.64C246.488 24.64 246.936 24.74 247.32 24.94C247.712 25.132 248.016 25.428 248.232 25.828C248.456 26.228 248.568 26.732 248.568 27.34V31H247.716V27.424C247.716 26.76 247.548 26.26 247.212 25.924C246.884 25.58 246.42 25.408 245.82 25.408C245.372 25.408 244.98 25.5 244.644 25.684C244.316 25.86 244.06 26.12 243.876 26.464C243.7 26.8 243.612 27.208 243.612 27.688V31H242.76V22.096H243.612V26.428L243.444 26.104C243.644 25.648 243.964 25.292 244.404 25.036C244.844 24.772 245.368 24.64 245.976 24.64ZM253.546 31.06C252.89 31.06 252.314 30.924 251.818 30.652C251.322 30.372 250.934 29.992 250.654 29.512C250.374 29.024 250.234 28.468 250.234 27.844C250.234 27.22 250.366 26.668 250.63 26.188C250.902 25.708 251.27 25.332 251.734 25.06C252.206 24.78 252.734 24.64 253.318 24.64C253.91 24.64 254.434 24.776 254.89 25.048C255.354 25.312 255.718 25.688 255.982 26.176C256.246 26.656 256.378 27.212 256.378 27.844C256.378 27.884 256.374 27.928 256.366 27.976C256.366 28.016 256.366 28.06 256.366 28.108H250.882V27.472H255.91L255.574 27.724C255.574 27.268 255.474 26.864 255.274 26.512C255.082 26.152 254.818 25.872 254.482 25.672C254.146 25.472 253.758 25.372 253.318 25.372C252.886 25.372 252.498 25.472 252.154 25.672C251.81 25.872 251.542 26.152 251.35 26.512C251.158 26.872 251.062 27.284 251.062 27.748V27.88C251.062 28.36 251.166 28.784 251.374 29.152C251.59 29.512 251.886 29.796 252.262 30.004C252.646 30.204 253.082 30.304 253.57 30.304C253.954 30.304 254.31 30.236 254.638 30.1C254.974 29.964 255.262 29.756 255.502 29.476L255.982 30.028C255.702 30.364 255.35 30.62 254.926 30.796C254.51 30.972 254.05 31.06 253.546 31.06ZM269.124 24.64C269.636 24.64 270.08 24.74 270.456 24.94C270.84 25.132 271.136 25.428 271.344 25.828C271.56 26.228 271.668 26.732 271.668 27.34V31H270.816V27.424C270.816 26.76 270.656 26.26 270.336 25.924C270.024 25.58 269.58 25.408 269.004 25.408C268.572 25.408 268.196 25.5 267.876 25.684C267.564 25.86 267.32 26.12 267.144 26.464C266.976 26.8 266.892 27.208 266.892 27.688V31H266.04V27.424C266.04 26.76 265.88 26.26 265.56 25.924C265.24 25.58 264.792 25.408 264.216 25.408C263.792 25.408 263.42 25.5 263.1 25.684C262.78 25.86 262.532 26.12 262.356 26.464C262.188 26.8 262.104 27.208 262.104 27.688V31H261.252V24.7H262.068V26.404L261.936 26.104C262.128 25.648 262.436 25.292 262.86 25.036C263.292 24.772 263.8 24.64 264.384 24.64C265 24.64 265.524 24.796 265.956 25.108C266.388 25.412 266.668 25.872 266.796 26.488L266.46 26.356C266.644 25.844 266.968 25.432 267.432 25.12C267.904 24.8 268.468 24.64 269.124 24.64ZM276.547 31.06C275.939 31.06 275.391 30.924 274.903 30.652C274.423 30.372 274.043 29.992 273.763 29.512C273.483 29.024 273.343 28.468 273.343 27.844C273.343 27.212 273.483 26.656 273.763 26.176C274.043 25.696 274.423 25.32 274.903 25.048C275.383 24.776 275.931 24.64 276.547 24.64C277.171 24.64 277.723 24.776 278.203 25.048C278.691 25.32 279.071 25.696 279.343 26.176C279.623 26.656 279.763 27.212 279.763 27.844C279.763 28.468 279.623 29.024 279.343 29.512C279.071 29.992 278.691 30.372 278.203 30.652C277.715 30.924 277.163 31.06 276.547 31.06ZM276.547 30.304C277.003 30.304 277.407 30.204 277.759 30.004C278.111 29.796 278.387 29.508 278.587 29.14C278.795 28.764 278.899 28.332 278.899 27.844C278.899 27.348 278.795 26.916 278.587 26.548C278.387 26.18 278.111 25.896 277.759 25.696C277.407 25.488 277.007 25.384 276.559 25.384C276.111 25.384 275.711 25.488 275.359 25.696C275.007 25.896 274.727 26.18 274.519 26.548C274.311 26.916 274.207 27.348 274.207 27.844C274.207 28.332 274.311 28.764 274.519 29.14C274.727 29.508 275.007 29.796 275.359 30.004C275.711 30.204 276.107 30.304 276.547 30.304ZM289.374 24.64C289.886 24.64 290.33 24.74 290.706 24.94C291.09 25.132 291.386 25.428 291.594 25.828C291.81 26.228 291.918 26.732 291.918 27.34V31H291.066V27.424C291.066 26.76 290.906 26.26 290.586 25.924C290.274 25.58 289.83 25.408 289.254 25.408C288.822 25.408 288.446 25.5 288.126 25.684C287.814 25.86 287.57 26.12 287.394 26.464C287.226 26.8 287.142 27.208 287.142 27.688V31H286.29V27.424C286.29 26.76 286.13 26.26 285.81 25.924C285.49 25.58 285.042 25.408 284.466 25.408C284.042 25.408 283.67 25.5 283.35 25.684C283.03 25.86 282.782 26.12 282.606 26.464C282.438 26.8 282.354 27.208 282.354 27.688V31H281.502V24.7H282.318V26.404L282.186 26.104C282.378 25.648 282.686 25.292 283.11 25.036C283.542 24.772 284.05 24.64 284.634 24.64C285.25 24.64 285.774 24.796 286.206 25.108C286.638 25.412 286.918 25.872 287.046 26.488L286.71 26.356C286.894 25.844 287.218 25.432 287.682 25.12C288.154 24.8 288.718 24.64 289.374 24.64ZM296.905 31.06C296.249 31.06 295.673 30.924 295.177 30.652C294.681 30.372 294.293 29.992 294.013 29.512C293.733 29.024 293.593 28.468 293.593 27.844C293.593 27.22 293.725 26.668 293.989 26.188C294.261 25.708 294.629 25.332 295.093 25.06C295.565 24.78 296.093 24.64 296.677 24.64C297.269 24.64 297.793 24.776 298.249 25.048C298.713 25.312 299.077 25.688 299.341 26.176C299.605 26.656 299.737 27.212 299.737 27.844C299.737 27.884 299.733 27.928 299.725 27.976C299.725 28.016 299.725 28.06 299.725 28.108H294.241V27.472H299.269L298.933 27.724C298.933 27.268 298.833 26.864 298.633 26.512C298.441 26.152 298.177 25.872 297.841 25.672C297.505 25.472 297.117 25.372 296.677 25.372C296.245 25.372 295.857 25.472 295.513 25.672C295.169 25.872 294.901 26.152 294.709 26.512C294.517 26.872 294.421 27.284 294.421 27.748V27.88C294.421 28.36 294.525 28.784 294.733 29.152C294.949 29.512 295.245 29.796 295.621 30.004C296.005 30.204 296.441 30.304 296.929 30.304C297.313 30.304 297.669 30.236 297.997 30.1C298.333 29.964 298.621 29.756 298.861 29.476L299.341 30.028C299.061 30.364 298.709 30.62 298.285 30.796C297.869 30.972 297.409 31.06 296.905 31.06ZM304.687 24.64C305.199 24.64 305.647 24.74 306.031 24.94C306.423 25.132 306.727 25.428 306.943 25.828C307.167 26.228 307.279 26.732 307.279 27.34V31H306.427V27.424C306.427 26.76 306.259 26.26 305.923 25.924C305.595 25.58 305.131 25.408 304.531 25.408C304.083 25.408 303.691 25.5 303.355 25.684C303.027 25.86 302.771 26.12 302.587 26.464C302.411 26.8 302.323 27.208 302.323 27.688V31H301.471V24.7H302.287V26.428L302.155 26.104C302.355 25.648 302.675 25.292 303.115 25.036C303.555 24.772 304.079 24.64 304.687 24.64ZM311.573 31.06C310.981 31.06 310.525 30.9 310.205 30.58C309.885 30.26 309.725 29.808 309.725 29.224V23.308H310.577V29.176C310.577 29.544 310.669 29.828 310.853 30.028C311.045 30.228 311.317 30.328 311.669 30.328C312.045 30.328 312.357 30.22 312.605 30.004L312.905 30.616C312.737 30.768 312.533 30.88 312.293 30.952C312.061 31.024 311.821 31.06 311.573 31.06ZM308.597 25.408V24.7H312.497V25.408H308.597ZM314.657 31.06C314.481 31.06 314.329 30.996 314.201 30.868C314.081 30.74 314.021 30.584 314.021 30.4C314.021 30.208 314.081 30.052 314.201 29.932C314.329 29.812 314.481 29.752 314.657 29.752C314.833 29.752 314.981 29.812 315.101 29.932C315.229 30.052 315.293 30.208 315.293 30.4C315.293 30.584 315.229 30.74 315.101 30.868C314.981 30.996 314.833 31.06 314.657 31.06Z" fill="#2D3439"/>
</svg>
