<svg width="284" height="163" viewBox="0 0 284 163" fill="none" xmlns="http://www.w3.org/2000/svg">
<g clip-path="url(#clip0_2741_14137)">
<path d="M155.814 22.4898H128.209C127.58 22.4905 126.977 22.7408 126.532 23.1856C126.088 23.6304 125.837 24.2335 125.837 24.8625V86.2143L125.52 86.3108L118.748 88.3846C118.427 88.4825 118.081 88.449 117.785 88.2915C117.488 88.134 117.267 87.8654 117.168 87.5447L97.0249 21.7479C96.9269 21.4269 96.9603 21.0802 97.1178 20.7839C97.2753 20.4876 97.5441 20.2659 97.8649 20.1676L108.3 16.9723L138.553 7.71217L148.988 4.51685C149.147 4.46797 149.314 4.45089 149.48 4.46659C149.645 4.48228 149.806 4.53044 149.953 4.60832C150.099 4.68619 150.229 4.79224 150.335 4.9204C150.441 5.04857 150.52 5.19633 150.569 5.35523L155.718 22.1734L155.814 22.4898Z" fill="#F2F2F2"/>
<path d="M161.838 22.173L155.632 1.90325C155.529 1.56552 155.36 1.25144 155.136 0.978966C154.911 0.70649 154.635 0.480956 154.323 0.315252C154.011 0.149547 153.67 0.0469175 153.318 0.0132324C152.967 -0.0204528 152.612 0.0154662 152.274 0.118933L137.603 4.60979L107.351 13.8715L92.6798 18.3639C91.9982 18.5732 91.4275 19.0444 91.093 19.674C90.7585 20.3036 90.6874 21.0402 90.8954 21.7222L112.105 90.9958C112.274 91.5463 112.615 92.0282 113.078 92.3706C113.541 92.7131 114.101 92.8982 114.677 92.8988C114.943 92.8989 115.208 92.8589 115.463 92.7802L125.52 89.7019L125.837 89.6038V89.2732L125.52 89.3697L115.37 92.478C114.768 92.6614 114.118 92.5987 113.563 92.3036C113.007 92.0086 112.592 91.5053 112.407 90.9041L91.1992 21.6288C91.1076 21.331 91.0757 21.018 91.1053 20.7077C91.1349 20.3975 91.2253 20.0962 91.3715 19.8209C91.5177 19.5457 91.7168 19.3021 91.9573 19.1039C92.1978 18.9057 92.475 18.7569 92.7731 18.666L107.445 14.1736L137.696 4.9135L152.367 0.421068C152.594 0.352068 152.829 0.316886 153.065 0.316666C153.572 0.317805 154.066 0.481361 154.474 0.783377C154.881 1.08539 155.181 1.51 155.33 1.995L161.507 22.173L161.605 22.4894H161.934L161.838 22.173Z" fill="#3F3D56"/>
<path d="M110.184 20.219C109.879 20.2188 109.582 20.1208 109.337 19.9396C109.092 19.7583 108.911 19.5033 108.822 19.2119L106.784 12.5568C106.729 12.378 106.71 12.1902 106.728 12.0041C106.746 11.818 106.8 11.6372 106.888 11.4721C106.976 11.307 107.095 11.1608 107.239 11.0418C107.384 10.9228 107.55 10.8334 107.729 10.7787L135.559 2.25834C135.92 2.14817 136.31 2.18574 136.644 2.36281C136.977 2.53988 137.227 2.84198 137.338 3.20281L139.375 9.85798C139.485 10.219 139.448 10.609 139.27 10.9423C139.093 11.2757 138.791 11.5252 138.431 11.6361L110.6 20.1565C110.465 20.1979 110.325 20.2189 110.184 20.219Z" fill="#5662AC"/>
<path d="M120.857 7.11155C122.604 7.11155 124.021 5.69512 124.021 3.94787C124.021 2.20061 122.604 0.78418 120.857 0.78418C119.11 0.78418 117.693 2.20061 117.693 3.94787C117.693 5.69512 119.11 7.11155 120.857 7.11155Z" fill="#5662AC"/>
<path d="M120.857 5.95103C121.963 5.95103 122.86 5.0541 122.86 3.94768C122.86 2.84126 121.963 1.94434 120.857 1.94434C119.75 1.94434 118.854 2.84126 118.854 3.94768C118.854 5.0541 119.75 5.95103 120.857 5.95103Z" fill="white"/>
<path d="M186.105 92.0907H132.639C132.282 92.0903 131.94 91.9485 131.688 91.6964C131.436 91.4444 131.294 91.1026 131.294 90.7461V26.6815C131.294 26.325 131.436 25.9832 131.688 25.7312C131.94 25.4791 132.282 25.3373 132.639 25.3369H186.105C186.461 25.3373 186.803 25.4791 187.055 25.7312C187.307 25.9832 187.449 26.325 187.449 26.6815V90.7461C187.449 91.1026 187.307 91.4444 187.055 91.6964C186.803 91.9485 186.461 92.0903 186.105 92.0907Z" fill="#E6E6E6"/>
<path d="M161.507 22.1729H128.21C127.497 22.1739 126.813 22.4575 126.309 22.9616C125.805 23.4657 125.522 24.1491 125.521 24.862V89.3696L125.837 89.2731V24.862C125.838 24.2329 126.088 23.6298 126.533 23.185C126.978 22.7402 127.581 22.49 128.21 22.4892H161.606L161.507 22.1729ZM190.534 22.1729H128.21C127.497 22.1739 126.813 22.4575 126.309 22.9616C125.805 23.4657 125.522 24.1491 125.521 24.862V97.3104C125.522 98.0233 125.805 98.7067 126.309 99.2108C126.813 99.7149 127.497 99.9985 128.21 99.9995H190.534C191.247 99.9985 191.931 99.7149 192.435 99.2108C192.939 98.7067 193.222 98.0233 193.223 97.3104V24.862C193.222 24.1491 192.939 23.4657 192.435 22.9616C191.931 22.4575 191.247 22.1739 190.534 22.1729ZM192.907 97.3104C192.906 97.9395 192.656 98.5426 192.211 98.9874C191.766 99.4322 191.163 99.6824 190.534 99.6832H128.21C127.581 99.6824 126.978 99.4322 126.533 98.9874C126.088 98.5426 125.838 97.9395 125.837 97.3104V24.862C125.838 24.2329 126.088 23.6298 126.533 23.185C126.978 22.7402 127.581 22.49 128.21 22.4892H190.534C191.163 22.49 191.766 22.7402 192.211 23.185C192.656 23.6298 192.906 24.2329 192.907 24.862V97.3104Z" fill="#3F3D56"/>
<path d="M173.925 29.1336H144.819C144.442 29.1332 144.08 28.983 143.813 28.7162C143.546 28.4493 143.396 28.0874 143.396 27.7099V20.7498C143.396 20.3724 143.546 20.0105 143.813 19.7436C144.08 19.4767 144.442 19.3266 144.819 19.3262H173.925C174.303 19.3266 174.664 19.4767 174.931 19.7436C175.198 20.0105 175.348 20.3724 175.349 20.7498V27.7099C175.348 28.0874 175.198 28.4493 174.931 28.7162C174.664 28.983 174.303 29.1332 173.925 29.1336Z" fill="#5662AC"/>
<path d="M159.372 19.801C161.119 19.801 162.535 18.3846 162.535 16.6373C162.535 14.8901 161.119 13.4736 159.372 13.4736C157.624 13.4736 156.208 14.8901 156.208 16.6373C156.208 18.3846 157.624 19.801 159.372 19.801Z" fill="#5662AC"/>
<path d="M159.372 18.5639C160.437 18.5639 161.299 17.7012 161.299 16.6369C161.299 15.5727 160.437 14.71 159.372 14.71C158.308 14.71 157.445 15.5727 157.445 16.6369C157.445 17.7012 158.308 18.5639 159.372 18.5639Z" fill="white"/>
</g>
<path d="M80.2818 132V122.2H81.7798L87.9258 129.746H87.1838V122.2H88.9898V132H87.4918L81.3458 124.454H82.0878V132H80.2818ZM94.8078 132.098C94.0425 132.098 93.3611 131.935 92.7638 131.608C92.1665 131.272 91.6951 130.815 91.3498 130.236C91.0045 129.657 90.8318 128.999 90.8318 128.262C90.8318 127.515 91.0045 126.857 91.3498 126.288C91.6951 125.709 92.1665 125.257 92.7638 124.93C93.3611 124.603 94.0425 124.44 94.8078 124.44C95.5825 124.44 96.2685 124.603 96.8658 124.93C97.4725 125.257 97.9438 125.705 98.2798 126.274C98.6251 126.843 98.7978 127.506 98.7978 128.262C98.7978 128.999 98.6251 129.657 98.2798 130.236C97.9438 130.815 97.4725 131.272 96.8658 131.608C96.2685 131.935 95.5825 132.098 94.8078 132.098ZM94.8078 130.6C95.2371 130.6 95.6198 130.507 95.9558 130.32C96.2918 130.133 96.5531 129.863 96.7398 129.508C96.9358 129.153 97.0338 128.738 97.0338 128.262C97.0338 127.777 96.9358 127.361 96.7398 127.016C96.5531 126.661 96.2918 126.391 95.9558 126.204C95.6198 126.017 95.2418 125.924 94.8218 125.924C94.3925 125.924 94.0098 126.017 93.6738 126.204C93.3471 126.391 93.0858 126.661 92.8898 127.016C92.6938 127.361 92.5958 127.777 92.5958 128.262C92.5958 128.738 92.6938 129.153 92.8898 129.508C93.0858 129.863 93.3471 130.133 93.6738 130.32C94.0098 130.507 94.3878 130.6 94.8078 130.6ZM107.504 132.098C106.786 132.098 106.137 131.939 105.558 131.622C104.989 131.295 104.541 130.847 104.214 130.278C103.888 129.709 103.724 129.037 103.724 128.262C103.724 127.487 103.888 126.815 104.214 126.246C104.541 125.677 104.989 125.233 105.558 124.916C106.137 124.599 106.786 124.44 107.504 124.44C108.13 124.44 108.69 124.58 109.184 124.86C109.679 125.131 110.071 125.546 110.36 126.106C110.65 126.666 110.794 127.385 110.794 128.262C110.794 129.13 110.654 129.849 110.374 130.418C110.094 130.978 109.707 131.398 109.212 131.678C108.718 131.958 108.148 132.098 107.504 132.098ZM107.714 130.6C108.134 130.6 108.508 130.507 108.834 130.32C109.17 130.133 109.436 129.863 109.632 129.508C109.838 129.153 109.94 128.738 109.94 128.262C109.94 127.777 109.838 127.361 109.632 127.016C109.436 126.661 109.17 126.391 108.834 126.204C108.508 126.017 108.134 125.924 107.714 125.924C107.294 125.924 106.916 126.017 106.58 126.204C106.254 126.391 105.988 126.661 105.782 127.016C105.586 127.361 105.488 127.777 105.488 128.262C105.488 128.738 105.586 129.153 105.782 129.508C105.988 129.863 106.254 130.133 106.58 130.32C106.916 130.507 107.294 130.6 107.714 130.6ZM109.982 132V130.236L110.052 128.248L109.912 126.26V121.612H111.648V132H109.982ZM118.558 132V130.488L118.46 130.166V127.52C118.46 127.007 118.306 126.61 117.998 126.33C117.69 126.041 117.223 125.896 116.598 125.896C116.178 125.896 115.762 125.961 115.352 126.092C114.95 126.223 114.61 126.405 114.33 126.638L113.644 125.364C114.045 125.056 114.521 124.827 115.072 124.678C115.632 124.519 116.21 124.44 116.808 124.44C117.89 124.44 118.726 124.701 119.314 125.224C119.911 125.737 120.21 126.535 120.21 127.618V132H118.558ZM116.206 132.098C115.646 132.098 115.156 132.005 114.736 131.818C114.316 131.622 113.989 131.356 113.756 131.02C113.532 130.675 113.42 130.287 113.42 129.858C113.42 129.438 113.518 129.06 113.714 128.724C113.919 128.388 114.25 128.122 114.708 127.926C115.165 127.73 115.772 127.632 116.528 127.632H118.698V128.794H116.654C116.056 128.794 115.655 128.892 115.45 129.088C115.244 129.275 115.142 129.508 115.142 129.788C115.142 130.105 115.268 130.357 115.52 130.544C115.772 130.731 116.122 130.824 116.57 130.824C116.999 130.824 117.382 130.726 117.718 130.53C118.063 130.334 118.31 130.045 118.46 129.662L118.754 130.712C118.586 131.151 118.282 131.491 117.844 131.734C117.414 131.977 116.868 132.098 116.206 132.098ZM125.27 132.098C124.448 132.098 123.814 131.888 123.366 131.468C122.918 131.039 122.694 130.409 122.694 129.578V122.872H124.444V129.536C124.444 129.891 124.532 130.166 124.71 130.362C124.896 130.558 125.153 130.656 125.48 130.656C125.872 130.656 126.198 130.553 126.46 130.348L126.95 131.594C126.744 131.762 126.492 131.888 126.194 131.972C125.895 132.056 125.587 132.098 125.27 132.098ZM121.462 125.98V124.58H126.446V125.98H121.462ZM132.995 132V130.488L132.897 130.166V127.52C132.897 127.007 132.743 126.61 132.435 126.33C132.127 126.041 131.661 125.896 131.035 125.896C130.615 125.896 130.2 125.961 129.789 126.092C129.388 126.223 129.047 126.405 128.767 126.638L128.081 125.364C128.483 125.056 128.959 124.827 129.509 124.678C130.069 124.519 130.648 124.44 131.245 124.44C132.328 124.44 133.163 124.701 133.751 125.224C134.349 125.737 134.647 126.535 134.647 127.618V132H132.995ZM130.643 132.098C130.083 132.098 129.593 132.005 129.173 131.818C128.753 131.622 128.427 131.356 128.193 131.02C127.969 130.675 127.857 130.287 127.857 129.858C127.857 129.438 127.955 129.06 128.151 128.724C128.357 128.388 128.688 128.122 129.145 127.926C129.603 127.73 130.209 127.632 130.965 127.632H133.135V128.794H131.091C130.494 128.794 130.093 128.892 129.887 129.088C129.682 129.275 129.579 129.508 129.579 129.788C129.579 130.105 129.705 130.357 129.957 130.544C130.209 130.731 130.559 130.824 131.007 130.824C131.437 130.824 131.819 130.726 132.155 130.53C132.501 130.334 132.748 130.045 132.897 129.662L133.191 130.712C133.023 131.151 132.72 131.491 132.281 131.734C131.852 131.977 131.306 132.098 130.643 132.098ZM139.544 132L143.954 122.2H145.746L150.17 132H148.266L144.472 123.166H145.2L141.42 132H139.544ZM141.574 129.732L142.064 128.304H147.356L147.846 129.732H141.574ZM152.854 132L149.648 124.524H151.468L154.226 131.118H153.33L156.186 124.524H157.866L154.66 132H152.854ZM163.333 132V130.488L163.235 130.166V127.52C163.235 127.007 163.081 126.61 162.773 126.33C162.465 126.041 161.998 125.896 161.373 125.896C160.953 125.896 160.538 125.961 160.127 126.092C159.726 126.223 159.385 126.405 159.105 126.638L158.419 125.364C158.82 125.056 159.296 124.827 159.847 124.678C160.407 124.519 160.986 124.44 161.583 124.44C162.666 124.44 163.501 124.701 164.089 125.224C164.686 125.737 164.985 126.535 164.985 127.618V132H163.333ZM160.981 132.098C160.421 132.098 159.931 132.005 159.511 131.818C159.091 131.622 158.764 131.356 158.531 131.02C158.307 130.675 158.195 130.287 158.195 129.858C158.195 129.438 158.293 129.06 158.489 128.724C158.694 128.388 159.026 128.122 159.483 127.926C159.94 127.73 160.547 127.632 161.303 127.632H163.473V128.794H161.429C160.832 128.794 160.43 128.892 160.225 129.088C160.02 129.275 159.917 129.508 159.917 129.788C159.917 130.105 160.043 130.357 160.295 130.544C160.547 130.731 160.897 130.824 161.345 130.824C161.774 130.824 162.157 130.726 162.493 130.53C162.838 130.334 163.086 130.045 163.235 129.662L163.529 130.712C163.361 131.151 163.058 131.491 162.619 131.734C162.19 131.977 161.644 132.098 160.981 132.098ZM167.231 132V124.524H168.981V132H167.231ZM168.113 123.292C167.786 123.292 167.516 123.189 167.301 122.984C167.096 122.779 166.993 122.531 166.993 122.242C166.993 121.943 167.096 121.696 167.301 121.5C167.516 121.295 167.786 121.192 168.113 121.192C168.44 121.192 168.706 121.29 168.911 121.486C169.126 121.673 169.233 121.911 169.233 122.2C169.233 122.508 169.13 122.769 168.925 122.984C168.72 123.189 168.449 123.292 168.113 123.292ZM171.278 132V121.612H173.028V132H171.278ZM179.931 132V130.488L179.833 130.166V127.52C179.833 127.007 179.679 126.61 179.371 126.33C179.063 126.041 178.596 125.896 177.971 125.896C177.551 125.896 177.135 125.961 176.725 126.092C176.323 126.223 175.983 126.405 175.703 126.638L175.017 125.364C175.418 125.056 175.894 124.827 176.445 124.678C177.005 124.519 177.583 124.44 178.181 124.44C179.263 124.44 180.099 124.701 180.687 125.224C181.284 125.737 181.583 126.535 181.583 127.618V132H179.931ZM177.579 132.098C177.019 132.098 176.529 132.005 176.109 131.818C175.689 131.622 175.362 131.356 175.129 131.02C174.905 130.675 174.793 130.287 174.793 129.858C174.793 129.438 174.891 129.06 175.087 128.724C175.292 128.388 175.623 128.122 176.081 127.926C176.538 127.73 177.145 127.632 177.901 127.632H180.071V128.794H178.027C177.429 128.794 177.028 128.892 176.823 129.088C176.617 129.275 176.515 129.508 176.515 129.788C176.515 130.105 176.641 130.357 176.893 130.544C177.145 130.731 177.495 130.824 177.943 130.824C178.372 130.824 178.755 130.726 179.091 130.53C179.436 130.334 179.683 130.045 179.833 129.662L180.127 130.712C179.959 131.151 179.655 131.491 179.217 131.734C178.787 131.977 178.241 132.098 177.579 132.098ZM187.973 132.098C187.338 132.098 186.773 131.958 186.279 131.678C185.784 131.398 185.392 130.978 185.103 130.418C184.823 129.849 184.683 129.13 184.683 128.262C184.683 127.385 184.827 126.666 185.117 126.106C185.415 125.546 185.812 125.131 186.307 124.86C186.811 124.58 187.366 124.44 187.973 124.44C188.71 124.44 189.359 124.599 189.919 124.916C190.488 125.233 190.936 125.677 191.263 126.246C191.599 126.815 191.767 127.487 191.767 128.262C191.767 129.037 191.599 129.709 191.263 130.278C190.936 130.847 190.488 131.295 189.919 131.622C189.359 131.939 188.71 132.098 187.973 132.098ZM183.829 132V121.612H185.579V126.26L185.439 128.248L185.495 130.236V132H183.829ZM187.777 130.6C188.197 130.6 188.57 130.507 188.897 130.32C189.233 130.133 189.499 129.863 189.695 129.508C189.891 129.153 189.989 128.738 189.989 128.262C189.989 127.777 189.891 127.361 189.695 127.016C189.499 126.661 189.233 126.391 188.897 126.204C188.57 126.017 188.197 125.924 187.777 125.924C187.357 125.924 186.979 126.017 186.643 126.204C186.307 126.391 186.041 126.661 185.845 127.016C185.649 127.361 185.551 127.777 185.551 128.262C185.551 128.738 185.649 129.153 185.845 129.508C186.041 129.863 186.307 130.133 186.643 130.32C186.979 130.507 187.357 130.6 187.777 130.6ZM193.426 132V121.612H195.176V132H193.426ZM200.987 132.098C200.157 132.098 199.429 131.935 198.803 131.608C198.187 131.272 197.707 130.815 197.361 130.236C197.025 129.657 196.857 128.999 196.857 128.262C196.857 127.515 197.021 126.857 197.347 126.288C197.683 125.709 198.141 125.257 198.719 124.93C199.307 124.603 199.975 124.44 200.721 124.44C201.449 124.44 202.098 124.599 202.667 124.916C203.237 125.233 203.685 125.681 204.011 126.26C204.338 126.839 204.501 127.52 204.501 128.304C204.501 128.379 204.497 128.463 204.487 128.556C204.487 128.649 204.483 128.738 204.473 128.822H198.243V127.66H203.549L202.863 128.024C202.873 127.595 202.784 127.217 202.597 126.89C202.411 126.563 202.154 126.307 201.827 126.12C201.51 125.933 201.141 125.84 200.721 125.84C200.292 125.84 199.914 125.933 199.587 126.12C199.27 126.307 199.018 126.568 198.831 126.904C198.654 127.231 198.565 127.618 198.565 128.066V128.346C198.565 128.794 198.668 129.191 198.873 129.536C199.079 129.881 199.368 130.147 199.741 130.334C200.115 130.521 200.544 130.614 201.029 130.614C201.449 130.614 201.827 130.549 202.163 130.418C202.499 130.287 202.798 130.082 203.059 129.802L203.997 130.88C203.661 131.272 203.237 131.575 202.723 131.79C202.219 131.995 201.641 132.098 200.987 132.098Z" fill="#2D3439"/>
<path d="M35.2603 158L39.1003 149.6H39.9763L43.8163 158H42.8803L39.3523 150.116H39.7123L36.1843 158H35.2603ZM36.7723 155.756L37.0363 155.036H41.9203L42.1843 155.756H36.7723ZM46.6593 158.06C46.1393 158.06 45.6473 157.988 45.1833 157.844C44.7193 157.692 44.3553 157.504 44.0913 157.28L44.4753 156.608C44.7313 156.8 45.0593 156.968 45.4593 157.112C45.8593 157.248 46.2793 157.316 46.7193 157.316C47.3193 157.316 47.7513 157.224 48.0153 157.04C48.2793 156.848 48.4113 156.596 48.4113 156.284C48.4113 156.052 48.3353 155.872 48.1833 155.744C48.0393 155.608 47.8473 155.508 47.6073 155.444C47.3673 155.372 47.0993 155.312 46.8033 155.264C46.5073 155.216 46.2113 155.16 45.9153 155.096C45.6273 155.032 45.3633 154.94 45.1233 154.82C44.8833 154.692 44.6873 154.52 44.5353 154.304C44.3913 154.088 44.3193 153.8 44.3193 153.44C44.3193 153.096 44.4153 152.788 44.6073 152.516C44.7993 152.244 45.0793 152.032 45.4473 151.88C45.8233 151.72 46.2793 151.64 46.8153 151.64C47.2233 151.64 47.6313 151.696 48.0393 151.808C48.4473 151.912 48.7833 152.052 49.0473 152.228L48.6753 152.912C48.3953 152.72 48.0953 152.584 47.7753 152.504C47.4553 152.416 47.1353 152.372 46.8153 152.372C46.2473 152.372 45.8273 152.472 45.5553 152.672C45.2913 152.864 45.1593 153.112 45.1593 153.416C45.1593 153.656 45.2313 153.844 45.3753 153.98C45.5273 154.116 45.7233 154.224 45.9633 154.304C46.2113 154.376 46.4793 154.436 46.7673 154.484C47.0633 154.532 47.3553 154.592 47.6433 154.664C47.9393 154.728 48.2073 154.82 48.4473 154.94C48.6953 155.052 48.8913 155.216 49.0353 155.432C49.1873 155.64 49.2633 155.916 49.2633 156.26C49.2633 156.628 49.1593 156.948 48.9513 157.22C48.7513 157.484 48.4553 157.692 48.0633 157.844C47.6793 157.988 47.2113 158.06 46.6593 158.06ZM52.5187 158.06C51.9987 158.06 51.5067 157.988 51.0427 157.844C50.5787 157.692 50.2147 157.504 49.9507 157.28L50.3347 156.608C50.5907 156.8 50.9187 156.968 51.3187 157.112C51.7187 157.248 52.1387 157.316 52.5787 157.316C53.1787 157.316 53.6107 157.224 53.8747 157.04C54.1387 156.848 54.2707 156.596 54.2707 156.284C54.2707 156.052 54.1947 155.872 54.0427 155.744C53.8987 155.608 53.7067 155.508 53.4667 155.444C53.2267 155.372 52.9587 155.312 52.6627 155.264C52.3667 155.216 52.0707 155.16 51.7747 155.096C51.4867 155.032 51.2227 154.94 50.9827 154.82C50.7427 154.692 50.5467 154.52 50.3947 154.304C50.2507 154.088 50.1787 153.8 50.1787 153.44C50.1787 153.096 50.2747 152.788 50.4667 152.516C50.6587 152.244 50.9387 152.032 51.3067 151.88C51.6827 151.72 52.1387 151.64 52.6747 151.64C53.0827 151.64 53.4907 151.696 53.8987 151.808C54.3067 151.912 54.6427 152.052 54.9067 152.228L54.5347 152.912C54.2547 152.72 53.9547 152.584 53.6347 152.504C53.3147 152.416 52.9947 152.372 52.6747 152.372C52.1067 152.372 51.6867 152.472 51.4147 152.672C51.1507 152.864 51.0187 153.112 51.0187 153.416C51.0187 153.656 51.0907 153.844 51.2347 153.98C51.3867 154.116 51.5827 154.224 51.8227 154.304C52.0707 154.376 52.3387 154.436 52.6267 154.484C52.9227 154.532 53.2147 154.592 53.5027 154.664C53.7987 154.728 54.0667 154.82 54.3067 154.94C54.5547 155.052 54.7507 155.216 54.8947 155.432C55.0467 155.64 55.1227 155.916 55.1227 156.26C55.1227 156.628 55.0187 156.948 54.8107 157.22C54.6107 157.484 54.3147 157.692 53.9227 157.844C53.5387 157.988 53.0707 158.06 52.5187 158.06ZM56.686 158V151.7H57.538V158H56.686ZM57.118 150.308C56.942 150.308 56.794 150.248 56.674 150.128C56.554 150.008 56.494 149.864 56.494 149.696C56.494 149.528 56.554 149.388 56.674 149.276C56.794 149.156 56.942 149.096 57.118 149.096C57.294 149.096 57.442 149.152 57.562 149.264C57.682 149.376 57.742 149.516 57.742 149.684C57.742 149.86 57.682 150.008 57.562 150.128C57.45 150.248 57.302 150.308 57.118 150.308ZM62.5967 160.388C62.0207 160.388 61.4687 160.304 60.9407 160.136C60.4127 159.968 59.9847 159.728 59.6567 159.416L60.0887 158.768C60.3847 159.032 60.7487 159.24 61.1807 159.392C61.6207 159.552 62.0847 159.632 62.5727 159.632C63.3727 159.632 63.9607 159.444 64.3367 159.068C64.7127 158.7 64.9007 158.124 64.9007 157.34V155.768L65.0207 154.688L64.9367 153.608V151.7H65.7527V157.232C65.7527 158.32 65.4847 159.116 64.9487 159.62C64.4207 160.132 63.6367 160.388 62.5967 160.388ZM62.4407 157.76C61.8407 157.76 61.3007 157.632 60.8207 157.376C60.3407 157.112 59.9607 156.748 59.6807 156.284C59.4087 155.82 59.2727 155.288 59.2727 154.688C59.2727 154.088 59.4087 153.56 59.6807 153.104C59.9607 152.64 60.3407 152.28 60.8207 152.024C61.3007 151.768 61.8407 151.64 62.4407 151.64C63.0007 151.64 63.5047 151.756 63.9527 151.988C64.4007 152.22 64.7567 152.564 65.0207 153.02C65.2847 153.476 65.4167 154.032 65.4167 154.688C65.4167 155.344 65.2847 155.9 65.0207 156.356C64.7567 156.812 64.4007 157.16 63.9527 157.4C63.5047 157.64 63.0007 157.76 62.4407 157.76ZM62.5247 157.004C62.9887 157.004 63.4007 156.908 63.7607 156.716C64.1207 156.516 64.4047 156.244 64.6127 155.9C64.8207 155.548 64.9247 155.144 64.9247 154.688C64.9247 154.232 64.8207 153.832 64.6127 153.488C64.4047 153.144 64.1207 152.876 63.7607 152.684C63.4007 152.484 62.9887 152.384 62.5247 152.384C62.0687 152.384 61.6567 152.484 61.2887 152.684C60.9287 152.876 60.6447 153.144 60.4367 153.488C60.2367 153.832 60.1367 154.232 60.1367 154.688C60.1367 155.144 60.2367 155.548 60.4367 155.9C60.6447 156.244 60.9287 156.516 61.2887 156.716C61.6567 156.908 62.0687 157.004 62.5247 157.004ZM71.3395 151.64C71.8515 151.64 72.2995 151.74 72.6835 151.94C73.0755 152.132 73.3795 152.428 73.5955 152.828C73.8195 153.228 73.9315 153.732 73.9315 154.34V158H73.0795V154.424C73.0795 153.76 72.9115 153.26 72.5755 152.924C72.2475 152.58 71.7835 152.408 71.1835 152.408C70.7355 152.408 70.3435 152.5 70.0075 152.684C69.6795 152.86 69.4235 153.12 69.2395 153.464C69.0635 153.8 68.9755 154.208 68.9755 154.688V158H68.1235V151.7H68.9395V153.428L68.8075 153.104C69.0075 152.648 69.3275 152.292 69.7675 152.036C70.2075 151.772 70.7315 151.64 71.3395 151.64ZM81.3655 158.06C80.7735 158.06 80.3175 157.9 79.9975 157.58C79.6775 157.26 79.5175 156.808 79.5175 156.224V150.308H80.3695V156.176C80.3695 156.544 80.4615 156.828 80.6455 157.028C80.8375 157.228 81.1095 157.328 81.4615 157.328C81.8375 157.328 82.1495 157.22 82.3975 157.004L82.6975 157.616C82.5295 157.768 82.3255 157.88 82.0855 157.952C81.8535 158.024 81.6135 158.06 81.3655 158.06ZM78.3895 152.408V151.7H82.2895V152.408H78.3895ZM88.1965 158V156.608L88.1605 156.38V154.052C88.1605 153.516 88.0085 153.104 87.7045 152.816C87.4085 152.528 86.9645 152.384 86.3725 152.384C85.9645 152.384 85.5765 152.452 85.2085 152.588C84.8405 152.724 84.5285 152.904 84.2725 153.128L83.8885 152.492C84.2085 152.22 84.5925 152.012 85.0405 151.868C85.4885 151.716 85.9605 151.64 86.4565 151.64C87.2725 151.64 87.9005 151.844 88.3405 152.252C88.7885 152.652 89.0125 153.264 89.0125 154.088V158H88.1965ZM86.0245 158.06C85.5525 158.06 85.1405 157.984 84.7885 157.832C84.4445 157.672 84.1805 157.456 83.9965 157.184C83.8125 156.904 83.7205 156.584 83.7205 156.224C83.7205 155.896 83.7965 155.6 83.9485 155.336C84.1085 155.064 84.3645 154.848 84.7165 154.688C85.0765 154.52 85.5565 154.436 86.1565 154.436H88.3285V155.072H86.1805C85.5725 155.072 85.1485 155.18 84.9085 155.396C84.6765 155.612 84.5605 155.88 84.5605 156.2C84.5605 156.56 84.7005 156.848 84.9805 157.064C85.2605 157.28 85.6525 157.388 86.1565 157.388C86.6365 157.388 87.0485 157.28 87.3925 157.064C87.7445 156.84 88.0005 156.52 88.1605 156.104L88.3525 156.692C88.1925 157.108 87.9125 157.44 87.5125 157.688C87.1205 157.936 86.6245 158.06 86.0245 158.06ZM93.0187 158.06C92.4987 158.06 92.0067 157.988 91.5427 157.844C91.0787 157.692 90.7147 157.504 90.4507 157.28L90.8347 156.608C91.0907 156.8 91.4187 156.968 91.8187 157.112C92.2187 157.248 92.6387 157.316 93.0787 157.316C93.6787 157.316 94.1107 157.224 94.3747 157.04C94.6387 156.848 94.7707 156.596 94.7707 156.284C94.7707 156.052 94.6947 155.872 94.5427 155.744C94.3987 155.608 94.2067 155.508 93.9667 155.444C93.7267 155.372 93.4587 155.312 93.1627 155.264C92.8667 155.216 92.5707 155.16 92.2747 155.096C91.9867 155.032 91.7227 154.94 91.4827 154.82C91.2427 154.692 91.0467 154.52 90.8947 154.304C90.7507 154.088 90.6787 153.8 90.6787 153.44C90.6787 153.096 90.7747 152.788 90.9667 152.516C91.1587 152.244 91.4387 152.032 91.8067 151.88C92.1827 151.72 92.6387 151.64 93.1747 151.64C93.5827 151.64 93.9907 151.696 94.3987 151.808C94.8067 151.912 95.1427 152.052 95.4067 152.228L95.0347 152.912C94.7547 152.72 94.4547 152.584 94.1347 152.504C93.8147 152.416 93.4947 152.372 93.1747 152.372C92.6067 152.372 92.1867 152.472 91.9147 152.672C91.6507 152.864 91.5187 153.112 91.5187 153.416C91.5187 153.656 91.5907 153.844 91.7347 153.98C91.8867 154.116 92.0827 154.224 92.3227 154.304C92.5707 154.376 92.8387 154.436 93.1267 154.484C93.4227 154.532 93.7147 154.592 94.0027 154.664C94.2987 154.728 94.5667 154.82 94.8067 154.94C95.0547 155.052 95.2507 155.216 95.3947 155.432C95.5467 155.64 95.6227 155.916 95.6227 156.26C95.6227 156.628 95.5187 156.948 95.3107 157.22C95.1107 157.484 94.8147 157.692 94.4227 157.844C94.0387 157.988 93.5707 158.06 93.0187 158.06ZM97.858 156.368L97.882 155.276L101.806 151.7H102.85L100.078 154.352L99.598 154.76L97.858 156.368ZM97.186 158V149.096H98.038V158H97.186ZM102.07 158L99.442 154.724L99.994 154.064L103.114 158H102.07ZM105.898 158.06C105.378 158.06 104.886 157.988 104.422 157.844C103.958 157.692 103.594 157.504 103.33 157.28L103.714 156.608C103.97 156.8 104.298 156.968 104.698 157.112C105.098 157.248 105.518 157.316 105.958 157.316C106.558 157.316 106.99 157.224 107.254 157.04C107.518 156.848 107.65 156.596 107.65 156.284C107.65 156.052 107.574 155.872 107.422 155.744C107.278 155.608 107.086 155.508 106.846 155.444C106.606 155.372 106.338 155.312 106.042 155.264C105.746 155.216 105.45 155.16 105.154 155.096C104.866 155.032 104.602 154.94 104.362 154.82C104.122 154.692 103.926 154.52 103.774 154.304C103.63 154.088 103.558 153.8 103.558 153.44C103.558 153.096 103.654 152.788 103.846 152.516C104.038 152.244 104.318 152.032 104.686 151.88C105.062 151.72 105.518 151.64 106.054 151.64C106.462 151.64 106.87 151.696 107.278 151.808C107.686 151.912 108.022 152.052 108.286 152.228L107.914 152.912C107.634 152.72 107.334 152.584 107.014 152.504C106.694 152.416 106.374 152.372 106.054 152.372C105.486 152.372 105.066 152.472 104.794 152.672C104.53 152.864 104.398 153.112 104.398 153.416C104.398 153.656 104.47 153.844 104.614 153.98C104.766 154.116 104.962 154.224 105.202 154.304C105.45 154.376 105.718 154.436 106.006 154.484C106.302 154.532 106.594 154.592 106.882 154.664C107.178 154.728 107.446 154.82 107.686 154.94C107.934 155.052 108.13 155.216 108.274 155.432C108.426 155.64 108.502 155.916 108.502 156.26C108.502 156.628 108.398 156.948 108.19 157.22C107.99 157.484 107.694 157.692 107.302 157.844C106.918 157.988 106.45 158.06 105.898 158.06ZM117.154 158V156.608L117.118 156.38V154.052C117.118 153.516 116.966 153.104 116.662 152.816C116.366 152.528 115.922 152.384 115.33 152.384C114.922 152.384 114.534 152.452 114.166 152.588C113.798 152.724 113.486 152.904 113.23 153.128L112.846 152.492C113.166 152.22 113.55 152.012 113.998 151.868C114.446 151.716 114.918 151.64 115.414 151.64C116.23 151.64 116.858 151.844 117.298 152.252C117.746 152.652 117.97 153.264 117.97 154.088V158H117.154ZM114.982 158.06C114.51 158.06 114.098 157.984 113.746 157.832C113.402 157.672 113.138 157.456 112.954 157.184C112.77 156.904 112.678 156.584 112.678 156.224C112.678 155.896 112.754 155.6 112.906 155.336C113.066 155.064 113.322 154.848 113.674 154.688C114.034 154.52 114.514 154.436 115.114 154.436H117.286V155.072H115.138C114.53 155.072 114.106 155.18 113.866 155.396C113.634 155.612 113.518 155.88 113.518 156.2C113.518 156.56 113.658 156.848 113.938 157.064C114.218 157.28 114.61 157.388 115.114 157.388C115.594 157.388 116.006 157.28 116.35 157.064C116.702 156.84 116.958 156.52 117.118 156.104L117.31 156.692C117.15 157.108 116.87 157.44 116.47 157.688C116.078 157.936 115.582 158.06 114.982 158.06ZM123.5 151.64C124.012 151.64 124.46 151.74 124.844 151.94C125.236 152.132 125.54 152.428 125.756 152.828C125.98 153.228 126.092 153.732 126.092 154.34V158H125.24V154.424C125.24 153.76 125.072 153.26 124.736 152.924C124.408 152.58 123.944 152.408 123.344 152.408C122.896 152.408 122.504 152.5 122.168 152.684C121.84 152.86 121.584 153.12 121.4 153.464C121.224 153.8 121.136 154.208 121.136 154.688V158H120.284V151.7H121.1V153.428L120.968 153.104C121.168 152.648 121.488 152.292 121.928 152.036C122.368 151.772 122.892 151.64 123.5 151.64ZM130.901 158.06C130.301 158.06 129.761 157.924 129.281 157.652C128.809 157.38 128.437 157.004 128.165 156.524C127.893 156.036 127.757 155.476 127.757 154.844C127.757 154.204 127.893 153.644 128.165 153.164C128.437 152.684 128.809 152.312 129.281 152.048C129.761 151.776 130.301 151.64 130.901 151.64C131.453 151.64 131.945 151.764 132.377 152.012C132.817 152.26 133.165 152.624 133.421 153.104C133.685 153.576 133.817 154.156 133.817 154.844C133.817 155.524 133.689 156.104 133.433 156.584C133.177 157.064 132.829 157.432 132.389 157.688C131.957 157.936 131.461 158.06 130.901 158.06ZM130.961 157.304C131.409 157.304 131.809 157.204 132.161 157.004C132.521 156.796 132.801 156.508 133.001 156.14C133.209 155.764 133.313 155.332 133.313 154.844C133.313 154.348 133.209 153.916 133.001 153.548C132.801 153.18 132.521 152.896 132.161 152.696C131.809 152.488 131.409 152.384 130.961 152.384C130.521 152.384 130.125 152.488 129.773 152.696C129.421 152.896 129.141 153.18 128.933 153.548C128.725 153.916 128.621 154.348 128.621 154.844C128.621 155.332 128.725 155.764 128.933 156.14C129.141 156.508 129.421 156.796 129.773 157.004C130.125 157.204 130.521 157.304 130.961 157.304ZM133.337 158V156.104L133.421 154.832L133.301 153.56V149.096H134.153V158H133.337ZM141.659 158.06C141.067 158.06 140.611 157.9 140.291 157.58C139.971 157.26 139.811 156.808 139.811 156.224V150.308H140.663V156.176C140.663 156.544 140.755 156.828 140.939 157.028C141.131 157.228 141.403 157.328 141.755 157.328C142.131 157.328 142.443 157.22 142.691 157.004L142.991 157.616C142.823 157.768 142.619 157.88 142.379 157.952C142.147 158.024 141.907 158.06 141.659 158.06ZM138.683 152.408V151.7H142.583V152.408H138.683ZM144.542 158V151.7H145.358V153.416L145.274 153.116C145.45 152.636 145.746 152.272 146.162 152.024C146.578 151.768 147.094 151.64 147.71 151.64V152.468C147.678 152.468 147.646 152.468 147.614 152.468C147.582 152.46 147.55 152.456 147.518 152.456C146.854 152.456 146.334 152.66 145.958 153.068C145.582 153.468 145.394 154.04 145.394 154.784V158H144.542ZM152.743 158V156.608L152.707 156.38V154.052C152.707 153.516 152.555 153.104 152.251 152.816C151.955 152.528 151.511 152.384 150.919 152.384C150.511 152.384 150.123 152.452 149.755 152.588C149.387 152.724 149.075 152.904 148.819 153.128L148.435 152.492C148.755 152.22 149.139 152.012 149.587 151.868C150.035 151.716 150.507 151.64 151.003 151.64C151.819 151.64 152.447 151.844 152.887 152.252C153.335 152.652 153.559 153.264 153.559 154.088V158H152.743ZM150.571 158.06C150.099 158.06 149.687 157.984 149.335 157.832C148.991 157.672 148.727 157.456 148.543 157.184C148.359 156.904 148.267 156.584 148.267 156.224C148.267 155.896 148.343 155.6 148.495 155.336C148.655 155.064 148.911 154.848 149.263 154.688C149.623 154.52 150.103 154.436 150.703 154.436H152.875V155.072H150.727C150.119 155.072 149.695 155.18 149.455 155.396C149.223 155.612 149.107 155.88 149.107 156.2C149.107 156.56 149.247 156.848 149.527 157.064C149.807 157.28 150.199 157.388 150.703 157.388C151.183 157.388 151.595 157.28 151.939 157.064C152.291 156.84 152.547 156.52 152.707 156.104L152.899 156.692C152.739 157.108 152.459 157.44 152.059 157.688C151.667 157.936 151.171 158.06 150.571 158.06ZM158.49 158.06C157.866 158.06 157.306 157.924 156.81 157.652C156.322 157.372 155.938 156.992 155.658 156.512C155.378 156.024 155.238 155.468 155.238 154.844C155.238 154.212 155.378 153.656 155.658 153.176C155.938 152.696 156.322 152.32 156.81 152.048C157.306 151.776 157.866 151.64 158.49 151.64C159.026 151.64 159.51 151.744 159.942 151.952C160.374 152.16 160.714 152.472 160.962 152.888L160.326 153.32C160.11 153 159.842 152.764 159.522 152.612C159.202 152.46 158.854 152.384 158.478 152.384C158.03 152.384 157.626 152.488 157.266 152.696C156.906 152.896 156.622 153.18 156.414 153.548C156.206 153.916 156.102 154.348 156.102 154.844C156.102 155.34 156.206 155.772 156.414 156.14C156.622 156.508 156.906 156.796 157.266 157.004C157.626 157.204 158.03 157.304 158.478 157.304C158.854 157.304 159.202 157.228 159.522 157.076C159.842 156.924 160.11 156.692 160.326 156.38L160.962 156.812C160.714 157.22 160.374 157.532 159.942 157.748C159.51 157.956 159.026 158.06 158.49 158.06ZM163.214 156.368L163.238 155.276L167.162 151.7H168.206L165.434 154.352L164.954 154.76L163.214 156.368ZM162.542 158V149.096H163.394V158H162.542ZM167.426 158L164.798 154.724L165.35 154.064L168.47 158H167.426ZM174.581 158.06C174.061 158.06 173.569 157.988 173.105 157.844C172.641 157.692 172.277 157.504 172.013 157.28L172.397 156.608C172.653 156.8 172.981 156.968 173.381 157.112C173.781 157.248 174.201 157.316 174.641 157.316C175.241 157.316 175.673 157.224 175.937 157.04C176.201 156.848 176.333 156.596 176.333 156.284C176.333 156.052 176.257 155.872 176.105 155.744C175.961 155.608 175.769 155.508 175.529 155.444C175.289 155.372 175.021 155.312 174.725 155.264C174.429 155.216 174.133 155.16 173.837 155.096C173.549 155.032 173.285 154.94 173.045 154.82C172.805 154.692 172.609 154.52 172.457 154.304C172.313 154.088 172.241 153.8 172.241 153.44C172.241 153.096 172.337 152.788 172.529 152.516C172.721 152.244 173.001 152.032 173.369 151.88C173.745 151.72 174.201 151.64 174.737 151.64C175.145 151.64 175.553 151.696 175.961 151.808C176.369 151.912 176.705 152.052 176.969 152.228L176.597 152.912C176.317 152.72 176.017 152.584 175.697 152.504C175.377 152.416 175.057 152.372 174.737 152.372C174.169 152.372 173.749 152.472 173.477 152.672C173.213 152.864 173.081 153.112 173.081 153.416C173.081 153.656 173.153 153.844 173.297 153.98C173.449 154.116 173.645 154.224 173.885 154.304C174.133 154.376 174.401 154.436 174.689 154.484C174.985 154.532 175.277 154.592 175.565 154.664C175.861 154.728 176.129 154.82 176.369 154.94C176.617 155.052 176.813 155.216 176.957 155.432C177.109 155.64 177.185 155.916 177.185 156.26C177.185 156.628 177.081 156.948 176.873 157.22C176.673 157.484 176.377 157.692 175.985 157.844C175.601 157.988 175.133 158.06 174.581 158.06ZM180.741 158.06C180.149 158.06 179.693 157.9 179.373 157.58C179.053 157.26 178.893 156.808 178.893 156.224V150.308H179.745V156.176C179.745 156.544 179.837 156.828 180.021 157.028C180.213 157.228 180.485 157.328 180.837 157.328C181.213 157.328 181.525 157.22 181.773 157.004L182.073 157.616C181.905 157.768 181.701 157.88 181.461 157.952C181.229 158.024 180.989 158.06 180.741 158.06ZM177.765 152.408V151.7H181.665V152.408H177.765ZM187.572 158V156.608L187.536 156.38V154.052C187.536 153.516 187.384 153.104 187.08 152.816C186.784 152.528 186.34 152.384 185.748 152.384C185.34 152.384 184.952 152.452 184.584 152.588C184.216 152.724 183.904 152.904 183.648 153.128L183.264 152.492C183.584 152.22 183.968 152.012 184.416 151.868C184.864 151.716 185.336 151.64 185.832 151.64C186.648 151.64 187.276 151.844 187.716 152.252C188.164 152.652 188.388 153.264 188.388 154.088V158H187.572ZM185.4 158.06C184.928 158.06 184.516 157.984 184.164 157.832C183.82 157.672 183.556 157.456 183.372 157.184C183.188 156.904 183.096 156.584 183.096 156.224C183.096 155.896 183.172 155.6 183.324 155.336C183.484 155.064 183.74 154.848 184.092 154.688C184.452 154.52 184.932 154.436 185.532 154.436H187.704V155.072H185.556C184.948 155.072 184.524 155.18 184.284 155.396C184.052 155.612 183.936 155.88 183.936 156.2C183.936 156.56 184.076 156.848 184.356 157.064C184.636 157.28 185.028 157.388 185.532 157.388C186.012 157.388 186.424 157.28 186.768 157.064C187.12 156.84 187.376 156.52 187.536 156.104L187.728 156.692C187.568 157.108 187.288 157.44 186.888 157.688C186.496 157.936 186 158.06 185.4 158.06ZM190.846 158V150.908C190.846 150.348 191.01 149.896 191.338 149.552C191.666 149.208 192.138 149.036 192.754 149.036C192.994 149.036 193.226 149.068 193.45 149.132C193.674 149.196 193.862 149.296 194.014 149.432L193.726 150.068C193.606 149.964 193.466 149.888 193.306 149.84C193.146 149.784 192.974 149.756 192.79 149.756C192.43 149.756 192.154 149.856 191.962 150.056C191.77 150.256 191.674 150.552 191.674 150.944V151.904L191.698 152.3V158H190.846ZM189.718 152.408V151.7H193.618V152.408H189.718ZM194.936 158V150.908C194.936 150.348 195.1 149.896 195.428 149.552C195.756 149.208 196.228 149.036 196.844 149.036C197.084 149.036 197.316 149.068 197.54 149.132C197.764 149.196 197.952 149.296 198.104 149.432L197.816 150.068C197.696 149.964 197.556 149.888 197.396 149.84C197.236 149.784 197.064 149.756 196.88 149.756C196.52 149.756 196.244 149.856 196.052 150.056C195.86 150.256 195.764 150.552 195.764 150.944V151.904L195.788 152.3V158H194.936ZM193.808 152.408V151.7H197.708V152.408H193.808ZM209.871 151.64C210.383 151.64 210.827 151.74 211.203 151.94C211.587 152.132 211.883 152.428 212.091 152.828C212.307 153.228 212.415 153.732 212.415 154.34V158H211.563V154.424C211.563 153.76 211.403 153.26 211.083 152.924C210.771 152.58 210.327 152.408 209.751 152.408C209.319 152.408 208.943 152.5 208.623 152.684C208.311 152.86 208.067 153.12 207.891 153.464C207.723 153.8 207.639 154.208 207.639 154.688V158H206.787V154.424C206.787 153.76 206.627 153.26 206.307 152.924C205.987 152.58 205.539 152.408 204.963 152.408C204.539 152.408 204.167 152.5 203.847 152.684C203.527 152.86 203.279 153.12 203.103 153.464C202.935 153.8 202.851 154.208 202.851 154.688V158H201.999V151.7H202.815V153.404L202.683 153.104C202.875 152.648 203.183 152.292 203.607 152.036C204.039 151.772 204.547 151.64 205.131 151.64C205.747 151.64 206.271 151.796 206.703 152.108C207.135 152.412 207.415 152.872 207.543 153.488L207.207 153.356C207.391 152.844 207.715 152.432 208.179 152.12C208.651 151.8 209.215 151.64 209.871 151.64ZM217.401 158.06C216.745 158.06 216.169 157.924 215.673 157.652C215.177 157.372 214.789 156.992 214.509 156.512C214.229 156.024 214.089 155.468 214.089 154.844C214.089 154.22 214.221 153.668 214.485 153.188C214.757 152.708 215.125 152.332 215.589 152.06C216.061 151.78 216.589 151.64 217.173 151.64C217.765 151.64 218.289 151.776 218.745 152.048C219.209 152.312 219.573 152.688 219.837 153.176C220.101 153.656 220.233 154.212 220.233 154.844C220.233 154.884 220.229 154.928 220.221 154.976C220.221 155.016 220.221 155.06 220.221 155.108H214.737V154.472H219.765L219.429 154.724C219.429 154.268 219.329 153.864 219.129 153.512C218.937 153.152 218.673 152.872 218.337 152.672C218.001 152.472 217.613 152.372 217.173 152.372C216.741 152.372 216.353 152.472 216.009 152.672C215.665 152.872 215.397 153.152 215.205 153.512C215.013 153.872 214.917 154.284 214.917 154.748V154.88C214.917 155.36 215.021 155.784 215.229 156.152C215.445 156.512 215.741 156.796 216.117 157.004C216.501 157.204 216.937 157.304 217.425 157.304C217.809 157.304 218.165 157.236 218.493 157.1C218.829 156.964 219.117 156.756 219.357 156.476L219.837 157.028C219.557 157.364 219.205 157.62 218.781 157.796C218.365 157.972 217.905 158.06 217.401 158.06ZM223.959 158.06C223.367 158.06 222.911 157.9 222.591 157.58C222.271 157.26 222.111 156.808 222.111 156.224V150.308H222.963V156.176C222.963 156.544 223.055 156.828 223.239 157.028C223.431 157.228 223.703 157.328 224.055 157.328C224.431 157.328 224.743 157.22 224.991 157.004L225.291 157.616C225.123 157.768 224.919 157.88 224.679 157.952C224.447 158.024 224.207 158.06 223.959 158.06ZM220.983 152.408V151.7H224.883V152.408H220.983ZM226.842 158V151.7H227.658V153.416L227.574 153.116C227.75 152.636 228.046 152.272 228.462 152.024C228.878 151.768 229.394 151.64 230.01 151.64V152.468C229.978 152.468 229.946 152.468 229.914 152.468C229.882 152.46 229.85 152.456 229.818 152.456C229.154 152.456 228.634 152.66 228.258 153.068C227.882 153.468 227.694 154.04 227.694 154.784V158H226.842ZM231.565 158V151.7H232.417V158H231.565ZM231.997 150.308C231.821 150.308 231.673 150.248 231.553 150.128C231.433 150.008 231.373 149.864 231.373 149.696C231.373 149.528 231.433 149.388 231.553 149.276C231.673 149.156 231.821 149.096 231.997 149.096C232.173 149.096 232.321 149.152 232.441 149.264C232.561 149.376 232.621 149.516 232.621 149.684C232.621 149.86 232.561 150.008 232.441 150.128C232.329 150.248 232.181 150.308 231.997 150.308ZM237.404 158.06C236.78 158.06 236.22 157.924 235.724 157.652C235.236 157.372 234.852 156.992 234.572 156.512C234.292 156.024 234.152 155.468 234.152 154.844C234.152 154.212 234.292 153.656 234.572 153.176C234.852 152.696 235.236 152.32 235.724 152.048C236.22 151.776 236.78 151.64 237.404 151.64C237.94 151.64 238.424 151.744 238.856 151.952C239.288 152.16 239.628 152.472 239.876 152.888L239.24 153.32C239.024 153 238.756 152.764 238.436 152.612C238.116 152.46 237.768 152.384 237.392 152.384C236.944 152.384 236.54 152.488 236.18 152.696C235.82 152.896 235.536 153.18 235.328 153.548C235.12 153.916 235.016 154.348 235.016 154.844C235.016 155.34 235.12 155.772 235.328 156.14C235.536 156.508 235.82 156.796 236.18 157.004C236.54 157.204 236.944 157.304 237.392 157.304C237.768 157.304 238.116 157.228 238.436 157.076C238.756 156.924 239.024 156.692 239.24 156.38L239.876 156.812C239.628 157.22 239.288 157.532 238.856 157.748C238.424 157.956 237.94 158.06 237.404 158.06ZM243.241 158.06C242.721 158.06 242.229 157.988 241.765 157.844C241.301 157.692 240.937 157.504 240.673 157.28L241.057 156.608C241.313 156.8 241.641 156.968 242.041 157.112C242.441 157.248 242.861 157.316 243.301 157.316C243.901 157.316 244.333 157.224 244.597 157.04C244.861 156.848 244.993 156.596 244.993 156.284C244.993 156.052 244.917 155.872 244.765 155.744C244.621 155.608 244.429 155.508 244.189 155.444C243.949 155.372 243.681 155.312 243.385 155.264C243.089 155.216 242.793 155.16 242.497 155.096C242.209 155.032 241.945 154.94 241.705 154.82C241.465 154.692 241.269 154.52 241.117 154.304C240.973 154.088 240.901 153.8 240.901 153.44C240.901 153.096 240.997 152.788 241.189 152.516C241.381 152.244 241.661 152.032 242.029 151.88C242.405 151.72 242.861 151.64 243.397 151.64C243.805 151.64 244.213 151.696 244.621 151.808C245.029 151.912 245.365 152.052 245.629 152.228L245.257 152.912C244.977 152.72 244.677 152.584 244.357 152.504C244.037 152.416 243.717 152.372 243.397 152.372C242.829 152.372 242.409 152.472 242.137 152.672C241.873 152.864 241.741 153.112 241.741 153.416C241.741 153.656 241.813 153.844 241.957 153.98C242.109 154.116 242.305 154.224 242.545 154.304C242.793 154.376 243.061 154.436 243.349 154.484C243.645 154.532 243.937 154.592 244.225 154.664C244.521 154.728 244.789 154.82 245.029 154.94C245.277 155.052 245.473 155.216 245.617 155.432C245.769 155.64 245.845 155.916 245.845 156.26C245.845 156.628 245.741 156.948 245.533 157.22C245.333 157.484 245.037 157.692 244.645 157.844C244.261 157.988 243.793 158.06 243.241 158.06ZM247.493 158.06C247.317 158.06 247.165 157.996 247.037 157.868C246.917 157.74 246.857 157.584 246.857 157.4C246.857 157.208 246.917 157.052 247.037 156.932C247.165 156.812 247.317 156.752 247.493 156.752C247.669 156.752 247.817 156.812 247.937 156.932C248.065 157.052 248.129 157.208 248.129 157.4C248.129 157.584 248.065 157.74 247.937 157.868C247.817 157.996 247.669 158.06 247.493 158.06Z" fill="#2D3439"/>
<defs>
<clipPath id="clip0_2741_14137">
<rect width="102.446" height="100" fill="white" transform="translate(90.7773)"/>
</clipPath>
</defs>
</svg>
