<svg width="284" height="181" viewBox="0 0 284 181" fill="none" xmlns="http://www.w3.org/2000/svg">
<g clip-path="url(#clip0_2741_14190)">
<path d="M69.1766 20.9607C67.1038 20.9607 65.0776 20.346 63.3541 19.1944C61.6306 18.0429 60.2873 16.406 59.4941 14.491C58.7008 12.576 58.4933 10.4687 58.8977 8.43574C59.3021 6.40275 60.3002 4.53533 61.7659 3.06963C63.2316 1.60392 65.099 0.605768 67.132 0.201382C69.165 -0.203005 71.2723 0.00454099 73.1873 0.797774C75.1023 1.59101 76.7391 2.9343 77.8907 4.65778C79.0423 6.38127 79.657 8.40754 79.657 10.4804C79.6539 13.259 78.5487 15.9228 76.5839 17.8876C74.6191 19.8524 71.9552 20.9576 69.1766 20.9607ZM69.1766 0.436687C67.1902 0.436687 65.2484 1.02574 63.5967 2.12935C61.945 3.23296 60.6577 4.80157 59.8975 6.63681C59.1373 8.47205 58.9384 10.4915 59.326 12.4398C59.7135 14.3881 60.6701 16.1777 62.0747 17.5823C63.4793 18.9869 65.2689 19.9435 67.2172 20.331C69.1655 20.7186 71.185 20.5197 73.0202 19.7595C74.8554 18.9993 76.424 17.712 77.5277 16.0603C78.6313 14.4086 79.2203 12.4668 79.2203 10.4804C79.2173 7.81753 78.1582 5.26464 76.2753 3.38174C74.3924 1.49884 71.8395 0.439705 69.1766 0.436687Z" fill="#F2F2F2"/>
<path d="M140.356 14.8475C139.32 14.8475 138.307 14.5402 137.445 13.9644C136.583 13.3886 135.912 12.5702 135.515 11.6127C135.118 10.6552 135.015 9.60155 135.217 8.58506C135.419 7.56857 135.918 6.63485 136.651 5.902C137.384 5.16915 138.318 4.67007 139.334 4.46788C140.351 4.26569 141.404 4.36946 142.362 4.76607C143.319 5.16269 144.138 5.83434 144.713 6.69608C145.289 7.55782 145.597 8.57096 145.597 9.60737C145.595 10.9967 145.042 12.3286 144.06 13.311C143.078 14.2934 141.746 14.846 140.356 14.8475ZM140.356 4.80387C139.406 4.80387 138.478 5.08559 137.688 5.61341C136.898 6.14122 136.282 6.89142 135.919 7.76915C135.555 8.64687 135.46 9.61269 135.645 10.5445C135.831 11.4763 136.288 12.3322 136.96 13.0039C137.632 13.6757 138.487 14.1332 139.419 14.3186C140.351 14.5039 141.317 14.4088 142.195 14.0452C143.072 13.6816 143.823 13.066 144.35 12.276C144.878 11.4861 145.16 10.5574 145.16 9.60737C145.158 8.33384 144.652 7.11289 143.751 6.21237C142.851 5.31185 141.63 4.80531 140.356 4.80387Z" fill="#F2F2F2"/>
<path d="M177.256 40.3929C176.09 40.3929 174.95 40.0472 173.98 39.3994C173.011 38.7516 172.255 37.8309 171.809 36.7537C171.363 35.6765 171.246 34.4912 171.474 33.3476C171.701 32.2041 172.263 31.1537 173.087 30.3292C173.911 29.5047 174.962 28.9433 176.105 28.7158C177.249 28.4883 178.434 28.6051 179.512 29.0513C180.589 29.4975 181.509 30.2531 182.157 31.2225C182.805 32.192 183.151 33.3318 183.151 34.4977C183.149 36.0607 182.527 37.5591 181.422 38.6643C180.317 39.7695 178.819 40.3912 177.256 40.3929ZM177.256 29.0392C176.176 29.0392 175.121 29.3594 174.223 29.9591C173.325 30.5589 172.626 31.4114 172.213 32.4089C171.799 33.4063 171.691 34.5038 171.902 35.5626C172.113 36.6215 172.632 37.5941 173.396 38.3575C174.159 39.1209 175.132 39.6407 176.191 39.8514C177.249 40.062 178.347 39.9539 179.344 39.5407C180.342 39.1276 181.194 38.428 181.794 37.5303C182.394 36.6327 182.714 35.5773 182.714 34.4977C182.712 33.0505 182.137 31.6631 181.114 30.6398C180.09 29.6165 178.703 29.0408 177.256 29.0392Z" fill="#F2F2F2"/>
<path d="M225.084 100H175.958C175.9 100 175.844 99.9772 175.803 99.9362C175.762 99.8953 175.739 99.8397 175.739 99.7818C175.739 99.7239 175.762 99.6684 175.803 99.6274C175.844 99.5865 175.9 99.5635 175.958 99.5635H225.084C225.142 99.5635 225.198 99.5865 225.239 99.6274C225.28 99.6684 225.303 99.7239 225.303 99.7818C225.303 99.8397 225.28 99.8953 225.239 99.9362C225.198 99.9772 225.142 100 225.084 100Z" fill="#CCCCCC"/>
<path d="M198.635 33.4597C201.597 33.4597 203.998 31.0588 203.998 28.097C203.998 25.1353 201.597 22.7344 198.635 22.7344C195.673 22.7344 193.272 25.1353 193.272 28.097C193.272 31.0588 195.673 33.4597 198.635 33.4597Z" fill="#FFB8B8"/>
<path d="M199.191 91.7784L196.657 92.6391L192.13 83.2725L195.871 82.002L199.191 91.7784Z" fill="#FFB8B8"/>
<path d="M194.6 92.5298L199.488 90.8695L200.534 93.9473L192.568 96.6529C192.431 96.2488 192.374 95.8215 192.402 95.3956C192.43 94.9696 192.541 94.5533 192.73 94.1705C192.919 93.7876 193.181 93.4457 193.502 93.1642C193.823 92.8827 194.196 92.6671 194.6 92.5298Z" fill="#2F2E41"/>
<path d="M204.918 97.0688L202.245 97.2031L200.454 86.9553L204.4 86.7568L204.918 97.0688Z" fill="#FFB8B8"/>
<path d="M200.297 96.5351L205.453 96.276L205.616 99.5223L197.214 99.9445C197.193 99.5182 197.255 99.0919 197.399 98.6898C197.542 98.2878 197.763 97.9179 198.049 97.6013C198.336 97.2847 198.682 97.0276 199.067 96.8446C199.453 96.6617 199.871 96.5565 200.297 96.5351Z" fill="#2F2E41"/>
<path d="M189.008 63.0197C189.248 62.8062 189.438 62.5428 189.565 62.248C189.692 61.9532 189.753 61.6341 189.743 61.3133C189.733 60.9924 189.653 60.6776 189.509 60.3911C189.364 60.1045 189.158 59.8531 188.906 59.6546L191.455 52.2803L187.527 53.2841L185.709 60.133C185.403 60.5788 185.272 61.1212 185.34 61.6573C185.407 62.1935 185.67 62.6861 186.076 63.042C186.483 63.3978 187.006 63.592 187.547 63.5879C188.087 63.5838 188.607 63.3816 189.008 63.0197Z" fill="#FFB8B8"/>
<path d="M204.668 93.9788C204.633 93.9788 204.599 93.9769 204.564 93.9733L200.935 93.5891C200.712 93.5666 200.504 93.4681 200.345 93.3101C200.186 93.1521 200.086 92.9443 200.062 92.7215L197.258 67.7193L195.228 74.561L199.012 88.0071C199.051 88.144 199.059 88.2877 199.036 88.4282C199.014 88.5687 198.961 88.7026 198.882 88.8207C198.803 88.9388 198.699 89.0383 198.577 89.1123C198.456 89.1863 198.32 89.2331 198.178 89.2493L194.5 89.6722C194.266 89.6981 194.03 89.6393 193.835 89.5066C193.64 89.3738 193.5 89.1758 193.438 88.9483L189.419 73.8167C189.386 73.6923 189.377 73.5626 189.394 73.435L191.201 59.8545L204.676 60.935L205.65 92.9663C205.654 93.0977 205.631 93.2287 205.584 93.3514C205.536 93.474 205.465 93.5859 205.373 93.6803C205.281 93.7748 205.172 93.8499 205.051 93.9011C204.93 93.9524 204.799 93.9788 204.668 93.9788Z" fill="#2F2E41"/>
<path d="M200.011 63.2575C195.496 63.2575 190.385 61.5132 190.076 61.4061L189.986 61.3751L195.079 35.2432L195.173 35.247C197.191 35.3289 202.699 35.3709 202.754 35.3713L202.853 35.3721L204.976 58.4329L205.355 61.806L205.309 61.8436C204.01 62.8935 202.073 63.2575 200.011 63.2575Z" fill="#6674C5"/>
<path d="M191.854 60.999L188.669 59.7159L190.293 40.0775C190.332 39.5934 190.479 39.1242 190.724 38.7046C190.968 38.285 191.304 37.9257 191.706 37.6532L193.382 36.5124C193.335 36.3512 193.326 36.1809 193.358 36.0157C193.389 35.8505 193.458 35.695 193.561 35.5621C193.664 35.4291 193.797 35.3224 193.949 35.2508C194.101 35.1792 194.268 35.1447 194.436 35.1501L194.916 35.1655C195.008 35.104 195.115 35.0715 195.225 35.0723C195.335 35.0731 195.443 35.1071 195.533 35.1699C195.623 35.2327 195.693 35.3214 195.732 35.4243C195.771 35.5272 195.778 35.6395 195.752 35.7465L195.647 37.8271L191.854 60.999Z" fill="#2F2E41"/>
<path d="M190.247 57.4779L186.088 57.3028L187.435 48.6363L188.552 40.4816C188.574 40.1887 188.661 39.9047 188.809 39.6506C188.956 39.3965 189.159 39.1789 189.402 39.0142C189.645 38.8495 189.922 38.7418 190.212 38.6993C190.503 38.6567 190.799 38.6804 191.08 38.7685C191.516 38.9054 191.89 39.1915 192.136 39.5766C192.383 39.9618 192.486 40.4214 192.428 40.8749L191.297 49.7105L190.247 57.4779Z" fill="#2F2E41"/>
<path d="M196.833 61.2997L196.805 61.2122C196.785 61.1523 194.911 55.1398 198.047 47.9651L199.62 40.1429L200.964 35.2313C200.989 35.1435 201.034 35.0628 201.096 34.9956C201.158 34.9284 201.235 34.8766 201.32 34.8442C201.421 34.8095 201.529 34.805 201.632 34.8315C201.735 34.8579 201.827 34.914 201.898 34.9928C202.835 34.7178 203.842 34.8185 204.706 35.2735L206.594 36.2678C207.013 36.4889 207.348 36.843 207.545 37.2746C207.742 37.7062 207.79 38.1909 207.681 38.6528L205.102 49.6621L206.356 59.9454L196.833 61.2997Z" fill="#2F2E41"/>
<path d="M199.58 57.0602C199.899 57.0949 200.222 57.0591 200.526 56.9555C200.83 56.8519 201.107 56.683 201.338 56.4606C201.57 56.2381 201.75 55.9677 201.865 55.6683C201.981 55.3688 202.029 55.0477 202.008 54.7274L207.849 50.3998L205.807 49.4316L199.508 52.6766C198.972 52.7491 198.482 53.0155 198.13 53.4254C197.778 53.8353 197.588 54.3601 197.597 54.9004C197.606 55.4408 197.813 55.9591 198.178 56.3571C198.544 56.7552 199.042 57.0054 199.58 57.0602Z" fill="#FFB8B8"/>
<path d="M203.243 55.1236L201.27 51.4404L206.136 48.2378L203.761 39.7204C203.666 39.3794 203.642 39.0224 203.691 38.6718C203.74 38.3212 203.861 37.9844 204.046 37.6826C204.231 37.3807 204.476 37.1203 204.766 36.9175C205.057 36.7147 205.386 36.5739 205.733 36.5039C206.346 36.3817 206.983 36.4862 207.525 36.7979C208.067 37.1097 208.477 37.6076 208.68 38.1991L211.884 47.6173C211.95 47.8114 211.954 48.0212 211.895 48.2175C211.836 48.4138 211.717 48.5866 211.554 48.7118L203.243 55.1236Z" fill="#2F2E41"/>
<path d="M199.015 29.2347C198.372 29.3183 197.887 28.6606 197.662 28.0526C197.437 27.4446 197.266 26.7368 196.707 26.4083C195.943 25.9596 194.966 26.4993 194.093 26.3512C193.107 26.1841 192.466 25.139 192.415 24.14C192.365 23.1411 192.763 22.1803 193.153 21.2593L193.289 22.4039C193.271 22.016 193.352 21.6299 193.526 21.2825C193.7 20.9351 193.96 20.6381 194.281 20.4199L194.105 22.0994C194.143 21.8677 194.225 21.6457 194.349 21.446C194.472 21.2464 194.634 21.073 194.824 20.936C195.015 20.7989 195.231 20.7009 195.459 20.6474C195.688 20.5939 195.925 20.5861 196.156 20.6244L196.128 21.6252C197.267 21.4897 198.416 21.3541 199.559 21.4573C200.701 21.5605 201.851 21.9219 202.717 22.6742C204.012 23.7996 204.485 25.6526 204.326 27.361C204.168 29.0693 203.462 30.6742 202.727 32.2246C202.543 32.6146 202.287 33.0548 201.858 33.1045C201.473 33.1491 201.12 32.827 201 32.4581C200.908 32.0796 200.912 31.684 201.011 31.3072C201.119 30.7314 201.256 30.1428 201.154 29.5658C201.052 28.9888 200.637 28.4186 200.055 28.3479C199.474 28.2772 198.878 28.9421 199.158 29.457L199.015 29.2347Z" fill="#2F2E41"/>
<path d="M128.852 88.1171L126.764 87.2381L125.332 76.7734H106.263L104.71 87.1953L102.843 88.1291C102.753 88.1738 102.682 88.2474 102.639 88.3378C102.597 88.4283 102.587 88.5305 102.61 88.6277C102.632 88.7249 102.688 88.8116 102.766 88.8736C102.844 88.9355 102.941 88.9693 103.041 88.9693H128.68C128.782 88.9693 128.882 88.9339 128.961 88.869C129.04 88.8042 129.094 88.7139 129.115 88.6136C129.135 88.5132 129.12 88.4089 129.072 88.3184C129.024 88.2279 128.946 88.1568 128.852 88.1171Z" fill="#E6E6E6"/>
<path d="M162.74 78.1661H69.0637C68.5722 78.165 68.1012 77.969 67.754 77.621C67.4069 77.2731 67.2119 76.8017 67.2119 76.3102V63.1006H164.592V76.3102C164.592 76.8017 164.397 77.2731 164.05 77.621C163.703 77.969 163.232 78.165 162.74 78.1661Z" fill="#CCCCCC"/>
<path d="M164.689 69.3433H67.126V12.8222C67.1267 12.229 67.3626 11.6604 67.782 11.241C68.2015 10.8215 68.7702 10.5856 69.3633 10.585H162.452C163.045 10.5856 163.614 10.8216 164.033 11.241C164.453 11.6604 164.689 12.229 164.689 12.8222V69.3433Z" fill="#3F3D56"/>
<path d="M158.863 65.2413H72.9533C72.496 65.2408 72.0576 65.059 71.7343 64.7356C71.4109 64.4123 71.229 63.9739 71.2285 63.5166V16.4124C71.229 15.9551 71.4109 15.5166 71.7343 15.1933C72.0576 14.8699 72.496 14.688 72.9533 14.6875H158.863C159.32 14.688 159.758 14.8699 160.082 15.1933C160.405 15.5166 160.587 15.9551 160.587 16.4124V63.5166C160.587 63.9739 160.405 64.4123 160.082 64.7356C159.758 65.059 159.32 65.2408 158.863 65.2413Z" fill="white"/>
<path d="M158.054 89.0783H74.8658C74.8079 89.0783 74.7524 89.0553 74.7114 89.0143C74.6705 88.9734 74.6475 88.9178 74.6475 88.8599C74.6475 88.802 74.6705 88.7465 74.7114 88.7056C74.7524 88.6646 74.8079 88.6416 74.8658 88.6416H158.054C158.111 88.6416 158.167 88.6646 158.208 88.7056C158.249 88.7465 158.272 88.802 158.272 88.8599C158.272 88.9178 158.249 88.9734 158.208 89.0143C158.167 89.0553 158.111 89.0783 158.054 89.0783Z" fill="#CCCCCC"/>
<path d="M150.792 59.389H81.024C80.9661 59.389 80.9106 59.366 80.8696 59.325C80.8287 59.2841 80.8057 59.2285 80.8057 59.1706V25.731C80.8057 25.6731 80.8287 25.6176 80.8696 25.5766C80.9106 25.5357 80.9661 25.5127 81.024 25.5127C81.0819 25.5127 81.1374 25.5357 81.1784 25.5766C81.2193 25.6176 81.2423 25.6731 81.2423 25.731V58.9523H150.792C150.849 58.9523 150.905 58.9753 150.946 59.0162C150.987 59.0572 151.01 59.1127 151.01 59.1706C151.01 59.2285 150.987 59.2841 150.946 59.325C150.905 59.366 150.849 59.389 150.792 59.389Z" fill="#3F3D56"/>
<path d="M95.9303 56.987H89.5847C89.4128 56.9868 89.2481 56.9185 89.1266 56.797C89.0051 56.6755 88.9367 56.5108 88.9365 56.3389V47.5915C88.9367 47.4196 89.0051 47.2549 89.1266 47.1334C89.2481 47.0119 89.4128 46.9436 89.5847 46.9434H95.9303C96.1021 46.9436 96.2669 47.0119 96.3884 47.1334C96.5099 47.2549 96.5782 47.4196 96.5784 47.5915V56.3389C96.5782 56.5108 96.5099 56.6755 96.3884 56.797C96.2669 56.9185 96.1021 56.9868 95.9303 56.987Z" fill="#6674C5"/>
<path d="M107.503 56.9871H101.157C100.985 56.9869 100.82 56.9186 100.699 56.7971C100.577 56.6756 100.509 56.5108 100.509 56.339V39.2946C100.509 39.1227 100.577 38.958 100.699 38.8365C100.82 38.715 100.985 38.6467 101.157 38.6465H107.503C107.674 38.6467 107.839 38.715 107.961 38.8365C108.082 38.958 108.151 39.1227 108.151 39.2946V56.339C108.151 56.5108 108.082 56.6756 107.961 56.7971C107.839 56.9186 107.674 56.9869 107.503 56.9871Z" fill="#6674C5"/>
<path d="M119.075 56.987H112.729C112.557 56.9868 112.393 56.9185 112.271 56.797C112.15 56.6755 112.081 56.5108 112.081 56.3389V47.5915C112.081 47.4196 112.15 47.2549 112.271 47.1334C112.393 47.0119 112.557 46.9436 112.729 46.9434H119.075C119.247 46.9436 119.411 47.0119 119.533 47.1334C119.654 47.2549 119.723 47.4196 119.723 47.5915V56.3389C119.723 56.5108 119.654 56.6755 119.533 56.797C119.411 56.9185 119.247 56.9868 119.075 56.987Z" fill="#6674C5"/>
<path d="M130.647 56.987H124.301C124.134 56.9906 123.971 56.9275 123.85 56.8115C123.728 56.6955 123.658 56.5361 123.653 56.3682V35.99C123.658 35.8221 123.728 35.6627 123.85 35.5467C123.971 35.4307 124.134 35.3676 124.301 35.3712H130.647C130.815 35.3676 130.978 35.4307 131.099 35.5467C131.22 35.6627 131.291 35.8221 131.295 35.99V56.3682C131.291 56.5361 131.22 56.6955 131.099 56.8115C130.978 56.9275 130.815 56.9906 130.647 56.987Z" fill="#6674C5"/>
<path d="M142.218 56.9865H135.873C135.701 56.9863 135.536 56.918 135.415 56.7965C135.293 56.675 135.225 56.5102 135.225 56.3384V30.1237C135.225 29.9518 135.293 29.7871 135.415 29.6656C135.536 29.5441 135.701 29.4758 135.873 29.4756H142.218C142.39 29.4758 142.555 29.5441 142.676 29.6656C142.798 29.7871 142.866 29.9518 142.867 30.1237V56.3384C142.866 56.5102 142.798 56.675 142.676 56.7965C142.555 56.918 142.39 56.9863 142.218 56.9865Z" fill="#6674C5"/>
<path d="M92.7573 44.3232C93.4808 44.3232 94.0674 43.7367 94.0674 43.0132C94.0674 42.2897 93.4808 41.7031 92.7573 41.7031C92.0338 41.7031 91.4473 42.2897 91.4473 43.0132C91.4473 43.7367 92.0338 44.3232 92.7573 44.3232Z" fill="#3F3D56"/>
<path d="M104.33 35.8076C105.053 35.8076 105.64 35.2211 105.64 34.4975C105.64 33.774 105.053 33.1875 104.33 33.1875C103.606 33.1875 103.02 33.774 103.02 34.4975C103.02 35.2211 103.606 35.8076 104.33 35.8076Z" fill="#3F3D56"/>
<path d="M115.902 44.3232C116.625 44.3232 117.212 43.7367 117.212 43.0132C117.212 42.2897 116.625 41.7031 115.902 41.7031C115.178 41.7031 114.592 42.2897 114.592 43.0132C114.592 43.7367 115.178 44.3232 115.902 44.3232Z" fill="#3F3D56"/>
<path d="M127.474 31.6591C128.198 31.6591 128.784 31.0726 128.784 30.3491C128.784 29.6256 128.198 29.0391 127.474 29.0391C126.751 29.0391 126.164 29.6256 126.164 30.3491C126.164 31.0726 126.751 31.6591 127.474 31.6591Z" fill="#3F3D56"/>
<path d="M139.046 26.8554C139.77 26.8554 140.356 26.2689 140.356 25.5454C140.356 24.8219 139.77 24.2354 139.046 24.2354C138.323 24.2354 137.736 24.8219 137.736 25.5454C137.736 26.2689 138.323 26.8554 139.046 26.8554Z" fill="#3F3D56"/>
<path d="M115.93 43.3066L104.33 34.6184L92.889 43.1879L92.627 42.8385L104.33 34.0728L115.875 42.7197L127.346 30.1656L127.392 30.1468L138.965 25.4844L139.128 25.8894L127.602 30.5333L115.93 43.3066Z" fill="#3F3D56"/>
</g>
<path d="M80.3365 132V122.2H81.8345L87.9805 129.746H87.2385V122.2H89.0445V132H87.5465L81.4005 124.454H82.1425V132H80.3365ZM94.8625 132.098C94.0972 132.098 93.4158 131.935 92.8185 131.608C92.2212 131.272 91.7498 130.815 91.4045 130.236C91.0592 129.657 90.8865 128.999 90.8865 128.262C90.8865 127.515 91.0592 126.857 91.4045 126.288C91.7498 125.709 92.2212 125.257 92.8185 124.93C93.4158 124.603 94.0972 124.44 94.8625 124.44C95.6372 124.44 96.3232 124.603 96.9205 124.93C97.5272 125.257 97.9985 125.705 98.3345 126.274C98.6798 126.843 98.8525 127.506 98.8525 128.262C98.8525 128.999 98.6798 129.657 98.3345 130.236C97.9985 130.815 97.5272 131.272 96.9205 131.608C96.3232 131.935 95.6372 132.098 94.8625 132.098ZM94.8625 130.6C95.2918 130.6 95.6745 130.507 96.0105 130.32C96.3465 130.133 96.6078 129.863 96.7945 129.508C96.9905 129.153 97.0885 128.738 97.0885 128.262C97.0885 127.777 96.9905 127.361 96.7945 127.016C96.6078 126.661 96.3465 126.391 96.0105 126.204C95.6745 126.017 95.2965 125.924 94.8765 125.924C94.4472 125.924 94.0645 126.017 93.7285 126.204C93.4018 126.391 93.1405 126.661 92.9445 127.016C92.7485 127.361 92.6505 127.777 92.6505 128.262C92.6505 128.738 92.7485 129.153 92.9445 129.508C93.1405 129.863 93.4018 130.133 93.7285 130.32C94.0645 130.507 94.4425 130.6 94.8625 130.6ZM106.229 126.708H111.115V128.248H106.229V126.708ZM106.383 132H104.563V122.2H111.717V123.726H106.383V132ZM113.309 132V124.524H115.059V132H113.309ZM114.191 123.292C113.864 123.292 113.594 123.189 113.379 122.984C113.174 122.779 113.071 122.531 113.071 122.242C113.071 121.943 113.174 121.696 113.379 121.5C113.594 121.295 113.864 121.192 114.191 121.192C114.518 121.192 114.784 121.29 114.989 121.486C115.204 121.673 115.311 121.911 115.311 122.2C115.311 122.508 115.208 122.769 115.003 122.984C114.798 123.189 114.527 123.292 114.191 123.292ZM121.598 124.44C122.195 124.44 122.727 124.557 123.194 124.79C123.67 125.023 124.043 125.383 124.314 125.868C124.585 126.344 124.72 126.96 124.72 127.716V132H122.97V127.94C122.97 127.277 122.811 126.783 122.494 126.456C122.186 126.129 121.752 125.966 121.192 125.966C120.781 125.966 120.417 126.05 120.1 126.218C119.783 126.386 119.535 126.638 119.358 126.974C119.19 127.301 119.106 127.716 119.106 128.22V132H117.356V124.524H119.022V126.54L118.728 125.924C118.989 125.448 119.367 125.084 119.862 124.832C120.366 124.571 120.945 124.44 121.598 124.44ZM131.546 132V130.488L131.448 130.166V127.52C131.448 127.007 131.294 126.61 130.986 126.33C130.678 126.041 130.211 125.896 129.586 125.896C129.166 125.896 128.751 125.961 128.34 126.092C127.939 126.223 127.598 126.405 127.318 126.638L126.632 125.364C127.033 125.056 127.509 124.827 128.06 124.678C128.62 124.519 129.199 124.44 129.796 124.44C130.879 124.44 131.714 124.701 132.302 125.224C132.899 125.737 133.198 126.535 133.198 127.618V132H131.546ZM129.194 132.098C128.634 132.098 128.144 132.005 127.724 131.818C127.304 131.622 126.977 131.356 126.744 131.02C126.52 130.675 126.408 130.287 126.408 129.858C126.408 129.438 126.506 129.06 126.702 128.724C126.907 128.388 127.239 128.122 127.696 127.926C128.153 127.73 128.76 127.632 129.516 127.632H131.686V128.794H129.642C129.045 128.794 128.643 128.892 128.438 129.088C128.233 129.275 128.13 129.508 128.13 129.788C128.13 130.105 128.256 130.357 128.508 130.544C128.76 130.731 129.11 130.824 129.558 130.824C129.987 130.824 130.37 130.726 130.706 130.53C131.051 130.334 131.299 130.045 131.448 129.662L131.742 130.712C131.574 131.151 131.271 131.491 130.832 131.734C130.403 131.977 129.857 132.098 129.194 132.098ZM139.686 124.44C140.283 124.44 140.815 124.557 141.282 124.79C141.758 125.023 142.131 125.383 142.402 125.868C142.673 126.344 142.808 126.96 142.808 127.716V132H141.058V127.94C141.058 127.277 140.899 126.783 140.582 126.456C140.274 126.129 139.84 125.966 139.28 125.966C138.869 125.966 138.505 126.05 138.188 126.218C137.871 126.386 137.623 126.638 137.446 126.974C137.278 127.301 137.194 127.716 137.194 128.22V132H135.444V124.524H137.11V126.54L136.816 125.924C137.077 125.448 137.455 125.084 137.95 124.832C138.454 124.571 139.033 124.44 139.686 124.44ZM148.472 132.098C147.688 132.098 146.988 131.935 146.372 131.608C145.765 131.272 145.289 130.815 144.944 130.236C144.598 129.657 144.426 128.999 144.426 128.262C144.426 127.515 144.598 126.857 144.944 126.288C145.289 125.709 145.765 125.257 146.372 124.93C146.988 124.603 147.688 124.44 148.472 124.44C149.2 124.44 149.839 124.589 150.39 124.888C150.95 125.177 151.374 125.607 151.664 126.176L150.32 126.96C150.096 126.605 149.82 126.344 149.494 126.176C149.176 126.008 148.831 125.924 148.458 125.924C148.028 125.924 147.641 126.017 147.296 126.204C146.95 126.391 146.68 126.661 146.484 127.016C146.288 127.361 146.19 127.777 146.19 128.262C146.19 128.747 146.288 129.167 146.484 129.522C146.68 129.867 146.95 130.133 147.296 130.32C147.641 130.507 148.028 130.6 148.458 130.6C148.831 130.6 149.176 130.516 149.494 130.348C149.82 130.18 150.096 129.919 150.32 129.564L151.664 130.348C151.374 130.908 150.95 131.342 150.39 131.65C149.839 131.949 149.2 132.098 148.472 132.098ZM153.108 132V124.524H154.858V132H153.108ZM153.99 123.292C153.663 123.292 153.393 123.189 153.178 122.984C152.973 122.779 152.87 122.531 152.87 122.242C152.87 121.943 152.973 121.696 153.178 121.5C153.393 121.295 153.663 121.192 153.99 121.192C154.317 121.192 154.583 121.29 154.788 121.486C155.003 121.673 155.11 121.911 155.11 122.2C155.11 122.508 155.007 122.769 154.802 122.984C154.597 123.189 154.326 123.292 153.99 123.292ZM161.761 132V130.488L161.663 130.166V127.52C161.663 127.007 161.509 126.61 161.201 126.33C160.893 126.041 160.426 125.896 159.801 125.896C159.381 125.896 158.966 125.961 158.555 126.092C158.154 126.223 157.813 126.405 157.533 126.638L156.847 125.364C157.248 125.056 157.724 124.827 158.275 124.678C158.835 124.519 159.414 124.44 160.011 124.44C161.094 124.44 161.929 124.701 162.517 125.224C163.114 125.737 163.413 126.535 163.413 127.618V132H161.761ZM159.409 132.098C158.849 132.098 158.359 132.005 157.939 131.818C157.519 131.622 157.192 131.356 156.959 131.02C156.735 130.675 156.623 130.287 156.623 129.858C156.623 129.438 156.721 129.06 156.917 128.724C157.122 128.388 157.454 128.122 157.911 127.926C158.368 127.73 158.975 127.632 159.731 127.632H161.901V128.794H159.857C159.26 128.794 158.858 128.892 158.653 129.088C158.448 129.275 158.345 129.508 158.345 129.788C158.345 130.105 158.471 130.357 158.723 130.544C158.975 130.731 159.325 130.824 159.773 130.824C160.202 130.824 160.585 130.726 160.921 130.53C161.266 130.334 161.514 130.045 161.663 129.662L161.957 130.712C161.789 131.151 161.486 131.491 161.047 131.734C160.618 131.977 160.072 132.098 159.409 132.098ZM165.659 132V121.612H167.409V132H165.659ZM176.739 132.098C176.02 132.098 175.371 131.939 174.793 131.622C174.223 131.295 173.775 130.847 173.449 130.278C173.122 129.709 172.959 129.037 172.959 128.262C172.959 127.487 173.122 126.815 173.449 126.246C173.775 125.677 174.223 125.233 174.793 124.916C175.371 124.599 176.02 124.44 176.739 124.44C177.364 124.44 177.924 124.58 178.419 124.86C178.913 125.131 179.305 125.546 179.595 126.106C179.884 126.666 180.029 127.385 180.029 128.262C180.029 129.13 179.889 129.849 179.609 130.418C179.329 130.978 178.941 131.398 178.447 131.678C177.952 131.958 177.383 132.098 176.739 132.098ZM176.949 130.6C177.369 130.6 177.742 130.507 178.069 130.32C178.405 130.133 178.671 129.863 178.867 129.508C179.072 129.153 179.175 128.738 179.175 128.262C179.175 127.777 179.072 127.361 178.867 127.016C178.671 126.661 178.405 126.391 178.069 126.204C177.742 126.017 177.369 125.924 176.949 125.924C176.529 125.924 176.151 126.017 175.815 126.204C175.488 126.391 175.222 126.661 175.017 127.016C174.821 127.361 174.723 127.777 174.723 128.262C174.723 128.738 174.821 129.153 175.017 129.508C175.222 129.863 175.488 130.133 175.815 130.32C176.151 130.507 176.529 130.6 176.949 130.6ZM179.217 132V130.236L179.287 128.248L179.147 126.26V121.612H180.883V132H179.217ZM187.792 132V130.488L187.694 130.166V127.52C187.694 127.007 187.54 126.61 187.232 126.33C186.924 126.041 186.457 125.896 185.832 125.896C185.412 125.896 184.997 125.961 184.586 126.092C184.185 126.223 183.844 126.405 183.564 126.638L182.878 125.364C183.279 125.056 183.755 124.827 184.306 124.678C184.866 124.519 185.445 124.44 186.042 124.44C187.125 124.44 187.96 124.701 188.548 125.224C189.145 125.737 189.444 126.535 189.444 127.618V132H187.792ZM185.44 132.098C184.88 132.098 184.39 132.005 183.97 131.818C183.55 131.622 183.223 131.356 182.99 131.02C182.766 130.675 182.654 130.287 182.654 129.858C182.654 129.438 182.752 129.06 182.948 128.724C183.153 128.388 183.485 128.122 183.942 127.926C184.399 127.73 185.006 127.632 185.762 127.632H187.932V128.794H185.888C185.291 128.794 184.889 128.892 184.684 129.088C184.479 129.275 184.376 129.508 184.376 129.788C184.376 130.105 184.502 130.357 184.754 130.544C185.006 130.731 185.356 130.824 185.804 130.824C186.233 130.824 186.616 130.726 186.952 130.53C187.297 130.334 187.545 130.045 187.694 129.662L187.988 130.712C187.82 131.151 187.517 131.491 187.078 131.734C186.649 131.977 186.103 132.098 185.44 132.098ZM194.504 132.098C193.683 132.098 193.048 131.888 192.6 131.468C192.152 131.039 191.928 130.409 191.928 129.578V122.872H193.678V129.536C193.678 129.891 193.767 130.166 193.944 130.362C194.131 130.558 194.387 130.656 194.714 130.656C195.106 130.656 195.433 130.553 195.694 130.348L196.184 131.594C195.979 131.762 195.727 131.888 195.428 131.972C195.129 132.056 194.821 132.098 194.504 132.098ZM190.696 125.98V124.58H195.68V125.98H190.696ZM202.23 132V130.488L202.132 130.166V127.52C202.132 127.007 201.978 126.61 201.67 126.33C201.362 126.041 200.895 125.896 200.27 125.896C199.85 125.896 199.434 125.961 199.024 126.092C198.622 126.223 198.282 126.405 198.002 126.638L197.316 125.364C197.717 125.056 198.193 124.827 198.744 124.678C199.304 124.519 199.882 124.44 200.48 124.44C201.562 124.44 202.398 124.701 202.986 125.224C203.583 125.737 203.882 126.535 203.882 127.618V132H202.23ZM199.878 132.098C199.318 132.098 198.828 132.005 198.408 131.818C197.988 131.622 197.661 131.356 197.428 131.02C197.204 130.675 197.092 130.287 197.092 129.858C197.092 129.438 197.19 129.06 197.386 128.724C197.591 128.388 197.922 128.122 198.38 127.926C198.837 127.73 199.444 127.632 200.2 127.632H202.37V128.794H200.326C199.728 128.794 199.327 128.892 199.122 129.088C198.916 129.275 198.814 129.508 198.814 129.788C198.814 130.105 198.94 130.357 199.192 130.544C199.444 130.731 199.794 130.824 200.242 130.824C200.671 130.824 201.054 130.726 201.39 130.53C201.735 130.334 201.982 130.045 202.132 129.662L202.426 130.712C202.258 131.151 201.954 131.491 201.516 131.734C201.086 131.977 200.54 132.098 199.878 132.098Z" fill="#2D3439"/>
<path d="M4.45989 158V154.88L4.66389 155.432L1.09989 149.6H2.04789L5.17989 154.724H4.67589L7.80789 149.6H8.69589L5.13189 155.432L5.33589 154.88V158H4.45989ZM11.7462 158.06C11.1382 158.06 10.5902 157.924 10.1022 157.652C9.62223 157.372 9.24223 156.992 8.96223 156.512C8.68223 156.024 8.54223 155.468 8.54223 154.844C8.54223 154.212 8.68223 153.656 8.96223 153.176C9.24223 152.696 9.62223 152.32 10.1022 152.048C10.5822 151.776 11.1302 151.64 11.7462 151.64C12.3702 151.64 12.9222 151.776 13.4022 152.048C13.8902 152.32 14.2702 152.696 14.5422 153.176C14.8222 153.656 14.9622 154.212 14.9622 154.844C14.9622 155.468 14.8222 156.024 14.5422 156.512C14.2702 156.992 13.8902 157.372 13.4022 157.652C12.9142 157.924 12.3622 158.06 11.7462 158.06ZM11.7462 157.304C12.2022 157.304 12.6062 157.204 12.9582 157.004C13.3102 156.796 13.5862 156.508 13.7862 156.14C13.9942 155.764 14.0982 155.332 14.0982 154.844C14.0982 154.348 13.9942 153.916 13.7862 153.548C13.5862 153.18 13.3102 152.896 12.9582 152.696C12.6062 152.488 12.2062 152.384 11.7582 152.384C11.3102 152.384 10.9102 152.488 10.5582 152.696C10.2062 152.896 9.92623 153.18 9.71823 153.548C9.51023 153.916 9.40623 154.348 9.40623 154.844C9.40623 155.332 9.51023 155.764 9.71823 156.14C9.92623 156.508 10.2062 156.796 10.5582 157.004C10.9102 157.204 11.3062 157.304 11.7462 157.304ZM19.3057 158.06C18.7697 158.06 18.3017 157.96 17.9017 157.76C17.5017 157.56 17.1897 157.26 16.9657 156.86C16.7497 156.46 16.6417 155.96 16.6417 155.36V151.7H17.4937V155.264C17.4937 155.936 17.6577 156.444 17.9857 156.788C18.3217 157.124 18.7897 157.292 19.3897 157.292C19.8297 157.292 20.2097 157.204 20.5297 157.028C20.8577 156.844 21.1057 156.58 21.2737 156.236C21.4497 155.892 21.5377 155.48 21.5377 155V151.7H22.3897V158H21.5737V156.272L21.7057 156.584C21.5057 157.048 21.1937 157.412 20.7697 157.676C20.3537 157.932 19.8657 158.06 19.3057 158.06ZM24.7642 158V151.7H25.5802V153.416L25.4962 153.116C25.6722 152.636 25.9682 152.272 26.3842 152.024C26.8002 151.768 27.3162 151.64 27.9322 151.64V152.468C27.9002 152.468 27.8682 152.468 27.8362 152.468C27.8042 152.46 27.7722 152.456 27.7402 152.456C27.0762 152.456 26.5562 152.66 26.1802 153.068C25.8042 153.468 25.6162 154.04 25.6162 154.784V158H24.7642ZM34.0052 158L31.6292 151.7H32.4452L34.6052 157.544H34.2332L36.4532 151.7H37.1852L39.3812 157.544H39.0092L41.2052 151.7H41.9852L39.5972 158H38.7932L36.6812 152.504H36.9332L34.8092 158H34.0052ZM45.7683 158.06C45.1123 158.06 44.5363 157.924 44.0403 157.652C43.5443 157.372 43.1563 156.992 42.8763 156.512C42.5963 156.024 42.4563 155.468 42.4563 154.844C42.4563 154.22 42.5883 153.668 42.8523 153.188C43.1243 152.708 43.4923 152.332 43.9563 152.06C44.4283 151.78 44.9563 151.64 45.5403 151.64C46.1323 151.64 46.6563 151.776 47.1123 152.048C47.5763 152.312 47.9403 152.688 48.2043 153.176C48.4683 153.656 48.6003 154.212 48.6003 154.844C48.6003 154.884 48.5963 154.928 48.5883 154.976C48.5883 155.016 48.5883 155.06 48.5883 155.108H43.1043V154.472H48.1323L47.7963 154.724C47.7963 154.268 47.6963 153.864 47.4963 153.512C47.3043 153.152 47.0403 152.872 46.7043 152.672C46.3683 152.472 45.9803 152.372 45.5403 152.372C45.1083 152.372 44.7203 152.472 44.3763 152.672C44.0323 152.872 43.7643 153.152 43.5723 153.512C43.3803 153.872 43.2843 154.284 43.2843 154.748V154.88C43.2843 155.36 43.3883 155.784 43.5963 156.152C43.8123 156.512 44.1083 156.796 44.4843 157.004C44.8683 157.204 45.3043 157.304 45.7923 157.304C46.1763 157.304 46.5323 157.236 46.8603 157.1C47.1963 156.964 47.4843 156.756 47.7243 156.476L48.2043 157.028C47.9243 157.364 47.5723 157.62 47.1483 157.796C46.7323 157.972 46.2723 158.06 45.7683 158.06ZM53.0105 158.06C52.3545 158.06 51.7785 157.924 51.2825 157.652C50.7865 157.372 50.3985 156.992 50.1185 156.512C49.8385 156.024 49.6985 155.468 49.6985 154.844C49.6985 154.22 49.8305 153.668 50.0945 153.188C50.3665 152.708 50.7345 152.332 51.1985 152.06C51.6705 151.78 52.1985 151.64 52.7825 151.64C53.3745 151.64 53.8985 151.776 54.3545 152.048C54.8185 152.312 55.1825 152.688 55.4465 153.176C55.7105 153.656 55.8425 154.212 55.8425 154.844C55.8425 154.884 55.8385 154.928 55.8305 154.976C55.8305 155.016 55.8305 155.06 55.8305 155.108H50.3465V154.472H55.3745L55.0385 154.724C55.0385 154.268 54.9385 153.864 54.7385 153.512C54.5465 153.152 54.2825 152.872 53.9465 152.672C53.6105 152.472 53.2225 152.372 52.7825 152.372C52.3505 152.372 51.9625 152.472 51.6185 152.672C51.2745 152.872 51.0065 153.152 50.8145 153.512C50.6225 153.872 50.5265 154.284 50.5265 154.748V154.88C50.5265 155.36 50.6305 155.784 50.8385 156.152C51.0545 156.512 51.3505 156.796 51.7265 157.004C52.1105 157.204 52.5465 157.304 53.0345 157.304C53.4185 157.304 53.7745 157.236 54.1025 157.1C54.4385 156.964 54.7265 156.756 54.9665 156.476L55.4465 157.028C55.1665 157.364 54.8145 157.62 54.3905 157.796C53.9745 157.972 53.5145 158.06 53.0105 158.06ZM58.2487 156.368L58.2727 155.276L62.1967 151.7H63.2407L60.4687 154.352L59.9887 154.76L58.2487 156.368ZM57.5767 158V149.096H58.4287V158H57.5767ZM62.4607 158L59.8327 154.724L60.3847 154.064L63.5047 158H62.4607ZM64.7837 158V149.096H65.6357V158H64.7837ZM68.0544 160.388C67.7584 160.388 67.4744 160.34 67.2024 160.244C66.9384 160.148 66.7104 160.004 66.5184 159.812L66.9144 159.176C67.0744 159.328 67.2464 159.444 67.4304 159.524C67.6224 159.612 67.8344 159.656 68.0664 159.656C68.3464 159.656 68.5864 159.576 68.7864 159.416C68.9944 159.264 69.1904 158.992 69.3744 158.6L69.7824 157.676L69.8784 157.544L72.4704 151.7H73.3104L70.1544 158.756C69.9784 159.164 69.7824 159.488 69.5664 159.728C69.3584 159.968 69.1304 160.136 68.8824 160.232C68.6344 160.336 68.3584 160.388 68.0544 160.388ZM69.7344 158.18L66.8304 151.7H67.7184L70.2864 157.484L69.7344 158.18ZM77.7949 158V150.908C77.7949 150.348 77.9589 149.896 78.2869 149.552C78.6149 149.208 79.0869 149.036 79.7029 149.036C79.9429 149.036 80.1749 149.068 80.3989 149.132C80.6229 149.196 80.8109 149.296 80.9629 149.432L80.6749 150.068C80.5549 149.964 80.4149 149.888 80.2549 149.84C80.0949 149.784 79.9229 149.756 79.7389 149.756C79.3789 149.756 79.1029 149.856 78.9109 150.056C78.7189 150.256 78.6229 150.552 78.6229 150.944V151.904L78.6469 152.3V158H77.7949ZM76.6669 152.408V151.7H80.5669V152.408H76.6669ZM81.7189 158V151.7H82.5709V158H81.7189ZM82.1509 150.308C81.9749 150.308 81.8269 150.248 81.7069 150.128C81.5869 150.008 81.5269 149.864 81.5269 149.696C81.5269 149.528 81.5869 149.388 81.7069 149.276C81.8269 149.156 81.9749 149.096 82.1509 149.096C82.3269 149.096 82.4749 149.152 82.5949 149.264C82.7149 149.376 82.7749 149.516 82.7749 149.684C82.7749 149.86 82.7149 150.008 82.5949 150.128C82.4829 150.248 82.3349 150.308 82.1509 150.308ZM88.1794 151.64C88.6914 151.64 89.1394 151.74 89.5234 151.94C89.9154 152.132 90.2194 152.428 90.4354 152.828C90.6594 153.228 90.7714 153.732 90.7714 154.34V158H89.9194V154.424C89.9194 153.76 89.7514 153.26 89.4154 152.924C89.0874 152.58 88.6234 152.408 88.0234 152.408C87.5754 152.408 87.1834 152.5 86.8474 152.684C86.5194 152.86 86.2634 153.12 86.0794 153.464C85.9034 153.8 85.8154 154.208 85.8154 154.688V158H84.9634V151.7H85.7794V153.428L85.6474 153.104C85.8474 152.648 86.1674 152.292 86.6074 152.036C87.0474 151.772 87.5714 151.64 88.1794 151.64ZM97.0208 158V156.608L96.9848 156.38V154.052C96.9848 153.516 96.8328 153.104 96.5288 152.816C96.2328 152.528 95.7888 152.384 95.1968 152.384C94.7888 152.384 94.4008 152.452 94.0328 152.588C93.6648 152.724 93.3528 152.904 93.0968 153.128L92.7128 152.492C93.0328 152.22 93.4168 152.012 93.8648 151.868C94.3128 151.716 94.7848 151.64 95.2808 151.64C96.0968 151.64 96.7248 151.844 97.1648 152.252C97.6128 152.652 97.8368 153.264 97.8368 154.088V158H97.0208ZM94.8488 158.06C94.3768 158.06 93.9648 157.984 93.6128 157.832C93.2688 157.672 93.0048 157.456 92.8208 157.184C92.6368 156.904 92.5448 156.584 92.5448 156.224C92.5448 155.896 92.6208 155.6 92.7728 155.336C92.9328 155.064 93.1888 154.848 93.5408 154.688C93.9008 154.52 94.3808 154.436 94.9808 154.436H97.1528V155.072H95.0048C94.3968 155.072 93.9728 155.18 93.7328 155.396C93.5008 155.612 93.3848 155.88 93.3848 156.2C93.3848 156.56 93.5248 156.848 93.8048 157.064C94.0848 157.28 94.4768 157.388 94.9808 157.388C95.4608 157.388 95.8728 157.28 96.2168 157.064C96.5688 156.84 96.8248 156.52 96.9848 156.104L97.1768 156.692C97.0168 157.108 96.7368 157.44 96.3368 157.688C95.9448 157.936 95.4488 158.06 94.8488 158.06ZM103.367 151.64C103.879 151.64 104.327 151.74 104.711 151.94C105.103 152.132 105.407 152.428 105.623 152.828C105.847 153.228 105.959 153.732 105.959 154.34V158H105.107V154.424C105.107 153.76 104.939 153.26 104.603 152.924C104.275 152.58 103.811 152.408 103.211 152.408C102.763 152.408 102.371 152.5 102.035 152.684C101.707 152.86 101.451 153.12 101.267 153.464C101.091 153.8 101.003 154.208 101.003 154.688V158H100.151V151.7H100.967V153.428L100.835 153.104C101.035 152.648 101.355 152.292 101.795 152.036C102.235 151.772 102.759 151.64 103.367 151.64ZM110.876 158.06C110.252 158.06 109.692 157.924 109.196 157.652C108.708 157.372 108.324 156.992 108.044 156.512C107.764 156.024 107.624 155.468 107.624 154.844C107.624 154.212 107.764 153.656 108.044 153.176C108.324 152.696 108.708 152.32 109.196 152.048C109.692 151.776 110.252 151.64 110.876 151.64C111.412 151.64 111.896 151.744 112.328 151.952C112.76 152.16 113.1 152.472 113.348 152.888L112.712 153.32C112.496 153 112.228 152.764 111.908 152.612C111.588 152.46 111.24 152.384 110.864 152.384C110.416 152.384 110.012 152.488 109.652 152.696C109.292 152.896 109.008 153.18 108.8 153.548C108.592 153.916 108.488 154.348 108.488 154.844C108.488 155.34 108.592 155.772 108.8 156.14C109.008 156.508 109.292 156.796 109.652 157.004C110.012 157.204 110.416 157.304 110.864 157.304C111.24 157.304 111.588 157.228 111.908 157.076C112.228 156.924 112.496 156.692 112.712 156.38L113.348 156.812C113.1 157.22 112.76 157.532 112.328 157.748C111.896 157.956 111.412 158.06 110.876 158.06ZM114.928 158V151.7H115.78V158H114.928ZM115.36 150.308C115.184 150.308 115.036 150.248 114.916 150.128C114.796 150.008 114.736 149.864 114.736 149.696C114.736 149.528 114.796 149.388 114.916 149.276C115.036 149.156 115.184 149.096 115.36 149.096C115.536 149.096 115.684 149.152 115.804 149.264C115.924 149.376 115.984 149.516 115.984 149.684C115.984 149.86 115.924 150.008 115.804 150.128C115.692 150.248 115.544 150.308 115.36 150.308ZM122.099 158V156.608L122.063 156.38V154.052C122.063 153.516 121.911 153.104 121.607 152.816C121.311 152.528 120.867 152.384 120.275 152.384C119.867 152.384 119.479 152.452 119.111 152.588C118.743 152.724 118.431 152.904 118.175 153.128L117.791 152.492C118.111 152.22 118.495 152.012 118.943 151.868C119.391 151.716 119.863 151.64 120.359 151.64C121.175 151.64 121.803 151.844 122.243 152.252C122.691 152.652 122.915 153.264 122.915 154.088V158H122.099ZM119.927 158.06C119.455 158.06 119.043 157.984 118.691 157.832C118.347 157.672 118.083 157.456 117.899 157.184C117.715 156.904 117.623 156.584 117.623 156.224C117.623 155.896 117.699 155.6 117.851 155.336C118.011 155.064 118.267 154.848 118.619 154.688C118.979 154.52 119.459 154.436 120.059 154.436H122.231V155.072H120.083C119.475 155.072 119.051 155.18 118.811 155.396C118.579 155.612 118.463 155.88 118.463 156.2C118.463 156.56 118.603 156.848 118.883 157.064C119.163 157.28 119.555 157.388 120.059 157.388C120.539 157.388 120.951 157.28 121.295 157.064C121.647 156.84 121.903 156.52 122.063 156.104L122.255 156.692C122.095 157.108 121.815 157.44 121.415 157.688C121.023 157.936 120.527 158.06 119.927 158.06ZM125.229 158V149.096H126.081V158H125.229ZM134.16 158.06C133.552 158.06 133.004 157.924 132.516 157.652C132.036 157.372 131.656 156.992 131.376 156.512C131.096 156.024 130.956 155.468 130.956 154.844C130.956 154.212 131.096 153.656 131.376 153.176C131.656 152.696 132.036 152.32 132.516 152.048C132.996 151.776 133.544 151.64 134.16 151.64C134.784 151.64 135.336 151.776 135.816 152.048C136.304 152.32 136.684 152.696 136.956 153.176C137.236 153.656 137.376 154.212 137.376 154.844C137.376 155.468 137.236 156.024 136.956 156.512C136.684 156.992 136.304 157.372 135.816 157.652C135.328 157.924 134.776 158.06 134.16 158.06ZM134.16 157.304C134.616 157.304 135.02 157.204 135.372 157.004C135.724 156.796 136 156.508 136.2 156.14C136.408 155.764 136.512 155.332 136.512 154.844C136.512 154.348 136.408 153.916 136.2 153.548C136 153.18 135.724 152.896 135.372 152.696C135.02 152.488 134.62 152.384 134.172 152.384C133.724 152.384 133.324 152.488 132.972 152.696C132.62 152.896 132.34 153.18 132.132 153.548C131.924 153.916 131.82 154.348 131.82 154.844C131.82 155.332 131.924 155.764 132.132 156.14C132.34 156.508 132.62 156.796 132.972 157.004C133.324 157.204 133.72 157.304 134.16 157.304ZM140.56 158L137.764 151.7H138.652L141.22 157.544H140.8L143.404 151.7H144.244L141.436 158H140.56ZM147.944 158.06C147.288 158.06 146.712 157.924 146.216 157.652C145.72 157.372 145.332 156.992 145.052 156.512C144.772 156.024 144.632 155.468 144.632 154.844C144.632 154.22 144.764 153.668 145.028 153.188C145.3 152.708 145.668 152.332 146.132 152.06C146.604 151.78 147.132 151.64 147.716 151.64C148.308 151.64 148.832 151.776 149.288 152.048C149.752 152.312 150.116 152.688 150.38 153.176C150.644 153.656 150.776 154.212 150.776 154.844C150.776 154.884 150.772 154.928 150.764 154.976C150.764 155.016 150.764 155.06 150.764 155.108H145.28V154.472H150.308L149.972 154.724C149.972 154.268 149.872 153.864 149.672 153.512C149.48 153.152 149.216 152.872 148.88 152.672C148.544 152.472 148.156 152.372 147.716 152.372C147.284 152.372 146.896 152.472 146.552 152.672C146.208 152.872 145.94 153.152 145.748 153.512C145.556 153.872 145.46 154.284 145.46 154.748V154.88C145.46 155.36 145.564 155.784 145.772 156.152C145.988 156.512 146.284 156.796 146.66 157.004C147.044 157.204 147.48 157.304 147.968 157.304C148.352 157.304 148.708 157.236 149.036 157.1C149.372 156.964 149.66 156.756 149.9 156.476L150.38 157.028C150.1 157.364 149.748 157.62 149.324 157.796C148.908 157.972 148.448 158.06 147.944 158.06ZM152.51 158V151.7H153.326V153.416L153.242 153.116C153.418 152.636 153.714 152.272 154.13 152.024C154.546 151.768 155.062 151.64 155.678 151.64V152.468C155.646 152.468 155.614 152.468 155.582 152.468C155.55 152.46 155.518 152.456 155.486 152.456C154.822 152.456 154.302 152.66 153.926 153.068C153.55 153.468 153.362 154.04 153.362 154.784V158H152.51ZM159.122 158L156.326 151.7H157.214L159.782 157.544H159.362L161.966 151.7H162.806L159.998 158H159.122ZM164.006 158V151.7H164.858V158H164.006ZM164.438 150.308C164.262 150.308 164.114 150.248 163.994 150.128C163.874 150.008 163.814 149.864 163.814 149.696C163.814 149.528 163.874 149.388 163.994 149.276C164.114 149.156 164.262 149.096 164.438 149.096C164.614 149.096 164.762 149.152 164.882 149.264C165.002 149.376 165.062 149.516 165.062 149.684C165.062 149.86 165.002 150.008 164.882 150.128C164.77 150.248 164.622 150.308 164.438 150.308ZM169.905 158.06C169.249 158.06 168.673 157.924 168.177 157.652C167.681 157.372 167.293 156.992 167.013 156.512C166.733 156.024 166.593 155.468 166.593 154.844C166.593 154.22 166.725 153.668 166.989 153.188C167.261 152.708 167.629 152.332 168.093 152.06C168.565 151.78 169.093 151.64 169.677 151.64C170.269 151.64 170.793 151.776 171.249 152.048C171.713 152.312 172.077 152.688 172.341 153.176C172.605 153.656 172.737 154.212 172.737 154.844C172.737 154.884 172.733 154.928 172.725 154.976C172.725 155.016 172.725 155.06 172.725 155.108H167.241V154.472H172.269L171.933 154.724C171.933 154.268 171.833 153.864 171.633 153.512C171.441 153.152 171.177 152.872 170.841 152.672C170.505 152.472 170.117 152.372 169.677 152.372C169.245 152.372 168.857 152.472 168.513 152.672C168.169 152.872 167.901 153.152 167.709 153.512C167.517 153.872 167.421 154.284 167.421 154.748V154.88C167.421 155.36 167.525 155.784 167.733 156.152C167.949 156.512 168.245 156.796 168.621 157.004C169.005 157.204 169.441 157.304 169.929 157.304C170.313 157.304 170.669 157.236 170.997 157.1C171.333 156.964 171.621 156.756 171.861 156.476L172.341 157.028C172.061 157.364 171.709 157.62 171.285 157.796C170.869 157.972 170.409 158.06 169.905 158.06ZM175.638 158L173.262 151.7H174.078L176.238 157.544H175.866L178.086 151.7H178.818L181.014 157.544H180.642L182.838 151.7H183.618L181.23 158H180.426L178.314 152.504H178.566L176.442 158H175.638ZM189.326 158L186.95 151.7H187.766L189.926 157.544H189.554L191.774 151.7H192.506L194.702 157.544H194.33L196.526 151.7H197.306L194.918 158H194.114L192.002 152.504H192.254L190.13 158H189.326ZM198.588 158V151.7H199.44V158H198.588ZM199.02 150.308C198.844 150.308 198.696 150.248 198.576 150.128C198.456 150.008 198.396 149.864 198.396 149.696C198.396 149.528 198.456 149.388 198.576 149.276C198.696 149.156 198.844 149.096 199.02 149.096C199.196 149.096 199.344 149.152 199.464 149.264C199.584 149.376 199.644 149.516 199.644 149.684C199.644 149.86 199.584 150.008 199.464 150.128C199.352 150.248 199.204 150.308 199.02 150.308ZM201.811 158V149.096H202.663V158H201.811ZM205.034 158V149.096H205.886V158H205.034ZM215.345 158V156.608L215.309 156.38V154.052C215.309 153.516 215.157 153.104 214.853 152.816C214.557 152.528 214.113 152.384 213.521 152.384C213.113 152.384 212.725 152.452 212.357 152.588C211.989 152.724 211.677 152.904 211.421 153.128L211.037 152.492C211.357 152.22 211.741 152.012 212.189 151.868C212.637 151.716 213.109 151.64 213.605 151.64C214.421 151.64 215.049 151.844 215.489 152.252C215.937 152.652 216.161 153.264 216.161 154.088V158H215.345ZM213.173 158.06C212.701 158.06 212.289 157.984 211.937 157.832C211.593 157.672 211.329 157.456 211.145 157.184C210.961 156.904 210.869 156.584 210.869 156.224C210.869 155.896 210.945 155.6 211.097 155.336C211.257 155.064 211.513 154.848 211.865 154.688C212.225 154.52 212.705 154.436 213.305 154.436H215.477V155.072H213.329C212.721 155.072 212.297 155.18 212.057 155.396C211.825 155.612 211.709 155.88 211.709 156.2C211.709 156.56 211.849 156.848 212.129 157.064C212.409 157.28 212.801 157.388 213.305 157.388C213.785 157.388 214.197 157.28 214.541 157.064C214.893 156.84 215.149 156.52 215.309 156.104L215.501 156.692C215.341 157.108 215.061 157.44 214.661 157.688C214.269 157.936 213.773 158.06 213.173 158.06ZM221.727 158.06C221.183 158.06 220.691 157.936 220.251 157.688C219.811 157.432 219.459 157.068 219.195 156.596C218.939 156.116 218.811 155.532 218.811 154.844C218.811 154.156 218.939 153.576 219.195 153.104C219.451 152.624 219.799 152.26 220.239 152.012C220.679 151.764 221.175 151.64 221.727 151.64C222.327 151.64 222.863 151.776 223.335 152.048C223.815 152.312 224.191 152.688 224.463 153.176C224.735 153.656 224.871 154.212 224.871 154.844C224.871 155.484 224.735 156.044 224.463 156.524C224.191 157.004 223.815 157.38 223.335 157.652C222.863 157.924 222.327 158.06 221.727 158.06ZM218.475 160.328V151.7H219.291V153.596L219.207 154.856L219.327 156.128V160.328H218.475ZM221.667 157.304C222.115 157.304 222.515 157.204 222.867 157.004C223.219 156.796 223.499 156.508 223.707 156.14C223.915 155.764 224.019 155.332 224.019 154.844C224.019 154.356 223.915 153.928 223.707 153.56C223.499 153.192 223.219 152.904 222.867 152.696C222.515 152.488 222.115 152.384 221.667 152.384C221.219 152.384 220.815 152.488 220.455 152.696C220.103 152.904 219.823 153.192 219.615 153.56C219.415 153.928 219.315 154.356 219.315 154.844C219.315 155.332 219.415 155.764 219.615 156.14C219.823 156.508 220.103 156.796 220.455 157.004C220.815 157.204 221.219 157.304 221.667 157.304ZM229.86 158.06C229.316 158.06 228.824 157.936 228.384 157.688C227.944 157.432 227.592 157.068 227.328 156.596C227.072 156.116 226.944 155.532 226.944 154.844C226.944 154.156 227.072 153.576 227.328 153.104C227.584 152.624 227.932 152.26 228.372 152.012C228.812 151.764 229.308 151.64 229.86 151.64C230.46 151.64 230.996 151.776 231.468 152.048C231.948 152.312 232.324 152.688 232.596 153.176C232.868 153.656 233.004 154.212 233.004 154.844C233.004 155.484 232.868 156.044 232.596 156.524C232.324 157.004 231.948 157.38 231.468 157.652C230.996 157.924 230.46 158.06 229.86 158.06ZM226.608 160.328V151.7H227.424V153.596L227.34 154.856L227.46 156.128V160.328H226.608ZM229.8 157.304C230.248 157.304 230.648 157.204 231 157.004C231.352 156.796 231.632 156.508 231.84 156.14C232.048 155.764 232.152 155.332 232.152 154.844C232.152 154.356 232.048 153.928 231.84 153.56C231.632 153.192 231.352 152.904 231 152.696C230.648 152.488 230.248 152.384 229.8 152.384C229.352 152.384 228.948 152.488 228.588 152.696C228.236 152.904 227.956 153.192 227.748 153.56C227.548 153.928 227.448 154.356 227.448 154.844C227.448 155.332 227.548 155.764 227.748 156.14C227.956 156.508 228.236 156.796 228.588 157.004C228.948 157.204 229.352 157.304 229.8 157.304ZM237.417 158.06C236.761 158.06 236.185 157.924 235.689 157.652C235.193 157.372 234.805 156.992 234.525 156.512C234.245 156.024 234.105 155.468 234.105 154.844C234.105 154.22 234.237 153.668 234.501 153.188C234.773 152.708 235.141 152.332 235.605 152.06C236.077 151.78 236.605 151.64 237.189 151.64C237.781 151.64 238.305 151.776 238.761 152.048C239.225 152.312 239.589 152.688 239.853 153.176C240.117 153.656 240.249 154.212 240.249 154.844C240.249 154.884 240.245 154.928 240.237 154.976C240.237 155.016 240.237 155.06 240.237 155.108H234.753V154.472H239.781L239.445 154.724C239.445 154.268 239.345 153.864 239.145 153.512C238.953 153.152 238.689 152.872 238.353 152.672C238.017 152.472 237.629 152.372 237.189 152.372C236.757 152.372 236.369 152.472 236.025 152.672C235.681 152.872 235.413 153.152 235.221 153.512C235.029 153.872 234.933 154.284 234.933 154.748V154.88C234.933 155.36 235.037 155.784 235.245 156.152C235.461 156.512 235.757 156.796 236.133 157.004C236.517 157.204 236.953 157.304 237.441 157.304C237.825 157.304 238.181 157.236 238.509 157.1C238.845 156.964 239.133 156.756 239.373 156.476L239.853 157.028C239.573 157.364 239.221 157.62 238.797 157.796C238.381 157.972 237.921 158.06 237.417 158.06ZM245.755 158V156.608L245.719 156.38V154.052C245.719 153.516 245.567 153.104 245.263 152.816C244.967 152.528 244.523 152.384 243.931 152.384C243.523 152.384 243.135 152.452 242.767 152.588C242.399 152.724 242.087 152.904 241.831 153.128L241.447 152.492C241.767 152.22 242.151 152.012 242.599 151.868C243.047 151.716 243.519 151.64 244.015 151.64C244.831 151.64 245.459 151.844 245.899 152.252C246.347 152.652 246.571 153.264 246.571 154.088V158H245.755ZM243.583 158.06C243.111 158.06 242.699 157.984 242.347 157.832C242.003 157.672 241.739 157.456 241.555 157.184C241.371 156.904 241.279 156.584 241.279 156.224C241.279 155.896 241.355 155.6 241.507 155.336C241.667 155.064 241.923 154.848 242.275 154.688C242.635 154.52 243.115 154.436 243.715 154.436H245.887V155.072H243.739C243.131 155.072 242.707 155.18 242.467 155.396C242.235 155.612 242.119 155.88 242.119 156.2C242.119 156.56 242.259 156.848 242.539 157.064C242.819 157.28 243.211 157.388 243.715 157.388C244.195 157.388 244.607 157.28 244.951 157.064C245.303 156.84 245.559 156.52 245.719 156.104L245.911 156.692C245.751 157.108 245.471 157.44 245.071 157.688C244.679 157.936 244.183 158.06 243.583 158.06ZM248.885 158V151.7H249.701V153.416L249.617 153.116C249.793 152.636 250.089 152.272 250.505 152.024C250.921 151.768 251.437 151.64 252.053 151.64V152.468C252.021 152.468 251.989 152.468 251.957 152.468C251.925 152.46 251.893 152.456 251.861 152.456C251.197 152.456 250.677 152.66 250.301 153.068C249.925 153.468 249.737 154.04 249.737 154.784V158H248.885ZM260.058 151.64C260.57 151.64 261.018 151.74 261.402 151.94C261.794 152.132 262.098 152.428 262.314 152.828C262.538 153.228 262.65 153.732 262.65 154.34V158H261.798V154.424C261.798 153.76 261.63 153.26 261.294 152.924C260.966 152.58 260.502 152.408 259.902 152.408C259.454 152.408 259.062 152.5 258.726 152.684C258.398 152.86 258.142 153.12 257.958 153.464C257.782 153.8 257.694 154.208 257.694 154.688V158H256.842V149.096H257.694V153.428L257.526 153.104C257.726 152.648 258.046 152.292 258.486 152.036C258.926 151.772 259.45 151.64 260.058 151.64ZM267.628 158.06C266.972 158.06 266.396 157.924 265.9 157.652C265.404 157.372 265.016 156.992 264.736 156.512C264.456 156.024 264.316 155.468 264.316 154.844C264.316 154.22 264.448 153.668 264.712 153.188C264.984 152.708 265.352 152.332 265.816 152.06C266.288 151.78 266.816 151.64 267.4 151.64C267.992 151.64 268.516 151.776 268.972 152.048C269.436 152.312 269.8 152.688 270.064 153.176C270.328 153.656 270.46 154.212 270.46 154.844C270.46 154.884 270.456 154.928 270.448 154.976C270.448 155.016 270.448 155.06 270.448 155.108H264.964V154.472H269.992L269.656 154.724C269.656 154.268 269.556 153.864 269.356 153.512C269.164 153.152 268.9 152.872 268.564 152.672C268.228 152.472 267.84 152.372 267.4 152.372C266.968 152.372 266.58 152.472 266.236 152.672C265.892 152.872 265.624 153.152 265.432 153.512C265.24 153.872 265.144 154.284 265.144 154.748V154.88C265.144 155.36 265.248 155.784 265.456 156.152C265.672 156.512 265.968 156.796 266.344 157.004C266.728 157.204 267.164 157.304 267.652 157.304C268.036 157.304 268.392 157.236 268.72 157.1C269.056 156.964 269.344 156.756 269.584 156.476L270.064 157.028C269.784 157.364 269.432 157.62 269.008 157.796C268.592 157.972 268.132 158.06 267.628 158.06ZM272.194 158V151.7H273.01V153.416L272.926 153.116C273.102 152.636 273.398 152.272 273.814 152.024C274.23 151.768 274.746 151.64 275.362 151.64V152.468C275.33 152.468 275.298 152.468 275.266 152.468C275.234 152.46 275.202 152.456 275.17 152.456C274.506 152.456 273.986 152.66 273.61 153.068C273.234 153.468 273.046 154.04 273.046 154.784V158H272.194ZM279.534 158.06C278.878 158.06 278.302 157.924 277.806 157.652C277.31 157.372 276.922 156.992 276.642 156.512C276.362 156.024 276.222 155.468 276.222 154.844C276.222 154.22 276.354 153.668 276.618 153.188C276.89 152.708 277.258 152.332 277.722 152.06C278.194 151.78 278.722 151.64 279.306 151.64C279.898 151.64 280.422 151.776 280.878 152.048C281.342 152.312 281.706 152.688 281.97 153.176C282.234 153.656 282.366 154.212 282.366 154.844C282.366 154.884 282.362 154.928 282.354 154.976C282.354 155.016 282.354 155.06 282.354 155.108H276.87V154.472H281.898L281.562 154.724C281.562 154.268 281.462 153.864 281.262 153.512C281.07 153.152 280.806 152.872 280.47 152.672C280.134 152.472 279.746 152.372 279.306 152.372C278.874 152.372 278.486 152.472 278.142 152.672C277.798 152.872 277.53 153.152 277.338 153.512C277.146 153.872 277.05 154.284 277.05 154.748V154.88C277.05 155.36 277.154 155.784 277.362 156.152C277.578 156.512 277.874 156.796 278.25 157.004C278.634 157.204 279.07 157.304 279.558 157.304C279.942 157.304 280.298 157.236 280.626 157.1C280.962 156.964 281.25 156.756 281.49 156.476L281.97 157.028C281.69 157.364 281.338 157.62 280.914 157.796C280.498 157.972 280.038 158.06 279.534 158.06ZM23.5119 176.06C22.9039 176.06 22.3559 175.924 21.8679 175.652C21.3879 175.372 21.0079 174.992 20.7279 174.512C20.4479 174.024 20.3079 173.468 20.3079 172.844C20.3079 172.212 20.4479 171.656 20.7279 171.176C21.0079 170.696 21.3879 170.32 21.8679 170.048C22.3479 169.776 22.8959 169.64 23.5119 169.64C24.1359 169.64 24.6879 169.776 25.1679 170.048C25.6559 170.32 26.0359 170.696 26.3079 171.176C26.5879 171.656 26.7279 172.212 26.7279 172.844C26.7279 173.468 26.5879 174.024 26.3079 174.512C26.0359 174.992 25.6559 175.372 25.1679 175.652C24.6799 175.924 24.1279 176.06 23.5119 176.06ZM23.5119 175.304C23.9679 175.304 24.3719 175.204 24.7239 175.004C25.0759 174.796 25.3519 174.508 25.5519 174.14C25.7599 173.764 25.8639 173.332 25.8639 172.844C25.8639 172.348 25.7599 171.916 25.5519 171.548C25.3519 171.18 25.0759 170.896 24.7239 170.696C24.3719 170.488 23.9719 170.384 23.5239 170.384C23.0759 170.384 22.6759 170.488 22.3239 170.696C21.9719 170.896 21.6919 171.18 21.4839 171.548C21.2759 171.916 21.1719 172.348 21.1719 172.844C21.1719 173.332 21.2759 173.764 21.4839 174.14C21.6919 174.508 21.9719 174.796 22.3239 175.004C22.6759 175.204 23.0719 175.304 23.5119 175.304ZM31.6833 169.64C32.1953 169.64 32.6433 169.74 33.0273 169.94C33.4193 170.132 33.7233 170.428 33.9393 170.828C34.1633 171.228 34.2753 171.732 34.2753 172.34V176H33.4233V172.424C33.4233 171.76 33.2553 171.26 32.9193 170.924C32.5913 170.58 32.1273 170.408 31.5273 170.408C31.0793 170.408 30.6873 170.5 30.3513 170.684C30.0233 170.86 29.7673 171.12 29.5833 171.464C29.4073 171.8 29.3193 172.208 29.3193 172.688V176H28.4673V169.7H29.2833V171.428L29.1513 171.104C29.3513 170.648 29.6713 170.292 30.1113 170.036C30.5513 169.772 31.0753 169.64 31.6833 169.64ZM39.1927 176.06C38.5687 176.06 38.0087 175.924 37.5127 175.652C37.0247 175.372 36.6407 174.992 36.3607 174.512C36.0807 174.024 35.9407 173.468 35.9407 172.844C35.9407 172.212 36.0807 171.656 36.3607 171.176C36.6407 170.696 37.0247 170.32 37.5127 170.048C38.0087 169.776 38.5687 169.64 39.1927 169.64C39.7287 169.64 40.2127 169.744 40.6447 169.952C41.0767 170.16 41.4167 170.472 41.6647 170.888L41.0287 171.32C40.8127 171 40.5447 170.764 40.2247 170.612C39.9047 170.46 39.5567 170.384 39.1807 170.384C38.7327 170.384 38.3287 170.488 37.9687 170.696C37.6087 170.896 37.3247 171.18 37.1167 171.548C36.9087 171.916 36.8047 172.348 36.8047 172.844C36.8047 173.34 36.9087 173.772 37.1167 174.14C37.3247 174.508 37.6087 174.796 37.9687 175.004C38.3287 175.204 38.7327 175.304 39.1807 175.304C39.5567 175.304 39.9047 175.228 40.2247 175.076C40.5447 174.924 40.8127 174.692 41.0287 174.38L41.6647 174.812C41.4167 175.22 41.0767 175.532 40.6447 175.748C40.2127 175.956 39.7287 176.06 39.1927 176.06ZM45.9089 176.06C45.2529 176.06 44.6769 175.924 44.1809 175.652C43.6849 175.372 43.2969 174.992 43.0169 174.512C42.7369 174.024 42.5969 173.468 42.5969 172.844C42.5969 172.22 42.7289 171.668 42.9929 171.188C43.2649 170.708 43.6329 170.332 44.0969 170.06C44.5689 169.78 45.0969 169.64 45.6809 169.64C46.2729 169.64 46.7969 169.776 47.2529 170.048C47.7169 170.312 48.0809 170.688 48.3449 171.176C48.6089 171.656 48.7409 172.212 48.7409 172.844C48.7409 172.884 48.7369 172.928 48.7289 172.976C48.7289 173.016 48.7289 173.06 48.7289 173.108H43.2449V172.472H48.2729L47.9369 172.724C47.9369 172.268 47.8369 171.864 47.6369 171.512C47.4449 171.152 47.1809 170.872 46.8449 170.672C46.5089 170.472 46.1209 170.372 45.6809 170.372C45.2489 170.372 44.8609 170.472 44.5169 170.672C44.1729 170.872 43.9049 171.152 43.7129 171.512C43.5209 171.872 43.4249 172.284 43.4249 172.748V172.88C43.4249 173.36 43.5289 173.784 43.7369 174.152C43.9529 174.512 44.2489 174.796 44.6249 175.004C45.0089 175.204 45.4449 175.304 45.9329 175.304C46.3169 175.304 46.6729 175.236 47.0009 175.1C47.3369 174.964 47.6249 174.756 47.8649 174.476L48.3449 175.028C48.0649 175.364 47.7129 175.62 47.2889 175.796C46.8729 175.972 46.4129 176.06 45.9089 176.06ZM55.6077 176.06C55.0157 176.06 54.5597 175.9 54.2397 175.58C53.9197 175.26 53.7597 174.808 53.7597 174.224V168.308H54.6117V174.176C54.6117 174.544 54.7037 174.828 54.8877 175.028C55.0797 175.228 55.3517 175.328 55.7037 175.328C56.0797 175.328 56.3917 175.22 56.6397 175.004L56.9397 175.616C56.7717 175.768 56.5677 175.88 56.3277 175.952C56.0957 176.024 55.8557 176.06 55.6077 176.06ZM52.6317 170.408V169.7H56.5317V170.408H52.6317ZM58.4907 176V169.7H59.3067V171.416L59.2227 171.116C59.3987 170.636 59.6947 170.272 60.1107 170.024C60.5267 169.768 61.0427 169.64 61.6587 169.64V170.468C61.6267 170.468 61.5947 170.468 61.5627 170.468C61.5307 170.46 61.4987 170.456 61.4667 170.456C60.8027 170.456 60.2827 170.66 59.9067 171.068C59.5307 171.468 59.3427 172.04 59.3427 172.784V176H58.4907ZM66.6926 176V174.608L66.6566 174.38V172.052C66.6566 171.516 66.5046 171.104 66.2006 170.816C65.9046 170.528 65.4606 170.384 64.8686 170.384C64.4606 170.384 64.0726 170.452 63.7046 170.588C63.3366 170.724 63.0246 170.904 62.7686 171.128L62.3846 170.492C62.7046 170.22 63.0886 170.012 63.5366 169.868C63.9846 169.716 64.4566 169.64 64.9526 169.64C65.7686 169.64 66.3966 169.844 66.8366 170.252C67.2846 170.652 67.5086 171.264 67.5086 172.088V176H66.6926ZM64.5206 176.06C64.0486 176.06 63.6366 175.984 63.2846 175.832C62.9406 175.672 62.6766 175.456 62.4926 175.184C62.3086 174.904 62.2166 174.584 62.2166 174.224C62.2166 173.896 62.2926 173.6 62.4446 173.336C62.6046 173.064 62.8606 172.848 63.2126 172.688C63.5726 172.52 64.0526 172.436 64.6526 172.436H66.8246V173.072H64.6766C64.0686 173.072 63.6446 173.18 63.4046 173.396C63.1726 173.612 63.0566 173.88 63.0566 174.2C63.0566 174.56 63.1966 174.848 63.4766 175.064C63.7566 175.28 64.1486 175.388 64.6526 175.388C65.1326 175.388 65.5446 175.28 65.8886 175.064C66.2406 174.84 66.4966 174.52 66.6566 174.104L66.8486 174.692C66.6886 175.108 66.4086 175.44 66.0086 175.688C65.6166 175.936 65.1206 176.06 64.5206 176.06ZM73.0388 169.64C73.5508 169.64 73.9988 169.74 74.3828 169.94C74.7748 170.132 75.0788 170.428 75.2948 170.828C75.5188 171.228 75.6308 171.732 75.6308 172.34V176H74.7788V172.424C74.7788 171.76 74.6108 171.26 74.2748 170.924C73.9468 170.58 73.4828 170.408 72.8828 170.408C72.4348 170.408 72.0428 170.5 71.7068 170.684C71.3788 170.86 71.1228 171.12 70.9388 171.464C70.7628 171.8 70.6748 172.208 70.6748 172.688V176H69.8228V169.7H70.6388V171.428L70.5068 171.104C70.7068 170.648 71.0268 170.292 71.4668 170.036C71.9068 169.772 72.4308 169.64 73.0388 169.64ZM79.6241 176.06C79.1041 176.06 78.6121 175.988 78.1481 175.844C77.6841 175.692 77.3201 175.504 77.0561 175.28L77.4401 174.608C77.6961 174.8 78.0241 174.968 78.4241 175.112C78.8241 175.248 79.2441 175.316 79.6841 175.316C80.2841 175.316 80.7161 175.224 80.9801 175.04C81.2441 174.848 81.3761 174.596 81.3761 174.284C81.3761 174.052 81.3001 173.872 81.1481 173.744C81.0041 173.608 80.8121 173.508 80.5721 173.444C80.3321 173.372 80.0641 173.312 79.7681 173.264C79.4721 173.216 79.1761 173.16 78.8801 173.096C78.5921 173.032 78.3281 172.94 78.0881 172.82C77.8481 172.692 77.6521 172.52 77.5001 172.304C77.3561 172.088 77.2841 171.8 77.2841 171.44C77.2841 171.096 77.3801 170.788 77.5721 170.516C77.7641 170.244 78.0441 170.032 78.4121 169.88C78.7881 169.72 79.2441 169.64 79.7801 169.64C80.1881 169.64 80.5961 169.696 81.0041 169.808C81.4121 169.912 81.7481 170.052 82.0121 170.228L81.6401 170.912C81.3601 170.72 81.0601 170.584 80.7401 170.504C80.4201 170.416 80.1001 170.372 79.7801 170.372C79.2121 170.372 78.7921 170.472 78.5201 170.672C78.2561 170.864 78.1241 171.112 78.1241 171.416C78.1241 171.656 78.1961 171.844 78.3401 171.98C78.4921 172.116 78.6881 172.224 78.9281 172.304C79.1761 172.376 79.4441 172.436 79.7321 172.484C80.0281 172.532 80.3201 172.592 80.6081 172.664C80.9041 172.728 81.1721 172.82 81.4121 172.94C81.6601 173.052 81.8561 173.216 82.0001 173.432C82.1521 173.64 82.2281 173.916 82.2281 174.26C82.2281 174.628 82.1241 174.948 81.9161 175.22C81.7161 175.484 81.4201 175.692 81.0281 175.844C80.6441 175.988 80.1761 176.06 79.6241 176.06ZM87.7395 176V174.608L87.7035 174.38V172.052C87.7035 171.516 87.5515 171.104 87.2475 170.816C86.9515 170.528 86.5075 170.384 85.9155 170.384C85.5075 170.384 85.1195 170.452 84.7515 170.588C84.3835 170.724 84.0715 170.904 83.8155 171.128L83.4315 170.492C83.7515 170.22 84.1355 170.012 84.5835 169.868C85.0315 169.716 85.5035 169.64 85.9995 169.64C86.8155 169.64 87.4435 169.844 87.8835 170.252C88.3315 170.652 88.5555 171.264 88.5555 172.088V176H87.7395ZM85.5675 176.06C85.0955 176.06 84.6835 175.984 84.3315 175.832C83.9875 175.672 83.7235 175.456 83.5395 175.184C83.3555 174.904 83.2635 174.584 83.2635 174.224C83.2635 173.896 83.3395 173.6 83.4915 173.336C83.6515 173.064 83.9075 172.848 84.2595 172.688C84.6195 172.52 85.0995 172.436 85.6995 172.436H87.8715V173.072H85.7235C85.1155 173.072 84.6915 173.18 84.4515 173.396C84.2195 173.612 84.1035 173.88 84.1035 174.2C84.1035 174.56 84.2435 174.848 84.5235 175.064C84.8035 175.28 85.1955 175.388 85.6995 175.388C86.1795 175.388 86.5915 175.28 86.9355 175.064C87.2875 174.84 87.5435 174.52 87.7035 174.104L87.8955 174.692C87.7355 175.108 87.4555 175.44 87.0555 175.688C86.6635 175.936 86.1675 176.06 85.5675 176.06ZM93.4856 176.06C92.8616 176.06 92.3016 175.924 91.8056 175.652C91.3176 175.372 90.9336 174.992 90.6536 174.512C90.3736 174.024 90.2336 173.468 90.2336 172.844C90.2336 172.212 90.3736 171.656 90.6536 171.176C90.9336 170.696 91.3176 170.32 91.8056 170.048C92.3016 169.776 92.8616 169.64 93.4856 169.64C94.0216 169.64 94.5056 169.744 94.9376 169.952C95.3696 170.16 95.7096 170.472 95.9576 170.888L95.3216 171.32C95.1056 171 94.8376 170.764 94.5176 170.612C94.1976 170.46 93.8496 170.384 93.4736 170.384C93.0256 170.384 92.6216 170.488 92.2616 170.696C91.9016 170.896 91.6176 171.18 91.4096 171.548C91.2016 171.916 91.0976 172.348 91.0976 172.844C91.0976 173.34 91.2016 173.772 91.4096 174.14C91.6176 174.508 91.9016 174.796 92.2616 175.004C92.6216 175.204 93.0256 175.304 93.4736 175.304C93.8496 175.304 94.1976 175.228 94.5176 175.076C94.8376 174.924 95.1056 174.692 95.3216 174.38L95.9576 174.812C95.7096 175.22 95.3696 175.532 94.9376 175.748C94.5056 175.956 94.0216 176.06 93.4856 176.06ZM99.6937 176.06C99.1017 176.06 98.6457 175.9 98.3257 175.58C98.0057 175.26 97.8457 174.808 97.8457 174.224V168.308H98.6977V174.176C98.6977 174.544 98.7897 174.828 98.9737 175.028C99.1657 175.228 99.4377 175.328 99.7897 175.328C100.166 175.328 100.478 175.22 100.726 175.004L101.026 175.616C100.858 175.768 100.654 175.88 100.414 175.952C100.182 176.024 99.9417 176.06 99.6937 176.06ZM96.7177 170.408V169.7H100.618V170.408H96.7177ZM102.577 176V169.7H103.429V176H102.577ZM103.009 168.308C102.833 168.308 102.685 168.248 102.565 168.128C102.445 168.008 102.385 167.864 102.385 167.696C102.385 167.528 102.445 167.388 102.565 167.276C102.685 167.156 102.833 167.096 103.009 167.096C103.185 167.096 103.333 167.152 103.453 167.264C103.573 167.376 103.633 167.516 103.633 167.684C103.633 167.86 103.573 168.008 103.453 168.128C103.341 168.248 103.193 168.308 103.009 168.308ZM108.367 176.06C107.759 176.06 107.211 175.924 106.723 175.652C106.243 175.372 105.863 174.992 105.583 174.512C105.303 174.024 105.163 173.468 105.163 172.844C105.163 172.212 105.303 171.656 105.583 171.176C105.863 170.696 106.243 170.32 106.723 170.048C107.203 169.776 107.751 169.64 108.367 169.64C108.991 169.64 109.543 169.776 110.023 170.048C110.511 170.32 110.891 170.696 111.163 171.176C111.443 171.656 111.583 172.212 111.583 172.844C111.583 173.468 111.443 174.024 111.163 174.512C110.891 174.992 110.511 175.372 110.023 175.652C109.535 175.924 108.983 176.06 108.367 176.06ZM108.367 175.304C108.823 175.304 109.227 175.204 109.579 175.004C109.931 174.796 110.207 174.508 110.407 174.14C110.615 173.764 110.719 173.332 110.719 172.844C110.719 172.348 110.615 171.916 110.407 171.548C110.207 171.18 109.931 170.896 109.579 170.696C109.227 170.488 108.827 170.384 108.379 170.384C107.931 170.384 107.531 170.488 107.179 170.696C106.827 170.896 106.547 171.18 106.339 171.548C106.131 171.916 106.027 172.348 106.027 172.844C106.027 173.332 106.131 173.764 106.339 174.14C106.547 174.508 106.827 174.796 107.179 175.004C107.531 175.204 107.927 175.304 108.367 175.304ZM116.539 169.64C117.051 169.64 117.499 169.74 117.883 169.94C118.275 170.132 118.579 170.428 118.795 170.828C119.019 171.228 119.131 171.732 119.131 172.34V176H118.279V172.424C118.279 171.76 118.111 171.26 117.775 170.924C117.447 170.58 116.983 170.408 116.383 170.408C115.935 170.408 115.543 170.5 115.207 170.684C114.879 170.86 114.623 171.12 114.439 171.464C114.263 171.8 114.175 172.208 114.175 172.688V176H113.323V169.7H114.139V171.428L114.007 171.104C114.207 170.648 114.527 170.292 114.967 170.036C115.407 169.772 115.931 169.64 116.539 169.64ZM123.124 176.06C122.604 176.06 122.112 175.988 121.648 175.844C121.184 175.692 120.82 175.504 120.556 175.28L120.94 174.608C121.196 174.8 121.524 174.968 121.924 175.112C122.324 175.248 122.744 175.316 123.184 175.316C123.784 175.316 124.216 175.224 124.48 175.04C124.744 174.848 124.876 174.596 124.876 174.284C124.876 174.052 124.8 173.872 124.648 173.744C124.504 173.608 124.312 173.508 124.072 173.444C123.832 173.372 123.564 173.312 123.268 173.264C122.972 173.216 122.676 173.16 122.38 173.096C122.092 173.032 121.828 172.94 121.588 172.82C121.348 172.692 121.152 172.52 121 172.304C120.856 172.088 120.784 171.8 120.784 171.44C120.784 171.096 120.88 170.788 121.072 170.516C121.264 170.244 121.544 170.032 121.912 169.88C122.288 169.72 122.744 169.64 123.28 169.64C123.688 169.64 124.096 169.696 124.504 169.808C124.912 169.912 125.248 170.052 125.512 170.228L125.14 170.912C124.86 170.72 124.56 170.584 124.24 170.504C123.92 170.416 123.6 170.372 123.28 170.372C122.712 170.372 122.292 170.472 122.02 170.672C121.756 170.864 121.624 171.112 121.624 171.416C121.624 171.656 121.696 171.844 121.84 171.98C121.992 172.116 122.188 172.224 122.428 172.304C122.676 172.376 122.944 172.436 123.232 172.484C123.528 172.532 123.82 172.592 124.108 172.664C124.404 172.728 124.672 172.82 124.912 172.94C125.16 173.052 125.356 173.216 125.5 173.432C125.652 173.64 125.728 173.916 125.728 174.26C125.728 174.628 125.624 174.948 125.416 175.22C125.216 175.484 124.92 175.692 124.528 175.844C124.144 175.988 123.676 176.06 123.124 176.06ZM133 176.06C132.392 176.06 131.844 175.924 131.356 175.652C130.876 175.372 130.496 174.992 130.216 174.512C129.936 174.024 129.796 173.468 129.796 172.844C129.796 172.212 129.936 171.656 130.216 171.176C130.496 170.696 130.876 170.32 131.356 170.048C131.836 169.776 132.384 169.64 133 169.64C133.624 169.64 134.176 169.776 134.656 170.048C135.144 170.32 135.524 170.696 135.796 171.176C136.076 171.656 136.216 172.212 136.216 172.844C136.216 173.468 136.076 174.024 135.796 174.512C135.524 174.992 135.144 175.372 134.656 175.652C134.168 175.924 133.616 176.06 133 176.06ZM133 175.304C133.456 175.304 133.86 175.204 134.212 175.004C134.564 174.796 134.84 174.508 135.04 174.14C135.248 173.764 135.352 173.332 135.352 172.844C135.352 172.348 135.248 171.916 135.04 171.548C134.84 171.18 134.564 170.896 134.212 170.696C133.86 170.488 133.46 170.384 133.012 170.384C132.564 170.384 132.164 170.488 131.812 170.696C131.46 170.896 131.18 171.18 130.972 171.548C130.764 171.916 130.66 172.348 130.66 172.844C130.66 173.332 130.764 173.764 130.972 174.14C131.18 174.508 131.46 174.796 131.812 175.004C132.164 175.204 132.56 175.304 133 175.304ZM137.956 176V169.7H138.772V171.416L138.688 171.116C138.864 170.636 139.16 170.272 139.576 170.024C139.992 169.768 140.508 169.64 141.124 169.64V170.468C141.092 170.468 141.06 170.468 141.028 170.468C140.996 170.46 140.964 170.456 140.932 170.456C140.268 170.456 139.748 170.66 139.372 171.068C138.996 171.468 138.808 172.04 138.808 172.784V176H137.956ZM148.517 176.06C147.981 176.06 147.513 175.96 147.113 175.76C146.713 175.56 146.401 175.26 146.177 174.86C145.961 174.46 145.853 173.96 145.853 173.36V169.7H146.705V173.264C146.705 173.936 146.869 174.444 147.197 174.788C147.533 175.124 148.001 175.292 148.601 175.292C149.041 175.292 149.421 175.204 149.741 175.028C150.069 174.844 150.317 174.58 150.485 174.236C150.661 173.892 150.749 173.48 150.749 173V169.7H151.601V176H150.785V174.272L150.917 174.584C150.717 175.048 150.405 175.412 149.981 175.676C149.565 175.932 149.077 176.06 148.517 176.06ZM157.227 176.06C156.683 176.06 156.191 175.936 155.751 175.688C155.311 175.432 154.959 175.068 154.695 174.596C154.439 174.116 154.311 173.532 154.311 172.844C154.311 172.156 154.439 171.576 154.695 171.104C154.951 170.624 155.299 170.26 155.739 170.012C156.179 169.764 156.675 169.64 157.227 169.64C157.827 169.64 158.363 169.776 158.835 170.048C159.315 170.312 159.691 170.688 159.963 171.176C160.235 171.656 160.371 172.212 160.371 172.844C160.371 173.484 160.235 174.044 159.963 174.524C159.691 175.004 159.315 175.38 158.835 175.652C158.363 175.924 157.827 176.06 157.227 176.06ZM153.975 178.328V169.7H154.791V171.596L154.707 172.856L154.827 174.128V178.328H153.975ZM157.167 175.304C157.615 175.304 158.015 175.204 158.367 175.004C158.719 174.796 158.999 174.508 159.207 174.14C159.415 173.764 159.519 173.332 159.519 172.844C159.519 172.356 159.415 171.928 159.207 171.56C158.999 171.192 158.719 170.904 158.367 170.696C158.015 170.488 157.615 170.384 157.167 170.384C156.719 170.384 156.315 170.488 155.955 170.696C155.603 170.904 155.323 171.192 155.115 171.56C154.915 171.928 154.815 172.356 154.815 172.844C154.815 173.332 154.915 173.764 155.115 174.14C155.323 174.508 155.603 174.796 155.955 175.004C156.315 175.204 156.719 175.304 157.167 175.304ZM164.616 176.06C164.016 176.06 163.476 175.924 162.996 175.652C162.524 175.38 162.152 175.004 161.88 174.524C161.608 174.036 161.472 173.476 161.472 172.844C161.472 172.204 161.608 171.644 161.88 171.164C162.152 170.684 162.524 170.312 162.996 170.048C163.476 169.776 164.016 169.64 164.616 169.64C165.168 169.64 165.66 169.764 166.092 170.012C166.532 170.26 166.88 170.624 167.136 171.104C167.4 171.576 167.532 172.156 167.532 172.844C167.532 173.524 167.404 174.104 167.148 174.584C166.892 175.064 166.544 175.432 166.104 175.688C165.672 175.936 165.176 176.06 164.616 176.06ZM164.676 175.304C165.124 175.304 165.524 175.204 165.876 175.004C166.236 174.796 166.516 174.508 166.716 174.14C166.924 173.764 167.028 173.332 167.028 172.844C167.028 172.348 166.924 171.916 166.716 171.548C166.516 171.18 166.236 170.896 165.876 170.696C165.524 170.488 165.124 170.384 164.676 170.384C164.236 170.384 163.84 170.488 163.488 170.696C163.136 170.896 162.856 171.18 162.648 171.548C162.44 171.916 162.336 172.348 162.336 172.844C162.336 173.332 162.44 173.764 162.648 174.14C162.856 174.508 163.136 174.796 163.488 175.004C163.84 175.204 164.236 175.304 164.676 175.304ZM167.052 176V174.104L167.136 172.832L167.016 171.56V167.096H167.868V176H167.052ZM174.189 176V174.608L174.153 174.38V172.052C174.153 171.516 174.001 171.104 173.697 170.816C173.401 170.528 172.957 170.384 172.365 170.384C171.957 170.384 171.569 170.452 171.201 170.588C170.833 170.724 170.521 170.904 170.265 171.128L169.881 170.492C170.201 170.22 170.585 170.012 171.033 169.868C171.481 169.716 171.953 169.64 172.449 169.64C173.265 169.64 173.893 169.844 174.333 170.252C174.781 170.652 175.005 171.264 175.005 172.088V176H174.189ZM172.017 176.06C171.545 176.06 171.133 175.984 170.781 175.832C170.437 175.672 170.173 175.456 169.989 175.184C169.805 174.904 169.713 174.584 169.713 174.224C169.713 173.896 169.789 173.6 169.941 173.336C170.101 173.064 170.357 172.848 170.709 172.688C171.069 172.52 171.549 172.436 172.149 172.436H174.321V173.072H172.173C171.565 173.072 171.141 173.18 170.901 173.396C170.669 173.612 170.553 173.88 170.553 174.2C170.553 174.56 170.693 174.848 170.973 175.064C171.253 175.28 171.645 175.388 172.149 175.388C172.629 175.388 173.041 175.28 173.385 175.064C173.737 174.84 173.993 174.52 174.153 174.104L174.345 174.692C174.185 175.108 173.905 175.44 173.505 175.688C173.113 175.936 172.617 176.06 172.017 176.06ZM179.311 176.06C178.719 176.06 178.263 175.9 177.943 175.58C177.623 175.26 177.463 174.808 177.463 174.224V168.308H178.315V174.176C178.315 174.544 178.407 174.828 178.591 175.028C178.783 175.228 179.055 175.328 179.407 175.328C179.783 175.328 180.095 175.22 180.343 175.004L180.643 175.616C180.475 175.768 180.271 175.88 180.031 175.952C179.799 176.024 179.559 176.06 179.311 176.06ZM176.335 170.408V169.7H180.235V170.408H176.335ZM184.647 176.06C183.991 176.06 183.415 175.924 182.919 175.652C182.423 175.372 182.035 174.992 181.755 174.512C181.475 174.024 181.335 173.468 181.335 172.844C181.335 172.22 181.467 171.668 181.731 171.188C182.003 170.708 182.371 170.332 182.835 170.06C183.307 169.78 183.835 169.64 184.419 169.64C185.011 169.64 185.535 169.776 185.991 170.048C186.455 170.312 186.819 170.688 187.083 171.176C187.347 171.656 187.479 172.212 187.479 172.844C187.479 172.884 187.475 172.928 187.467 172.976C187.467 173.016 187.467 173.06 187.467 173.108H181.983V172.472H187.011L186.675 172.724C186.675 172.268 186.575 171.864 186.375 171.512C186.183 171.152 185.919 170.872 185.583 170.672C185.247 170.472 184.859 170.372 184.419 170.372C183.987 170.372 183.599 170.472 183.255 170.672C182.911 170.872 182.643 171.152 182.451 171.512C182.259 171.872 182.163 172.284 182.163 172.748V172.88C182.163 173.36 182.267 173.784 182.475 174.152C182.691 174.512 182.987 174.796 183.363 175.004C183.747 175.204 184.183 175.304 184.671 175.304C185.055 175.304 185.411 175.236 185.739 175.1C186.075 174.964 186.363 174.756 186.603 174.476L187.083 175.028C186.803 175.364 186.451 175.62 186.027 175.796C185.611 175.972 185.151 176.06 184.647 176.06ZM190.905 176.06C190.385 176.06 189.893 175.988 189.429 175.844C188.965 175.692 188.601 175.504 188.337 175.28L188.721 174.608C188.977 174.8 189.305 174.968 189.705 175.112C190.105 175.248 190.525 175.316 190.965 175.316C191.565 175.316 191.997 175.224 192.261 175.04C192.525 174.848 192.657 174.596 192.657 174.284C192.657 174.052 192.581 173.872 192.429 173.744C192.285 173.608 192.093 173.508 191.853 173.444C191.613 173.372 191.345 173.312 191.049 173.264C190.753 173.216 190.457 173.16 190.161 173.096C189.873 173.032 189.609 172.94 189.369 172.82C189.129 172.692 188.933 172.52 188.781 172.304C188.637 172.088 188.565 171.8 188.565 171.44C188.565 171.096 188.661 170.788 188.853 170.516C189.045 170.244 189.325 170.032 189.693 169.88C190.069 169.72 190.525 169.64 191.061 169.64C191.469 169.64 191.877 169.696 192.285 169.808C192.693 169.912 193.029 170.052 193.293 170.228L192.921 170.912C192.641 170.72 192.341 170.584 192.021 170.504C191.701 170.416 191.381 170.372 191.061 170.372C190.493 170.372 190.073 170.472 189.801 170.672C189.537 170.864 189.405 171.112 189.405 171.416C189.405 171.656 189.477 171.844 189.621 171.98C189.773 172.116 189.969 172.224 190.209 172.304C190.457 172.376 190.725 172.436 191.013 172.484C191.309 172.532 191.601 172.592 191.889 172.664C192.185 172.728 192.453 172.82 192.693 172.94C192.941 173.052 193.137 173.216 193.281 173.432C193.433 173.64 193.509 173.916 193.509 174.26C193.509 174.628 193.405 174.948 193.197 175.22C192.997 175.484 192.701 175.692 192.309 175.844C191.925 175.988 191.457 176.06 190.905 176.06ZM202.161 176V174.608L202.125 174.38V172.052C202.125 171.516 201.973 171.104 201.669 170.816C201.373 170.528 200.929 170.384 200.337 170.384C199.929 170.384 199.541 170.452 199.173 170.588C198.805 170.724 198.493 170.904 198.237 171.128L197.853 170.492C198.173 170.22 198.557 170.012 199.005 169.868C199.453 169.716 199.925 169.64 200.421 169.64C201.237 169.64 201.865 169.844 202.305 170.252C202.753 170.652 202.977 171.264 202.977 172.088V176H202.161ZM199.989 176.06C199.517 176.06 199.105 175.984 198.753 175.832C198.409 175.672 198.145 175.456 197.961 175.184C197.777 174.904 197.685 174.584 197.685 174.224C197.685 173.896 197.761 173.6 197.913 173.336C198.073 173.064 198.329 172.848 198.681 172.688C199.041 172.52 199.521 172.436 200.121 172.436H202.293V173.072H200.145C199.537 173.072 199.113 173.18 198.873 173.396C198.641 173.612 198.525 173.88 198.525 174.2C198.525 174.56 198.665 174.848 198.945 175.064C199.225 175.28 199.617 175.388 200.121 175.388C200.601 175.388 201.013 175.28 201.357 175.064C201.709 174.84 201.965 174.52 202.125 174.104L202.317 174.692C202.157 175.108 201.877 175.44 201.477 175.688C201.085 175.936 200.589 176.06 199.989 176.06ZM205.292 176V169.7H206.108V171.416L206.024 171.116C206.2 170.636 206.496 170.272 206.912 170.024C207.328 169.768 207.844 169.64 208.46 169.64V170.468C208.428 170.468 208.396 170.468 208.364 170.468C208.332 170.46 208.3 170.456 208.268 170.456C207.604 170.456 207.084 170.66 206.708 171.068C206.332 171.468 206.144 172.04 206.144 172.784V176H205.292ZM212.632 176.06C211.976 176.06 211.4 175.924 210.904 175.652C210.408 175.372 210.02 174.992 209.74 174.512C209.46 174.024 209.32 173.468 209.32 172.844C209.32 172.22 209.452 171.668 209.716 171.188C209.988 170.708 210.356 170.332 210.82 170.06C211.292 169.78 211.82 169.64 212.404 169.64C212.996 169.64 213.52 169.776 213.976 170.048C214.44 170.312 214.804 170.688 215.068 171.176C215.332 171.656 215.464 172.212 215.464 172.844C215.464 172.884 215.46 172.928 215.452 172.976C215.452 173.016 215.452 173.06 215.452 173.108H209.968V172.472H214.996L214.66 172.724C214.66 172.268 214.56 171.864 214.36 171.512C214.168 171.152 213.904 170.872 213.568 170.672C213.232 170.472 212.844 170.372 212.404 170.372C211.972 170.372 211.584 170.472 211.24 170.672C210.896 170.872 210.628 171.152 210.436 171.512C210.244 171.872 210.148 172.284 210.148 172.748V172.88C210.148 173.36 210.252 173.784 210.46 174.152C210.676 174.512 210.972 174.796 211.348 175.004C211.732 175.204 212.168 175.304 212.656 175.304C213.04 175.304 213.396 175.236 213.724 175.1C214.06 174.964 214.348 174.756 214.588 174.476L215.068 175.028C214.788 175.364 214.436 175.62 214.012 175.796C213.596 175.972 213.136 176.06 212.632 176.06ZM220.338 176V167.096H221.19V176H220.338ZM226.129 176.06C225.521 176.06 224.973 175.924 224.485 175.652C224.005 175.372 223.625 174.992 223.345 174.512C223.065 174.024 222.925 173.468 222.925 172.844C222.925 172.212 223.065 171.656 223.345 171.176C223.625 170.696 224.005 170.32 224.485 170.048C224.965 169.776 225.513 169.64 226.129 169.64C226.753 169.64 227.305 169.776 227.785 170.048C228.273 170.32 228.653 170.696 228.925 171.176C229.205 171.656 229.345 172.212 229.345 172.844C229.345 173.468 229.205 174.024 228.925 174.512C228.653 174.992 228.273 175.372 227.785 175.652C227.297 175.924 226.745 176.06 226.129 176.06ZM226.129 175.304C226.585 175.304 226.989 175.204 227.341 175.004C227.693 174.796 227.969 174.508 228.169 174.14C228.377 173.764 228.481 173.332 228.481 172.844C228.481 172.348 228.377 171.916 228.169 171.548C227.969 171.18 227.693 170.896 227.341 170.696C226.989 170.488 226.589 170.384 226.141 170.384C225.693 170.384 225.293 170.488 224.941 170.696C224.589 170.896 224.309 171.18 224.101 171.548C223.893 171.916 223.789 172.348 223.789 172.844C223.789 173.332 223.893 173.764 224.101 174.14C224.309 174.508 224.589 174.796 224.941 175.004C225.293 175.204 225.689 175.304 226.129 175.304ZM233.772 178.388C233.196 178.388 232.644 178.304 232.116 178.136C231.588 177.968 231.16 177.728 230.832 177.416L231.264 176.768C231.56 177.032 231.924 177.24 232.356 177.392C232.796 177.552 233.26 177.632 233.748 177.632C234.548 177.632 235.136 177.444 235.512 177.068C235.888 176.7 236.076 176.124 236.076 175.34V173.768L236.196 172.688L236.112 171.608V169.7H236.928V175.232C236.928 176.32 236.66 177.116 236.124 177.62C235.596 178.132 234.812 178.388 233.772 178.388ZM233.616 175.76C233.016 175.76 232.476 175.632 231.996 175.376C231.516 175.112 231.136 174.748 230.856 174.284C230.584 173.82 230.448 173.288 230.448 172.688C230.448 172.088 230.584 171.56 230.856 171.104C231.136 170.64 231.516 170.28 231.996 170.024C232.476 169.768 233.016 169.64 233.616 169.64C234.176 169.64 234.68 169.756 235.128 169.988C235.576 170.22 235.932 170.564 236.196 171.02C236.46 171.476 236.592 172.032 236.592 172.688C236.592 173.344 236.46 173.9 236.196 174.356C235.932 174.812 235.576 175.16 235.128 175.4C234.68 175.64 234.176 175.76 233.616 175.76ZM233.7 175.004C234.164 175.004 234.576 174.908 234.936 174.716C235.296 174.516 235.58 174.244 235.788 173.9C235.996 173.548 236.1 173.144 236.1 172.688C236.1 172.232 235.996 171.832 235.788 171.488C235.58 171.144 235.296 170.876 234.936 170.684C234.576 170.484 234.164 170.384 233.7 170.384C233.244 170.384 232.832 170.484 232.464 170.684C232.104 170.876 231.82 171.144 231.612 171.488C231.412 171.832 231.312 172.232 231.312 172.688C231.312 173.144 231.412 173.548 231.612 173.9C231.82 174.244 232.104 174.516 232.464 174.716C232.832 174.908 233.244 175.004 233.7 175.004ZM241.987 178.388C241.411 178.388 240.859 178.304 240.331 178.136C239.803 177.968 239.375 177.728 239.047 177.416L239.479 176.768C239.775 177.032 240.139 177.24 240.571 177.392C241.011 177.552 241.475 177.632 241.963 177.632C242.763 177.632 243.351 177.444 243.727 177.068C244.103 176.7 244.291 176.124 244.291 175.34V173.768L244.411 172.688L244.327 171.608V169.7H245.143V175.232C245.143 176.32 244.875 177.116 244.339 177.62C243.811 178.132 243.027 178.388 241.987 178.388ZM241.831 175.76C241.231 175.76 240.691 175.632 240.211 175.376C239.731 175.112 239.351 174.748 239.071 174.284C238.799 173.82 238.663 173.288 238.663 172.688C238.663 172.088 238.799 171.56 239.071 171.104C239.351 170.64 239.731 170.28 240.211 170.024C240.691 169.768 241.231 169.64 241.831 169.64C242.391 169.64 242.895 169.756 243.343 169.988C243.791 170.22 244.147 170.564 244.411 171.02C244.675 171.476 244.807 172.032 244.807 172.688C244.807 173.344 244.675 173.9 244.411 174.356C244.147 174.812 243.791 175.16 243.343 175.4C242.895 175.64 242.391 175.76 241.831 175.76ZM241.915 175.004C242.379 175.004 242.791 174.908 243.151 174.716C243.511 174.516 243.795 174.244 244.003 173.9C244.211 173.548 244.315 173.144 244.315 172.688C244.315 172.232 244.211 171.832 244.003 171.488C243.795 171.144 243.511 170.876 243.151 170.684C242.791 170.484 242.379 170.384 241.915 170.384C241.459 170.384 241.047 170.484 240.679 170.684C240.319 170.876 240.035 171.144 239.827 171.488C239.627 171.832 239.527 172.232 239.527 172.688C239.527 173.144 239.627 173.548 239.827 173.9C240.035 174.244 240.319 174.516 240.679 174.716C241.047 174.908 241.459 175.004 241.915 175.004ZM250.19 176.06C249.534 176.06 248.958 175.924 248.462 175.652C247.966 175.372 247.578 174.992 247.298 174.512C247.018 174.024 246.878 173.468 246.878 172.844C246.878 172.22 247.01 171.668 247.274 171.188C247.546 170.708 247.914 170.332 248.378 170.06C248.85 169.78 249.378 169.64 249.962 169.64C250.554 169.64 251.078 169.776 251.534 170.048C251.998 170.312 252.362 170.688 252.626 171.176C252.89 171.656 253.022 172.212 253.022 172.844C253.022 172.884 253.018 172.928 253.01 172.976C253.01 173.016 253.01 173.06 253.01 173.108H247.526V172.472H252.554L252.218 172.724C252.218 172.268 252.118 171.864 251.918 171.512C251.726 171.152 251.462 170.872 251.126 170.672C250.79 170.472 250.402 170.372 249.962 170.372C249.53 170.372 249.142 170.472 248.798 170.672C248.454 170.872 248.186 171.152 247.994 171.512C247.802 171.872 247.706 172.284 247.706 172.748V172.88C247.706 173.36 247.81 173.784 248.018 174.152C248.234 174.512 248.53 174.796 248.906 175.004C249.29 175.204 249.726 175.304 250.214 175.304C250.598 175.304 250.954 175.236 251.282 175.1C251.618 174.964 251.906 174.756 252.146 174.476L252.626 175.028C252.346 175.364 251.994 175.62 251.57 175.796C251.154 175.972 250.694 176.06 250.19 176.06ZM257.264 176.06C256.664 176.06 256.124 175.924 255.644 175.652C255.172 175.38 254.8 175.004 254.528 174.524C254.256 174.036 254.12 173.476 254.12 172.844C254.12 172.204 254.256 171.644 254.528 171.164C254.8 170.684 255.172 170.312 255.644 170.048C256.124 169.776 256.664 169.64 257.264 169.64C257.816 169.64 258.308 169.764 258.74 170.012C259.18 170.26 259.528 170.624 259.784 171.104C260.048 171.576 260.18 172.156 260.18 172.844C260.18 173.524 260.052 174.104 259.796 174.584C259.54 175.064 259.192 175.432 258.752 175.688C258.32 175.936 257.824 176.06 257.264 176.06ZM257.324 175.304C257.772 175.304 258.172 175.204 258.524 175.004C258.884 174.796 259.164 174.508 259.364 174.14C259.572 173.764 259.676 173.332 259.676 172.844C259.676 172.348 259.572 171.916 259.364 171.548C259.164 171.18 258.884 170.896 258.524 170.696C258.172 170.488 257.772 170.384 257.324 170.384C256.884 170.384 256.488 170.488 256.136 170.696C255.784 170.896 255.504 171.18 255.296 171.548C255.088 171.916 254.984 172.348 254.984 172.844C254.984 173.332 255.088 173.764 255.296 174.14C255.504 174.508 255.784 174.796 256.136 175.004C256.488 175.204 256.884 175.304 257.324 175.304ZM259.7 176V174.104L259.784 172.832L259.664 171.56V167.096H260.516V176H259.7ZM262.973 176.06C262.797 176.06 262.645 175.996 262.517 175.868C262.397 175.74 262.337 175.584 262.337 175.4C262.337 175.208 262.397 175.052 262.517 174.932C262.645 174.812 262.797 174.752 262.973 174.752C263.149 174.752 263.297 174.812 263.417 174.932C263.545 175.052 263.609 175.208 263.609 175.4C263.609 175.584 263.545 175.74 263.417 175.868C263.297 175.996 263.149 176.06 262.973 176.06Z" fill="#2D3439"/>
<defs>
<clipPath id="clip0_2741_14190">
<rect width="166.606" height="100" fill="white" transform="translate(58.6973)"/>
</clipPath>
</defs>
</svg>
