<svg width="24" height="25" viewBox="0 0 24 25" fill="none" xmlns="http://www.w3.org/2000/svg">
<path d="M2 12.5C2 18.023 6.477 22.5 12 22.5C17.523 22.5 22 18.023 22 12.5C22 6.977 17.523 2.5 12 2.5C6.477 2.5 2 6.977 2 12.5ZM20 12.5C20 14.6217 19.1571 16.6566 17.6569 18.1569C16.1566 19.6571 14.1217 20.5 12 20.5C9.87827 20.5 7.84344 19.6571 6.34315 18.1569C4.84285 16.6566 4 14.6217 4 12.5C4 10.3783 4.84285 8.34344 6.34315 6.84315C7.84344 5.34285 9.87827 4.5 12 4.5C14.1217 4.5 16.1566 5.34285 17.6569 6.84315C19.1571 8.34344 20 10.3783 20 12.5ZM18 12.5C18.0001 13.6868 17.6483 14.847 16.989 15.8338C16.3298 16.8206 15.3926 17.5898 14.2962 18.044C13.1998 18.4981 11.9932 18.617 10.8293 18.3854C9.66528 18.1538 8.59612 17.5823 7.757 16.743L12 12.5V6.5C13.5913 6.5 15.1174 7.13214 16.2426 8.25736C17.3679 9.38258 18 10.9087 18 12.5Z" fill="#9D480F"/>
</svg>
