<svg width="97" height="120" viewBox="0 0 97 120" fill="none" xmlns="http://www.w3.org/2000/svg">
<g clip-path="url(#clip0_1942_13596)">
<path d="M95.9404 110.678C95.877 110.484 95.3963 110.57 95.3502 110.396C95.3042 110.223 95.7654 110.078 96.1192 109.591C96.183 109.503 96.585 108.949 96.4308 108.716C96.1386 108.274 94.1051 109.374 93.617 108.757C93.5099 108.621 93.4658 108.389 93.1467 107.956C93.0198 107.784 92.9383 107.701 92.841 107.703C92.7029 107.707 92.6535 107.879 92.4365 108.192C92.111 108.662 91.9936 108.603 91.7792 108.987C91.62 109.273 91.6011 109.455 91.4864 109.466C91.3239 109.481 91.2568 109.126 91.0584 109.112C90.8558 109.098 90.6532 109.449 90.5527 109.723C90.3642 110.238 90.4809 110.632 90.5068 111.024C90.5349 111.45 90.4689 112.074 90.0058 112.874L85.6382 119.833C86.5762 118.415 89.2388 114.546 90.3116 113.127C90.6212 112.718 90.954 112.306 91.4663 112.229C91.9594 112.154 92.5595 112.398 93.397 112.384C93.4948 112.383 93.7671 112.375 93.8333 112.23C93.888 112.111 93.7521 112.007 93.8015 111.895C93.8678 111.745 94.1662 111.809 94.5729 111.709C94.8596 111.639 95.0544 111.523 95.222 111.422C95.2725 111.392 96.0249 110.937 95.9404 110.678Z" fill="#F2F2F2"/>
<path d="M84.5008 112.302C84.3872 112.277 84.2904 112.538 84.1919 112.51C84.0938 112.483 84.1557 112.215 84.0185 111.901C83.9938 111.844 83.8379 111.487 83.6791 111.495C83.378 111.511 83.3311 112.827 82.8873 112.888C82.7899 112.902 82.6631 112.856 82.3586 112.888C82.2375 112.901 82.1732 112.917 82.1463 112.965C82.1082 113.034 82.1787 113.108 82.2697 113.305C82.4061 113.6 82.3433 113.64 82.4701 113.857C82.5643 114.017 82.6484 114.079 82.6205 114.138C82.5811 114.223 82.3873 114.153 82.3233 114.246C82.258 114.342 82.3719 114.543 82.4775 114.671C82.6758 114.912 82.9026 114.968 83.1026 115.069C83.3198 115.178 83.607 115.39 83.8664 115.849L86.0216 120C85.596 119.13 84.4656 116.707 84.0787 115.772C83.967 115.501 83.8611 115.219 83.971 114.946C84.0767 114.682 84.3696 114.458 84.6042 114.043C84.6317 113.994 84.7062 113.858 84.6545 113.784C84.6118 113.723 84.5217 113.76 84.4809 113.703C84.4262 113.627 84.544 113.499 84.6123 113.271C84.6604 113.11 84.6595 112.981 84.6588 112.87C84.6585 112.836 84.6519 112.335 84.5008 112.302Z" fill="#F2F2F2"/>
<path d="M86.6509 113.315L86.7186 112.69L86.7602 112.651C86.9524 112.469 87.0727 112.276 87.1178 112.078C87.1249 112.047 87.1305 112.015 87.1362 111.983C87.1587 111.854 87.1866 111.694 87.3103 111.528C87.3794 111.436 87.5625 111.226 87.7513 111.299C87.8022 111.319 87.8366 111.352 87.8605 111.387C87.8665 111.381 87.8726 111.374 87.8792 111.368C87.9607 111.289 88.0178 111.26 88.0727 111.232C88.115 111.21 88.1586 111.188 88.2323 111.129C88.2647 111.103 88.2906 111.08 88.3125 111.06C88.3787 111.001 88.4634 110.932 88.5795 110.959C88.7025 110.993 88.7447 111.11 88.7727 111.188C88.8227 111.327 88.8381 111.422 88.8482 111.485C88.8519 111.508 88.8562 111.534 88.8594 111.543C88.8863 111.61 89.2243 111.628 89.3515 111.635C89.6374 111.651 89.8848 111.664 89.9443 111.86C89.987 112 89.898 112.153 89.6722 112.326C89.6019 112.38 89.5316 112.417 89.4703 112.445C89.508 112.481 89.538 112.529 89.5399 112.595C89.544 112.751 89.3838 112.871 89.0637 112.952C88.9842 112.972 88.8772 112.999 88.7372 112.992C88.6713 112.989 88.6136 112.979 88.5643 112.969C88.557 112.998 88.5435 113.027 88.5193 113.054C88.448 113.136 88.333 113.157 88.1768 113.111C88.0044 113.063 87.8682 112.997 87.748 112.94C87.6431 112.89 87.5525 112.847 87.4766 112.835C87.3353 112.816 87.2036 112.903 87.0459 113.019L86.6509 113.315Z" fill="#F2F2F2"/>
<path d="M87.7782 109.753L87.156 109.846L87.1074 109.815C86.8829 109.676 86.6663 109.608 86.4632 109.615C86.4309 109.616 86.3987 109.618 86.3659 109.621C86.2358 109.632 86.074 109.646 85.8821 109.568C85.775 109.525 85.5264 109.401 85.5491 109.199C85.5547 109.145 85.5779 109.104 85.6057 109.072C85.5983 109.067 85.5909 109.063 85.5829 109.058C85.4855 109 85.443 108.952 85.402 108.906C85.3705 108.87 85.338 108.834 85.2622 108.777C85.229 108.753 85.1999 108.733 85.1754 108.717C85.1014 108.668 85.0129 108.604 85.01 108.485C85.0113 108.357 85.1141 108.286 85.1822 108.24C85.3036 108.156 85.3918 108.117 85.4504 108.091C85.4718 108.082 85.4959 108.071 85.5032 108.066C85.562 108.023 85.4933 107.691 85.4681 107.566C85.4106 107.286 85.3608 107.043 85.5351 106.936C85.6597 106.859 85.8301 106.906 86.0549 107.081C86.1249 107.135 86.1787 107.194 86.2212 107.246C86.2461 107.201 86.2853 107.159 86.3487 107.141C86.4987 107.097 86.6553 107.222 86.8146 107.511C86.8544 107.583 86.9075 107.679 86.9365 107.816C86.95 107.881 86.9549 107.939 86.9583 107.989C86.9873 107.989 87.0189 107.995 87.0518 108.011C87.1488 108.06 87.198 108.166 87.1932 108.328C87.1904 108.507 87.1618 108.656 87.1367 108.786C87.115 108.901 87.0966 108.999 87.1045 109.076C87.1212 109.217 87.239 109.323 87.3913 109.446L87.7782 109.753Z" fill="#F2F2F2"/>
<path d="M87.8621 107.885L87.9298 107.259L87.9714 107.22C88.1636 107.038 88.2838 106.846 88.329 106.648C88.3361 106.616 88.3417 106.584 88.3474 106.552C88.3699 106.423 88.3978 106.263 88.5214 106.097C88.5906 106.005 88.7737 105.796 88.9624 105.869C89.0134 105.888 89.0478 105.921 89.0717 105.956C89.0777 105.95 89.0838 105.944 89.0904 105.937C89.1719 105.858 89.229 105.829 89.2839 105.801C89.3261 105.779 89.3697 105.757 89.4435 105.698C89.4759 105.672 89.5018 105.649 89.5237 105.63C89.5899 105.57 89.6746 105.501 89.7907 105.529C89.9137 105.562 89.9559 105.68 89.9839 105.757C90.0338 105.896 90.0492 105.991 90.0594 106.054C90.0631 106.077 90.0673 106.103 90.0706 106.112C90.0975 106.18 90.4355 106.197 90.5627 106.205C90.8486 106.22 91.096 106.234 91.1555 106.429C91.1981 106.569 91.1092 106.722 90.8834 106.895C90.8131 106.949 90.7428 106.987 90.6815 107.014C90.7192 107.05 90.7492 107.098 90.751 107.164C90.7552 107.321 90.595 107.44 90.2749 107.521C90.1954 107.542 90.0884 107.568 89.9484 107.562C89.8825 107.558 89.8247 107.548 89.7755 107.539C89.7682 107.567 89.7547 107.596 89.7304 107.624C89.6592 107.705 89.5442 107.726 89.388 107.68C89.2156 107.632 89.0794 107.567 88.9592 107.509C88.8542 107.459 88.7637 107.416 88.6878 107.405C88.5465 107.385 88.4148 107.472 88.2571 107.588L87.8621 107.885Z" fill="#F2F2F2"/>
<path d="M85.8447 119.869L85.7347 119.76L85.5818 119.744C85.5826 119.729 85.5816 119.696 85.5804 119.643C85.5746 119.356 85.5563 118.48 85.6782 117.134C85.7634 116.195 85.9057 115.242 86.1011 114.3C86.2969 113.357 86.5001 112.656 86.6633 112.092C86.7865 111.666 86.9108 111.263 87.0322 110.87C87.356 109.82 87.6618 108.828 87.8512 107.697C87.8936 107.445 87.9816 106.919 87.8014 106.298C87.6969 105.939 87.5179 105.6 87.2692 105.292L87.5099 105.098C87.7843 105.438 87.9822 105.813 88.0983 106.212C88.2981 106.9 88.2022 107.473 88.1562 107.748C87.9634 108.9 87.6546 109.901 87.3275 110.961C87.2068 111.352 87.0829 111.754 86.9602 112.178C86.7985 112.736 86.5971 113.432 86.4039 114.363C86.2106 115.293 86.0702 116.235 85.986 117.162C85.8657 118.491 85.8837 119.353 85.8897 119.637C85.8927 119.788 85.8934 119.82 85.8447 119.869Z" fill="#F2F2F2"/>
<path d="M86.6088 105.647C86.5964 105.645 86.584 105.642 86.5715 105.638C86.3177 105.567 86.114 105.36 85.9661 105.023C85.8969 104.865 85.8806 104.698 85.848 104.366C85.8429 104.315 85.8203 104.055 85.8481 103.712C85.8661 103.487 85.8903 103.397 85.9514 103.326C86.0192 103.247 86.1106 103.202 86.2073 103.179C86.2099 103.15 86.2196 103.121 86.2389 103.093C86.3184 102.979 86.4514 103.026 86.5236 103.05C86.5599 103.063 86.6053 103.08 86.6562 103.088C86.7364 103.102 86.7842 103.088 86.8566 103.067C86.9259 103.047 87.012 103.022 87.1311 103.024C87.3661 103.027 87.54 103.133 87.5974 103.168C87.8994 103.349 88.0037 103.639 88.1244 103.974C88.1484 104.041 88.228 104.284 88.2465 104.597C88.2599 104.823 88.2303 104.915 88.1964 104.981C88.1272 105.117 88.0211 105.18 87.7579 105.312C87.4829 105.451 87.3449 105.521 87.2318 105.556C86.9686 105.639 86.8033 105.691 86.6088 105.647Z" fill="#F2F2F2"/>
<path d="M16.0779 110.678C16.0145 110.484 15.5338 110.57 15.4876 110.396C15.4416 110.223 15.9029 110.078 16.2567 109.591C16.3205 109.503 16.7225 108.949 16.5683 108.716C16.276 108.274 14.2426 109.374 13.7545 108.757C13.6474 108.621 13.6033 108.389 13.2842 107.956C13.1572 107.784 13.0758 107.701 12.9785 107.703C12.8404 107.707 12.791 107.879 12.5739 108.192C12.2485 108.662 12.131 108.603 11.9166 108.987C11.7574 109.273 11.7386 109.455 11.6238 109.466C11.4614 109.481 11.3943 109.126 11.1958 109.112C10.9933 109.098 10.7906 109.449 10.6902 109.723C10.5016 110.238 10.6184 110.632 10.6443 111.024C10.6724 111.45 10.6064 112.074 10.1433 112.874L5.77563 119.833C6.71363 118.415 9.37625 114.546 10.449 113.127C10.7587 112.718 11.0915 112.306 11.6037 112.229C12.0969 112.154 12.6969 112.398 13.5345 112.384C13.6323 112.383 13.9045 112.375 13.9707 112.23C14.0255 112.111 13.8895 112.007 13.939 111.895C14.0053 111.745 14.3037 111.809 14.7103 111.709C14.9971 111.639 15.1919 111.523 15.3594 111.422C15.4099 111.392 16.1623 110.937 16.0779 110.678Z" fill="#F2F2F2"/>
<path d="M4.63821 112.302C4.52465 112.277 4.42789 112.538 4.32938 112.51C4.23121 112.483 4.29312 112.215 4.15596 111.901C4.13123 111.844 3.97535 111.487 3.81651 111.495C3.51543 111.511 3.46855 112.827 3.02478 112.888C2.92739 112.902 2.80054 112.856 2.49606 112.888C2.37493 112.901 2.31064 112.917 2.28376 112.965C2.24564 113.034 2.31616 113.108 2.40712 113.305C2.54354 113.6 2.48073 113.64 2.60758 113.857C2.70175 114.017 2.78582 114.079 2.75798 114.138C2.71858 114.223 2.5248 114.153 2.46077 114.246C2.39543 114.342 2.5093 114.543 2.61496 114.671C2.81325 114.912 3.04007 114.968 3.24001 115.069C3.4573 115.178 3.74444 115.39 4.00383 115.849L6.15902 120C5.73341 119.13 4.60302 116.707 4.21613 115.772C4.10444 115.501 3.99859 115.219 4.10841 114.946C4.21413 114.682 4.50701 114.458 4.7417 114.043C4.76911 113.994 4.84368 113.858 4.79198 113.784C4.74923 113.723 4.65911 113.76 4.61834 113.703C4.56366 113.627 4.68143 113.499 4.74973 113.271C4.7979 113.11 4.79699 112.981 4.79621 112.87C4.79597 112.836 4.78937 112.335 4.63821 112.302Z" fill="#F2F2F2"/>
<path d="M6.78833 113.315L6.85607 112.69L6.89762 112.651C7.08985 112.469 7.21011 112.276 7.25522 112.078C7.2624 112.047 7.26796 112.015 7.27364 111.983C7.29614 111.854 7.32407 111.694 7.44771 111.528C7.5169 111.436 7.69994 111.226 7.88871 111.299C7.93966 111.319 7.97405 111.352 7.99794 111.387C8.00394 111.381 8.01009 111.374 8.01666 111.368C8.0982 111.289 8.15524 111.26 8.21019 111.232C8.25242 111.21 8.29602 111.188 8.3698 111.129C8.40217 111.103 8.42809 111.08 8.44993 111.06C8.51617 111.001 8.60089 110.932 8.71695 110.959C8.83997 110.993 8.88215 111.11 8.91014 111.188C8.96011 111.327 8.97551 111.422 8.98569 111.485C8.98936 111.508 8.99361 111.534 8.99683 111.543C9.02376 111.61 9.36177 111.628 9.48896 111.635C9.77485 111.651 10.0222 111.664 10.0817 111.86C10.1244 112 10.0354 112.153 9.80967 112.326C9.73934 112.38 9.66903 112.417 9.60778 112.445C9.64545 112.481 9.67547 112.529 9.67731 112.595C9.68144 112.751 9.52125 112.871 9.2012 112.952C9.12166 112.972 9.01469 112.999 8.8747 112.992C8.80877 112.989 8.75102 112.979 8.70178 112.969C8.69444 112.998 8.68098 113.027 8.65671 113.054C8.58547 113.136 8.47043 113.157 8.31428 113.111C8.14189 113.063 8.00568 112.997 7.88549 112.94C7.7805 112.89 7.68998 112.847 7.61403 112.835C7.47276 112.816 7.34102 112.903 7.18337 113.019L6.78833 113.315Z" fill="#F2F2F2"/>
<path d="M7.91585 109.753L7.29367 109.846L7.24512 109.815C7.02063 109.676 6.80395 109.608 6.60089 109.615C6.56861 109.616 6.53638 109.618 6.50356 109.621C6.37346 109.632 6.21174 109.646 6.01976 109.568C5.91272 109.525 5.66405 109.401 5.68681 109.199C5.69236 109.145 5.71559 109.104 5.74341 109.072C5.736 109.067 5.72858 109.063 5.72056 109.058C5.62322 109 5.58067 108.952 5.53969 108.906C5.50817 108.87 5.47571 108.834 5.39991 108.777C5.36667 108.753 5.33756 108.733 5.3131 108.717C5.23908 108.668 5.15061 108.604 5.14771 108.485C5.14903 108.357 5.25184 108.286 5.31989 108.24C5.44126 108.156 5.52954 108.117 5.58809 108.091C5.60949 108.082 5.63356 108.071 5.64092 108.066C5.69974 108.023 5.63098 107.691 5.60582 107.566C5.54831 107.286 5.49854 107.043 5.67281 106.936C5.79744 106.859 5.96776 106.906 6.19263 107.081C6.26261 107.135 6.31643 107.194 6.35885 107.246C6.38375 107.201 6.423 107.159 6.48636 107.141C6.63639 107.097 6.79295 107.222 6.95229 107.511C6.9921 107.583 7.04522 107.679 7.07417 107.816C7.08773 107.881 7.09261 107.939 7.09598 107.989C7.12498 107.989 7.1566 107.995 7.18954 108.011C7.28648 108.06 7.33572 108.166 7.33086 108.328C7.32812 108.507 7.29948 108.656 7.27442 108.786C7.25267 108.901 7.23425 108.999 7.24222 109.076C7.25895 109.217 7.37673 109.323 7.52901 109.446L7.91585 109.753Z" fill="#F2F2F2"/>
<path d="M7.99976 107.885L8.0675 107.259L8.10905 107.22C8.30128 107.038 8.42154 106.846 8.46665 106.648C8.47382 106.616 8.47938 106.584 8.48507 106.552C8.50757 106.423 8.53549 106.263 8.65913 106.097C8.72833 106.005 8.91136 105.796 9.10014 105.869C9.15109 105.888 9.18548 105.921 9.20937 105.956C9.21537 105.95 9.22151 105.944 9.22808 105.937C9.30963 105.858 9.36667 105.829 9.42162 105.801C9.46384 105.779 9.50744 105.757 9.58123 105.698C9.6136 105.672 9.63951 105.649 9.66136 105.63C9.72759 105.57 9.81232 105.501 9.92838 105.529C10.0514 105.562 10.0936 105.68 10.1216 105.757C10.1715 105.896 10.1869 105.991 10.1971 106.054C10.2008 106.077 10.205 106.103 10.2083 106.112C10.2352 106.18 10.5732 106.197 10.7004 106.205C10.9863 106.22 11.2337 106.234 11.2931 106.429C11.3358 106.569 11.2469 106.722 11.0211 106.895C10.9508 106.949 10.8805 106.987 10.8192 107.014C10.8569 107.05 10.8869 107.098 10.8887 107.164C10.8929 107.321 10.7327 107.44 10.4126 107.521C10.3331 107.542 10.2261 107.568 10.0861 107.562C10.0202 107.558 9.96244 107.548 9.91321 107.539C9.90586 107.567 9.8924 107.596 9.86813 107.624C9.7969 107.705 9.68186 107.726 9.52571 107.68C9.35331 107.632 9.2171 107.567 9.09691 107.509C8.99193 107.459 8.90141 107.416 8.82545 107.405C8.68418 107.385 8.55245 107.472 8.3948 107.588L7.99976 107.885Z" fill="#F2F2F2"/>
<path d="M5.98219 119.869L5.87219 119.76L5.71929 119.744C5.72002 119.729 5.71902 119.696 5.7179 119.643C5.71202 119.356 5.69376 118.48 5.81569 117.134C5.90084 116.195 6.04311 115.242 6.23857 114.3C6.43436 113.357 6.63756 112.656 6.80077 112.092C6.92394 111.666 7.04825 111.263 7.16961 110.87C7.49348 109.82 7.79927 108.828 7.98864 107.697C8.03105 107.445 8.11906 106.919 7.93887 106.298C7.83432 105.939 7.65531 105.6 7.40663 105.292L7.64732 105.098C7.92172 105.438 8.11968 105.813 8.23579 106.212C8.43557 106.9 8.33968 107.473 8.29361 107.748C8.10087 108.9 7.79202 109.901 7.46497 110.961C7.34423 111.352 7.22031 111.754 7.09768 112.178C6.93595 112.736 6.73458 113.432 6.54134 114.363C6.34808 115.293 6.20763 116.235 6.12343 117.162C6.00311 118.491 6.02119 119.353 6.0271 119.637C6.03016 119.788 6.03082 119.82 5.98219 119.869Z" fill="#F2F2F2"/>
<path d="M6.74625 105.647C6.73388 105.645 6.72142 105.642 6.70895 105.638C6.45511 105.567 6.25149 105.36 6.10359 105.023C6.03436 104.865 6.01802 104.698 5.98544 104.366C5.98032 104.315 5.95773 104.055 5.9855 103.712C6.00357 103.487 6.02771 103.397 6.08882 103.326C6.15668 103.247 6.2481 103.202 6.34471 103.179C6.34732 103.15 6.35705 103.121 6.37634 103.093C6.45582 102.979 6.58885 103.026 6.66103 103.05C6.6974 103.063 6.74272 103.08 6.7937 103.088C6.87381 103.102 6.92164 103.088 6.99405 103.067C7.06334 103.047 7.14949 103.022 7.26856 103.024C7.50353 103.027 7.67746 103.133 7.73482 103.168C8.03688 103.349 8.14117 103.639 8.26187 103.974C8.28585 104.041 8.36544 104.284 8.38397 104.597C8.39735 104.823 8.36778 104.915 8.33387 104.981C8.26461 105.117 8.15856 105.18 7.89534 105.312C7.62035 105.451 7.48238 105.521 7.36925 105.556C7.10601 105.639 6.94071 105.691 6.74625 105.647Z" fill="#F2F2F2"/>
<path d="M73.9002 0H24.4159C21.0405 0 18.3044 2.7361 18.3044 6.11145V113.548C18.3044 116.923 21.0405 119.659 24.4159 119.659H73.9002C77.2755 119.659 80.0116 116.923 80.0116 113.548V6.11145C80.0116 2.7361 77.2755 0 73.9002 0ZM71.8302 110.701C71.8302 113.204 69.7996 115.233 67.2963 115.233H31.557C29.0536 115.233 27.0249 113.204 27.0249 110.701V15.3977C27.0249 12.8944 29.0536 10.8656 31.557 10.8656H67.2963C69.7996 10.8656 71.8302 12.8944 71.8302 15.3977V110.701Z" fill="#E6E6E6"/>
<path d="M69.683 58.3543C70.5721 58.3543 71.2928 57.6336 71.2928 56.7445C71.2928 55.8555 70.5721 55.1348 69.683 55.1348C68.794 55.1348 68.0732 55.8555 68.0732 56.7445C68.0732 57.6336 68.794 58.3543 69.683 58.3543Z" fill="#E6E6E6"/>
<path d="M69.7213 64.6326C70.6104 64.6326 71.3311 63.9119 71.3311 63.0229C71.3311 62.1338 70.6104 61.4131 69.7213 61.4131C68.8323 61.4131 68.1116 62.1338 68.1116 63.0229C68.1116 63.9119 68.8323 64.6326 69.7213 64.6326Z" fill="#E6E6E6"/>
<path d="M43.2228 16.835H34.7029C33.428 16.835 32.3894 17.8717 32.3894 19.1467V74.8874C32.3894 76.1642 33.428 77.201 34.7029 77.201H43.2228C43.6489 77.201 44.0482 77.0846 44.392 76.884C44.8111 76.6387 45.1441 76.2644 45.3411 75.8168C45.4664 75.5321 45.5363 75.2187 45.5363 74.8874V19.1467C45.5363 17.8717 44.4995 16.835 43.2228 16.835ZM44.9991 74.8874C44.9991 75.3673 44.8075 75.8043 44.4941 76.1248L44.4923 76.1266C44.4601 76.1606 44.4279 76.1928 44.392 76.2233C44.0787 76.4972 43.6704 76.6638 43.2228 76.6638H34.7029C33.7234 76.6638 32.9266 75.8669 32.9266 74.8874V19.1467C32.9266 18.1672 33.7234 17.3704 34.7029 17.3704H43.2228C44.2022 17.3704 44.9991 18.1672 44.9991 19.1467L44.9991 74.8874Z" fill="#E6E6E6"/>
<path d="M63.6144 16.835H55.0928C53.8179 16.835 52.7793 17.8717 52.7793 19.1467V74.8874C52.7793 76.1642 53.8179 77.201 55.0928 77.201H63.6144C64.8894 77.201 65.9262 76.1642 65.9262 74.8874V19.1467C65.9262 17.8717 64.8894 16.835 63.6144 16.835ZM65.3908 74.8874C65.3908 75.8669 64.5939 76.6638 63.6144 76.6638H55.0928C54.1133 76.6638 53.3165 75.8669 53.3165 74.8874V19.1467C53.3165 18.1672 54.1133 17.3704 55.0928 17.3704H63.6144C64.5939 17.3704 65.3908 18.1672 65.3908 19.1467V74.8874Z" fill="#E6E6E6"/>
<path d="M39.6111 85.2232L37.2206 85.2124V85.5186H44.163C44.2399 85.5186 44.3169 85.524 44.3921 85.533V85.2465L39.6111 85.2232ZM45.2445 85.25C44.9866 85.1122 44.6983 85.0226 44.3921 84.994C44.3169 84.985 44.2399 84.9814 44.163 84.9814H35.6413C35.2903 84.9814 34.9591 85.0602 34.6618 85.1999C33.8757 85.5706 33.3296 86.371 33.3296 87.2949V105.742C33.3296 107.017 34.3664 108.056 35.6413 108.056H44.163C44.2399 108.056 44.3169 108.052 44.3921 108.043C45.5596 107.928 46.4747 106.94 46.4747 105.742V87.2949C46.4747 86.4104 45.9751 85.6404 45.2445 85.25ZM45.9393 105.742C45.9393 106.645 45.2642 107.391 44.3921 107.504C44.3169 107.513 44.2399 107.518 44.163 107.518H35.6413C34.6618 107.518 33.865 106.722 33.865 105.742V87.2949C33.865 86.3155 34.6618 85.5186 35.6413 85.5186H44.163C44.2399 85.5186 44.3169 85.524 44.3921 85.533C45.2642 85.6458 45.9393 86.3925 45.9393 87.2949V105.742ZM44.163 84.9814H39.6111V85.5186H44.163C44.2399 85.5186 44.3169 85.524 44.3921 85.533V84.994C44.3169 84.985 44.2399 84.9814 44.163 84.9814Z" fill="#E6E6E6"/>
<path d="M56.1834 85.302V85.5186H59.8023V85.3199L56.1834 85.302ZM65.7991 85.3467C65.5108 85.1623 65.1778 85.0387 64.8214 84.9976C64.7337 84.9868 64.6442 84.9814 64.5528 84.9814H56.0312C55.6068 84.9814 55.2111 85.096 54.8691 85.2966C54.1815 85.6977 53.7195 86.4444 53.7195 87.2949V105.742C53.7195 107.017 54.7563 108.056 56.0312 108.056H64.5528C65.8278 108.056 66.8663 107.017 66.8663 105.742V87.2949C66.8663 86.4784 66.4402 85.7586 65.7991 85.3467ZM66.3292 105.742C66.3292 106.722 65.5323 107.518 64.5528 107.518H56.0312C55.0517 107.518 54.2567 106.722 54.2567 105.742V87.2949C54.2567 86.3155 55.0517 85.5186 56.0312 85.5186H64.5528C65.5323 85.5186 66.3292 86.3155 66.3292 87.2949V105.742Z" fill="#E6E6E6"/>
<path d="M59.2448 75.6957C59.7213 76.857 60.7067 77.5525 61.4457 77.2492C62.1847 76.9459 62.3974 75.7587 61.9207 74.597C61.7366 74.1303 61.4434 73.7145 61.0657 73.3844L58.9848 68.4893L56.7085 69.5147L59.0015 74.2316C58.9645 74.732 59.048 75.2341 59.2448 75.6957Z" fill="#FFB6B6"/>
<path d="M54.3265 44.8717L55.5196 44.3945C56.9238 46.5789 57.6963 49.1092 57.7515 51.7054L57.9056 58.9496L61.2462 71.3573L57.4284 72.7889L52.6562 57.2794L54.3265 44.8717Z" fill="#2F2E41"/>
<path d="M56.7875 79.4908C56.6374 79.4908 56.4852 79.4682 56.3356 79.4215L52.2753 78.153C51.8055 78.0062 51.4482 77.6538 51.2949 77.186C51.1417 76.7183 51.2212 76.2227 51.5131 75.8263L62.8502 60.4342C63.1266 60.0589 63.5524 59.8361 64.0183 59.823C64.4872 59.8089 64.922 60.0082 65.219 60.3674L67.5297 63.1603C67.957 63.6767 67.9891 64.4223 67.608 64.9737L58.0205 78.8413C57.7334 79.2566 57.2711 79.4908 56.7875 79.4908Z" fill="#8094D4"/>
<path d="M65.872 65.6639C65.8239 65.6639 65.776 65.6446 65.7408 65.6065L63.2973 62.9728C63.23 62.9003 63.2343 62.787 63.3068 62.7197C63.3792 62.6525 63.4927 62.6565 63.5598 62.7292L66.0032 65.3631C66.0706 65.4355 66.0663 65.5488 65.9938 65.6161C65.9593 65.6481 65.9156 65.6639 65.872 65.6639Z" fill="white"/>
<path d="M64.7975 67.2762C64.7494 67.2762 64.7015 67.257 64.6663 67.2188L62.2229 64.5851C62.1556 64.5126 62.1598 64.3993 62.2323 64.332C62.3048 64.2648 62.4181 64.2688 62.4854 64.3415L64.9288 66.9754C64.9961 67.0478 64.9918 67.1611 64.9193 67.2284C64.8849 67.2605 64.8412 67.2762 64.7975 67.2762Z" fill="white"/>
<path d="M63.5441 69.0662C63.496 69.0662 63.4481 69.047 63.4129 69.0089L60.9695 66.375C60.9021 66.3026 60.9064 66.1893 60.9789 66.122C61.0514 66.0548 61.1647 66.0589 61.2319 66.1316L63.6754 68.7655C63.7427 68.8379 63.7384 68.9512 63.6659 69.0185C63.6315 69.0505 63.5877 69.0662 63.5441 69.0662Z" fill="white"/>
<path d="M62.2907 70.6785C62.2426 70.6785 62.1947 70.6593 62.1595 70.6212L59.716 67.9873C59.6487 67.9149 59.653 67.8016 59.7255 67.7343C59.7979 67.6672 59.9113 67.6712 59.9785 67.7439L62.4219 70.3778C62.4893 70.4502 62.485 70.5635 62.4125 70.6308C62.378 70.6628 62.3343 70.6785 62.2907 70.6785Z" fill="white"/>
<path d="M61.0373 72.2899C60.9892 72.2899 60.9413 72.2707 60.906 72.2326L58.4626 69.5987C58.3953 69.5263 58.3996 69.413 58.4721 69.3457C58.5445 69.2784 58.6579 69.2826 58.7251 69.3553L61.1685 71.9892C61.2358 72.0616 61.2316 72.1749 61.1591 72.2422C61.1246 72.2742 61.0809 72.2899 61.0373 72.2899Z" fill="white"/>
<path d="M59.6047 73.7225C59.5566 73.7225 59.5087 73.7033 59.4734 73.6652L57.03 71.0313C56.9627 70.959 56.967 70.8456 57.0395 70.7783C57.1118 70.711 57.2253 70.7152 57.2925 70.7879L59.7359 73.4218C59.8032 73.4942 59.7989 73.6075 59.7265 73.6748C59.692 73.7068 59.6483 73.7225 59.6047 73.7225Z" fill="white"/>
<path d="M51.3044 118.19L54.0135 117.373L52.1513 106.534L48.1528 107.74L51.3044 118.19Z" fill="#FFB6B6"/>
<path d="M60.5679 115.33C60.6951 115.446 60.8779 115.892 60.9277 116.057C61.0808 116.565 60.7933 117.1 60.2854 117.254L51.8954 119.783C51.5489 119.888 51.1834 119.692 51.0789 119.345L50.9736 118.996C50.9736 118.996 50.242 118.071 50.7063 116.52C50.7063 116.52 52.0739 117.213 53.1823 115.147L53.3946 114.158L57.5292 115.614L59.4766 115.279C59.9026 115.206 60.2493 115.038 60.5679 115.33Z" fill="#2F2E41"/>
<path d="M39.771 112.53L41.9223 114.368L50.0367 106.946L46.8616 104.232L39.771 112.53Z" fill="#FFB6B6"/>
<path d="M47.1828 118.78C47.1534 118.95 46.8775 119.344 46.7654 119.475C46.4208 119.878 45.8146 119.926 45.4114 119.581L38.7496 113.888C38.4745 113.653 38.442 113.239 38.6771 112.964L38.9142 112.687C38.9142 112.687 39.297 111.572 40.8536 111.124C40.8536 111.124 41.0093 112.649 43.3463 112.466L44.2931 112.11L45.3017 116.376L46.6358 117.834C46.9277 118.153 47.2565 118.354 47.1828 118.78Z" fill="#2F2E41"/>
<path d="M50.7028 39.6174C53.2032 39.6174 55.2302 37.5904 55.2302 35.09C55.2302 32.5895 53.2032 30.5625 50.7028 30.5625C48.2023 30.5625 46.1753 32.5895 46.1753 35.09C46.1753 37.5904 48.2023 39.6174 50.7028 39.6174Z" fill="#FFB6B6"/>
<path d="M47.0488 39.5029L53.014 41.4118L53.7299 43.5593L53.4913 51.6719L45.6172 42.3662L47.0488 39.5029Z" fill="#8094D4"/>
<path d="M57.667 44.3948L53.2519 42.1258V50.0416L46.4807 40.6396L45.0207 42.128L38.8169 46.3037L42.8732 58.4727V64.4379L39.5327 73.9822L51.2245 80.4247L59.0986 75.8911L56.7125 59.1885L58.3828 46.5423L57.667 44.3948Z" fill="#2F2E41"/>
<path d="M55.9967 75.1751L60.7689 93.0708L46.4524 111.444L42.8733 107.864L53.2527 91.7584L44.0663 74.2207L55.9967 75.1751Z" fill="#2F2E41"/>
<path d="M41.2029 73.5046L46.2137 93.0704L48.9576 112.132L54.3949 111.443L52.6561 90.6844L49.5542 73.0273L41.2029 73.5046Z" fill="#2F2E41"/>
<path d="M49.6736 38.5484V36.2638L51.1052 34.2534L50.628 33.3328L50.3894 32.1604C50.3894 32.1604 53.4913 33.4249 54.6844 33.2426C55.8774 33.0604 55.1616 33.0003 55.5195 32.7917C55.8774 32.5832 56.5932 31.625 55.5195 30.6724C54.4458 29.7199 55.2781 29.4813 53.0723 29.7199C50.8666 29.9585 48.0033 29.9585 47.5261 30.6743C47.0489 31.3901 47.0489 31.8674 47.0489 31.8674C47.0489 31.8674 44.1856 32.106 46.3331 37.3553L47.5261 39.98L48.0033 39.0256C48.0033 39.0256 47.5261 36.4009 48.2419 37.3553C48.9578 38.3098 49.6736 38.5484 49.6736 38.5484Z" fill="#2F2E41"/>
<path d="M54.4951 50.473L51.9179 44.6404C51.8761 44.5457 51.876 44.4371 51.9177 44.3424C51.9595 44.2476 52.0397 44.1743 52.1379 44.1413L56.9401 42.526C57.0371 42.4934 57.1443 42.5027 57.2342 42.5516C57.3241 42.6005 57.3902 42.6854 57.4155 42.7845L58.9977 48.9777C59.0456 49.1651 58.9392 49.3593 58.7555 49.4197L54.9483 50.6744C54.9097 50.6871 54.8705 50.6933 54.8319 50.6933C54.6894 50.6933 54.5558 50.6103 54.4951 50.473Z" fill="#F2F2F2"/>
<path d="M51.7002 44.0854C51.763 44.052 51.8475 44.008 51.9494 43.9564C51.8999 43.9153 51.8633 43.8579 51.8495 43.7893L51.7542 43.3129C51.7295 43.1892 51.7864 43.0637 51.896 43.0014C52.549 42.6298 54.8222 41.4189 56.5917 41.4925C56.7024 41.4971 56.8003 41.5659 56.8448 41.6674L57.0494 42.134C57.0747 42.1917 57.0797 42.2527 57.0681 42.3095C57.2059 42.2927 57.3441 42.2779 57.4826 42.2667C57.5693 42.2597 57.652 42.3054 57.6936 42.3819L57.7982 42.5736C57.8646 42.6952 57.8043 42.8473 57.6727 42.8904L51.9144 44.7792C51.7834 44.8221 51.6453 44.7363 51.6258 44.5998L51.5848 44.3126C51.5715 44.2201 51.6177 44.1294 51.7002 44.0854Z" fill="#3F3D56"/>
<path d="M55.0916 48.4684C56.0424 47.6488 56.3901 46.4939 55.8684 45.8889C55.3467 45.2839 54.1533 45.458 53.2023 46.278C52.8179 46.6004 52.5163 47.0101 52.3227 47.4729L48.3381 50.9964L50.0315 52.8311L53.7798 49.1627C54.2663 49.0393 54.7161 48.8013 55.0916 48.4684Z" fill="#FFB6B6"/>
<path d="M45.8827 63.9939L44.9723 76.639C44.9166 77.4129 44.3254 78.0399 43.5568 78.1457C39.8124 78.661 35.6636 78.1394 31.1978 76.8048C30.4285 76.5749 29.946 75.8124 30.0551 75.0169L31.7751 62.4829C31.8715 61.7804 32.4087 61.2177 33.1066 61.0927C36.7409 60.4416 40.6667 61.0704 44.7318 62.3108C45.4606 62.5332 45.9374 63.2339 45.8827 63.9939Z" fill="#8094D4"/>
<path d="M40.4734 56.1527C42.3982 56.2345 42.9297 60.8671 42.9728 62.6448L43.4498 62.6333C43.443 62.3542 43.2527 55.7955 40.4938 55.6758" fill="#3F3D56"/>
<path d="M41.4416 46.5423L38.8169 46.3037L36.5151 57.2815C36.0765 59.3733 37.4477 61.4155 39.5498 61.8014L41.4416 62.1486L54.565 52.2689L51.5264 47.6457L42.6346 53.2234L41.4416 46.5423Z" fill="#2F2E41"/>
<path d="M42.8798 52.3361C40.1613 52.2197 35.6338 61.1944 35.5542 61.4442L36.0089 61.5893C36.0273 61.5314 40.5029 52.712 42.8594 52.813" fill="#3F3D56"/>
<path d="M0.000244141 119.779C0.000244141 119.897 0.165928 119.992 0.372251 119.992H94.1606C94.3669 119.992 94.5326 119.897 94.5326 119.779C94.5326 119.66 94.3669 119.565 94.1606 119.565H0.372251C0.165928 119.565 0.000244141 119.66 0.000244141 119.779Z" fill="#CCCCCC"/>
</g>
<defs>
<clipPath id="clip0_1942_13596">
<rect width="96.4656" height="120" fill="white"/>
</clipPath>
</defs>
</svg>
