<svg width="294" height="272" viewBox="0 0 294 272" fill="none" xmlns="http://www.w3.org/2000/svg">
<g clip-path="url(#clip0_2695_10832)">
<path d="M289.535 189.386H3.50098V190.258H289.535V189.386Z" fill="#3F3D56"/>
<path d="M209.294 91.922C206.645 76.043 192.843 63.9424 176.215 63.9424H108.213C91.5911 63.9424 77.7918 76.0333 75.134 91.9026C74.8272 93.7176 74.6689 95.5842 74.6689 97.4863V156.736C74.6689 158.638 74.8272 160.502 75.134 162.317C77.2493 174.96 86.4402 185.207 98.4988 188.846C101.573 189.776 104.835 190.277 108.213 190.277H176.215C179.593 190.277 182.854 189.776 185.929 188.846C197.991 185.204 207.185 174.95 209.294 162.297C209.597 160.489 209.755 158.632 209.755 156.736V97.4863C209.755 95.5906 209.597 93.7305 209.294 91.922ZM181.969 188.846C180.1 189.179 178.178 189.353 176.215 189.353H108.213C106.249 189.353 104.328 189.179 102.458 188.846C87.1894 186.13 75.5958 172.787 75.5958 156.736V137.069C75.5958 81.4975 120.643 64.8692 176.215 64.8692C194.228 64.8692 208.832 79.4726 208.832 97.4863V156.736C165.102 162.588 197.238 186.13 181.969 188.846Z" fill="#3F3D56"/>
<path d="M155.745 108.653L158.361 125.658L196.732 120.426L193.025 100.558L155.745 108.653Z" fill="#8094D4"/>
<path d="M185.86 13.2305H169.995V29.6518H185.86V13.2305Z" fill="#2F2E41"/>
<path d="M171.442 30.6038L175.367 18.8311H183.016L183.418 30.6038H171.442Z" fill="#FFB6B6"/>
<path opacity="0.1" d="M171.442 30.6038L175.367 18.8311H183.016L183.418 30.6038H171.442Z" fill="black"/>
<path d="M175.585 135.469L175.149 180.816L174.713 184.304V189.311L181.253 189.972L181.689 179.943C181.689 179.943 188.666 160.322 186.922 145.061C185.178 129.8 186.05 134.161 186.05 134.161L175.585 135.469Z" fill="#FFB6B6"/>
<path d="M179.736 139.031L163.646 181.429L162.783 184.837L160.962 189.501L154.629 187.738L157.871 178.238C157.871 178.238 158.51 157.423 165.686 143.842C172.863 130.261 170.464 134.005 170.464 134.005L179.736 139.031Z" fill="#FFB6B6"/>
<path d="M171.442 29.2966L159.669 34.5289L167.186 73.3407L165.999 129.046L158.15 145.615C158.15 145.615 156.835 155.091 170.352 148.986C183.869 142.882 199.13 141.138 199.13 141.138L195.424 115.63L192.153 48.6998L192.589 33.8749L182.997 27.7705C182.997 27.7705 171.442 29.2966 171.442 29.2966Z" fill="#2F2E41"/>
<path d="M164.886 146.22L151.821 124.35L166.751 73.3399L159.67 34.5281L172.092 29.21C172.092 29.21 178.523 35.4724 178.523 40.6378C178.523 45.8032 164.886 146.22 164.886 146.22Z" fill="#E6E6E6"/>
<path d="M193.228 141.859L181.369 39.991C181.219 38.7047 181.439 37.4024 182.002 36.2363L185.396 29.21L198.694 33.002L193.349 74.6479L207.633 115.629L193.228 141.859Z" fill="#E6E6E6"/>
<path d="M182.562 189.101C182.562 189.101 174.277 184.304 173.405 186.92C172.533 189.537 172.097 191.717 172.097 191.717C172.097 191.717 169.917 200.001 176.457 200.001C182.998 200.001 182.562 196.233 182.562 196.233V189.101Z" fill="#2F2E41"/>
<path d="M153.728 186.449C153.728 186.449 163.19 184.995 163.051 187.749C162.911 190.503 162.524 192.693 162.524 192.693C162.524 192.693 161.541 201.203 155.449 198.823C149.357 196.444 151.134 193.093 151.134 193.093L153.728 186.449Z" fill="#2F2E41"/>
<path d="M179.701 25.2388C185.688 25.2388 190.541 20.3857 190.541 14.3992C190.541 8.41263 185.688 3.55957 179.701 3.55957C173.714 3.55957 168.861 8.41263 168.861 14.3992C168.861 20.3857 173.714 25.2388 179.701 25.2388Z" fill="#FFB6B6"/>
<path d="M188.361 4.73958C187.857 2.06701 185.113 0.259333 182.403 0.0326548C179.693 -0.194023 177.038 0.829391 174.597 2.02932C172.943 2.84272 171.314 3.75952 169.973 5.02562C168.633 6.29172 167.592 7.94566 167.352 9.77358C167.267 10.4203 167.278 11.096 167.013 11.6922C166.683 12.4369 165.973 12.9427 165.544 13.6358C164.776 14.8789 165.129 16.6874 166.308 17.5503C164.826 18.1821 163.302 18.8412 162.172 19.9901C161.042 21.139 160.389 22.9128 161.009 24.4004C161.229 24.9267 161.591 25.3873 161.779 25.9258C162.135 26.9483 161.796 28.1099 161.165 28.9892C160.533 29.8686 159.641 30.5207 158.766 31.1573C161.016 31.5984 163.314 31.9422 165.598 31.7364C167.882 31.5306 170.175 30.73 171.829 29.1413C173.484 27.5525 174.394 25.1017 173.8 22.8863C173.345 21.1891 172.074 19.702 172.075 17.945C172.075 16.5944 172.835 15.3761 173.568 14.2419C175.17 11.765 176.771 9.28805 178.372 6.81112C178.661 6.36558 178.964 5.90452 179.42 5.632C180.194 5.16839 181.198 5.37226 182.015 5.75706C182.831 6.14187 183.577 6.69394 184.448 6.93253C186.224 7.41947 188.285 6.30121 188.845 4.54632" fill="#2F2E41"/>
<path d="M181.958 26.7837C181.055 27.6584 179.753 27.9401 178.547 28.2946C177.341 28.649 176.057 29.2065 175.514 30.3406C174.982 31.4527 175.368 32.8643 176.25 33.7264C177.131 34.5885 178.412 34.9516 179.645 34.9345C180.877 34.9174 182.079 34.5561 183.238 34.1366C186.408 32.9894 189.411 31.3802 192.121 29.3756C190.366 28.8898 189.217 26.8396 189.72 25.0885C190.129 23.6641 191.379 22.6706 192.23 21.4572C193.694 19.368 193.938 16.6141 193.453 14.109C192.968 11.6039 191.826 9.28172 190.696 6.99405C190.339 6.27088 189.973 5.53548 189.416 4.95237C188.859 4.36927 188.069 3.95152 187.267 4.03506C185.936 4.17369 185.086 5.63523 185.077 6.97376C185.068 8.31228 185.655 9.57026 186.1 10.8325C186.559 12.133 186.878 13.5115 186.755 14.8851C186.652 16.0362 186.233 17.1574 185.557 18.0944C185.034 18.818 184.369 19.4252 183.801 20.1136C183.361 20.6458 182.972 21.2486 182.857 21.9289C182.646 23.1668 183.373 24.4194 183.174 25.6592C182.963 26.9697 181.584 27.9731 180.273 27.7699" fill="#2F2E41"/>
<path d="M148.807 178.181C169.276 178.181 185.87 161.588 185.87 141.119C185.87 120.65 169.276 104.057 148.807 104.057C128.338 104.057 111.745 120.65 111.745 141.119C111.745 161.588 128.338 178.181 148.807 178.181Z" fill="#8094D4"/>
<path d="M171.014 138.145H166.406C165.69 133.921 163.478 130.096 160.175 127.368C152.573 121.089 141.32 122.162 135.041 129.763C135.02 129.788 134.999 129.813 134.98 129.838C134.478 130.488 134.598 131.422 135.249 131.924C135.899 132.426 136.833 132.305 137.335 131.655C140.062 128.351 144.191 126.248 148.807 126.248C155.874 126.248 161.966 131.221 163.381 138.145H159.318C159.145 138.145 158.976 138.206 158.843 138.317C158.527 138.58 158.485 139.049 158.747 139.365L164.595 146.384C164.624 146.419 164.655 146.45 164.69 146.479C165.005 146.742 165.474 146.7 165.737 146.384L171.585 139.365C171.696 139.231 171.757 139.063 171.757 138.889C171.757 138.478 171.424 138.145 171.014 138.145Z" fill="white"/>
<path d="M162.366 150.315C161.715 149.814 160.782 149.934 160.28 150.584C158.116 153.204 155.121 155.004 151.793 155.686C143.743 157.334 135.881 152.144 134.233 144.094H138.296C138.707 144.094 139.04 143.761 139.039 143.35C139.039 143.177 138.978 143.008 138.867 142.875L133.019 135.855C132.756 135.54 132.288 135.497 131.972 135.76C131.938 135.789 131.906 135.821 131.877 135.855L126.03 142.875C125.767 143.19 125.81 143.659 126.125 143.922C126.259 144.033 126.427 144.094 126.601 144.094H131.208C131.925 148.318 134.137 152.143 137.44 154.872C145.042 161.151 156.294 160.078 162.573 152.476C162.594 152.452 162.615 152.427 162.635 152.401C163.137 151.751 163.016 150.817 162.366 150.315Z" fill="white"/>
<path d="M159.154 103.423C158.706 106.635 156.684 109.007 154.64 108.721C152.596 108.435 151.304 105.6 151.753 102.387C151.915 101.101 152.383 99.8727 153.117 98.8045L155.19 85.2197L161.545 86.3287L158.826 99.6032C159.239 100.832 159.351 102.142 159.154 103.423Z" fill="#FFB6B6"/>
<path d="M164.684 33.8748C164.684 33.8748 158.144 31.6946 157.272 39.5431C156.4 47.3916 155.528 56.9842 155.528 56.9842C155.528 56.9842 151.603 66.1408 153.347 70.9371C155.091 75.7334 158.144 72.3894 155.091 76.4595C152.039 80.5297 152.465 93.9213 152.465 93.9213L162.286 93.4269C162.286 93.4269 167.736 57.4202 167.736 56.5482C167.736 55.6761 164.684 33.8748 164.684 33.8748Z" fill="#E6E6E6"/>
<path d="M207.196 101.966C207.318 105.207 205.744 107.896 203.682 107.973C201.619 108.05 199.85 105.486 199.728 102.244C199.662 100.949 199.907 99.658 200.442 98.4777L200.1 84.7397L206.551 84.7168L206.203 98.2624C206.825 99.3998 207.166 100.67 207.196 101.966Z" fill="#FFB6B6"/>
<path d="M197.128 33.7268C197.128 33.7268 203.706 31.6638 204.438 39.5266C205.169 47.3895 205.87 61.7924 205.87 61.7924C205.87 61.7924 209.63 71.0177 207.8 75.782C205.971 80.5464 202.979 77.1484 205.958 81.2724C208.937 85.3965 207.868 97.0267 207.868 97.0267L198.057 96.3569C198.057 96.3569 193.655 62.0102 193.671 61.1383C193.687 60.2664 197.128 33.7268 197.128 33.7268Z" fill="#E6E6E6"/>
</g>
<path d="M86.2008 234V222.8H87.9128L94.9368 231.424H94.0888V222.8H96.1528V234H94.4408L87.4168 225.376H88.2648V234H86.2008ZM102.802 234.112C101.927 234.112 101.149 233.925 100.466 233.552C99.7832 233.168 99.2446 232.645 98.8499 231.984C98.4552 231.323 98.2579 230.571 98.2579 229.728C98.2579 228.875 98.4552 228.123 98.8499 227.472C99.2446 226.811 99.7832 226.293 100.466 225.92C101.149 225.547 101.927 225.36 102.802 225.36C103.687 225.36 104.471 225.547 105.154 225.92C105.847 226.293 106.386 226.805 106.77 227.456C107.165 228.107 107.362 228.864 107.362 229.728C107.362 230.571 107.165 231.323 106.77 231.984C106.386 232.645 105.847 233.168 105.154 233.552C104.471 233.925 103.687 234.112 102.802 234.112ZM102.802 232.4C103.293 232.4 103.73 232.293 104.114 232.08C104.498 231.867 104.797 231.557 105.01 231.152C105.234 230.747 105.346 230.272 105.346 229.728C105.346 229.173 105.234 228.699 105.01 228.304C104.797 227.899 104.498 227.589 104.114 227.376C103.73 227.163 103.298 227.056 102.818 227.056C102.327 227.056 101.89 227.163 101.506 227.376C101.133 227.589 100.834 227.899 100.61 228.304C100.386 228.699 100.274 229.173 100.274 229.728C100.274 230.272 100.386 230.747 100.61 231.152C100.834 231.557 101.133 231.867 101.506 232.08C101.89 232.293 102.322 232.4 102.802 232.4ZM117.36 234.16C116.486 234.16 115.648 234.037 114.848 233.792C114.048 233.536 113.414 233.211 112.944 232.816L113.664 231.2C114.112 231.552 114.667 231.845 115.328 232.08C115.99 232.315 116.667 232.432 117.36 232.432C117.947 232.432 118.422 232.368 118.784 232.24C119.147 232.112 119.414 231.941 119.584 231.728C119.755 231.504 119.84 231.253 119.84 230.976C119.84 230.635 119.718 230.363 119.472 230.16C119.227 229.947 118.907 229.781 118.512 229.664C118.128 229.536 117.696 229.419 117.216 229.312C116.747 229.205 116.272 229.083 115.792 228.944C115.323 228.795 114.891 228.608 114.496 228.384C114.112 228.149 113.798 227.84 113.552 227.456C113.307 227.072 113.184 226.581 113.184 225.984C113.184 225.376 113.344 224.821 113.664 224.32C113.995 223.808 114.491 223.403 115.152 223.104C115.824 222.795 116.672 222.64 117.696 222.64C118.368 222.64 119.035 222.725 119.696 222.896C120.358 223.067 120.934 223.312 121.424 223.632L120.768 225.248C120.267 224.949 119.75 224.731 119.216 224.592C118.683 224.443 118.171 224.368 117.68 224.368C117.104 224.368 116.635 224.437 116.272 224.576C115.92 224.715 115.659 224.896 115.488 225.12C115.328 225.344 115.248 225.6 115.248 225.888C115.248 226.229 115.366 226.507 115.6 226.72C115.846 226.923 116.16 227.083 116.544 227.2C116.939 227.317 117.376 227.435 117.856 227.552C118.336 227.659 118.811 227.781 119.28 227.92C119.76 228.059 120.192 228.24 120.576 228.464C120.971 228.688 121.286 228.992 121.52 229.376C121.766 229.76 121.888 230.245 121.888 230.832C121.888 231.429 121.723 231.984 121.392 232.496C121.072 232.997 120.576 233.403 119.904 233.712C119.232 234.011 118.384 234.16 117.36 234.16ZM126.975 234.112C126.036 234.112 125.311 233.872 124.799 233.392C124.287 232.901 124.031 232.181 124.031 231.232V223.568H126.031V231.184C126.031 231.589 126.132 231.904 126.335 232.128C126.548 232.352 126.841 232.464 127.215 232.464C127.663 232.464 128.036 232.347 128.335 232.112L128.895 233.536C128.66 233.728 128.372 233.872 128.031 233.968C127.689 234.064 127.337 234.112 126.975 234.112ZM122.623 227.12V225.52H128.319V227.12H122.623ZM135.804 234V232.272L135.692 231.904V228.88C135.692 228.293 135.516 227.84 135.164 227.52C134.812 227.189 134.279 227.024 133.564 227.024C133.084 227.024 132.609 227.099 132.14 227.248C131.681 227.397 131.292 227.605 130.972 227.872L130.188 226.416C130.647 226.064 131.191 225.803 131.82 225.632C132.46 225.451 133.121 225.36 133.804 225.36C135.041 225.36 135.996 225.659 136.668 226.256C137.351 226.843 137.692 227.755 137.692 228.992V234H135.804ZM133.116 234.112C132.476 234.112 131.916 234.005 131.436 233.792C130.956 233.568 130.583 233.264 130.316 232.88C130.06 232.485 129.932 232.043 129.932 231.552C129.932 231.072 130.044 230.64 130.268 230.256C130.503 229.872 130.881 229.568 131.404 229.344C131.927 229.12 132.62 229.008 133.484 229.008H135.964V230.336H133.628C132.945 230.336 132.487 230.448 132.252 230.672C132.017 230.885 131.9 231.152 131.9 231.472C131.9 231.835 132.044 232.123 132.332 232.336C132.62 232.549 133.02 232.656 133.532 232.656C134.023 232.656 134.46 232.544 134.844 232.32C135.239 232.096 135.521 231.765 135.692 231.328L136.028 232.528C135.836 233.029 135.489 233.419 134.988 233.696C134.497 233.973 133.873 234.112 133.116 234.112ZM140.531 234V224.976C140.531 224.08 140.792 223.365 141.315 222.832C141.848 222.288 142.605 222.016 143.587 222.016C143.939 222.016 144.269 222.053 144.579 222.128C144.899 222.203 145.165 222.32 145.379 222.48L144.835 223.984C144.685 223.867 144.515 223.781 144.323 223.728C144.131 223.664 143.933 223.632 143.731 223.632C143.315 223.632 143 223.749 142.787 223.984C142.573 224.208 142.467 224.549 142.467 225.008V225.968L142.531 226.864V234H140.531ZM139.123 227.12V225.52H144.819V227.12H139.123ZM146.484 234V224.976C146.484 224.08 146.745 223.365 147.268 222.832C147.801 222.288 148.559 222.016 149.54 222.016C149.892 222.016 150.223 222.053 150.532 222.128C150.852 222.203 151.119 222.32 151.332 222.48L150.788 223.984C150.639 223.867 150.468 223.781 150.276 223.728C150.084 223.664 149.887 223.632 149.684 223.632C149.268 223.632 148.953 223.749 148.74 223.984C148.527 224.208 148.42 224.549 148.42 225.008V225.968L148.484 226.864V234H146.484ZM145.076 227.12V225.52H150.772V227.12H145.076ZM158.636 227.952H164.22V229.712H158.636V227.952ZM158.812 234H156.732V222.8H164.908V224.544H158.812V234ZM170.333 234.112C169.458 234.112 168.68 233.925 167.997 233.552C167.314 233.168 166.776 232.645 166.381 231.984C165.986 231.323 165.789 230.571 165.789 229.728C165.789 228.875 165.986 228.123 166.381 227.472C166.776 226.811 167.314 226.293 167.997 225.92C168.68 225.547 169.458 225.36 170.333 225.36C171.218 225.36 172.002 225.547 172.685 225.92C173.378 226.293 173.917 226.805 174.301 227.456C174.696 228.107 174.893 228.864 174.893 229.728C174.893 230.571 174.696 231.323 174.301 231.984C173.917 232.645 173.378 233.168 172.685 233.552C172.002 233.925 171.218 234.112 170.333 234.112ZM170.333 232.4C170.824 232.4 171.261 232.293 171.645 232.08C172.029 231.867 172.328 231.557 172.541 231.152C172.765 230.747 172.877 230.272 172.877 229.728C172.877 229.173 172.765 228.699 172.541 228.304C172.328 227.899 172.029 227.589 171.645 227.376C171.261 227.163 170.829 227.056 170.349 227.056C169.858 227.056 169.421 227.163 169.037 227.376C168.664 227.589 168.365 227.899 168.141 228.304C167.917 228.699 167.805 229.173 167.805 229.728C167.805 230.272 167.917 230.747 168.141 231.152C168.365 231.557 168.664 231.867 169.037 232.08C169.421 232.293 169.853 232.4 170.333 232.4ZM180.422 234.112C179.696 234.112 179.056 233.979 178.502 233.712C177.947 233.435 177.515 233.019 177.206 232.464C176.896 231.899 176.742 231.189 176.742 230.336V225.456H178.742V230.064C178.742 230.832 178.912 231.408 179.254 231.792C179.606 232.165 180.102 232.352 180.742 232.352C181.211 232.352 181.616 232.256 181.958 232.064C182.31 231.872 182.582 231.584 182.774 231.2C182.976 230.816 183.078 230.341 183.078 229.776V225.456H185.078V234H183.174V231.696L183.51 232.4C183.222 232.955 182.8 233.381 182.246 233.68C181.691 233.968 181.083 234.112 180.422 234.112ZM192.544 225.36C193.227 225.36 193.835 225.493 194.368 225.76C194.912 226.027 195.339 226.437 195.648 226.992C195.958 227.536 196.112 228.24 196.112 229.104V234H194.112V229.36C194.112 228.603 193.931 228.037 193.568 227.664C193.216 227.291 192.72 227.104 192.08 227.104C191.611 227.104 191.195 227.2 190.832 227.392C190.47 227.584 190.187 227.872 189.984 228.256C189.792 228.629 189.696 229.104 189.696 229.68V234H187.696V225.456H189.6V227.76L189.264 227.056C189.563 226.512 189.995 226.096 190.56 225.808C191.136 225.509 191.798 225.36 192.544 225.36ZM202.281 234.112C201.46 234.112 200.718 233.931 200.057 233.568C199.406 233.195 198.894 232.683 198.521 232.032C198.148 231.381 197.961 230.613 197.961 229.728C197.961 228.843 198.148 228.075 198.521 227.424C198.894 226.773 199.406 226.267 200.057 225.904C200.718 225.541 201.46 225.36 202.281 225.36C202.996 225.36 203.636 225.52 204.201 225.84C204.766 226.149 205.214 226.624 205.545 227.264C205.876 227.904 206.041 228.725 206.041 229.728C206.041 230.72 205.881 231.541 205.561 232.192C205.241 232.832 204.798 233.312 204.233 233.632C203.668 233.952 203.017 234.112 202.281 234.112ZM202.521 232.4C203.001 232.4 203.428 232.293 203.801 232.08C204.185 231.867 204.489 231.557 204.713 231.152C204.948 230.747 205.065 230.272 205.065 229.728C205.065 229.173 204.948 228.699 204.713 228.304C204.489 227.899 204.185 227.589 203.801 227.376C203.428 227.163 203.001 227.056 202.521 227.056C202.041 227.056 201.609 227.163 201.225 227.376C200.852 227.589 200.548 227.899 200.313 228.304C200.089 228.699 199.977 229.173 199.977 229.728C199.977 230.272 200.089 230.747 200.313 231.152C200.548 231.557 200.852 231.867 201.225 232.08C201.609 232.293 202.041 232.4 202.521 232.4ZM205.113 234V231.984L205.193 229.712L205.033 227.44V222.128H207.017V234H205.113Z" fill="black"/>
<path d="M20.7366 266L25.8566 254.8H27.0246L32.1446 266H30.8966L26.1926 255.488H26.6726L21.9686 266H20.7366ZM22.7526 263.008L23.1046 262.048H29.6166L29.9686 263.008H22.7526ZM37.0232 266.08C36.2232 266.08 35.5032 265.899 34.8632 265.536C34.2339 265.173 33.7379 264.672 33.3752 264.032C33.0125 263.381 32.8312 262.635 32.8312 261.792C32.8312 260.939 33.0125 260.192 33.3752 259.552C33.7379 258.912 34.2339 258.416 34.8632 258.064C35.5032 257.701 36.2232 257.52 37.0232 257.52C37.7592 257.52 38.4152 257.685 38.9912 258.016C39.5779 258.347 40.0419 258.832 40.3832 259.472C40.7352 260.101 40.9112 260.875 40.9112 261.792C40.9112 262.699 40.7405 263.472 40.3992 264.112C40.0579 264.752 39.5939 265.243 39.0072 265.584C38.4312 265.915 37.7699 266.08 37.0232 266.08ZM37.1032 265.072C37.7005 265.072 38.2339 264.939 38.7032 264.672C39.1832 264.395 39.5565 264.011 39.8232 263.52C40.1005 263.019 40.2392 262.443 40.2392 261.792C40.2392 261.131 40.1005 260.555 39.8232 260.064C39.5565 259.573 39.1832 259.195 38.7032 258.928C38.2339 258.651 37.7005 258.512 37.1032 258.512C36.5165 258.512 35.9885 258.651 35.5192 258.928C35.0499 259.195 34.6765 259.573 34.3992 260.064C34.1219 260.555 33.9832 261.131 33.9832 261.792C33.9832 262.443 34.1219 263.019 34.3992 263.52C34.6765 264.011 35.0499 264.395 35.5192 264.672C35.9885 264.939 36.5165 265.072 37.1032 265.072ZM40.2712 266V263.472L40.3832 261.776L40.2232 260.08V254.128H41.3592V266H40.2712ZM47.867 266.08C47.067 266.08 46.347 265.899 45.707 265.536C45.0776 265.173 44.5816 264.672 44.219 264.032C43.8563 263.381 43.675 262.635 43.675 261.792C43.675 260.939 43.8563 260.192 44.219 259.552C44.5816 258.912 45.0776 258.416 45.707 258.064C46.347 257.701 47.067 257.52 47.867 257.52C48.603 257.52 49.259 257.685 49.835 258.016C50.4216 258.347 50.8856 258.832 51.227 259.472C51.579 260.101 51.755 260.875 51.755 261.792C51.755 262.699 51.5843 263.472 51.243 264.112C50.9016 264.752 50.4376 265.243 49.851 265.584C49.275 265.915 48.6136 266.08 47.867 266.08ZM47.947 265.072C48.5443 265.072 49.0776 264.939 49.547 264.672C50.027 264.395 50.4003 264.011 50.667 263.52C50.9443 263.019 51.083 262.443 51.083 261.792C51.083 261.131 50.9443 260.555 50.667 260.064C50.4003 259.573 50.027 259.195 49.547 258.928C49.0776 258.651 48.5443 258.512 47.947 258.512C47.3603 258.512 46.8323 258.651 46.363 258.928C45.8936 259.195 45.5203 259.573 45.243 260.064C44.9656 260.555 44.827 261.131 44.827 261.792C44.827 262.443 44.9656 263.019 45.243 263.52C45.5203 264.011 45.8936 264.395 46.363 264.672C46.8323 264.939 47.3603 265.072 47.947 265.072ZM51.115 266V263.472L51.227 261.776L51.067 260.08V254.128H52.203V266H51.115ZM61.8102 266.08C61.1169 266.08 60.4609 265.984 59.8422 265.792C59.2235 265.589 58.7382 265.339 58.3862 265.04L58.8982 264.144C59.2395 264.4 59.6769 264.624 60.2102 264.816C60.7435 264.997 61.3035 265.088 61.8902 265.088C62.6902 265.088 63.2662 264.965 63.6182 264.72C63.9702 264.464 64.1462 264.128 64.1462 263.712C64.1462 263.403 64.0449 263.163 63.8422 262.992C63.6502 262.811 63.3942 262.677 63.0742 262.592C62.7542 262.496 62.3969 262.416 62.0022 262.352C61.6075 262.288 61.2129 262.213 60.8182 262.128C60.4342 262.043 60.0822 261.92 59.7622 261.76C59.4422 261.589 59.1809 261.36 58.9782 261.072C58.7862 260.784 58.6902 260.4 58.6902 259.92C58.6902 259.461 58.8182 259.051 59.0742 258.688C59.3302 258.325 59.7035 258.043 60.1942 257.84C60.6955 257.627 61.3035 257.52 62.0182 257.52C62.5622 257.52 63.1062 257.595 63.6502 257.744C64.1942 257.883 64.6422 258.069 64.9942 258.304L64.4982 259.216C64.1249 258.96 63.7249 258.779 63.2982 258.672C62.8715 258.555 62.4449 258.496 62.0182 258.496C61.2609 258.496 60.7009 258.629 60.3382 258.896C59.9862 259.152 59.8102 259.483 59.8102 259.888C59.8102 260.208 59.9062 260.459 60.0982 260.64C60.3009 260.821 60.5622 260.965 60.8822 261.072C61.2129 261.168 61.5702 261.248 61.9542 261.312C62.3489 261.376 62.7382 261.456 63.1222 261.552C63.5169 261.637 63.8742 261.76 64.1942 261.92C64.5249 262.069 64.7862 262.288 64.9782 262.576C65.1809 262.853 65.2822 263.221 65.2822 263.68C65.2822 264.171 65.1435 264.597 64.8662 264.96C64.5995 265.312 64.2049 265.589 63.6822 265.792C63.1702 265.984 62.5462 266.08 61.8102 266.08ZM70.0227 266.08C69.2334 266.08 68.6254 265.867 68.1987 265.44C67.772 265.013 67.5587 264.411 67.5587 263.632V255.744H68.6947V263.568C68.6947 264.059 68.8174 264.437 69.0627 264.704C69.3187 264.971 69.6814 265.104 70.1507 265.104C70.652 265.104 71.068 264.96 71.3987 264.672L71.7987 265.488C71.5747 265.691 71.3027 265.84 70.9827 265.936C70.6734 266.032 70.3534 266.08 70.0227 266.08ZM66.0547 258.544V257.6H71.2547V258.544H66.0547ZM79.1307 266V264.144L79.0827 263.84V260.736C79.0827 260.021 78.88 259.472 78.4747 259.088C78.08 258.704 77.488 258.512 76.6987 258.512C76.1547 258.512 75.6374 258.603 75.1467 258.784C74.656 258.965 74.24 259.205 73.8987 259.504L73.3867 258.656C73.8134 258.293 74.3254 258.016 74.9227 257.824C75.52 257.621 76.1494 257.52 76.8107 257.52C77.8987 257.52 78.736 257.792 79.3227 258.336C79.92 258.869 80.2187 259.685 80.2187 260.784V266H79.1307ZM76.2347 266.08C75.6054 266.08 75.056 265.979 74.5867 265.776C74.128 265.563 73.776 265.275 73.5307 264.912C73.2854 264.539 73.1627 264.112 73.1627 263.632C73.1627 263.195 73.264 262.8 73.4667 262.448C73.68 262.085 74.0214 261.797 74.4907 261.584C74.9707 261.36 75.6107 261.248 76.4107 261.248H79.3067V262.096H76.4427C75.632 262.096 75.0667 262.24 74.7467 262.528C74.4374 262.816 74.2827 263.173 74.2827 263.6C74.2827 264.08 74.4694 264.464 74.8427 264.752C75.216 265.04 75.7387 265.184 76.4107 265.184C77.0507 265.184 77.6 265.04 78.0587 264.752C78.528 264.453 78.8694 264.027 79.0827 263.472L79.3387 264.256C79.1254 264.811 78.752 265.253 78.2187 265.584C77.696 265.915 77.0347 266.08 76.2347 266.08ZM83.4962 266V256.544C83.4962 255.797 83.7149 255.195 84.1522 254.736C84.5895 254.277 85.2189 254.048 86.0402 254.048C86.3602 254.048 86.6695 254.091 86.9682 254.176C87.2669 254.261 87.5175 254.395 87.7202 254.576L87.3362 255.424C87.1762 255.285 86.9895 255.184 86.7762 255.12C86.5629 255.045 86.3335 255.008 86.0882 255.008C85.6082 255.008 85.2402 255.141 84.9842 255.408C84.7282 255.675 84.6002 256.069 84.6002 256.592V257.872L84.6322 258.4V266H83.4962ZM81.9922 258.544V257.6H87.1922V258.544H81.9922ZM88.9493 266V256.544C88.9493 255.797 89.168 255.195 89.6053 254.736C90.0427 254.277 90.672 254.048 91.4933 254.048C91.8133 254.048 92.1227 254.091 92.4213 254.176C92.72 254.261 92.9707 254.395 93.1733 254.576L92.7893 255.424C92.6293 255.285 92.4427 255.184 92.2293 255.12C92.016 255.045 91.7867 255.008 91.5413 255.008C91.0613 255.008 90.6933 255.141 90.4373 255.408C90.1813 255.675 90.0533 256.069 90.0533 256.592V257.872L90.0853 258.4V266H88.9493ZM87.4453 258.544V257.6H92.6453V258.544H87.4453ZM101.023 266.08C100.233 266.08 99.6254 265.867 99.1987 265.44C98.772 265.013 98.5587 264.411 98.5587 263.632V255.744H99.6947V263.568C99.6947 264.059 99.8174 264.437 100.063 264.704C100.319 264.971 100.681 265.104 101.151 265.104C101.652 265.104 102.068 264.96 102.399 264.672L102.799 265.488C102.575 265.691 102.303 265.84 101.983 265.936C101.673 266.032 101.353 266.08 101.023 266.08ZM97.0547 258.544V257.6H102.255V258.544H97.0547ZM107.994 266.08C107.183 266.08 106.453 265.899 105.802 265.536C105.162 265.163 104.655 264.656 104.282 264.016C103.909 263.365 103.722 262.624 103.722 261.792C103.722 260.949 103.909 260.208 104.282 259.568C104.655 258.928 105.162 258.427 105.802 258.064C106.442 257.701 107.173 257.52 107.994 257.52C108.826 257.52 109.562 257.701 110.202 258.064C110.853 258.427 111.359 258.928 111.722 259.568C112.095 260.208 112.282 260.949 112.282 261.792C112.282 262.624 112.095 263.365 111.722 264.016C111.359 264.656 110.853 265.163 110.202 265.536C109.551 265.899 108.815 266.08 107.994 266.08ZM107.994 265.072C108.602 265.072 109.141 264.939 109.61 264.672C110.079 264.395 110.447 264.011 110.714 263.52C110.991 263.019 111.13 262.443 111.13 261.792C111.13 261.131 110.991 260.555 110.714 260.064C110.447 259.573 110.079 259.195 109.61 258.928C109.141 258.651 108.607 258.512 108.01 258.512C107.413 258.512 106.879 258.651 106.41 258.928C105.941 259.195 105.567 259.573 105.29 260.064C105.013 260.555 104.874 261.131 104.874 261.792C104.874 262.443 105.013 263.019 105.29 263.52C105.567 264.011 105.941 264.395 106.41 264.672C106.879 264.939 107.407 265.072 107.994 265.072ZM129.285 257.52C129.967 257.52 130.559 257.653 131.061 257.92C131.573 258.176 131.967 258.571 132.245 259.104C132.533 259.637 132.677 260.309 132.677 261.12V266H131.541V261.232C131.541 260.347 131.327 259.68 130.901 259.232C130.485 258.773 129.893 258.544 129.125 258.544C128.549 258.544 128.047 258.667 127.621 258.912C127.205 259.147 126.879 259.493 126.645 259.952C126.421 260.4 126.309 260.944 126.309 261.584V266H125.173V261.232C125.173 260.347 124.959 259.68 124.533 259.232C124.106 258.773 123.509 258.544 122.741 258.544C122.175 258.544 121.679 258.667 121.253 258.912C120.826 259.147 120.495 259.493 120.261 259.952C120.037 260.4 119.925 260.944 119.925 261.584V266H118.789V257.6H119.877V259.872L119.701 259.472C119.957 258.864 120.367 258.389 120.933 258.048C121.509 257.696 122.186 257.52 122.965 257.52C123.786 257.52 124.485 257.728 125.061 258.144C125.637 258.549 126.01 259.163 126.181 259.984L125.733 259.808C125.978 259.125 126.41 258.576 127.029 258.16C127.658 257.733 128.41 257.52 129.285 257.52ZM141.021 266V264.144L140.973 263.84V260.736C140.973 260.021 140.771 259.472 140.365 259.088C139.971 258.704 139.379 258.512 138.589 258.512C138.045 258.512 137.528 258.603 137.037 258.784C136.547 258.965 136.131 259.205 135.789 259.504L135.277 258.656C135.704 258.293 136.216 258.016 136.813 257.824C137.411 257.621 138.04 257.52 138.701 257.52C139.789 257.52 140.627 257.792 141.213 258.336C141.811 258.869 142.109 259.685 142.109 260.784V266H141.021ZM138.125 266.08C137.496 266.08 136.947 265.979 136.477 265.776C136.019 265.563 135.667 265.275 135.421 264.912C135.176 264.539 135.053 264.112 135.053 263.632C135.053 263.195 135.155 262.8 135.357 262.448C135.571 262.085 135.912 261.797 136.381 261.584C136.861 261.36 137.501 261.248 138.301 261.248H141.197V262.096H138.333C137.523 262.096 136.957 262.24 136.637 262.528C136.328 262.816 136.173 263.173 136.173 263.6C136.173 264.08 136.36 264.464 136.733 264.752C137.107 265.04 137.629 265.184 138.301 265.184C138.941 265.184 139.491 265.04 139.949 264.752C140.419 264.453 140.76 264.027 140.973 263.472L141.229 264.256C141.016 264.811 140.643 265.253 140.109 265.584C139.587 265.915 138.925 266.08 138.125 266.08ZM149.483 257.52C150.166 257.52 150.763 257.653 151.275 257.92C151.798 258.176 152.203 258.571 152.491 259.104C152.79 259.637 152.939 260.309 152.939 261.12V266H151.803V261.232C151.803 260.347 151.579 259.68 151.131 259.232C150.694 258.773 150.075 258.544 149.275 258.544C148.678 258.544 148.155 258.667 147.707 258.912C147.27 259.147 146.928 259.493 146.683 259.952C146.448 260.4 146.331 260.944 146.331 261.584V266H145.195V257.6H146.283V259.904L146.107 259.472C146.374 258.864 146.8 258.389 147.387 258.048C147.974 257.696 148.672 257.52 149.483 257.52ZM161.271 266V264.144L161.223 263.84V260.736C161.223 260.021 161.021 259.472 160.615 259.088C160.221 258.704 159.629 258.512 158.839 258.512C158.295 258.512 157.778 258.603 157.287 258.784C156.797 258.965 156.381 259.205 156.039 259.504L155.527 258.656C155.954 258.293 156.466 258.016 157.063 257.824C157.661 257.621 158.29 257.52 158.951 257.52C160.039 257.52 160.877 257.792 161.463 258.336C162.061 258.869 162.359 259.685 162.359 260.784V266H161.271ZM158.375 266.08C157.746 266.08 157.197 265.979 156.727 265.776C156.269 265.563 155.917 265.275 155.671 264.912C155.426 264.539 155.303 264.112 155.303 263.632C155.303 263.195 155.405 262.8 155.607 262.448C155.821 262.085 156.162 261.797 156.631 261.584C157.111 261.36 157.751 261.248 158.551 261.248H161.447V262.096H158.583C157.773 262.096 157.207 262.24 156.887 262.528C156.578 262.816 156.423 263.173 156.423 263.6C156.423 264.08 156.61 264.464 156.983 264.752C157.357 265.04 157.879 265.184 158.551 265.184C159.191 265.184 159.741 265.04 160.199 264.752C160.669 264.453 161.01 264.027 161.223 263.472L161.479 264.256C161.266 264.811 160.893 265.253 160.359 265.584C159.837 265.915 159.175 266.08 158.375 266.08ZM169.029 269.184C168.261 269.184 167.525 269.072 166.821 268.848C166.117 268.624 165.546 268.304 165.109 267.888L165.685 267.024C166.08 267.376 166.565 267.653 167.141 267.856C167.728 268.069 168.346 268.176 168.997 268.176C170.064 268.176 170.848 267.925 171.349 267.424C171.85 266.933 172.101 266.165 172.101 265.12V263.024L172.261 261.584L172.149 260.144V257.6H173.237V264.976C173.237 266.427 172.88 267.488 172.165 268.16C171.461 268.843 170.416 269.184 169.029 269.184ZM168.821 265.68C168.021 265.68 167.301 265.509 166.661 265.168C166.021 264.816 165.514 264.331 165.141 263.712C164.778 263.093 164.597 262.384 164.597 261.584C164.597 260.784 164.778 260.08 165.141 259.472C165.514 258.853 166.021 258.373 166.661 258.032C167.301 257.691 168.021 257.52 168.821 257.52C169.568 257.52 170.24 257.675 170.837 257.984C171.434 258.293 171.909 258.752 172.261 259.36C172.613 259.968 172.789 260.709 172.789 261.584C172.789 262.459 172.613 263.2 172.261 263.808C171.909 264.416 171.434 264.88 170.837 265.2C170.24 265.52 169.568 265.68 168.821 265.68ZM168.933 264.672C169.552 264.672 170.101 264.544 170.581 264.288C171.061 264.021 171.44 263.659 171.717 263.2C171.994 262.731 172.133 262.192 172.133 261.584C172.133 260.976 171.994 260.443 171.717 259.984C171.44 259.525 171.061 259.168 170.581 258.912C170.101 258.645 169.552 258.512 168.933 258.512C168.325 258.512 167.776 258.645 167.285 258.912C166.805 259.168 166.426 259.525 166.149 259.984C165.882 260.443 165.749 260.976 165.749 261.584C165.749 262.192 165.882 262.731 166.149 263.2C166.426 263.659 166.805 264.021 167.285 264.288C167.776 264.544 168.325 264.672 168.933 264.672ZM179.966 266.08C179.091 266.08 178.323 265.899 177.662 265.536C177.001 265.163 176.483 264.656 176.11 264.016C175.737 263.365 175.55 262.624 175.55 261.792C175.55 260.96 175.726 260.224 176.078 259.584C176.441 258.944 176.931 258.443 177.55 258.08C178.179 257.707 178.883 257.52 179.662 257.52C180.451 257.52 181.15 257.701 181.758 258.064C182.377 258.416 182.862 258.917 183.214 259.568C183.566 260.208 183.742 260.949 183.742 261.792C183.742 261.845 183.737 261.904 183.726 261.968C183.726 262.021 183.726 262.08 183.726 262.144H176.414V261.296H183.118L182.67 261.632C182.67 261.024 182.537 260.485 182.27 260.016C182.014 259.536 181.662 259.163 181.214 258.896C180.766 258.629 180.249 258.496 179.662 258.496C179.086 258.496 178.569 258.629 178.11 258.896C177.651 259.163 177.294 259.536 177.038 260.016C176.782 260.496 176.654 261.045 176.654 261.664V261.84C176.654 262.48 176.793 263.045 177.07 263.536C177.358 264.016 177.753 264.395 178.254 264.672C178.766 264.939 179.347 265.072 179.998 265.072C180.51 265.072 180.985 264.981 181.422 264.8C181.87 264.619 182.254 264.341 182.574 263.968L183.214 264.704C182.841 265.152 182.371 265.493 181.806 265.728C181.251 265.963 180.638 266.08 179.966 266.08ZM192.898 266.08C192.108 266.08 191.5 265.867 191.074 265.44C190.647 265.013 190.434 264.411 190.434 263.632V255.744H191.57V263.568C191.57 264.059 191.692 264.437 191.938 264.704C192.194 264.971 192.556 265.104 193.026 265.104C193.527 265.104 193.943 264.96 194.274 264.672L194.674 265.488C194.45 265.691 194.178 265.84 193.858 265.936C193.548 266.032 193.228 266.08 192.898 266.08ZM188.93 258.544V257.6H194.13V258.544H188.93ZM201.03 257.52C201.712 257.52 202.31 257.653 202.822 257.92C203.344 258.176 203.75 258.571 204.038 259.104C204.336 259.637 204.486 260.309 204.486 261.12V266H203.35V261.232C203.35 260.347 203.126 259.68 202.678 259.232C202.24 258.773 201.622 258.544 200.822 258.544C200.224 258.544 199.702 258.667 199.254 258.912C198.816 259.147 198.475 259.493 198.23 259.952C197.995 260.4 197.878 260.944 197.878 261.584V266H196.742V254.128H197.878V259.904L197.654 259.472C197.92 258.864 198.347 258.389 198.934 258.048C199.52 257.696 200.219 257.52 201.03 257.52ZM211.122 266.08C210.248 266.08 209.48 265.899 208.818 265.536C208.157 265.163 207.64 264.656 207.266 264.016C206.893 263.365 206.706 262.624 206.706 261.792C206.706 260.96 206.882 260.224 207.234 259.584C207.597 258.944 208.088 258.443 208.706 258.08C209.336 257.707 210.04 257.52 210.818 257.52C211.608 257.52 212.306 257.701 212.914 258.064C213.533 258.416 214.018 258.917 214.37 259.568C214.722 260.208 214.898 260.949 214.898 261.792C214.898 261.845 214.893 261.904 214.882 261.968C214.882 262.021 214.882 262.08 214.882 262.144H207.57V261.296H214.274L213.826 261.632C213.826 261.024 213.693 260.485 213.426 260.016C213.17 259.536 212.818 259.163 212.37 258.896C211.922 258.629 211.405 258.496 210.818 258.496C210.242 258.496 209.725 258.629 209.266 258.896C208.808 259.163 208.45 259.536 208.194 260.016C207.938 260.496 207.81 261.045 207.81 261.664V261.84C207.81 262.48 207.949 263.045 208.226 263.536C208.514 264.016 208.909 264.395 209.41 264.672C209.922 264.939 210.504 265.072 211.154 265.072C211.666 265.072 212.141 264.981 212.578 264.8C213.026 264.619 213.41 264.341 213.73 263.968L214.37 264.704C213.997 265.152 213.528 265.493 212.962 265.728C212.408 265.963 211.794 266.08 211.122 266.08ZM227.706 257.52C228.389 257.52 228.981 257.653 229.482 257.92C229.994 258.176 230.389 258.571 230.666 259.104C230.954 259.637 231.098 260.309 231.098 261.12V266H229.962V261.232C229.962 260.347 229.749 259.68 229.322 259.232C228.906 258.773 228.314 258.544 227.546 258.544C226.97 258.544 226.469 258.667 226.042 258.912C225.626 259.147 225.301 259.493 225.066 259.952C224.842 260.4 224.73 260.944 224.73 261.584V266H223.594V261.232C223.594 260.347 223.381 259.68 222.954 259.232C222.528 258.773 221.93 258.544 221.162 258.544C220.597 258.544 220.101 258.667 219.674 258.912C219.248 259.147 218.917 259.493 218.682 259.952C218.458 260.4 218.346 260.944 218.346 261.584V266H217.21V257.6H218.298V259.872L218.122 259.472C218.378 258.864 218.789 258.389 219.354 258.048C219.93 257.696 220.608 257.52 221.386 257.52C222.208 257.52 222.906 257.728 223.482 258.144C224.058 258.549 224.432 259.163 224.602 259.984L224.154 259.808C224.4 259.125 224.832 258.576 225.45 258.16C226.08 257.733 226.832 257.52 227.706 257.52ZM242.655 257.52C243.337 257.52 243.935 257.653 244.447 257.92C244.969 258.176 245.375 258.571 245.663 259.104C245.961 259.637 246.111 260.309 246.111 261.12V266H244.975V261.232C244.975 260.347 244.751 259.68 244.303 259.232C243.865 258.773 243.247 258.544 242.447 258.544C241.849 258.544 241.327 258.667 240.879 258.912C240.441 259.147 240.1 259.493 239.855 259.952C239.62 260.4 239.503 260.944 239.503 261.584V266H238.367V254.128H239.503V259.904L239.279 259.472C239.545 258.864 239.972 258.389 240.559 258.048C241.145 257.696 241.844 257.52 242.655 257.52ZM252.747 266.08C251.873 266.08 251.105 265.899 250.443 265.536C249.782 265.163 249.265 264.656 248.891 264.016C248.518 263.365 248.331 262.624 248.331 261.792C248.331 260.96 248.507 260.224 248.859 259.584C249.222 258.944 249.713 258.443 250.331 258.08C250.961 257.707 251.665 257.52 252.443 257.52C253.233 257.52 253.931 257.701 254.539 258.064C255.158 258.416 255.643 258.917 255.995 259.568C256.347 260.208 256.523 260.949 256.523 261.792C256.523 261.845 256.518 261.904 256.507 261.968C256.507 262.021 256.507 262.08 256.507 262.144H249.195V261.296H255.899L255.451 261.632C255.451 261.024 255.318 260.485 255.051 260.016C254.795 259.536 254.443 259.163 253.995 258.896C253.547 258.629 253.03 258.496 252.443 258.496C251.867 258.496 251.35 258.629 250.891 258.896C250.433 259.163 250.075 259.536 249.819 260.016C249.563 260.496 249.435 261.045 249.435 261.664V261.84C249.435 262.48 249.574 263.045 249.851 263.536C250.139 264.016 250.534 264.395 251.035 264.672C251.547 264.939 252.129 265.072 252.779 265.072C253.291 265.072 253.766 264.981 254.203 264.8C254.651 264.619 255.035 264.341 255.355 263.968L255.995 264.704C255.622 265.152 255.153 265.493 254.587 265.728C254.033 265.963 253.419 266.08 252.747 266.08ZM258.835 266V257.6H259.923V259.888L259.811 259.488C260.046 258.848 260.441 258.363 260.995 258.032C261.55 257.691 262.238 257.52 263.059 257.52V258.624C263.017 258.624 262.974 258.624 262.931 258.624C262.889 258.613 262.846 258.608 262.803 258.608C261.918 258.608 261.225 258.88 260.723 259.424C260.222 259.957 259.971 260.72 259.971 261.712V266H258.835ZM268.622 266.08C267.748 266.08 266.98 265.899 266.318 265.536C265.657 265.163 265.14 264.656 264.766 264.016C264.393 263.365 264.206 262.624 264.206 261.792C264.206 260.96 264.382 260.224 264.734 259.584C265.097 258.944 265.588 258.443 266.206 258.08C266.836 257.707 267.54 257.52 268.318 257.52C269.108 257.52 269.806 257.701 270.414 258.064C271.033 258.416 271.518 258.917 271.87 259.568C272.222 260.208 272.398 260.949 272.398 261.792C272.398 261.845 272.393 261.904 272.382 261.968C272.382 262.021 272.382 262.08 272.382 262.144H265.07V261.296H271.774L271.326 261.632C271.326 261.024 271.193 260.485 270.926 260.016C270.67 259.536 270.318 259.163 269.87 258.896C269.422 258.629 268.905 258.496 268.318 258.496C267.742 258.496 267.225 258.629 266.766 258.896C266.308 259.163 265.95 259.536 265.694 260.016C265.438 260.496 265.31 261.045 265.31 261.664V261.84C265.31 262.48 265.449 263.045 265.726 263.536C266.014 264.016 266.409 264.395 266.91 264.672C267.422 264.939 268.004 265.072 268.654 265.072C269.166 265.072 269.641 264.981 270.078 264.8C270.526 264.619 270.91 264.341 271.23 263.968L271.87 264.704C271.497 265.152 271.028 265.493 270.462 265.728C269.908 265.963 269.294 266.08 268.622 266.08ZM274.822 266.08C274.588 266.08 274.385 265.995 274.214 265.824C274.054 265.653 273.974 265.445 273.974 265.2C273.974 264.944 274.054 264.736 274.214 264.576C274.385 264.416 274.588 264.336 274.822 264.336C275.057 264.336 275.254 264.416 275.414 264.576C275.585 264.736 275.67 264.944 275.67 265.2C275.67 265.445 275.585 265.653 275.414 265.824C275.254 265.995 275.057 266.08 274.822 266.08Z" fill="black"/>
<defs>
<clipPath id="clip0_2695_10832">
<rect width="286.034" height="200" fill="white" transform="translate(3.5)"/>
</clipPath>
</defs>
</svg>
