<svg width="311" height="316" viewBox="0 0 311 316" fill="none" xmlns="http://www.w3.org/2000/svg">
<path d="M257.885 304.115H310.98" stroke="#263238" stroke-width="0.9" stroke-miterlimit="10"/>
<path d="M63.666 304.115H251.597" stroke="#263238" stroke-width="0.9" stroke-miterlimit="10"/>
<path d="M3.58398 304.115H55.981" stroke="#263238" stroke-width="0.9" stroke-miterlimit="10"/>
<g opacity="0.3">
<path d="M303.533 67.6789L308.151 68.7268L309.233 63.9552L304.93 62.9701C304.93 62.7885 304.93 62.6069 304.93 62.4182C304.93 61.0064 304.645 59.6092 304.091 58.3103L307.55 55.5577L304.497 51.7292L301.199 54.377C299.962 53.3416 298.501 52.6096 296.931 52.2392V47.782H292.04V52.2392C290.543 52.596 289.143 53.2782 287.939 54.2373L284.216 51.2681L281.163 55.0966L284.942 58.1077C284.354 59.4086 284.038 60.816 284.013 62.2436L279.011 63.3823L280.101 68.154L285.082 67.0222C285.682 68.2449 286.515 69.3389 287.534 70.2429L285.236 75.0075L289.651 77.1034L291.859 72.5204C292.716 72.7475 293.598 72.8649 294.485 72.8697C294.988 72.8657 295.49 72.826 295.987 72.7509L298.209 77.3619L302.617 75.2311L300.521 70.9275C301.745 70.0716 302.772 68.9639 303.533 67.6789ZM287.045 62.3903C287.044 60.9181 287.479 59.4786 288.296 58.254C289.113 57.0294 290.275 56.0746 291.635 55.5106C292.995 54.9466 294.491 54.7987 295.935 55.0855C297.379 55.3724 298.706 56.0812 299.746 57.1222C300.787 58.1631 301.496 59.4895 301.783 60.9335C302.07 62.3774 301.922 63.874 301.358 65.2338C300.794 66.5937 299.839 67.7556 298.615 68.5727C297.39 69.3897 295.951 69.8251 294.478 69.8237C292.507 69.8237 290.616 69.0405 289.222 67.6465C287.828 66.2525 287.045 64.3617 287.045 62.3903Z" stroke="black" stroke-width="0.9" stroke-miterlimit="10"/>
<path d="M303.533 99.3198L308.151 100.375L309.233 95.6031L304.93 94.6181C304.93 94.4294 304.93 94.2478 304.93 94.0592C304.931 92.6495 304.646 91.2544 304.091 89.9582L307.55 87.1637L304.525 83.3492L301.199 86.004C299.96 84.9699 298.5 84.2359 296.931 83.8592V79.4089H292.04V83.8592C290.542 84.2163 289.141 84.9011 287.939 85.8643L284.216 82.8881L281.163 86.7166L284.942 89.7346C284.355 91.0334 284.039 92.4384 284.013 93.8635L279.011 95.0093L280.101 99.7809L285.082 98.6421C285.682 99.8649 286.515 100.959 287.534 101.863L285.236 106.634L289.651 108.73L291.859 104.147C292.716 104.372 293.599 104.487 294.485 104.49C294.988 104.486 295.49 104.446 295.987 104.371L298.209 108.982L302.617 106.886L300.521 102.582C301.747 101.722 302.773 100.61 303.533 99.3198ZM287.045 94.0592C287.048 92.5879 287.487 91.1505 288.306 89.9286C289.126 88.7067 290.289 87.7552 291.649 87.1944C293.01 86.6336 294.505 86.4887 295.948 86.7779C297.391 87.0672 298.715 87.7776 299.754 88.8194C300.793 89.8612 301.499 91.1876 301.785 92.631C302.07 94.0744 301.921 95.5699 301.356 96.9285C300.791 98.2871 299.837 99.4478 298.612 100.264C297.388 101.08 295.95 101.515 294.478 101.514C293.5 101.514 292.532 101.321 291.629 100.946C290.726 100.571 289.905 100.021 289.215 99.3289C288.524 98.6364 287.977 97.8145 287.605 96.9102C287.232 96.0059 287.042 95.0371 287.045 94.0592Z" stroke="black" stroke-width="0.9" stroke-miterlimit="10"/>
<path d="M184.94 267.975L188.566 268.8L189.418 265.055L186.037 264.287C186.037 264.14 186.037 263.993 186.037 263.847C186.038 262.74 185.817 261.645 185.387 260.626L188.098 258.467L185.702 255.463L183.089 257.559C182.119 256.746 180.973 256.169 179.742 255.875V252.382H175.9V255.875C174.726 256.156 173.628 256.692 172.686 257.447L169.759 255.114L167.363 258.118L170.325 260.479C169.871 261.502 169.633 262.608 169.626 263.728L165.665 264.608L166.524 268.353L170.43 267.458C170.902 268.418 171.557 269.277 172.358 269.987L170.555 273.725L174.014 275.395L175.746 271.797C176.802 272.083 177.906 272.145 178.988 271.979L180.727 275.597L184.221 273.928L182.593 270.581C183.556 269.894 184.357 269.005 184.94 267.975ZM172.002 263.847C172.002 262.691 172.344 261.562 172.986 260.602C173.628 259.641 174.54 258.893 175.607 258.451C176.674 258.009 177.849 257.893 178.982 258.118C180.114 258.344 181.155 258.9 181.972 259.717C182.789 260.533 183.345 261.574 183.57 262.707C183.796 263.84 183.68 265.014 183.238 266.082C182.796 267.149 182.047 268.061 181.087 268.703C180.126 269.345 178.997 269.687 177.842 269.687C177.075 269.688 176.315 269.538 175.606 269.244C174.897 268.951 174.253 268.521 173.71 267.978C173.168 267.436 172.737 266.792 172.444 266.083C172.151 265.374 172.001 264.614 172.002 263.847Z" stroke="black" stroke-width="0.9" stroke-miterlimit="10"/>
<path d="M131.669 20.4727L136.322 21.5486L137.405 16.777L133.102 15.7919C133.102 15.6033 133.102 15.4216 133.102 15.233C133.103 13.8234 132.817 12.4282 132.263 11.1321L135.721 8.33757L132.668 4.50909L129.336 7.1988C128.097 6.16477 126.636 5.43077 125.067 5.05402V0.60376H120.177V5.05402C118.674 5.40922 117.268 6.09409 116.062 7.05908L112.338 4.08292L109.292 7.89743L113.072 10.9155C112.485 12.2143 112.168 13.6192 112.143 15.0444L107.141 16.1901L108.23 20.9618L113.212 19.823C113.812 21.0457 114.645 22.1397 115.664 23.0437L113.365 27.8083L117.781 29.9042L119.988 25.3631C120.846 25.5879 121.729 25.7029 122.615 25.7054C123.118 25.7014 123.62 25.6618 124.117 25.5867L126.339 30.1976L130.747 28.1017L128.651 23.7982C129.886 22.9208 130.916 21.7863 131.669 20.4727ZM115.182 15.2121C115.182 13.7402 115.618 12.3014 116.436 11.0777C117.254 9.85396 118.417 8.90032 119.777 8.33738C121.136 7.77444 122.633 7.6275 124.076 7.91516C125.52 8.20281 126.846 8.91213 127.886 9.95339C128.926 10.9946 129.634 12.321 129.92 13.7648C130.207 15.2086 130.058 16.7048 129.494 18.0642C128.93 19.4236 127.975 20.5852 126.751 21.4019C125.526 22.2186 124.087 22.6538 122.615 22.6524C120.646 22.6524 118.758 21.8712 117.364 20.4802C115.97 19.0892 115.186 17.2021 115.182 15.233V15.2121Z" stroke="black" stroke-width="0.9" stroke-miterlimit="10"/>
<path d="M48.6795 102.862L52.5848 103.749L53.507 99.711L49.8602 98.8727C49.8602 98.719 49.8602 98.5653 49.8602 98.4046C49.8668 97.2049 49.6291 96.0164 49.1616 94.9115L52.0888 92.5711L49.5039 89.3294L46.7094 91.579C45.6585 90.7037 44.4203 90.0822 43.0905 89.7626V85.99H38.9337V89.7626C37.6573 90.0609 36.4637 90.6409 35.4405 91.4602L32.3107 88.9382L29.7258 92.1798L32.9255 94.7578C32.4293 95.8566 32.163 97.0454 32.143 98.2509L27.9023 99.215L28.8245 103.26L33.0163 102.296C33.5312 103.334 34.2431 104.262 35.1122 105.028L33.17 109.059L36.9076 110.861L38.773 106.977C39.5001 107.17 40.2492 107.269 41.0016 107.27C41.4271 107.266 41.8519 107.233 42.2731 107.172L44.1524 111.078L47.8901 109.275L46.1365 105.628C47.1693 104.895 48.0358 103.953 48.6795 102.862ZM34.707 98.4046C34.707 97.161 35.0757 95.9454 35.7666 94.9114C36.4575 93.8774 37.4395 93.0715 38.5884 92.5956C39.7374 92.1197 41.0016 91.9952 42.2213 92.2378C43.441 92.4804 44.5613 93.0792 45.4407 93.9586C46.32 94.8379 46.9188 95.9583 47.1615 97.1779C47.4041 98.3976 47.2795 99.6619 46.8036 100.811C46.3278 101.96 45.5218 102.942 44.4879 103.633C43.4539 104.323 42.2382 104.692 40.9946 104.692C39.3282 104.69 37.7308 104.027 36.5531 102.848C35.3755 101.669 34.714 100.071 34.714 98.4046H34.707Z" stroke="black" stroke-width="0.9" stroke-miterlimit="10"/>
<path d="M29.7331 85.7875L35.1405 87.024L36.412 81.435L31.3679 80.2823C31.3679 80.0657 31.3679 79.8561 31.3679 79.6325C31.3697 77.983 31.037 76.3502 30.3898 74.833L34.4419 71.5983L30.8649 67.1201L26.9665 70.229C25.5169 69.0179 23.8076 68.1572 21.9714 67.714V62.5022H16.2706V67.714C14.5189 68.1392 12.8825 68.9455 11.478 70.0753L7.11156 66.5822L3.54158 71.0674L7.96389 74.5605C7.27452 76.0829 6.90592 77.731 6.88102 79.402L1.01953 80.7364L2.29802 86.3254L8.13156 84.998C8.8319 86.4278 9.80493 87.707 10.9959 88.7636L8.30621 94.3526L13.4761 96.8397L16.061 91.4743C17.064 91.7408 18.0971 91.877 19.1349 91.8795C19.7244 91.8755 20.3128 91.8288 20.8955 91.7397L23.4944 97.1401L28.6572 94.653L26.233 89.6369C27.6628 88.6202 28.8566 87.3072 29.7331 85.7875ZM10.43 79.6325C10.43 77.9109 10.9406 76.2279 11.8971 74.7964C12.8536 73.3648 14.2131 72.2491 15.8037 71.5903C17.3943 70.9314 19.1446 70.759 20.8332 71.0949C22.5218 71.4308 24.0728 72.2598 25.2902 73.4772C26.5076 74.6946 27.3367 76.2457 27.6726 77.9343C28.0084 79.6229 27.8361 81.3732 27.1772 82.9638C26.5184 84.5544 25.4026 85.9139 23.9711 86.8704C22.5396 87.8269 20.8566 88.3374 19.1349 88.3374C16.8263 88.3374 14.6121 87.4203 12.9796 85.7878C11.3472 84.1553 10.43 81.9412 10.43 79.6325Z" stroke="black" stroke-width="0.9" stroke-miterlimit="10"/>
<path d="M107.378 218.429L108.873 223.026H113.708L109.796 225.869L111.291 230.466L107.378 227.623L103.466 230.466L104.961 225.869L101.049 223.026H105.883L107.378 218.429Z" stroke="black" stroke-width="0.9" stroke-miterlimit="10"/>
<path d="M123.007 218.429L124.502 223.026H129.337L125.431 225.869L126.919 230.466L123.007 227.623L119.102 230.466L120.597 225.869L116.685 223.026H121.519L123.007 218.429Z" stroke="black" stroke-width="0.9" stroke-miterlimit="10"/>
<path d="M138.642 218.429L140.137 223.026H144.972L141.059 225.869L142.554 230.466L138.642 227.623L134.73 230.466L136.225 225.869L132.312 223.026H137.147L138.642 218.429Z" stroke="black" stroke-width="0.9" stroke-miterlimit="10"/>
<path d="M154.27 218.429L155.765 223.026H160.6L156.687 225.869L158.182 230.466L154.27 227.623L150.358 230.466L151.853 225.869L147.94 223.026H152.775L154.27 218.429Z" stroke="black" stroke-width="0.9" stroke-miterlimit="10"/>
<path d="M169.899 218.429L171.394 223.026H176.228L172.316 225.869L173.811 230.466L169.899 227.623L165.987 230.466L167.482 225.869L163.569 223.026H168.404L169.899 218.429Z" stroke="black" stroke-width="0.9" stroke-miterlimit="10"/>
<path d="M175.097 213.992H101.042C98.1486 213.992 95.8027 216.338 95.8027 219.232V231.109C95.8027 234.003 98.1486 236.349 101.042 236.349H175.097C177.991 236.349 180.337 234.003 180.337 231.109V219.232C180.337 216.338 177.991 213.992 175.097 213.992Z" stroke="black" stroke-width="0.9" stroke-miterlimit="10"/>
<path d="M8.61318 143.997L9.55633 146.896H12.6023L10.1362 148.685L11.0793 151.584L8.61318 149.789L6.14703 151.584L7.09018 148.685L4.62402 146.896H7.67702L8.61318 143.997Z" stroke="black" stroke-width="0.9" stroke-miterlimit="10"/>
<path d="M18.4647 143.997L19.4079 146.896H22.4539L19.9878 148.685L20.9309 151.584L18.4647 149.789L15.9986 151.584L16.9417 148.685L14.4756 146.896H17.5216L18.4647 143.997Z" stroke="black" stroke-width="0.9" stroke-miterlimit="10"/>
<path d="M28.3083 143.997L29.2515 146.896H32.2975L29.8383 148.685L30.7745 151.584L28.3083 149.789L25.8492 151.584L26.7923 148.685L24.3262 146.896H27.3722L28.3083 143.997Z" stroke="black" stroke-width="0.9" stroke-miterlimit="10"/>
<path d="M38.1581 143.997L39.1013 146.896H42.1473L39.6811 148.685L40.6243 151.584L38.1581 149.789L35.692 151.584L36.6351 148.685L34.1689 146.896H37.215L38.1581 143.997Z" stroke="black" stroke-width="0.9" stroke-miterlimit="10"/>
<path d="M48.0097 143.997L48.9528 146.896H51.9988L49.5327 148.685L50.4688 151.584L48.0097 149.789L45.5435 151.584L46.4867 148.685L44.0205 146.896H47.0665L48.0097 143.997Z" stroke="black" stroke-width="0.9" stroke-miterlimit="10"/>
<path d="M49.344 141.203H6.56002C3.66621 141.203 1.32031 143.549 1.32031 146.442V150.047C1.32031 152.941 3.66621 155.287 6.56002 155.287H49.344C52.2378 155.287 54.5837 152.941 54.5837 150.047V146.442C54.5837 143.549 52.2378 141.203 49.344 141.203Z" stroke="black" stroke-width="0.9" stroke-miterlimit="10"/>
</g>
<path d="M54.2544 226.735C54.2544 226.735 54.953 224.297 54.953 224.136C55.2115 222.285 54.6177 218.547 52.7384 217.653C52.4217 217.51 52.0786 217.436 51.7313 217.435C51.384 217.434 51.0403 217.505 50.7226 217.646C50.405 217.786 50.1204 217.992 49.8875 218.25C49.6547 218.507 49.4787 218.811 49.371 219.141C48.868 220.539 49.5037 222.229 50.2652 223.403C51.1455 224.779 54.2544 226.735 54.2544 226.735Z" fill="#263238"/>
<path d="M17.1366 225.925C18.6317 226.582 22.3064 226.498 22.3064 226.498C22.3064 226.498 21.517 224.095 21.4471 223.955C20.6437 222.271 18.1007 219.484 16.0258 219.763C15.6848 219.822 15.3599 219.951 15.0721 220.143C14.7844 220.335 14.5401 220.586 14.355 220.878C14.17 221.17 14.0484 221.498 13.998 221.84C13.9477 222.183 13.9697 222.532 14.0626 222.865C14.384 224.304 15.8581 225.366 17.1366 225.925Z" fill="#263238"/>
<path d="M18.4006 236.558C19.9585 236.789 23.2351 235.859 23.4936 235.762C24.0332 237.629 24.6961 239.459 25.4777 241.239C25.9318 242.287 26.4138 243.335 26.9168 244.355C26.6164 243.915 26.3509 243.53 26.302 243.475C25.0794 242.077 21.8937 240.058 19.9655 240.876C19.6533 241.021 19.3749 241.23 19.1479 241.489C18.9209 241.748 18.7504 242.052 18.6472 242.38C18.5441 242.709 18.5105 243.056 18.5486 243.398C18.5867 243.74 18.6957 244.071 18.8686 244.369C19.5673 245.661 21.2859 246.297 22.6622 246.5C24.0385 246.702 26.854 245.955 27.6155 245.745C27.8111 246.136 27.9997 246.535 28.1953 246.926C29.1455 248.812 30.1026 250.691 30.9898 252.571C31.2972 253.227 31.5837 253.891 31.8631 254.548C31.5976 254.163 31.3741 253.849 31.3322 253.793C30.1096 252.396 26.9168 250.37 24.9956 251.187C24.6819 251.331 24.402 251.539 24.1738 251.798C23.9456 252.057 23.7742 252.361 23.6709 252.69C23.5675 253.019 23.5344 253.367 23.5736 253.71C23.6129 254.052 23.7236 254.383 23.8988 254.68C24.5974 255.973 26.309 256.616 27.6923 256.811C29.0756 257.007 31.6256 256.336 32.5058 256.113C32.7783 256.811 33.0508 257.51 33.2813 258.16C33.428 258.628 33.6027 259.061 33.7284 259.557C33.8542 260.053 33.9869 260.493 34.1127 260.954C34.3293 261.841 34.5528 262.764 34.7415 263.644C34.8742 264.252 34.993 264.832 35.1117 265.418C34.8113 264.762 34.1965 263.476 34.1337 263.378C33.1346 261.8 30.2912 259.326 28.2652 259.843C27.9285 259.938 27.6155 260.102 27.3468 260.326C27.0781 260.549 26.8598 260.827 26.7061 261.141C26.5524 261.455 26.4668 261.798 26.4549 262.148C26.4431 262.497 26.5053 262.845 26.6374 263.169C27.1474 264.566 28.7333 265.439 30.0676 265.852C31.5348 266.299 34.7834 265.852 35.1886 265.852C35.3842 266.823 35.5658 267.766 35.7195 268.646C36.2714 271.755 36.6068 274.361 36.8164 276.184C36.8513 276.506 36.8862 276.799 36.9142 277.072H30.6265L32.0238 304.115H44.5991L45.9963 277.072H40.079L40.2117 276.799C41.0151 275.129 42.1259 272.719 43.3346 269.771C43.7188 268.842 44.11 267.843 44.5013 266.809C44.8925 266.886 48.1062 267.507 49.6082 267.207C51.0055 266.899 52.6193 266.124 53.2271 264.783C53.3801 264.469 53.4651 264.127 53.4766 263.778C53.4882 263.429 53.4259 263.082 53.2941 262.759C53.1622 262.435 52.9636 262.144 52.7113 261.903C52.459 261.662 52.1586 261.476 51.8299 261.359C49.8528 260.696 46.8277 262.945 45.7169 264.447C45.654 264.538 45.0183 265.579 44.6829 266.243C44.8366 265.817 44.9973 265.411 45.151 264.971C45.4654 264.112 45.7588 263.246 46.0732 262.31C46.2129 261.848 46.3526 261.387 46.4854 260.912C46.6181 260.437 46.7369 259.948 46.8626 259.459C47.1281 258.327 47.3517 257.168 47.5613 255.966C48.3158 256.245 51.0544 257.182 52.4517 257.084C53.8489 256.986 55.5885 256.476 56.3919 255.239C56.591 254.955 56.7281 254.631 56.7942 254.29C56.8603 253.949 56.8539 253.597 56.7755 253.259C56.6972 252.92 56.5485 252.602 56.3392 252.325C56.1299 252.047 55.8646 251.817 55.5606 251.648C53.7022 250.691 50.3697 252.459 49.0493 253.779C48.9655 253.856 48.1202 254.911 47.6521 255.498C47.7639 254.799 47.8826 254.101 47.9665 253.367C48.225 251.271 48.4206 249.175 48.6232 247.079C48.6861 246.437 48.7559 245.794 48.8258 245.158C49.0913 245.256 52.277 246.444 53.8419 246.332C55.2392 246.234 56.9788 245.724 57.7822 244.488C57.9824 244.203 58.1204 243.88 58.1871 243.538C58.2537 243.197 58.2477 242.845 58.1692 242.506C58.0907 242.167 57.9417 241.849 57.7317 241.571C57.5218 241.294 57.2557 241.064 56.9508 240.897C55.0925 239.939 51.76 241.707 50.4396 242.992C50.3418 243.097 49.1262 244.613 48.8398 245.011C48.9865 243.614 49.1471 242.217 49.3637 240.82C49.6441 238.955 50.0478 237.112 50.5723 235.301C50.6981 235.342 54.0096 236.593 55.6164 236.481C57.0137 236.383 58.7533 235.873 59.5567 234.637C59.7557 234.353 59.8927 234.03 59.9587 233.689C60.0247 233.348 60.0183 232.998 59.9399 232.66C59.8615 232.322 59.7129 232.004 59.5036 231.727C59.2943 231.45 59.0292 231.221 58.7253 231.053C56.867 230.089 53.5345 231.856 52.2141 233.149C52.1233 233.233 51.2011 234.385 50.775 234.944L50.6702 234.888C51.245 233.081 51.9767 231.328 52.8569 229.649C53.3389 228.719 53.8419 227.853 54.3519 227.029C54.9458 227.322 57.6774 228.65 59.1305 228.706C60.5837 228.761 62.3163 228.447 63.2524 227.308C63.4815 227.048 63.6531 226.742 63.7561 226.41C63.8592 226.079 63.8913 225.729 63.8504 225.385C63.8096 225.04 63.6967 224.708 63.519 224.41C63.3414 224.112 63.103 223.854 62.8193 223.654C61.0727 222.495 57.5726 223.885 56.1125 225.052C56.0286 225.115 55.2951 225.848 54.7641 226.386C55.0016 226.016 55.2392 225.632 55.4627 225.282C56.336 223.962 57.2163 222.809 58.0057 221.789C58.4599 221.216 58.879 220.706 59.2842 220.238C59.9829 220.238 62.973 220.133 64.2654 219.54C65.5579 218.946 66.9761 217.842 67.2765 216.396C67.3601 216.057 67.3709 215.704 67.3082 215.36C67.2455 215.016 67.1107 214.69 66.9127 214.402C66.7147 214.114 66.4579 213.872 66.1594 213.69C65.8609 213.509 65.5273 213.393 65.1806 213.35C63.0848 213.126 60.6326 215.977 59.8711 217.681C59.8082 217.828 59.0467 220.252 59.0816 220.252H59.1305C58.7323 220.699 58.3201 221.181 57.873 221.719C57.0626 222.718 56.1544 223.857 55.2462 225.157C54.2519 226.549 53.3421 228 52.5215 229.502C51.5899 231.176 50.809 232.929 50.1881 234.742V234.812C50.1881 234.197 50.1881 232.485 50.1881 232.352C49.9436 230.501 48.3926 227.064 46.3387 226.687C45.9954 226.633 45.6448 226.653 45.3095 226.744C44.9742 226.834 44.6618 226.995 44.3924 227.214C44.123 227.433 43.9027 227.707 43.7458 228.017C43.5888 228.327 43.4987 228.666 43.4813 229.013C43.3625 230.487 44.4314 231.954 45.4724 232.883C46.6461 233.931 49.9017 234.944 50.1602 235.028C49.5699 236.889 49.1032 238.786 48.7629 240.708C48.5603 241.826 48.3926 242.958 48.2459 244.096C48.2459 243.565 48.2459 243.09 48.2459 243.027C48.0014 241.176 46.4504 237.739 44.3965 237.362C44.0531 237.307 43.702 237.326 43.3663 237.416C43.0306 237.507 42.7177 237.667 42.448 237.886C42.1784 238.106 41.9581 238.38 41.8015 238.69C41.6448 239.001 41.5554 239.341 41.5391 239.688C41.4203 241.155 42.4892 242.629 43.5302 243.558C44.5711 244.488 47.3447 245.424 48.0783 245.654C48.0224 246.094 47.9595 246.528 47.9106 246.968C47.6591 249.064 47.4215 251.159 47.1211 253.206C47.0163 253.905 46.8836 254.639 46.7578 255.344C46.7578 254.876 46.7578 254.478 46.7578 254.415C46.5203 252.564 44.9694 249.126 42.9084 248.749C42.5655 248.696 42.2152 248.715 41.8803 248.806C41.5454 248.897 41.2334 249.058 40.9646 249.277C40.6957 249.496 40.4761 249.77 40.3199 250.08C40.1637 250.39 40.0745 250.729 40.058 251.076C39.9392 252.55 41.0012 254.017 42.0421 254.946C43.0831 255.875 45.5911 256.72 46.4574 257C46.3037 257.699 46.157 258.446 45.9754 259.138C45.8426 259.606 45.7448 260.067 45.5842 260.535C45.4235 261.003 45.2837 261.45 45.137 261.932C44.8226 262.799 44.5083 263.693 44.1799 264.524C43.9563 265.104 43.7328 265.656 43.4813 266.215C43.5931 265.516 43.7887 264.084 43.7887 263.965C43.7646 262.323 43.3222 260.715 42.5032 259.291C42.5171 259.11 42.5171 258.928 42.5032 258.746C42.4596 258.402 42.3441 258.071 42.164 257.774C41.9839 257.477 41.7434 257.222 41.4581 257.024C41.1727 256.826 40.849 256.691 40.5079 256.627C40.1667 256.562 39.8159 256.57 39.4781 256.651C37.4521 257.189 36.1736 260.731 36.0758 262.596C36.0758 262.708 36.1457 263.909 36.2016 264.692C36.0968 264.252 36.006 263.826 35.8942 263.371C35.6846 262.477 35.4471 261.597 35.1956 260.64C35.0558 260.174 34.9161 259.708 34.7764 259.243C34.6436 258.781 34.448 258.306 34.2873 257.845C33.8891 256.748 33.428 255.666 32.946 254.576C33.7284 254.394 36.495 253.688 37.6058 252.829C38.7166 251.97 39.8834 250.594 39.8764 249.119C39.8826 248.766 39.8134 248.416 39.6734 248.092C39.5335 247.768 39.3259 247.478 39.0647 247.24C38.8035 247.003 38.4946 246.824 38.1587 246.715C37.8227 246.607 37.4675 246.572 37.1168 246.611C35.0209 246.842 33.2324 250.153 32.8552 251.977C32.8552 252.096 32.7085 253.437 32.6595 254.177C32.3591 253.521 32.0657 252.871 31.7443 252.228C30.8152 250.356 29.8161 248.491 28.8311 246.639C28.5307 246.066 28.2302 245.494 27.9368 244.921C28.2163 244.858 31.5208 244.089 32.7643 243.139C33.8752 242.287 35.0488 240.897 35.0349 239.422C35.0448 239.075 34.9815 238.73 34.8491 238.409C34.7167 238.088 34.5181 237.798 34.2664 237.559C34.0146 237.32 33.7153 237.136 33.3879 237.02C33.0605 236.904 32.7123 236.859 32.3661 236.886C30.2702 237.117 28.4818 240.428 28.1045 242.252C28.1045 242.392 27.9019 244.348 27.8809 244.816C27.2242 243.558 26.5815 242.294 26.0016 241.022C25.2076 239.313 24.5262 237.553 23.9616 235.755C24.0944 235.755 27.5456 234.937 28.852 233.959C29.9559 233.114 31.1296 231.724 31.1226 230.249C31.1315 229.902 31.0673 229.556 30.9341 229.235C30.8009 228.914 30.6016 228.625 30.3493 228.386C30.097 228.147 29.7973 227.963 29.4695 227.847C29.1418 227.732 28.7933 227.686 28.4468 227.713C26.3509 227.944 24.5625 231.256 24.1922 233.079C24.1922 233.198 24.0315 234.672 23.9826 235.377H23.8429C23.3222 233.55 22.9668 231.679 22.781 229.788C22.6622 228.754 22.6063 227.755 22.5784 226.777C23.2351 226.7 26.2461 226.295 27.4687 225.548C28.6913 224.8 29.9768 223.571 30.1305 222.103C30.1745 221.761 30.1465 221.413 30.0483 221.082C29.9501 220.751 29.7839 220.444 29.5603 220.181C29.3367 219.918 29.0607 219.705 28.7498 219.555C28.439 219.404 28.1002 219.321 27.7552 219.309C25.6593 219.309 23.5075 222.404 22.9277 224.199C22.9277 224.297 22.6901 225.31 22.5434 226.058C22.5434 225.618 22.5434 225.163 22.5434 224.744C22.5434 223.158 22.6412 221.712 22.739 220.434C22.8019 219.7 22.8718 219.037 22.9486 218.429C23.5494 218.017 25.9737 216.333 26.7142 215.089C27.4548 213.846 28.0346 212.176 27.4897 210.807C27.3741 210.479 27.1906 210.18 26.9513 209.928C26.7121 209.677 26.4224 209.479 26.1012 209.347C25.78 209.215 25.4346 209.152 25.0876 209.163C24.7406 209.174 24.3997 209.258 24.0874 209.409C22.229 210.367 21.74 214.104 22.0474 215.949C22.0474 216.109 22.746 218.547 22.8089 218.527H22.8438C22.76 219.12 22.6831 219.749 22.6063 220.448C22.4805 221.726 22.3478 223.179 22.3129 224.765C22.2537 226.475 22.2934 228.188 22.4316 229.893C22.5807 231.804 22.8986 233.698 23.3818 235.552V235.615C23.0534 235.098 22.0823 233.687 21.9845 233.582C20.7619 232.185 17.5762 230.159 15.648 230.976C15.3358 231.122 15.0573 231.331 14.8304 231.59C14.6034 231.849 14.4329 232.152 14.3297 232.481C14.2265 232.81 14.1929 233.156 14.2311 233.498C14.2692 233.841 14.3782 234.171 14.5511 234.469C15.3196 235.72 17.0243 236.348 18.4006 236.558ZM39.1358 263.958C40.2047 265.118 42.9433 266.473 43.3276 266.648C42.9573 267.57 42.587 268.457 42.2168 269.289C40.9662 272.181 39.8065 274.542 38.9751 276.177L38.514 277.072H38.3743C38.3324 276.75 38.2835 276.373 38.2346 276.01C37.9761 274.165 37.5779 271.545 36.9561 268.422C36.7675 267.43 36.5369 266.383 36.2924 265.307C37.2663 264.914 38.2158 264.464 39.1358 263.958Z" fill="#263238"/>
<path opacity="0.3" d="M17.1366 225.925C18.6317 226.582 22.3064 226.498 22.3064 226.498C22.3064 226.498 21.517 224.095 21.4471 223.955C20.6437 222.271 18.1007 219.484 16.0258 219.763C15.6848 219.822 15.3599 219.951 15.0721 220.143C14.7844 220.335 14.5401 220.586 14.355 220.878C14.17 221.17 14.0484 221.498 13.998 221.84C13.9477 222.183 13.9697 222.532 14.0626 222.865C14.384 224.304 15.8581 225.366 17.1366 225.925Z" fill="#263238"/>
<path opacity="0.3" d="M54.2544 226.735C54.2544 226.735 54.953 224.297 54.953 224.136C55.2115 222.285 54.6177 218.547 52.7384 217.653C52.4217 217.51 52.0786 217.436 51.7313 217.435C51.384 217.434 51.0403 217.505 50.7226 217.646C50.405 217.786 50.1204 217.992 49.8875 218.25C49.6547 218.507 49.4787 218.811 49.371 219.141C48.868 220.539 49.5037 222.229 50.2652 223.403C51.1455 224.779 54.2544 226.735 54.2544 226.735Z" fill="#263238"/>
<path opacity="0.3" d="M18.4006 236.558C19.9585 236.789 23.2351 235.859 23.4936 235.762C24.0332 237.629 24.6961 239.459 25.4777 241.239C25.9318 242.287 26.4138 243.335 26.9168 244.355C26.6164 243.915 26.3509 243.53 26.302 243.475C25.0794 242.077 21.8937 240.058 19.9655 240.876C19.6533 241.021 19.3749 241.23 19.1479 241.489C18.9209 241.748 18.7504 242.052 18.6472 242.38C18.5441 242.709 18.5105 243.056 18.5486 243.398C18.5867 243.74 18.6957 244.071 18.8686 244.369C19.5673 245.661 21.2859 246.297 22.6622 246.5C24.0385 246.702 26.854 245.955 27.6155 245.745C27.8111 246.136 27.9997 246.535 28.1953 246.926C29.1455 248.812 30.1026 250.691 30.9898 252.571C31.2972 253.227 31.5837 253.891 31.8631 254.548C31.5976 254.163 31.3741 253.849 31.3322 253.793C30.1096 252.396 26.9168 250.37 24.9956 251.187C24.6819 251.331 24.402 251.539 24.1738 251.798C23.9456 252.057 23.7742 252.361 23.6709 252.69C23.5675 253.019 23.5344 253.367 23.5736 253.71C23.6129 254.052 23.7236 254.383 23.8988 254.68C24.5974 255.973 26.309 256.616 27.6923 256.811C29.0756 257.007 31.6256 256.336 32.5058 256.113C32.7783 256.811 33.0508 257.51 33.2813 258.16C33.428 258.628 33.6027 259.061 33.7284 259.557C33.8542 260.053 33.9869 260.493 34.1127 260.954C34.3293 261.841 34.5528 262.764 34.7415 263.644C34.8742 264.252 34.993 264.832 35.1117 265.418C34.8113 264.762 34.1965 263.476 34.1337 263.378C33.1346 261.8 30.2912 259.326 28.2652 259.843C27.9285 259.938 27.6155 260.102 27.3468 260.326C27.0781 260.549 26.8598 260.827 26.7061 261.141C26.5524 261.455 26.4668 261.798 26.4549 262.148C26.4431 262.497 26.5053 262.845 26.6374 263.169C27.1474 264.566 28.7333 265.439 30.0676 265.852C31.5348 266.299 34.7834 265.852 35.1886 265.852C35.3842 266.823 35.5658 267.766 35.7195 268.646C36.2714 271.755 36.6068 274.361 36.8164 276.184C36.8513 276.506 36.8862 276.799 36.9142 277.072H30.6265L32.0238 304.115H44.5991L45.9963 277.072H40.079L40.2117 276.799C41.0151 275.129 42.1259 272.719 43.3346 269.771C43.7188 268.842 44.11 267.843 44.5013 266.809C44.8925 266.886 48.1062 267.507 49.6082 267.207C51.0055 266.899 52.6193 266.124 53.2271 264.783C53.3801 264.469 53.4651 264.127 53.4766 263.778C53.4882 263.429 53.4259 263.082 53.2941 262.759C53.1622 262.435 52.9636 262.144 52.7113 261.903C52.459 261.662 52.1586 261.476 51.8299 261.359C49.8528 260.696 46.8277 262.945 45.7169 264.447C45.654 264.538 45.0183 265.579 44.6829 266.243C44.8366 265.817 44.9973 265.411 45.151 264.971C45.4654 264.112 45.7588 263.246 46.0732 262.31C46.2129 261.848 46.3526 261.387 46.4854 260.912C46.6181 260.437 46.7369 259.948 46.8626 259.459C47.1281 258.327 47.3517 257.168 47.5613 255.966C48.3158 256.245 51.0544 257.182 52.4517 257.084C53.8489 256.986 55.5885 256.476 56.3919 255.239C56.591 254.955 56.7281 254.631 56.7942 254.29C56.8603 253.949 56.8539 253.597 56.7755 253.259C56.6972 252.92 56.5485 252.602 56.3392 252.325C56.1299 252.047 55.8646 251.817 55.5606 251.648C53.7022 250.691 50.3697 252.459 49.0493 253.779C48.9655 253.856 48.1202 254.911 47.6521 255.498C47.7639 254.799 47.8826 254.101 47.9665 253.367C48.225 251.271 48.4206 249.175 48.6232 247.079C48.6861 246.437 48.7559 245.794 48.8258 245.158C49.0913 245.256 52.277 246.444 53.8419 246.332C55.2392 246.234 56.9788 245.724 57.7822 244.488C57.9824 244.203 58.1204 243.88 58.1871 243.538C58.2537 243.197 58.2477 242.845 58.1692 242.506C58.0907 242.167 57.9417 241.849 57.7317 241.571C57.5218 241.294 57.2557 241.064 56.9508 240.897C55.0925 239.939 51.76 241.707 50.4396 242.992C50.3418 243.097 49.1262 244.613 48.8398 245.011C48.9865 243.614 49.1471 242.217 49.3637 240.82C49.6441 238.955 50.0478 237.112 50.5723 235.301C50.6981 235.342 54.0096 236.593 55.6164 236.481C57.0137 236.383 58.7533 235.873 59.5567 234.637C59.7557 234.353 59.8927 234.03 59.9587 233.689C60.0247 233.348 60.0183 232.998 59.9399 232.66C59.8615 232.322 59.7129 232.004 59.5036 231.727C59.2943 231.45 59.0292 231.221 58.7253 231.053C56.867 230.089 53.5345 231.856 52.2141 233.149C52.1233 233.233 51.2011 234.385 50.775 234.944L50.6702 234.888C51.245 233.081 51.9767 231.328 52.8569 229.649C53.3389 228.719 53.8419 227.853 54.3519 227.029C54.9458 227.322 57.6774 228.65 59.1305 228.706C60.5837 228.761 62.3163 228.447 63.2524 227.308C63.4815 227.048 63.6531 226.742 63.7561 226.41C63.8592 226.079 63.8913 225.729 63.8504 225.385C63.8096 225.04 63.6967 224.708 63.519 224.41C63.3414 224.112 63.103 223.854 62.8193 223.654C61.0727 222.495 57.5726 223.885 56.1125 225.052C56.0286 225.115 55.2951 225.848 54.7641 226.386C55.0016 226.016 55.2392 225.632 55.4627 225.282C56.336 223.962 57.2163 222.809 58.0057 221.789C58.4599 221.216 58.879 220.706 59.2842 220.238C59.9829 220.238 62.973 220.133 64.2654 219.54C65.5579 218.946 66.9761 217.842 67.2765 216.396C67.3601 216.057 67.3709 215.704 67.3082 215.36C67.2455 215.016 67.1107 214.69 66.9127 214.402C66.7147 214.114 66.4579 213.872 66.1594 213.69C65.8609 213.509 65.5273 213.393 65.1806 213.35C63.0848 213.126 60.6326 215.977 59.8711 217.681C59.8082 217.828 59.0467 220.252 59.0816 220.252H59.1305C58.7323 220.699 58.3201 221.181 57.873 221.719C57.0626 222.718 56.1544 223.857 55.2462 225.157C54.2519 226.549 53.3421 228 52.5215 229.502C51.5899 231.176 50.809 232.929 50.1881 234.742V234.812C50.1881 234.197 50.1881 232.485 50.1881 232.352C49.9436 230.501 48.3926 227.064 46.3387 226.687C45.9954 226.633 45.6448 226.653 45.3095 226.744C44.9742 226.834 44.6618 226.995 44.3924 227.214C44.123 227.433 43.9027 227.707 43.7458 228.017C43.5888 228.327 43.4987 228.666 43.4813 229.013C43.3625 230.487 44.4314 231.954 45.4724 232.883C46.6461 233.931 49.9017 234.944 50.1602 235.028C49.5699 236.889 49.1032 238.786 48.7629 240.708C48.5603 241.826 48.3926 242.958 48.2459 244.096C48.2459 243.565 48.2459 243.09 48.2459 243.027C48.0014 241.176 46.4504 237.739 44.3965 237.362C44.0531 237.307 43.702 237.326 43.3663 237.416C43.0306 237.507 42.7177 237.667 42.448 237.886C42.1784 238.106 41.9581 238.38 41.8015 238.69C41.6448 239.001 41.5554 239.341 41.5391 239.688C41.4203 241.155 42.4892 242.629 43.5302 243.558C44.5711 244.488 47.3447 245.424 48.0783 245.654C48.0224 246.094 47.9595 246.528 47.9106 246.968C47.6591 249.064 47.4215 251.159 47.1211 253.206C47.0163 253.905 46.8836 254.639 46.7578 255.344C46.7578 254.876 46.7578 254.478 46.7578 254.415C46.5203 252.564 44.9694 249.126 42.9084 248.749C42.5655 248.696 42.2152 248.715 41.8803 248.806C41.5454 248.897 41.2334 249.058 40.9646 249.277C40.6957 249.496 40.4761 249.77 40.3199 250.08C40.1637 250.39 40.0745 250.729 40.058 251.076C39.9392 252.55 41.0012 254.017 42.0421 254.946C43.0831 255.875 45.5911 256.72 46.4574 257C46.3037 257.699 46.157 258.446 45.9754 259.138C45.8426 259.606 45.7448 260.067 45.5842 260.535C45.4235 261.003 45.2837 261.45 45.137 261.932C44.8226 262.799 44.5083 263.693 44.1799 264.524C43.9563 265.104 43.7328 265.656 43.4813 266.215C43.5931 265.516 43.7887 264.084 43.7887 263.965C43.7646 262.323 43.3222 260.715 42.5032 259.291C42.5171 259.11 42.5171 258.928 42.5032 258.746C42.4596 258.402 42.3441 258.071 42.164 257.774C41.9839 257.477 41.7434 257.222 41.4581 257.024C41.1727 256.826 40.849 256.691 40.5079 256.627C40.1667 256.562 39.8159 256.57 39.4781 256.651C37.4521 257.189 36.1736 260.731 36.0758 262.596C36.0758 262.708 36.1457 263.909 36.2016 264.692C36.0968 264.252 36.006 263.826 35.8942 263.371C35.6846 262.477 35.4471 261.597 35.1956 260.64C35.0558 260.174 34.9161 259.708 34.7764 259.243C34.6436 258.781 34.448 258.306 34.2873 257.845C33.8891 256.748 33.428 255.666 32.946 254.576C33.7284 254.394 36.495 253.688 37.6058 252.829C38.7166 251.97 39.8834 250.594 39.8764 249.119C39.8826 248.766 39.8134 248.416 39.6734 248.092C39.5335 247.768 39.3259 247.478 39.0647 247.24C38.8035 247.003 38.4946 246.824 38.1587 246.715C37.8227 246.607 37.4675 246.572 37.1168 246.611C35.0209 246.842 33.2324 250.153 32.8552 251.977C32.8552 252.096 32.7085 253.437 32.6595 254.177C32.3591 253.521 32.0657 252.871 31.7443 252.228C30.8152 250.356 29.8161 248.491 28.8311 246.639C28.5307 246.066 28.2302 245.494 27.9368 244.921C28.2163 244.858 31.5208 244.089 32.7643 243.139C33.8752 242.287 35.0488 240.897 35.0349 239.422C35.0448 239.075 34.9815 238.73 34.8491 238.409C34.7167 238.088 34.5181 237.798 34.2664 237.559C34.0146 237.32 33.7153 237.136 33.3879 237.02C33.0605 236.904 32.7123 236.859 32.3661 236.886C30.2702 237.117 28.4818 240.428 28.1045 242.252C28.1045 242.392 27.9019 244.348 27.8809 244.816C27.2242 243.558 26.5815 242.294 26.0016 241.022C25.2076 239.313 24.5262 237.553 23.9616 235.755C24.0944 235.755 27.5456 234.937 28.852 233.959C29.9559 233.114 31.1296 231.724 31.1226 230.249C31.1315 229.902 31.0673 229.556 30.9341 229.235C30.8009 228.914 30.6016 228.625 30.3493 228.386C30.097 228.147 29.7973 227.963 29.4695 227.847C29.1418 227.732 28.7933 227.686 28.4468 227.713C26.3509 227.944 24.5625 231.256 24.1922 233.079C24.1922 233.198 24.0315 234.672 23.9826 235.377H23.8429C23.3222 233.55 22.9668 231.679 22.781 229.788C22.6622 228.754 22.6063 227.755 22.5784 226.777C23.2351 226.7 26.2461 226.295 27.4687 225.548C28.6913 224.8 29.9768 223.571 30.1305 222.103C30.1745 221.761 30.1465 221.413 30.0483 221.082C29.9501 220.751 29.7839 220.444 29.5603 220.181C29.3367 219.918 29.0607 219.705 28.7498 219.555C28.439 219.404 28.1002 219.321 27.7552 219.309C25.6593 219.309 23.5075 222.404 22.9277 224.199C22.9277 224.297 22.6901 225.31 22.5434 226.058C22.5434 225.618 22.5434 225.163 22.5434 224.744C22.5434 223.158 22.6412 221.712 22.739 220.434C22.8019 219.7 22.8718 219.037 22.9486 218.429C23.5494 218.017 25.9737 216.333 26.7142 215.089C27.4548 213.846 28.0346 212.176 27.4897 210.807C27.3741 210.479 27.1906 210.18 26.9513 209.928C26.7121 209.677 26.4224 209.479 26.1012 209.347C25.78 209.215 25.4346 209.152 25.0876 209.163C24.7406 209.174 24.3997 209.258 24.0874 209.409C22.229 210.367 21.74 214.104 22.0474 215.949C22.0474 216.109 22.746 218.547 22.8089 218.527H22.8438C22.76 219.12 22.6831 219.749 22.6063 220.448C22.4805 221.726 22.3478 223.179 22.3129 224.765C22.2537 226.475 22.2934 228.188 22.4316 229.893C22.5807 231.804 22.8986 233.698 23.3818 235.552V235.615C23.0534 235.098 22.0823 233.687 21.9845 233.582C20.7619 232.185 17.5762 230.159 15.648 230.976C15.3358 231.122 15.0573 231.331 14.8304 231.59C14.6034 231.849 14.4329 232.152 14.3297 232.481C14.2265 232.81 14.1929 233.156 14.2311 233.498C14.2692 233.841 14.3782 234.171 14.5511 234.469C15.3196 235.72 17.0243 236.348 18.4006 236.558ZM39.1358 263.958C40.2047 265.118 42.9433 266.473 43.3276 266.648C42.9573 267.57 42.587 268.457 42.2168 269.289C40.9662 272.181 39.8065 274.542 38.9751 276.177L38.514 277.072H38.3743C38.3324 276.75 38.2835 276.373 38.2346 276.01C37.9761 274.165 37.5779 271.545 36.9561 268.422C36.7675 267.43 36.5369 266.383 36.2924 265.307C37.2663 264.914 38.2158 264.464 39.1358 263.958Z" fill="#263238"/>
<path opacity="0.3" d="M275.349 23.2673H31.5283V203.513H275.349V23.2673Z" fill="black"/>
<path d="M284.012 16.281H37.5713V197.344H284.012V16.281Z" fill="white" stroke="#263238" stroke-width="0.9" stroke-miterlimit="10"/>
<path d="M78.1755 16.281H37.5713V197.344H78.1755V16.281Z" fill="#8094D4" stroke="#263238" stroke-width="0.9" stroke-miterlimit="10"/>
<path d="M284.012 16.281H37.5713V31.1478H284.012V16.281Z" fill="#263238" stroke="#263238" stroke-width="0.9" stroke-linecap="round" stroke-linejoin="round"/>
<path d="M48.9526 51.4777C48.9526 50.668 48.7125 49.8765 48.2626 49.2033C47.8128 48.53 47.1734 48.0053 46.4253 47.6954C45.6772 47.3856 44.8541 47.3045 44.0599 47.4625C43.2658 47.6204 42.5363 48.0103 41.9637 48.5829C41.3912 49.1554 41.0013 49.8849 40.8433 50.6791C40.6853 51.4732 40.7664 52.2964 41.0763 53.0444C41.3861 53.7925 41.9109 54.4319 42.5841 54.8817C43.2574 55.3316 44.0489 55.5717 44.8586 55.5717C45.9444 55.5717 46.9857 55.1404 47.7535 54.3726C48.5212 53.6048 48.9526 52.5635 48.9526 51.4777Z" fill="white" stroke="#263238" stroke-width="0.9" stroke-linecap="round" stroke-linejoin="round"/>
<path d="M52.3613 51.8201H72.4818" stroke="#263238" stroke-width="0.9" stroke-linecap="round" stroke-linejoin="round"/>
<path d="M48.9526 70.236C48.9539 69.426 48.715 68.6337 48.266 67.9596C47.817 67.2854 47.1781 66.7596 46.4301 66.4487C45.6822 66.1377 44.8588 66.0556 44.0642 66.2128C43.2696 66.37 42.5395 66.7594 41.9662 67.3316C41.393 67.9039 41.0024 68.6334 40.8438 69.4277C40.6853 70.222 40.766 71.0456 41.0756 71.794C41.3853 72.5425 41.91 73.1823 42.5834 73.6325C43.2568 74.0826 44.0486 74.3229 44.8586 74.3229C45.9432 74.3229 46.9834 73.8926 47.751 73.1263C48.5186 72.36 48.9507 71.3205 48.9526 70.236Z" fill="white" stroke="#263238" stroke-width="0.9" stroke-linecap="round" stroke-linejoin="round"/>
<path d="M52.3613 70.5713H72.4818" stroke="#263238" stroke-width="0.9" stroke-linecap="round" stroke-linejoin="round"/>
<path d="M48.9526 88.987C48.9526 88.1773 48.7125 87.3858 48.2626 86.7125C47.8128 86.0393 47.1734 85.5146 46.4253 85.2047C45.6772 84.8948 44.8541 84.8138 44.0599 84.9717C43.2658 85.1297 42.5363 85.5196 41.9637 86.0922C41.3912 86.6647 41.0013 87.3942 40.8433 88.1883C40.6853 88.9825 40.7664 89.8056 41.0763 90.5537C41.3861 91.3018 41.9109 91.9412 42.5841 92.391C43.2574 92.8409 44.0489 93.081 44.8586 93.081C45.9444 93.081 46.9857 92.6496 47.7535 91.8819C48.5212 91.1141 48.9526 90.0728 48.9526 88.987Z" fill="white" stroke="#263238" stroke-width="0.9" stroke-linecap="round" stroke-linejoin="round"/>
<path d="M52.3613 89.3296H72.4818" stroke="#263238" stroke-width="0.9" stroke-linecap="round" stroke-linejoin="round"/>
<path d="M48.9526 107.745C48.9526 106.936 48.7125 106.144 48.2626 105.471C47.8128 104.798 47.1734 104.273 46.4253 103.963C45.6772 103.653 44.8541 103.572 44.0599 103.73C43.2658 103.888 42.5363 104.278 41.9637 104.85C41.3912 105.423 41.0013 106.152 40.8433 106.947C40.6853 107.741 40.7664 108.564 41.0763 109.312C41.3861 110.06 41.9109 110.699 42.5841 111.149C43.2574 111.599 44.0489 111.839 44.8586 111.839C45.9438 111.837 46.9841 111.406 47.7514 110.638C48.5188 109.871 48.9507 108.831 48.9526 107.745Z" fill="white" stroke="#263238" stroke-width="0.9" stroke-linecap="round" stroke-linejoin="round"/>
<path d="M52.3613 108.088H72.4818" stroke="#263238" stroke-width="0.9" stroke-linecap="round" stroke-linejoin="round"/>
<path d="M48.9526 126.503C48.9526 125.694 48.7125 124.902 48.2626 124.229C47.8128 123.556 47.1734 123.031 46.4253 122.721C45.6772 122.411 44.8541 122.33 44.0599 122.488C43.2658 122.646 42.5363 123.036 41.9637 123.609C41.3912 124.181 41.0013 124.911 40.8433 125.705C40.6853 126.499 40.7664 127.322 41.0763 128.07C41.3861 128.818 41.9109 129.458 42.5841 129.907C43.2574 130.357 44.0489 130.597 44.8586 130.597C45.9444 130.597 46.9857 130.166 47.7535 129.398C48.5212 128.63 48.9526 127.589 48.9526 126.503Z" fill="white" stroke="#263238" stroke-width="0.9" stroke-linecap="round" stroke-linejoin="round"/>
<path d="M52.3613 126.846H72.4818" stroke="#263238" stroke-width="0.9" stroke-linecap="round" stroke-linejoin="round"/>
<g opacity="0.05">
<path d="M244.595 139.882H83.2754V145.667H244.595V139.882Z" fill="black"/>
<path d="M244.595 150.089H83.2754V155.874H244.595V150.089Z" fill="black"/>
<path d="M244.595 160.303H83.2754V166.088H244.595V160.303Z" fill="black"/>
<path d="M244.595 170.51H83.2754V176.295H244.595V170.51Z" fill="black"/>
</g>
<path d="M159.671 154.728H150.421V181.744H159.671V154.728Z" fill="#8094D4"/>
<path d="M149.393 143.578H140.144V181.744H149.393V143.578Z" fill="#263238"/>
<path d="M139.117 157.299H129.867V181.744H139.117V157.299Z" fill="#8094D4"/>
<path d="M128.841 171.879H119.591V181.744H128.841V171.879Z" fill="#263238"/>
<path d="M118.563 152.583H109.313V181.744H118.563V152.583Z" fill="#8094D4"/>
<path d="M108.287 158.584H99.0371V181.744H108.287V158.584Z" fill="#263238"/>
<path d="M98.0096 173.165H88.7598V181.744H98.0096V173.165Z" fill="#8094D4"/>
<path d="M181.23 154.728H171.98V181.744H181.23V154.728Z" fill="#263238"/>
<path d="M191.507 143.578H182.257V181.744H191.507V143.578Z" fill="#8094D4"/>
<path d="M201.791 157.299H192.541V181.744H201.791V157.299Z" fill="#263238"/>
<path d="M212.067 171.879H202.817V181.744H212.067V171.879Z" fill="#8094D4"/>
<path d="M222.345 152.583H213.095V181.744H222.345V152.583Z" fill="#263238"/>
<path d="M232.621 158.584H223.371V181.744H232.621V158.584Z" fill="#8094D4"/>
<path d="M242.898 173.165H233.648V181.744H242.898V173.165Z" fill="#263238"/>
<path d="M42.9932 153.079H72.9992" stroke="#263238" stroke-width="0.9" stroke-linecap="round" stroke-linejoin="round"/>
<path d="M42.9932 158.466H72.9992" stroke="#263238" stroke-width="0.9" stroke-linecap="round" stroke-linejoin="round"/>
<path d="M42.9932 163.852H72.9992" stroke="#263238" stroke-width="0.9" stroke-linecap="round" stroke-linejoin="round"/>
<path d="M42.9932 169.239H72.9992" stroke="#263238" stroke-width="0.9" stroke-linecap="round" stroke-linejoin="round"/>
<path d="M42.9932 174.618H72.9992" stroke="#263238" stroke-width="0.9" stroke-linecap="round" stroke-linejoin="round"/>
<path d="M42.9932 180.004H72.9992" stroke="#263238" stroke-width="0.9" stroke-linecap="round" stroke-linejoin="round"/>
<path d="M48.4424 21.0247H61.6115" stroke="white" stroke-width="0.9" stroke-linecap="round" stroke-linejoin="round"/>
<path d="M48.4424 24.6016H61.6115" stroke="white" stroke-width="0.9" stroke-linecap="round" stroke-linejoin="round"/>
<path d="M48.4424 28.1787H61.6115" stroke="white" stroke-width="0.9" stroke-linecap="round" stroke-linejoin="round"/>
<path opacity="0.05" d="M244.966 100.759H168.026V131.911H244.966V100.759Z" fill="black"/>
<path d="M244.959 126.531V131.918H168.026V114.606L180.329 111.148H197.641L204.572 119.992H216.874L226.494 126.531H244.959Z" fill="#8094D4"/>
<path d="M221.876 106.53H240.348" stroke="#263238" stroke-width="0.9" stroke-linecap="round" stroke-linejoin="round"/>
<path d="M226.655 118.672V120.251H225.809V118.672H223.28V117.875L225.705 112.419H226.655V117.875H227.283V118.672H226.655ZM224.084 117.875H225.809V114.089L224.084 117.875Z" fill="#263238"/>
<path d="M228.828 115.605C228.942 115.4 229.111 115.23 229.316 115.115C229.521 115.001 229.753 114.945 229.988 114.955C231.001 114.955 231.448 115.696 231.448 116.814V118.351C231.448 119.545 230.875 120.328 229.68 120.328C228.486 120.328 227.92 119.545 227.92 118.351V117.82H228.737V118.406C228.737 119.105 229.031 119.531 229.653 119.531C230.274 119.531 230.575 119.112 230.575 118.406V116.883C230.575 116.185 230.281 115.752 229.653 115.752C229.539 115.747 229.426 115.765 229.32 115.805C229.214 115.845 229.117 115.906 229.035 115.984C228.952 116.062 228.887 116.156 228.842 116.26C228.797 116.364 228.773 116.477 228.772 116.59V116.772H227.955L228.171 112.419H231.252V113.202H228.954L228.828 115.605Z" fill="#263238"/>
<path d="M234.473 113.642V116.108C234.473 116.869 234.117 117.372 233.355 117.372C232.594 117.372 232.237 116.869 232.237 116.108V113.642C232.237 112.887 232.594 112.377 233.355 112.377C234.117 112.377 234.473 112.887 234.473 113.642ZM232.796 113.607V116.185C232.796 116.611 232.957 116.883 233.355 116.883C233.753 116.883 233.914 116.604 233.914 116.185V113.635C233.914 113.209 233.746 112.936 233.355 112.936C232.964 112.936 232.796 113.181 232.796 113.607ZM237.058 112.419L233.97 120.251H233.432L236.52 112.419H237.058ZM238.322 116.555V119.021C238.322 119.783 237.98 120.286 237.205 120.286C236.429 120.286 236.087 119.783 236.087 119.021V116.555C236.087 115.807 236.443 115.304 237.205 115.304C237.966 115.304 238.322 115.807 238.322 116.555ZM236.646 116.555V119.091C236.646 119.517 236.813 119.79 237.205 119.79C237.596 119.79 237.763 119.496 237.763 119.091V116.555C237.763 116.129 237.596 115.856 237.205 115.856C236.813 115.856 236.646 116.101 236.646 116.527V116.555Z" fill="#263238"/>
<path d="M83.7511 45.1691V40.0342H82.7031V39.4543H85.4348V40.0342H84.3798V45.1691H83.7511Z" fill="#263238"/>
<path d="M87.1388 39.4543C88.0401 39.4543 88.4173 39.9154 88.4173 40.7608V41.2289C88.4575 41.4754 88.4095 41.7283 88.2818 41.9429C88.154 42.1576 87.9546 42.3203 87.7187 42.4026C88.2427 42.5563 88.4173 42.9824 88.4173 43.5972V44.4845C88.3962 44.723 88.4346 44.9631 88.5291 45.1831H87.8864C87.7939 44.9625 87.7579 44.7224 87.7816 44.4845V43.5762C87.7816 42.9335 87.4812 42.7309 86.9502 42.7309H86.4961V45.1691H85.8604V39.4543H87.1388ZM86.9781 42.1301C87.4881 42.1301 87.7886 41.9694 87.7886 41.3476V40.7957C87.7886 40.2857 87.5999 40.0132 87.1249 40.0132H86.5031V42.1091L86.9781 42.1301Z" fill="#263238"/>
<path d="M91.1209 41.9904V42.5563H89.7236V44.5893H91.4353V45.1691H89.0879V39.4543H91.4353V40.0342H89.7236V41.9904H91.1209Z" fill="#263238"/>
<path d="M92.5883 45.1691H92.0225V39.4543H92.8259L94.1533 43.5902V39.4543H94.7122V45.1691H94.0485L92.5883 40.5512V45.1691Z" fill="#263238"/>
<path d="M96.7105 39.4543C97.5978 39.4543 98.003 39.9923 98.003 40.8516V43.7299C98.003 44.6032 97.5978 45.1272 96.7105 45.1272H95.3691V39.4543H96.7105ZM96.7105 44.5893C97.1716 44.5893 97.4091 44.3028 97.4091 43.7858V40.8446C97.4091 40.3206 97.1926 40.0342 96.7105 40.0342H96.0119V44.5893H96.7105Z" fill="#263238"/>
<g opacity="0.3">
<path d="M82.6328 87.5198V84.7603" stroke="black" stroke-width="0.45" stroke-linecap="round" stroke-linejoin="round"/>
<path opacity="0.3" d="M81.9482 78.2141H277.089" stroke="black" stroke-width="0.45" stroke-linecap="round" stroke-linejoin="round"/>
<path opacity="0.3" d="M81.9482 84.5857H277.089" stroke="black" stroke-width="0.45" stroke-linecap="round" stroke-linejoin="round"/>
<path opacity="0.3" d="M81.9482 72.1851H277.089" stroke="black" stroke-width="0.45" stroke-linecap="round" stroke-linejoin="round"/>
<path opacity="0.3" d="M81.9482 66.1628H277.089" stroke="black" stroke-width="0.45" stroke-linecap="round" stroke-linejoin="round"/>
<path opacity="0.3" d="M81.9482 60.1338H277.089" stroke="black" stroke-width="0.45" stroke-linecap="round" stroke-linejoin="round"/>
<path opacity="0.3" d="M81.9482 54.1045H277.089" stroke="black" stroke-width="0.45" stroke-linecap="round" stroke-linejoin="round"/>
<path opacity="0.3" d="M81.9482 48.0754H277.089" stroke="black" stroke-width="0.45" stroke-linecap="round" stroke-linejoin="round"/>
<path opacity="0.3" d="M98.708 87.5198V84.7603" stroke="black" stroke-width="0.45" stroke-linecap="round" stroke-linejoin="round"/>
<path d="M114.784 87.5198V84.7603" stroke="black" stroke-width="0.45" stroke-linecap="round" stroke-linejoin="round"/>
<path d="M130.859 87.5198V84.7603" stroke="black" stroke-width="0.45" stroke-linecap="round" stroke-linejoin="round"/>
<path d="M146.935 87.5198V84.7603" stroke="black" stroke-width="0.45" stroke-linecap="round" stroke-linejoin="round"/>
<path d="M163.01 87.5198V84.7603" stroke="black" stroke-width="0.45" stroke-linecap="round" stroke-linejoin="round"/>
<path d="M179.085 87.5198V84.7603" stroke="black" stroke-width="0.45" stroke-linecap="round" stroke-linejoin="round"/>
<path d="M195.161 87.5198V84.7603" stroke="black" stroke-width="0.45" stroke-linecap="round" stroke-linejoin="round"/>
<path d="M211.236 87.5198V84.7603" stroke="black" stroke-width="0.45" stroke-linecap="round" stroke-linejoin="round"/>
<path d="M227.312 87.5198V84.7603" stroke="black" stroke-width="0.45" stroke-linecap="round" stroke-linejoin="round"/>
<path d="M243.387 87.5198V84.7603" stroke="black" stroke-width="0.45" stroke-linecap="round" stroke-linejoin="round"/>
<path d="M259.463 87.5198V84.7603" stroke="black" stroke-width="0.45" stroke-linecap="round" stroke-linejoin="round"/>
<path d="M275.538 87.5198V84.7603" stroke="black" stroke-width="0.45" stroke-linecap="round" stroke-linejoin="round"/>
</g>
<path d="M274.552 83.5867V49.2352L274.636 46.1543L264.346 48.2502L251.428 52.3791L235.751 54.1047L219.389 58.9252L203.886 57.0319L186.323 52.0367L169.444 59.7636L156.177 54.7893L138.439 57.0319L123.628 50.8281L106.575 74.7701L90.562 55.6556L82.5977 63.5292V83.5867H274.552Z" fill="#8094D4"/>
<path opacity="0.5" d="M274.552 83.5867V49.2352L274.636 46.1543L264.346 48.2502L251.428 52.3791L235.751 54.1047L219.389 58.9252L203.886 57.0319L186.323 52.0367L169.444 59.7636L156.177 54.7893L138.439 57.0319L123.628 50.8281L106.575 74.7701L90.562 55.6556L82.5977 63.5292V83.5867H274.552Z" fill="white"/>
<path opacity="0.15" d="M274.686 83.5867V72.0384L274.728 70.6201L264.346 66.4214L251.428 63.4941L235.751 65.2198L219.389 68.147L203.887 65.9044L186.323 64.1858L169.444 64.5281L156.177 68.3217L138.439 71.4166L123.628 68.3217L106.575 69.8656L90.5624 71.5912L82.8076 72.6252H82.4443V83.5867H274.686Z" fill="black"/>
<path d="M90.5555 72.6253C91.1265 72.6253 91.5894 72.1624 91.5894 71.5913C91.5894 71.0203 91.1265 70.5574 90.5555 70.5574C89.9844 70.5574 89.5215 71.0203 89.5215 71.5913C89.5215 72.1624 89.9844 72.6253 90.5555 72.6253Z" fill="#263238"/>
<path d="M107.609 69.8658C107.609 69.6613 107.548 69.4613 107.435 69.2913C107.321 69.1213 107.16 68.9888 106.971 68.9105C106.782 68.8322 106.574 68.8118 106.373 68.8517C106.173 68.8916 105.988 68.99 105.844 69.1346C105.699 69.2792 105.601 69.4635 105.561 69.664C105.521 69.8646 105.541 70.0725 105.62 70.2614C105.698 70.4504 105.831 70.6119 106.001 70.7255C106.171 70.8391 106.37 70.8997 106.575 70.8997C106.711 70.9007 106.846 70.8745 106.972 70.8229C107.098 70.7713 107.212 70.6952 107.308 70.599C107.404 70.5028 107.481 70.3884 107.532 70.2625C107.584 70.1367 107.61 70.0018 107.609 69.8658Z" fill="#263238"/>
<path d="M123.629 69.3558C124.2 69.3558 124.663 68.8929 124.663 68.3218C124.663 67.7508 124.2 67.2878 123.629 67.2878C123.058 67.2878 122.595 67.7508 122.595 68.3218C122.595 68.8929 123.058 69.3558 123.629 69.3558Z" fill="#263238"/>
<path d="M138.439 72.4507C139.01 72.4507 139.473 71.9878 139.473 71.4168C139.473 70.8457 139.01 70.3828 138.439 70.3828C137.868 70.3828 137.405 70.8457 137.405 71.4168C137.405 71.9878 137.868 72.4507 138.439 72.4507Z" fill="#263238"/>
<path d="M156.178 69.3558C156.749 69.3558 157.211 68.8929 157.211 68.3218C157.211 67.7508 156.749 67.2878 156.178 67.2878C155.606 67.2878 155.144 67.7508 155.144 68.3218C155.144 68.8929 155.606 69.3558 156.178 69.3558Z" fill="#263238"/>
<path d="M169.444 65.5621C170.015 65.5621 170.478 65.0992 170.478 64.5281C170.478 63.9571 170.015 63.4941 169.444 63.4941C168.873 63.4941 168.41 63.9571 168.41 64.5281C168.41 65.0992 168.873 65.5621 169.444 65.5621Z" fill="#263238"/>
<path d="M186.323 65.2198C186.894 65.2198 187.357 64.7569 187.357 64.1858C187.357 63.6148 186.894 63.1519 186.323 63.1519C185.752 63.1519 185.289 63.6148 185.289 64.1858C185.289 64.7569 185.752 65.2198 186.323 65.2198Z" fill="#263238"/>
<path d="M204.92 65.8836C204.92 65.6791 204.86 65.4792 204.746 65.3091C204.633 65.1391 204.471 65.0066 204.282 64.9283C204.093 64.8501 203.885 64.8296 203.685 64.8695C203.484 64.9094 203.3 65.0078 203.155 65.1525C203.011 65.2971 202.912 65.4813 202.872 65.6819C202.833 65.8824 202.853 66.0903 202.931 66.2793C203.01 66.4682 203.142 66.6297 203.312 66.7433C203.482 66.8569 203.682 66.9175 203.887 66.9175C204.023 66.9185 204.157 66.8924 204.283 66.8407C204.409 66.7891 204.524 66.713 204.62 66.6168C204.716 66.5206 204.792 66.4062 204.844 66.2804C204.895 66.1545 204.921 66.0196 204.92 65.8836Z" fill="#263238"/>
<path d="M219.389 69.181C219.96 69.181 220.423 68.718 220.423 68.147C220.423 67.576 219.96 67.113 219.389 67.113C218.818 67.113 218.355 67.576 218.355 68.147C218.355 68.718 218.818 69.181 219.389 69.181Z" fill="#263238"/>
<path d="M235.751 66.2537C236.322 66.2537 236.785 65.7908 236.785 65.2198C236.785 64.6487 236.322 64.1858 235.751 64.1858C235.18 64.1858 234.717 64.6487 234.717 65.2198C234.717 65.7908 235.18 66.2537 235.751 66.2537Z" fill="#263238"/>
<path d="M251.429 64.5281C252 64.5281 252.462 64.0652 252.462 63.4942C252.462 62.9231 252 62.4602 251.429 62.4602C250.857 62.4602 250.395 62.9231 250.395 63.4942C250.395 64.0652 250.857 64.5281 251.429 64.5281Z" fill="#263238"/>
<path d="M265.379 66.4214C265.379 66.2169 265.319 66.017 265.205 65.847C265.092 65.6769 264.93 65.5444 264.741 65.4662C264.552 65.3879 264.344 65.3674 264.144 65.4073C263.943 65.4472 263.759 65.5457 263.614 65.6903C263.47 65.8349 263.371 66.0191 263.331 66.2197C263.291 66.4203 263.312 66.6282 263.39 66.8171C263.468 67.006 263.601 67.1675 263.771 67.2811C263.941 67.3947 264.141 67.4554 264.345 67.4554C264.482 67.4563 264.616 67.4302 264.742 67.3786C264.868 67.3269 264.982 67.2508 265.079 67.1546C265.175 67.0584 265.251 66.9441 265.303 66.8182C265.354 66.6923 265.38 66.5575 265.379 66.4214Z" fill="#263238"/>
<g opacity="0.3">
<path d="M90.5555 56.6898C91.1265 56.6898 91.5894 56.2268 91.5894 55.6558C91.5894 55.0848 91.1265 54.6218 90.5555 54.6218C89.9844 54.6218 89.5215 55.0848 89.5215 55.6558C89.5215 56.2268 89.9844 56.6898 90.5555 56.6898Z" fill="black"/>
<path d="M106.575 75.804C107.146 75.804 107.609 75.3411 107.609 74.77C107.609 74.199 107.146 73.7361 106.575 73.7361C106.004 73.7361 105.541 74.199 105.541 74.77C105.541 75.3411 106.004 75.804 106.575 75.804Z" fill="black"/>
<path d="M124.663 50.8282C124.663 50.6237 124.602 50.4238 124.488 50.2537C124.375 50.0837 124.213 49.9512 124.024 49.8729C123.835 49.7946 123.628 49.7742 123.427 49.8141C123.226 49.854 123.042 49.9524 122.898 50.097C122.753 50.2416 122.654 50.4259 122.615 50.6264C122.575 50.827 122.595 51.0349 122.673 51.2238C122.752 51.4128 122.884 51.5743 123.054 51.6879C123.224 51.8015 123.424 51.8621 123.629 51.8621C123.903 51.8621 124.166 51.7532 124.36 51.5593C124.554 51.3654 124.663 51.1024 124.663 50.8282Z" fill="black"/>
<path d="M138.439 58.066C139.01 58.066 139.473 57.6031 139.473 57.032C139.473 56.461 139.01 55.998 138.439 55.998C137.868 55.998 137.405 56.461 137.405 57.032C137.405 57.6031 137.868 58.066 138.439 58.066Z" fill="black"/>
<path d="M157.211 54.7893C157.211 54.5848 157.151 54.3849 157.037 54.2149C156.924 54.0449 156.762 53.9123 156.573 53.8341C156.384 53.7558 156.176 53.7353 155.976 53.7752C155.775 53.8151 155.591 53.9136 155.446 54.0582C155.302 54.2028 155.203 54.3871 155.163 54.5876C155.124 54.7882 155.144 54.9961 155.222 55.185C155.301 55.374 155.433 55.5354 155.603 55.6491C155.773 55.7627 155.973 55.8233 156.178 55.8233C156.314 55.8242 156.448 55.7981 156.574 55.7465C156.7 55.6949 156.815 55.6187 156.911 55.5225C157.007 55.4263 157.083 55.312 157.135 55.1861C157.186 55.0603 157.212 54.9254 157.211 54.7893Z" fill="black"/>
<path d="M169.444 60.3924C170.015 60.3924 170.478 59.9295 170.478 59.3584C170.478 58.7874 170.015 58.3245 169.444 58.3245C168.873 58.3245 168.41 58.7874 168.41 59.3584C168.41 59.9295 168.873 60.3924 169.444 60.3924Z" fill="black"/>
<path d="M186.323 53.0709C186.894 53.0709 187.357 52.6079 187.357 52.0369C187.357 51.4659 186.894 51.0029 186.323 51.0029C185.752 51.0029 185.289 51.4659 185.289 52.0369C185.289 52.6079 185.752 53.0709 186.323 53.0709Z" fill="black"/>
<path d="M203.886 58.066C204.458 58.066 204.92 57.6031 204.92 57.032C204.92 56.461 204.458 55.998 203.886 55.998C203.315 55.998 202.853 56.461 202.853 57.032C202.853 57.6031 203.315 58.066 203.886 58.066Z" fill="black"/>
<path d="M219.389 59.9593C219.96 59.9593 220.423 59.4964 220.423 58.9253C220.423 58.3543 219.96 57.8914 219.389 57.8914C218.818 57.8914 218.355 58.3543 218.355 58.9253C218.355 59.4964 218.818 59.9593 219.389 59.9593Z" fill="black"/>
<path d="M235.751 55.1387C236.322 55.1387 236.785 54.6758 236.785 54.1048C236.785 53.5337 236.322 53.0708 235.751 53.0708C235.18 53.0708 234.717 53.5337 234.717 54.1048C234.717 54.6758 235.18 55.1387 235.751 55.1387Z" fill="black"/>
<path d="M251.429 53.4132C252 53.4132 252.462 52.9502 252.462 52.3792C252.462 51.8081 252 51.3452 251.429 51.3452C250.857 51.3452 250.395 51.8081 250.395 52.3792C250.395 52.9502 250.857 53.4132 251.429 53.4132Z" fill="black"/>
<path d="M264.345 49.2842C264.917 49.2842 265.379 48.8213 265.379 48.2503C265.379 47.6792 264.917 47.2163 264.345 47.2163C263.774 47.2163 263.312 47.6792 263.312 48.2503C263.312 48.8213 263.774 49.2842 264.345 49.2842Z" fill="black"/>
</g>
<path d="M262.076 43.6531V45.232H261.23V43.6531H258.701V42.8637L261.125 37.4004H262.076V42.8637H262.704V43.6531H262.076ZM259.505 42.8637H261.23V39.0352L259.505 42.8637Z" fill="#263238"/>
<path d="M264.22 40.5931C264.332 40.3867 264.501 40.2163 264.706 40.1014C264.911 39.9865 265.145 39.9317 265.379 39.9434C266.392 39.9434 266.84 40.642 266.84 41.8017V43.3317C266.84 44.5264 266.267 45.3089 265.072 45.3089C263.877 45.3089 263.312 44.5264 263.312 43.3317V42.8287H264.129V43.4086C264.129 44.1072 264.422 44.5404 265.044 44.5404C265.666 44.5404 265.966 44.1142 265.966 43.4086V41.8646C265.966 41.166 265.673 40.7328 265.044 40.7328C264.931 40.7291 264.819 40.748 264.714 40.7884C264.608 40.8287 264.512 40.8898 264.431 40.9679C264.349 41.046 264.284 41.1397 264.24 41.2433C264.195 41.3469 264.172 41.4584 264.171 41.5712V41.7528H263.353L263.563 37.4004H266.651V38.1828H264.352L264.22 40.5931Z" fill="#263238"/>
<path d="M269.865 38.6371V41.1102C269.865 41.8717 269.509 42.3747 268.748 42.3747C267.986 42.3747 267.63 41.8717 267.63 41.1102V38.6371C267.63 37.8895 267.986 37.3726 268.748 37.3726C269.509 37.3726 269.865 37.8756 269.865 38.6371ZM268.189 38.6371V41.1871C268.189 41.6132 268.349 41.8857 268.748 41.8857C269.146 41.8857 269.307 41.6062 269.307 41.1871V38.5882C269.307 38.162 269.139 37.8895 268.748 37.8895C268.356 37.8895 268.189 38.162 268.189 38.5882V38.6371ZM272.45 37.4494L269.362 45.281H268.838L271.926 37.4494H272.45ZM273.715 41.5923V44.0514C273.715 44.8129 273.373 45.3159 272.597 45.3159C271.822 45.3159 271.479 44.8129 271.479 44.0514V41.5434C271.479 40.7888 271.836 40.2858 272.597 40.2858C273.359 40.2858 273.715 40.7888 273.715 41.5434V41.5923ZM272.038 41.5923V44.1283C272.038 44.5544 272.206 44.8269 272.597 44.8269C272.988 44.8269 273.156 44.5335 273.156 44.1283V41.5084C273.156 41.0823 272.988 40.8098 272.597 40.8098C272.206 40.8098 272.038 41.0823 272.038 41.5084V41.5923Z" fill="#263238"/>
<path d="M262.397 73.3658C262.397 75.7271 259.749 76.5725 259.735 78.3749V78.5007H262.306V79.2971H258.876V78.5985C258.876 76.0764 261.524 75.5804 261.524 73.3797C261.524 72.5693 261.258 72.1501 260.609 72.1501C259.959 72.1501 259.693 72.6042 259.693 73.3029V74.0015H258.876V73.3658C258.876 72.1641 259.421 71.3677 260.63 71.3677C261.838 71.3677 262.397 72.1711 262.397 73.3658Z" fill="#263238"/>
<path d="M263.138 73.352C263.138 72.1573 263.725 71.3818 264.926 71.3818C266.128 71.3818 266.729 72.1573 266.729 73.352V77.39C266.729 78.5917 266.135 79.3741 264.926 79.3741C263.718 79.3741 263.138 78.5917 263.138 77.39V73.352ZM263.997 77.4459C263.997 78.1445 264.297 78.5777 264.926 78.5777C265.555 78.5777 265.855 78.1515 265.855 77.4459V73.31C265.855 72.6114 265.562 72.1713 264.926 72.1713C264.29 72.1713 263.997 72.5905 263.997 73.31V77.4459Z" fill="#263238"/>
<path d="M269.76 72.6813V75.1544C269.76 75.9159 269.404 76.4189 268.642 76.4189C267.881 76.4189 267.524 75.9159 267.524 75.1544V72.6813C267.524 71.9337 267.881 71.4167 268.642 71.4167C269.404 71.4167 269.76 71.9337 269.76 72.6813ZM268.083 72.6813V75.2382C268.083 75.6574 268.237 75.9369 268.642 75.9369C269.047 75.9369 269.201 75.6574 269.201 75.2382V72.6813C269.201 72.2621 269.033 71.9826 268.642 71.9826C268.251 71.9826 268.069 72.2272 268.069 72.6463L268.083 72.6813ZM272.345 71.5006L269.257 79.3322H268.726L271.8 71.4726L272.345 71.5006ZM273.609 75.6365V78.0956C273.609 78.8571 273.26 79.3601 272.492 79.3601C271.723 79.3601 271.367 78.8571 271.367 78.0956V75.6365C271.367 74.8889 271.73 74.3859 272.492 74.3859C273.253 74.3859 273.595 74.854 273.595 75.6015L273.609 75.6365ZM271.926 75.6365V78.1795C271.926 78.6056 272.1 78.8781 272.492 78.8781C272.883 78.8781 273.051 78.5917 273.051 78.1795V75.6365C273.051 75.2173 272.876 74.9378 272.492 74.9378C272.107 74.9378 271.912 75.1474 271.912 75.5666L271.926 75.6365Z" fill="#263238"/>
<path d="M137.168 105.251H132.103V110.316H137.168V105.251Z" fill="#263238"/>
<path d="M140.325 107.787H160.893" stroke="#263238" stroke-width="0.9" stroke-linejoin="round"/>
<path d="M137.168 114.431H132.103V119.496H137.168V114.431Z" fill="#8094D4"/>
<path d="M140.325 116.96H160.893" stroke="#263238" stroke-width="0.9" stroke-linejoin="round"/>
<path d="M137.168 123.604H132.103V128.669H137.168V123.604Z" fill="#7D7D7D"/>
<path d="M140.325 126.133H160.893" stroke="#263238" stroke-width="0.9" stroke-linejoin="round"/>
<path d="M110.864 132.002C113.435 130.911 115.718 129.239 117.532 127.117C119.347 124.994 120.644 122.479 121.321 119.77C121.998 117.061 122.037 114.232 121.435 111.505C120.833 108.778 119.606 106.228 117.851 104.057" stroke="#8094D4" stroke-width="6.3" stroke-linejoin="round"/>
<path d="M88.7461 125.267C91.0581 128.805 94.5387 131.419 98.5809 132.654C102.623 133.888 106.97 133.665 110.865 132.023" stroke="#7D7D7D" stroke-width="6.3" stroke-linejoin="round"/>
<path d="M117.865 104.036C114.96 100.422 110.774 98.0652 106.177 97.4557C101.581 96.8461 96.9256 98.0302 93.1788 100.762C89.4319 103.494 86.8811 107.564 86.0557 112.127C85.2303 116.69 86.1939 121.396 88.7463 125.267" stroke="#263238" stroke-width="6.3" stroke-linejoin="round"/>
<path d="M96.2217 113.418H112.011" stroke="#263238" stroke-width="0.9" stroke-linejoin="round"/>
<path d="M96.2217 118.078H112.011" stroke="#263238" stroke-width="0.9" stroke-linejoin="round"/>
<path d="M254.132 111.86H274.888" stroke="#263238" stroke-width="0.9" stroke-linecap="round" stroke-linejoin="round"/>
<path d="M254.132 114.242H274.888" stroke="#263238" stroke-width="0.9" stroke-linecap="round" stroke-linejoin="round"/>
<path d="M273.211 100.745C271.824 98.8367 269.868 97.4166 267.624 96.6878C265.379 95.9591 262.962 95.9592 260.718 96.6881C258.474 97.417 256.518 98.8374 255.13 100.746C253.743 102.654 252.995 104.953 252.993 107.312H275.349C275.382 104.947 274.631 102.637 273.211 100.745Z" fill="#8094D4"/>
<path d="M264.171 107.312L273.204 100.745C274.621 102.638 275.37 104.948 275.335 107.312H264.171Z" stroke="white" stroke-width="0.45" stroke-linecap="round" stroke-linejoin="round"/>
<path d="M264.171 107.312L267.664 96.6931C269.924 97.3885 271.889 98.8135 273.253 100.745L264.171 107.312Z" stroke="white" stroke-width="0.45" stroke-linecap="round" stroke-linejoin="round"/>
<path d="M264.171 107.312L260.72 96.6931C262.957 95.9314 265.384 95.9314 267.622 96.6931L264.171 107.312Z" stroke="white" stroke-width="0.45" stroke-linecap="round" stroke-linejoin="round"/>
<path d="M264.171 107.312L255.138 100.745C256.501 98.8135 258.467 97.3885 260.727 96.6931L264.171 107.312Z" stroke="white" stroke-width="0.45" stroke-linecap="round" stroke-linejoin="round"/>
<path d="M264.171 107.312H252.993C252.961 104.947 253.712 102.638 255.131 100.745L264.171 107.312Z" stroke="white" stroke-width="0.45" stroke-linecap="round" stroke-linejoin="round"/>
<path d="M265.527 107.312C265.528 107.044 265.45 106.781 265.302 106.557C265.153 106.333 264.942 106.158 264.694 106.054C264.446 105.951 264.173 105.924 263.909 105.976C263.645 106.028 263.403 106.157 263.213 106.347C263.023 106.537 262.894 106.779 262.842 107.043C262.79 107.306 262.817 107.579 262.921 107.827C263.024 108.075 263.199 108.287 263.423 108.435C263.647 108.584 263.91 108.662 264.179 108.661C264.356 108.662 264.532 108.627 264.696 108.56C264.86 108.492 265.009 108.393 265.134 108.268C265.26 108.142 265.359 107.993 265.426 107.829C265.494 107.665 265.528 107.49 265.527 107.312Z" fill="#263238"/>
<path d="M264.179 107.312L268.769 100.626" stroke="#263238" stroke-width="0.9" stroke-linecap="round" stroke-linejoin="round"/>
<path d="M254.132 134.216H274.888" stroke="#263238" stroke-width="0.9" stroke-linecap="round" stroke-linejoin="round"/>
<path d="M254.132 136.599H274.888" stroke="#263238" stroke-width="0.9" stroke-linecap="round" stroke-linejoin="round"/>
<path d="M273.211 123.108C271.824 121.2 269.869 119.78 267.625 119.051C265.382 118.323 262.965 118.322 260.721 119.05C258.478 119.778 256.522 121.197 255.134 123.105C253.745 125.012 252.996 127.309 252.993 129.668H275.349C275.384 127.305 274.632 124.997 273.211 123.108Z" fill="#8094D4"/>
<path d="M264.171 129.668L273.204 123.108C274.627 124.997 275.381 127.304 275.349 129.668H264.171Z" stroke="white" stroke-width="0.45" stroke-linecap="round" stroke-linejoin="round"/>
<path d="M264.171 129.668L267.664 119.049C269.926 119.744 271.892 121.172 273.253 123.108L264.171 129.668Z" stroke="white" stroke-width="0.45" stroke-linecap="round" stroke-linejoin="round"/>
<path d="M264.171 129.668L260.72 119.049C262.957 118.287 265.384 118.287 267.622 119.049L264.171 129.668Z" stroke="white" stroke-width="0.45" stroke-linecap="round" stroke-linejoin="round"/>
<path d="M264.171 129.668L255.138 123.108C256.499 121.172 258.465 119.744 260.727 119.049L264.171 129.668Z" stroke="white" stroke-width="0.45" stroke-linecap="round" stroke-linejoin="round"/>
<path d="M264.171 129.668H252.993C252.96 127.305 253.711 124.998 255.131 123.108L264.171 129.668Z" stroke="white" stroke-width="0.45" stroke-linecap="round" stroke-linejoin="round"/>
<path d="M265.527 129.668C265.527 129.4 265.447 129.138 265.298 128.915C265.149 128.692 264.937 128.518 264.689 128.415C264.441 128.313 264.168 128.287 263.905 128.34C263.642 128.392 263.4 128.522 263.211 128.712C263.022 128.903 262.893 129.145 262.842 129.408C262.79 129.672 262.818 129.944 262.922 130.192C263.025 130.439 263.2 130.651 263.424 130.799C263.648 130.947 263.91 131.025 264.179 131.024C264.357 131.025 264.533 130.99 264.697 130.922C264.862 130.854 265.011 130.754 265.137 130.628C265.262 130.502 265.361 130.352 265.428 130.188C265.495 130.023 265.529 129.846 265.527 129.668Z" fill="#263238"/>
<path d="M264.178 129.668L259.686 123.318" stroke="#263238" stroke-width="0.9" stroke-linecap="round" stroke-linejoin="round"/>
<path d="M274.224 156.572H253.461" stroke="#263238" stroke-width="0.9" stroke-linecap="round" stroke-linejoin="round"/>
<path d="M274.224 158.955H253.461" stroke="#263238" stroke-width="0.9" stroke-linecap="round" stroke-linejoin="round"/>
<path d="M255.145 145.464C256.534 143.562 258.489 142.148 260.729 141.423C262.97 140.697 265.383 140.699 267.623 141.426C269.863 142.153 271.816 143.57 273.204 145.473C274.591 147.376 275.342 149.669 275.349 152.024H252.993C252.964 149.66 253.721 147.352 255.145 145.464Z" fill="#8094D4"/>
<path d="M264.171 152.024L255.138 145.464C253.717 147.353 252.962 149.66 252.993 152.024H264.171Z" stroke="white" stroke-width="0.45" stroke-linecap="round" stroke-linejoin="round"/>
<path d="M264.171 152.024L260.72 141.405C258.458 142.101 256.492 143.529 255.131 145.464L264.171 152.024Z" stroke="white" stroke-width="0.45" stroke-linecap="round" stroke-linejoin="round"/>
<path d="M264.171 152.024L267.664 141.405C265.426 140.644 262.999 140.644 260.762 141.405L264.171 152.024Z" stroke="white" stroke-width="0.45" stroke-linecap="round" stroke-linejoin="round"/>
<path d="M264.171 152.024L273.204 145.464C271.843 143.529 269.877 142.101 267.615 141.405L264.171 152.024Z" stroke="white" stroke-width="0.45" stroke-linecap="round" stroke-linejoin="round"/>
<path d="M264.171 152.024H275.349C275.384 149.662 274.635 147.355 273.218 145.464L264.171 152.024Z" stroke="white" stroke-width="0.45" stroke-linecap="round" stroke-linejoin="round"/>
<path d="M262.823 152.024C262.823 151.756 262.903 151.494 263.052 151.271C263.201 151.048 263.412 150.875 263.66 150.772C263.908 150.67 264.18 150.643 264.443 150.695C264.706 150.747 264.947 150.876 265.137 151.066C265.326 151.255 265.456 151.497 265.508 151.76C265.56 152.023 265.533 152.295 265.431 152.543C265.328 152.791 265.154 153.002 264.932 153.151C264.709 153.3 264.447 153.38 264.179 153.38C263.819 153.38 263.474 153.237 263.22 152.983C262.966 152.728 262.823 152.384 262.823 152.024Z" fill="#263238"/>
<path d="M264.178 152.024L255.962 148.727" stroke="#263238" stroke-width="0.9" stroke-linecap="round" stroke-linejoin="round"/>
<path d="M254.132 178.928H274.888" stroke="#263238" stroke-width="0.9" stroke-linecap="round" stroke-linejoin="round"/>
<path d="M254.132 181.311H274.888" stroke="#263238" stroke-width="0.9" stroke-linecap="round" stroke-linejoin="round"/>
<path d="M273.211 167.82C271.822 165.918 269.866 164.503 267.625 163.778C265.383 163.053 262.97 163.055 260.73 163.783C258.489 164.512 256.536 165.929 255.149 167.833C253.762 169.738 253.012 172.032 253.007 174.387H275.363C275.392 172.021 274.635 169.711 273.211 167.82Z" fill="#8094D4"/>
<path d="M264.171 174.387L273.204 167.82C274.621 169.714 275.37 172.023 275.335 174.387H264.171Z" stroke="white" stroke-width="0.45" stroke-linecap="round" stroke-linejoin="round"/>
<path d="M264.171 174.387L267.664 163.761C269.924 164.459 271.89 165.887 273.253 167.82L264.171 174.387Z" stroke="white" stroke-width="0.45" stroke-linecap="round" stroke-linejoin="round"/>
<path d="M264.171 174.387L260.72 163.761C262.957 163 265.384 163 267.622 163.761L264.171 174.387Z" stroke="white" stroke-width="0.45" stroke-linecap="round" stroke-linejoin="round"/>
<path d="M264.171 174.387L255.138 167.82C256.501 165.887 258.466 164.459 260.727 163.761L264.171 174.387Z" stroke="white" stroke-width="0.45" stroke-linecap="round" stroke-linejoin="round"/>
<path d="M264.171 174.387H252.993C252.961 172.022 253.712 169.713 255.131 167.82L264.171 174.387Z" stroke="white" stroke-width="0.45" stroke-linecap="round" stroke-linejoin="round"/>
<path d="M265.527 174.387C265.528 174.119 265.45 173.856 265.302 173.632C265.153 173.408 264.942 173.233 264.694 173.13C264.446 173.026 264.173 172.999 263.909 173.051C263.645 173.103 263.403 173.232 263.213 173.422C263.023 173.612 262.894 173.854 262.842 174.118C262.79 174.381 262.817 174.654 262.921 174.902C263.024 175.15 263.199 175.362 263.423 175.51C263.647 175.659 263.91 175.737 264.179 175.736C264.536 175.736 264.879 175.594 265.132 175.341C265.385 175.088 265.527 174.745 265.527 174.387Z" fill="#263238"/>
<path d="M264.178 174.387L254.013 174.366" stroke="#263238" stroke-width="0.9" stroke-linecap="round" stroke-linejoin="round"/>
<path d="M227.71 19.6763C228.618 19.802 229.037 20.5076 229.037 21.5136V21.7162H228.255V21.4578C228.255 20.7941 227.989 20.3889 227.389 20.3889C226.788 20.3889 226.536 20.7941 226.536 21.4578C226.536 23.1345 229.044 23.1415 229.044 25.2513C229.044 26.2503 228.618 26.9699 227.71 27.0957V27.6616H227.011V27.0957C226.082 26.9699 225.67 26.2643 225.67 25.2513V24.7902H226.445V25.3002C226.445 25.9988 226.725 26.3551 227.326 26.3551C227.926 26.3551 228.199 25.9709 228.199 25.3002C228.199 23.6375 225.698 23.6165 225.698 21.5136C225.698 20.4867 226.117 19.816 227.011 19.6763V19.0754H227.71V19.6763Z" fill="white"/>
<path d="M233.18 21.4438V21.6394C233.215 21.9593 233.146 22.2821 232.982 22.5592C232.818 22.8363 232.569 23.0529 232.272 23.1764C232.571 23.3015 232.821 23.5204 232.985 23.8001C233.149 24.0799 233.217 24.4053 233.18 24.7273V25.3002C233.18 26.4459 232.642 27.1935 231.489 27.1935C230.336 27.1935 229.812 26.4459 229.812 25.3002V24.7902H230.595V25.3631C230.595 26.0617 230.874 26.4389 231.468 26.4389C232.062 26.4389 232.349 26.0477 232.349 25.2862V24.7133C232.349 23.9728 232.034 23.6235 231.405 23.6025H230.958V22.848H231.447C231.577 22.8493 231.705 22.8225 231.824 22.7696C231.942 22.7166 232.048 22.6388 232.133 22.5413C232.219 22.4438 232.283 22.3289 232.32 22.2046C232.357 22.0803 232.367 21.9495 232.349 21.821V21.4787C232.349 20.7102 232.076 20.312 231.468 20.312C230.86 20.312 230.595 20.7312 230.595 21.4018V21.7861H229.812V21.4438C229.812 20.305 230.35 19.5645 231.489 19.5645C232.628 19.5645 233.18 20.305 233.18 21.4438Z" fill="white"/>
<path d="M237.358 21.4577C237.358 23.7073 234.822 24.5247 234.815 26.2433V26.3551H237.267V27.1166H233.99V26.4739C233.99 24.0636 236.519 23.5955 236.519 21.4927C236.519 20.7172 236.268 20.312 235.646 20.312C235.024 20.312 234.773 20.7521 234.773 21.4158V22.0795H233.99V21.4647C233.99 20.326 234.514 19.5645 235.667 19.5645C236.82 19.5645 237.358 20.312 237.358 21.4577Z" fill="white"/>
<path d="M238.49 27.1167H238.183V26.0618H238.979V27.0398L238.567 28.0529H238.225L238.49 27.1167Z" fill="white"/>
<path d="M240.67 22.6874C240.778 22.4901 240.94 22.3272 241.136 22.2173C241.332 22.1074 241.556 22.0548 241.781 22.0656C242.738 22.0656 243.178 22.7642 243.178 23.8401V25.3002C243.178 26.446 242.64 27.1935 241.494 27.1935C240.348 27.1935 239.817 26.446 239.817 25.3002V24.7972H240.6V25.3631C240.6 26.0617 240.872 26.439 241.473 26.439C242.074 26.439 242.346 26.0338 242.346 25.3631V23.903C242.346 23.2044 242.074 22.8271 241.473 22.8271C241.365 22.8214 241.256 22.8378 241.154 22.8752C241.053 22.9126 240.959 22.9702 240.88 23.0447C240.801 23.1191 240.738 23.2088 240.695 23.3082C240.651 23.4077 240.629 23.515 240.628 23.6235V23.7982H239.852L240.055 19.6414H242.996V20.3889H240.802L240.67 22.6874Z" fill="white"/>
<path d="M247.32 21.4368V21.5765H246.545V21.3809C246.545 20.6823 246.266 20.312 245.658 20.312C245.05 20.312 244.749 20.7172 244.749 21.5206V23.1973C244.837 22.9506 245.002 22.7389 245.22 22.594C245.438 22.4491 245.697 22.3789 245.958 22.3939C246.915 22.3939 247.355 23.0925 247.355 24.1684V25.3002C247.355 26.4459 246.789 27.1935 245.651 27.1935C244.512 27.1935 243.911 26.4459 243.911 25.3002V21.4927C243.911 20.305 244.442 19.5645 245.63 19.5645C246.817 19.5645 247.32 20.291 247.32 21.4368ZM244.749 24.2313V25.3631C244.749 26.0617 245.029 26.4389 245.637 26.4389C246.245 26.4389 246.524 26.0337 246.524 25.3631V24.2313C246.524 23.5327 246.231 23.1554 245.637 23.1554C245.043 23.1554 244.749 23.5606 244.749 24.2313Z" fill="white"/>
<path d="M251.477 21.4438V25.2583C251.477 26.4459 250.946 27.1935 249.745 27.1935C248.543 27.1935 248.061 26.4529 248.061 25.3142V25.1744H248.843V25.3631C248.843 26.0617 249.13 26.432 249.724 26.432C250.318 26.432 250.646 26.0268 250.646 25.2373V23.5606C250.558 23.806 250.393 24.016 250.174 24.1585C249.956 24.3011 249.697 24.3683 249.437 24.35C248.48 24.35 248.04 23.6514 248.04 22.5895V21.4438C248.04 20.305 248.599 19.5645 249.752 19.5645C250.904 19.5645 251.477 20.305 251.477 21.4438ZM248.871 21.4018V22.5266C248.871 23.2253 249.158 23.6025 249.759 23.6025C250.359 23.6025 250.646 23.1973 250.646 22.5266V21.4018C250.646 20.7032 250.366 20.326 249.759 20.326C249.151 20.326 248.871 20.7172 248.871 21.4018Z" fill="white"/>
<path d="M252.644 27.1167H252.337V26.0618H253.133V27.0398L252.721 28.0529H252.379L252.644 27.1167Z" fill="white"/>
<path d="M257.416 21.416V21.6465C257.458 21.9613 257.398 22.2812 257.245 22.5592C257.091 22.8372 256.852 23.0585 256.564 23.1905C256.855 23.3287 257.095 23.5563 257.248 23.8403C257.402 24.1243 257.46 24.4498 257.416 24.7694V25.3213C257.447 25.5692 257.426 25.821 257.352 26.0598C257.279 26.2987 257.155 26.5192 256.99 26.7067C256.825 26.8942 256.622 27.0443 256.394 27.1472C256.166 27.25 255.919 27.3032 255.669 27.3032C255.419 27.3032 255.172 27.25 254.945 27.1472C254.717 27.0443 254.514 26.8942 254.349 26.7067C254.183 26.5192 254.06 26.2987 253.987 26.0598C253.913 25.821 253.891 25.5692 253.923 25.3213V24.7694C253.876 24.4478 253.935 24.1198 254.092 23.8349C254.248 23.55 254.493 23.3238 254.789 23.1905C254.496 23.0636 254.252 22.8437 254.095 22.5648C253.939 22.2859 253.878 21.9632 253.923 21.6465V21.416C253.891 21.1681 253.913 20.9163 253.987 20.6775C254.06 20.4386 254.183 20.2181 254.349 20.0306C254.514 19.8431 254.717 19.693 254.945 19.5901C255.172 19.4873 255.419 19.4341 255.669 19.4341C255.919 19.4341 256.166 19.4873 256.394 19.5901C256.622 19.693 256.825 19.8431 256.99 20.0306C257.155 20.2181 257.279 20.4386 257.352 20.6775C257.426 20.9163 257.447 21.1681 257.416 21.416ZM254.712 21.416V21.7793C254.712 22.4779 255.069 22.8272 255.655 22.8272C256.242 22.8272 256.592 22.5058 256.592 21.7793V21.416C256.592 20.6475 256.242 20.2912 255.655 20.2912C255.069 20.2912 254.712 20.6685 254.712 21.4369V21.416ZM254.712 24.6506V25.2794C254.712 26.0479 255.055 26.4112 255.655 26.4112C256.256 26.4112 256.585 26.0479 256.592 25.2794V24.6646C256.592 23.966 256.277 23.5887 255.655 23.5887C255.034 23.5887 254.712 23.966 254.712 24.6646V24.6506Z" fill="white"/>
<path d="M261.53 21.4438V25.2583C261.53 26.4459 260.993 27.1935 259.798 27.1935C258.603 27.1935 258.114 26.4529 258.114 25.3142V25.1744H258.89V25.3631C258.89 26.0617 259.176 26.432 259.777 26.432C260.378 26.432 260.678 26.0617 260.678 25.2373V23.5606C260.588 23.8047 260.422 24.0134 260.205 24.1556C259.987 24.2978 259.729 24.366 259.47 24.35C258.505 24.35 258.072 23.6514 258.072 22.5895V21.4438C258.072 20.305 258.631 19.5645 259.784 19.5645C260.937 19.5645 261.53 20.305 261.53 21.4438ZM258.925 21.4018V22.5266C258.925 23.2253 259.211 23.6025 259.812 23.6025C260.413 23.6025 260.678 23.1973 260.678 22.5266V21.4018C260.678 20.7032 260.399 20.326 259.791 20.326C259.183 20.326 258.925 20.7172 258.925 21.4018Z" fill="white"/>
<path d="M265.653 21.4438V21.6394C265.689 21.9595 265.62 22.2827 265.456 22.5601C265.292 22.8374 265.042 23.0538 264.744 23.1764C265.043 23.3015 265.294 23.5204 265.458 23.8001C265.621 24.0799 265.69 24.4053 265.653 24.7273V25.3002C265.653 26.4459 265.122 27.1935 263.962 27.1935C262.802 27.1935 262.285 26.4459 262.285 25.3002V24.7902H263.068V25.3631C263.068 26.0617 263.347 26.4389 263.941 26.4389C264.535 26.4389 264.821 26.0477 264.821 25.2862V24.7133C264.821 23.9728 264.507 23.6235 263.878 23.6025H263.431V22.848H263.92C264.05 22.8493 264.178 22.8225 264.297 22.7696C264.415 22.7166 264.521 22.6388 264.606 22.5413C264.692 22.4438 264.755 22.3289 264.792 22.2046C264.829 22.0803 264.839 21.9495 264.821 21.821V21.4787C264.821 20.7102 264.556 20.312 263.941 20.312C263.326 20.312 263.068 20.7312 263.068 21.4018V21.7861H262.285V21.4438C262.285 20.305 262.823 19.5645 263.962 19.5645C265.101 19.5645 265.653 20.305 265.653 21.4438Z" fill="white"/>
<path d="M267.266 26.0618V27.0957H266.463V26.0618H267.266Z" fill="white"/>
<path d="M268.056 21.4438C268.056 20.305 268.622 19.5645 269.767 19.5645C270.913 19.5645 271.486 20.305 271.486 21.4438V25.3002C271.486 26.4459 270.92 27.1935 269.767 27.1935C268.615 27.1935 268.056 26.4459 268.056 25.3002V21.4438ZM268.88 25.3561C268.88 26.0547 269.166 26.432 269.767 26.432C270.368 26.432 270.655 26.0268 270.655 25.3561V21.4018C270.655 20.7032 270.375 20.312 269.767 20.312C269.16 20.312 268.88 20.7172 268.88 21.4018V25.3561Z" fill="white"/>
<path d="M275.594 21.4438V21.6394C275.63 21.9585 275.561 22.2806 275.399 22.5577C275.236 22.8347 274.989 23.0517 274.693 23.1764C274.991 23.3017 275.24 23.5209 275.403 23.8008C275.566 24.0807 275.633 24.4059 275.594 24.7273V25.3002C275.594 26.4459 275.063 27.1935 273.91 27.1935C272.757 27.1935 272.233 26.4459 272.233 25.3002V24.7902H273.016V25.3631C273.016 26.0617 273.288 26.4389 273.889 26.4389C274.49 26.4389 274.762 26.0477 274.762 25.2862V24.7133C274.762 23.9728 274.455 23.6235 273.826 23.6025H273.379V22.848H273.868C273.997 22.8483 274.125 22.8208 274.243 22.7674C274.36 22.714 274.465 22.636 274.55 22.5386C274.634 22.4412 274.697 22.3267 274.734 22.2029C274.771 22.0791 274.78 21.9489 274.762 21.821V21.4787C274.762 20.7102 274.497 20.312 273.889 20.312C273.281 20.312 273.016 20.7312 273.016 21.4018V21.7861H272.233V21.4438C272.233 20.305 272.764 19.5645 273.91 19.5645C275.056 19.5645 275.594 20.305 275.594 21.4438Z" fill="white"/>
<path d="M274.49 145.192C273.664 146.163 272.96 147.233 272.395 148.377C271.933 149.593 271.633 151.263 270.997 152.171C270.362 153.079 268.266 152.779 268.266 154.148C268.347 155.166 268.658 156.152 269.174 157.033C269.174 157.033 269.635 161.435 270.236 162.497C270.837 163.559 277.222 162.497 277.222 162.497C277.222 162.497 279.653 158.85 279.653 155.056C279.653 151.263 276.915 145.527 274.49 145.192Z" fill="white" stroke="#263238" stroke-width="0.9" stroke-miterlimit="10"/>
<path d="M273.254 152.143C273.191 152.681 272.974 153.1 272.765 153.079C272.555 153.058 272.436 152.597 272.499 152.052C272.562 151.507 272.779 151.095 272.981 151.116C273.184 151.137 273.331 151.598 273.254 152.143Z" fill="#263238"/>
<path d="M272.974 149.439C272.974 149.439 274.65 149.02 274.65 151.116" stroke="#263238" stroke-width="0.9" stroke-miterlimit="10"/>
<path d="M288.756 249.623L288.148 262.198C288.148 262.198 292.249 269.638 292.402 276.618C292.556 283.597 295.742 299.994 295.742 299.994L296.35 309.411L294.827 309.558L293.611 307.134C293.611 307.134 293.01 309.712 292.549 309.712C292.088 309.712 288.455 309.411 288.302 308.314C288.148 307.217 287.847 306.645 288.756 306.498C289.664 306.351 292.249 300.273 292.249 300.273C292.249 300.273 285.87 285.546 284.662 282.668C283.707 280.185 282.895 277.649 282.23 275.074C282.23 275.074 281.322 270.064 280.253 264.909C279.184 259.753 278.283 250.335 278.283 250.335L288.756 249.623Z" fill="white" stroke="#263238" stroke-width="0.9" stroke-miterlimit="10"/>
<path d="M292.249 300.322C291.488 302.6 290.272 306.093 290.272 306.093L288.756 306.547C287.848 306.694 288.149 307.301 288.302 308.363C288.456 309.425 292.096 309.761 292.55 309.761C293.004 309.761 293.612 307.183 293.612 307.183L294.827 309.607L296.35 309.46L295.743 300.043C295.743 300.043 293.011 298.045 292.249 300.322Z" fill="#263238" stroke="#263238" stroke-width="0.9" stroke-miterlimit="10"/>
<path d="M268.719 248.561C268.719 248.561 268.873 252.662 269.935 254.632C270.997 256.602 272.031 263.434 272.031 263.434C272.031 263.434 271.877 274.214 273.547 279.503C275.216 284.791 277.494 302.124 277.494 302.124C277.494 302.124 272.946 307.588 272.338 308.195C271.73 308.803 268.237 310.291 268.999 310.927C269.76 311.563 274.008 311.989 275.37 311.835C276.732 311.682 281.141 308.496 281.595 308.195C282.049 307.895 282.203 312.143 282.203 312.143H284.026L284.48 305.764C284.48 305.764 284.781 303.487 284.326 302.425C283.891 301.526 283.384 300.664 282.81 299.847L283.565 280.872C283.565 280.872 284.781 274.494 283.872 270.246C282.964 265.998 281.776 259.166 281.776 259.166L282.384 250.084L282.838 244.166C282.838 244.166 281.015 242.769 276.46 242.769C273.51 242.793 270.567 243.048 267.657 243.531L268.719 248.561Z" fill="white" stroke="#263238" stroke-width="0.9" stroke-miterlimit="10"/>
<path d="M284.508 305.785C284.508 305.785 284.808 303.508 284.354 302.446C284.024 301.739 283.639 301.059 283.201 300.413C282.1 301.09 281.107 301.929 280.253 302.9C279.045 304.423 276.46 307.609 275.097 308.363C274.098 308.922 272.303 308.908 271.395 308.859C270.193 309.558 268.467 310.501 269.026 310.955C269.781 311.563 274.036 312.017 275.398 311.863C276.76 311.71 281.168 308.524 281.623 308.223C282.077 307.923 282.23 312.171 282.23 312.171H284.054L284.508 305.785Z" fill="#263238" stroke="#263238" stroke-width="0.9" stroke-miterlimit="10"/>
<path d="M265.226 215.928C265.226 215.928 264.471 227.763 264.625 233.834C264.779 239.905 265.533 249.776 265.533 249.776C265.533 249.776 268.265 250.684 269.935 251.139C270.724 251.388 271.54 251.543 272.366 251.6L274.336 248.107L275.733 251.9C275.733 251.9 278.919 252.201 283.02 252.201C287.121 252.201 290.908 250.384 291.215 249.93C291.537 249.498 291.892 249.092 292.277 248.714L290.88 234.295C290.88 234.295 293.611 227.155 293.765 223.515C293.919 219.875 292.116 215.474 292.116 215.474C292.116 215.474 284.983 217.744 279.212 216.682C273.442 215.62 265.401 213.804 265.401 213.804L265.226 215.928Z" fill="#8094D4" stroke="#263238" stroke-width="0.9" stroke-miterlimit="10"/>
<path d="M290.719 190.428C290.719 190.428 293.598 203.003 293.451 204.847C293.304 206.692 289.958 212.281 289.958 212.281C289.958 212.281 286.318 205.602 285.71 201.801C285.102 198.001 285.71 195.123 286.465 193.76C287.219 192.398 289.35 188.87 289.35 188.87L290.719 190.428Z" fill="#8094D4" stroke="#263238" stroke-width="0.9" stroke-miterlimit="10"/>
<path d="M271.605 176.916C271.605 176.916 266.016 186.627 266.016 189.212C266.016 191.797 266.169 201.962 265.254 204.994C264.339 208.026 263.158 216.682 263.158 216.682C263.158 216.682 265.254 219.568 273.03 220.63C280.806 221.691 290.181 218.352 291.089 218.052C291.973 217.7 292.834 217.294 293.667 216.836L294.582 216.536C294.582 216.536 291.697 211.373 290.482 208.941C289.266 206.51 286.842 202.57 287.449 199.231C288.057 195.891 291.543 190.575 293.039 185.719C294.534 180.864 293.947 174.639 291.641 171.6C289.336 168.561 280.407 168.568 276.46 170.845C274.127 172.176 272.39 174.348 271.605 176.916Z" fill="#8094D4" stroke="#263238" stroke-width="0.9" stroke-miterlimit="10"/>
<path d="M276.802 138.087C274.385 139.135 272.485 141.028 273.121 143.676C274.183 148.077 277.375 150.962 277.375 154.756C277.375 158.549 275.552 165.99 272.974 168.868C270.396 171.747 268.265 181.017 270.543 181.318C272.82 181.618 272.059 177.825 275.244 174.939C278.43 172.054 282.685 174.338 283.747 178.586C284.809 182.834 282.992 186.627 285.263 189.359C287.533 192.091 292.857 191.029 294.827 187.689C296.797 184.35 295.134 181.471 296.35 180.102C297.566 178.733 300.29 176.462 299.382 172.969C298.474 169.476 292.703 168.868 293.311 164.166C293.919 159.465 297.412 153.233 295.889 149.439C294.366 145.646 291.488 141.244 289.063 139.575C286.973 138.259 284.605 137.446 282.147 137.199C280.319 137.043 278.481 137.348 276.802 138.087Z" fill="#263238" stroke="#263238" stroke-width="0.9" stroke-miterlimit="10"/>
<path d="M266.75 221.391C266.75 221.391 263.864 227.308 263.711 228.224C263.557 229.139 263.41 235.811 263.41 235.811C263.41 235.811 264.165 238.088 264.626 238.389C265.087 238.689 265.688 238.242 265.688 237.173V235.65C265.688 235.65 266.596 233.68 267.357 232.157C268.119 230.634 267.811 226.847 267.811 226.847L270.236 222.746L266.75 221.391Z" fill="white" stroke="#263238" stroke-width="0.9" stroke-miterlimit="10"/>
<path d="M265.533 223.361L269.327 225.946L270.843 222.753L266.749 221.391L265.533 223.361Z" fill="white" stroke="#263238" stroke-width="0.9" stroke-miterlimit="10"/>
<path d="M283.292 180.556C283.292 180.556 281.015 173.731 276.767 174.031C272.519 174.332 271.451 183.896 271.451 187.843C271.451 191.79 272.058 206.664 272.058 206.664L265.987 221.391L270.389 224.123C270.389 224.123 280.561 208.942 280.868 208.187C281.175 207.433 282.084 187.543 282.084 187.543" fill="#8094D4"/>
<path d="M283.292 180.556C283.292 180.556 281.015 173.731 276.767 174.031C272.519 174.332 271.451 183.896 271.451 187.843C271.451 191.79 272.058 206.664 272.058 206.664L265.987 221.391L270.389 224.123C270.389 224.123 280.561 208.942 280.868 208.187C281.175 207.433 282.084 187.543 282.084 187.543" stroke="#263238" stroke-width="0.9" stroke-miterlimit="10"/>
<path d="M227.725 151.759C227.725 151.759 229.695 151.612 229.087 153.275C228.479 154.938 227.424 156 226.67 156.153C226.269 156.237 225.863 156.286 225.454 156.3L227.725 151.759Z" stroke="#263238" stroke-width="0.9" stroke-miterlimit="10"/>
<path d="M211.377 151.004C211.377 151.004 209.561 151.305 209.868 152.667C210.175 154.029 211.265 156.3 211.831 156.454C212.397 156.607 213.347 155.699 213.347 155.699L211.377 151.004Z" fill="white" stroke="#263238" stroke-width="0.9" stroke-miterlimit="10"/>
<path d="M185.758 192.335C185.758 192.335 187.854 187.026 188.944 185.964C190.034 184.902 191.676 181.073 191.676 181.073L193.199 185.964L186.212 193.704C186.212 193.704 185.605 193.851 185.758 192.335Z" fill="white" stroke="#263238" stroke-width="0.9" stroke-miterlimit="10"/>
<path d="M187.532 171.118L191.312 186.488C191.363 186.701 191.457 186.901 191.589 187.076C191.721 187.25 191.888 187.396 192.079 187.504C192.269 187.611 192.48 187.678 192.698 187.701C192.916 187.723 193.136 187.7 193.345 187.633L202.532 184.755C202.922 184.634 203.251 184.368 203.452 184.012C203.653 183.657 203.711 183.238 203.615 182.841L199.898 167.883C199.846 167.676 199.753 167.482 199.625 167.311C199.497 167.139 199.337 166.996 199.153 166.887C198.969 166.779 198.765 166.708 198.554 166.678C198.342 166.649 198.127 166.662 197.921 166.717L188.65 169.218C188.257 169.334 187.924 169.594 187.716 169.947C187.508 170.3 187.443 170.718 187.532 171.118Z" fill="#263238" stroke="#263238" stroke-width="0.9" stroke-miterlimit="10"/>
<path d="M213.801 156.908L213.647 164.628L224.399 165.689L224.092 158.116L213.801 156.908Z" fill="white" stroke="#263238" stroke-width="0.9" stroke-miterlimit="10"/>
<path d="M215.01 136.773C215.01 136.773 210.776 139.798 209.868 142.977C208.96 146.156 210.469 150.397 211.076 151.612C211.684 152.828 213.647 158.116 214.409 159.025C215.17 159.933 218.643 161.449 219.858 161.121C221.074 160.792 224.853 160.359 225.307 158.85C225.762 157.341 228.179 151.584 228.486 150.676C228.794 149.768 229.695 143.257 228.787 141.894C227.616 140.402 226.351 138.986 225 137.654C223.976 136.251 222.467 135.279 220.766 134.929C217.888 134.349 215.01 136.773 215.01 136.773Z" fill="#263238" stroke="#263238" stroke-width="0.9" stroke-miterlimit="10"/>
<path d="M209.26 166.144C209.919 165.146 210.82 164.331 211.879 163.775C212.938 163.219 214.121 162.94 215.317 162.965C219.551 162.965 223.638 163.112 224.699 163.419C225.761 163.726 227.724 167.506 227.724 167.506C227.724 167.506 216.826 166.744 213.801 166.744C211.825 166.76 209.853 166.912 207.897 167.199L209.26 166.144Z" fill="white" stroke="#263238" stroke-width="0.9" stroke-miterlimit="10"/>
<path d="M231.966 157.97C231.03 156.922 230.171 155.808 229.395 154.637C229.198 154.249 229.121 153.811 229.175 153.379C229.228 152.947 229.409 152.541 229.695 152.213C230.072 152 230.48 151.847 230.904 151.759C230.904 151.759 231.358 147.518 231.211 146.917C231.064 146.317 231.665 146.156 232.42 146.31C233.174 146.463 233.482 149.942 233.482 149.942C234.22 150.193 234.891 150.609 235.445 151.158C236.353 152.066 236.507 154.029 236.507 154.651V157.075L236.807 159.171L232.573 160.233L231.966 157.97Z" fill="white" stroke="#263238" stroke-width="0.9" stroke-miterlimit="10"/>
<path d="M233.174 170.831C233.174 170.831 232.266 160.086 232.266 159.479C232.266 158.871 233.481 157.816 234.69 157.816C235.898 157.816 237.114 159.025 237.114 159.025C237.114 159.025 241.501 171.893 242.41 173.102C243.318 174.311 245.134 179.313 245.134 180.787C245.134 182.261 239.685 180.64 238.148 179.278C236.611 177.915 233.607 172.291 233.607 172.291L233.174 170.831Z" fill="white" stroke="#263238" stroke-width="0.9" stroke-miterlimit="10"/>
<path d="M202.301 212.372L200.939 227.399C200.939 227.399 199.542 262.463 199.542 264.895C199.542 267.326 199.996 284.777 200.604 289.347C201.212 293.916 201.058 302.096 201.058 302.096C201.058 302.096 199.241 303.005 199.241 303.913V305.583C198.174 306.212 197.158 306.924 196.202 307.713C195.448 308.468 194.533 310.138 195.595 311.053C196.656 311.968 204.251 315 205.312 315C206.374 315 209.106 314.539 209.714 313.477C210.322 312.415 209.868 307.56 209.868 307.56C209.868 307.56 211.23 305.464 211.23 304.674C211.23 303.885 211.076 302.851 211.076 301.642C211.076 300.434 211.684 286.308 211.684 286.308C211.684 286.308 213.78 256.707 214.115 256.267C214.451 255.826 215.785 235.168 215.785 235.168L218.363 235.475L221.856 260.822C221.856 260.822 226.565 284.498 226.711 285.274C226.858 286.049 229.143 298.631 229.143 298.631V302.579C229.143 303.794 230.659 306.218 230.659 306.218C230.659 306.218 230.358 310.019 231.113 311.381C231.867 312.744 234.913 312.897 237.191 312.143C239.468 311.388 239.007 308.349 239.007 306.826C239.007 305.303 238.861 303.794 238.861 303.794C238.776 302.531 238.776 301.264 238.861 300.001C239.007 298.478 237.645 294.076 237.645 293.322C237.645 292.567 238.099 274.193 237.792 270.267C237.484 266.341 234.941 253.814 234.941 253.814C234.941 253.814 233.432 230.438 233.432 229.83C233.432 229.223 233.495 213.063 233.495 213.063C233.495 213.063 227.361 214.642 217.042 213.58C206.724 212.518 202.169 211.603 202.169 211.603L202.301 212.372Z" fill="#263238" stroke="#263238" stroke-width="0.9" stroke-miterlimit="10"/>
<path d="M207.898 167.185C207.898 167.185 196.999 171.579 197.453 172.18C197.907 172.781 192.304 183.358 191.864 183.986C191.424 184.615 185.961 191.56 185.353 192.922C184.745 194.284 183.536 196.101 185.506 198.218C187.477 200.334 188.385 201.096 191.096 200.642C193.806 200.188 200.778 192.335 200.778 192.335C200.778 192.335 201.086 202.179 201.233 204.75C201.379 207.321 201.386 208.082 201.386 209.444C201.386 210.807 200.632 211.54 202.448 213.224C204.265 214.908 211.984 217.011 217.434 216.717C222.883 216.424 227.27 216.41 229.394 215.809C231.518 215.208 233.174 214.901 233.481 213.084C233.774 210.318 233.926 207.538 233.935 204.757C233.935 203.241 234.844 187.501 234.844 187.501C234.844 187.501 239.685 187.955 241.956 187.501C244.226 187.046 245.742 182.806 245.134 180.836C244.527 178.866 242.109 177.343 240.894 176.148C239.678 174.953 238.931 173.27 237.261 171.453C235.591 169.637 234.844 169.637 233.481 169.357C232.119 169.078 227.725 167.541 227.725 167.541C227.725 167.541 216.826 166.144 207.898 167.185Z" fill="white" stroke="#263238" stroke-width="0.9" stroke-miterlimit="10"/>
<path d="M217.909 211.806C220.294 209.941 222.54 207.905 224.63 205.714" stroke="#263238" stroke-width="0.9" stroke-miterlimit="10"/>
<path d="M214.64 214.398L215.848 213.462" stroke="#263238" stroke-width="0.9" stroke-miterlimit="10"/>
<path d="M222.023 212.225L225.496 209.186" stroke="#263238" stroke-width="0.9" stroke-miterlimit="10"/>
<path d="M200.779 192.328L198.208 177.189" stroke="#263238" stroke-width="0.9" stroke-miterlimit="10"/>
<path d="M195.783 179.459L199.57 184.762" stroke="#263238" stroke-width="0.9" stroke-miterlimit="10"/>
<path d="M209.413 169.015C213.03 173.042 215.853 177.716 217.734 182.792" stroke="#263238" stroke-width="0.9" stroke-miterlimit="10"/>
<path d="M215.163 173.864C215.163 173.864 218.496 179.767 219.404 181.884" stroke="#263238" stroke-width="0.9" stroke-miterlimit="10"/>
<path d="M236.052 171.139C236.052 171.139 237.114 175.98 237.26 176.588" stroke="#263238" stroke-width="0.9" stroke-miterlimit="10"/>
<path d="M237.568 180.822C237.261 182.338 234.844 187.487 234.844 187.487C234.844 187.487 238.623 183.092 238.931 182.638" stroke="#263238" stroke-width="0.9" stroke-miterlimit="10"/>
</svg>
