<svg width="324" height="230" viewBox="0 0 324 230" fill="none" xmlns="http://www.w3.org/2000/svg">
<path d="M46.6101 205.74C107.51 237.553 206.241 237.553 267.134 205.74C328.027 173.928 328.034 122.345 267.134 90.5325C206.234 58.7196 107.503 58.7196 46.6101 90.5325C-14.2827 122.345 -14.2899 173.928 46.6101 205.74Z" fill="#FAFAFA"/>
<path d="M192.781 162.669C178.455 170.933 178.455 184.343 192.781 192.614C207.106 200.885 230.321 200.885 244.646 192.614C258.972 184.343 258.965 170.933 244.646 162.669C230.328 154.405 207.099 154.398 192.781 162.669Z" fill="#EBEBEB"/>
<path d="M41.9513 44.125L80.3273 32.1907L50.8039 52.6433L41.9513 44.125Z" fill="#8094D4"/>
<path d="M80.3272 32.1907L38.9931 39.0082L30.1404 30.4827L80.3272 32.1907Z" fill="#8094D4"/>
<path d="M38.9931 39.0082V49.2346L41.9513 44.125L80.3272 32.1907L38.9931 39.0082Z" fill="#455A64"/>
<path d="M38.9931 49.2343L44.9021 46.9666L41.9513 44.1248L38.9931 49.2343Z" fill="#8094D4"/>
<path d="M41.9512 44.1248L44.9021 46.9666L43.9573 47.3228L41.9512 44.1248Z" fill="#455A64"/>
<path d="M32.6334 47.6935C32.5112 47.6958 32.3918 47.657 32.2943 47.5832C32.1969 47.5095 32.127 47.4051 32.096 47.2869C32.065 47.1686 32.0746 47.0434 32.1233 46.9313C32.172 46.8192 32.2569 46.7267 32.3645 46.6687C33.0186 46.3053 33.68 45.9419 34.3342 45.6584C34.399 45.6233 34.4704 45.6018 34.5438 45.595C34.6172 45.5883 34.6913 45.5966 34.7614 45.6193C34.8316 45.642 34.8964 45.6787 34.952 45.7272C35.0076 45.7757 35.0527 45.835 35.0847 45.9014C35.1167 45.9679 35.1349 46.0401 35.1381 46.1138C35.1414 46.1875 35.1297 46.261 35.1037 46.33C35.0777 46.3991 35.0379 46.4621 34.9869 46.5153C34.9358 46.5685 34.8745 46.6108 34.8066 46.6396C34.1743 46.9449 33.5274 47.272 32.8951 47.6281C32.8142 47.6701 32.7246 47.6925 32.6334 47.6935Z" fill="#E0E0E0"/>
<path d="M25.9249 106.392C25.8135 106.393 25.7045 106.36 25.6124 106.297C24.4303 105.464 23.3105 104.546 22.2618 103.55C22.1953 103.507 22.139 103.449 22.0969 103.382C22.0548 103.315 22.0278 103.24 22.0178 103.161C22.0078 103.082 22.0151 103.003 22.0391 102.927C22.0631 102.852 22.1033 102.782 22.1569 102.724C22.2104 102.666 22.2761 102.619 22.3492 102.589C22.4224 102.559 22.5013 102.545 22.5805 102.548C22.6597 102.551 22.7372 102.571 22.8077 102.608C22.8781 102.644 22.9399 102.695 22.9886 102.757C24.0001 103.718 25.0812 104.602 26.2229 105.403C26.317 105.47 26.3873 105.566 26.4235 105.676C26.4597 105.786 26.46 105.904 26.4244 106.014C26.3888 106.124 26.3191 106.22 26.2254 106.288C26.1317 106.356 26.0188 106.392 25.9031 106.392H25.9249ZM20.2267 101.1C20.1462 101.101 20.0665 101.084 19.9936 101.05C19.9206 101.016 19.8562 100.966 19.8051 100.904C18.8893 99.7863 18.0561 98.6033 17.3121 97.3644C17.237 97.2401 17.2142 97.091 17.249 96.9499C17.2838 96.8088 17.3731 96.6873 17.4975 96.6122C17.6218 96.537 17.7709 96.5143 17.912 96.549C18.0531 96.5838 18.1745 96.6732 18.2497 96.7975C18.9663 97.9922 19.7679 99.1338 20.6482 100.214C20.739 100.325 20.7823 100.467 20.7687 100.61C20.7551 100.753 20.6857 100.885 20.5755 100.977C20.4782 101.059 20.3541 101.103 20.2267 101.1ZM16.1347 94.4862C16.0291 94.4872 15.9255 94.4575 15.8365 94.4008C15.7474 94.344 15.6768 94.2626 15.6332 94.1664C15.0392 92.8506 14.5295 91.4985 14.1069 90.1181C14.0759 89.9838 14.0969 89.8427 14.1657 89.7233C14.2345 89.6039 14.346 89.5149 14.4777 89.4744C14.6094 89.4339 14.7516 89.4447 14.8757 89.5048C14.9997 89.5649 15.0964 89.6698 15.1462 89.7982C15.548 91.1333 16.0335 92.4418 16.5998 93.7158C16.6303 93.7811 16.6475 93.8518 16.6505 93.9238C16.6534 93.9959 16.6421 94.0677 16.617 94.1353C16.592 94.2029 16.5539 94.2649 16.5048 94.3176C16.4556 94.3704 16.3966 94.4129 16.3309 94.4426C16.2691 94.4701 16.2023 94.4849 16.1347 94.4862ZM13.7725 87.0654C13.6465 87.0643 13.5247 87.0195 13.4279 86.9386C13.3312 86.8578 13.2655 86.7459 13.242 86.6221C12.9645 85.2099 12.7679 83.783 12.6532 82.3484C12.6417 82.2038 12.688 82.0606 12.782 81.9501C12.8761 81.8397 13.0102 81.7712 13.1547 81.7596C13.2993 81.7481 13.4426 81.7944 13.553 81.8885C13.6634 81.9825 13.7319 82.1166 13.7435 82.2612C13.8504 83.6545 14.0397 85.0403 14.3104 86.4113C14.3251 86.4815 14.3257 86.554 14.312 86.6244C14.2984 86.6949 14.2707 86.7619 14.2308 86.8215C14.1908 86.8811 14.1393 86.9321 14.0793 86.9715C14.0194 87.0109 13.9521 87.0379 13.8815 87.0509L13.7725 87.0654ZM13.082 79.303C13.0102 79.303 12.939 79.2887 12.8728 79.2607C12.8066 79.2328 12.7466 79.1919 12.6965 79.1404C12.6464 79.0889 12.6071 79.0279 12.5809 78.9609C12.5547 78.894 12.5423 78.8225 12.5442 78.7506C12.5612 77.3121 12.6583 75.8756 12.8349 74.4479C12.8358 74.3712 12.8527 74.2956 12.8848 74.226C12.9168 74.1564 12.9631 74.0943 13.0208 74.0438C13.0784 73.9933 13.1461 73.9555 13.2193 73.9329C13.2926 73.9103 13.3697 73.9034 13.4458 73.9126C13.5219 73.9219 13.5952 73.9471 13.6609 73.9866C13.7266 74.0261 13.7832 74.079 13.827 74.1418C13.8709 74.2047 13.901 74.2761 13.9154 74.3513C13.9298 74.4266 13.9282 74.5041 13.9106 74.5787C13.7426 75.9681 13.6504 77.3657 13.6344 78.7652C13.6335 78.8367 13.6184 78.9074 13.5902 78.9732C13.5619 79.039 13.5209 79.0986 13.4696 79.1485C13.4184 79.1984 13.3577 79.2378 13.2912 79.2643C13.2247 79.2908 13.1536 79.304 13.082 79.303ZM13.9688 71.5624C13.9279 71.5694 13.8861 71.5694 13.8452 71.5624C13.7048 71.5311 13.5824 71.4455 13.5048 71.3243C13.4272 71.2031 13.4006 71.0562 13.4309 70.9155C13.7494 69.5076 14.1572 68.1214 14.652 66.7654C14.6761 66.6946 14.7144 66.6296 14.7647 66.5743C14.815 66.519 14.8762 66.4746 14.9443 66.4439C15.0125 66.4133 15.0862 66.3969 15.161 66.396C15.2357 66.395 15.3099 66.4094 15.3788 66.4383C15.4489 66.4633 15.5133 66.5022 15.568 66.5527C15.6227 66.6031 15.6667 66.6641 15.6972 66.732C15.7278 66.7999 15.7443 66.8733 15.7458 66.9477C15.7473 67.0221 15.7337 67.0961 15.7059 67.1651C15.229 68.4762 14.8357 69.8163 14.5284 71.1772C14.4925 71.2953 14.4176 71.3977 14.3159 71.4676C14.2143 71.5376 14.0919 71.571 13.9688 71.5624ZM16.5562 64.2215C16.4724 64.2248 16.3894 64.2047 16.3164 64.1634C16.2514 64.1331 16.193 64.09 16.1449 64.0368C16.0967 63.9836 16.0597 63.9213 16.036 63.8536C16.0123 63.7859 16.0024 63.7141 16.0069 63.6425C16.0113 63.5708 16.0301 63.5008 16.062 63.4366C16.6964 62.1413 17.41 60.8864 18.1988 59.6789C18.2783 59.5663 18.3974 59.488 18.5322 59.4597C18.6671 59.4314 18.8077 59.4552 18.9257 59.5263C19.0409 59.6035 19.1218 59.7222 19.1516 59.8576C19.1814 59.993 19.1577 60.1347 19.0856 60.2531C18.3188 61.4194 17.627 62.6332 17.0141 63.8872C16.9765 63.98 16.9137 64.0605 16.8328 64.1196C16.7519 64.1787 16.6561 64.214 16.5562 64.2215ZM20.7354 57.6802C20.6139 57.6814 20.4957 57.6403 20.4011 57.5639C20.3444 57.5193 20.2972 57.4639 20.2621 57.4009C20.227 57.3379 20.2047 57.2685 20.1966 57.1969C20.1885 57.1252 20.1947 57.0527 20.2148 56.9834C20.235 56.9142 20.2686 56.8496 20.3139 56.7935C21.2222 55.6714 22.1928 54.6013 23.2212 53.5882C23.3234 53.4861 23.4619 53.4288 23.6064 53.4288C23.7508 53.4288 23.8894 53.4861 23.9916 53.5882C24.0937 53.6904 24.151 53.8289 24.151 53.9734C24.151 54.1179 24.0937 54.2564 23.9916 54.3586C23.0011 55.3468 22.0645 56.3877 21.1861 57.4767C21.1298 57.5389 21.0597 57.587 20.9814 57.6173C20.9032 57.6476 20.819 57.6592 20.7354 57.6511V57.6802ZM26.2011 52.0982C26.1219 52.098 26.0436 52.0804 25.972 52.0464C25.9004 52.0125 25.8372 51.9632 25.7868 51.902C25.6948 51.7905 25.65 51.6474 25.6623 51.5034C25.6745 51.3594 25.7427 51.2259 25.8522 51.1315C26.9587 50.2114 28.111 49.3478 29.3046 48.5441C29.4218 48.4722 29.5618 48.4473 29.6965 48.4742C29.8313 48.5012 29.9509 48.578 30.0314 48.6894C30.1126 48.8102 30.1428 48.958 30.1156 49.1009C30.0884 49.2438 30.0059 49.3701 29.8861 49.4526C28.7215 50.2345 27.5983 51.0764 26.5209 51.9747C26.4296 52.0479 26.3179 52.091 26.2011 52.0982Z" fill="#E0E0E0"/>
<path d="M30.9254 109.233C30.8474 109.234 30.7703 109.217 30.7001 109.183C30.0242 108.877 29.3555 108.55 28.7159 108.201C28.6534 108.169 28.5979 108.124 28.5528 108.069C28.5076 108.015 28.4736 107.952 28.4526 107.885C28.4317 107.817 28.4243 107.746 28.4308 107.676C28.4373 107.605 28.4576 107.537 28.4906 107.475C28.5585 107.35 28.6724 107.256 28.8082 107.214C28.944 107.172 29.0908 107.185 29.2174 107.249C29.8425 107.584 30.4894 107.903 31.1435 108.201C31.2557 108.254 31.3468 108.342 31.4018 108.453C31.4568 108.564 31.4725 108.69 31.4463 108.811C31.4201 108.932 31.3535 109.04 31.2576 109.119C31.1616 109.197 31.0419 109.24 30.9182 109.241L30.9254 109.233Z" fill="#E0E0E0"/>
<path d="M279.534 82.8573L310.278 63.175L323.819 67.5214L279.534 82.8573Z" fill="#8094D4"/>
<path d="M279.534 82.8572L306.106 60.7038L300.197 53.8862L279.534 82.8572Z" fill="#8094D4"/>
<path d="M306.106 60.7039V65.8425L279.534 82.8573L306.106 60.7039Z" fill="#455A64"/>
<path d="M312.102 58.5596C311.97 58.5601 311.843 58.5108 311.746 58.4215C311.639 58.3252 311.573 58.1907 311.564 58.0467C311.554 57.9027 311.601 57.7607 311.695 57.6511C312.642 56.5953 313.482 55.4487 314.203 54.2278C314.276 54.1025 314.396 54.0114 314.536 53.9746C314.677 53.9378 314.826 53.9583 314.951 54.0316C315.077 54.1048 315.168 54.2248 315.205 54.3652C315.241 54.5056 315.221 54.6549 315.148 54.7802C314.386 56.06 313.506 57.2646 312.517 58.3779C312.465 58.4361 312.401 58.4824 312.329 58.5138C312.258 58.5451 312.18 58.5608 312.102 58.5596ZM316.26 51.7857C316.195 51.796 316.128 51.796 316.063 51.7857C315.995 51.7594 315.932 51.7194 315.879 51.6682C315.826 51.6169 315.784 51.5555 315.755 51.4875C315.727 51.4196 315.712 51.3466 315.713 51.2729C315.713 51.1992 315.729 51.1264 315.758 51.0589C316.272 49.735 316.656 48.3647 316.907 46.9669C316.933 46.8242 317.014 46.6978 317.133 46.6153C317.253 46.5328 317.4 46.5011 317.543 46.5272C317.685 46.5532 317.812 46.6348 317.894 46.7541C317.977 46.8733 318.008 47.0205 317.982 47.1631C317.714 48.6278 317.308 50.0636 316.768 51.4514C316.727 51.552 316.657 51.6378 316.566 51.6974C316.475 51.7571 316.368 51.7879 316.26 51.7857ZM317.815 43.9869C317.744 43.986 317.673 43.9709 317.608 43.9425C317.543 43.9142 317.484 43.8731 317.434 43.8217C317.385 43.7703 317.346 43.7096 317.321 43.6432C317.295 43.5767 317.283 43.5058 317.285 43.4345C317.285 43.2456 317.285 43.0566 317.285 42.8676C317.281 41.6337 317.184 40.4018 316.994 39.1827C316.973 39.0392 317.009 38.8933 317.095 38.7764C317.18 38.6595 317.309 38.5809 317.452 38.5576C317.595 38.5385 317.74 38.5755 317.856 38.6609C317.973 38.7462 318.052 38.8733 318.077 39.0155C318.273 40.2902 318.373 41.5779 318.375 42.8676C318.375 43.0639 318.375 43.2601 318.375 43.4564C318.369 43.6003 318.307 43.7363 318.203 43.8355C318.098 43.9346 317.959 43.9889 317.815 43.9869ZM316.718 36.1082C316.601 36.1078 316.487 36.0693 316.394 35.9985C316.301 35.9276 316.233 35.8284 316.202 35.7157C315.785 34.352 315.262 33.0228 314.639 31.7401C314.607 31.6758 314.588 31.6058 314.584 31.5342C314.579 31.4625 314.589 31.3908 314.613 31.323C314.637 31.2553 314.674 31.193 314.722 31.1398C314.77 31.0866 314.828 31.0436 314.893 31.0132C315.023 30.9508 315.173 30.9424 315.309 30.9901C315.446 31.0378 315.557 31.1376 315.62 31.2676C316.27 32.6005 316.812 33.9835 317.241 35.4032C317.262 35.4714 317.269 35.5432 317.263 35.6143C317.256 35.6854 317.235 35.7545 317.201 35.8174C317.167 35.8803 317.121 35.9359 317.066 35.9808C317.01 36.0258 316.946 36.0592 316.878 36.0792C316.827 36.0993 316.772 36.1092 316.718 36.1082ZM313.345 28.8909C313.253 28.8918 313.163 28.8688 313.083 28.8242C313.002 28.7796 312.935 28.7149 312.887 28.6365C312.108 27.4404 311.251 26.2969 310.322 25.2132C310.275 25.1589 310.239 25.0958 310.216 25.0276C310.194 24.9595 310.185 24.8875 310.191 24.8159C310.196 24.7443 310.215 24.6745 310.248 24.6105C310.28 24.5465 310.325 24.4895 310.38 24.4428C310.433 24.3961 310.496 24.3605 310.564 24.3381C310.631 24.3157 310.702 24.307 310.773 24.3124C310.844 24.3178 310.914 24.3373 310.977 24.3696C311.041 24.402 311.097 24.4466 311.143 24.5009C312.108 25.6226 312.996 26.8075 313.803 28.0478C313.87 28.1675 313.891 28.3077 313.861 28.4416C313.832 28.5756 313.754 28.6941 313.643 28.7746C313.556 28.8386 313.453 28.8764 313.345 28.8837V28.8909ZM308.257 22.7784C308.119 22.7779 307.986 22.7231 307.887 22.6257C306.84 21.6462 305.741 20.7242 304.594 19.8638C304.537 19.8209 304.489 19.7671 304.452 19.7055C304.416 19.6439 304.392 19.5757 304.382 19.5048C304.372 19.434 304.376 19.3618 304.393 19.2925C304.411 19.2231 304.442 19.158 304.485 19.1007C304.528 19.0434 304.582 18.9952 304.644 18.9587C304.705 18.9222 304.773 18.8982 304.844 18.8881C304.915 18.878 304.987 18.8819 305.057 18.8997C305.126 18.9175 305.191 18.9487 305.248 18.9917C306.43 19.8747 307.561 20.8235 308.635 21.8335C308.716 21.9084 308.772 22.0061 308.797 22.1136C308.821 22.2211 308.812 22.3334 308.771 22.4358C308.73 22.5381 308.659 22.6256 308.567 22.6868C308.476 22.7479 308.368 22.7799 308.257 22.7784ZM301.883 17.9378C301.78 17.9368 301.679 17.9066 301.593 17.8506C301.098 17.5453 300.582 17.24 300.059 16.942C299.332 16.535 298.605 16.128 297.835 15.7428C297.765 15.7146 297.701 15.672 297.648 15.6178C297.595 15.5636 297.554 15.499 297.527 15.428C297.501 15.3571 297.489 15.2814 297.494 15.2057C297.498 15.1301 297.518 15.0561 297.552 14.9887C297.587 14.9212 297.635 14.8617 297.694 14.8139C297.753 14.7661 297.821 14.731 297.894 14.711C297.967 14.691 298.043 14.6865 298.118 14.6977C298.193 14.7089 298.265 14.7356 298.329 14.7761C299.092 15.1686 299.855 15.5756 300.597 15.9972C301.135 16.2952 301.658 16.6077 302.167 16.9275C302.284 17.0025 302.368 17.1196 302.402 17.2547C302.436 17.3899 302.417 17.5329 302.348 17.6543C302.301 17.7373 302.234 17.8069 302.153 17.8565C302.071 17.9061 301.979 17.9341 301.883 17.9378ZM236.724 17.5671C236.628 17.5661 236.534 17.54 236.451 17.4916C236.368 17.4432 236.3 17.374 236.252 17.2909C236.183 17.1682 236.165 17.0233 236.201 16.8874C236.238 16.7516 236.327 16.6355 236.448 16.5641C237.712 15.8373 239.013 15.1105 240.329 14.4999C240.458 14.4369 240.607 14.4276 240.743 14.4738C240.879 14.5201 240.992 14.6183 241.056 14.747C241.116 14.8775 241.124 15.0264 241.076 15.1621C241.029 15.2978 240.93 15.4097 240.801 15.4739C239.508 16.1062 238.229 16.7821 236.986 17.5017C236.904 17.5413 236.814 17.5588 236.724 17.5526V17.5671ZM294.797 14.2455C294.721 14.246 294.646 14.2286 294.579 14.1947C293.27 13.6205 291.919 13.0826 290.567 12.6029C290.43 12.5538 290.318 12.4523 290.256 12.3207C290.194 12.1892 290.187 12.0384 290.236 11.9016C290.285 11.7647 290.387 11.653 290.518 11.5909C290.65 11.5289 290.801 11.5217 290.937 11.5708C292.311 12.0651 293.685 12.6102 295.022 13.1989C295.139 13.2485 295.234 13.3372 295.293 13.4496C295.351 13.5621 295.368 13.6914 295.342 13.8153C295.315 13.9391 295.246 14.0499 295.147 14.1284C295.047 14.2069 294.923 14.2483 294.797 14.2455ZM243.883 14.0202C243.776 14.021 243.671 13.9895 243.581 13.9299C243.492 13.8703 243.422 13.7853 243.382 13.6859C243.352 13.6192 243.336 13.5473 243.334 13.4743C243.333 13.4013 243.346 13.3287 243.373 13.2609C243.4 13.1932 243.441 13.1315 243.492 13.0796C243.544 13.0278 243.605 12.9868 243.672 12.9591C245.017 12.3922 246.398 11.8688 247.779 11.3964C247.848 11.3677 247.923 11.3536 247.998 11.355C248.073 11.3564 248.147 11.3734 248.215 11.4048C248.284 11.4362 248.345 11.4813 248.395 11.5374C248.445 11.5935 248.482 11.6593 248.506 11.7307C248.532 11.8008 248.544 11.8755 248.541 11.9503C248.538 12.0251 248.52 12.0986 248.489 12.1664C248.457 12.2342 248.412 12.2949 248.356 12.3449C248.3 12.3949 248.235 12.4332 248.164 12.4576C246.805 12.9227 245.439 13.4388 244.123 13.9912C244.045 14.0129 243.963 14.0178 243.883 14.0057V14.0202ZM287.296 11.5054C287.245 11.5125 287.194 11.5125 287.143 11.5054C285.77 11.1057 284.36 10.7786 282.957 10.437C282.887 10.4217 282.82 10.3928 282.761 10.3518C282.702 10.3109 282.652 10.2587 282.613 10.1983C282.574 10.1379 282.548 10.0705 282.535 9.9998C282.522 9.92914 282.524 9.85667 282.539 9.78651C282.554 9.71636 282.583 9.6499 282.624 9.59093C282.665 9.53196 282.717 9.48164 282.778 9.44283C282.838 9.40402 282.906 9.37749 282.976 9.36475C283.047 9.35202 283.119 9.35332 283.189 9.36859C284.643 9.68112 286.053 10.0518 287.449 10.4588C287.575 10.4956 287.683 10.5765 287.754 10.6868C287.825 10.7971 287.854 10.9293 287.836 11.0592C287.817 11.1891 287.752 11.308 287.653 11.3939C287.554 11.4799 287.427 11.5272 287.296 11.5272V11.5054ZM251.428 11.3964C251.309 11.396 251.193 11.3567 251.099 11.2845C251.004 11.2123 250.936 11.1112 250.904 10.9967C250.884 10.9284 250.878 10.8569 250.886 10.7862C250.894 10.7156 250.916 10.6472 250.95 10.585C250.985 10.5228 251.031 10.4681 251.087 10.424C251.143 10.3799 251.206 10.3472 251.275 10.328C252.678 9.93551 254.117 9.60117 255.549 9.28137C255.621 9.25821 255.698 9.25052 255.773 9.25878C255.849 9.26704 255.922 9.29108 255.988 9.32934C256.054 9.3676 256.111 9.41924 256.156 9.48092C256.2 9.5426 256.232 9.61296 256.248 9.68746C256.263 9.76196 256.263 9.83895 256.248 9.91347C256.232 9.98798 256.201 10.0584 256.156 10.1201C256.111 10.1818 256.054 10.2335 255.989 10.2718C255.923 10.3101 255.85 10.3342 255.774 10.3425C254.364 10.6405 252.954 10.9894 251.573 11.3746L251.428 11.3964ZM279.505 9.7538H279.395C277.978 9.52849 276.532 9.34679 275.107 9.21596C275.032 9.21514 274.958 9.19882 274.89 9.16802C274.821 9.13723 274.76 9.09262 274.709 9.03699C274.659 8.98137 274.621 8.91594 274.597 8.84478C274.573 8.77363 274.564 8.69829 274.57 8.6235C274.577 8.5487 274.599 8.47606 274.635 8.41013C274.67 8.3442 274.72 8.2864 274.779 8.24035C274.838 8.1943 274.906 8.161 274.979 8.14252C275.052 8.12405 275.128 8.12081 275.202 8.133C276.655 8.26383 278.109 8.44553 279.563 8.67812C279.704 8.70307 279.831 8.78235 279.915 8.8991C279.999 9.01584 280.034 9.16082 280.013 9.30318C279.988 9.4208 279.924 9.52665 279.832 9.60422C279.74 9.68179 279.625 9.72672 279.505 9.732V9.7538ZM259.234 9.70293C259.104 9.70287 258.979 9.65677 258.88 9.57288C258.782 9.48899 258.716 9.37278 258.696 9.24503C258.675 9.1016 258.711 8.95568 258.797 8.83875C258.882 8.72181 259.011 8.64324 259.154 8.61997C260.607 8.40192 262.061 8.22022 263.515 8.09666C263.586 8.09045 263.658 8.09841 263.727 8.12008C263.795 8.14174 263.859 8.17668 263.914 8.22291C263.969 8.26914 264.014 8.32576 264.047 8.38952C264.08 8.45328 264.101 8.52294 264.107 8.59453C264.113 8.66611 264.105 8.73822 264.083 8.80673C264.062 8.87524 264.027 8.93881 263.981 8.99382C263.934 9.04882 263.878 9.09419 263.814 9.12731C263.75 9.16044 263.681 9.18068 263.609 9.18689C262.155 9.31044 260.738 9.47761 259.321 9.70293H259.234ZM271.553 8.97611C270.099 8.92523 268.646 8.91796 267.229 8.97611C267.157 8.98004 267.086 8.96946 267.018 8.94502C266.951 8.92057 266.889 8.88277 266.837 8.83388C266.785 8.78499 266.743 8.72602 266.714 8.66053C266.685 8.59504 266.67 8.52438 266.669 8.4528C266.666 8.38096 266.678 8.30927 266.703 8.24196C266.728 8.17465 266.767 8.11308 266.816 8.06091C266.865 8.00873 266.925 7.96701 266.991 7.93819C267.057 7.90938 267.128 7.89406 267.199 7.89315C268.653 7.84227 270.107 7.84954 271.56 7.89315C271.632 7.89503 271.703 7.91101 271.768 7.94016C271.833 7.96931 271.892 8.01106 271.942 8.06303C271.991 8.11501 272.029 8.17618 272.055 8.24306C272.081 8.30994 272.093 8.38121 272.091 8.4528C272.08 8.58914 272.019 8.71664 271.92 8.81063C271.821 8.90461 271.69 8.9584 271.553 8.96157V8.97611Z" fill="#E0E0E0"/>
<path d="M268.813 93.483V92.3201H268.53C268.098 91.5324 267.443 90.8901 266.647 90.474C265.023 89.6498 263.228 89.2202 261.407 89.2202C259.586 89.2202 257.79 89.6498 256.166 90.474C255.37 90.8901 254.715 91.5324 254.284 92.3201H254V93.4467C254 94.5587 254.727 95.678 256.181 96.5284C257.806 97.3487 259.601 97.7761 261.421 97.7761C263.242 97.7761 265.037 97.3487 266.662 96.5284C268.101 95.7071 268.82 94.5878 268.813 93.483Z" fill="#37474F"/>
<path d="M261.407 96.6012C265.497 96.6012 268.813 94.6846 268.813 92.3203C268.813 89.956 265.497 88.0393 261.407 88.0393C257.316 88.0393 254 89.956 254 92.3203C254 94.6846 257.316 96.6012 261.407 96.6012Z" fill="#455A64"/>
<path d="M259.502 56.677V91.8186C259.518 91.9854 259.577 92.1451 259.674 92.2817C259.771 92.4182 259.902 92.5267 260.055 92.5963C260.473 92.8078 260.935 92.9179 261.403 92.9179C261.871 92.9179 262.333 92.8078 262.751 92.5963C262.905 92.5284 263.039 92.4204 263.137 92.2837C263.235 92.147 263.295 91.9864 263.311 91.8186V56.677H259.502Z" fill="#37474F"/>
<path d="M269.947 30.3737C268.093 29.3053 266.407 29.2181 265.143 29.9231L241.601 43.5292L253.412 67.2161L277.033 53.552V43.1875C277.033 38.3687 273.857 32.6341 269.947 30.3737Z" fill="#455A64"/>
<path d="M253.412 56.8446V67.2163L239.246 59.0323V48.6679C239.246 43.8491 242.415 41.7776 246.325 44.038C248.833 45.4917 251.035 48.3553 252.292 51.4952C252.996 53.1929 253.376 55.0072 253.412 56.8446Z" fill="#37474F"/>
<path d="M253.412 56.8445V67.2162L239.246 59.0322L252.292 51.4951C252.996 53.1928 253.376 55.0072 253.412 56.8445Z" fill="#263238"/>
<path d="M251.05 60.3986C249.749 56.6337 245.518 51.7495 241.601 49.4964C237.683 47.2432 235.576 48.457 236.877 52.2219L239.239 59.0395L253.412 67.2235C253.412 67.2235 252.358 64.1636 251.05 60.3986Z" fill="#455A64"/>
<path d="M260.796 57.2369L260.004 56.779C259.834 56.7009 259.646 56.6691 259.46 56.687C259.273 56.7048 259.095 56.7717 258.943 56.8808C258.505 57.1673 258.141 57.5527 257.879 58.006C257.618 58.4592 257.467 58.9676 257.438 59.4901C257.418 59.6772 257.449 59.8662 257.527 60.0375C257.605 60.2088 257.728 60.356 257.882 60.464L258.608 60.8855L258.747 60.6602C258.897 60.6276 259.042 60.5712 259.175 60.4931C259.613 60.2082 259.977 59.8241 260.239 59.372C260.5 58.9199 260.651 58.4125 260.68 57.8911C260.679 57.761 260.662 57.6316 260.629 57.5058L260.796 57.2369Z" fill="#263238"/>
<path d="M259.699 57.3241C259.261 57.609 258.897 57.9931 258.635 58.4452C258.374 58.8973 258.223 59.4047 258.194 59.9261C258.194 60.8855 258.87 61.2708 259.699 60.7911C260.137 60.5066 260.501 60.1226 260.763 59.6704C261.024 59.2182 261.175 58.7106 261.203 58.1891C261.225 57.2297 260.498 56.8444 259.699 57.3241Z" fill="#37474F"/>
<path d="M259.699 59.4682C259.641 59.4682 259.585 59.457 259.532 59.435C259.479 59.4131 259.431 59.381 259.39 59.3405C259.35 59.3 259.318 59.2519 259.296 59.199C259.274 59.1461 259.263 59.0894 259.263 59.0321V44.0379C259.263 43.9222 259.309 43.8113 259.39 43.7295C259.472 43.6478 259.583 43.6018 259.699 43.6018C259.814 43.6018 259.925 43.6478 260.007 43.7295C260.089 43.8113 260.135 43.9222 260.135 44.0379V59.0321C260.135 59.1478 260.089 59.2587 260.007 59.3405C259.925 59.4223 259.814 59.4682 259.699 59.4682Z" fill="#263238"/>
<path d="M260.091 44.4301V48.3404L264.285 44.0376L260.091 44.4301Z" fill="#37474F"/>
<path d="M39.6036 174.138C39.2402 174.334 32.568 176.224 30.0968 172.961C27.6256 169.697 31.7322 164.609 29.4136 162.734C27.0951 160.859 20.5973 162.734 19.0346 158.795C17.472 154.856 22.1018 153.155 19.4998 149.179C17.8572 146.672 13.2637 145.291 13.4745 142.958C13.7798 139.549 20.0595 138.597 25.5397 142.282C31.0199 145.967 33.5783 142.943 35.3154 142.696C37.0525 142.449 40.8028 142.994 40.6866 149.099C40.5703 155.204 39.6036 174.138 39.6036 174.138Z" fill="#8094D4"/>
<path d="M40.047 165.482C39.9602 165.481 39.8764 165.451 39.81 165.395C39.7436 165.339 39.6989 165.262 39.6835 165.176C37.772 153.547 24.3041 144.15 17.2976 142.129C17.2512 142.117 17.2078 142.095 17.1701 142.065C17.1324 142.035 17.101 141.998 17.0779 141.956C17.0548 141.914 17.0405 141.868 17.0358 141.82C17.0311 141.772 17.036 141.724 17.0504 141.678C17.0774 141.586 17.1401 141.508 17.2246 141.462C17.3091 141.415 17.4085 141.404 17.5011 141.431C24.6602 143.503 38.4407 153.162 40.4031 165.06C40.4178 165.155 40.3948 165.251 40.3391 165.328C40.2833 165.406 40.1992 165.458 40.1051 165.474L40.047 165.482Z" fill="white"/>
<path d="M24.1587 155.75C24.0788 155.75 24.0008 155.725 23.9369 155.677C23.873 155.629 23.8267 155.561 23.8052 155.484C23.7836 155.407 23.7881 155.325 23.8179 155.251C23.8476 155.177 23.901 155.115 23.9697 155.074C24.1878 154.943 29.3773 151.912 34.4795 153.329C34.5759 153.354 34.6584 153.417 34.7088 153.503C34.7593 153.589 34.7735 153.691 34.7485 153.787C34.7234 153.884 34.6611 153.966 34.5752 154.017C34.4893 154.067 34.3869 154.081 34.2906 154.056C29.479 152.719 24.3913 155.692 24.3404 155.721C24.2839 155.748 24.2208 155.758 24.1587 155.75Z" fill="white"/>
<path d="M229.608 112.729C232.472 113.122 237.349 111.465 237.698 106.697C238.047 101.929 240.016 100.635 243.629 99.8574C247.241 99.0797 248.302 97.8223 248.716 95.5546C249.131 93.2869 246.383 90.5759 247.154 87.1599C247.924 83.7438 250.497 83.7511 253.026 79.8917C254.647 77.406 251.326 73.612 245.795 75.24C240.263 76.8681 240.707 80.4368 235.176 80.8947C229.645 81.3526 226.178 84.7105 226.069 88.8897C225.96 93.0689 229.608 112.729 229.608 112.729Z" fill="#8094D4"/>
<path opacity="0.2" d="M229.608 112.729C232.472 113.122 237.349 111.465 237.698 106.697C238.047 101.929 240.016 100.635 243.629 99.8574C247.241 99.0797 248.302 97.8223 248.716 95.5546C249.131 93.2869 246.383 90.5759 247.154 87.1599C247.924 83.7438 250.497 83.7511 253.026 79.8917C254.647 77.406 251.326 73.612 245.795 75.24C240.263 76.8681 240.707 80.4368 235.176 80.8947C229.645 81.3526 226.178 84.7105 226.069 88.8897C225.96 93.0689 229.608 112.729 229.608 112.729Z" fill="black"/>
<path d="M228.562 103.586H228.518C228.471 103.576 228.427 103.558 228.387 103.531C228.348 103.504 228.314 103.47 228.288 103.43C228.261 103.39 228.243 103.346 228.234 103.299C228.225 103.252 228.225 103.204 228.235 103.157C230.909 89.9362 245.497 77.8347 249.051 76.5991C249.147 76.5673 249.252 76.5751 249.343 76.6207C249.433 76.6664 249.502 76.7462 249.534 76.8426C249.566 76.939 249.558 77.044 249.512 77.1347C249.467 77.2253 249.387 77.2941 249.291 77.3259C245.816 78.5324 231.563 90.4086 228.94 103.339C228.913 103.416 228.861 103.482 228.793 103.526C228.724 103.571 228.643 103.592 228.562 103.586Z" fill="white"/>
<path d="M36.551 98.8982C36.5865 98.2428 36.7761 97.605 37.1045 97.0367C37.4328 96.4684 37.8906 95.9856 38.4407 95.6275L135.042 39.8515C135.627 39.5574 136.273 39.4043 136.928 39.4043C137.583 39.4043 138.229 39.5574 138.814 39.8515L140.944 41.0871C141.495 41.4439 141.954 41.9264 142.282 42.495C142.611 43.0635 142.8 43.702 142.834 44.3578V118.406C142.796 119.061 142.606 119.698 142.278 120.266C141.95 120.834 141.493 121.317 140.944 121.677L44.3425 177.445C43.7569 177.743 43.1095 177.898 42.4527 177.898C41.796 177.898 41.1485 177.743 40.563 177.445L38.4407 176.217C37.8914 175.858 37.4342 175.375 37.106 174.807C36.7777 174.239 36.5876 173.601 36.551 172.946V98.8982Z" fill="#8094D4"/>
<path opacity="0.3" d="M36.551 98.8982C36.5865 98.2428 36.7761 97.605 37.1045 97.0367C37.4328 96.4684 37.8906 95.9856 38.4407 95.6275L135.042 39.8515C135.627 39.5574 136.273 39.4043 136.928 39.4043C137.583 39.4043 138.229 39.5574 138.814 39.8515L140.944 41.0871C141.495 41.4439 141.954 41.9264 142.282 42.495C142.611 43.0635 142.8 43.702 142.834 44.3578V118.406C142.796 119.061 142.606 119.698 142.278 120.266C141.95 120.834 141.493 121.317 140.944 121.677L44.3425 177.445C43.7569 177.743 43.1095 177.898 42.4527 177.898C41.796 177.898 41.1485 177.743 40.563 177.445L38.4407 176.217C37.8914 175.858 37.4342 175.375 37.106 174.807C36.7777 174.239 36.5876 173.601 36.551 172.946V98.8982Z" fill="black"/>
<path d="M45.4036 101.834L37.1033 97.0371C36.764 97.6003 36.5739 98.2407 36.551 98.8978V172.946C36.5876 173.601 36.7777 174.238 37.106 174.807C37.4342 175.375 37.8914 175.858 38.4407 176.217L40.563 177.445C41.1485 177.742 41.796 177.897 42.4527 177.897C43.1095 177.897 43.7569 177.742 44.3425 177.445L45.4036 176.834V101.834Z" fill="#8094D4"/>
<path opacity="0.5" d="M45.4036 101.834L37.1033 97.0371C36.764 97.6003 36.5739 98.2407 36.551 98.8978V172.946C36.5876 173.601 36.7777 174.238 37.106 174.807C37.4342 175.375 37.8914 175.858 38.4407 176.217L40.563 177.445C41.1485 177.742 41.796 177.897 42.4527 177.897C43.1095 177.897 43.7569 177.742 44.3425 177.445L45.4036 176.834V101.834Z" fill="black"/>
<path d="M142.834 44.3574V118.406C142.809 119.084 142.606 119.743 142.245 120.317C141.966 120.801 141.59 121.221 141.14 121.553L141.067 121.596L140.944 121.676L44.3425 177.445C44.1576 177.576 43.9427 177.657 43.7179 177.683C43.493 177.708 43.2653 177.676 43.056 177.59C42.8548 177.464 42.6921 177.284 42.5858 177.071C42.4794 176.859 42.4334 176.621 42.4527 176.384V102.307C42.4363 102.042 42.4844 101.776 42.5929 101.534C42.7014 101.291 42.8671 101.079 43.0758 100.915C43.2845 100.75 43.5299 100.639 43.791 100.59C44.0521 100.542 44.3211 100.557 44.575 100.635L85.1969 110.294L90.5172 111.559C91.1452 111.677 91.7934 111.62 92.3916 111.396C92.9899 111.172 93.5154 110.788 93.9114 110.287L100.075 101.703L141.562 43.9431C142.259 42.9692 142.834 43.1509 142.834 44.3574Z" fill="#8094D4"/>
<path opacity="0.2" d="M142.834 44.3574V118.406C142.809 119.084 142.606 119.743 142.245 120.317C141.966 120.801 141.59 121.221 141.14 121.553L141.067 121.596L140.944 121.676L44.3425 177.445C44.1576 177.576 43.9427 177.657 43.7179 177.683C43.493 177.708 43.2653 177.676 43.056 177.59C42.8548 177.464 42.6921 177.284 42.5858 177.071C42.4794 176.859 42.4334 176.621 42.4527 176.384V102.307C42.4363 102.042 42.4844 101.776 42.5929 101.534C42.7014 101.291 42.8671 101.079 43.0758 100.915C43.2845 100.75 43.5299 100.639 43.791 100.59C44.0521 100.542 44.3211 100.557 44.575 100.635L85.1969 110.294L90.5172 111.559C91.1452 111.677 91.7934 111.62 92.3916 111.396C92.9899 111.172 93.5154 110.788 93.9114 110.287L100.075 101.703L141.562 43.9431C142.259 42.9692 142.834 43.1509 142.834 44.3574Z" fill="black"/>
<path d="M140.944 121.676L141.067 121.596L141.14 121.553C141.59 121.222 141.966 120.801 142.245 120.317C142.602 119.752 142.805 119.103 142.834 118.435L100.075 101.718L128.711 128.756L140.944 121.676Z" fill="#8094D4"/>
<path opacity="0.6" d="M140.944 121.676L141.067 121.596L141.14 121.553C141.59 121.222 141.966 120.801 142.245 120.317C142.602 119.752 142.805 119.103 142.834 118.435L100.075 101.718L128.711 128.756L140.944 121.676Z" fill="black"/>
<path d="M42.4527 176.384C42.425 176.626 42.4654 176.87 42.5695 177.09C42.6735 177.309 42.837 177.495 43.0415 177.627C43.2508 177.713 43.4785 177.745 43.7033 177.719C43.9282 177.694 44.1431 177.612 44.3279 177.482L77.6017 158.214L85.1969 110.244L42.4527 175.127V176.384Z" fill="#8094D4"/>
<path opacity="0.6" d="M42.4527 176.384C42.425 176.626 42.4654 176.87 42.5695 177.09C42.6735 177.309 42.837 177.495 43.0415 177.627C43.2508 177.713 43.4785 177.745 43.7033 177.719C43.9282 177.694 44.1431 177.612 44.3279 177.482L77.6017 158.214L85.1969 110.244L42.4527 175.127V176.384Z" fill="black"/>
<path d="M142.245 120.317C141.966 120.801 141.59 121.222 141.14 121.553L141.067 121.597L44.3424 177.445C44.1576 177.576 43.9427 177.658 43.7178 177.683C43.493 177.708 43.2653 177.677 43.056 177.591L89.3179 103.739C90.2477 102.259 91.6793 101.165 93.3504 100.655C95.0216 100.145 96.8205 100.254 98.4177 100.962L142.245 120.317Z" fill="#8094D4"/>
<path opacity="0.2" d="M142.245 120.317C141.966 120.801 141.59 121.222 141.14 121.553L141.067 121.597L44.3424 177.445C44.1576 177.576 43.9427 177.658 43.7178 177.683C43.493 177.708 43.2653 177.677 43.056 177.591L89.3179 103.739C90.2477 102.259 91.6793 101.165 93.3504 100.655C95.0216 100.145 96.8205 100.254 98.4177 100.962L142.245 120.317Z" fill="black"/>
<path d="M42.4527 100.126L86.8831 119.75C88.4828 120.456 90.2835 120.562 91.9549 120.048C93.6263 119.534 95.0564 118.435 95.9828 116.952L142.637 42.2859L42.4527 100.126Z" fill="#8094D4"/>
<path opacity="0.6" d="M42.4527 100.126L86.8831 119.75C88.4828 120.456 90.2835 120.562 91.9549 120.048C93.6263 119.534 95.0564 118.435 95.9828 116.952L142.637 42.2859L42.4527 100.126Z" fill="black"/>
<path d="M42.4527 100.126L87.1956 116.843C88.7418 117.42 90.4385 117.454 92.0065 116.939C93.5744 116.424 94.9204 115.39 95.8229 114.008L142.637 42.2859L42.4527 100.126Z" fill="#8094D4"/>
<path opacity="0.2" d="M42.4527 100.126L87.1956 116.843C88.7418 117.42 90.4385 117.454 92.0065 116.939C93.5744 116.424 94.9204 115.39 95.8229 114.008L142.637 42.2859L42.4527 100.126Z" fill="black"/>
<path d="M53.0497 108.02C53.0835 107.364 53.2724 106.726 53.6009 106.157C53.9294 105.588 54.3882 105.106 54.9395 104.749L151.541 48.973C152.126 48.6756 152.774 48.5205 153.431 48.5205C154.087 48.5205 154.735 48.6756 155.32 48.973L157.45 50.2014C157.999 50.5603 158.455 51.0434 158.782 51.6117C159.109 52.18 159.298 52.8173 159.332 53.472V127.52C159.297 128.175 159.108 128.812 158.781 129.38C158.454 129.948 157.998 130.431 157.45 130.791L60.8412 186.56C60.256 186.854 59.6101 187.007 58.9551 187.007C58.3002 187.007 57.6543 186.854 57.069 186.56L54.9395 185.331C54.3906 184.972 53.9337 184.489 53.6055 183.921C53.2773 183.353 53.087 182.716 53.0497 182.061V108.02Z" fill="#455A64"/>
<path d="M53.0497 108.02C53.0835 107.364 53.2724 106.726 53.6009 106.157C53.9294 105.588 54.3882 105.106 54.9395 104.749L151.541 48.973C152.126 48.6756 152.774 48.5205 153.431 48.5205C154.087 48.5205 154.735 48.6756 155.32 48.973L157.45 50.2014C157.999 50.5603 158.455 51.0434 158.782 51.6117C159.109 52.18 159.298 52.8173 159.332 53.472V127.52C159.297 128.175 159.108 128.812 158.781 129.38C158.454 129.948 157.998 130.431 157.45 130.791L60.8412 186.56C60.256 186.854 59.6101 187.007 58.9551 187.007C58.3002 187.007 57.6543 186.854 57.069 186.56L54.9395 185.331C54.3906 184.972 53.9337 184.489 53.6055 183.921C53.2773 183.353 53.087 182.716 53.0497 182.061V108.02Z" fill="#455A64"/>
<path d="M61.9097 110.97L53.6021 106.181C53.2619 106.743 53.0717 107.384 53.0497 108.041V182.068C53.087 182.723 53.2773 183.36 53.6055 183.928C53.9337 184.496 54.3906 184.979 54.9395 185.338L57.069 186.567C57.6543 186.861 58.3002 187.014 58.9551 187.014C59.6101 187.014 60.256 186.861 60.8412 186.567L61.9097 185.949V110.97Z" fill="#263238"/>
<path d="M159.34 53.4717V127.52C159.315 128.198 159.112 128.857 158.751 129.431C158.472 129.915 158.096 130.336 157.646 130.667L157.573 130.711L157.45 130.791L60.8485 186.559C60.6636 186.69 60.4488 186.772 60.2239 186.797C59.999 186.822 59.7714 186.791 59.562 186.705C59.3576 186.573 59.1941 186.387 59.09 186.167C58.986 185.948 58.9455 185.703 58.9733 185.462V111.421C58.9569 111.156 59.005 110.891 59.1135 110.648C59.222 110.406 59.3877 110.193 59.5964 110.029C59.805 109.865 60.0504 109.753 60.3116 109.704C60.5727 109.656 60.8417 109.671 61.0956 109.749L101.717 119.409L107.038 120.673C107.666 120.791 108.314 120.735 108.912 120.51C109.51 120.286 110.036 119.903 110.432 119.401L116.588 110.818L158.075 53.0574C158.744 52.098 159.34 52.2652 159.34 53.4717Z" fill="#37474F"/>
<path d="M157.45 130.791L157.573 130.711L157.646 130.667C158.096 130.336 158.472 129.915 158.751 129.432C159.104 128.867 159.304 128.221 159.332 127.556L116.581 110.84L145.21 137.863L157.45 130.791Z" fill="#263238"/>
<path d="M58.9587 185.469C58.931 185.711 58.9714 185.955 59.0755 186.175C59.1795 186.395 59.343 186.581 59.5475 186.712C59.7568 186.798 59.9845 186.83 60.2094 186.805C60.4342 186.779 60.6491 186.697 60.8339 186.567L94.0931 167.364L101.688 119.394L58.9442 184.226L58.9587 185.469Z" fill="#263238"/>
<path d="M158.744 129.432C158.464 129.915 158.088 130.336 157.639 130.667L157.566 130.711L60.8485 186.56C60.6636 186.69 60.4488 186.772 60.2239 186.797C59.999 186.823 59.7714 186.791 59.562 186.705L105.817 112.86C106.744 111.378 108.175 110.281 109.846 109.768C111.518 109.255 113.318 109.362 114.916 110.069L158.744 129.432Z" fill="#37474F"/>
<path d="M58.9587 109.248L103.389 128.872C104.988 129.576 106.787 129.681 108.457 129.167C110.127 128.653 111.555 127.555 112.482 126.073L159.136 51.3711L58.9587 109.248Z" fill="#263238"/>
<path d="M58.9587 109.248L103.694 125.964C105.242 126.544 106.94 126.578 108.509 126.063C110.079 125.548 111.426 124.513 112.329 123.13L159.136 51.3711L58.9587 109.248Z" fill="#37474F"/>
<path d="M123.907 166.797V92.7492C123.975 91.3444 124.414 89.9825 125.179 88.8026L171.252 24.6464C172.093 23.4743 173.263 22.5788 174.615 22.0741C175.966 21.5693 177.437 21.478 178.84 21.8118L222.166 32.1108C223.562 32.4824 224.909 33.0192 226.178 33.7098L228.307 34.9381C228.855 35.2983 229.31 35.7818 229.637 36.3498C229.964 36.9178 230.153 37.5545 230.19 38.2088V112.257C230.152 112.911 229.963 113.547 229.636 114.115C229.309 114.683 228.854 115.167 228.307 115.528L131.699 171.296C131.114 171.592 130.468 171.746 129.813 171.746C129.157 171.746 128.511 171.592 127.927 171.296L125.797 170.068C125.248 169.709 124.79 169.226 124.462 168.658C124.134 168.09 123.944 167.453 123.907 166.797Z" fill="#8094D4"/>
<path opacity="0.3" d="M123.907 166.797V92.7492C123.975 91.3444 124.414 89.9825 125.179 88.8026L171.252 24.6464C172.093 23.4743 173.263 22.5788 174.615 22.0741C175.966 21.5693 177.437 21.478 178.84 21.8118L222.166 32.1108C223.562 32.4824 224.909 33.0192 226.178 33.7098L228.307 34.9381C228.855 35.2983 229.31 35.7818 229.637 36.3498C229.964 36.9178 230.153 37.5545 230.19 38.2088V112.257C230.152 112.911 229.963 113.547 229.636 114.115C229.309 114.683 228.854 115.167 228.307 115.528L131.699 171.296C131.114 171.592 130.468 171.746 129.813 171.746C129.157 171.746 128.511 171.592 127.927 171.296L125.797 170.068C125.248 169.709 124.79 169.226 124.462 168.658C124.134 168.09 123.944 167.453 123.907 166.797Z" fill="white"/>
<path d="M132.76 56.9607V151.447C132.76 152.646 133.61 153.141 134.65 152.537L225.349 100.206C225.9 99.8487 226.358 99.366 226.686 98.7976C227.015 98.2292 227.204 97.5912 227.239 96.9357V2.44938C227.239 1.24287 226.396 0.755898 225.349 1.35916L134.65 53.6901C134.1 54.0481 133.642 54.531 133.313 55.0993C132.985 55.6676 132.795 56.3053 132.76 56.9607Z" fill="#FAFAFA"/>
<path d="M133.806 153.17C133.572 153.171 133.341 153.111 133.138 152.995C132.889 152.829 132.69 152.599 132.562 152.329C132.434 152.059 132.382 151.759 132.411 151.462V56.9752C132.445 56.255 132.651 55.5535 133.012 54.929C133.372 54.3045 133.876 53.775 134.482 53.3847L225.182 1.05382C225.419 0.860981 225.709 0.744744 226.013 0.720551C226.317 0.696358 226.622 0.765354 226.886 0.918376C227.15 1.0714 227.362 1.3012 227.492 1.57725C227.623 1.8533 227.666 2.16253 227.617 2.46385V96.9502C227.583 97.6695 227.377 98.3702 227.017 98.9937C226.656 99.6171 226.152 100.145 225.545 100.533L134.846 152.864C134.533 153.056 134.174 153.162 133.806 153.17ZM226.192 1.4245C225.958 1.43793 225.73 1.51043 225.531 1.63528L134.831 54.0025C134.338 54.3302 133.926 54.7678 133.63 55.2811C133.334 55.7943 133.16 56.3692 133.123 56.9607V151.447C133.08 151.617 133.093 151.797 133.161 151.96C133.229 152.122 133.349 152.257 133.501 152.345C133.653 152.433 133.83 152.469 134.005 152.447C134.179 152.426 134.342 152.347 134.468 152.225L225.168 99.8938C225.662 99.5665 226.073 99.129 226.37 98.6157C226.666 98.1023 226.839 97.5273 226.876 96.9356V2.44932C226.896 2.27886 226.873 2.10599 226.808 1.94703C226.743 1.78807 226.639 1.64826 226.505 1.54079C226.413 1.47444 226.305 1.43425 226.192 1.4245Z" fill="#E0E0E0"/>
<path d="M130.805 94.5517L124.263 90.7722C124.052 91.4107 123.934 92.0767 123.914 92.7492V166.797C123.951 167.452 124.141 168.09 124.47 168.658C124.798 169.226 125.255 169.709 125.804 170.068L127.927 171.296C128.511 171.594 129.157 171.749 129.813 171.749C130.468 171.749 131.114 171.594 131.699 171.296L132.607 170.78L130.805 94.5517Z" fill="#8094D4"/>
<g opacity="0.1">
<path d="M130.805 94.5517L124.263 90.7722C124.052 91.4107 123.934 92.0767 123.914 92.7492V166.797C123.951 167.452 124.141 168.09 124.47 168.658C124.798 169.226 125.255 169.709 125.804 170.068L127.927 171.296C128.511 171.594 129.157 171.749 129.813 171.749C130.468 171.749 131.114 171.594 131.699 171.296L132.607 170.78L130.805 94.5517Z" fill="black"/>
</g>
<path d="M230.197 38.2088V112.257C230.173 112.935 229.969 113.594 229.608 114.169C229.329 114.652 228.953 115.073 228.504 115.404L228.431 115.448L228.307 115.528L131.706 171.296C131.521 171.427 131.306 171.509 131.081 171.534C130.857 171.56 130.629 171.528 130.42 171.442C130.215 171.31 130.052 171.124 129.947 170.904C129.843 170.685 129.803 170.44 129.831 170.199V96.158C129.814 95.8928 129.862 95.6277 129.971 95.3853C130.079 95.1428 130.245 94.9303 130.454 94.7659C130.663 94.6016 130.908 94.4903 131.169 94.4416C131.43 94.3929 131.699 94.4082 131.953 94.4863L172.553 104.146L177.873 105.41C178.503 105.529 179.152 105.474 179.752 105.25C180.352 105.025 180.878 104.641 181.275 104.138L187.438 95.5547L228.925 37.7945C229.623 36.8351 230.197 37.0023 230.197 38.2088Z" fill="#8094D4"/>
<path opacity="0.3" d="M230.197 38.2088V112.257C230.173 112.935 229.969 113.594 229.608 114.169C229.329 114.652 228.953 115.073 228.504 115.404L228.431 115.448L228.307 115.528L131.706 171.296C131.521 171.427 131.306 171.509 131.081 171.534C130.857 171.56 130.629 171.528 130.42 171.442C130.215 171.31 130.052 171.124 129.947 170.904C129.843 170.685 129.803 170.44 129.831 170.199V96.158C129.814 95.8928 129.862 95.6277 129.971 95.3853C130.079 95.1428 130.245 94.9303 130.454 94.7659C130.663 94.6016 130.908 94.4903 131.169 94.4416C131.43 94.3929 131.699 94.4082 131.953 94.4863L172.553 104.146L177.873 105.41C178.503 105.529 179.152 105.474 179.752 105.25C180.352 105.025 180.878 104.641 181.275 104.138L187.438 95.5547L228.925 37.7945C229.623 36.8351 230.197 37.0023 230.197 38.2088Z" fill="white"/>
<path d="M228.307 115.527L228.431 115.447L228.504 115.404C228.953 115.072 229.329 114.652 229.608 114.168C229.961 113.601 230.162 112.953 230.19 112.286L187.438 95.5688L216.068 122.599L228.307 115.527Z" fill="#8094D4"/>
<path d="M129.816 170.206C129.788 170.448 129.829 170.692 129.933 170.912C130.037 171.131 130.201 171.317 130.405 171.449C130.614 171.535 130.842 171.567 131.067 171.541C131.292 171.516 131.507 171.434 131.691 171.304L164.951 152.101L172.546 104.131L129.802 168.963L129.816 170.206Z" fill="#8094D4"/>
<path d="M229.608 114.168C229.329 114.652 228.953 115.073 228.504 115.404L228.431 115.448L131.706 171.296C131.521 171.427 131.306 171.509 131.081 171.534C130.856 171.559 130.629 171.528 130.419 171.442L176.674 97.597C177.602 96.1169 179.031 95.0202 180.701 94.5077C182.37 93.9952 184.169 94.1011 185.767 94.806L229.608 114.168Z" fill="#8094D4"/>
<path opacity="0.3" d="M229.608 114.168C229.329 114.652 228.953 115.073 228.504 115.404L228.431 115.448L131.706 171.296C131.521 171.427 131.306 171.509 131.081 171.534C130.856 171.559 130.629 171.528 130.419 171.442L176.674 97.597C177.602 96.1169 179.031 95.0202 180.701 94.5077C182.37 93.9952 184.169 94.1011 185.767 94.806L229.608 114.168Z" fill="white"/>
<path d="M172.699 78.7215C171.85 78.8528 170.983 78.7758 170.172 78.4972C169.36 78.2186 168.628 77.7468 168.04 77.1225C166.935 75.8942 166.382 73.9972 166.382 71.4461C166.384 68.5676 167.001 65.7228 168.192 63.1022C169.415 60.4056 171.102 57.9453 173.178 55.834C175.41 53.5196 177.954 51.5283 180.737 49.9177C183.465 48.3478 185.793 47.478 187.722 47.3085C189.662 47.134 191.123 47.6355 192.126 48.7984C193.129 49.9613 193.624 51.742 193.624 54.126C193.666 56.4903 193.105 58.8265 191.996 60.9145C191.017 62.8054 189.526 64.3824 187.693 65.4644C187.06 65.914 186.284 66.1158 185.512 66.0313C185.238 65.9769 184.985 65.8445 184.784 65.6498C184.582 65.4551 184.442 65.2065 184.378 64.9338C183.773 66.0785 183.004 67.1289 182.096 68.0518C181.177 68.9998 180.13 69.8145 178.985 70.4721C177.009 71.5914 175.431 71.9258 174.268 71.5406C173.106 71.1553 172.553 69.9779 172.553 68.0155C172.57 65.5494 173.33 63.1456 174.734 61.118C176.262 58.8702 178.292 57.0089 180.664 55.6814C181.655 55.0914 182.731 54.6598 183.855 54.4022C184.69 54.1758 185.571 54.1758 186.406 54.4022V62.0556C186.406 62.6734 186.515 63.0513 186.726 63.1967C186.937 63.3421 187.286 63.2694 187.78 62.9859C188.701 62.387 189.382 61.4843 189.706 60.4348C190.197 59.0171 190.431 57.523 190.397 56.023C190.397 54.1139 189.98 52.7257 189.146 51.8583C188.701 51.4229 188.158 51.1006 187.562 50.9185C186.966 50.7364 186.336 50.6998 185.723 50.8117C183.949 51.0828 182.249 51.7162 180.73 52.6724C177.516 54.4549 174.746 56.9393 172.626 59.9405C170.666 62.7571 169.625 66.1107 169.646 69.5418C169.646 71.6302 170.075 73.1541 170.932 74.1135C171.377 74.5937 171.934 74.9565 172.552 75.1696C173.171 75.3826 173.833 75.4393 174.479 75.3345C176.288 75.0783 178.022 74.4417 179.567 73.4666C180.633 72.8499 181.643 72.1397 182.583 71.3443C183.459 70.6213 184.256 69.8076 184.96 68.9167C185.033 68.823 185.118 68.7398 185.214 68.6696C185.28 68.6333 185.345 68.6696 185.403 68.7568L186.203 70.2105C186.232 70.2681 186.254 70.3292 186.268 70.3922C186.243 70.5541 186.163 70.7026 186.043 70.8137C185.165 71.8696 184.191 72.8428 183.136 73.721C182.024 74.6537 180.835 75.4901 179.581 76.2213C177.494 77.5398 175.146 78.3926 172.699 78.7215ZM182.147 65.0573C182.839 64.2408 183.243 63.219 183.296 62.1501V57.7165C182.258 57.8041 181.259 58.1488 180.388 58.7195C179.002 59.4994 177.821 60.5981 176.943 61.9248C176.12 63.1418 175.677 64.5764 175.671 66.0458C175.671 67.2741 175.976 68.0082 176.594 68.2263C177.212 68.4443 178.164 68.2263 179.465 67.4486C180.519 66.8392 181.44 66.0264 182.176 65.0573H182.147Z" fill="#E0E0E0"/>
<path d="M80.131 86.0043L73.0445 81.8978H72.9936C70.5733 80.5314 67.2372 80.7349 63.545 82.8645C56.1242 87.1454 50.1134 97.5607 50.1134 106.123C50.1134 110.404 51.6106 113.391 54.031 114.844L60.6232 118.617L61.8152 116.632C63.1671 116.329 64.4656 115.825 65.6673 115.135C73.0809 110.847 79.0989 100.432 79.0989 91.877C79.0949 90.7208 78.9534 89.5692 78.6773 88.4464L80.131 86.0043Z" fill="#F28F8F"/>
<path d="M80.131 86.0043L73.0445 81.8978H72.9936C70.5733 80.5314 67.2372 80.7349 63.545 82.8645C56.1242 87.1454 50.1134 97.5607 50.1134 106.123C50.1134 110.404 51.6106 113.391 54.031 114.844L60.6232 118.617L61.8152 116.632C63.1671 116.329 64.4656 115.825 65.6673 115.135C73.0809 110.847 79.0989 100.432 79.0989 91.877C79.0949 90.7208 78.9534 89.5692 78.6773 88.4464L80.131 86.0043Z" fill="#8094D4"/>
<path opacity="0.4" d="M80.131 86.0043L73.0445 81.8978H72.9936C70.5733 80.5314 67.2372 80.7349 63.545 82.8645C56.1242 87.1454 50.1134 97.5607 50.1134 106.123C50.1134 110.404 51.6106 113.391 54.031 114.844L60.6232 118.617L61.8152 116.632C63.1671 116.329 64.4656 115.825 65.6673 115.135C73.0809 110.847 79.0989 100.432 79.0989 91.877C79.0949 90.7208 78.9534 89.5692 78.6773 88.4464L80.131 86.0043Z" fill="black"/>
<path d="M70.3553 86.7674C62.9345 91.0557 56.9237 101.471 56.9237 110.026C56.9237 118.58 62.9345 122.062 70.3553 117.781C77.7761 113.5 83.7869 103.085 83.7869 94.5226C83.7869 85.9607 77.7761 82.4865 70.3553 86.7674Z" fill="#8094D4"/>
<path d="M65.1077 112.075C64.9696 112.075 64.8969 111.995 64.8969 111.872C64.9112 111.735 64.9506 111.602 65.0132 111.479L65.6891 109.96C65.7339 109.812 65.8226 109.68 65.9435 109.582C66.0442 109.537 66.1529 109.512 66.2633 109.51C66.8681 109.474 67.465 109.354 68.0368 109.154C68.7971 108.897 69.528 108.561 70.2172 108.151C71.2896 107.569 72.23 106.773 72.9791 105.81C73.541 105.082 73.8543 104.193 73.8731 103.274C73.8731 101.667 72.8919 101.435 70.9295 102.547L69.018 103.702C68.7054 103.877 68.4874 103.942 68.3566 103.884C68.2257 103.826 68.1603 103.652 68.1603 103.361V102.758C68.15 102.501 68.2185 102.247 68.3566 102.031C68.5316 101.794 68.7577 101.601 69.018 101.464L70.915 100.366C71.6751 99.9527 72.3197 99.3555 72.7902 98.6292C73.1844 98.0198 73.4008 97.3125 73.4152 96.5868C73.4152 95.0315 72.3202 94.8861 70.13 96.1508C68.7831 96.9182 67.5704 97.9002 66.5395 99.058C66.4427 99.1673 66.3356 99.2671 66.2197 99.356C66.1769 99.3763 66.1286 99.3816 66.0824 99.371C66.0363 99.3605 65.995 99.3347 65.9653 99.2979L65.3185 98.5711C65.2824 98.5376 65.2535 98.4971 65.2335 98.4522C65.2135 98.4072 65.2028 98.3586 65.2022 98.3094C65.2169 98.1426 65.2888 97.986 65.4057 97.866C66.0495 97.0607 66.7808 96.3294 67.5861 95.6856C68.5239 94.9214 69.523 94.2359 70.5734 93.636C71.5216 93.0458 72.5677 92.6298 73.6623 92.4076C74.0068 92.3237 74.3654 92.316 74.7132 92.385C75.0609 92.454 75.3894 92.5982 75.6756 92.8074C75.9337 93.0563 76.1329 93.3597 76.2587 93.6954C76.3844 94.0312 76.4336 94.3908 76.4024 94.748C76.3861 95.5482 76.208 96.3369 75.8791 97.0665C75.5279 97.9088 75.0363 98.6853 74.4255 99.3633C74.7392 99.2581 75.0745 99.2343 75.3999 99.2941C75.7253 99.3538 76.0303 99.4952 76.2862 99.7049C76.5101 99.9656 76.68 100.268 76.7861 100.595C76.8922 100.922 76.9322 101.267 76.9039 101.609C76.8484 103.22 76.2835 104.773 75.2904 106.043C74.0714 107.678 72.5146 109.031 70.726 110.011C68.1676 111.508 66.2948 112.196 65.1077 112.075Z" fill="white"/>
<path d="M217.521 190.986L217.66 190.862C217.761 190.775 217.87 190.688 217.965 190.594L218.292 190.274L218.619 189.961C218.81 189.782 218.992 189.593 219.164 189.394L221.752 191.328L223.474 192.614C222.847 193.294 222.336 194.072 221.962 194.918C221.962 194.918 221.446 195.754 219.695 195.332C217.529 194.831 217.187 191.647 217.521 190.986Z" fill="#FFA8A7"/>
<path d="M192.177 190.099C190.2 187.803 191.959 183.987 193.878 179.037C195.986 173.593 199.242 164.341 199.242 164.341L222.362 159.566C222.362 159.566 246.994 159.093 249.254 163.803C251.086 167.575 234.863 173.252 232.538 173.455L218.299 174.204L216.802 174.931L206.801 187.585L192.177 190.099Z" fill="#8094D4"/>
<path d="M234.776 167.662C232.981 169.488 231.308 171.431 229.768 173.477C225.604 179.292 219.011 189.852 219.011 189.852C219.011 189.852 220.036 193.196 223.183 193.05C223.183 193.05 244.843 172.823 246.616 170.955C249.298 168.12 251.449 163.447 246.812 163.062C242.175 162.676 236.579 165.715 234.776 167.662Z" fill="#8094D4"/>
<path d="M229.652 173.593C229.652 173.593 233.519 167.938 237.524 165.598C237.524 165.598 233.541 166.383 227.508 173.724L229.652 173.593Z" fill="#8094D4"/>
<path opacity="0.1" d="M229.652 173.593C229.652 173.593 233.519 167.938 237.524 165.598C237.524 165.598 233.541 166.383 227.508 173.724L229.652 173.593Z" fill="black"/>
<path d="M232.283 180.745L230.764 181.036L232.174 186.247C232.174 186.247 233.541 186.116 234.013 186.145C234.701 185.982 235.364 185.725 235.983 185.382L235.619 182.199L233.948 180.454L232.283 180.745Z" fill="#FFA8A7"/>
<path d="M244.276 181.973C245.001 182.266 245.658 182.704 246.205 183.262C246.753 183.82 247.18 184.485 247.459 185.215C247.783 185.979 248.048 186.766 248.251 187.57C248.491 188.413 248.375 189.845 247.306 190.077C246.959 190.118 246.607 190.055 246.296 189.896C244.152 189.067 242.059 188.108 239.864 187.41C237.983 186.713 236.013 186.285 234.013 186.138C234.468 185.438 234.695 184.615 234.664 183.781C234.632 182.947 234.344 182.143 233.838 181.479C233.408 181.081 232.864 180.827 232.283 180.752C232.835 180.505 233.352 180.185 233.882 179.887C234.87 179.196 236.08 178.898 237.276 179.052C238.192 179.248 238.89 179.975 239.668 180.505C241.15 181.472 242.582 181.406 244.276 181.973Z" fill="#263238"/>
<path d="M195.295 185.106C197.207 184.517 200.26 183.994 209.316 183.529C218.372 183.064 230.764 181.029 230.764 181.029C232.872 183.056 232.174 186.24 232.174 186.24C232.174 186.24 216.09 191.328 210.849 192.003C202.505 193.079 199.627 192.999 195.862 192.192C191.632 191.284 188.965 187.047 195.295 185.106Z" fill="#8094D4"/>
<path d="M228.395 141.969L235.198 158.228L230.328 161.223L220.967 145.371L228.395 141.969Z" fill="#F28F8F"/>
<path d="M214.323 126.648C218.045 126.692 222.137 128.043 223.547 130.958L229.361 142.95C229.361 142.95 226.076 147.762 220.858 147.42L214.323 126.648Z" fill="#E0E0E0"/>
<path d="M189.583 151.92C189.626 151.287 190.535 148.198 191.509 144.869L198.573 147.311L196.676 153.293L190.724 158.941C189.434 156.842 189.024 154.319 189.583 151.92Z" fill="#FFA8A7"/>
<path d="M206.714 126.873C202.28 127.942 196.24 129.33 194.489 134.141C192.737 138.953 190.229 147.449 190.229 147.449C191.203 149.136 196.545 150.531 198.399 149.557L199.271 146.65V164.326C202.738 168.098 219.84 167.132 222.391 159.551V135.472C222.391 131.619 220.254 126.99 214.345 126.648L206.714 126.873Z" fill="#FAFAFA"/>
<path d="M199.249 146.665L201.473 139.665L199.249 149.797V146.665Z" fill="#E0E0E0"/>
<path d="M205.027 107.169C204.633 107.118 204.232 107.157 203.854 107.283C203.476 107.409 203.132 107.618 202.847 107.896C201.909 108.856 202.12 110.629 202.847 114.699L205.754 115.026L205.027 107.169Z" fill="#263238"/>
<path d="M221.897 105.992C222.519 105.995 223.135 105.868 223.707 105.621C224.593 105.113 224.826 106.123 224.339 106.995C224.017 107.624 223.539 108.16 222.952 108.552C222.364 108.944 221.685 109.178 220.981 109.234C220.981 109.11 220.153 106.973 220.153 106.973L221.897 105.992Z" fill="#263238"/>
<path d="M206.387 115.07C205.958 115.324 205.34 114.503 204.809 113.943C204.601 113.705 204.336 113.524 204.038 113.417C203.741 113.31 203.421 113.281 203.109 113.332C202.797 113.383 202.503 113.512 202.255 113.708C202.007 113.904 201.813 114.16 201.691 114.452C200.812 116.305 202.811 118.769 203.981 119.583C204.309 119.867 204.719 120.039 205.151 120.075C205.583 120.112 206.015 120.011 206.387 119.787L206.692 126.873C207.21 128.009 208.002 128.998 208.996 129.753C209.991 130.508 211.157 131.004 212.39 131.198C216.547 131.758 215.69 128.327 214.323 126.648V124.053C215.364 124.275 216.434 124.329 217.492 124.213C218.03 124.068 219.324 122.505 220.16 120.754C221.097 118.791 222.66 115.302 221.272 109.393C219.775 103.056 212.964 102.852 208.916 105.418C204.868 107.983 206.387 115.07 206.387 115.07Z" fill="#FFA8A7"/>
<path d="M206.387 115.789C206.169 115.789 205.347 114.43 204.809 113.943C204.083 113.267 205.027 107.169 205.027 107.169C205.027 107.169 204.301 104.851 205.754 103.317C207.208 101.784 210.057 102.038 212.136 101.965C214.683 101.979 217.206 101.472 219.549 100.475C222.5 99.1961 222.718 99.0216 223.082 100.337C223.445 101.653 223.59 104.596 221.831 106.581L220.872 108.143C220.872 108.143 219.978 108.87 217.238 109.233C214.498 109.597 209.803 108.092 209.243 108.012C208.444 107.903 208.276 108.674 207.848 110.782C207.44 112.635 207.113 115.775 206.387 115.789Z" fill="#263238"/>
<path d="M205.035 107.642L202.433 106.246C202.518 106.073 202.637 105.919 202.783 105.793C202.929 105.666 203.099 105.57 203.282 105.51C203.465 105.45 203.659 105.427 203.851 105.442C204.044 105.457 204.231 105.511 204.402 105.599C204.749 105.794 205.007 106.115 205.125 106.495C205.243 106.874 205.21 107.285 205.035 107.642Z" fill="#263238"/>
<path d="M214.316 124.053C214.316 124.053 210.464 123.275 209.119 122.6C208.328 122.185 207.68 121.541 207.259 120.753C207.463 121.544 207.824 122.285 208.32 122.934C209.301 124.191 214.316 125.114 214.316 125.114V124.053Z" fill="#F28F8F"/>
<path d="M214.44 114.925C214.434 115.076 214.384 115.222 214.296 115.344C214.208 115.467 214.086 115.561 213.945 115.615C213.803 115.669 213.649 115.68 213.502 115.647C213.354 115.614 213.22 115.539 213.115 115.43C213.01 115.321 212.94 115.184 212.912 115.035C212.885 114.887 212.902 114.733 212.961 114.594C213.02 114.455 213.118 114.337 213.244 114.253C213.37 114.17 213.518 114.125 213.669 114.125C213.772 114.127 213.874 114.149 213.969 114.19C214.063 114.231 214.149 114.291 214.22 114.365C214.292 114.439 214.348 114.527 214.386 114.623C214.423 114.719 214.442 114.821 214.44 114.925Z" fill="#263238"/>
<path d="M213.626 112.017L211.969 112.926C211.854 112.698 211.83 112.436 211.901 112.192C211.973 111.948 212.135 111.74 212.354 111.61C212.463 111.55 212.584 111.513 212.708 111.502C212.833 111.49 212.958 111.503 213.077 111.541C213.196 111.58 213.306 111.641 213.4 111.723C213.494 111.805 213.571 111.905 213.626 112.017Z" fill="#263238"/>
<path d="M213.982 120.085L215.748 120.754C215.709 120.872 215.646 120.98 215.565 121.074C215.483 121.167 215.383 121.243 215.271 121.297C215.159 121.352 215.038 121.383 214.914 121.389C214.79 121.396 214.666 121.377 214.549 121.335C214.311 121.241 214.119 121.058 214.013 120.824C213.907 120.591 213.896 120.326 213.982 120.085Z" fill="#F28F8F"/>
<path d="M221.323 112.657L219.818 111.494C219.889 111.393 219.98 111.307 220.086 111.242C220.191 111.178 220.308 111.135 220.43 111.116C220.553 111.098 220.677 111.105 220.797 111.136C220.917 111.167 221.029 111.222 221.126 111.298C221.327 111.456 221.46 111.685 221.496 111.938C221.533 112.191 221.471 112.448 221.323 112.657Z" fill="#263238"/>
<path d="M220.858 114.706C220.852 114.857 220.802 115.003 220.714 115.126C220.626 115.249 220.504 115.343 220.362 115.397C220.221 115.451 220.067 115.462 219.92 115.429C219.772 115.396 219.638 115.321 219.533 115.212C219.428 115.103 219.358 114.966 219.33 114.817C219.303 114.669 219.319 114.515 219.379 114.376C219.438 114.237 219.536 114.119 219.662 114.035C219.788 113.952 219.936 113.907 220.087 113.907C220.19 113.909 220.292 113.931 220.386 113.972C220.481 114.013 220.566 114.073 220.638 114.147C220.71 114.221 220.766 114.309 220.803 114.405C220.841 114.501 220.859 114.603 220.858 114.706Z" fill="#263238"/>
<path d="M217.223 114.612L216.497 119.205L219.041 118.907L217.223 114.612Z" fill="#F28F8F"/>
<path d="M243.738 166.776L228.075 157.734C227.938 157.656 227.782 157.615 227.624 157.615C227.466 157.615 227.311 157.656 227.174 157.734L199.707 173.593L215.813 182.926L243.738 166.776Z" fill="#37474F"/>
<path d="M215.668 181.566L207.222 176.697L231.92 162.437L240.409 167.284L215.668 181.566Z" fill="#263238"/>
<path d="M211.518 168.019L211.678 168.106L215.813 170.497L223.176 166.245L223.329 166.158L219.033 163.679L211.518 168.019Z" fill="#263238"/>
<path d="M211.678 168.106L215.813 170.497L223.176 166.245L219.033 163.854L211.678 168.106Z" fill="#263238"/>
<path d="M199.707 173.593V173.964C199.705 174.226 199.771 174.485 199.898 174.714C200.026 174.943 200.21 175.135 200.434 175.272L215.028 183.696C215.258 183.829 215.519 183.9 215.784 183.9C216.05 183.9 216.311 183.829 216.54 183.696L242.953 168.433C243.176 168.296 243.36 168.103 243.488 167.874C243.615 167.645 243.681 167.387 243.68 167.125V166.754L215.813 182.926L199.707 173.593Z" fill="#263238"/>
<path d="M215.813 182.926V183.929C216.069 183.926 216.32 183.856 216.54 183.725L242.953 168.462C243.176 168.325 243.36 168.132 243.488 167.903C243.615 167.674 243.681 167.416 243.68 167.154V166.783L215.813 182.926Z" fill="#263238"/>
<path d="M216.242 183.122C216.492 183.217 216.76 183.256 217.027 183.234C217.293 183.213 217.552 183.132 217.783 182.998L244.079 167.815C244.308 167.684 244.504 167.504 244.653 167.288C244.803 167.071 244.902 166.824 244.944 166.565L247.852 149.405C247.859 149.305 247.859 149.206 247.852 149.107C247.85 148.629 247.659 148.172 247.321 147.835L219.993 163.614C219.825 163.711 219.68 163.844 219.569 164.004C219.459 164.163 219.385 164.345 219.353 164.537L216.242 183.122Z" fill="#263238"/>
<path d="M215.813 182.926L215.995 183.027C216.075 183.073 216.158 183.114 216.242 183.151L219.353 164.566C219.385 164.375 219.459 164.192 219.569 164.033C219.68 163.873 219.824 163.74 219.993 163.643L247.321 147.864C247.209 147.76 247.088 147.667 246.958 147.588L219.578 163.367C219.41 163.464 219.264 163.597 219.152 163.756C219.041 163.916 218.965 164.098 218.931 164.29L215.813 182.926Z" fill="#455A64"/>
<path d="M231.048 167.27C231.461 165.835 232.411 164.614 233.7 163.861C234.972 163.134 235.845 163.461 235.656 164.588C235.242 166.023 234.292 167.243 233.003 167.997C231.731 168.76 230.859 168.389 231.048 167.27Z" fill="#37474F"/>
<path d="M196.676 153.279C196.676 153.279 201.393 171.449 203.385 172.75C205.376 174.051 209.083 175.003 210.857 175.657C212.63 176.311 213.437 177.205 213.131 177.453C212.826 177.7 210.268 177.969 209.381 178.281C208.494 178.594 209.643 180.026 211.605 181.545C213.568 183.064 215.239 182.926 215.021 183.936C214.803 184.946 210.428 185.956 206.735 183.79C203.043 181.625 201.924 178.703 199.722 176.224C197.519 173.746 192.49 163.447 190.724 158.941C190.724 158.941 190.891 150.568 193.631 151.098C196.371 151.629 196.676 153.279 196.676 153.279Z" fill="#FFA8A7"/>
<path d="M219.12 190.099C219.455 190.906 220.61 193.13 223.183 193.006L229.507 187.09L219.12 190.099Z" fill="#8094D4"/>
<path opacity="0.1" d="M219.12 190.099C219.455 190.906 220.61 193.13 223.183 193.006L229.507 187.09L219.12 190.099Z" fill="black"/>
<path d="M221.032 200.507C220.971 198.604 221.285 196.708 221.955 194.925C221.651 195.138 221.299 195.274 220.931 195.322C220.563 195.37 220.189 195.329 219.84 195.202C217.725 194.569 217.194 191.618 217.529 190.979C217.223 191.248 216.904 191.502 216.591 191.764C215.589 192.437 214.876 193.461 214.592 194.635C214.447 195.558 214.876 196.466 215.087 197.382C215.494 199.126 215.087 200.943 215.021 202.731C215.036 203.512 215.211 204.281 215.534 204.991C215.858 205.701 216.324 206.337 216.904 206.86C217.499 207.441 218.141 207.973 218.822 208.451C219.07 208.73 219.399 208.925 219.762 209.009C220.125 209.094 220.506 209.063 220.851 208.922C221.197 208.781 221.49 208.536 221.69 208.221C221.89 207.907 221.988 207.538 221.97 207.165C221.693 204.897 221.163 202.87 221.032 200.507Z" fill="#263238"/>
<path d="M223.43 192.628C223.234 192.999 223.06 193.355 222.907 193.711C223.089 193.362 223.263 192.999 223.43 192.628Z" fill="#37474F"/>
</svg>
