<svg width="36" height="36" viewBox="0 0 36 36" fill="none" xmlns="http://www.w3.org/2000/svg">
<rect width="36" height="36" rx="18" fill="#ECF1F3"/>
<g clip-path="url(#clip0_1219_2511)">
<path d="M26.062 23.4613C25.5263 22.9837 25.0572 22.4362 24.6675 21.8335C24.2417 21.0018 23.9867 20.0932 23.9175 19.1613V16.4169C23.9212 14.9533 23.3903 13.5388 22.4246 12.4391C21.4589 11.3394 20.1248 10.6301 18.6731 10.4447V9.72799C18.6731 9.53129 18.595 9.34265 18.4559 9.20356C18.3168 9.06447 18.1281 8.98633 17.9314 8.98633C17.7347 8.98633 17.5461 9.06447 17.407 9.20356C17.2679 9.34265 17.1898 9.53129 17.1898 9.72799V10.4558C15.751 10.6546 14.4331 11.3681 13.4801 12.4642C12.527 13.5602 12.0035 14.9645 12.0064 16.4169V19.1613C11.9373 20.0932 11.6823 21.0018 11.2564 21.8335C10.8736 22.4349 10.4121 22.9823 9.8842 23.4613C9.82494 23.5134 9.77745 23.5775 9.74488 23.6493C9.71231 23.7212 9.69541 23.7991 9.69531 23.878V24.6335C9.69531 24.7809 9.75384 24.9222 9.85803 25.0264C9.96222 25.1306 10.1035 25.1891 10.2509 25.1891H25.6953C25.8427 25.1891 25.984 25.1306 26.0882 25.0264C26.1923 24.9222 26.2509 24.7809 26.2509 24.6335V23.878C26.2508 23.7991 26.2339 23.7212 26.2013 23.6493C26.1687 23.5775 26.1212 23.5134 26.062 23.4613ZM10.8509 24.078C11.3676 23.5786 11.8227 23.019 12.2064 22.4113C12.743 21.4069 13.0557 20.2981 13.1231 19.1613V16.4169C13.1011 15.7658 13.2103 15.1169 13.4442 14.5089C13.6782 13.9009 14.0321 13.3462 14.4849 12.8778C14.9377 12.4094 15.4801 12.037 16.0799 11.7826C16.6796 11.5282 17.3244 11.3971 17.9759 11.3971C18.6273 11.3971 19.2721 11.5282 19.8719 11.7826C20.4716 12.037 21.014 12.4094 21.4668 12.8778C21.9196 13.3462 22.2736 13.9009 22.5075 14.5089C22.7415 15.1169 22.8507 15.7658 22.8286 16.4169V19.1613C22.896 20.2981 23.2088 21.4069 23.7453 22.4113C24.129 23.019 24.5841 23.5786 25.1009 24.078H10.8509Z" fill="#2D3439"/>
<path d="M18.0006 27.044C18.3506 27.036 18.6864 26.9044 18.9487 26.6726C19.211 26.4408 19.3829 26.1237 19.4339 25.7773H16.5117C16.5642 26.1331 16.7441 26.4576 17.018 26.6906C17.2919 26.9236 17.6411 27.0492 18.0006 27.044Z" fill="#2D3439"/>
</g>
<defs>
<clipPath id="clip0_1219_2511">
<rect width="20" height="20" fill="white" transform="translate(8 8)"/>
</clipPath>
</defs>
</svg>
