<svg width="36" height="36" viewBox="0 0 36 36" fill="none" xmlns="http://www.w3.org/2000/svg">
<rect width="36" height="36" rx="18" fill="#ECF1F3"/>
<path d="M18 11.125C17.6685 11.125 17.3505 11.2567 17.1161 11.4911C16.8817 11.7255 16.75 12.0435 16.75 12.375C16.75 12.7065 16.8817 13.0245 17.1161 13.2589C17.3505 13.4933 17.6685 13.625 18 13.625C18.3315 13.625 18.6495 13.4933 18.8839 13.2589C19.1183 13.0245 19.25 12.7065 19.25 12.375C19.25 12.0435 19.1183 11.7255 18.8839 11.4911C18.6495 11.2567 18.3315 11.125 18 11.125ZM15.5 12.375C15.5 11.712 15.7634 11.0761 16.2322 10.6072C16.7011 10.1384 17.337 9.875 18 9.875C18.663 9.875 19.2989 10.1384 19.7678 10.6072C20.2366 11.0761 20.5 11.712 20.5 12.375C20.5 13.038 20.2366 13.6739 19.7678 14.1428C19.2989 14.6116 18.663 14.875 18 14.875C17.337 14.875 16.7011 14.6116 16.2322 14.1428C15.7634 13.6739 15.5 13.038 15.5 12.375ZM23.9375 11.75C23.6889 11.75 23.4504 11.8488 23.2746 12.0246C23.0988 12.2004 23 12.4389 23 12.6875C23 12.9361 23.0988 13.1746 23.2746 13.3504C23.4504 13.5262 23.6889 13.625 23.9375 13.625C24.1861 13.625 24.4246 13.5262 24.6004 13.3504C24.7762 13.1746 24.875 12.9361 24.875 12.6875C24.875 12.4389 24.7762 12.2004 24.6004 12.0246C24.4246 11.8488 24.1861 11.75 23.9375 11.75ZM21.75 12.6875C21.75 12.4002 21.8066 12.1158 21.9165 11.8504C22.0264 11.585 22.1876 11.3438 22.3907 11.1407C22.5938 10.9376 22.835 10.7764 23.1004 10.6665C23.3658 10.5566 23.6502 10.5 23.9375 10.5C24.2248 10.5 24.5092 10.5566 24.7746 10.6665C25.04 10.7764 25.2812 10.9376 25.4843 11.1407C25.6874 11.3438 25.8486 11.585 25.9585 11.8504C26.0684 12.1158 26.125 12.4002 26.125 12.6875C26.125 13.2677 25.8945 13.8241 25.4843 14.2343C25.0741 14.6445 24.5177 14.875 23.9375 14.875C23.3573 14.875 22.8009 14.6445 22.3907 14.2343C21.9805 13.8241 21.75 13.2677 21.75 12.6875ZM11.125 12.6875C11.125 12.4389 11.2238 12.2004 11.3996 12.0246C11.5754 11.8488 11.8139 11.75 12.0625 11.75C12.3111 11.75 12.5496 11.8488 12.7254 12.0246C12.9012 12.2004 13 12.4389 13 12.6875C13 12.9361 12.9012 13.1746 12.7254 13.3504C12.5496 13.5262 12.3111 13.625 12.0625 13.625C11.8139 13.625 11.5754 13.5262 11.3996 13.3504C11.2238 13.1746 11.125 12.9361 11.125 12.6875ZM12.0625 10.5C11.4823 10.5 10.9259 10.7305 10.5157 11.1407C10.1055 11.5509 9.875 12.1073 9.875 12.6875C9.875 13.2677 10.1055 13.8241 10.5157 14.2343C10.9259 14.6445 11.4823 14.875 12.0625 14.875C12.6427 14.875 13.1991 14.6445 13.6093 14.2343C14.0195 13.8241 14.25 13.2677 14.25 12.6875C14.25 12.1073 14.0195 11.5509 13.6093 11.1407C13.1991 10.7305 12.6427 10.5 12.0625 10.5ZM13.4069 23.3156C13.1242 23.5019 12.7964 23.6082 12.4581 23.6233C12.1199 23.6383 11.784 23.5614 11.4859 23.4009C11.1878 23.2404 10.9388 23.0021 10.7652 22.7115C10.5916 22.4208 10.5 22.0885 10.5 21.75V17.6875C10.5 17.6046 10.5329 17.5251 10.5915 17.4665C10.6501 17.4079 10.7296 17.375 10.8125 17.375H13.3319C13.3895 16.9175 13.5725 16.4849 13.8606 16.125H10.8125C10.3981 16.125 10.0007 16.2896 9.70765 16.5826C9.41462 16.8757 9.25 17.2731 9.25 17.6875V21.75C9.24984 22.2882 9.38866 22.8173 9.65302 23.286C9.91738 23.7548 10.2983 24.1473 10.7589 24.4256C11.2196 24.7039 11.7442 24.8586 12.2822 24.8746C12.8201 24.8905 13.353 24.7673 13.8294 24.5169C13.6346 24.1375 13.4924 23.7334 13.4069 23.3156ZM22.1706 24.5169C22.647 24.7673 23.1799 24.8905 23.7178 24.8746C24.2558 24.8586 24.7804 24.7039 25.2411 24.4256C25.7017 24.1473 26.0826 23.7548 26.347 23.286C26.6113 22.8173 26.7502 22.2882 26.75 21.75V17.6875C26.75 17.2731 26.5854 16.8757 26.2924 16.5826C25.9993 16.2896 25.6019 16.125 25.1875 16.125H22.1394C22.4275 16.4849 22.6105 16.9175 22.6681 17.375H25.1875C25.2704 17.375 25.3499 17.4079 25.4085 17.4665C25.4671 17.5251 25.5 17.6046 25.5 17.6875V21.75C25.5 22.0885 25.4084 22.4208 25.2348 22.7115C25.0612 23.0021 24.8122 23.2404 24.5141 23.4009C24.216 23.5614 23.8801 23.6383 23.5419 23.6233C23.2036 23.6082 22.8758 23.5019 22.5931 23.3156C22.5076 23.7334 22.3654 24.1375 22.1706 24.5169ZM15.8125 16.125C15.3981 16.125 15.0007 16.2896 14.7076 16.5826C14.4146 16.8757 14.25 17.2731 14.25 17.6875V22.375C14.25 23.3696 14.6451 24.3234 15.3483 25.0267C16.0516 25.7299 17.0054 26.125 18 26.125C18.9946 26.125 19.9484 25.7299 20.6517 25.0267C21.3549 24.3234 21.75 23.3696 21.75 22.375V17.6875C21.75 17.2731 21.5854 16.8757 21.2924 16.5826C20.9993 16.2896 20.6019 16.125 20.1875 16.125H15.8125ZM15.5 17.6875C15.5 17.6046 15.5329 17.5251 15.5915 17.4665C15.6501 17.4079 15.7296 17.375 15.8125 17.375H20.1875C20.2704 17.375 20.3499 17.4079 20.4085 17.4665C20.4671 17.5251 20.5 17.6046 20.5 17.6875V22.375C20.5 23.038 20.2366 23.6739 19.7678 24.1428C19.2989 24.6116 18.663 24.875 18 24.875C17.337 24.875 16.7011 24.6116 16.2322 24.1428C15.7634 23.6739 15.5 23.038 15.5 22.375V17.6875Z" fill="#2D3439"/>
</svg>
