<svg width="36" height="36" viewBox="0 0 36 36" fill="none" xmlns="http://www.w3.org/2000/svg">
<rect width="36" height="36" rx="18" fill="#ECF1F3"/>
<g clip-path="url(#clip0_1942_11437)">
<path d="M26.4431 12.6885C26.526 12.6885 26.6055 12.6556 26.6641 12.597C26.7227 12.5384 26.7556 12.4589 26.7556 12.376V11.3354C26.7553 11.064 26.6473 10.8038 26.4554 10.6118C26.2635 10.4199 26.0033 10.312 25.7319 10.3116H24.0525L23.6694 9.18101C23.6433 9.10412 23.5884 9.04038 23.5162 9.00329C23.444 8.96619 23.3602 8.95865 23.2825 8.98226L14.1869 11.7473C14.1116 11.7747 14.0497 11.83 14.014 11.9017C13.9782 11.9735 13.9713 12.0562 13.9947 12.1328C14.0181 12.2094 14.07 12.2742 14.1397 12.3138C14.2094 12.3533 14.2916 12.3646 14.3694 12.3454L23.175 9.66788L24.0144 12.146C24.041 12.2245 24.0977 12.2892 24.172 12.3259C24.2463 12.3626 24.3321 12.3682 24.4106 12.3416C24.4891 12.315 24.5538 12.2583 24.5905 12.184C24.6272 12.1097 24.6329 12.0239 24.6063 11.9454L24.2644 10.936H25.7325C25.9525 10.936 26.1313 11.1148 26.1313 11.3348V12.376C26.1306 12.5485 26.2706 12.6885 26.4431 12.6885Z" fill="#2D3439"/>
<path d="M28.9375 17.3758C28.8546 17.3758 28.7751 17.4087 28.7165 17.4673C28.6579 17.5259 28.625 17.6054 28.625 17.6883C28.625 17.7712 28.6579 17.8507 28.7165 17.9093C28.7751 17.9679 28.8546 18.0008 28.9375 18.0008C29.1569 18.0008 29.25 18.0939 29.25 18.3133V22.0633C29.25 22.2827 29.1569 22.3758 28.9375 22.3758H23.9375C23.7181 22.3758 23.625 22.2827 23.625 22.0633V18.9383C23.625 18.7189 23.7181 18.6258 23.9375 18.6258H27.6875C27.7704 18.6258 27.8499 18.5929 27.9085 18.5343C27.9671 18.4757 28 18.3962 28 18.3133V14.5633C28 13.9939 27.6319 13.6258 27.0625 13.6258H8C7.22938 13.6258 6.75 13.1464 6.75 12.3758C6.75 11.6052 7.22938 11.1258 8 11.1258H11.1725L9.28125 11.7495C9.24086 11.7612 9.20324 11.7809 9.17063 11.8074C9.13803 11.8339 9.11111 11.8667 9.09148 11.9039C9.07186 11.9411 9.05994 11.9818 9.05643 12.0237C9.05292 12.0656 9.0579 12.1078 9.07106 12.1477C9.08423 12.1876 9.10531 12.2245 9.13305 12.256C9.16079 12.2876 9.19462 12.3133 9.2325 12.3315C9.27039 12.3497 9.31156 12.3601 9.35355 12.362C9.39554 12.3639 9.43748 12.3573 9.47687 12.3427L20.8013 8.60955C20.8402 8.59666 20.8763 8.57622 20.9074 8.5494C20.9385 8.52257 20.964 8.48989 20.9824 8.45321C21.0009 8.41653 21.0119 8.37657 21.015 8.33562C21.018 8.29467 21.0129 8.25353 21 8.21455C20.9871 8.17556 20.9667 8.13949 20.9399 8.10841C20.913 8.07732 20.8803 8.05182 20.8437 8.03336C20.807 8.01491 20.767 8.00386 20.7261 8.00084C20.6851 7.99783 20.644 8.00291 20.605 8.0158L13.0425 10.5095C13.0281 10.507 13.015 10.5008 13 10.5008H8C6.87875 10.5008 6.125 11.2545 6.125 12.3758V26.1258C6.125 27.247 6.87875 28.0008 8 28.0008H27.0625C27.6319 28.0008 28 27.6327 28 27.0633V23.9383C28 23.8554 27.9671 23.7759 27.9085 23.7173C27.8499 23.6587 27.7704 23.6258 27.6875 23.6258C27.6046 23.6258 27.5251 23.6587 27.4665 23.7173C27.4079 23.7759 27.375 23.8554 27.375 23.9383V27.0633C27.375 27.2827 27.2819 27.3758 27.0625 27.3758H8C7.22938 27.3758 6.75 26.8964 6.75 26.1258V13.8208C7.07063 14.0914 7.495 14.2508 8 14.2508H27.0625C27.2819 14.2508 27.375 14.3439 27.375 14.5633V18.0008H23.9375C23.3681 18.0008 23 18.3689 23 18.9383V22.0633C23 22.6327 23.3681 23.0008 23.9375 23.0008H28.9375C29.5069 23.0008 29.875 22.6327 29.875 22.0633V18.3133C29.875 17.7439 29.5069 17.3758 28.9375 17.3758Z" fill="#2D3439"/>
<path d="M26.125 21.125C26.4702 21.125 26.75 20.8452 26.75 20.5C26.75 20.1548 26.4702 19.875 26.125 19.875C25.7798 19.875 25.5 20.1548 25.5 20.5C25.5 20.8452 25.7798 21.125 26.125 21.125Z" fill="#2D3439"/>
</g>
<defs>
<clipPath id="clip0_1942_11437">
<rect width="23.75" height="20" fill="white" transform="translate(6.125 8)"/>
</clipPath>
</defs>
</svg>
