<svg width="20" height="20" viewBox="0 0 20 20" fill="none" xmlns="http://www.w3.org/2000/svg">
<path d="M12.9162 11.6669H12.2579L12.0246 11.4419C12.5454 10.8369 12.926 10.1242 13.1392 9.3549C13.3524 8.5856 13.393 7.77868 13.2579 6.99189C12.8662 4.67522 10.9329 2.82522 8.59958 2.54189C7.77926 2.43811 6.94607 2.52337 6.16377 2.79113C5.38147 3.0589 4.67079 3.50207 4.08611 4.08675C3.50143 4.67143 3.05825 5.38211 2.79049 6.16441C2.52273 6.94671 2.43747 7.7799 2.54125 8.60022C2.82458 10.9336 4.67458 12.8669 6.99125 13.2586C7.77804 13.3936 8.58496 13.3531 9.35426 13.1398C10.1236 12.9266 10.8362 12.546 11.4412 12.0252L11.6662 12.2586V12.9169L15.2079 16.4586C15.5496 16.8002 16.1079 16.8002 16.4496 16.4586C16.7912 16.1169 16.7912 15.5586 16.4496 15.2169L12.9162 11.6669ZM7.91625 11.6669C5.84125 11.6669 4.16625 9.99189 4.16625 7.91689C4.16625 5.84189 5.84125 4.16689 7.91625 4.16689C9.99125 4.16689 11.6662 5.84189 11.6662 7.91689C11.6662 9.99189 9.99125 11.6669 7.91625 11.6669Z" fill="#5B6C78"/>
</svg>
