<svg width="325" height="242" viewBox="0 0 325 242" fill="none" xmlns="http://www.w3.org/2000/svg">
<path d="M324.196 212.479H0V212.641H324.196V212.479Z" fill="#EBEBEB"/>
<path d="M291.712 222.912H270.237V223.074H291.712V222.912Z" fill="#EBEBEB"/>
<path d="M214.761 224.675H209.126V224.837H214.761V224.675Z" fill="#EBEBEB"/>
<path d="M269.588 216.895H257.146V217.057H269.588V216.895Z" fill="#EBEBEB"/>
<path d="M62.0187 217.984H34.0146V218.146H62.0187V217.984Z" fill="#EBEBEB"/>
<path d="M71.9002 217.984H67.7959V218.146H71.9002V217.984Z" fill="#EBEBEB"/>
<path d="M145.985 220.72H85.2441V220.882H145.985V220.72Z" fill="#EBEBEB"/>
<path d="M153.669 183.561H28.4712C27.4904 183.559 26.5504 183.168 25.8575 182.474C25.1646 181.78 24.7754 180.839 24.7754 179.858V3.86545C24.7839 2.89029 25.1769 1.95787 25.8689 1.27073C26.5609 0.583592 27.496 0.197227 28.4712 0.195557H153.669C154.651 0.195557 155.593 0.585621 156.287 1.27994C156.981 1.97426 157.371 2.91596 157.371 3.89787V179.858C157.371 180.84 156.981 181.782 156.287 182.476C155.593 183.171 154.651 183.561 153.669 183.561ZM28.4712 0.325235C27.5334 0.326953 26.6346 0.700696 25.9721 1.36443C25.3096 2.02816 24.9375 2.92765 24.9375 3.86545V179.858C24.9375 180.796 25.3096 181.696 25.9721 182.359C26.6346 183.023 27.5334 183.397 28.4712 183.399H153.669C154.608 183.397 155.507 183.023 156.171 182.36C156.834 181.696 157.208 180.797 157.209 179.858V3.86545C157.208 2.92706 156.834 2.02758 156.171 1.36403C155.507 0.700485 154.608 0.326949 153.669 0.325235H28.4712Z" fill="#EBEBEB"/>
<path d="M293.922 183.561H168.718C167.737 183.559 166.796 183.168 166.102 182.474C165.408 181.781 165.017 180.84 165.016 179.858V3.86545C165.026 2.8897 165.42 1.95729 166.113 1.27033C166.806 0.583365 167.742 0.197209 168.718 0.195557H293.922C294.896 0.198931 295.83 0.58605 296.521 1.27301C297.211 1.95996 297.603 2.89141 297.612 3.86545V179.858C297.612 180.838 297.223 181.778 296.532 182.472C295.84 183.166 294.902 183.557 293.922 183.561ZM168.718 0.325235C167.78 0.326949 166.88 0.700485 166.217 1.36403C165.553 2.02758 165.179 2.92706 165.178 3.86545V179.858C165.179 180.797 165.553 181.696 166.217 182.36C166.88 183.023 167.78 183.397 168.718 183.399H293.922C294.861 183.397 295.76 183.023 296.424 182.36C297.087 181.696 297.461 180.797 297.463 179.858V3.86545C297.461 2.92706 297.087 2.02758 296.424 1.36403C295.76 0.700485 294.861 0.326949 293.922 0.325235H168.718Z" fill="#EBEBEB"/>
<path d="M106.654 7.16577H60.4561V163.889H106.654V7.16577Z" fill="#FAFAFA"/>
<path d="M99.7747 7.16577H97.0774L80.9648 163.889H83.6622L99.7747 7.16577Z" fill="#F5F5F5"/>
<path d="M105.837 7.7688H60.1577V9.14987H105.837V7.7688Z" fill="#E0E0E0"/>
<path d="M105.837 162.514H60.1577V165.471H105.837V162.514Z" fill="#EBEBEB"/>
<path d="M105.078 165.341H61.915V165.471H105.078V165.341Z" fill="#EBEBEB"/>
<path d="M61.9152 7.76877H105.079V165.341H107.666V5.83008H59.3281V165.341H61.9152V7.76877Z" fill="#EBEBEB"/>
<path d="M158.065 7.16577H111.867V163.889H158.065V7.16577Z" fill="#FAFAFA"/>
<path d="M145.246 7.16577H130.521L114.409 163.889H129.134L145.246 7.16577Z" fill="#F5F5F5"/>
<path d="M158.545 7.7688H111.569V9.14987H158.545V7.7688Z" fill="#E0E0E0"/>
<path d="M158.545 162.514H111.569V165.471H158.545V162.514Z" fill="#EBEBEB"/>
<path d="M156.49 165.341H113.326V165.471H156.49V165.341Z" fill="#EBEBEB"/>
<path d="M113.326 7.76877H156.489V165.341H159.07V5.83008H110.739V165.341H113.326V7.76877Z" fill="#EBEBEB"/>
<path d="M208.173 7.16577H163.271V163.889H208.173V7.16577Z" fill="#FAFAFA"/>
<path d="M188.715 7.16577H186.017L169.905 163.889H172.602L188.715 7.16577Z" fill="#F5F5F5"/>
<path d="M208.659 7.7688H162.98V9.14987H208.659V7.7688Z" fill="#E0E0E0"/>
<path d="M208.659 162.514H162.98V165.471H208.659V162.514Z" fill="#EBEBEB"/>
<path d="M207.9 165.341H164.737V165.471H207.9V165.341Z" fill="#EBEBEB"/>
<path d="M164.737 7.76877H207.894V165.341H210.482V5.83008H162.15V165.341H164.737V7.76877Z" fill="#EBEBEB"/>
<path d="M260.881 7.16577H214.683V163.889H260.881V7.16577Z" fill="#FAFAFA"/>
<path d="M256.362 7.16577H241.637L225.518 163.889H240.249L256.362 7.16577Z" fill="#F5F5F5"/>
<path d="M260.064 7.7688H214.385V9.14987H260.064V7.7688Z" fill="#E0E0E0"/>
<path d="M260.064 162.514H214.385V165.471H260.064V162.514Z" fill="#EBEBEB"/>
<path d="M216.142 7.76877H259.305V165.341H261.892V5.83008H213.561V165.341H216.142V7.76877Z" fill="#EBEBEB"/>
<path d="M259.305 165.341H216.142V165.471H259.305V165.341Z" fill="#EBEBEB"/>
<path d="M95.5992 127.838H75.5444V162.52H95.5992V127.838Z" fill="#EBEBEB"/>
<path d="M91.7479 122.988V131.689H90.1723H80.9781H79.396V122.988H91.7479Z" fill="#EBEBEB"/>
<path d="M91.7478 131.689H94.3154V129.122H91.7478V131.689Z" fill="#FAFAFA"/>
<path d="M86.781 131.689H89.3486V129.122H86.781V131.689Z" fill="#FAFAFA"/>
<path d="M81.8079 131.689H84.3755V129.122H81.8079V131.689Z" fill="#FAFAFA"/>
<path d="M76.8347 131.689H79.4023V129.122H76.8347V131.689Z" fill="#F0F0F0"/>
<path d="M91.7478 136.352H94.3154V133.784H91.7478V136.352Z" fill="#F0F0F0"/>
<path d="M86.781 136.351H89.3486V133.784H86.781V136.351Z" fill="#F0F0F0"/>
<path d="M81.8079 136.352H84.3755V133.784H81.8079V136.352Z" fill="#FAFAFA"/>
<path d="M76.8347 136.351H79.4023V133.784H76.8347V136.351Z" fill="#FAFAFA"/>
<path d="M91.7478 141.02H94.3154V138.452H91.7478V141.02Z" fill="#F0F0F0"/>
<path d="M86.781 141.02H89.3486V138.452H86.781V141.02Z" fill="#FAFAFA"/>
<path d="M81.8079 141.02H84.3755V138.452H81.8079V141.02Z" fill="#FAFAFA"/>
<path d="M86.781 127.656H89.3486V125.089H86.781V127.656Z" fill="#FAFAFA"/>
<path d="M81.8079 127.656H84.3755V125.089H81.8079V127.656Z" fill="#F0F0F0"/>
<path d="M76.8347 141.02H79.4023V138.452H76.8347V141.02Z" fill="#F0F0F0"/>
<path d="M91.7478 145.688H94.3154V143.121H91.7478V145.688Z" fill="#FAFAFA"/>
<path d="M86.781 145.688H89.3486V143.121H86.781V145.688Z" fill="#F0F0F0"/>
<path d="M81.8079 145.688H84.3755V143.121H81.8079V145.688Z" fill="#F0F0F0"/>
<path d="M76.8347 145.688H79.4023V143.121H76.8347V145.688Z" fill="#FAFAFA"/>
<path d="M91.7478 150.356H94.3154V147.789H91.7478V150.356Z" fill="#F0F0F0"/>
<path d="M86.781 150.357H89.3486V147.789H86.781V150.357Z" fill="#FAFAFA"/>
<path d="M81.8079 150.356H84.3755V147.789H81.8079V150.356Z" fill="#FAFAFA"/>
<path d="M76.8347 150.357H79.4023V147.789H76.8347V150.357Z" fill="#F0F0F0"/>
<path d="M91.7478 155.019H94.3154V152.451H91.7478V155.019Z" fill="#F0F0F0"/>
<path d="M86.781 155.019H89.3486V152.451H86.781V155.019Z" fill="#FAFAFA"/>
<path d="M81.8079 155.019H84.3755V152.451H81.8079V155.019Z" fill="#F0F0F0"/>
<path d="M76.8347 155.019H79.4023V152.451H76.8347V155.019Z" fill="#FAFAFA"/>
<path d="M91.7478 159.687H94.3154V157.119H91.7478V159.687Z" fill="#FAFAFA"/>
<path d="M86.781 159.687H89.3486V157.119H86.781V159.687Z" fill="#FAFAFA"/>
<path d="M81.8079 159.687H84.3755V157.119H81.8079V159.687Z" fill="#F0F0F0"/>
<path d="M76.8347 159.687H79.4023V157.119H76.8347V159.687Z" fill="#F0F0F0"/>
<path d="M236.883 140.469H218.917V162.514H236.883V140.469Z" fill="#F0F0F0"/>
<path d="M220.479 142.92H224.655H225.809H226.957V145.215H225.809H224.655H220.479V142.92Z" fill="#E6E6E6"/>
<path d="M220.479 147.374H224.655H225.809H226.957V149.676H225.809H224.655H220.479V147.374Z" fill="#FAFAFA"/>
<path d="M220.479 151.828H224.655H225.809H226.957V154.13H225.809H224.655H220.479V151.828Z" fill="#E6E6E6"/>
<path d="M220.479 156.283H224.655H226.432H226.957V158.585H226.432H224.655H220.479V156.283Z" fill="#FAFAFA"/>
<path d="M228.837 142.92H233.019H234.167H235.314V145.215H234.167H233.019H228.837V142.92Z" fill="#FAFAFA"/>
<path d="M228.837 147.374H233.019H234.64H235.314V149.676H234.64H233.019H228.837V147.374Z" fill="#FAFAFA"/>
<path d="M228.837 151.828H233.019H234.167H235.314V154.13H234.167H233.019H228.837V151.828Z" fill="#E6E6E6"/>
<path d="M228.837 156.283H233.019H234.167H235.314V158.585H234.167H233.019H228.837V156.283Z" fill="#FAFAFA"/>
<path d="M150.304 148.82H133.978V162.521H150.304V148.82Z" fill="#F0F0F0"/>
<path d="M147.172 152.62H149.26V150.532H147.172V152.62Z" fill="#FAFAFA"/>
<path d="M143.126 152.62H145.214V150.532H143.126V152.62Z" fill="#FAFAFA"/>
<path d="M139.074 152.62H141.162V150.532H139.074V152.62Z" fill="#FAFAFA"/>
<path d="M135.028 152.62H137.116V150.532H135.028V152.62Z" fill="#FAFAFA"/>
<path d="M147.172 156.413H149.26V154.325H147.172V156.413Z" fill="#FAFAFA"/>
<path d="M143.126 156.413H145.214V154.325H143.126V156.413Z" fill="#FAFAFA"/>
<path d="M139.074 156.413H141.162V154.325H139.074V156.413Z" fill="#FAFAFA"/>
<path d="M135.028 156.413H137.116V154.325H135.028V156.413Z" fill="#E6E6E6"/>
<path d="M147.172 160.212H149.26V158.124H147.172V160.212Z" fill="#E6E6E6"/>
<path d="M143.126 160.212H145.214V158.124H143.126V160.212Z" fill="#E6E6E6"/>
<path d="M139.074 160.212H141.162V158.124H139.074V160.212Z" fill="#FAFAFA"/>
<path d="M135.028 160.212H137.116V158.124H135.028V160.212Z" fill="#E6E6E6"/>
<path d="M131.766 138.692H115.44V162.521H131.766V138.692Z" fill="#F0F0F0"/>
<path d="M130.722 139.736H124.582V145.623H130.722V139.736Z" fill="#FAFAFA"/>
<path d="M122.624 139.736H116.484V145.623H122.624V139.736Z" fill="#FAFAFA"/>
<path d="M130.722 147.329H124.582V153.216H130.722V147.329Z" fill="#FAFAFA"/>
<path d="M122.624 147.329H116.484V153.216H122.624V147.329Z" fill="#FAFAFA"/>
<path d="M130.722 154.921H124.582V160.809H130.722V154.921Z" fill="#FAFAFA"/>
<path d="M122.624 154.921H116.484V160.809H122.624V154.921Z" fill="#FAFAFA"/>
<path d="M162.098 241.76C231.529 241.76 287.815 238.474 287.815 234.421C287.815 230.367 231.529 227.081 162.098 227.081C92.6666 227.081 36.3813 230.367 36.3813 234.421C36.3813 238.474 92.6666 241.76 162.098 241.76Z" fill="#F5F5F5"/>
<path d="M288.256 16.1526V158.954L271.074 176.137H171.604V16.1526H288.256Z" fill="#8094D4"/>
<path opacity="0.8" d="M288.256 16.1526V158.954L271.074 176.137H171.604V16.1526H288.256Z" fill="white"/>
<path opacity="0.2" d="M271.074 176.137V159.46H288.256L271.411 176.305" fill="black"/>
<path opacity="0.1" d="M215.747 30.0218H183.573C183.121 30.0218 182.687 29.8421 182.368 29.5223C182.048 29.2025 181.868 28.7688 181.868 28.3165C181.867 28.092 181.911 27.8696 181.996 27.6619C182.081 27.4543 182.207 27.2655 182.365 27.1065C182.524 26.9474 182.712 26.8213 182.919 26.7352C183.127 26.6491 183.349 26.6047 183.573 26.6047H215.747C216.199 26.6065 216.633 26.7876 216.953 27.1084C217.272 27.4292 217.452 27.8636 217.452 28.3165C217.452 28.7688 217.272 29.2025 216.952 29.5223C216.633 29.8421 216.199 30.0218 215.747 30.0218Z" fill="black"/>
<path opacity="0.1" d="M274.102 43.8584H196.541C196.317 43.8584 196.094 43.8141 195.887 43.728C195.68 43.6419 195.492 43.5157 195.333 43.3567C195.175 43.1976 195.049 43.0089 194.964 42.8012C194.879 42.5936 194.835 42.3712 194.836 42.1467C194.836 41.6944 195.016 41.2607 195.335 40.9409C195.655 40.6211 196.089 40.4414 196.541 40.4414H274.102C274.554 40.4414 274.988 40.6211 275.308 40.9409C275.627 41.2607 275.807 41.6944 275.807 42.1467C275.807 42.5995 275.628 43.034 275.308 43.3548C274.988 43.6756 274.555 43.8567 274.102 43.8584Z" fill="black"/>
<path opacity="0.1" d="M274.102 50.5823H183.573C183.121 50.5823 182.687 50.4026 182.368 50.0828C182.048 49.763 181.868 49.3293 181.868 48.877C181.867 48.6526 181.911 48.4301 181.996 48.2225C182.081 48.0148 182.207 47.8261 182.365 47.667C182.524 47.508 182.712 47.3818 182.919 47.2957C183.127 47.2096 183.349 47.1653 183.573 47.1653H274.102C274.555 47.167 274.988 47.3481 275.308 47.6689C275.628 47.9898 275.807 48.4242 275.807 48.877C275.807 49.3293 275.628 49.763 275.308 50.0828C274.988 50.4026 274.554 50.5823 274.102 50.5823Z" fill="black"/>
<path opacity="0.1" d="M274.102 58.1814H183.573C183.349 58.1814 183.127 58.1371 182.919 58.051C182.712 57.9649 182.524 57.8387 182.365 57.6797C182.207 57.5206 182.081 57.3319 181.996 57.1242C181.911 56.9166 181.867 56.6942 181.868 56.4697C181.868 56.0174 182.048 55.5837 182.368 55.2639C182.687 54.9441 183.121 54.7644 183.573 54.7644H274.102C274.554 54.7644 274.988 54.9441 275.308 55.2639C275.628 55.5837 275.807 56.0174 275.807 56.4697C275.807 56.9225 275.628 57.3569 275.308 57.6778C274.988 57.9986 274.555 58.1797 274.102 58.1814Z" fill="black"/>
<path opacity="0.1" d="M274.102 65.7741H183.573C183.121 65.7741 182.687 65.5944 182.368 65.2746C182.048 64.9548 181.868 64.5211 181.868 64.0688C181.868 63.6165 182.048 63.1828 182.368 62.863C182.687 62.5432 183.121 62.3635 183.573 62.3635H274.102C274.554 62.3635 274.988 62.5432 275.308 62.863C275.628 63.1828 275.807 63.6165 275.807 64.0688C275.807 64.5211 275.628 64.9548 275.308 65.2746C274.988 65.5944 274.554 65.7741 274.102 65.7741Z" fill="black"/>
<path opacity="0.1" d="M274.102 73.3732H183.573C183.121 73.3732 182.687 73.1935 182.368 72.8737C182.048 72.5539 181.868 72.1202 181.868 71.6679C181.867 71.4437 181.911 71.2216 181.996 71.0143C182.082 70.8071 182.207 70.6187 182.366 70.4602C182.524 70.3017 182.713 70.1761 182.92 70.0907C183.127 70.0053 183.349 69.9618 183.573 69.9627H274.102C274.554 69.9627 274.988 70.1423 275.308 70.4621C275.628 70.7819 275.807 71.2157 275.807 71.6679C275.807 72.1202 275.628 72.5539 275.308 72.8737C274.988 73.1935 274.554 73.3732 274.102 73.3732Z" fill="black"/>
<path opacity="0.1" d="M274.102 80.9722H183.573C183.121 80.9722 182.687 80.7925 182.368 80.4727C182.048 80.1529 181.868 79.7192 181.868 79.2669C181.867 79.0424 181.911 78.82 181.996 78.6124C182.081 78.4047 182.207 78.216 182.365 78.0569C182.524 77.8979 182.712 77.7717 182.919 77.6856C183.127 77.5995 183.349 77.5552 183.573 77.5552H274.102C274.555 77.5569 274.988 77.738 275.308 78.0588C275.628 78.3797 275.807 78.8141 275.807 79.2669C275.807 79.7192 275.628 80.1529 275.308 80.4727C274.988 80.7925 274.554 80.9722 274.102 80.9722Z" fill="black"/>
<path opacity="0.1" d="M274.108 85.1545H183.573C182.632 85.1545 181.868 85.918 181.868 86.8598V86.8663C181.868 87.8081 182.632 88.5716 183.573 88.5716H274.108C275.05 88.5716 275.814 87.8081 275.814 86.8663V86.8598C275.814 85.918 275.05 85.1545 274.108 85.1545Z" fill="black"/>
<path opacity="0.1" d="M274.102 96.1576H183.573C183.121 96.1576 182.687 95.9779 182.368 95.6581C182.048 95.3383 181.868 94.9046 181.868 94.4523C181.868 94.0001 182.048 93.5663 182.368 93.2465C182.687 92.9267 183.121 92.7471 183.573 92.7471H274.102C274.554 92.7471 274.988 92.9267 275.308 93.2465C275.628 93.5663 275.807 94.0001 275.807 94.4523C275.807 94.9046 275.628 95.3383 275.308 95.6581C274.988 95.9779 274.554 96.1576 274.102 96.1576Z" fill="black"/>
<path opacity="0.1" d="M274.102 103.763H183.573C183.121 103.763 182.687 103.584 182.368 103.264C182.048 102.944 181.868 102.51 181.868 102.058C181.867 101.834 181.911 101.612 181.996 101.404C182.082 101.197 182.207 101.009 182.366 100.85C182.524 100.692 182.713 100.566 182.92 100.481C183.127 100.395 183.349 100.352 183.573 100.353H274.102C274.554 100.353 274.988 100.532 275.308 100.852C275.628 101.172 275.807 101.606 275.807 102.058C275.807 102.51 275.628 102.944 275.308 103.264C274.988 103.584 274.554 103.763 274.102 103.763Z" fill="black"/>
<path opacity="0.1" d="M274.102 111.362H183.573C183.121 111.362 182.687 111.183 182.368 110.863C182.048 110.543 181.868 110.109 181.868 109.657C181.867 109.433 181.911 109.21 181.996 109.003C182.081 108.795 182.207 108.606 182.365 108.447C182.524 108.288 182.712 108.162 182.919 108.076C183.127 107.99 183.349 107.945 183.573 107.945H274.102C274.555 107.947 274.988 108.128 275.308 108.449C275.628 108.77 275.807 109.204 275.807 109.657C275.807 110.109 275.628 110.543 275.308 110.863C274.988 111.183 274.554 111.362 274.102 111.362Z" fill="black"/>
<path opacity="0.1" d="M274.102 118.961H183.573C183.349 118.961 183.127 118.917 182.919 118.831C182.712 118.745 182.524 118.619 182.365 118.46C182.207 118.301 182.081 118.112 181.996 117.904C181.911 117.697 181.867 117.474 181.868 117.25C181.868 116.797 182.048 116.364 182.368 116.044C182.687 115.724 183.121 115.544 183.573 115.544H274.102C274.554 115.544 274.988 115.724 275.308 116.044C275.628 116.364 275.807 116.797 275.807 117.25C275.807 117.703 275.628 118.137 275.308 118.458C274.988 118.779 274.555 118.96 274.102 118.961Z" fill="black"/>
<path opacity="0.1" d="M222.231 126.554H183.573C183.121 126.554 182.687 126.375 182.368 126.055C182.048 125.735 181.868 125.301 181.868 124.849C181.868 124.397 182.048 123.963 182.368 123.643C182.687 123.323 183.121 123.144 183.573 123.144H222.231C222.683 123.144 223.117 123.323 223.436 123.643C223.756 123.963 223.936 124.397 223.936 124.849C223.936 125.301 223.756 125.735 223.436 126.055C223.117 126.375 222.683 126.554 222.231 126.554Z" fill="black"/>
<path d="M267.138 51.1464L267.015 51.0426C266.665 50.7768 266.464 50.8676 266.301 50.3553C266.185 49.9858 266.301 49.5708 266.165 49.1882C265.856 48.5297 265.503 47.8928 265.108 47.282L263.513 44.4096C263.157 43.7735 262.564 43.3045 261.862 43.1052C261.161 42.9059 260.41 42.9926 259.772 43.3462L245.086 51.5289C245.028 52.0217 244.619 52.3589 244.535 52.8257C244.506 52.9637 244.513 53.1068 244.557 53.241C244.6 53.3751 244.677 53.4957 244.781 53.5908C244.616 53.5876 244.457 53.5307 244.327 53.4287C243.452 52.9424 243.219 52.5534 242.317 53.0462C241.928 53.2536 241.546 53.4741 241.163 53.6946L237.273 55.8667L225.083 62.6553L210.819 70.6176L198.934 77.2377C197.313 78.1389 195.348 78.93 193.902 80.0776C194.304 80.2851 194.375 80.6028 194.019 80.914L193.37 81.5041C193.37 81.6662 193.604 81.6662 193.753 81.6013L194.557 81.2577C193.998 81.9669 193.326 82.5783 192.566 83.0667C191.291 83.8069 189.921 84.3697 188.494 84.7396L189.182 83.8772C189.234 83.8059 189.298 83.7151 189.253 83.6308C189.208 83.5465 189.123 83.54 189.046 83.5335C188.702 83.4946 188.358 83.5335 188.105 83.2807C185.888 84.5775 183.567 85.8094 181.31 87.0673C180.674 87.4234 180.205 88.0171 180.006 88.7183C179.807 89.4195 179.893 90.1711 180.247 90.8085L195.056 117.393C195.231 117.708 195.467 117.986 195.749 118.21C196.032 118.434 196.356 118.6 196.703 118.699C197.05 118.798 197.413 118.827 197.771 118.785C198.129 118.744 198.476 118.632 198.791 118.456L202.688 116.258C202.688 115.798 203.051 115.285 202.778 114.864C202.74 114.813 202.715 114.752 202.707 114.689C202.707 114.604 202.785 114.54 202.856 114.494C203.256 114.241 203.713 114.093 204.185 114.066C204.348 114.066 204.562 114.138 204.536 114.293C204.536 114.151 205.372 113.852 205.508 113.807C205.573 114.157 205.333 114.533 205.742 114.604C206.15 114.676 206.773 113.956 207.038 113.826L210.929 111.654L223.248 104.801L236.761 97.273L245.741 92.2674C246.065 92.0793 246.448 91.8589 246.759 91.7033C246.871 91.1087 247.161 90.5618 247.589 90.1342C248.237 89.6868 249.262 90.1796 249.8 89.5441C249.904 89.4209 249.968 89.2718 250.059 89.1421C250.24 88.9312 250.461 88.7573 250.708 88.6299C250.864 88.5068 251.054 88.4324 251.252 88.4159C251.447 88.4159 251.654 88.578 251.628 88.7725C252.964 88.4613 254.17 87.5601 255.35 86.8922C255.778 86.6523 259.532 84.8887 259.519 84.6099C259.467 83.7475 259.993 83.0083 259.967 82.1201C259.967 81.9515 259.636 80.8233 259.785 80.739C256.413 82.749 252.912 84.5775 249.476 86.4837C249.359 86.555 248.918 86.7042 248.827 86.8339C248.827 86.8339 248.795 86.8922 248.782 86.9246L248.685 87.1386V87.1905C248.545 87.6317 248.381 88.0647 248.192 88.4873C248.192 88.5456 247.459 89.4534 247.401 89.2394C247.116 88.1955 246.752 88.0334 245.955 88.4613L244.814 89.1097L241.189 91.1262L228.98 97.9343L214.592 105.948L202.603 112.627L197.578 115.421C196.576 113.606 195.566 111.793 194.55 109.981L192.605 106.487C192.408 106.002 192.117 105.561 191.749 105.19C191.471 104.982 190.997 105.034 190.751 104.846C190.148 104.386 189.713 103.549 189.143 103.011C188.754 102.648 188.164 101.559 188.326 100.956C188.52 101.034 188.715 101.118 188.909 101.176C188.808 100.777 188.83 100.356 188.974 99.9703C187.029 96.6959 185.239 93.2724 183.379 89.9267L183.255 89.7127L187.794 87.184L191.107 85.3361C191.789 85.0432 192.44 84.6849 193.053 84.2662C193.474 83.9031 193.902 83.4493 194.349 83.0602C194.65 82.8318 194.976 82.6403 195.322 82.4896L196.547 81.8931C196.61 81.8552 196.682 81.833 196.755 81.8283C196.828 81.8363 196.9 81.8537 196.969 81.8801C197.617 82.0163 199.225 80.8168 199.809 80.4926L203.582 78.3918L214.968 72.044L229.155 64.1466L243.355 56.2298L254.78 49.869L260.615 46.6271L260.887 46.478L267.196 57.8054C267.587 58.5689 268.212 59.187 268.979 59.569C269.239 59.6533 269.53 59.8348 269.498 60.1007C269.466 60.3665 269.077 60.587 269.167 60.8593C269.258 61.1316 269.757 61.0279 269.874 61.2743C269.991 61.5206 269.673 61.9226 269.712 62.2598C269.846 62.6635 270.045 63.0424 270.302 63.3815L272.137 66.6818C273.161 68.5103 274.179 70.3453 275.21 72.1932L263.993 78.4437C264.049 78.4884 264.095 78.5434 264.129 78.6058L264.188 78.7549C264.411 78.8338 264.627 78.9292 264.836 79.0402C264.925 79.0902 264.999 79.1638 265.05 79.253C265.1 79.3422 265.125 79.4436 265.121 79.5459C265.12 79.6471 265.091 79.7461 265.039 79.8327C264.987 79.9193 264.912 79.9904 264.823 80.0387L264.136 80.4277C264.111 80.5781 264.042 80.7175 263.937 80.8275C263.831 80.9375 263.695 81.0129 263.546 81.0437C263.466 81.0504 263.386 81.0504 263.306 81.0437C263.238 81.0937 263.159 81.1283 263.077 81.1451C262.994 81.1619 262.908 81.1605 262.826 81.141C262.679 81.0958 262.556 80.9958 262.481 80.8617C262.406 80.7277 262.386 80.5699 262.424 80.4213C262.451 80.3546 262.486 80.2914 262.528 80.2332C262.479 80.1387 262.456 80.0326 262.463 79.9263C262.47 79.82 262.506 79.7176 262.567 79.6302H262.359C262.242 79.6302 262.139 79.5654 262.029 79.533C261.445 79.8931 260.991 80.4288 260.732 81.0632C260.704 81.0978 260.69 81.1418 260.693 81.1864C260.693 81.2771 260.835 81.2836 260.92 81.3225C261.114 81.4133 261.069 81.6986 260.972 81.8866C260.874 82.0747 260.758 82.3146 260.887 82.4832C260.936 82.5399 260.991 82.592 261.049 82.6388C261.328 82.9565 260.9 83.8772 261.581 83.5011C261.533 83.3009 261.563 83.0899 261.665 82.9111C261.781 82.7306 261.958 82.599 262.165 82.5415C262.669 82.4192 263.183 82.3454 263.701 82.3211L277.22 74.7608C277.856 74.4047 278.325 73.811 278.525 73.1098C278.724 72.4086 278.637 71.657 278.284 71.0196L278.206 70.8834L272.098 59.9191L268.571 53.5778C268.227 52.9748 267.922 52.3459 267.546 51.7494C267.443 51.528 267.305 51.3245 267.138 51.1464Z" fill="#8094D4"/>
<path d="M204.672 86.9698C204.224 86.4252 204.361 86.4122 204.276 85.8287C204.276 85.8287 204.276 85.8286 204.276 85.7897L204.224 85.7314L204.147 85.6406C203.842 85.7768 203.537 85.9259 203.232 86.0945L197.261 89.4207L199.666 93.7325C199.329 93.136 200.522 93.3111 200.568 93.3046C200.694 93.2673 200.825 93.2455 200.957 93.2398C201.086 93.2673 201.2 93.344 201.274 93.4537C201.524 93.8898 201.598 94.4044 201.482 94.8932C201.41 95.5416 201.754 96.19 201.385 96.8383C201.702 97.3571 204.575 102.583 204.588 102.577L210.559 99.2504C210.903 99.0558 211.72 98.7122 211.921 98.3685C212.122 98.0249 211.804 97.4867 212.161 97.3246C212.295 97.2754 212.439 97.2568 212.581 97.2703C212.724 97.2837 212.861 97.3289 212.984 97.4024C214.122 96.2763 214.853 94.8044 215.063 93.2177C215.273 91.631 214.95 90.0195 214.145 88.6362C212.466 85.6212 208.653 83.8251 205.314 85.2256C205.08 85.3229 205.392 86.3668 204.834 86.4835C204.941 86.2745 205.094 86.0926 205.281 85.9518M209.003 96.8059L206.222 98.3556C205.995 97.9471 205.774 97.5386 205.541 97.1431C205.832 97.6359 205.028 97.4802 204.86 97.37C204.451 97.0977 204.341 96.3131 204.328 95.8722C204.318 95.1161 204.094 94.3785 203.68 93.7455C203.027 92.5654 202.379 91.3854 201.735 90.2053L204.516 88.6556C207.11 87.2032 209.703 87.8062 211.104 90.322C212.504 92.8378 211.616 95.373 209.003 96.8059Z" fill="#8094D4"/>
<path d="M224.415 75.9278C224.557 76.2358 224.598 76.5807 224.532 76.9133C224.5 77.0949 224.208 77.5617 224.247 77.6784C224.351 77.9378 224.454 78.1971 224.552 78.4565C224.569 78.4989 224.593 78.5383 224.623 78.5732C224.673 78.6067 224.731 78.6248 224.791 78.6251C225.822 78.7159 225.777 78.8196 225.842 79.6884C225.9 80.4341 226.542 80.862 226.905 81.5104C227.393 82.3623 227.605 83.3443 227.512 84.3215C227.419 85.2987 227.025 86.2232 226.386 86.9678C225.746 87.7125 224.892 88.2409 223.94 88.4805C222.988 88.72 221.985 88.6589 221.07 88.3056C221.045 88.3291 221.019 88.3507 220.992 88.3704C220.856 88.439 220.699 88.4574 220.551 88.4223C220.214 88.3268 219.909 88.1421 219.668 87.8876C219.427 87.6331 219.26 87.3182 219.183 86.9764C219.173 86.9249 219.173 86.8722 219.183 86.8208C218.999 86.5937 218.837 86.3506 218.697 86.0945C218.363 85.5588 218.144 84.96 218.053 84.3357C217.962 83.7114 218.001 83.075 218.167 82.4664C218.333 81.8578 218.623 81.29 219.019 80.7986C219.415 80.3072 219.907 79.9028 220.467 79.6106C221.277 79.1482 222.207 78.9361 223.138 79.0011L223.086 78.9233C222.529 78.1842 224.539 77.8859 223.631 77.3867C223.248 77.1792 223.313 76.239 223.216 75.8564C221.743 75.8897 220.301 76.2885 219.021 77.0171C214.871 79.3318 213.438 83.9159 215.617 87.8258C216.533 89.5078 218.049 90.7833 219.864 91.3984C220.29 91.5841 220.747 91.6896 221.212 91.7096C221.744 91.6642 221.485 91.7096 221.712 91.3919C221.938 91.0742 221.802 90.938 222.146 90.6009C222.49 90.2637 222.892 90.0627 222.963 89.544C222.963 89.7774 223.222 89.946 223.222 90.1924C223.222 90.2637 223.222 90.335 223.222 90.3999C223.236 90.4846 223.274 90.5635 223.333 90.6268C223.553 90.9251 223.923 91.2752 223.929 91.6188C224.878 91.4615 225.788 91.1272 226.613 90.6333C230.744 88.3315 232.209 83.7539 230.017 79.8311C228.883 77.8276 226.75 76.0574 224.415 75.9278Z" fill="#8094D4"/>
<path d="M237.675 66.9022L242.123 74.8839L231.139 70.5396L228.624 71.9466C230.322 74.9941 232.125 78.0091 233.72 81.1149C233.83 80.7777 234.089 80.7129 234.401 80.6675C234.984 80.5897 234.965 80.8815 235.283 81.4586C235.321 81.5299 235.367 81.6012 235.438 81.6142C235.509 81.6271 235.652 81.5104 235.769 81.5234C235.886 81.5364 235.931 81.679 235.898 81.7892C235.857 81.8972 235.803 81.9996 235.736 82.094C235.548 82.4506 235.86 82.6775 235.821 83.0017C235.821 83.1703 235.257 83.8576 235.321 83.9743L235.97 85.0895L238.978 83.4167L238.174 81.9773H238.025C237.15 82.094 237.539 80.9463 237.344 80.473C237.03 79.8025 236.672 79.1528 236.275 78.5278L234.504 75.4091L243.433 78.9233C243.41 78.6669 243.441 78.4085 243.524 78.1647C243.595 78.0286 244.172 77.7757 244.172 77.646C244.205 78.0642 244.401 78.4527 244.717 78.7288C245.06 79.0336 245.06 78.9882 244.995 79.5263L245.527 79.7403L248.03 78.3463L240.703 65.2034L237.675 66.9022Z" fill="#8094D4"/>
<path d="M252.789 72.5107L251.09 69.4698L257.198 66.0657L255.901 63.6991L249.8 67.1032L248.211 64.2437L252.335 61.9484C252.509 61.7238 252.731 61.5401 252.984 61.4103C253.112 61.3445 253.259 61.3283 253.399 61.3649L255.143 60.3988C255.143 60.3988 253.904 58.1878 253.788 57.9543C253.191 58.2267 253.788 58.9788 253.185 59.3419C253.308 59.4716 253.489 59.9319 253.185 59.9903C253.01 59.9903 252.88 59.7698 252.705 59.7893C252.53 59.8087 252.523 59.893 252.432 59.8671C252.405 59.8593 252.379 59.8454 252.358 59.8262C252.337 59.8071 252.32 59.7834 252.309 59.7569C252.225 59.5613 252.119 59.3763 251.992 59.2057C251.583 58.8102 247.855 61.2936 247.336 61.5853L243.867 63.5305L251.188 76.6734L254.112 75.0459L254.17 74.9681C254.384 74.6958 254.592 74.417 254.819 74.1641C254.911 74.0765 255.029 74.021 255.155 74.0058C255.281 73.9907 255.409 74.0166 255.519 74.0798C255.571 74.1071 255.617 74.1446 255.655 74.1901L261.367 71.0065L260.006 68.562L252.789 72.5107Z" fill="#8094D4"/>
<path d="M260.589 212.356C260.589 212.356 256.322 203.058 261.192 193.883C266.061 184.708 267.481 182.549 264.375 180.676C261.269 178.802 259.836 188.009 259.836 188.009C259.836 188.009 257.243 181.668 259.376 175.041C261.509 168.414 262.897 157.599 259.947 156.439C256.997 155.278 259.383 169.919 256.821 174.911C255.516 171.407 254.672 167.747 254.312 164.025C253.962 158.695 254.513 150.188 252.179 148.003C249.845 145.818 248.36 147.355 250.649 159.091C252.025 166.12 252.786 173.255 252.925 180.416C252.925 180.416 247.861 164.984 244.496 164.537C241.13 164.09 241.104 169.076 244.016 173.414C246.927 177.751 252.503 185.506 253.417 189.526C253.417 189.526 247.867 177.92 242.868 181.473C237.869 185.026 247.219 192.048 251.381 194.583C255.544 197.119 258.442 212.998 258.442 212.998L260.589 212.356Z" fill="#8094D4"/>
<path opacity="0.2" d="M260.589 212.356C260.589 212.356 256.322 203.058 261.192 193.883C266.061 184.708 267.481 182.549 264.375 180.676C261.269 178.802 259.836 188.009 259.836 188.009C259.836 188.009 257.243 181.668 259.376 175.041C261.509 168.414 262.897 157.599 259.947 156.439C256.997 155.278 259.383 169.919 256.821 174.911C255.516 171.407 254.672 167.747 254.312 164.025C253.962 158.695 254.513 150.188 252.179 148.003C249.845 145.818 248.36 147.355 250.649 159.091C252.025 166.12 252.786 173.255 252.925 180.416C252.925 180.416 247.861 164.984 244.496 164.537C241.13 164.09 241.104 169.076 244.016 173.414C246.927 177.751 252.503 185.506 253.417 189.526C253.417 189.526 247.867 177.92 242.868 181.473C237.869 185.026 247.219 192.048 251.381 194.583C255.544 197.119 258.442 212.998 258.442 212.998L260.589 212.356Z" fill="black"/>
<path d="M257.217 216.175C257.217 216.175 261.373 206.806 256.393 197.709C251.414 188.612 249.968 186.472 253.054 184.546C256.14 182.621 257.671 191.815 257.671 191.815C257.671 191.815 260.212 185.441 257.975 178.847C255.738 172.253 254.247 161.457 257.184 160.258C260.122 159.058 257.911 173.731 260.53 178.678C261.795 175.158 262.593 171.487 262.903 167.76C263.195 162.423 262.54 153.923 264.848 151.705C267.157 149.488 268.667 150.979 266.515 162.773C265.224 169.819 264.55 176.963 264.498 184.125C264.498 184.125 269.374 168.622 272.765 168.123C276.156 167.623 276.208 172.616 273.355 176.993C270.502 181.369 264.991 189.215 264.116 193.202C264.116 193.202 269.53 181.531 274.568 185C279.606 188.469 270.347 195.634 266.216 198.227C262.086 200.821 259.357 216.758 259.357 216.758L257.217 216.175Z" fill="#8094D4"/>
<path d="M276.371 209.497H242.071L244.846 234.045H273.596L276.371 209.497Z" fill="#263238"/>
<path d="M100.91 55.1467H78.2742C77.4023 55.1467 76.5662 55.4931 75.9497 56.1096C75.3332 56.7261 74.9868 57.5622 74.9868 58.4341V80.4405C74.9868 81.3123 75.3332 82.1485 75.9497 82.765C76.5662 83.3815 77.4023 83.7278 78.2742 83.7278H85.5167L80.6408 90.3544L89.0699 83.7278H100.903C101.775 83.7278 102.611 83.3815 103.228 82.765C103.844 82.1485 104.19 81.3123 104.19 80.4405V58.4341C104.19 57.5633 103.845 56.7282 103.23 56.1119C102.615 55.4955 101.78 55.1484 100.91 55.1467Z" fill="#8094D4"/>
<path opacity="0.6" d="M100.91 55.1467H78.2742C77.4023 55.1467 76.5662 55.4931 75.9497 56.1096C75.3332 56.7261 74.9868 57.5622 74.9868 58.4341V80.4405C74.9868 81.3123 75.3332 82.1485 75.9497 82.765C76.5662 83.3815 77.4023 83.7278 78.2742 83.7278H85.5167L80.6408 90.3544L89.0699 83.7278H100.903C101.775 83.7278 102.611 83.3815 103.228 82.765C103.844 82.1485 104.19 81.3123 104.19 80.4405V58.4341C104.19 57.5633 103.845 56.7282 103.23 56.1119C102.615 55.4955 101.78 55.1484 100.91 55.1467Z" fill="white"/>
<path d="M89.5949 79.7142C95.2707 79.7142 99.8719 75.113 99.8719 69.4372C99.8719 63.7613 95.2707 59.1602 89.5949 59.1602C83.919 59.1602 79.3179 63.7613 79.3179 69.4372C79.3179 75.113 83.919 79.7142 89.5949 79.7142Z" fill="#8094D4"/>
<path opacity="0.2" d="M98.1674 71.4549C99.2853 66.7185 96.3519 61.9727 91.6155 60.8548C86.8791 59.7369 82.1332 62.6703 81.0153 67.4067C79.8974 72.1431 82.8308 76.8889 87.5672 78.0068C92.3036 79.1247 97.0495 76.1913 98.1674 71.4549Z" fill="black"/>
<path d="M88.4994 73.6454C88.38 73.6479 88.2613 73.6269 88.15 73.5835C88.0388 73.5401 87.9372 73.4752 87.851 73.3925L84.1098 69.7291C83.9379 69.5623 83.8392 69.334 83.8356 69.0944C83.8319 68.8549 83.9236 68.6237 84.0904 68.4517C84.2572 68.2798 84.4855 68.1811 84.725 68.1775C84.9646 68.1738 85.1957 68.2655 85.3677 68.4323L88.4346 71.4343L93.7384 65.5145C93.9011 65.3506 94.1204 65.2554 94.3512 65.2485C94.582 65.2415 94.8066 65.3234 94.9788 65.4773C95.151 65.6312 95.2575 65.8452 95.2764 66.0754C95.2954 66.3055 95.2253 66.5341 95.0806 66.714L89.1478 73.3341C89.066 73.4257 88.9662 73.4994 88.8547 73.5507C88.7431 73.602 88.6222 73.6298 88.4994 73.6324V73.6454Z" fill="white"/>
<path d="M60.2359 219.3L78.9161 217.459V196.393H86.3207V217.452L105.079 219.3C105.978 219.387 106.812 219.806 107.418 220.475C108.025 221.144 108.361 222.015 108.36 222.918V225.726H56.9551V222.918C56.9541 222.015 57.2897 221.144 57.8963 220.475C58.5029 219.806 59.3371 219.387 60.2359 219.3Z" fill="#263238"/>
<path opacity="0.1" d="M60.2359 219.3L78.9161 217.459V196.393H86.3207V217.452L105.079 219.3C105.978 219.387 106.812 219.806 107.418 220.475C108.025 221.144 108.361 222.015 108.36 222.918V225.726H56.9551V222.918C56.9541 222.015 57.2897 221.144 57.8963 220.475C58.5029 219.806 59.3371 219.387 60.2359 219.3Z" fill="white"/>
<path d="M106.382 234.045C109.057 234.045 111.226 231.876 111.226 229.201C111.226 226.526 109.057 224.358 106.382 224.358C103.707 224.358 101.539 226.526 101.539 229.201C101.539 231.876 103.707 234.045 106.382 234.045Z" fill="#263238"/>
<path d="M58.9328 234.045C61.6078 234.045 63.7763 231.876 63.7763 229.201C63.7763 226.526 61.6078 224.358 58.9328 224.358C56.2579 224.358 54.0894 226.526 54.0894 229.201C54.0894 231.876 56.2579 234.045 58.9328 234.045Z" fill="#263238"/>
<path d="M84.9139 202.033H80.2974C79.5872 202.033 78.9061 201.751 78.4039 201.249C77.9017 200.747 77.6195 200.066 77.6195 199.356V178.646H87.5918V199.356C87.5918 200.066 87.3097 200.747 86.8075 201.249C86.3053 201.751 85.6242 202.033 84.9139 202.033Z" fill="#263238"/>
<path opacity="0.2" d="M84.9139 202.033H80.2974C79.5872 202.033 78.9061 201.751 78.4039 201.249C77.9017 200.747 77.6195 200.066 77.6195 199.356V178.646H87.5918V199.356C87.5918 200.066 87.3097 200.747 86.8075 201.249C86.3053 201.751 85.6242 202.033 84.9139 202.033Z" fill="white"/>
<path d="M56.7604 138.057C56.7604 138.057 62.3106 172.668 73.2684 178.653H62.129C62.129 178.653 51.1064 166.852 47.7866 138.057H56.7604Z" fill="#263238"/>
<path opacity="0.1" d="M56.7604 138.057C56.7604 138.057 62.3106 172.668 73.2684 178.653H62.129C62.129 178.653 51.1064 166.852 47.7866 138.057H56.7604Z" fill="white"/>
<path d="M61.5974 173.757H104.988C105.848 173.757 106.672 174.099 107.28 174.707C107.888 175.315 108.23 176.139 108.23 176.999V181.337H58.3555V176.999C58.3555 176.139 58.697 175.315 59.305 174.707C59.913 174.099 60.7376 173.757 61.5974 173.757Z" fill="#8094D4"/>
<path d="M108.982 177.544H57.5581C56.8384 177.544 56.2549 178.127 56.2549 178.847V180.027C56.2549 180.747 56.8384 181.331 57.5581 181.331H108.982C109.702 181.331 110.285 180.747 110.285 180.027V178.847C110.285 178.127 109.702 177.544 108.982 177.544Z" fill="#263238"/>
<path opacity="0.6" d="M108.982 177.544H57.5581C56.8384 177.544 56.2549 178.127 56.2549 178.847V180.027C56.2549 180.747 56.8384 181.331 57.5581 181.331H108.982C109.702 181.331 110.285 180.747 110.285 180.027V178.847C110.285 178.127 109.702 177.544 108.982 177.544Z" fill="white"/>
<path d="M46.4706 145.098H64.2949C69.5209 145.098 72.912 140.91 71.8746 135.742L70.487 128.843C69.4496 123.656 64.3727 119.493 59.1532 119.493H41.3289C36.1028 119.493 32.7117 123.682 33.7492 128.843L35.1367 135.742C36.1742 140.897 41.2446 145.098 46.4706 145.098Z" fill="#8094D4"/>
<path d="M141.052 203.071L136.967 204.673L134.03 199.135L131.358 194.097L135.884 191.387L138.62 197.566L141.052 203.071Z" fill="#E4897B"/>
<path opacity="0.2" d="M138.62 197.566L134.03 199.135L131.358 194.097L135.884 191.387L138.62 197.566Z" fill="black"/>
<path d="M137.771 194.545L132.214 197.527C132.214 197.527 111.213 160.601 107.984 160.913C104.755 161.224 74.1182 180.74 64.7748 173.53C55.4315 166.32 64.522 144.612 64.522 144.612C64.522 144.612 83.8505 139.088 85.9189 143.315C86.464 144.581 86.9275 145.88 87.3064 147.206C87.7149 148.535 88.0262 149.656 88.0262 149.656C88.6162 149.417 107.705 141.59 116.225 145.766C124.92 150.058 137.771 194.545 137.771 194.545Z" fill="#263238"/>
<path opacity="0.3" d="M137.771 194.545L132.214 197.527C132.214 197.527 111.213 160.601 107.984 160.913C104.755 161.224 74.1182 180.74 64.7748 173.53C55.4315 166.32 64.522 144.612 64.522 144.612C64.522 144.612 83.8505 139.088 85.9189 143.315C86.464 144.581 86.9275 145.88 87.3064 147.206C87.7149 148.535 88.0262 149.656 88.0262 149.656C88.6162 149.417 107.705 141.59 116.225 145.766C124.92 150.058 137.771 194.545 137.771 194.545Z" fill="white"/>
<path d="M107.582 224.656L103.224 224.157L103.198 218.01L103.192 212.369L108.463 212.123L107.996 218.756L107.582 224.656Z" fill="#E4897B"/>
<path opacity="0.2" d="M107.984 218.892L103.186 218.127V212.427L108.457 212.148L107.984 218.892Z" fill="black"/>
<path d="M129.498 195.692L137.628 191.62L138.478 195.07L132.318 198.247L129.498 195.692Z" fill="#8094D4"/>
<path d="M79.208 173.589C79.208 173.589 80.5437 173.44 101.091 169.634C101.091 169.634 101.558 195.906 102.531 215.494L108.859 215.695C108.859 215.695 117.936 172.253 116.867 165.665C115.797 159.078 107.99 158.215 107.99 158.215C107.99 158.215 94.4322 168.778 79.208 173.589Z" fill="#263238"/>
<path opacity="0.4" d="M79.208 173.589C79.208 173.589 80.5437 173.44 101.091 169.634C101.091 169.634 101.558 195.906 102.531 215.494L108.859 215.695C108.859 215.695 117.936 172.253 116.867 165.665C115.797 159.078 107.99 158.215 107.99 158.215C107.99 158.215 94.4322 168.778 79.208 173.589Z" fill="white"/>
<path opacity="0.3" d="M79.208 173.589C79.208 173.589 80.5437 173.44 101.091 169.634C101.091 169.634 101.558 195.906 102.531 215.494L108.859 215.695C108.859 215.695 117.936 172.253 116.867 165.665C115.797 159.078 107.99 158.215 107.99 158.215C107.99 158.215 94.4322 168.778 79.208 173.589Z" fill="black"/>
<path d="M101.37 213.743L110 213.542L108.82 217.096L101.818 217.16L101.37 213.743Z" fill="#8094D4"/>
<path opacity="0.3" d="M88.0517 149.669L76.854 153.657C76.854 153.657 82.7414 149.261 87.332 147.219C87.7405 148.548 88.0517 149.669 88.0517 149.669Z" fill="black"/>
<path d="M63.2251 143.276L63.6401 146.382L84.6285 141.928L84.1422 138.258L63.2251 143.276Z" fill="#263238"/>
<path opacity="0.2" d="M63.2251 143.276L63.6401 146.382L84.6285 141.928L84.1422 138.258L63.2251 143.276Z" fill="black"/>
<path d="M70.1793 141.02L69.1338 141.214L70.1214 146.537L71.1669 146.343L70.1793 141.02Z" fill="#263238"/>
<path d="M79.3315 139.673L74.752 140.705L75.5345 144.177L80.114 143.145L79.3315 139.673Z" fill="white"/>
<path d="M82.276 137.504L81.2339 137.695L82.2084 143.001L83.2505 142.81L82.276 137.504Z" fill="#263238"/>
<path opacity="0.3" d="M70.1793 141.02L69.1338 141.214L70.1214 146.537L71.1669 146.343L70.1793 141.02Z" fill="white"/>
<path opacity="0.3" d="M82.276 137.504L81.2339 137.695L82.2084 143.001L83.2505 142.81L82.276 137.504Z" fill="white"/>
<path d="M149.169 210.32C148.488 210.111 147.773 210.03 147.062 210.08C147.062 210.08 144.423 208.978 141.227 203.732L138.503 204.089C138.045 204.158 137.619 204.366 137.283 204.685C136.946 205.004 136.716 205.418 136.623 205.872C136.604 206.001 136.604 206.132 136.623 206.261C136.74 206.919 136.901 207.569 137.103 208.206C137.801 210.314 138.626 212.377 139.573 214.385L140.014 214.204L138.607 210.275C138.14 208.933 139.768 210.067 140.63 211.364C141.492 212.661 142.718 213.919 145.629 212.816C149.014 211.494 150.356 210.793 149.169 210.32Z" fill="#263238"/>
<path d="M140.546 202.338C140.546 202.338 144.916 208.978 147.062 210.08C147.062 210.08 144.657 212.025 141.447 208.9C137.304 204.887 136.61 206.261 136.61 206.261C136.573 205.475 136.61 204.687 136.72 203.907C137.051 202.384 140.546 202.338 140.546 202.338Z" fill="#E4897B"/>
<path d="M114.118 232.385C113.497 232.027 112.816 231.785 112.108 231.672C112.108 231.672 109.806 229.979 107.958 224.131L105.228 223.832C104.765 223.789 104.3 223.89 103.897 224.122C103.494 224.355 103.173 224.707 102.978 225.129C102.92 225.246 102.881 225.37 102.862 225.499C102.816 226.162 102.816 226.827 102.862 227.489C103.038 229.702 103.349 231.902 103.795 234.077L104.269 234.006L103.847 229.843C103.711 228.43 105.027 229.921 105.559 231.386C106.091 232.852 106.979 234.362 110.065 233.98C113.67 233.494 115.136 233.13 114.118 232.385Z" fill="#263238"/>
<path d="M107.633 222.594C107.633 222.594 110.305 230.083 112.127 231.671C112.127 231.671 109.332 232.968 106.94 229.195C103.86 224.312 102.868 225.486 102.868 225.486C103.013 224.715 103.23 223.96 103.516 223.229C104.203 221.803 107.633 222.594 107.633 222.594Z" fill="#E4897B"/>
<path d="M58.654 90.3223L53.1686 91.4245C52.9543 91.6051 52.7011 91.7335 52.4289 91.7999C52.1567 91.8663 51.8728 91.8687 51.5995 91.8071C49.9655 91.1587 47.6118 89.2589 47.3136 88.5651C46.8727 87.5861 47.3136 84.7137 48.4677 84.195C49.6219 83.6763 53.5965 88.4744 53.5965 88.4744L59.4904 87.1452L58.654 90.3223Z" fill="#E4897B"/>
<path d="M75.9529 108.555C75.9529 108.555 75.4537 90.7826 73.3983 90.024C71.3429 89.2654 55.8917 91.3856 55.8917 91.3856L55.5156 87.3267C55.5156 87.3267 73.4955 84.5581 76.9774 86.1985C80.4593 87.8389 81.6069 114.326 80.9715 119.429L75.9529 108.555Z" fill="#8094D4"/>
<path opacity="0.6" d="M75.9529 108.555C75.9529 108.555 75.4537 90.7826 73.3983 90.024C71.3429 89.2654 55.8917 91.3856 55.8917 91.3856L55.5156 87.3267C55.5156 87.3267 73.4955 84.5581 76.9774 86.1985C80.4593 87.8389 81.6069 114.326 80.9715 119.429L75.9529 108.555Z" fill="white"/>
<path d="M56.1574 91.7747L55.0811 87.3137L56.6242 86.7561L57.6033 91.9108L56.1574 91.7747Z" fill="#8094D4"/>
<path opacity="0.7" d="M56.1574 91.7747L55.0811 87.3137L56.6242 86.7561L57.6033 91.9108L56.1574 91.7747Z" fill="white"/>
<path d="M75.8622 106.337C75.8622 106.337 74.4811 111.745 67.8286 113.47C61.1761 115.194 53.8169 110.688 53.8169 110.688L55.2823 123.591L63.4261 143.918L84.2394 138.491C84.2394 138.491 82.9945 114.844 75.8622 106.337Z" fill="#8094D4"/>
<path opacity="0.7" d="M75.8622 106.337C75.8622 106.337 74.4811 111.745 67.8286 113.47C61.1761 115.194 53.8169 110.688 53.8169 110.688L55.2823 123.591L63.4261 143.918L84.2394 138.491C84.2394 138.491 82.9945 114.844 75.8622 106.337Z" fill="white"/>
<path opacity="0.6" d="M79.4795 127.779L81.9158 127.011C82.1856 126.926 82.3353 126.638 82.2502 126.368L80.7988 121.768C80.7136 121.498 80.4259 121.348 80.1562 121.433L77.7199 122.202C77.4501 122.287 77.3004 122.575 77.3855 122.845L78.8369 127.445C78.922 127.715 79.2097 127.865 79.4795 127.779Z" fill="#8094D4"/>
<path opacity="0.2" d="M78.9832 126.377L81.7534 125.503L80.5576 121.712L77.7874 122.586L78.9832 126.377Z" fill="black"/>
<path d="M78.891 120.342L78.2788 120.535L78.9831 122.768L79.5952 122.575L78.891 120.342Z" fill="#263238"/>
<path d="M61.7143 86.1401C56.5855 86.1401 53.2009 91.5737 54.4004 100.191C55.5999 108.808 60.4045 111.291 60.4045 111.291L60.0998 109.21C65.4335 110.42 70.9326 110.727 76.3679 110.118C76.3679 110.118 73.891 103.089 74.695 95.9114C74.695 95.9114 76.3225 86.1272 61.7143 86.1401Z" fill="#263238"/>
<path opacity="0.2" d="M71.9004 111.719L73.9947 119.5L70.3119 116.692C70.3119 116.692 73.8975 124.888 74.8506 129.66C74.8506 129.66 71.7513 121.536 69.0799 117.081L67.5173 121.542L61.2344 115.143C61.2344 115.143 66.7846 110.889 71.9004 111.719Z" fill="black"/>
<path d="M68.8402 114.228L62.447 114.423C65.2805 110.798 60.1582 104.483 60.1582 104.483L66.4735 105.851C67.9778 112.102 70.5779 112.29 70.5779 112.29L68.8402 114.228Z" fill="#E4897B"/>
<path opacity="0.2" d="M68.2372 110.338C65.7977 110.134 63.5288 109.004 61.8959 107.18C61.3914 106.243 60.8102 105.35 60.1582 104.509L66.4735 105.884C66.808 107.457 67.4041 108.962 68.2372 110.338Z" fill="black"/>
<path d="M66.4672 88.779C71.9721 89.2393 73.5023 92.3322 73.431 98.0445C73.3467 105.177 71.3496 110.085 64.5934 107.997C55.4122 105.164 57.3184 88.0139 66.4672 88.779Z" fill="#E4897B"/>
<path d="M69.8969 97.4546C70.2697 98.3144 70.7442 99.1263 71.3104 99.8731C71.1292 100.086 70.8931 100.245 70.628 100.333C70.3628 100.421 70.0786 100.434 69.8062 100.372L69.8969 97.4546Z" fill="#DE5753"/>
<path d="M66.1689 96.5338L67.362 96.1448C67.362 96.1448 66.7266 97.0914 66.1689 96.5338Z" fill="#263238"/>
<path d="M66.5839 96.3976C66.3621 96.2886 66.1082 96.264 65.8696 96.3284C65.6309 96.3928 65.4239 96.5419 65.2871 96.7477C65.4907 96.6549 65.7118 96.6068 65.9355 96.6068C66.1592 96.6068 66.3803 96.6549 66.5839 96.7477V96.3976Z" fill="#263238"/>
<path d="M64.3664 93.7718C64.3051 93.7702 64.2469 93.7446 64.2043 93.7005C64.1817 93.6792 64.1637 93.6536 64.1515 93.6252C64.1392 93.5967 64.1328 93.5661 64.1328 93.5351C64.1328 93.5041 64.1392 93.4735 64.1515 93.445C64.1637 93.4166 64.1817 93.391 64.2043 93.3698C64.5659 93.0535 64.996 92.8256 65.4607 92.7041C65.9255 92.5826 66.4121 92.5707 66.8822 92.6695C66.9432 92.6824 66.9966 92.719 67.0307 92.7713C67.0647 92.8236 67.0766 92.8873 67.0637 92.9483C67.0508 93.0094 67.0142 93.0628 66.9619 93.0968C66.9096 93.1309 66.846 93.1428 66.7849 93.1299C66.3926 93.0498 65.9873 93.0589 65.599 93.1565C65.2106 93.2541 64.8492 93.4378 64.5415 93.694C64.5197 93.7189 64.4928 93.7388 64.4625 93.7523C64.4323 93.7657 64.3995 93.7724 64.3664 93.7718Z" fill="#263238"/>
<path d="M73.0032 93.8688C72.9518 93.8708 72.9014 93.8547 72.8606 93.8234C72.6011 93.5856 72.2919 93.4087 71.9554 93.3055C71.6189 93.2023 71.2636 93.1754 70.9154 93.2269C70.8856 93.235 70.8545 93.2371 70.8239 93.2332C70.7932 93.2293 70.7637 93.2193 70.7369 93.204C70.7101 93.1886 70.6866 93.1682 70.6677 93.1437C70.6488 93.1193 70.635 93.0914 70.6269 93.0616C70.6188 93.0318 70.6166 93.0007 70.6206 92.97C70.6245 92.9394 70.6344 92.9098 70.6498 92.883C70.6651 92.8563 70.6856 92.8327 70.71 92.8139C70.7345 92.795 70.7624 92.7811 70.7922 92.773C71.2125 92.6987 71.6442 92.7214 72.0543 92.8394C72.4645 92.9574 72.8423 93.1675 73.1588 93.4538C73.2069 93.4932 73.2377 93.5497 73.245 93.6113C73.2522 93.673 73.2353 93.7351 73.1977 93.7845C73.1743 93.8129 73.1444 93.8354 73.1106 93.85C73.0768 93.8647 73.04 93.8711 73.0032 93.8688Z" fill="#263238"/>
<path d="M59.6525 97.5582C59.6525 97.5582 62.6027 93.2529 62.5054 89.7256C62.5054 89.7256 73.7939 86.1724 73.4114 97.2988C73.4114 97.2988 75.2917 87.573 65.8446 86.542C56.3976 85.5111 55.3018 99.3996 59.847 103.938C59.847 103.938 57.8435 100.256 59.6525 97.5582Z" fill="#263238"/>
<path d="M60.4758 98.7966C60.4758 98.1545 60.2212 97.5387 59.7679 97.0841C59.3145 96.6295 58.6994 96.3733 58.0573 96.3716C56.3326 96.417 55.2304 99.8534 59.406 101.053C60.0025 101.222 60.398 100.657 60.4758 98.7966Z" fill="#E4897B"/>
<path d="M69.8515 101.993C69.4477 102.536 69.0857 103.108 68.7686 103.705C68.6584 103.666 68.5417 103.634 68.4315 103.588C66.9078 103.05 66.3761 102.292 66.2529 101.643C66.1948 101.314 66.2193 100.975 66.3242 100.658C66.3782 100.475 66.4567 100.3 66.5576 100.139C67.3499 100.892 68.297 101.463 69.3327 101.812C69.644 101.928 69.8515 101.993 69.8515 101.993Z" fill="#263238"/>
<path d="M69.3328 101.799L69.0021 102.298C67.5626 101.786 66.6225 101.235 66.3242 100.645C66.3782 100.462 66.4567 100.288 66.5576 100.126C67.3499 100.879 68.297 101.45 69.3328 101.799Z" fill="white"/>
<path d="M68.432 103.588C66.9083 103.05 66.3766 102.291 66.2534 101.643C66.8298 101.855 67.3635 102.169 67.829 102.57C68.1308 102.839 68.3416 103.195 68.432 103.588Z" fill="#DE5753"/>
<path d="M66.3179 89.1876C66.3179 89.1876 63.3418 98.0641 57.6489 97.4546C51.9561 96.8451 61.7144 86.1207 61.7144 86.1207C61.7144 86.1207 71.317 83.378 75.4992 88.7143C79.6813 94.0505 73.4308 97.286 73.4308 97.286C73.4308 97.286 74.3645 90.3223 66.3179 89.1876Z" fill="#263238"/>
<path d="M61.7793 96.7414C61.7464 96.7398 61.7145 96.7294 61.6871 96.7111C61.6597 96.6928 61.6378 96.6674 61.6237 96.6376C61.6089 96.5963 61.6107 96.5509 61.6289 96.5109C61.647 96.471 61.6801 96.4397 61.7209 96.4237C66.2597 94.6925 66.1559 88.6041 66.1559 88.5392C66.1541 88.518 66.1568 88.4967 66.1638 88.4766C66.1709 88.4565 66.1822 88.4382 66.1969 88.4228C66.2117 88.4075 66.2295 88.3954 66.2493 88.3875C66.2691 88.3797 66.2903 88.3761 66.3116 88.3771C66.3537 88.3784 66.3939 88.3949 66.4249 88.4235C66.4559 88.452 66.4755 88.4909 66.4801 88.5327C66.4801 88.5976 66.5839 94.9129 61.8377 96.7284L61.7793 96.7414Z" fill="#263238"/>
<path d="M71.7578 97.072L72.9509 96.6895C72.9509 96.6895 72.3089 97.6296 71.7578 97.072Z" fill="#263238"/>
<path d="M72.1732 96.9357C71.951 96.8259 71.6961 96.8015 71.457 96.8673C71.2179 96.933 71.0113 97.0843 70.8765 97.2923C71.077 97.1925 71.2967 97.1373 71.5206 97.1306C71.7445 97.1239 71.9671 97.1658 72.1732 97.2534V96.9357Z" fill="#263238"/>
<path d="M63.3483 111.803L68.1659 114.254L68.0881 119.137L61.2021 115.123L63.3483 111.803Z" fill="#8094D4"/>
<path d="M68.8984 110.883L69.1837 113.846L72.3284 117.172L71.9005 111.7L68.8984 110.883Z" fill="#8094D4"/>
<path d="M46.6391 77.3543L44.6291 72.1672C44.6658 71.8899 44.6374 71.6079 44.5463 71.3434C44.4551 71.0789 44.3037 70.8393 44.1039 70.6435C42.7034 69.5996 39.8115 68.6529 39.0853 68.7632C38.0285 68.9188 35.8434 70.8315 36.0314 72.0829C36.2195 73.3343 42.3921 74.1059 42.3921 74.1059L44.4411 79.7923L46.6391 77.3543Z" fill="#E4897B"/>
<path d="M55.2953 123.591C55.2953 123.591 59.1856 120.498 57.636 113.664L53.4538 94.7571L46.2697 75.2275L42.7554 77.0041C42.7554 77.0041 48.6557 96.0863 49.2004 97.3766C49.4792 98.025 50.5879 107.926 52.0987 114.559C53.4863 120.667 55.2953 123.591 55.2953 123.591Z" fill="#8094D4"/>
<path opacity="0.6" d="M55.2953 123.591C55.2953 123.591 59.1856 120.498 57.636 113.664L53.4538 94.7571L46.2697 75.2275L42.7554 77.0041C42.7554 77.0041 48.6557 96.0863 49.2004 97.3766C49.4792 98.025 50.5879 107.926 52.0987 114.559C53.4863 120.667 55.2953 123.591 55.2953 123.591Z" fill="white"/>
<path d="M42.1396 76.4468L46.244 74.3914L47.1387 75.7595L42.3407 77.8862L42.1396 76.4468Z" fill="#8094D4"/>
<path opacity="0.7" d="M42.1396 76.4468L46.244 74.3914L47.1387 75.7595L42.3407 77.8862L42.1396 76.4468Z" fill="white"/>
<path opacity="0.6" d="M63.3483 111.803L68.1659 114.254L68.0881 119.137L61.2021 115.123L63.3483 111.803Z" fill="white"/>
<path opacity="0.6" d="M68.8984 110.883L69.1837 113.846L72.3284 117.172L71.9005 111.7L68.8984 110.883Z" fill="white"/>
<path d="M205.709 101.611H186.283V116.705H205.709V101.611Z" fill="white"/>
<path opacity="0.1" d="M205.709 101.611H200.729V116.705H205.709V101.611Z" fill="black"/>
<path d="M185.168 130.036H207.129V102.642H200.055L185.168 109.767V130.036Z" fill="#8094D4"/>
<path opacity="0.2" d="M207.129 102.642H200.055V130.036H207.129V102.642Z" fill="black"/>
<path opacity="0.7" d="M197.714 115.168H187.431V120.096H197.714V115.168Z" fill="white"/>
<path opacity="0.7" d="M197.714 121.743H187.431V122.45H197.714V121.743Z" fill="white"/>
<path opacity="0.7" d="M206.442 123.812H200.729V127.994H206.442V123.812Z" fill="white"/>
<path d="M197.455 100.787H178.029V116.705H197.455V100.787Z" fill="white"/>
<path opacity="0.1" d="M197.455 100.787H192.475V116.705H197.455V100.787Z" fill="black"/>
<path d="M176.914 130.036H198.875V102.642H191.801L176.914 109.767V130.036Z" fill="#8094D4"/>
<path opacity="0.2" d="M198.875 102.642H191.801V130.036H198.875V102.642Z" fill="black"/>
<path opacity="0.7" d="M189.46 115.168H179.177V120.096H189.46V115.168Z" fill="white"/>
<path opacity="0.7" d="M189.46 121.743H179.177V122.45H189.46V121.743Z" fill="white"/>
<path opacity="0.7" d="M198.187 123.812H192.475V127.994H198.187V123.812Z" fill="white"/>
<path d="M163.272 234.044H167.247L174.379 134.678H169.107L163.272 234.044Z" fill="#263238"/>
<path opacity="0.1" d="M163.272 234.045H167.247L174.029 139.613L174.379 134.841H169.107L168.829 139.613L163.272 234.045Z" fill="white"/>
<path opacity="0.2" d="M168.829 139.379H174.029L174.379 134.841H169.107L168.829 139.379Z" fill="black"/>
<path d="M134.12 234.044H138.095L138.743 134.678H133.472L134.12 234.044Z" fill="#263238"/>
<path opacity="0.1" d="M133.465 134.841L133.576 150.869L134.114 234.045H138.088L138.633 150.869L138.737 134.841H133.465Z" fill="white"/>
<path opacity="0.2" d="M133.465 134.841L133.576 151.05H138.633L138.737 134.841H133.465Z" fill="black"/>
<path d="M91.9487 234.044H95.9234L103.056 134.678H97.7843L91.9487 234.044Z" fill="#263238"/>
<path opacity="0.1" d="M91.9487 234.045H95.9234L102.712 139.613L103.056 134.841H97.7843L97.5055 139.613L91.9487 234.045Z" fill="white"/>
<path opacity="0.2" d="M97.5054 139.379H102.712L103.056 134.841H97.7842L97.5054 139.379Z" fill="black"/>
<path d="M208.711 234.044H212.686L206.844 134.678H201.572L208.711 234.044Z" fill="#263238"/>
<path opacity="0.1" d="M201.572 134.841L201.929 139.613L208.711 234.045H212.679L207.129 139.613L206.844 134.841H201.572Z" fill="white"/>
<path opacity="0.2" d="M206.844 134.841H201.572L201.929 139.379H207.129L206.844 134.841Z" fill="black"/>
<path d="M209.625 137.168H95.0156C94.8317 137.168 94.6496 137.132 94.4797 137.062C94.3097 136.991 94.1554 136.888 94.0253 136.758C93.8953 136.628 93.7921 136.474 93.7217 136.304C93.6513 136.134 93.6151 135.952 93.6151 135.768V132.195H211.026V135.768C211.026 135.952 210.99 136.134 210.919 136.304C210.849 136.474 210.746 136.628 210.616 136.758C210.486 136.888 210.331 136.991 210.161 137.062C209.991 137.132 209.809 137.168 209.625 137.168Z" fill="#8094D4"/>
<path opacity="0.4" d="M209.625 137.168H95.0156C94.8317 137.168 94.6496 137.132 94.4797 137.062C94.3097 136.991 94.1554 136.888 94.0253 136.758C93.8953 136.628 93.7921 136.474 93.7217 136.304C93.6513 136.134 93.6151 135.952 93.6151 135.768V132.195H211.026V135.768C211.026 135.952 210.99 136.134 210.919 136.304C210.849 136.474 210.746 136.628 210.616 136.758C210.486 136.888 210.331 136.991 210.161 137.062C209.991 137.132 209.809 137.168 209.625 137.168Z" fill="white"/>
<path opacity="0.2" d="M93.6151 134.678L211.026 134.678V132.189H93.6151V134.678Z" fill="black"/>
<path d="M91.1511 132.837H213.483C213.667 132.838 213.85 132.802 214.02 132.732C214.19 132.662 214.345 132.559 214.475 132.429C214.606 132.299 214.709 132.144 214.779 131.974C214.849 131.803 214.885 131.621 214.884 131.437C214.884 131.065 214.736 130.709 214.474 130.446C214.211 130.184 213.855 130.036 213.483 130.036H91.1511C90.7791 130.036 90.4222 130.183 90.1585 130.446C89.8948 130.708 89.7459 131.065 89.7441 131.437C89.7441 131.621 89.7806 131.804 89.8514 131.974C89.9222 132.144 90.0259 132.299 90.1566 132.429C90.2874 132.559 90.4425 132.662 90.6132 132.732C90.7839 132.802 90.9667 132.838 91.1511 132.837Z" fill="#8094D4"/>
<path opacity="0.4" d="M91.1511 132.837H213.483C213.667 132.838 213.85 132.802 214.02 132.732C214.19 132.662 214.345 132.559 214.475 132.429C214.606 132.299 214.709 132.144 214.779 131.974C214.849 131.803 214.885 131.621 214.884 131.437C214.884 131.065 214.736 130.709 214.474 130.446C214.211 130.184 213.855 130.036 213.483 130.036H91.1511C90.7791 130.036 90.4222 130.183 90.1585 130.446C89.8948 130.708 89.7459 131.065 89.7441 131.437C89.7441 131.621 89.7806 131.804 89.8514 131.974C89.9222 132.144 90.0259 132.299 90.1566 132.429C90.2874 132.559 90.4425 132.662 90.6132 132.732C90.7839 132.802 90.9667 132.838 91.1511 132.837Z" fill="white"/>
<path d="M187.197 130.023V127.831H188.669L187.197 126.976H188.3L186.828 126.016H185.434V124.914H187.055L185.434 124.272V121.879H187.055V120.317H188.669L187.055 119.772V118.657H188.209L187.262 117.717L186.445 116.893H161.391V118.015H159.738L161.58 118.845V119.772H158.201V121.497H156.704L158.201 122.249V124.175H159.265V125.095H161.391V127.831H160.198L161.178 128.811V130.036L187.197 130.023Z" fill="#8094D4"/>
<path opacity="0.7" d="M187.197 130.023V127.831H188.669L187.197 126.976H188.3L186.828 126.016H185.434V124.914H187.055L185.434 124.272V121.879H187.055V120.317H188.669L187.055 119.772V118.657H188.209L187.262 117.717L186.445 116.893H161.391V118.015H159.738L161.58 118.845V119.772H158.201V121.497H156.704L158.201 122.249V124.175H159.265V125.095H161.391V127.831H160.198L161.178 128.811V130.036L187.197 130.023Z" fill="white"/>
<path opacity="0.1" d="M187.197 130.023V127.831H188.669L187.197 126.976H188.3L186.828 126.016H185.434V124.914H187.055L185.434 124.272V121.879H187.055V120.317H188.669L187.055 119.772V118.657H188.209L187.262 117.717L186.445 116.893H173.251V118.015H171.597L173.432 118.845V119.772H170.054V121.497H168.556L170.054 122.249V124.175H171.117V125.095H173.251V127.831H172.057L173.03 128.811V130.036L187.197 130.023Z" fill="black"/>
<path opacity="0.1" d="M161.58 119.772H173.432L161.58 119.344V119.772Z" fill="black"/>
<path opacity="0.1" d="M161.392 125.095H173.251L173.303 125.925L161.392 125.095Z" fill="black"/>
<path opacity="0.1" d="M159.265 124.175H171.117L159.265 124.59V124.175Z" fill="black"/>
<path opacity="0.1" d="M161.392 127.832H173.251L161.392 127.397V127.832Z" fill="black"/>
<path opacity="0.1" d="M161.177 128.811H173.03V129.264L161.177 128.811Z" fill="black"/>
<path opacity="0.1" d="M158.201 121.497H170.054L158.201 121.121V121.497Z" fill="black"/>
<path opacity="0.1" d="M161.392 118.015H173.251L161.392 117.6V118.015Z" fill="black"/>
<path opacity="0.1" d="M187.055 118.657H175.027L187.055 119.026V118.657Z" fill="black"/>
<path opacity="0.1" d="M173.432 119.772H187.055L174.703 120.174L173.432 119.772Z" fill="black"/>
<path opacity="0.1" d="M170.054 121.497L187.055 121.879V121.497H170.054Z" fill="black"/>
<path opacity="0.1" d="M170.054 122.249H178.463L170.054 122.657V122.249Z" fill="black"/>
<path opacity="0.1" d="M185.434 124.272L173.25 124.175L185.434 123.902V124.272Z" fill="black"/>
<path opacity="0.1" d="M185.434 124.914H173.03L185.434 125.329V124.914Z" fill="black"/>
<path opacity="0.1" d="M187.197 126.976H173.432V127.397L187.197 126.976Z" fill="black"/>
<path opacity="0.1" d="M187.197 127.832H177.225L187.197 128.11V127.832Z" fill="black"/>
<path d="M155.296 127.196V129.277C155.296 129.809 154.648 130.03 154.136 130.03H112.561C112.029 130.03 111.387 129.809 111.387 129.277V127.196H155.296Z" fill="#263238"/>
<path opacity="0.4" d="M155.296 127.196V129.277C155.296 129.809 154.648 130.03 154.136 130.03H112.561C112.029 130.03 111.387 129.809 111.387 129.277V127.196H155.296Z" fill="white"/>
<path opacity="0.2" d="M155.297 127.196V129.277C155.297 129.809 154.648 130.03 154.136 130.03H126.715C126.184 130.03 125.548 129.809 125.548 129.277V127.196H155.297Z" fill="black"/>
<path d="M162.254 105.592L157.3 128.045C157.215 128.41 157.01 128.735 156.719 128.97C156.428 129.205 156.066 129.336 155.692 129.342H128.661C128.492 129.339 128.327 129.296 128.178 129.218C128.029 129.14 127.901 129.028 127.802 128.892C127.703 128.755 127.638 128.598 127.61 128.432C127.582 128.266 127.594 128.096 127.643 127.935L132.583 105.656C132.685 105.316 132.9 105.021 133.192 104.821C133.485 104.62 133.838 104.526 134.191 104.554H161.229C161.956 104.528 162.409 104.859 162.254 105.592Z" fill="#263238"/>
<path opacity="0.4" d="M162.254 105.592L157.3 128.046C157.215 128.41 157.01 128.736 156.719 128.97C156.428 129.205 156.066 129.336 155.692 129.342H129.575C129.406 129.339 129.241 129.296 129.092 129.218C128.943 129.14 128.815 129.028 128.716 128.892C128.617 128.756 128.552 128.598 128.524 128.432C128.496 128.266 128.508 128.096 128.557 127.935L133.504 105.657C133.604 105.316 133.819 105.02 134.112 104.819C134.405 104.619 134.758 104.525 135.112 104.554H161.229C161.955 104.528 162.409 104.859 162.254 105.592Z" fill="white"/>
<path opacity="0.2" d="M148.923 117.003C148.923 118.949 146.861 120.485 145.35 120.485C143.839 120.485 142.945 118.923 143.405 117.003C143.865 115.084 145.35 113.586 146.815 113.528C146.387 115.473 147.308 117.003 148.812 117.003H148.923Z" fill="black"/>
</svg>
