<svg width="212" height="191" viewBox="0 0 212 191" fill="none" xmlns="http://www.w3.org/2000/svg">
<g clip-path="url(#clip0_1340_3876)">
<path d="M108.868 0.941692L101.998 2.71346L17.3518 24.542L10.4813 26.3138C7.14639 27.1778 4.29043 29.3293 2.53992 32.2964C0.789424 35.2635 0.287348 38.8038 1.14385 42.1406L30.9359 157.667C31.7999 161.002 33.9515 163.858 36.9185 165.609C39.8856 167.359 43.4259 167.861 46.7627 167.005L46.7805 167L145.132 141.637L145.15 141.633C148.485 140.769 151.341 138.617 153.091 135.65C154.842 132.683 155.344 129.143 154.487 125.806L124.695 10.2792C123.831 6.94429 121.68 4.08831 118.713 2.3378C115.746 0.587285 112.205 0.0851989 108.868 0.941692Z" fill="#F2F2F2"/>
<path d="M109.802 4.56358L101.665 6.66211L19.5525 27.8372L11.4149 29.9357C9.04009 30.5509 7.00628 32.0831 5.7597 34.196C4.51312 36.309 4.15557 38.8301 4.76551 41.2063L34.5576 156.733C35.1728 159.108 36.705 161.142 38.818 162.388C40.9309 163.635 43.452 163.993 45.8282 163.383L45.846 163.378L144.198 138.015L144.215 138.01C146.59 137.395 148.624 135.863 149.871 133.75C151.117 131.637 151.475 129.116 150.865 126.74L121.073 11.213C120.457 8.83819 118.925 6.8044 116.812 5.55782C114.7 4.31124 112.178 3.95368 109.802 4.56358Z" fill="white"/>
<path d="M103.658 41.9744L53.9043 54.8049C53.3486 54.9482 52.7588 54.8649 52.2645 54.5733C51.7702 54.2817 51.4121 53.8057 51.2687 53.25C51.1254 52.6943 51.2088 52.1044 51.5004 51.6101C51.792 51.1159 52.268 50.7577 52.8237 50.6144L102.577 37.7839C103.133 37.6412 103.722 37.7248 104.216 38.0165C104.71 38.3081 105.068 38.7839 105.211 39.3393C105.354 39.8947 105.271 40.4842 104.98 40.9783C104.689 41.4724 104.213 41.8307 103.658 41.9744Z" fill="#F2F2F2"/>
<path d="M114.124 46.8169L55.7276 61.8763C55.1719 62.0196 54.582 61.9363 54.0877 61.6446C53.5935 61.353 53.2353 60.877 53.092 60.3213C52.9487 59.7656 53.032 59.1758 53.3236 58.6815C53.6152 58.1872 54.0912 57.8291 54.6469 57.6857L113.044 42.6264C113.599 42.4831 114.189 42.5664 114.683 42.858C115.178 43.1496 115.536 43.6256 115.679 44.1813C115.823 44.737 115.739 45.3269 115.448 45.8212C115.156 46.3154 114.68 46.6736 114.124 46.8169Z" fill="#F2F2F2"/>
<path d="M111.831 73.6651L62.0772 86.4956C61.802 86.5665 61.5156 86.5826 61.2342 86.5429C60.9529 86.5031 60.6821 86.4083 60.4374 86.264C60.1926 86.1196 59.9787 85.9284 59.8079 85.7013C59.637 85.4743 59.5126 85.2158 59.4416 84.9406C59.3706 84.6655 59.3546 84.379 59.3943 84.0977C59.4341 83.8163 59.5288 83.5455 59.6732 83.3008C59.8176 83.0561 60.0088 82.8422 60.2358 82.6713C60.4629 82.5005 60.7214 82.376 60.9965 82.305L110.75 69.4746C111.025 69.4036 111.312 69.3875 111.593 69.4273C111.875 69.467 112.145 69.5618 112.39 69.7062C112.635 69.8506 112.849 70.0417 113.02 70.2688C113.19 70.4959 113.315 70.7543 113.386 71.0295C113.457 71.3046 113.473 71.5911 113.433 71.8724C113.393 72.1538 113.299 72.4246 113.154 72.6693C113.01 72.9141 112.819 73.128 112.592 73.2988C112.365 73.4697 112.106 73.5941 111.831 73.6651Z" fill="#F2F2F2"/>
<path d="M122.297 78.5079L63.9004 93.5672C63.6253 93.6382 63.3388 93.6542 63.0575 93.6145C62.7761 93.5747 62.5053 93.48 62.2606 93.3356C62.0159 93.1912 61.802 93 61.6311 92.7729C61.4602 92.5459 61.3358 92.2874 61.2648 92.0123C61.1939 91.7371 61.1778 91.4507 61.2176 91.1693C61.2573 90.8879 61.3521 90.6172 61.4965 90.3724C61.6408 90.1277 61.832 89.9138 62.0591 89.7429C62.2861 89.5721 62.5446 89.4476 62.8198 89.3767L121.216 74.3173C121.772 74.174 122.362 74.2573 122.856 74.549C123.351 74.8406 123.709 75.3166 123.852 75.8723C123.995 76.428 123.912 77.0178 123.62 77.5121C123.329 78.0064 122.853 78.3646 122.297 78.5079Z" fill="#F2F2F2"/>
<path d="M120.003 105.356L70.2496 118.186C69.694 118.329 69.1045 118.246 68.6105 117.954C68.1166 117.662 67.7587 117.187 67.6154 116.631C67.4722 116.076 67.5554 115.486 67.8467 114.992C68.138 114.498 68.6136 114.14 69.1689 113.996L118.923 101.165C119.478 101.022 120.068 101.105 120.562 101.397C121.057 101.689 121.415 102.165 121.558 102.72C121.702 103.276 121.618 103.866 121.327 104.36C121.035 104.855 120.559 105.213 120.003 105.356Z" fill="#F2F2F2"/>
<path d="M130.47 110.199L72.0732 125.258C71.7979 125.329 71.5113 125.346 71.2298 125.306C70.9482 125.267 70.6773 125.172 70.4323 125.027C70.1874 124.883 69.9733 124.692 69.8023 124.465C69.6313 124.238 69.5067 123.979 69.4357 123.704C69.3647 123.428 69.3487 123.142 69.3885 122.86C69.4283 122.579 69.5233 122.308 69.6678 122.063C69.8124 121.818 70.0038 121.604 70.2311 121.433C70.4584 121.263 70.7172 121.138 70.9925 121.068L129.389 106.008C129.945 105.865 130.535 105.948 131.029 106.24C131.523 106.531 131.882 107.007 132.025 107.563C132.168 108.119 132.085 108.709 131.793 109.203C131.502 109.697 131.026 110.055 130.47 110.199Z" fill="#F2F2F2"/>
<path d="M45.4103 67.9606L27.803 72.5012C27.5365 72.5696 27.2538 72.5295 27.0169 72.3897C26.78 72.2499 26.6082 72.0219 26.5392 71.7556L22.4975 56.0826C22.4291 55.8161 22.4692 55.5334 22.6089 55.2965C22.7487 55.0596 22.9768 54.8878 23.2431 54.8188L40.8504 50.2782C41.1169 50.2098 41.3996 50.2499 41.6365 50.3897C41.8734 50.5295 42.0452 50.7575 42.1142 51.0238L46.1559 66.6968C46.2243 66.9633 46.1843 67.246 46.0445 67.4829C45.9047 67.7198 45.6766 67.8916 45.4103 67.9606Z" fill="#E6E6E6"/>
<path d="M53.5822 99.6515L35.9749 104.192C35.7084 104.26 35.4257 104.22 35.1888 104.081C34.9519 103.941 34.7801 103.713 34.7111 103.446L30.6693 87.7735C30.6009 87.5071 30.641 87.2244 30.7808 86.9874C30.9206 86.7505 31.1486 86.5787 31.4149 86.5097L49.0223 81.9691C49.2887 81.9007 49.5714 81.9408 49.8084 82.0806C50.0453 82.2204 50.2171 82.4485 50.2861 82.7147L54.3278 98.3877C54.3962 98.6542 54.3561 98.9369 54.2163 99.1738C54.0766 99.4107 53.8485 99.5825 53.5822 99.6515Z" fill="#E6E6E6"/>
<path d="M61.7561 131.342L44.1487 135.883C43.8823 135.951 43.5996 135.911 43.3626 135.772C43.1257 135.632 42.9539 135.404 42.8849 135.137L38.8432 119.464C38.7748 119.198 38.8149 118.915 38.9546 118.678C39.0944 118.441 39.3225 118.27 39.5888 118.201L57.1961 113.66C57.4626 113.592 57.7453 113.632 57.9822 113.772C58.2191 113.911 58.3909 114.139 58.4599 114.406L62.5016 130.079C62.57 130.345 62.53 130.628 62.3902 130.865C62.2504 131.102 62.0224 131.273 61.7561 131.342Z" fill="#E6E6E6"/>
<path d="M177.488 30.2263H75.8824C72.4375 30.2302 69.1347 31.6004 66.6987 34.0364C64.2628 36.4724 62.8925 39.7751 62.8887 43.2201V162.527C62.8925 165.972 64.2628 169.274 66.6987 171.71C69.1347 174.146 72.4375 175.516 75.8824 175.52H177.488C180.933 175.516 184.236 174.146 186.672 171.71C189.108 169.274 190.478 165.972 190.482 162.527V43.2201C190.478 39.7751 189.108 36.4724 186.672 34.0364C184.236 31.6004 180.933 30.2302 177.488 30.2263Z" fill="#E6E6E6"/>
<path d="M177.489 33.9668H75.8831C73.4298 33.9695 71.0778 34.9453 69.3431 36.68C67.6084 38.4147 66.6326 40.7667 66.6299 43.2199V162.526C66.6326 164.98 67.6084 167.332 69.3431 169.066C71.0778 170.801 73.4298 171.777 75.8831 171.78H177.489C179.942 171.777 182.294 170.801 184.029 169.066C185.764 167.332 186.739 164.98 186.742 162.526V43.2199C186.739 40.7667 185.764 38.4148 184.029 36.6801C182.294 34.9454 179.942 33.9696 177.489 33.9668Z" fill="white"/>
<path d="M188.163 190.036C201.263 190.036 211.883 179.416 211.883 166.317C211.883 153.217 201.263 142.597 188.163 142.597C175.063 142.597 164.443 153.217 164.443 166.317C164.443 179.416 175.063 190.036 188.163 190.036Z" fill="#8094D4"/>
<path d="M199.507 163.223H191.256V154.972C191.256 154.152 190.931 153.365 190.35 152.785C189.77 152.204 188.983 151.878 188.163 151.878C187.342 151.878 186.555 152.204 185.975 152.785C185.395 153.365 185.069 154.152 185.069 154.972V163.223H176.818C175.998 163.223 175.211 163.549 174.631 164.129C174.051 164.709 173.725 165.496 173.725 166.316C173.725 167.137 174.051 167.924 174.631 168.504C175.211 169.084 175.998 169.41 176.818 169.41H185.069V177.661C185.069 178.481 185.395 179.268 185.975 179.848C186.555 180.428 187.342 180.754 188.163 180.754C188.983 180.754 189.77 180.428 190.35 179.848C190.931 179.268 191.256 178.481 191.256 177.661V169.41H199.507C200.327 169.41 201.114 169.084 201.694 168.504C202.275 167.924 202.601 167.137 202.601 166.316C202.601 165.496 202.275 164.709 201.694 164.129C201.114 163.549 200.327 163.223 199.507 163.223Z" fill="white"/>
<path d="M162.196 99.5251H110.815C110.53 99.5255 110.249 99.4697 109.986 99.3611C109.723 99.2525 109.484 99.0932 109.283 98.8922C109.082 98.6913 108.922 98.4526 108.813 98.1899C108.704 97.9272 108.648 97.6457 108.648 97.3613C108.648 97.077 108.704 96.7954 108.813 96.5327C108.922 96.27 109.082 96.0314 109.283 95.8304C109.484 95.6295 109.723 95.4701 109.986 95.3615C110.249 95.2529 110.53 95.1972 110.815 95.1975H162.196C162.77 95.1982 163.319 95.4264 163.725 95.8321C164.13 96.2379 164.358 96.7879 164.358 97.3613C164.358 97.9348 164.13 98.4848 163.725 98.8905C163.319 99.2962 162.77 99.5245 162.196 99.5251Z" fill="#E6E6E6"/>
<path d="M171.122 106.828H110.815C110.53 106.829 110.249 106.773 109.986 106.664C109.723 106.556 109.484 106.396 109.283 106.195C109.082 105.994 108.922 105.756 108.813 105.493C108.704 105.23 108.648 104.949 108.648 104.665C108.648 104.38 108.704 104.099 108.813 103.836C108.922 103.573 109.082 103.335 109.283 103.134C109.484 102.933 109.723 102.773 109.986 102.665C110.249 102.556 110.53 102.5 110.815 102.501H171.122C171.696 102.501 172.246 102.729 172.652 103.134C173.058 103.54 173.286 104.091 173.286 104.665C173.286 105.238 173.058 105.789 172.652 106.195C172.246 106.6 171.696 106.828 171.122 106.828Z" fill="#E6E6E6"/>
<path d="M162.196 132.253H110.815C110.53 132.253 110.249 132.198 109.986 132.089C109.723 131.981 109.484 131.821 109.283 131.62C109.082 131.419 108.922 131.181 108.813 130.918C108.704 130.655 108.648 130.374 108.648 130.089C108.648 129.805 108.704 129.523 108.813 129.261C108.922 128.998 109.082 128.759 109.283 128.558C109.484 128.357 109.723 128.198 109.986 128.09C110.249 127.981 110.53 127.925 110.815 127.926H162.196C162.77 127.926 163.32 128.154 163.726 128.559C164.132 128.965 164.36 129.515 164.36 130.089C164.36 130.663 164.132 131.214 163.726 131.619C163.32 132.025 162.77 132.253 162.196 132.253Z" fill="#E6E6E6"/>
<path d="M171.122 139.556H110.815C110.53 139.556 110.249 139.5 109.986 139.392C109.723 139.283 109.484 139.124 109.283 138.923C109.082 138.722 108.922 138.483 108.813 138.221C108.704 137.958 108.648 137.676 108.648 137.392C108.648 137.108 108.704 136.826 108.813 136.563C108.922 136.301 109.082 136.062 109.283 135.861C109.484 135.66 109.723 135.501 109.986 135.392C110.249 135.284 110.53 135.228 110.815 135.228H171.122C171.406 135.228 171.688 135.284 171.951 135.392C172.213 135.501 172.452 135.66 172.653 135.861C172.855 136.062 173.014 136.301 173.123 136.563C173.232 136.826 173.288 137.108 173.288 137.392C173.288 137.676 173.232 137.958 173.123 138.221C173.014 138.483 172.855 138.722 172.653 138.923C172.452 139.124 172.213 139.283 171.951 139.392C171.688 139.5 171.406 139.556 171.122 139.556Z" fill="#E6E6E6"/>
<path d="M99.3059 110.143H81.1225C80.8474 110.143 80.5837 110.034 80.3892 109.839C80.1947 109.645 80.0853 109.381 80.085 109.106V92.9201C80.0853 92.645 80.1947 92.3813 80.3892 92.1868C80.5837 91.9923 80.8474 91.8829 81.1225 91.8826H99.3059C99.581 91.8829 99.8447 91.9923 100.039 92.1868C100.234 92.3813 100.343 92.645 100.343 92.9201V109.106C100.343 109.381 100.234 109.645 100.039 109.839C99.8447 110.034 99.581 110.143 99.3059 110.143Z" fill="#E6E6E6"/>
<path d="M99.3059 142.871H81.1225C80.8474 142.871 80.5837 142.762 80.3892 142.567C80.1947 142.372 80.0853 142.109 80.085 141.834V125.648C80.0853 125.373 80.1947 125.109 80.3892 124.915C80.5837 124.72 80.8474 124.611 81.1225 124.61H99.3059C99.581 124.611 99.8447 124.72 100.039 124.915C100.234 125.109 100.343 125.373 100.343 125.648V141.834C100.343 142.109 100.234 142.372 100.039 142.567C99.8447 142.762 99.581 142.871 99.3059 142.871Z" fill="#E6E6E6"/>
<path d="M162.254 63.0932H124.373C123.799 63.0932 123.249 62.8653 122.843 62.4595C122.437 62.0537 122.209 61.5033 122.209 60.9294C122.209 60.3556 122.437 59.8052 122.843 59.3994C123.249 58.9936 123.799 58.7656 124.373 58.7656H162.254C162.828 58.7656 163.378 58.9936 163.784 59.3994C164.19 59.8052 164.418 60.3556 164.418 60.9294C164.418 61.5033 164.19 62.0537 163.784 62.4595C163.378 62.8653 162.828 63.0932 162.254 63.0932Z" fill="#CCCCCC"/>
<path d="M171.18 70.396H124.373C124.089 70.396 123.807 70.34 123.545 70.2313C123.282 70.1225 123.044 69.9631 122.843 69.7622C122.642 69.5613 122.482 69.3227 122.374 69.0602C122.265 68.7977 122.209 68.5163 122.209 68.2322C122.209 67.948 122.265 67.6666 122.374 67.4041C122.482 67.1416 122.642 66.903 122.843 66.7021C123.044 66.5012 123.282 66.3418 123.545 66.2331C123.807 66.1243 124.089 66.0684 124.373 66.0684H171.18C171.754 66.0684 172.304 66.2963 172.71 66.7021C173.116 67.1079 173.344 67.6583 173.344 68.2322C173.344 68.806 173.116 69.3564 172.71 69.7622C172.304 70.168 171.754 70.396 171.18 70.396Z" fill="#CCCCCC"/>
<path d="M115.988 79.2461H81.0649C80.7898 79.2458 80.5261 79.1364 80.3316 78.9419C80.1371 78.7474 80.0276 78.4837 80.0273 78.2086V50.9528C80.0276 50.6777 80.1371 50.414 80.3316 50.2195C80.5261 50.025 80.7898 49.9156 81.0649 49.9153H115.988C116.263 49.9156 116.527 50.025 116.722 50.2195C116.916 50.414 117.026 50.6777 117.026 50.9528V78.2086C117.026 78.4837 116.916 78.7474 116.722 78.9419C116.527 79.1364 116.263 79.2458 115.988 79.2461Z" fill="#8094D4"/>
</g>
<defs>
<clipPath id="clip0_1340_3876">
<rect width="211.152" height="189.508" fill="white" transform="translate(0.730469 0.52832)"/>
</clipPath>
</defs>
</svg>
