<svg width="328" height="200" viewBox="0 0 328 200" fill="none" xmlns="http://www.w3.org/2000/svg">
<rect width="328" height="200" rx="1" fill="#F1F6FC"/>
<path d="M102.316 134V124.2H103.814L109.96 131.746H109.218V124.2H111.024V134H109.526L103.38 126.454H104.122V134H102.316ZM116.842 134.098C116.077 134.098 115.395 133.935 114.798 133.608C114.201 133.272 113.729 132.815 113.384 132.236C113.039 131.657 112.866 130.999 112.866 130.262C112.866 129.515 113.039 128.857 113.384 128.288C113.729 127.709 114.201 127.257 114.798 126.93C115.395 126.603 116.077 126.44 116.842 126.44C117.617 126.44 118.303 126.603 118.9 126.93C119.507 127.257 119.978 127.705 120.314 128.274C120.659 128.843 120.832 129.506 120.832 130.262C120.832 130.999 120.659 131.657 120.314 132.236C119.978 132.815 119.507 133.272 118.9 133.608C118.303 133.935 117.617 134.098 116.842 134.098ZM116.842 132.6C117.271 132.6 117.654 132.507 117.99 132.32C118.326 132.133 118.587 131.863 118.774 131.508C118.97 131.153 119.068 130.738 119.068 130.262C119.068 129.777 118.97 129.361 118.774 129.016C118.587 128.661 118.326 128.391 117.99 128.204C117.654 128.017 117.276 127.924 116.856 127.924C116.427 127.924 116.044 128.017 115.708 128.204C115.381 128.391 115.12 128.661 114.924 129.016C114.728 129.361 114.63 129.777 114.63 130.262C114.63 130.738 114.728 131.153 114.924 131.508C115.12 131.863 115.381 132.133 115.708 132.32C116.044 132.507 116.422 132.6 116.842 132.6ZM129.539 134.098C128.82 134.098 128.171 133.939 127.593 133.622C127.023 133.295 126.575 132.847 126.249 132.278C125.922 131.709 125.759 131.037 125.759 130.262C125.759 129.487 125.922 128.815 126.249 128.246C126.575 127.677 127.023 127.233 127.593 126.916C128.171 126.599 128.82 126.44 129.539 126.44C130.164 126.44 130.724 126.58 131.219 126.86C131.713 127.131 132.105 127.546 132.395 128.106C132.684 128.666 132.829 129.385 132.829 130.262C132.829 131.13 132.689 131.849 132.409 132.418C132.129 132.978 131.741 133.398 131.247 133.678C130.752 133.958 130.183 134.098 129.539 134.098ZM129.749 132.6C130.169 132.6 130.542 132.507 130.869 132.32C131.205 132.133 131.471 131.863 131.667 131.508C131.872 131.153 131.975 130.738 131.975 130.262C131.975 129.777 131.872 129.361 131.667 129.016C131.471 128.661 131.205 128.391 130.869 128.204C130.542 128.017 130.169 127.924 129.749 127.924C129.329 127.924 128.951 128.017 128.615 128.204C128.288 128.391 128.022 128.661 127.817 129.016C127.621 129.361 127.523 129.777 127.523 130.262C127.523 130.738 127.621 131.153 127.817 131.508C128.022 131.863 128.288 132.133 128.615 132.32C128.951 132.507 129.329 132.6 129.749 132.6ZM132.017 134V132.236L132.087 130.248L131.947 128.26V123.612H133.683V134H132.017ZM140.592 134V132.488L140.494 132.166V129.52C140.494 129.007 140.34 128.61 140.032 128.33C139.724 128.041 139.257 127.896 138.632 127.896C138.212 127.896 137.797 127.961 137.386 128.092C136.985 128.223 136.644 128.405 136.364 128.638L135.678 127.364C136.079 127.056 136.555 126.827 137.106 126.678C137.666 126.519 138.245 126.44 138.842 126.44C139.925 126.44 140.76 126.701 141.348 127.224C141.945 127.737 142.244 128.535 142.244 129.618V134H140.592ZM138.24 134.098C137.68 134.098 137.19 134.005 136.77 133.818C136.35 133.622 136.023 133.356 135.79 133.02C135.566 132.675 135.454 132.287 135.454 131.858C135.454 131.438 135.552 131.06 135.748 130.724C135.953 130.388 136.285 130.122 136.742 129.926C137.199 129.73 137.806 129.632 138.562 129.632H140.732V130.794H138.688C138.091 130.794 137.689 130.892 137.484 131.088C137.279 131.275 137.176 131.508 137.176 131.788C137.176 132.105 137.302 132.357 137.554 132.544C137.806 132.731 138.156 132.824 138.604 132.824C139.033 132.824 139.416 132.726 139.752 132.53C140.097 132.334 140.345 132.045 140.494 131.662L140.788 132.712C140.62 133.151 140.317 133.491 139.878 133.734C139.449 133.977 138.903 134.098 138.24 134.098ZM147.304 134.098C146.482 134.098 145.848 133.888 145.4 133.468C144.952 133.039 144.728 132.409 144.728 131.578V124.872H146.478V131.536C146.478 131.891 146.566 132.166 146.744 132.362C146.93 132.558 147.187 132.656 147.514 132.656C147.906 132.656 148.232 132.553 148.494 132.348L148.984 133.594C148.778 133.762 148.526 133.888 148.228 133.972C147.929 134.056 147.621 134.098 147.304 134.098ZM143.496 127.98V126.58H148.48V127.98H143.496ZM155.029 134V132.488L154.931 132.166V129.52C154.931 129.007 154.777 128.61 154.469 128.33C154.161 128.041 153.695 127.896 153.069 127.896C152.649 127.896 152.234 127.961 151.823 128.092C151.422 128.223 151.081 128.405 150.801 128.638L150.115 127.364C150.517 127.056 150.993 126.827 151.543 126.678C152.103 126.519 152.682 126.44 153.279 126.44C154.362 126.44 155.197 126.701 155.785 127.224C156.383 127.737 156.681 128.535 156.681 129.618V134H155.029ZM152.677 134.098C152.117 134.098 151.627 134.005 151.207 133.818C150.787 133.622 150.461 133.356 150.227 133.02C150.003 132.675 149.891 132.287 149.891 131.858C149.891 131.438 149.989 131.06 150.185 130.724C150.391 130.388 150.722 130.122 151.179 129.926C151.637 129.73 152.243 129.632 152.999 129.632H155.169V130.794H153.125C152.528 130.794 152.127 130.892 151.921 131.088C151.716 131.275 151.613 131.508 151.613 131.788C151.613 132.105 151.739 132.357 151.991 132.544C152.243 132.731 152.593 132.824 153.041 132.824C153.471 132.824 153.853 132.726 154.189 132.53C154.535 132.334 154.782 132.045 154.931 131.662L155.225 132.712C155.057 133.151 154.754 133.491 154.315 133.734C153.886 133.977 153.34 134.098 152.677 134.098ZM167.402 134V132.488L167.304 132.166V129.52C167.304 129.007 167.15 128.61 166.842 128.33C166.534 128.041 166.068 127.896 165.442 127.896C165.022 127.896 164.607 127.961 164.196 128.092C163.795 128.223 163.454 128.405 163.174 128.638L162.488 127.364C162.89 127.056 163.366 126.827 163.916 126.678C164.476 126.519 165.055 126.44 165.652 126.44C166.735 126.44 167.57 126.701 168.158 127.224C168.756 127.737 169.054 128.535 169.054 129.618V134H167.402ZM165.05 134.098C164.49 134.098 164 134.005 163.58 133.818C163.16 133.622 162.834 133.356 162.6 133.02C162.376 132.675 162.264 132.287 162.264 131.858C162.264 131.438 162.362 131.06 162.558 130.724C162.764 130.388 163.095 130.122 163.552 129.926C164.01 129.73 164.616 129.632 165.372 129.632H167.542V130.794H165.498C164.901 130.794 164.5 130.892 164.294 131.088C164.089 131.275 163.986 131.508 163.986 131.788C163.986 132.105 164.112 132.357 164.364 132.544C164.616 132.731 164.966 132.824 165.414 132.824C165.844 132.824 166.226 132.726 166.562 132.53C166.908 132.334 167.155 132.045 167.304 131.662L167.598 132.712C167.43 133.151 167.127 133.491 166.688 133.734C166.259 133.977 165.713 134.098 165.05 134.098ZM173.152 134L169.946 126.524H171.766L174.524 133.118H173.628L176.484 126.524H178.164L174.958 134H173.152ZM183.631 134V132.488L183.533 132.166V129.52C183.533 129.007 183.379 128.61 183.071 128.33C182.763 128.041 182.296 127.896 181.671 127.896C181.251 127.896 180.836 127.961 180.425 128.092C180.024 128.223 179.683 128.405 179.403 128.638L178.717 127.364C179.118 127.056 179.594 126.827 180.145 126.678C180.705 126.519 181.284 126.44 181.881 126.44C182.964 126.44 183.799 126.701 184.387 127.224C184.984 127.737 185.283 128.535 185.283 129.618V134H183.631ZM181.279 134.098C180.719 134.098 180.229 134.005 179.809 133.818C179.389 133.622 179.062 133.356 178.829 133.02C178.605 132.675 178.493 132.287 178.493 131.858C178.493 131.438 178.591 131.06 178.787 130.724C178.992 130.388 179.324 130.122 179.781 129.926C180.238 129.73 180.845 129.632 181.601 129.632H183.771V130.794H181.727C181.13 130.794 180.728 130.892 180.523 131.088C180.318 131.275 180.215 131.508 180.215 131.788C180.215 132.105 180.341 132.357 180.593 132.544C180.845 132.731 181.195 132.824 181.643 132.824C182.072 132.824 182.455 132.726 182.791 132.53C183.136 132.334 183.384 132.045 183.533 131.662L183.827 132.712C183.659 133.151 183.356 133.491 182.917 133.734C182.488 133.977 181.942 134.098 181.279 134.098ZM187.529 134V126.524H189.279V134H187.529ZM188.411 125.292C188.084 125.292 187.814 125.189 187.599 124.984C187.394 124.779 187.291 124.531 187.291 124.242C187.291 123.943 187.394 123.696 187.599 123.5C187.814 123.295 188.084 123.192 188.411 123.192C188.738 123.192 189.004 123.29 189.209 123.486C189.424 123.673 189.531 123.911 189.531 124.2C189.531 124.508 189.428 124.769 189.223 124.984C189.018 125.189 188.747 125.292 188.411 125.292ZM191.576 134V123.612H193.326V134H191.576ZM200.229 134V132.488L200.131 132.166V129.52C200.131 129.007 199.977 128.61 199.669 128.33C199.361 128.041 198.894 127.896 198.269 127.896C197.849 127.896 197.433 127.961 197.023 128.092C196.621 128.223 196.281 128.405 196.001 128.638L195.315 127.364C195.716 127.056 196.192 126.827 196.743 126.678C197.303 126.519 197.881 126.44 198.479 126.44C199.561 126.44 200.397 126.701 200.985 127.224C201.582 127.737 201.881 128.535 201.881 129.618V134H200.229ZM197.877 134.098C197.317 134.098 196.827 134.005 196.407 133.818C195.987 133.622 195.66 133.356 195.427 133.02C195.203 132.675 195.091 132.287 195.091 131.858C195.091 131.438 195.189 131.06 195.385 130.724C195.59 130.388 195.921 130.122 196.379 129.926C196.836 129.73 197.443 129.632 198.199 129.632H200.369V130.794H198.325C197.727 130.794 197.326 130.892 197.121 131.088C196.915 131.275 196.813 131.508 196.813 131.788C196.813 132.105 196.939 132.357 197.191 132.544C197.443 132.731 197.793 132.824 198.241 132.824C198.67 132.824 199.053 132.726 199.389 132.53C199.734 132.334 199.981 132.045 200.131 131.662L200.425 132.712C200.257 133.151 199.953 133.491 199.515 133.734C199.085 133.977 198.539 134.098 197.877 134.098ZM208.271 134.098C207.636 134.098 207.071 133.958 206.577 133.678C206.082 133.398 205.69 132.978 205.401 132.418C205.121 131.849 204.981 131.13 204.981 130.262C204.981 129.385 205.125 128.666 205.415 128.106C205.713 127.546 206.11 127.131 206.605 126.86C207.109 126.58 207.664 126.44 208.271 126.44C209.008 126.44 209.657 126.599 210.217 126.916C210.786 127.233 211.234 127.677 211.561 128.246C211.897 128.815 212.065 129.487 212.065 130.262C212.065 131.037 211.897 131.709 211.561 132.278C211.234 132.847 210.786 133.295 210.217 133.622C209.657 133.939 209.008 134.098 208.271 134.098ZM204.127 134V123.612H205.877V128.26L205.737 130.248L205.793 132.236V134H204.127ZM208.075 132.6C208.495 132.6 208.868 132.507 209.195 132.32C209.531 132.133 209.797 131.863 209.993 131.508C210.189 131.153 210.287 130.738 210.287 130.262C210.287 129.777 210.189 129.361 209.993 129.016C209.797 128.661 209.531 128.391 209.195 128.204C208.868 128.017 208.495 127.924 208.075 127.924C207.655 127.924 207.277 128.017 206.941 128.204C206.605 128.391 206.339 128.661 206.143 129.016C205.947 129.361 205.849 129.777 205.849 130.262C205.849 130.738 205.947 131.153 206.143 131.508C206.339 131.863 206.605 132.133 206.941 132.32C207.277 132.507 207.655 132.6 208.075 132.6ZM213.724 134V123.612H215.474V134H213.724ZM221.285 134.098C220.454 134.098 219.726 133.935 219.101 133.608C218.485 133.272 218.004 132.815 217.659 132.236C217.323 131.657 217.155 130.999 217.155 130.262C217.155 129.515 217.318 128.857 217.645 128.288C217.981 127.709 218.438 127.257 219.017 126.93C219.605 126.603 220.272 126.44 221.019 126.44C221.747 126.44 222.396 126.599 222.965 126.916C223.534 127.233 223.982 127.681 224.309 128.26C224.636 128.839 224.799 129.52 224.799 130.304C224.799 130.379 224.794 130.463 224.785 130.556C224.785 130.649 224.78 130.738 224.771 130.822H218.541V129.66H223.847L223.161 130.024C223.17 129.595 223.082 129.217 222.895 128.89C222.708 128.563 222.452 128.307 222.125 128.12C221.808 127.933 221.439 127.84 221.019 127.84C220.59 127.84 220.212 127.933 219.885 128.12C219.568 128.307 219.316 128.568 219.129 128.904C218.952 129.231 218.863 129.618 218.863 130.066V130.346C218.863 130.794 218.966 131.191 219.171 131.536C219.376 131.881 219.666 132.147 220.039 132.334C220.412 132.521 220.842 132.614 221.327 132.614C221.747 132.614 222.125 132.549 222.461 132.418C222.797 132.287 223.096 132.082 223.357 131.802L224.295 132.88C223.959 133.272 223.534 133.575 223.021 133.79C222.517 133.995 221.938 134.098 221.285 134.098Z" fill="#2D3439"/>
<path d="M26.4599 165V161.88L26.6639 162.432L23.0999 156.6H24.0479L27.1799 161.724H26.6759L29.8079 156.6H30.6959L27.1319 162.432L27.3359 161.88V165H26.4599ZM33.7462 165.06C33.1382 165.06 32.5902 164.924 32.1022 164.652C31.6222 164.372 31.2422 163.992 30.9622 163.512C30.6822 163.024 30.5422 162.468 30.5422 161.844C30.5422 161.212 30.6822 160.656 30.9622 160.176C31.2422 159.696 31.6222 159.32 32.1022 159.048C32.5822 158.776 33.1302 158.64 33.7462 158.64C34.3702 158.64 34.9222 158.776 35.4022 159.048C35.8902 159.32 36.2702 159.696 36.5422 160.176C36.8222 160.656 36.9622 161.212 36.9622 161.844C36.9622 162.468 36.8222 163.024 36.5422 163.512C36.2702 163.992 35.8902 164.372 35.4022 164.652C34.9142 164.924 34.3622 165.06 33.7462 165.06ZM33.7462 164.304C34.2022 164.304 34.6062 164.204 34.9582 164.004C35.3102 163.796 35.5862 163.508 35.7862 163.14C35.9942 162.764 36.0982 162.332 36.0982 161.844C36.0982 161.348 35.9942 160.916 35.7862 160.548C35.5862 160.18 35.3102 159.896 34.9582 159.696C34.6062 159.488 34.2062 159.384 33.7582 159.384C33.3102 159.384 32.9102 159.488 32.5582 159.696C32.2062 159.896 31.9262 160.18 31.7182 160.548C31.5102 160.916 31.4062 161.348 31.4062 161.844C31.4062 162.332 31.5102 162.764 31.7182 163.14C31.9262 163.508 32.2062 163.796 32.5582 164.004C32.9102 164.204 33.3062 164.304 33.7462 164.304ZM41.3057 165.06C40.7697 165.06 40.3017 164.96 39.9017 164.76C39.5017 164.56 39.1897 164.26 38.9657 163.86C38.7497 163.46 38.6417 162.96 38.6417 162.36V158.7H39.4937V162.264C39.4937 162.936 39.6577 163.444 39.9857 163.788C40.3217 164.124 40.7897 164.292 41.3897 164.292C41.8297 164.292 42.2097 164.204 42.5297 164.028C42.8577 163.844 43.1057 163.58 43.2737 163.236C43.4497 162.892 43.5377 162.48 43.5377 162V158.7H44.3897V165H43.5737V163.272L43.7057 163.584C43.5057 164.048 43.1937 164.412 42.7697 164.676C42.3537 164.932 41.8657 165.06 41.3057 165.06ZM46.7642 165V158.7H47.5802V160.416L47.4962 160.116C47.6722 159.636 47.9682 159.272 48.3842 159.024C48.8002 158.768 49.3162 158.64 49.9322 158.64V159.468C49.9002 159.468 49.8682 159.468 49.8362 159.468C49.8042 159.46 49.7722 159.456 49.7402 159.456C49.0762 159.456 48.5562 159.66 48.1802 160.068C47.8042 160.468 47.6162 161.04 47.6162 161.784V165H46.7642ZM56.0052 165L53.6292 158.7H54.4452L56.6052 164.544H56.2332L58.4532 158.7H59.1852L61.3812 164.544H61.0092L63.2052 158.7H63.9852L61.5972 165H60.7932L58.6812 159.504H58.9332L56.8092 165H56.0052ZM67.7683 165.06C67.1123 165.06 66.5363 164.924 66.0403 164.652C65.5443 164.372 65.1563 163.992 64.8763 163.512C64.5963 163.024 64.4563 162.468 64.4563 161.844C64.4563 161.22 64.5883 160.668 64.8523 160.188C65.1243 159.708 65.4923 159.332 65.9563 159.06C66.4283 158.78 66.9563 158.64 67.5403 158.64C68.1323 158.64 68.6563 158.776 69.1123 159.048C69.5763 159.312 69.9403 159.688 70.2043 160.176C70.4683 160.656 70.6003 161.212 70.6003 161.844C70.6003 161.884 70.5963 161.928 70.5883 161.976C70.5883 162.016 70.5883 162.06 70.5883 162.108H65.1043V161.472H70.1323L69.7963 161.724C69.7963 161.268 69.6963 160.864 69.4963 160.512C69.3043 160.152 69.0403 159.872 68.7043 159.672C68.3683 159.472 67.9803 159.372 67.5403 159.372C67.1083 159.372 66.7203 159.472 66.3763 159.672C66.0323 159.872 65.7643 160.152 65.5723 160.512C65.3803 160.872 65.2843 161.284 65.2843 161.748V161.88C65.2843 162.36 65.3883 162.784 65.5963 163.152C65.8123 163.512 66.1083 163.796 66.4843 164.004C66.8683 164.204 67.3043 164.304 67.7923 164.304C68.1763 164.304 68.5323 164.236 68.8603 164.1C69.1963 163.964 69.4843 163.756 69.7243 163.476L70.2043 164.028C69.9243 164.364 69.5723 164.62 69.1483 164.796C68.7323 164.972 68.2723 165.06 67.7683 165.06ZM75.0105 165.06C74.3545 165.06 73.7785 164.924 73.2825 164.652C72.7865 164.372 72.3985 163.992 72.1185 163.512C71.8385 163.024 71.6985 162.468 71.6985 161.844C71.6985 161.22 71.8305 160.668 72.0945 160.188C72.3665 159.708 72.7345 159.332 73.1985 159.06C73.6705 158.78 74.1985 158.64 74.7825 158.64C75.3745 158.64 75.8985 158.776 76.3545 159.048C76.8185 159.312 77.1825 159.688 77.4465 160.176C77.7105 160.656 77.8425 161.212 77.8425 161.844C77.8425 161.884 77.8385 161.928 77.8305 161.976C77.8305 162.016 77.8305 162.06 77.8305 162.108H72.3465V161.472H77.3745L77.0385 161.724C77.0385 161.268 76.9385 160.864 76.7385 160.512C76.5465 160.152 76.2825 159.872 75.9465 159.672C75.6105 159.472 75.2225 159.372 74.7825 159.372C74.3505 159.372 73.9625 159.472 73.6185 159.672C73.2745 159.872 73.0065 160.152 72.8145 160.512C72.6225 160.872 72.5265 161.284 72.5265 161.748V161.88C72.5265 162.36 72.6305 162.784 72.8385 163.152C73.0545 163.512 73.3505 163.796 73.7265 164.004C74.1105 164.204 74.5465 164.304 75.0345 164.304C75.4185 164.304 75.7745 164.236 76.1025 164.1C76.4385 163.964 76.7265 163.756 76.9665 163.476L77.4465 164.028C77.1665 164.364 76.8145 164.62 76.3905 164.796C75.9745 164.972 75.5145 165.06 75.0105 165.06ZM80.2487 163.368L80.2727 162.276L84.1967 158.7H85.2407L82.4687 161.352L81.9887 161.76L80.2487 163.368ZM79.5767 165V156.096H80.4287V165H79.5767ZM84.4607 165L81.8327 161.724L82.3847 161.064L85.5047 165H84.4607ZM86.7837 165V156.096H87.6357V165H86.7837ZM90.0544 167.388C89.7584 167.388 89.4744 167.34 89.2024 167.244C88.9384 167.148 88.7104 167.004 88.5184 166.812L88.9144 166.176C89.0744 166.328 89.2464 166.444 89.4304 166.524C89.6224 166.612 89.8344 166.656 90.0664 166.656C90.3464 166.656 90.5864 166.576 90.7864 166.416C90.9944 166.264 91.1904 165.992 91.3744 165.6L91.7824 164.676L91.8784 164.544L94.4704 158.7H95.3104L92.1544 165.756C91.9784 166.164 91.7824 166.488 91.5664 166.728C91.3584 166.968 91.1304 167.136 90.8824 167.232C90.6344 167.336 90.3584 167.388 90.0544 167.388ZM91.7344 165.18L88.8304 158.7H89.7184L92.2864 164.484L91.7344 165.18ZM99.7949 165V157.908C99.7949 157.348 99.9589 156.896 100.287 156.552C100.615 156.208 101.087 156.036 101.703 156.036C101.943 156.036 102.175 156.068 102.399 156.132C102.623 156.196 102.811 156.296 102.963 156.432L102.675 157.068C102.555 156.964 102.415 156.888 102.255 156.84C102.095 156.784 101.923 156.756 101.739 156.756C101.379 156.756 101.103 156.856 100.911 157.056C100.719 157.256 100.623 157.552 100.623 157.944V158.904L100.647 159.3V165H99.7949ZM98.6669 159.408V158.7H102.567V159.408H98.6669ZM103.719 165V158.7H104.571V165H103.719ZM104.151 157.308C103.975 157.308 103.827 157.248 103.707 157.128C103.587 157.008 103.527 156.864 103.527 156.696C103.527 156.528 103.587 156.388 103.707 156.276C103.827 156.156 103.975 156.096 104.151 156.096C104.327 156.096 104.475 156.152 104.595 156.264C104.715 156.376 104.775 156.516 104.775 156.684C104.775 156.86 104.715 157.008 104.595 157.128C104.483 157.248 104.335 157.308 104.151 157.308ZM110.179 158.64C110.691 158.64 111.139 158.74 111.523 158.94C111.915 159.132 112.219 159.428 112.435 159.828C112.659 160.228 112.771 160.732 112.771 161.34V165H111.919V161.424C111.919 160.76 111.751 160.26 111.415 159.924C111.087 159.58 110.623 159.408 110.023 159.408C109.575 159.408 109.183 159.5 108.847 159.684C108.519 159.86 108.263 160.12 108.079 160.464C107.903 160.8 107.815 161.208 107.815 161.688V165H106.963V158.7H107.779V160.428L107.647 160.104C107.847 159.648 108.167 159.292 108.607 159.036C109.047 158.772 109.571 158.64 110.179 158.64ZM119.021 165V163.608L118.985 163.38V161.052C118.985 160.516 118.833 160.104 118.529 159.816C118.233 159.528 117.789 159.384 117.197 159.384C116.789 159.384 116.401 159.452 116.033 159.588C115.665 159.724 115.353 159.904 115.097 160.128L114.713 159.492C115.033 159.22 115.417 159.012 115.865 158.868C116.313 158.716 116.785 158.64 117.281 158.64C118.097 158.64 118.725 158.844 119.165 159.252C119.613 159.652 119.837 160.264 119.837 161.088V165H119.021ZM116.849 165.06C116.377 165.06 115.965 164.984 115.613 164.832C115.269 164.672 115.005 164.456 114.821 164.184C114.637 163.904 114.545 163.584 114.545 163.224C114.545 162.896 114.621 162.6 114.773 162.336C114.933 162.064 115.189 161.848 115.541 161.688C115.901 161.52 116.381 161.436 116.981 161.436H119.153V162.072H117.005C116.397 162.072 115.973 162.18 115.733 162.396C115.501 162.612 115.385 162.88 115.385 163.2C115.385 163.56 115.525 163.848 115.805 164.064C116.085 164.28 116.477 164.388 116.981 164.388C117.461 164.388 117.873 164.28 118.217 164.064C118.569 163.84 118.825 163.52 118.985 163.104L119.177 163.692C119.017 164.108 118.737 164.44 118.337 164.688C117.945 164.936 117.449 165.06 116.849 165.06ZM125.367 158.64C125.879 158.64 126.327 158.74 126.711 158.94C127.103 159.132 127.407 159.428 127.623 159.828C127.847 160.228 127.959 160.732 127.959 161.34V165H127.107V161.424C127.107 160.76 126.939 160.26 126.603 159.924C126.275 159.58 125.811 159.408 125.211 159.408C124.763 159.408 124.371 159.5 124.035 159.684C123.707 159.86 123.451 160.12 123.267 160.464C123.091 160.8 123.003 161.208 123.003 161.688V165H122.151V158.7H122.967V160.428L122.835 160.104C123.035 159.648 123.355 159.292 123.795 159.036C124.235 158.772 124.759 158.64 125.367 158.64ZM132.876 165.06C132.252 165.06 131.692 164.924 131.196 164.652C130.708 164.372 130.324 163.992 130.044 163.512C129.764 163.024 129.624 162.468 129.624 161.844C129.624 161.212 129.764 160.656 130.044 160.176C130.324 159.696 130.708 159.32 131.196 159.048C131.692 158.776 132.252 158.64 132.876 158.64C133.412 158.64 133.896 158.744 134.328 158.952C134.76 159.16 135.1 159.472 135.348 159.888L134.712 160.32C134.496 160 134.228 159.764 133.908 159.612C133.588 159.46 133.24 159.384 132.864 159.384C132.416 159.384 132.012 159.488 131.652 159.696C131.292 159.896 131.008 160.18 130.8 160.548C130.592 160.916 130.488 161.348 130.488 161.844C130.488 162.34 130.592 162.772 130.8 163.14C131.008 163.508 131.292 163.796 131.652 164.004C132.012 164.204 132.416 164.304 132.864 164.304C133.24 164.304 133.588 164.228 133.908 164.076C134.228 163.924 134.496 163.692 134.712 163.38L135.348 163.812C135.1 164.22 134.76 164.532 134.328 164.748C133.896 164.956 133.412 165.06 132.876 165.06ZM136.928 165V158.7H137.78V165H136.928ZM137.36 157.308C137.184 157.308 137.036 157.248 136.916 157.128C136.796 157.008 136.736 156.864 136.736 156.696C136.736 156.528 136.796 156.388 136.916 156.276C137.036 156.156 137.184 156.096 137.36 156.096C137.536 156.096 137.684 156.152 137.804 156.264C137.924 156.376 137.984 156.516 137.984 156.684C137.984 156.86 137.924 157.008 137.804 157.128C137.692 157.248 137.544 157.308 137.36 157.308ZM144.099 165V163.608L144.063 163.38V161.052C144.063 160.516 143.911 160.104 143.607 159.816C143.311 159.528 142.867 159.384 142.275 159.384C141.867 159.384 141.479 159.452 141.111 159.588C140.743 159.724 140.431 159.904 140.175 160.128L139.791 159.492C140.111 159.22 140.495 159.012 140.943 158.868C141.391 158.716 141.863 158.64 142.359 158.64C143.175 158.64 143.803 158.844 144.243 159.252C144.691 159.652 144.915 160.264 144.915 161.088V165H144.099ZM141.927 165.06C141.455 165.06 141.043 164.984 140.691 164.832C140.347 164.672 140.083 164.456 139.899 164.184C139.715 163.904 139.623 163.584 139.623 163.224C139.623 162.896 139.699 162.6 139.851 162.336C140.011 162.064 140.267 161.848 140.619 161.688C140.979 161.52 141.459 161.436 142.059 161.436H144.231V162.072H142.083C141.475 162.072 141.051 162.18 140.811 162.396C140.579 162.612 140.463 162.88 140.463 163.2C140.463 163.56 140.603 163.848 140.883 164.064C141.163 164.28 141.555 164.388 142.059 164.388C142.539 164.388 142.951 164.28 143.295 164.064C143.647 163.84 143.903 163.52 144.063 163.104L144.255 163.692C144.095 164.108 143.815 164.44 143.415 164.688C143.023 164.936 142.527 165.06 141.927 165.06ZM147.229 165V156.096H148.081V165H147.229ZM156.16 165.06C155.552 165.06 155.004 164.924 154.516 164.652C154.036 164.372 153.656 163.992 153.376 163.512C153.096 163.024 152.956 162.468 152.956 161.844C152.956 161.212 153.096 160.656 153.376 160.176C153.656 159.696 154.036 159.32 154.516 159.048C154.996 158.776 155.544 158.64 156.16 158.64C156.784 158.64 157.336 158.776 157.816 159.048C158.304 159.32 158.684 159.696 158.956 160.176C159.236 160.656 159.376 161.212 159.376 161.844C159.376 162.468 159.236 163.024 158.956 163.512C158.684 163.992 158.304 164.372 157.816 164.652C157.328 164.924 156.776 165.06 156.16 165.06ZM156.16 164.304C156.616 164.304 157.02 164.204 157.372 164.004C157.724 163.796 158 163.508 158.2 163.14C158.408 162.764 158.512 162.332 158.512 161.844C158.512 161.348 158.408 160.916 158.2 160.548C158 160.18 157.724 159.896 157.372 159.696C157.02 159.488 156.62 159.384 156.172 159.384C155.724 159.384 155.324 159.488 154.972 159.696C154.62 159.896 154.34 160.18 154.132 160.548C153.924 160.916 153.82 161.348 153.82 161.844C153.82 162.332 153.924 162.764 154.132 163.14C154.34 163.508 154.62 163.796 154.972 164.004C155.324 164.204 155.72 164.304 156.16 164.304ZM162.56 165L159.764 158.7H160.652L163.22 164.544H162.8L165.404 158.7H166.244L163.436 165H162.56ZM169.944 165.06C169.288 165.06 168.712 164.924 168.216 164.652C167.72 164.372 167.332 163.992 167.052 163.512C166.772 163.024 166.632 162.468 166.632 161.844C166.632 161.22 166.764 160.668 167.028 160.188C167.3 159.708 167.668 159.332 168.132 159.06C168.604 158.78 169.132 158.64 169.716 158.64C170.308 158.64 170.832 158.776 171.288 159.048C171.752 159.312 172.116 159.688 172.38 160.176C172.644 160.656 172.776 161.212 172.776 161.844C172.776 161.884 172.772 161.928 172.764 161.976C172.764 162.016 172.764 162.06 172.764 162.108H167.28V161.472H172.308L171.972 161.724C171.972 161.268 171.872 160.864 171.672 160.512C171.48 160.152 171.216 159.872 170.88 159.672C170.544 159.472 170.156 159.372 169.716 159.372C169.284 159.372 168.896 159.472 168.552 159.672C168.208 159.872 167.94 160.152 167.748 160.512C167.556 160.872 167.46 161.284 167.46 161.748V161.88C167.46 162.36 167.564 162.784 167.772 163.152C167.988 163.512 168.284 163.796 168.66 164.004C169.044 164.204 169.48 164.304 169.968 164.304C170.352 164.304 170.708 164.236 171.036 164.1C171.372 163.964 171.66 163.756 171.9 163.476L172.38 164.028C172.1 164.364 171.748 164.62 171.324 164.796C170.908 164.972 170.448 165.06 169.944 165.06ZM174.51 165V158.7H175.326V160.416L175.242 160.116C175.418 159.636 175.714 159.272 176.13 159.024C176.546 158.768 177.062 158.64 177.678 158.64V159.468C177.646 159.468 177.614 159.468 177.582 159.468C177.55 159.46 177.518 159.456 177.486 159.456C176.822 159.456 176.302 159.66 175.926 160.068C175.55 160.468 175.362 161.04 175.362 161.784V165H174.51ZM181.122 165L178.326 158.7H179.214L181.782 164.544H181.362L183.966 158.7H184.806L181.998 165H181.122ZM186.006 165V158.7H186.858V165H186.006ZM186.438 157.308C186.262 157.308 186.114 157.248 185.994 157.128C185.874 157.008 185.814 156.864 185.814 156.696C185.814 156.528 185.874 156.388 185.994 156.276C186.114 156.156 186.262 156.096 186.438 156.096C186.614 156.096 186.762 156.152 186.882 156.264C187.002 156.376 187.062 156.516 187.062 156.684C187.062 156.86 187.002 157.008 186.882 157.128C186.77 157.248 186.622 157.308 186.438 157.308ZM191.905 165.06C191.249 165.06 190.673 164.924 190.177 164.652C189.681 164.372 189.293 163.992 189.013 163.512C188.733 163.024 188.593 162.468 188.593 161.844C188.593 161.22 188.725 160.668 188.989 160.188C189.261 159.708 189.629 159.332 190.093 159.06C190.565 158.78 191.093 158.64 191.677 158.64C192.269 158.64 192.793 158.776 193.249 159.048C193.713 159.312 194.077 159.688 194.341 160.176C194.605 160.656 194.737 161.212 194.737 161.844C194.737 161.884 194.733 161.928 194.725 161.976C194.725 162.016 194.725 162.06 194.725 162.108H189.241V161.472H194.269L193.933 161.724C193.933 161.268 193.833 160.864 193.633 160.512C193.441 160.152 193.177 159.872 192.841 159.672C192.505 159.472 192.117 159.372 191.677 159.372C191.245 159.372 190.857 159.472 190.513 159.672C190.169 159.872 189.901 160.152 189.709 160.512C189.517 160.872 189.421 161.284 189.421 161.748V161.88C189.421 162.36 189.525 162.784 189.733 163.152C189.949 163.512 190.245 163.796 190.621 164.004C191.005 164.204 191.441 164.304 191.929 164.304C192.313 164.304 192.669 164.236 192.997 164.1C193.333 163.964 193.621 163.756 193.861 163.476L194.341 164.028C194.061 164.364 193.709 164.62 193.285 164.796C192.869 164.972 192.409 165.06 191.905 165.06ZM197.638 165L195.262 158.7H196.078L198.238 164.544H197.866L200.086 158.7H200.818L203.014 164.544H202.642L204.838 158.7H205.618L203.23 165H202.426L200.314 159.504H200.566L198.442 165H197.638ZM211.326 165L208.95 158.7H209.766L211.926 164.544H211.554L213.774 158.7H214.506L216.702 164.544H216.33L218.526 158.7H219.306L216.918 165H216.114L214.002 159.504H214.254L212.13 165H211.326ZM220.588 165V158.7H221.44V165H220.588ZM221.02 157.308C220.844 157.308 220.696 157.248 220.576 157.128C220.456 157.008 220.396 156.864 220.396 156.696C220.396 156.528 220.456 156.388 220.576 156.276C220.696 156.156 220.844 156.096 221.02 156.096C221.196 156.096 221.344 156.152 221.464 156.264C221.584 156.376 221.644 156.516 221.644 156.684C221.644 156.86 221.584 157.008 221.464 157.128C221.352 157.248 221.204 157.308 221.02 157.308ZM223.811 165V156.096H224.663V165H223.811ZM227.034 165V156.096H227.886V165H227.034ZM237.345 165V163.608L237.309 163.38V161.052C237.309 160.516 237.157 160.104 236.853 159.816C236.557 159.528 236.113 159.384 235.521 159.384C235.113 159.384 234.725 159.452 234.357 159.588C233.989 159.724 233.677 159.904 233.421 160.128L233.037 159.492C233.357 159.22 233.741 159.012 234.189 158.868C234.637 158.716 235.109 158.64 235.605 158.64C236.421 158.64 237.049 158.844 237.489 159.252C237.937 159.652 238.161 160.264 238.161 161.088V165H237.345ZM235.173 165.06C234.701 165.06 234.289 164.984 233.937 164.832C233.593 164.672 233.329 164.456 233.145 164.184C232.961 163.904 232.869 163.584 232.869 163.224C232.869 162.896 232.945 162.6 233.097 162.336C233.257 162.064 233.513 161.848 233.865 161.688C234.225 161.52 234.705 161.436 235.305 161.436H237.477V162.072H235.329C234.721 162.072 234.297 162.18 234.057 162.396C233.825 162.612 233.709 162.88 233.709 163.2C233.709 163.56 233.849 163.848 234.129 164.064C234.409 164.28 234.801 164.388 235.305 164.388C235.785 164.388 236.197 164.28 236.541 164.064C236.893 163.84 237.149 163.52 237.309 163.104L237.501 163.692C237.341 164.108 237.061 164.44 236.661 164.688C236.269 164.936 235.773 165.06 235.173 165.06ZM243.727 165.06C243.183 165.06 242.691 164.936 242.251 164.688C241.811 164.432 241.459 164.068 241.195 163.596C240.939 163.116 240.811 162.532 240.811 161.844C240.811 161.156 240.939 160.576 241.195 160.104C241.451 159.624 241.799 159.26 242.239 159.012C242.679 158.764 243.175 158.64 243.727 158.64C244.327 158.64 244.863 158.776 245.335 159.048C245.815 159.312 246.191 159.688 246.463 160.176C246.735 160.656 246.871 161.212 246.871 161.844C246.871 162.484 246.735 163.044 246.463 163.524C246.191 164.004 245.815 164.38 245.335 164.652C244.863 164.924 244.327 165.06 243.727 165.06ZM240.475 167.328V158.7H241.291V160.596L241.207 161.856L241.327 163.128V167.328H240.475ZM243.667 164.304C244.115 164.304 244.515 164.204 244.867 164.004C245.219 163.796 245.499 163.508 245.707 163.14C245.915 162.764 246.019 162.332 246.019 161.844C246.019 161.356 245.915 160.928 245.707 160.56C245.499 160.192 245.219 159.904 244.867 159.696C244.515 159.488 244.115 159.384 243.667 159.384C243.219 159.384 242.815 159.488 242.455 159.696C242.103 159.904 241.823 160.192 241.615 160.56C241.415 160.928 241.315 161.356 241.315 161.844C241.315 162.332 241.415 162.764 241.615 163.14C241.823 163.508 242.103 163.796 242.455 164.004C242.815 164.204 243.219 164.304 243.667 164.304ZM251.86 165.06C251.316 165.06 250.824 164.936 250.384 164.688C249.944 164.432 249.592 164.068 249.328 163.596C249.072 163.116 248.944 162.532 248.944 161.844C248.944 161.156 249.072 160.576 249.328 160.104C249.584 159.624 249.932 159.26 250.372 159.012C250.812 158.764 251.308 158.64 251.86 158.64C252.46 158.64 252.996 158.776 253.468 159.048C253.948 159.312 254.324 159.688 254.596 160.176C254.868 160.656 255.004 161.212 255.004 161.844C255.004 162.484 254.868 163.044 254.596 163.524C254.324 164.004 253.948 164.38 253.468 164.652C252.996 164.924 252.46 165.06 251.86 165.06ZM248.608 167.328V158.7H249.424V160.596L249.34 161.856L249.46 163.128V167.328H248.608ZM251.8 164.304C252.248 164.304 252.648 164.204 253 164.004C253.352 163.796 253.632 163.508 253.84 163.14C254.048 162.764 254.152 162.332 254.152 161.844C254.152 161.356 254.048 160.928 253.84 160.56C253.632 160.192 253.352 159.904 253 159.696C252.648 159.488 252.248 159.384 251.8 159.384C251.352 159.384 250.948 159.488 250.588 159.696C250.236 159.904 249.956 160.192 249.748 160.56C249.548 160.928 249.448 161.356 249.448 161.844C249.448 162.332 249.548 162.764 249.748 163.14C249.956 163.508 250.236 163.796 250.588 164.004C250.948 164.204 251.352 164.304 251.8 164.304ZM259.417 165.06C258.761 165.06 258.185 164.924 257.689 164.652C257.193 164.372 256.805 163.992 256.525 163.512C256.245 163.024 256.105 162.468 256.105 161.844C256.105 161.22 256.237 160.668 256.501 160.188C256.773 159.708 257.141 159.332 257.605 159.06C258.077 158.78 258.605 158.64 259.189 158.64C259.781 158.64 260.305 158.776 260.761 159.048C261.225 159.312 261.589 159.688 261.853 160.176C262.117 160.656 262.249 161.212 262.249 161.844C262.249 161.884 262.245 161.928 262.237 161.976C262.237 162.016 262.237 162.06 262.237 162.108H256.753V161.472H261.781L261.445 161.724C261.445 161.268 261.345 160.864 261.145 160.512C260.953 160.152 260.689 159.872 260.353 159.672C260.017 159.472 259.629 159.372 259.189 159.372C258.757 159.372 258.369 159.472 258.025 159.672C257.681 159.872 257.413 160.152 257.221 160.512C257.029 160.872 256.933 161.284 256.933 161.748V161.88C256.933 162.36 257.037 162.784 257.245 163.152C257.461 163.512 257.757 163.796 258.133 164.004C258.517 164.204 258.953 164.304 259.441 164.304C259.825 164.304 260.181 164.236 260.509 164.1C260.845 163.964 261.133 163.756 261.373 163.476L261.853 164.028C261.573 164.364 261.221 164.62 260.797 164.796C260.381 164.972 259.921 165.06 259.417 165.06ZM267.755 165V163.608L267.719 163.38V161.052C267.719 160.516 267.567 160.104 267.263 159.816C266.967 159.528 266.523 159.384 265.931 159.384C265.523 159.384 265.135 159.452 264.767 159.588C264.399 159.724 264.087 159.904 263.831 160.128L263.447 159.492C263.767 159.22 264.151 159.012 264.599 158.868C265.047 158.716 265.519 158.64 266.015 158.64C266.831 158.64 267.459 158.844 267.899 159.252C268.347 159.652 268.571 160.264 268.571 161.088V165H267.755ZM265.583 165.06C265.111 165.06 264.699 164.984 264.347 164.832C264.003 164.672 263.739 164.456 263.555 164.184C263.371 163.904 263.279 163.584 263.279 163.224C263.279 162.896 263.355 162.6 263.507 162.336C263.667 162.064 263.923 161.848 264.275 161.688C264.635 161.52 265.115 161.436 265.715 161.436H267.887V162.072H265.739C265.131 162.072 264.707 162.18 264.467 162.396C264.235 162.612 264.119 162.88 264.119 163.2C264.119 163.56 264.259 163.848 264.539 164.064C264.819 164.28 265.211 164.388 265.715 164.388C266.195 164.388 266.607 164.28 266.951 164.064C267.303 163.84 267.559 163.52 267.719 163.104L267.911 163.692C267.751 164.108 267.471 164.44 267.071 164.688C266.679 164.936 266.183 165.06 265.583 165.06ZM270.885 165V158.7H271.701V160.416L271.617 160.116C271.793 159.636 272.089 159.272 272.505 159.024C272.921 158.768 273.437 158.64 274.053 158.64V159.468C274.021 159.468 273.989 159.468 273.957 159.468C273.925 159.46 273.893 159.456 273.861 159.456C273.197 159.456 272.677 159.66 272.301 160.068C271.925 160.468 271.737 161.04 271.737 161.784V165H270.885ZM282.058 158.64C282.57 158.64 283.018 158.74 283.402 158.94C283.794 159.132 284.098 159.428 284.314 159.828C284.538 160.228 284.65 160.732 284.65 161.34V165H283.798V161.424C283.798 160.76 283.63 160.26 283.294 159.924C282.966 159.58 282.502 159.408 281.902 159.408C281.454 159.408 281.062 159.5 280.726 159.684C280.398 159.86 280.142 160.12 279.958 160.464C279.782 160.8 279.694 161.208 279.694 161.688V165H278.842V156.096H279.694V160.428L279.526 160.104C279.726 159.648 280.046 159.292 280.486 159.036C280.926 158.772 281.45 158.64 282.058 158.64ZM289.628 165.06C288.972 165.06 288.396 164.924 287.9 164.652C287.404 164.372 287.016 163.992 286.736 163.512C286.456 163.024 286.316 162.468 286.316 161.844C286.316 161.22 286.448 160.668 286.712 160.188C286.984 159.708 287.352 159.332 287.816 159.06C288.288 158.78 288.816 158.64 289.4 158.64C289.992 158.64 290.516 158.776 290.972 159.048C291.436 159.312 291.8 159.688 292.064 160.176C292.328 160.656 292.46 161.212 292.46 161.844C292.46 161.884 292.456 161.928 292.448 161.976C292.448 162.016 292.448 162.06 292.448 162.108H286.964V161.472H291.992L291.656 161.724C291.656 161.268 291.556 160.864 291.356 160.512C291.164 160.152 290.9 159.872 290.564 159.672C290.228 159.472 289.84 159.372 289.4 159.372C288.968 159.372 288.58 159.472 288.236 159.672C287.892 159.872 287.624 160.152 287.432 160.512C287.24 160.872 287.144 161.284 287.144 161.748V161.88C287.144 162.36 287.248 162.784 287.456 163.152C287.672 163.512 287.968 163.796 288.344 164.004C288.728 164.204 289.164 164.304 289.652 164.304C290.036 164.304 290.392 164.236 290.72 164.1C291.056 163.964 291.344 163.756 291.584 163.476L292.064 164.028C291.784 164.364 291.432 164.62 291.008 164.796C290.592 164.972 290.132 165.06 289.628 165.06ZM294.194 165V158.7H295.01V160.416L294.926 160.116C295.102 159.636 295.398 159.272 295.814 159.024C296.23 158.768 296.746 158.64 297.362 158.64V159.468C297.33 159.468 297.298 159.468 297.266 159.468C297.234 159.46 297.202 159.456 297.17 159.456C296.506 159.456 295.986 159.66 295.61 160.068C295.234 160.468 295.046 161.04 295.046 161.784V165H294.194ZM301.534 165.06C300.878 165.06 300.302 164.924 299.806 164.652C299.31 164.372 298.922 163.992 298.642 163.512C298.362 163.024 298.222 162.468 298.222 161.844C298.222 161.22 298.354 160.668 298.618 160.188C298.89 159.708 299.258 159.332 299.722 159.06C300.194 158.78 300.722 158.64 301.306 158.64C301.898 158.64 302.422 158.776 302.878 159.048C303.342 159.312 303.706 159.688 303.97 160.176C304.234 160.656 304.366 161.212 304.366 161.844C304.366 161.884 304.362 161.928 304.354 161.976C304.354 162.016 304.354 162.06 304.354 162.108H298.87V161.472H303.898L303.562 161.724C303.562 161.268 303.462 160.864 303.262 160.512C303.07 160.152 302.806 159.872 302.47 159.672C302.134 159.472 301.746 159.372 301.306 159.372C300.874 159.372 300.486 159.472 300.142 159.672C299.798 159.872 299.53 160.152 299.338 160.512C299.146 160.872 299.05 161.284 299.05 161.748V161.88C299.05 162.36 299.154 162.784 299.362 163.152C299.578 163.512 299.874 163.796 300.25 164.004C300.634 164.204 301.07 164.304 301.558 164.304C301.942 164.304 302.298 164.236 302.626 164.1C302.962 163.964 303.25 163.756 303.49 163.476L303.97 164.028C303.69 164.364 303.338 164.62 302.914 164.796C302.498 164.972 302.038 165.06 301.534 165.06ZM45.5119 183.06C44.9039 183.06 44.3559 182.924 43.8679 182.652C43.3879 182.372 43.0079 181.992 42.7279 181.512C42.4479 181.024 42.3079 180.468 42.3079 179.844C42.3079 179.212 42.4479 178.656 42.7279 178.176C43.0079 177.696 43.3879 177.32 43.8679 177.048C44.3479 176.776 44.8959 176.64 45.5119 176.64C46.1359 176.64 46.6879 176.776 47.1679 177.048C47.6559 177.32 48.0359 177.696 48.3079 178.176C48.5879 178.656 48.7279 179.212 48.7279 179.844C48.7279 180.468 48.5879 181.024 48.3079 181.512C48.0359 181.992 47.6559 182.372 47.1679 182.652C46.6799 182.924 46.1279 183.06 45.5119 183.06ZM45.5119 182.304C45.9679 182.304 46.3719 182.204 46.7239 182.004C47.0759 181.796 47.3519 181.508 47.5519 181.14C47.7599 180.764 47.8639 180.332 47.8639 179.844C47.8639 179.348 47.7599 178.916 47.5519 178.548C47.3519 178.18 47.0759 177.896 46.7239 177.696C46.3719 177.488 45.9719 177.384 45.5239 177.384C45.0759 177.384 44.6759 177.488 44.3239 177.696C43.9719 177.896 43.6919 178.18 43.4839 178.548C43.2759 178.916 43.1719 179.348 43.1719 179.844C43.1719 180.332 43.2759 180.764 43.4839 181.14C43.6919 181.508 43.9719 181.796 44.3239 182.004C44.6759 182.204 45.0719 182.304 45.5119 182.304ZM53.6833 176.64C54.1953 176.64 54.6433 176.74 55.0273 176.94C55.4193 177.132 55.7233 177.428 55.9393 177.828C56.1633 178.228 56.2753 178.732 56.2753 179.34V183H55.4233V179.424C55.4233 178.76 55.2553 178.26 54.9193 177.924C54.5913 177.58 54.1273 177.408 53.5273 177.408C53.0793 177.408 52.6873 177.5 52.3513 177.684C52.0233 177.86 51.7673 178.12 51.5833 178.464C51.4073 178.8 51.3193 179.208 51.3193 179.688V183H50.4673V176.7H51.2833V178.428L51.1513 178.104C51.3513 177.648 51.6713 177.292 52.1113 177.036C52.5513 176.772 53.0753 176.64 53.6833 176.64ZM61.1927 183.06C60.5687 183.06 60.0087 182.924 59.5127 182.652C59.0247 182.372 58.6407 181.992 58.3607 181.512C58.0807 181.024 57.9407 180.468 57.9407 179.844C57.9407 179.212 58.0807 178.656 58.3607 178.176C58.6407 177.696 59.0247 177.32 59.5127 177.048C60.0087 176.776 60.5687 176.64 61.1927 176.64C61.7287 176.64 62.2127 176.744 62.6447 176.952C63.0767 177.16 63.4167 177.472 63.6647 177.888L63.0287 178.32C62.8127 178 62.5447 177.764 62.2247 177.612C61.9047 177.46 61.5567 177.384 61.1807 177.384C60.7327 177.384 60.3287 177.488 59.9687 177.696C59.6087 177.896 59.3247 178.18 59.1167 178.548C58.9087 178.916 58.8047 179.348 58.8047 179.844C58.8047 180.34 58.9087 180.772 59.1167 181.14C59.3247 181.508 59.6087 181.796 59.9687 182.004C60.3287 182.204 60.7327 182.304 61.1807 182.304C61.5567 182.304 61.9047 182.228 62.2247 182.076C62.5447 181.924 62.8127 181.692 63.0287 181.38L63.6647 181.812C63.4167 182.22 63.0767 182.532 62.6447 182.748C62.2127 182.956 61.7287 183.06 61.1927 183.06ZM67.9089 183.06C67.2529 183.06 66.6769 182.924 66.1809 182.652C65.6849 182.372 65.2969 181.992 65.0169 181.512C64.7369 181.024 64.5969 180.468 64.5969 179.844C64.5969 179.22 64.7289 178.668 64.9929 178.188C65.2649 177.708 65.6329 177.332 66.0969 177.06C66.5689 176.78 67.0969 176.64 67.6809 176.64C68.2729 176.64 68.7969 176.776 69.2529 177.048C69.7169 177.312 70.0809 177.688 70.3449 178.176C70.6089 178.656 70.7409 179.212 70.7409 179.844C70.7409 179.884 70.7369 179.928 70.7289 179.976C70.7289 180.016 70.7289 180.06 70.7289 180.108H65.2449V179.472H70.2729L69.9369 179.724C69.9369 179.268 69.8369 178.864 69.6369 178.512C69.4449 178.152 69.1809 177.872 68.8449 177.672C68.5089 177.472 68.1209 177.372 67.6809 177.372C67.2489 177.372 66.8609 177.472 66.5169 177.672C66.1729 177.872 65.9049 178.152 65.7129 178.512C65.5209 178.872 65.4249 179.284 65.4249 179.748V179.88C65.4249 180.36 65.5289 180.784 65.7369 181.152C65.9529 181.512 66.2489 181.796 66.6249 182.004C67.0089 182.204 67.4449 182.304 67.9329 182.304C68.3169 182.304 68.6729 182.236 69.0009 182.1C69.3369 181.964 69.6249 181.756 69.8649 181.476L70.3449 182.028C70.0649 182.364 69.7129 182.62 69.2889 182.796C68.8729 182.972 68.4129 183.06 67.9089 183.06ZM77.6077 183.06C77.0157 183.06 76.5597 182.9 76.2397 182.58C75.9197 182.26 75.7597 181.808 75.7597 181.224V175.308H76.6117V181.176C76.6117 181.544 76.7037 181.828 76.8877 182.028C77.0797 182.228 77.3517 182.328 77.7037 182.328C78.0797 182.328 78.3917 182.22 78.6397 182.004L78.9397 182.616C78.7717 182.768 78.5677 182.88 78.3277 182.952C78.0957 183.024 77.8557 183.06 77.6077 183.06ZM74.6317 177.408V176.7H78.5317V177.408H74.6317ZM80.4907 183V176.7H81.3067V178.416L81.2227 178.116C81.3987 177.636 81.6947 177.272 82.1107 177.024C82.5267 176.768 83.0427 176.64 83.6587 176.64V177.468C83.6267 177.468 83.5947 177.468 83.5627 177.468C83.5307 177.46 83.4987 177.456 83.4667 177.456C82.8027 177.456 82.2827 177.66 81.9067 178.068C81.5307 178.468 81.3427 179.04 81.3427 179.784V183H80.4907ZM88.6926 183V181.608L88.6566 181.38V179.052C88.6566 178.516 88.5046 178.104 88.2006 177.816C87.9046 177.528 87.4606 177.384 86.8686 177.384C86.4606 177.384 86.0726 177.452 85.7046 177.588C85.3366 177.724 85.0246 177.904 84.7686 178.128L84.3846 177.492C84.7046 177.22 85.0886 177.012 85.5366 176.868C85.9846 176.716 86.4566 176.64 86.9526 176.64C87.7686 176.64 88.3966 176.844 88.8366 177.252C89.2846 177.652 89.5086 178.264 89.5086 179.088V183H88.6926ZM86.5206 183.06C86.0486 183.06 85.6366 182.984 85.2846 182.832C84.9406 182.672 84.6766 182.456 84.4926 182.184C84.3086 181.904 84.2166 181.584 84.2166 181.224C84.2166 180.896 84.2926 180.6 84.4446 180.336C84.6046 180.064 84.8606 179.848 85.2126 179.688C85.5726 179.52 86.0526 179.436 86.6526 179.436H88.8246V180.072H86.6766C86.0686 180.072 85.6446 180.18 85.4046 180.396C85.1726 180.612 85.0566 180.88 85.0566 181.2C85.0566 181.56 85.1966 181.848 85.4766 182.064C85.7566 182.28 86.1486 182.388 86.6526 182.388C87.1326 182.388 87.5446 182.28 87.8886 182.064C88.2406 181.84 88.4966 181.52 88.6566 181.104L88.8486 181.692C88.6886 182.108 88.4086 182.44 88.0086 182.688C87.6166 182.936 87.1206 183.06 86.5206 183.06ZM95.0388 176.64C95.5508 176.64 95.9988 176.74 96.3828 176.94C96.7748 177.132 97.0788 177.428 97.2948 177.828C97.5188 178.228 97.6308 178.732 97.6308 179.34V183H96.7788V179.424C96.7788 178.76 96.6108 178.26 96.2748 177.924C95.9468 177.58 95.4828 177.408 94.8828 177.408C94.4348 177.408 94.0428 177.5 93.7068 177.684C93.3788 177.86 93.1228 178.12 92.9388 178.464C92.7628 178.8 92.6748 179.208 92.6748 179.688V183H91.8228V176.7H92.6388V178.428L92.5068 178.104C92.7068 177.648 93.0268 177.292 93.4668 177.036C93.9068 176.772 94.4308 176.64 95.0388 176.64ZM101.624 183.06C101.104 183.06 100.612 182.988 100.148 182.844C99.6841 182.692 99.3201 182.504 99.0561 182.28L99.4401 181.608C99.6961 181.8 100.024 181.968 100.424 182.112C100.824 182.248 101.244 182.316 101.684 182.316C102.284 182.316 102.716 182.224 102.98 182.04C103.244 181.848 103.376 181.596 103.376 181.284C103.376 181.052 103.3 180.872 103.148 180.744C103.004 180.608 102.812 180.508 102.572 180.444C102.332 180.372 102.064 180.312 101.768 180.264C101.472 180.216 101.176 180.16 100.88 180.096C100.592 180.032 100.328 179.94 100.088 179.82C99.8481 179.692 99.6521 179.52 99.5001 179.304C99.3561 179.088 99.2841 178.8 99.2841 178.44C99.2841 178.096 99.3801 177.788 99.5721 177.516C99.7641 177.244 100.044 177.032 100.412 176.88C100.788 176.72 101.244 176.64 101.78 176.64C102.188 176.64 102.596 176.696 103.004 176.808C103.412 176.912 103.748 177.052 104.012 177.228L103.64 177.912C103.36 177.72 103.06 177.584 102.74 177.504C102.42 177.416 102.1 177.372 101.78 177.372C101.212 177.372 100.792 177.472 100.52 177.672C100.256 177.864 100.124 178.112 100.124 178.416C100.124 178.656 100.196 178.844 100.34 178.98C100.492 179.116 100.688 179.224 100.928 179.304C101.176 179.376 101.444 179.436 101.732 179.484C102.028 179.532 102.32 179.592 102.608 179.664C102.904 179.728 103.172 179.82 103.412 179.94C103.66 180.052 103.856 180.216 104 180.432C104.152 180.64 104.228 180.916 104.228 181.26C104.228 181.628 104.124 181.948 103.916 182.22C103.716 182.484 103.42 182.692 103.028 182.844C102.644 182.988 102.176 183.06 101.624 183.06ZM109.74 183V181.608L109.704 181.38V179.052C109.704 178.516 109.552 178.104 109.248 177.816C108.952 177.528 108.508 177.384 107.916 177.384C107.508 177.384 107.12 177.452 106.752 177.588C106.384 177.724 106.072 177.904 105.816 178.128L105.432 177.492C105.752 177.22 106.136 177.012 106.584 176.868C107.032 176.716 107.504 176.64 108 176.64C108.816 176.64 109.444 176.844 109.884 177.252C110.332 177.652 110.556 178.264 110.556 179.088V183H109.74ZM107.568 183.06C107.096 183.06 106.684 182.984 106.332 182.832C105.988 182.672 105.724 182.456 105.54 182.184C105.356 181.904 105.264 181.584 105.264 181.224C105.264 180.896 105.34 180.6 105.492 180.336C105.652 180.064 105.908 179.848 106.26 179.688C106.62 179.52 107.1 179.436 107.7 179.436H109.872V180.072H107.724C107.116 180.072 106.692 180.18 106.452 180.396C106.22 180.612 106.104 180.88 106.104 181.2C106.104 181.56 106.244 181.848 106.524 182.064C106.804 182.28 107.196 182.388 107.7 182.388C108.18 182.388 108.592 182.28 108.936 182.064C109.288 181.84 109.544 181.52 109.704 181.104L109.896 181.692C109.736 182.108 109.456 182.44 109.056 182.688C108.664 182.936 108.168 183.06 107.568 183.06ZM115.486 183.06C114.862 183.06 114.302 182.924 113.806 182.652C113.318 182.372 112.934 181.992 112.654 181.512C112.374 181.024 112.234 180.468 112.234 179.844C112.234 179.212 112.374 178.656 112.654 178.176C112.934 177.696 113.318 177.32 113.806 177.048C114.302 176.776 114.862 176.64 115.486 176.64C116.022 176.64 116.506 176.744 116.938 176.952C117.37 177.16 117.71 177.472 117.958 177.888L117.322 178.32C117.106 178 116.838 177.764 116.518 177.612C116.198 177.46 115.85 177.384 115.474 177.384C115.026 177.384 114.622 177.488 114.262 177.696C113.902 177.896 113.618 178.18 113.41 178.548C113.202 178.916 113.098 179.348 113.098 179.844C113.098 180.34 113.202 180.772 113.41 181.14C113.618 181.508 113.902 181.796 114.262 182.004C114.622 182.204 115.026 182.304 115.474 182.304C115.85 182.304 116.198 182.228 116.518 182.076C116.838 181.924 117.106 181.692 117.322 181.38L117.958 181.812C117.71 182.22 117.37 182.532 116.938 182.748C116.506 182.956 116.022 183.06 115.486 183.06ZM121.694 183.06C121.102 183.06 120.646 182.9 120.326 182.58C120.006 182.26 119.846 181.808 119.846 181.224V175.308H120.698V181.176C120.698 181.544 120.79 181.828 120.974 182.028C121.166 182.228 121.438 182.328 121.79 182.328C122.166 182.328 122.478 182.22 122.726 182.004L123.026 182.616C122.858 182.768 122.654 182.88 122.414 182.952C122.182 183.024 121.942 183.06 121.694 183.06ZM118.718 177.408V176.7H122.618V177.408H118.718ZM124.577 183V176.7H125.429V183H124.577ZM125.009 175.308C124.833 175.308 124.685 175.248 124.565 175.128C124.445 175.008 124.385 174.864 124.385 174.696C124.385 174.528 124.445 174.388 124.565 174.276C124.685 174.156 124.833 174.096 125.009 174.096C125.185 174.096 125.333 174.152 125.453 174.264C125.573 174.376 125.633 174.516 125.633 174.684C125.633 174.86 125.573 175.008 125.453 175.128C125.341 175.248 125.193 175.308 125.009 175.308ZM130.367 183.06C129.759 183.06 129.211 182.924 128.723 182.652C128.243 182.372 127.863 181.992 127.583 181.512C127.303 181.024 127.163 180.468 127.163 179.844C127.163 179.212 127.303 178.656 127.583 178.176C127.863 177.696 128.243 177.32 128.723 177.048C129.203 176.776 129.751 176.64 130.367 176.64C130.991 176.64 131.543 176.776 132.023 177.048C132.511 177.32 132.891 177.696 133.163 178.176C133.443 178.656 133.583 179.212 133.583 179.844C133.583 180.468 133.443 181.024 133.163 181.512C132.891 181.992 132.511 182.372 132.023 182.652C131.535 182.924 130.983 183.06 130.367 183.06ZM130.367 182.304C130.823 182.304 131.227 182.204 131.579 182.004C131.931 181.796 132.207 181.508 132.407 181.14C132.615 180.764 132.719 180.332 132.719 179.844C132.719 179.348 132.615 178.916 132.407 178.548C132.207 178.18 131.931 177.896 131.579 177.696C131.227 177.488 130.827 177.384 130.379 177.384C129.931 177.384 129.531 177.488 129.179 177.696C128.827 177.896 128.547 178.18 128.339 178.548C128.131 178.916 128.027 179.348 128.027 179.844C128.027 180.332 128.131 180.764 128.339 181.14C128.547 181.508 128.827 181.796 129.179 182.004C129.531 182.204 129.927 182.304 130.367 182.304ZM138.539 176.64C139.051 176.64 139.499 176.74 139.883 176.94C140.275 177.132 140.579 177.428 140.795 177.828C141.019 178.228 141.131 178.732 141.131 179.34V183H140.279V179.424C140.279 178.76 140.111 178.26 139.775 177.924C139.447 177.58 138.983 177.408 138.383 177.408C137.935 177.408 137.543 177.5 137.207 177.684C136.879 177.86 136.623 178.12 136.439 178.464C136.263 178.8 136.175 179.208 136.175 179.688V183H135.323V176.7H136.139V178.428L136.007 178.104C136.207 177.648 136.527 177.292 136.967 177.036C137.407 176.772 137.931 176.64 138.539 176.64ZM145.124 183.06C144.604 183.06 144.112 182.988 143.648 182.844C143.184 182.692 142.82 182.504 142.556 182.28L142.94 181.608C143.196 181.8 143.524 181.968 143.924 182.112C144.324 182.248 144.744 182.316 145.184 182.316C145.784 182.316 146.216 182.224 146.48 182.04C146.744 181.848 146.876 181.596 146.876 181.284C146.876 181.052 146.8 180.872 146.648 180.744C146.504 180.608 146.312 180.508 146.072 180.444C145.832 180.372 145.564 180.312 145.268 180.264C144.972 180.216 144.676 180.16 144.38 180.096C144.092 180.032 143.828 179.94 143.588 179.82C143.348 179.692 143.152 179.52 143 179.304C142.856 179.088 142.784 178.8 142.784 178.44C142.784 178.096 142.88 177.788 143.072 177.516C143.264 177.244 143.544 177.032 143.912 176.88C144.288 176.72 144.744 176.64 145.28 176.64C145.688 176.64 146.096 176.696 146.504 176.808C146.912 176.912 147.248 177.052 147.512 177.228L147.14 177.912C146.86 177.72 146.56 177.584 146.24 177.504C145.92 177.416 145.6 177.372 145.28 177.372C144.712 177.372 144.292 177.472 144.02 177.672C143.756 177.864 143.624 178.112 143.624 178.416C143.624 178.656 143.696 178.844 143.84 178.98C143.992 179.116 144.188 179.224 144.428 179.304C144.676 179.376 144.944 179.436 145.232 179.484C145.528 179.532 145.82 179.592 146.108 179.664C146.404 179.728 146.672 179.82 146.912 179.94C147.16 180.052 147.356 180.216 147.5 180.432C147.652 180.64 147.728 180.916 147.728 181.26C147.728 181.628 147.624 181.948 147.416 182.22C147.216 182.484 146.92 182.692 146.528 182.844C146.144 182.988 145.676 183.06 145.124 183.06ZM155 183.06C154.392 183.06 153.844 182.924 153.356 182.652C152.876 182.372 152.496 181.992 152.216 181.512C151.936 181.024 151.796 180.468 151.796 179.844C151.796 179.212 151.936 178.656 152.216 178.176C152.496 177.696 152.876 177.32 153.356 177.048C153.836 176.776 154.384 176.64 155 176.64C155.624 176.64 156.176 176.776 156.656 177.048C157.144 177.32 157.524 177.696 157.796 178.176C158.076 178.656 158.216 179.212 158.216 179.844C158.216 180.468 158.076 181.024 157.796 181.512C157.524 181.992 157.144 182.372 156.656 182.652C156.168 182.924 155.616 183.06 155 183.06ZM155 182.304C155.456 182.304 155.86 182.204 156.212 182.004C156.564 181.796 156.84 181.508 157.04 181.14C157.248 180.764 157.352 180.332 157.352 179.844C157.352 179.348 157.248 178.916 157.04 178.548C156.84 178.18 156.564 177.896 156.212 177.696C155.86 177.488 155.46 177.384 155.012 177.384C154.564 177.384 154.164 177.488 153.812 177.696C153.46 177.896 153.18 178.18 152.972 178.548C152.764 178.916 152.66 179.348 152.66 179.844C152.66 180.332 152.764 180.764 152.972 181.14C153.18 181.508 153.46 181.796 153.812 182.004C154.164 182.204 154.56 182.304 155 182.304ZM159.956 183V176.7H160.772V178.416L160.688 178.116C160.864 177.636 161.16 177.272 161.576 177.024C161.992 176.768 162.508 176.64 163.124 176.64V177.468C163.092 177.468 163.06 177.468 163.028 177.468C162.996 177.46 162.964 177.456 162.932 177.456C162.268 177.456 161.748 177.66 161.372 178.068C160.996 178.468 160.808 179.04 160.808 179.784V183H159.956ZM170.517 183.06C169.981 183.06 169.513 182.96 169.113 182.76C168.713 182.56 168.401 182.26 168.177 181.86C167.961 181.46 167.853 180.96 167.853 180.36V176.7H168.705V180.264C168.705 180.936 168.869 181.444 169.197 181.788C169.533 182.124 170.001 182.292 170.601 182.292C171.041 182.292 171.421 182.204 171.741 182.028C172.069 181.844 172.317 181.58 172.485 181.236C172.661 180.892 172.749 180.48 172.749 180V176.7H173.601V183H172.785V181.272L172.917 181.584C172.717 182.048 172.405 182.412 171.981 182.676C171.565 182.932 171.077 183.06 170.517 183.06ZM179.227 183.06C178.683 183.06 178.191 182.936 177.751 182.688C177.311 182.432 176.959 182.068 176.695 181.596C176.439 181.116 176.311 180.532 176.311 179.844C176.311 179.156 176.439 178.576 176.695 178.104C176.951 177.624 177.299 177.26 177.739 177.012C178.179 176.764 178.675 176.64 179.227 176.64C179.827 176.64 180.363 176.776 180.835 177.048C181.315 177.312 181.691 177.688 181.963 178.176C182.235 178.656 182.371 179.212 182.371 179.844C182.371 180.484 182.235 181.044 181.963 181.524C181.691 182.004 181.315 182.38 180.835 182.652C180.363 182.924 179.827 183.06 179.227 183.06ZM175.975 185.328V176.7H176.791V178.596L176.707 179.856L176.827 181.128V185.328H175.975ZM179.167 182.304C179.615 182.304 180.015 182.204 180.367 182.004C180.719 181.796 180.999 181.508 181.207 181.14C181.415 180.764 181.519 180.332 181.519 179.844C181.519 179.356 181.415 178.928 181.207 178.56C180.999 178.192 180.719 177.904 180.367 177.696C180.015 177.488 179.615 177.384 179.167 177.384C178.719 177.384 178.315 177.488 177.955 177.696C177.603 177.904 177.323 178.192 177.115 178.56C176.915 178.928 176.815 179.356 176.815 179.844C176.815 180.332 176.915 180.764 177.115 181.14C177.323 181.508 177.603 181.796 177.955 182.004C178.315 182.204 178.719 182.304 179.167 182.304ZM186.616 183.06C186.016 183.06 185.476 182.924 184.996 182.652C184.524 182.38 184.152 182.004 183.88 181.524C183.608 181.036 183.472 180.476 183.472 179.844C183.472 179.204 183.608 178.644 183.88 178.164C184.152 177.684 184.524 177.312 184.996 177.048C185.476 176.776 186.016 176.64 186.616 176.64C187.168 176.64 187.66 176.764 188.092 177.012C188.532 177.26 188.88 177.624 189.136 178.104C189.4 178.576 189.532 179.156 189.532 179.844C189.532 180.524 189.404 181.104 189.148 181.584C188.892 182.064 188.544 182.432 188.104 182.688C187.672 182.936 187.176 183.06 186.616 183.06ZM186.676 182.304C187.124 182.304 187.524 182.204 187.876 182.004C188.236 181.796 188.516 181.508 188.716 181.14C188.924 180.764 189.028 180.332 189.028 179.844C189.028 179.348 188.924 178.916 188.716 178.548C188.516 178.18 188.236 177.896 187.876 177.696C187.524 177.488 187.124 177.384 186.676 177.384C186.236 177.384 185.84 177.488 185.488 177.696C185.136 177.896 184.856 178.18 184.648 178.548C184.44 178.916 184.336 179.348 184.336 179.844C184.336 180.332 184.44 180.764 184.648 181.14C184.856 181.508 185.136 181.796 185.488 182.004C185.84 182.204 186.236 182.304 186.676 182.304ZM189.052 183V181.104L189.136 179.832L189.016 178.56V174.096H189.868V183H189.052ZM196.189 183V181.608L196.153 181.38V179.052C196.153 178.516 196.001 178.104 195.697 177.816C195.401 177.528 194.957 177.384 194.365 177.384C193.957 177.384 193.569 177.452 193.201 177.588C192.833 177.724 192.521 177.904 192.265 178.128L191.881 177.492C192.201 177.22 192.585 177.012 193.033 176.868C193.481 176.716 193.953 176.64 194.449 176.64C195.265 176.64 195.893 176.844 196.333 177.252C196.781 177.652 197.005 178.264 197.005 179.088V183H196.189ZM194.017 183.06C193.545 183.06 193.133 182.984 192.781 182.832C192.437 182.672 192.173 182.456 191.989 182.184C191.805 181.904 191.713 181.584 191.713 181.224C191.713 180.896 191.789 180.6 191.941 180.336C192.101 180.064 192.357 179.848 192.709 179.688C193.069 179.52 193.549 179.436 194.149 179.436H196.321V180.072H194.173C193.565 180.072 193.141 180.18 192.901 180.396C192.669 180.612 192.553 180.88 192.553 181.2C192.553 181.56 192.693 181.848 192.973 182.064C193.253 182.28 193.645 182.388 194.149 182.388C194.629 182.388 195.041 182.28 195.385 182.064C195.737 181.84 195.993 181.52 196.153 181.104L196.345 181.692C196.185 182.108 195.905 182.44 195.505 182.688C195.113 182.936 194.617 183.06 194.017 183.06ZM201.311 183.06C200.719 183.06 200.263 182.9 199.943 182.58C199.623 182.26 199.463 181.808 199.463 181.224V175.308H200.315V181.176C200.315 181.544 200.407 181.828 200.591 182.028C200.783 182.228 201.055 182.328 201.407 182.328C201.783 182.328 202.095 182.22 202.343 182.004L202.643 182.616C202.475 182.768 202.271 182.88 202.031 182.952C201.799 183.024 201.559 183.06 201.311 183.06ZM198.335 177.408V176.7H202.235V177.408H198.335ZM206.647 183.06C205.991 183.06 205.415 182.924 204.919 182.652C204.423 182.372 204.035 181.992 203.755 181.512C203.475 181.024 203.335 180.468 203.335 179.844C203.335 179.22 203.467 178.668 203.731 178.188C204.003 177.708 204.371 177.332 204.835 177.06C205.307 176.78 205.835 176.64 206.419 176.64C207.011 176.64 207.535 176.776 207.991 177.048C208.455 177.312 208.819 177.688 209.083 178.176C209.347 178.656 209.479 179.212 209.479 179.844C209.479 179.884 209.475 179.928 209.467 179.976C209.467 180.016 209.467 180.06 209.467 180.108H203.983V179.472H209.011L208.675 179.724C208.675 179.268 208.575 178.864 208.375 178.512C208.183 178.152 207.919 177.872 207.583 177.672C207.247 177.472 206.859 177.372 206.419 177.372C205.987 177.372 205.599 177.472 205.255 177.672C204.911 177.872 204.643 178.152 204.451 178.512C204.259 178.872 204.163 179.284 204.163 179.748V179.88C204.163 180.36 204.267 180.784 204.475 181.152C204.691 181.512 204.987 181.796 205.363 182.004C205.747 182.204 206.183 182.304 206.671 182.304C207.055 182.304 207.411 182.236 207.739 182.1C208.075 181.964 208.363 181.756 208.603 181.476L209.083 182.028C208.803 182.364 208.451 182.62 208.027 182.796C207.611 182.972 207.151 183.06 206.647 183.06ZM212.905 183.06C212.385 183.06 211.893 182.988 211.429 182.844C210.965 182.692 210.601 182.504 210.337 182.28L210.721 181.608C210.977 181.8 211.305 181.968 211.705 182.112C212.105 182.248 212.525 182.316 212.965 182.316C213.565 182.316 213.997 182.224 214.261 182.04C214.525 181.848 214.657 181.596 214.657 181.284C214.657 181.052 214.581 180.872 214.429 180.744C214.285 180.608 214.093 180.508 213.853 180.444C213.613 180.372 213.345 180.312 213.049 180.264C212.753 180.216 212.457 180.16 212.161 180.096C211.873 180.032 211.609 179.94 211.369 179.82C211.129 179.692 210.933 179.52 210.781 179.304C210.637 179.088 210.565 178.8 210.565 178.44C210.565 178.096 210.661 177.788 210.853 177.516C211.045 177.244 211.325 177.032 211.693 176.88C212.069 176.72 212.525 176.64 213.061 176.64C213.469 176.64 213.877 176.696 214.285 176.808C214.693 176.912 215.029 177.052 215.293 177.228L214.921 177.912C214.641 177.72 214.341 177.584 214.021 177.504C213.701 177.416 213.381 177.372 213.061 177.372C212.493 177.372 212.073 177.472 211.801 177.672C211.537 177.864 211.405 178.112 211.405 178.416C211.405 178.656 211.477 178.844 211.621 178.98C211.773 179.116 211.969 179.224 212.209 179.304C212.457 179.376 212.725 179.436 213.013 179.484C213.309 179.532 213.601 179.592 213.889 179.664C214.185 179.728 214.453 179.82 214.693 179.94C214.941 180.052 215.137 180.216 215.281 180.432C215.433 180.64 215.509 180.916 215.509 181.26C215.509 181.628 215.405 181.948 215.197 182.22C214.997 182.484 214.701 182.692 214.309 182.844C213.925 182.988 213.457 183.06 212.905 183.06ZM224.161 183V181.608L224.125 181.38V179.052C224.125 178.516 223.973 178.104 223.669 177.816C223.373 177.528 222.929 177.384 222.337 177.384C221.929 177.384 221.541 177.452 221.173 177.588C220.805 177.724 220.493 177.904 220.237 178.128L219.853 177.492C220.173 177.22 220.557 177.012 221.005 176.868C221.453 176.716 221.925 176.64 222.421 176.64C223.237 176.64 223.865 176.844 224.305 177.252C224.753 177.652 224.977 178.264 224.977 179.088V183H224.161ZM221.989 183.06C221.517 183.06 221.105 182.984 220.753 182.832C220.409 182.672 220.145 182.456 219.961 182.184C219.777 181.904 219.685 181.584 219.685 181.224C219.685 180.896 219.761 180.6 219.913 180.336C220.073 180.064 220.329 179.848 220.681 179.688C221.041 179.52 221.521 179.436 222.121 179.436H224.293V180.072H222.145C221.537 180.072 221.113 180.18 220.873 180.396C220.641 180.612 220.525 180.88 220.525 181.2C220.525 181.56 220.665 181.848 220.945 182.064C221.225 182.28 221.617 182.388 222.121 182.388C222.601 182.388 223.013 182.28 223.357 182.064C223.709 181.84 223.965 181.52 224.125 181.104L224.317 181.692C224.157 182.108 223.877 182.44 223.477 182.688C223.085 182.936 222.589 183.06 221.989 183.06ZM227.292 183V176.7H228.108V178.416L228.024 178.116C228.2 177.636 228.496 177.272 228.912 177.024C229.328 176.768 229.844 176.64 230.46 176.64V177.468C230.428 177.468 230.396 177.468 230.364 177.468C230.332 177.46 230.3 177.456 230.268 177.456C229.604 177.456 229.084 177.66 228.708 178.068C228.332 178.468 228.144 179.04 228.144 179.784V183H227.292ZM234.632 183.06C233.976 183.06 233.4 182.924 232.904 182.652C232.408 182.372 232.02 181.992 231.74 181.512C231.46 181.024 231.32 180.468 231.32 179.844C231.32 179.22 231.452 178.668 231.716 178.188C231.988 177.708 232.356 177.332 232.82 177.06C233.292 176.78 233.82 176.64 234.404 176.64C234.996 176.64 235.52 176.776 235.976 177.048C236.44 177.312 236.804 177.688 237.068 178.176C237.332 178.656 237.464 179.212 237.464 179.844C237.464 179.884 237.46 179.928 237.452 179.976C237.452 180.016 237.452 180.06 237.452 180.108H231.968V179.472H236.996L236.66 179.724C236.66 179.268 236.56 178.864 236.36 178.512C236.168 178.152 235.904 177.872 235.568 177.672C235.232 177.472 234.844 177.372 234.404 177.372C233.972 177.372 233.584 177.472 233.24 177.672C232.896 177.872 232.628 178.152 232.436 178.512C232.244 178.872 232.148 179.284 232.148 179.748V179.88C232.148 180.36 232.252 180.784 232.46 181.152C232.676 181.512 232.972 181.796 233.348 182.004C233.732 182.204 234.168 182.304 234.656 182.304C235.04 182.304 235.396 182.236 235.724 182.1C236.06 181.964 236.348 181.756 236.588 181.476L237.068 182.028C236.788 182.364 236.436 182.62 236.012 182.796C235.596 182.972 235.136 183.06 234.632 183.06ZM242.338 183V174.096H243.19V183H242.338ZM248.129 183.06C247.521 183.06 246.973 182.924 246.485 182.652C246.005 182.372 245.625 181.992 245.345 181.512C245.065 181.024 244.925 180.468 244.925 179.844C244.925 179.212 245.065 178.656 245.345 178.176C245.625 177.696 246.005 177.32 246.485 177.048C246.965 176.776 247.513 176.64 248.129 176.64C248.753 176.64 249.305 176.776 249.785 177.048C250.273 177.32 250.653 177.696 250.925 178.176C251.205 178.656 251.345 179.212 251.345 179.844C251.345 180.468 251.205 181.024 250.925 181.512C250.653 181.992 250.273 182.372 249.785 182.652C249.297 182.924 248.745 183.06 248.129 183.06ZM248.129 182.304C248.585 182.304 248.989 182.204 249.341 182.004C249.693 181.796 249.969 181.508 250.169 181.14C250.377 180.764 250.481 180.332 250.481 179.844C250.481 179.348 250.377 178.916 250.169 178.548C249.969 178.18 249.693 177.896 249.341 177.696C248.989 177.488 248.589 177.384 248.141 177.384C247.693 177.384 247.293 177.488 246.941 177.696C246.589 177.896 246.309 178.18 246.101 178.548C245.893 178.916 245.789 179.348 245.789 179.844C245.789 180.332 245.893 180.764 246.101 181.14C246.309 181.508 246.589 181.796 246.941 182.004C247.293 182.204 247.689 182.304 248.129 182.304ZM255.772 185.388C255.196 185.388 254.644 185.304 254.116 185.136C253.588 184.968 253.16 184.728 252.832 184.416L253.264 183.768C253.56 184.032 253.924 184.24 254.356 184.392C254.796 184.552 255.26 184.632 255.748 184.632C256.548 184.632 257.136 184.444 257.512 184.068C257.888 183.7 258.076 183.124 258.076 182.34V180.768L258.196 179.688L258.112 178.608V176.7H258.928V182.232C258.928 183.32 258.66 184.116 258.124 184.62C257.596 185.132 256.812 185.388 255.772 185.388ZM255.616 182.76C255.016 182.76 254.476 182.632 253.996 182.376C253.516 182.112 253.136 181.748 252.856 181.284C252.584 180.82 252.448 180.288 252.448 179.688C252.448 179.088 252.584 178.56 252.856 178.104C253.136 177.64 253.516 177.28 253.996 177.024C254.476 176.768 255.016 176.64 255.616 176.64C256.176 176.64 256.68 176.756 257.128 176.988C257.576 177.22 257.932 177.564 258.196 178.02C258.46 178.476 258.592 179.032 258.592 179.688C258.592 180.344 258.46 180.9 258.196 181.356C257.932 181.812 257.576 182.16 257.128 182.4C256.68 182.64 256.176 182.76 255.616 182.76ZM255.7 182.004C256.164 182.004 256.576 181.908 256.936 181.716C257.296 181.516 257.58 181.244 257.788 180.9C257.996 180.548 258.1 180.144 258.1 179.688C258.1 179.232 257.996 178.832 257.788 178.488C257.58 178.144 257.296 177.876 256.936 177.684C256.576 177.484 256.164 177.384 255.7 177.384C255.244 177.384 254.832 177.484 254.464 177.684C254.104 177.876 253.82 178.144 253.612 178.488C253.412 178.832 253.312 179.232 253.312 179.688C253.312 180.144 253.412 180.548 253.612 180.9C253.82 181.244 254.104 181.516 254.464 181.716C254.832 181.908 255.244 182.004 255.7 182.004ZM263.987 185.388C263.411 185.388 262.859 185.304 262.331 185.136C261.803 184.968 261.375 184.728 261.047 184.416L261.479 183.768C261.775 184.032 262.139 184.24 262.571 184.392C263.011 184.552 263.475 184.632 263.963 184.632C264.763 184.632 265.351 184.444 265.727 184.068C266.103 183.7 266.291 183.124 266.291 182.34V180.768L266.411 179.688L266.327 178.608V176.7H267.143V182.232C267.143 183.32 266.875 184.116 266.339 184.62C265.811 185.132 265.027 185.388 263.987 185.388ZM263.831 182.76C263.231 182.76 262.691 182.632 262.211 182.376C261.731 182.112 261.351 181.748 261.071 181.284C260.799 180.82 260.663 180.288 260.663 179.688C260.663 179.088 260.799 178.56 261.071 178.104C261.351 177.64 261.731 177.28 262.211 177.024C262.691 176.768 263.231 176.64 263.831 176.64C264.391 176.64 264.895 176.756 265.343 176.988C265.791 177.22 266.147 177.564 266.411 178.02C266.675 178.476 266.807 179.032 266.807 179.688C266.807 180.344 266.675 180.9 266.411 181.356C266.147 181.812 265.791 182.16 265.343 182.4C264.895 182.64 264.391 182.76 263.831 182.76ZM263.915 182.004C264.379 182.004 264.791 181.908 265.151 181.716C265.511 181.516 265.795 181.244 266.003 180.9C266.211 180.548 266.315 180.144 266.315 179.688C266.315 179.232 266.211 178.832 266.003 178.488C265.795 178.144 265.511 177.876 265.151 177.684C264.791 177.484 264.379 177.384 263.915 177.384C263.459 177.384 263.047 177.484 262.679 177.684C262.319 177.876 262.035 178.144 261.827 178.488C261.627 178.832 261.527 179.232 261.527 179.688C261.527 180.144 261.627 180.548 261.827 180.9C262.035 181.244 262.319 181.516 262.679 181.716C263.047 181.908 263.459 182.004 263.915 182.004ZM272.19 183.06C271.534 183.06 270.958 182.924 270.462 182.652C269.966 182.372 269.578 181.992 269.298 181.512C269.018 181.024 268.878 180.468 268.878 179.844C268.878 179.22 269.01 178.668 269.274 178.188C269.546 177.708 269.914 177.332 270.378 177.06C270.85 176.78 271.378 176.64 271.962 176.64C272.554 176.64 273.078 176.776 273.534 177.048C273.998 177.312 274.362 177.688 274.626 178.176C274.89 178.656 275.022 179.212 275.022 179.844C275.022 179.884 275.018 179.928 275.01 179.976C275.01 180.016 275.01 180.06 275.01 180.108H269.526V179.472H274.554L274.218 179.724C274.218 179.268 274.118 178.864 273.918 178.512C273.726 178.152 273.462 177.872 273.126 177.672C272.79 177.472 272.402 177.372 271.962 177.372C271.53 177.372 271.142 177.472 270.798 177.672C270.454 177.872 270.186 178.152 269.994 178.512C269.802 178.872 269.706 179.284 269.706 179.748V179.88C269.706 180.36 269.81 180.784 270.018 181.152C270.234 181.512 270.53 181.796 270.906 182.004C271.29 182.204 271.726 182.304 272.214 182.304C272.598 182.304 272.954 182.236 273.282 182.1C273.618 181.964 273.906 181.756 274.146 181.476L274.626 182.028C274.346 182.364 273.994 182.62 273.57 182.796C273.154 182.972 272.694 183.06 272.19 183.06ZM279.264 183.06C278.664 183.06 278.124 182.924 277.644 182.652C277.172 182.38 276.8 182.004 276.528 181.524C276.256 181.036 276.12 180.476 276.12 179.844C276.12 179.204 276.256 178.644 276.528 178.164C276.8 177.684 277.172 177.312 277.644 177.048C278.124 176.776 278.664 176.64 279.264 176.64C279.816 176.64 280.308 176.764 280.74 177.012C281.18 177.26 281.528 177.624 281.784 178.104C282.048 178.576 282.18 179.156 282.18 179.844C282.18 180.524 282.052 181.104 281.796 181.584C281.54 182.064 281.192 182.432 280.752 182.688C280.32 182.936 279.824 183.06 279.264 183.06ZM279.324 182.304C279.772 182.304 280.172 182.204 280.524 182.004C280.884 181.796 281.164 181.508 281.364 181.14C281.572 180.764 281.676 180.332 281.676 179.844C281.676 179.348 281.572 178.916 281.364 178.548C281.164 178.18 280.884 177.896 280.524 177.696C280.172 177.488 279.772 177.384 279.324 177.384C278.884 177.384 278.488 177.488 278.136 177.696C277.784 177.896 277.504 178.18 277.296 178.548C277.088 178.916 276.984 179.348 276.984 179.844C276.984 180.332 277.088 180.764 277.296 181.14C277.504 181.508 277.784 181.796 278.136 182.004C278.488 182.204 278.884 182.304 279.324 182.304ZM281.7 183V181.104L281.784 179.832L281.664 178.56V174.096H282.516V183H281.7ZM284.973 183.06C284.797 183.06 284.645 182.996 284.517 182.868C284.397 182.74 284.337 182.584 284.337 182.4C284.337 182.208 284.397 182.052 284.517 181.932C284.645 181.812 284.797 181.752 284.973 181.752C285.149 181.752 285.297 181.812 285.417 181.932C285.545 182.052 285.609 182.208 285.609 182.4C285.609 182.584 285.545 182.74 285.417 182.868C285.297 182.996 285.149 183.06 284.973 183.06Z" fill="#2D3439"/>
<g clip-path="url(#clip0_2716_9378)">
<path d="M91.4797 25.9607C89.4069 25.9607 87.3806 25.346 85.6571 24.1944C83.9336 23.0429 82.5903 21.406 81.7971 19.491C81.0039 17.576 80.7963 15.4687 81.2007 13.4357C81.6051 11.4027 82.6033 9.53533 84.069 8.06963C85.5347 6.60392 87.4021 5.60577 89.4351 5.20138C91.4681 4.797 93.5753 5.00454 95.4903 5.79777C97.4054 6.59101 99.0422 7.9343 100.194 9.65778C101.345 11.3813 101.96 13.4075 101.96 15.4804C101.957 18.259 100.852 20.9228 98.8869 22.8876C96.9222 24.8524 94.2583 25.9576 91.4797 25.9607ZM91.4797 5.43669C89.4932 5.43669 87.5514 6.02574 85.8997 7.12935C84.248 8.23296 82.9607 9.80157 82.2005 11.6368C81.4404 13.472 81.2415 15.4915 81.629 17.4398C82.0165 19.3881 82.9731 21.1777 84.3777 22.5823C85.7824 23.9869 87.572 24.9435 89.5203 25.331C91.4685 25.7186 93.488 25.5197 95.3232 24.7595C97.1585 23.9993 98.7271 22.712 99.8307 21.0603C100.934 19.4086 101.523 17.4668 101.523 15.4804C101.52 12.8175 100.461 10.2646 98.5783 8.38174C96.6954 6.49884 94.1425 5.43971 91.4797 5.43669Z" fill="#F2F2F2"/>
<path d="M162.659 19.8475C161.622 19.8475 160.609 19.5402 159.747 18.9644C158.886 18.3886 158.214 17.5702 157.817 16.6127C157.421 15.6552 157.317 14.6016 157.519 13.5851C157.721 12.5686 158.22 11.6349 158.953 10.902C159.686 10.1691 160.62 9.67007 161.636 9.46788C162.653 9.26569 163.707 9.36946 164.664 9.76607C165.622 10.1627 166.44 10.8343 167.016 11.6961C167.592 12.5578 167.899 13.571 167.899 14.6074C167.897 15.9967 167.345 17.3286 166.362 18.311C165.38 19.2934 164.048 19.846 162.659 19.8475ZM162.659 9.80387C161.709 9.80387 160.78 10.0856 159.99 10.6134C159.2 11.1412 158.584 11.8914 158.221 12.7691C157.857 13.6469 157.762 14.6127 157.947 15.5445C158.133 16.4763 158.59 17.3322 159.262 18.0039C159.934 18.6757 160.79 19.1332 161.722 19.3186C162.653 19.5039 163.619 19.4088 164.497 19.0452C165.375 18.6816 166.125 18.066 166.653 17.276C167.18 16.4861 167.462 15.5574 167.462 14.6074C167.461 13.3338 166.954 12.1129 166.054 11.2124C165.153 10.3119 163.932 9.80531 162.659 9.80387Z" fill="#F2F2F2"/>
<path d="M199.558 45.3929C198.392 45.3929 197.253 45.0472 196.283 44.3994C195.314 43.7516 194.558 42.8309 194.112 41.7537C193.666 40.6765 193.549 39.4912 193.776 38.3476C194.004 37.2041 194.565 36.1537 195.39 35.3292C196.214 34.5047 197.265 33.9433 198.408 33.7158C199.552 33.4883 200.737 33.6051 201.814 34.0513C202.891 34.4975 203.812 35.2531 204.46 36.2225C205.108 37.192 205.453 38.3318 205.453 39.4977C205.452 41.0607 204.83 42.5591 203.725 43.6643C202.62 44.7695 201.121 45.3912 199.558 45.3929ZM199.558 34.0392C198.479 34.0392 197.423 34.3594 196.526 34.9591C195.628 35.5589 194.928 36.4114 194.515 37.4089C194.102 38.4063 193.994 39.5038 194.205 40.5626C194.415 41.6215 194.935 42.5941 195.699 43.3575C196.462 44.1209 197.435 44.6407 198.493 44.8514C199.552 45.062 200.65 44.9539 201.647 44.5407C202.645 44.1276 203.497 43.428 204.097 42.5303C204.697 41.6327 205.017 40.5773 205.017 39.4977C205.015 38.0505 204.44 36.6631 203.416 35.6398C202.393 34.6165 201.005 34.0408 199.558 34.0392Z" fill="#F2F2F2"/>
<path d="M247.387 105H198.261C198.203 105 198.147 104.977 198.106 104.936C198.065 104.895 198.042 104.84 198.042 104.782C198.042 104.724 198.065 104.668 198.106 104.627C198.147 104.586 198.203 104.563 198.261 104.563H247.387C247.445 104.563 247.501 104.586 247.542 104.627C247.583 104.668 247.606 104.724 247.606 104.782C247.606 104.84 247.583 104.895 247.542 104.936C247.501 104.977 247.445 105 247.387 105Z" fill="#CCCCCC"/>
<path d="M220.938 38.4597C223.899 38.4597 226.3 36.0588 226.3 33.097C226.3 30.1353 223.899 27.7344 220.938 27.7344C217.976 27.7344 215.575 30.1353 215.575 33.097C215.575 36.0588 217.976 38.4597 220.938 38.4597Z" fill="#FFB8B8"/>
<path d="M221.494 96.7784L218.959 97.6391L214.432 88.2725L218.173 87.002L221.494 96.7784Z" fill="#FFB8B8"/>
<path d="M216.903 97.5298L221.791 95.8695L222.836 98.9473L214.871 101.653C214.733 101.249 214.677 100.821 214.705 100.396C214.733 99.9696 214.844 99.5533 215.033 99.1705C215.222 98.7876 215.484 98.4457 215.805 98.1642C216.126 97.8827 216.499 97.6671 216.903 97.5298Z" fill="#2F2E41"/>
<path d="M227.221 102.069L224.547 102.203L222.757 91.9553L226.703 91.7568L227.221 102.069Z" fill="#FFB8B8"/>
<path d="M222.599 101.535L227.755 101.276L227.918 104.522L219.516 104.945C219.495 104.518 219.558 104.092 219.701 103.69C219.844 103.288 220.065 102.918 220.352 102.601C220.638 102.285 220.984 102.028 221.369 101.845C221.755 101.662 222.173 101.557 222.599 101.535Z" fill="#2F2E41"/>
<path d="M211.311 68.0197C211.551 67.8062 211.741 67.5428 211.868 67.248C211.995 66.9532 212.056 66.6341 212.046 66.3133C212.036 65.9924 211.956 65.6776 211.812 65.3911C211.667 65.1045 211.462 64.8531 211.209 64.6546L213.758 57.2803L209.83 58.2841L208.012 65.133C207.706 65.5788 207.575 66.1212 207.643 66.6573C207.711 67.1935 207.973 67.6861 208.379 68.042C208.786 68.3978 209.309 68.592 209.85 68.5879C210.39 68.5838 210.91 68.3816 211.311 68.0197Z" fill="#FFB8B8"/>
<path d="M226.971 98.9788C226.936 98.9788 226.902 98.9769 226.867 98.9733L223.239 98.5891C223.016 98.5666 222.807 98.4681 222.648 98.3101C222.489 98.1521 222.389 97.9443 222.366 97.7215L219.561 72.7193L217.532 79.561L221.315 93.0071C221.354 93.144 221.362 93.2877 221.34 93.4282C221.317 93.5687 221.265 93.7026 221.185 93.8207C221.106 93.9388 221.002 94.0383 220.881 94.1123C220.759 94.1863 220.623 94.2331 220.482 94.2493L216.803 94.6722C216.569 94.6981 216.333 94.6393 216.138 94.5066C215.944 94.3738 215.803 94.1758 215.741 93.9483L211.722 78.8167C211.689 78.6923 211.681 78.5626 211.698 78.435L213.504 64.8545L226.979 65.935L227.953 97.9663C227.957 98.0977 227.935 98.2287 227.887 98.3514C227.84 98.474 227.768 98.5859 227.676 98.6803C227.585 98.7748 227.475 98.8499 227.354 98.9011C227.233 98.9524 227.103 98.9788 226.971 98.9788Z" fill="#2F2E41"/>
<path d="M222.313 68.2575C217.799 68.2575 212.688 66.5132 212.378 66.4061L212.289 66.3751L217.381 40.2432L217.475 40.247C219.493 40.3289 225.001 40.3709 225.056 40.3713L225.155 40.3721L227.278 63.4329L227.658 66.806L227.611 66.8436C226.312 67.8935 224.375 68.2575 222.313 68.2575Z" fill="#6674C5"/>
<path d="M214.158 65.999L210.972 64.7159L212.596 45.0775C212.635 44.5934 212.782 44.1242 213.027 43.7046C213.271 43.285 213.607 42.9257 214.009 42.6532L215.686 41.5124C215.638 41.3512 215.63 41.1809 215.661 41.0157C215.692 40.8505 215.762 40.695 215.865 40.5621C215.967 40.4291 216.1 40.3224 216.252 40.2508C216.405 40.1792 216.571 40.1447 216.739 40.1501L217.22 40.1655C217.311 40.104 217.419 40.0715 217.529 40.0723C217.639 40.0731 217.746 40.1071 217.836 40.1699C217.927 40.2327 217.996 40.3214 218.035 40.4243C218.074 40.5272 218.081 40.6395 218.055 40.7465L217.95 42.8271L214.158 65.999Z" fill="#2F2E41"/>
<path d="M212.55 62.4779L208.391 62.3028L209.738 53.6363L210.855 45.4816C210.877 45.1887 210.965 44.9047 211.112 44.6506C211.259 44.3965 211.462 44.1789 211.705 44.0142C211.948 43.8495 212.225 43.7418 212.516 43.6993C212.806 43.6567 213.102 43.6804 213.383 43.7685C213.819 43.9054 214.193 44.1915 214.44 44.5766C214.686 44.9618 214.789 45.4214 214.731 45.8749L213.6 54.7105L212.55 62.4779Z" fill="#2F2E41"/>
<path d="M219.136 66.2997L219.107 66.2122C219.088 66.1523 217.214 60.1398 220.35 52.9651L221.923 45.1429L223.267 40.2313C223.292 40.1435 223.337 40.0628 223.399 39.9956C223.461 39.9284 223.538 39.8766 223.623 39.8442C223.723 39.8095 223.832 39.805 223.935 39.8315C224.037 39.8579 224.13 39.914 224.201 39.9928C225.138 39.7178 226.145 39.8185 227.009 40.2735L228.897 41.2678C229.316 41.4889 229.651 41.843 229.848 42.2746C230.044 42.7062 230.092 43.1909 229.984 43.6528L227.404 54.6621L228.659 64.9454L219.136 66.2997Z" fill="#2F2E41"/>
<path d="M221.882 62.0602C222.202 62.0949 222.524 62.0591 222.828 61.9555C223.132 61.8519 223.409 61.683 223.641 61.4606C223.872 61.2381 224.052 60.9677 224.168 60.6683C224.283 60.3688 224.332 60.0477 224.31 59.7274L230.152 55.3998L228.11 54.4316L221.81 57.6766C221.275 57.7491 220.785 58.0155 220.432 58.4254C220.08 58.8353 219.891 59.3601 219.899 59.9004C219.908 60.4408 220.115 60.9591 220.481 61.3571C220.846 61.7552 221.345 62.0054 221.882 62.0602Z" fill="#FFB8B8"/>
<path d="M225.545 60.1236L223.572 56.4404L228.438 53.2378L226.063 44.7204C225.968 44.3794 225.945 44.0224 225.994 43.6718C226.043 43.3212 226.163 42.9844 226.348 42.6826C226.533 42.3807 226.779 42.1203 227.069 41.9175C227.359 41.7147 227.688 41.5739 228.035 41.5039C228.648 41.3817 229.285 41.4862 229.827 41.7979C230.369 42.1097 230.78 42.6076 230.983 43.1991L234.187 52.6173C234.253 52.8114 234.256 53.0212 234.197 53.2175C234.138 53.4138 234.019 53.5866 233.857 53.7118L225.545 60.1236Z" fill="#2F2E41"/>
<path d="M221.317 34.2347C220.674 34.3183 220.189 33.6606 219.964 33.0526C219.739 32.4446 219.568 31.7368 219.009 31.4083C218.246 30.9596 217.269 31.4993 216.395 31.3512C215.409 31.1841 214.768 30.139 214.718 29.14C214.668 28.1411 215.065 27.1803 215.455 26.2593L215.591 27.4039C215.573 27.016 215.655 26.6299 215.828 26.2825C216.002 25.9351 216.262 25.6381 216.583 25.4199L216.408 27.0994C216.445 26.8677 216.528 26.6457 216.651 26.446C216.775 26.2464 216.936 26.073 217.127 25.936C217.317 25.7989 217.533 25.7009 217.762 25.6474C217.99 25.5939 218.227 25.5861 218.458 25.6244L218.431 26.6252C219.57 26.4897 220.719 26.3541 221.861 26.4573C223.003 26.5605 224.154 26.9219 225.02 27.6742C226.315 28.7996 226.788 30.6526 226.629 32.361C226.47 34.0693 225.765 35.6742 225.03 37.2246C224.845 37.6146 224.589 38.0548 224.16 38.1045C223.775 38.1491 223.422 37.827 223.303 37.4581C223.21 37.0796 223.214 36.684 223.313 36.3072C223.421 35.7314 223.558 35.1428 223.456 34.5658C223.354 33.9888 222.939 33.4186 222.358 33.3479C221.776 33.2772 221.181 33.9421 221.46 34.457L221.317 34.2347Z" fill="#2F2E41"/>
<path d="M151.154 93.1171L149.067 92.2381L147.635 81.7734H128.565L127.013 92.1953L125.145 93.1291C125.056 93.1738 124.984 93.2474 124.942 93.3378C124.899 93.4283 124.889 93.5305 124.912 93.6277C124.935 93.7249 124.99 93.8116 125.068 93.8736C125.147 93.9355 125.244 93.9693 125.344 93.9693H150.982C151.085 93.9693 151.184 93.9339 151.263 93.869C151.342 93.8042 151.397 93.7139 151.417 93.6136C151.437 93.5132 151.422 93.4089 151.374 93.3184C151.326 93.2279 151.249 93.1568 151.154 93.1171Z" fill="#E6E6E6"/>
<path d="M185.043 83.1661H91.3664C90.8749 83.165 90.4039 82.969 90.0568 82.621C89.7096 82.2731 89.5147 81.8017 89.5146 81.3102V68.1006H186.895V81.3102C186.895 81.8017 186.7 82.2731 186.352 82.621C186.005 82.969 185.534 83.165 185.043 83.1661Z" fill="#CCCCCC"/>
<path d="M186.992 74.3433H89.4291V17.8222C89.4298 17.229 89.6658 16.6604 90.0852 16.241C90.5046 15.8215 91.0733 15.5856 91.6665 15.585H184.755C185.348 15.5856 185.917 15.8216 186.336 16.241C186.756 16.6604 186.992 17.229 186.992 17.8222V74.3433Z" fill="#3F3D56"/>
<path d="M181.165 70.2413H95.2561C94.7988 70.2408 94.3604 70.059 94.037 69.7356C93.7137 69.4123 93.5318 68.9739 93.5312 68.5166V21.4124C93.5318 20.9551 93.7136 20.5166 94.037 20.1933C94.3603 19.8699 94.7988 19.688 95.2561 19.6875H181.165C181.623 19.688 182.061 19.8699 182.384 20.1933C182.708 20.5166 182.89 20.9551 182.89 21.4124V68.5166C182.89 68.9739 182.708 69.4123 182.384 69.7356C182.061 70.059 181.623 70.2408 181.165 70.2413Z" fill="white"/>
<path d="M180.357 94.0783H97.1689C97.111 94.0783 97.0555 94.0553 97.0145 94.0143C96.9736 93.9734 96.9506 93.9178 96.9506 93.8599C96.9506 93.802 96.9736 93.7465 97.0145 93.7056C97.0555 93.6646 97.111 93.6416 97.1689 93.6416H180.357C180.415 93.6416 180.47 93.6646 180.511 93.7056C180.552 93.7465 180.575 93.802 180.575 93.8599C180.575 93.9178 180.552 93.9734 180.511 94.0143C180.47 94.0553 180.415 94.0783 180.357 94.0783Z" fill="#CCCCCC"/>
<path d="M173.095 64.389H103.327C103.269 64.389 103.214 64.366 103.173 64.325C103.132 64.2841 103.109 64.2285 103.109 64.1706V30.731C103.109 30.6731 103.132 30.6176 103.173 30.5766C103.214 30.5357 103.269 30.5127 103.327 30.5127C103.385 30.5127 103.44 30.5357 103.481 30.5766C103.522 30.6176 103.545 30.6731 103.545 30.731V63.9523H173.095C173.152 63.9523 173.208 63.9753 173.249 64.0162C173.29 64.0572 173.313 64.1127 173.313 64.1706C173.313 64.2285 173.29 64.2841 173.249 64.325C173.208 64.366 173.152 64.389 173.095 64.389Z" fill="#3F3D56"/>
<path d="M118.233 61.987H111.888C111.716 61.9868 111.551 61.9185 111.43 61.797C111.308 61.6755 111.24 61.5108 111.24 61.3389V52.5915C111.24 52.4196 111.308 52.2549 111.43 52.1334C111.551 52.0119 111.716 51.9436 111.888 51.9434H118.233C118.405 51.9436 118.57 52.0119 118.691 52.1334C118.813 52.2549 118.881 52.4196 118.881 52.5915V61.3389C118.881 61.5108 118.813 61.6755 118.691 61.797C118.57 61.9185 118.405 61.9868 118.233 61.987Z" fill="#6674C5"/>
<path d="M129.805 61.9871H123.46C123.288 61.9869 123.123 61.9186 123.002 61.7971C122.88 61.6756 122.812 61.5108 122.812 61.339V44.2946C122.812 44.1227 122.88 43.958 123.002 43.8365C123.123 43.715 123.288 43.6467 123.46 43.6465H129.805C129.977 43.6467 130.142 43.715 130.263 43.8365C130.385 43.958 130.453 44.1227 130.453 44.2946V61.339C130.453 61.5108 130.385 61.6756 130.263 61.7971C130.142 61.9186 129.977 61.9869 129.805 61.9871Z" fill="#6674C5"/>
<path d="M141.377 61.987H135.032C134.86 61.9868 134.695 61.9185 134.574 61.797C134.452 61.6755 134.384 61.5108 134.384 61.3389V52.5915C134.384 52.4196 134.452 52.2549 134.574 52.1334C134.695 52.0119 134.86 51.9436 135.032 51.9434H141.377C141.549 51.9436 141.714 52.0119 141.835 52.1334C141.957 52.2549 142.025 52.4196 142.026 52.5915V61.3389C142.025 61.5108 141.957 61.6755 141.835 61.797C141.714 61.9185 141.549 61.9868 141.377 61.987Z" fill="#6674C5"/>
<path d="M152.949 61.987H146.604C146.436 61.9906 146.273 61.9275 146.152 61.8115C146.03 61.6955 145.96 61.5361 145.956 61.3682V40.99C145.96 40.8221 146.03 40.6627 146.152 40.5467C146.273 40.4307 146.436 40.3676 146.604 40.3712H152.949C153.117 40.3676 153.28 40.4307 153.401 40.5467C153.523 40.6627 153.593 40.8221 153.598 40.99V61.3682C153.593 61.5361 153.523 61.6955 153.401 61.8115C153.28 61.9275 153.117 61.9906 152.949 61.987Z" fill="#6674C5"/>
<path d="M164.521 61.9865H158.176C158.004 61.9863 157.839 61.918 157.718 61.7965C157.596 61.675 157.528 61.5102 157.528 61.3384V35.1237C157.528 34.9518 157.596 34.7871 157.718 34.6656C157.839 34.5441 158.004 34.4758 158.176 34.4756H164.521C164.693 34.4758 164.858 34.5441 164.98 34.6656C165.101 34.7871 165.169 34.9518 165.17 35.1237V61.3384C165.169 61.5102 165.101 61.675 164.98 61.7965C164.858 61.918 164.693 61.9863 164.521 61.9865Z" fill="#6674C5"/>
<path d="M115.06 49.3232C115.784 49.3232 116.371 48.7367 116.371 48.0132C116.371 47.2897 115.784 46.7031 115.06 46.7031C114.337 46.7031 113.75 47.2897 113.75 48.0132C113.75 48.7367 114.337 49.3232 115.06 49.3232Z" fill="#3F3D56"/>
<path d="M126.632 40.8076C127.356 40.8076 127.943 40.2211 127.943 39.4975C127.943 38.774 127.356 38.1875 126.632 38.1875C125.909 38.1875 125.322 38.774 125.322 39.4975C125.322 40.2211 125.909 40.8076 126.632 40.8076Z" fill="#3F3D56"/>
<path d="M138.205 49.3232C138.928 49.3232 139.515 48.7367 139.515 48.0132C139.515 47.2897 138.928 46.7031 138.205 46.7031C137.481 46.7031 136.895 47.2897 136.895 48.0132C136.895 48.7367 137.481 49.3232 138.205 49.3232Z" fill="#3F3D56"/>
<path d="M149.777 36.6591C150.5 36.6591 151.087 36.0726 151.087 35.3491C151.087 34.6256 150.5 34.0391 149.777 34.0391C149.053 34.0391 148.467 34.6256 148.467 35.3491C148.467 36.0726 149.053 36.6591 149.777 36.6591Z" fill="#3F3D56"/>
<path d="M161.349 31.8554C162.072 31.8554 162.659 31.2689 162.659 30.5454C162.659 29.8219 162.072 29.2354 161.349 29.2354C160.625 29.2354 160.039 29.8219 160.039 30.5454C160.039 31.2689 160.625 31.8554 161.349 31.8554Z" fill="#3F3D56"/>
<path d="M138.232 48.3066L126.633 39.6184L115.192 48.1879L114.93 47.8385L126.633 39.0728L138.177 47.7197L149.649 35.1656L149.695 35.1468L161.267 30.4844L161.43 30.8894L149.904 35.5333L138.232 48.3066Z" fill="#3F3D56"/>
</g>
<defs>
<clipPath id="clip0_2716_9378">
<rect width="166.606" height="100" fill="white" transform="translate(81 5)"/>
</clipPath>
</defs>
</svg>
