<svg width="328" height="177" viewBox="0 0 328 177" fill="none" xmlns="http://www.w3.org/2000/svg">
<g clip-path="url(#clip0_2708_12850)">
<path d="M236.525 0.0917969H75.1541V103.441H236.525V0.0917969Z" fill="#E6E6E6"/>
<path d="M231.91 13.0547H79.7683V97.3269H231.91V13.0547Z" fill="white"/>
<path d="M236.456 0H75.0852V6.85561H236.456V0Z" fill="#8094D4"/>
<path d="M80.1798 4.77565C80.8816 4.77565 81.4505 4.20676 81.4505 3.50501C81.4505 2.80326 80.8816 2.23438 80.1798 2.23438C79.4781 2.23438 78.9092 2.80326 78.9092 3.50501C78.9092 4.20676 79.4781 4.77565 80.1798 4.77565Z" fill="white"/>
<path d="M85.0028 4.77565C85.7046 4.77565 86.2734 4.20676 86.2734 3.50501C86.2734 2.80326 85.7046 2.23438 85.0028 2.23438C84.3011 2.23438 83.7322 2.80326 83.7322 3.50501C83.7322 4.20676 84.3011 4.77565 85.0028 4.77565Z" fill="white"/>
<path d="M89.8257 4.77565C90.5274 4.77565 91.0963 4.20676 91.0963 3.50501C91.0963 2.80326 90.5274 2.23438 89.8257 2.23438C89.1239 2.23438 88.5551 2.80326 88.5551 3.50501C88.5551 4.20676 89.1239 4.77565 89.8257 4.77565Z" fill="white"/>
<path d="M132.686 21.7979H93.5927V88.5822H132.686V21.7979Z" fill="#E6E6E6"/>
<path d="M172.012 21.7979H139.434V40.181H172.012V21.7979Z" fill="#8094D4"/>
<path d="M172.012 45.2998H139.434V65.0792H172.012V45.2998Z" fill="#E6E6E6"/>
<path d="M172.012 70.1992H139.434V88.5824H172.012V70.1992Z" fill="#E6E6E6"/>
<path d="M218.086 21.7979H178.993V50.9021H218.086V21.7979Z" fill="#E6E6E6"/>
<path d="M218.086 59.4775H178.993V88.5818H218.086V59.4775Z" fill="#E6E6E6"/>
<path d="M203.026 52.9929V46.7271C203.026 44.5004 203.911 42.3648 205.485 40.7902C207.06 39.2156 209.195 38.3311 211.422 38.3311C213.649 38.3311 215.785 39.2156 217.359 40.7902C218.934 42.3648 219.818 44.5004 219.818 46.7271V52.9929C219.818 53.2919 219.699 53.5786 219.488 53.79C219.276 54.0014 218.989 54.1204 218.69 54.1207H204.154C203.855 54.1204 203.568 54.0014 203.357 53.79C203.145 53.5786 203.026 53.2919 203.026 52.9929Z" fill="#2F2E41"/>
<path d="M223.837 134.534L220.876 135.354L216.305 124.322L220.676 123.112L223.837 134.534Z" fill="#FFB8B8"/>
<path d="M218.526 135.093L224.237 133.512L225.233 137.108L215.926 139.684C215.795 139.212 215.759 138.718 215.818 138.232C215.878 137.746 216.034 137.276 216.275 136.85C216.517 136.423 216.84 136.049 217.226 135.747C217.612 135.446 218.054 135.223 218.526 135.093Z" fill="#2F2E41"/>
<path d="M192.963 136.812H189.891L188.429 124.96H192.964L192.963 136.812Z" fill="#FFB8B8"/>
<path d="M187.696 135.934H193.622V139.665H183.965C183.965 139.175 184.061 138.69 184.249 138.237C184.436 137.784 184.711 137.373 185.057 137.026C185.404 136.68 185.815 136.405 186.268 136.218C186.721 136.03 187.206 135.934 187.696 135.934Z" fill="#2F2E41"/>
<path d="M189.258 70.5769C189.477 70.873 189.759 71.1173 190.083 71.2928C190.407 71.4683 190.765 71.5706 191.133 71.5925C191.501 71.6144 191.869 71.5554 192.212 71.4197C192.554 71.2839 192.863 71.0748 193.116 70.8068L201.284 74.4806L200.541 69.8862L192.898 67.1019C192.42 66.7068 191.813 66.5009 191.193 66.5231C190.574 66.5454 189.983 66.7942 189.535 67.2226C189.086 67.6509 188.81 68.229 188.759 68.8472C188.708 69.4654 188.886 70.0809 189.258 70.5769Z" fill="#FFB8B8"/>
<path d="M206.229 98.2053C203.663 98.2053 201.006 97.823 198.773 96.6861C197.588 96.0945 196.537 95.2646 195.687 94.2483C194.837 93.232 194.206 92.0513 193.834 90.78C192.67 87.0959 194.137 83.4766 195.556 79.9766C196.435 77.8077 197.265 75.7592 197.481 73.74L197.556 73.0231C197.892 69.8031 198.181 67.0222 199.786 65.9791C200.618 65.4385 201.736 65.4076 203.205 65.8847L217 70.3663L216.493 96.5546L216.409 96.5826C216.337 96.6068 211.474 98.2053 206.229 98.2053Z" fill="#2F2E41"/>
<path d="M202.963 57.7324C202.963 57.7324 209.73 55.7274 214.994 56.4793C214.994 56.4793 211.986 73.0208 212.989 78.5346C213.991 84.0485 195.57 80.665 199.329 75.4018L200.582 69.136C200.582 69.136 198.076 66.6297 200.332 63.6222L202.963 57.7324Z" fill="#8094D4"/>
<path d="M199.635 97.7094L191.295 96.1456L194.207 73.7377C194.402 73.1121 198.913 58.9147 200.962 58.1465C202.449 57.6227 203.97 57.2001 205.515 56.8816L205.811 56.8223L204.139 59.3308L197.481 75.2844L199.635 97.7094Z" fill="#2F2E41"/>
<path d="M195.289 134.067L184.514 132.271L190.561 107.578L199.559 73.8086L199.648 74.4082C199.655 74.4529 200.496 78.8644 212.969 76.9069L213.079 76.8898L213.109 76.9967L228.185 130.265L215.907 132.311L204.708 93.4469L195.289 134.067Z" fill="#2F2E41"/>
<path d="M210.225 101.902L210.232 101.712C210.239 101.502 210.98 80.5662 210.733 72.1463C210.484 63.6979 213.22 56.3815 213.247 56.3086L213.269 56.2499L213.33 56.2325C216.869 55.2215 219.939 58.2389 219.969 58.2695L220.012 58.3125L219.005 66.6275L223.32 96.8638L210.225 101.902Z" fill="#2F2E41"/>
<path d="M209.697 53.9745C213.096 53.9745 215.852 51.2185 215.852 47.8188C215.852 44.4191 213.096 41.6631 209.697 41.6631C206.297 41.6631 203.541 44.4191 203.541 47.8188C203.541 51.2185 206.297 53.9745 209.697 53.9745Z" fill="#FFB8B8"/>
<path d="M201.04 47.2286C201.042 45.4677 201.742 43.7795 202.987 42.5344C204.232 41.2893 205.92 40.5889 207.681 40.5869H208.935C210.695 40.5889 212.384 41.2893 213.629 42.5344C214.874 43.7795 215.574 45.4677 215.576 47.2286V47.3539H212.928L212.025 44.8246L211.844 47.3539H210.475L210.02 46.0778L209.928 47.3539H201.04V47.2286Z" fill="#2F2E41"/>
<path d="M209.091 54.8252C208.967 54.6568 208.893 54.4567 208.877 54.248C208.861 54.0393 208.905 53.8304 209.003 53.6454C210.331 51.1196 212.19 46.4523 209.722 43.574L209.545 43.3672H216.71V54.1242L210.201 55.2726C210.135 55.2842 210.068 55.2901 210.001 55.2902C209.824 55.2902 209.649 55.248 209.49 55.1672C209.332 55.0863 209.195 54.9691 209.091 54.8252Z" fill="#2F2E41"/>
<path d="M180.244 10.4127C175.231 6.18221 169.096 3.5001 162.585 2.6928C156.075 1.8855 149.471 2.98781 143.576 5.86559C137.681 8.74338 132.749 13.2726 129.381 18.902C126.013 24.5315 124.354 31.0185 124.606 37.5736C124.858 44.1288 127.009 50.4695 130.799 55.8242C134.588 61.1788 139.853 65.3166 145.951 67.734C152.049 70.1513 158.719 70.7441 165.148 69.44C171.577 68.136 177.488 64.9914 182.163 60.3889L223.672 95.4138C224.303 95.9478 225.121 96.209 225.945 96.1399C226.769 96.0709 227.532 95.6773 228.066 95.0458C228.6 94.4142 228.861 93.5964 228.792 92.7722C228.723 91.9481 228.33 91.1851 227.698 90.6511L227.694 90.6473L186.185 55.6224C191.007 48.7018 193.071 40.2298 191.972 31.8669C190.873 23.5039 186.691 15.8527 180.244 10.4127ZM177.568 52.2497C174.335 56.0821 170.037 58.8694 165.219 60.2594C160.401 61.6493 155.28 61.5793 150.501 60.0584C145.723 58.5374 141.504 55.6337 138.376 51.7144C135.248 47.7952 133.352 43.0364 132.929 38.04C132.506 33.0435 133.574 28.0337 135.998 23.6442C138.422 19.2546 142.093 15.6823 146.547 13.3792C151.001 11.0761 156.038 10.1455 161.021 10.7051C166.004 11.2646 170.709 13.2893 174.542 16.523C177.086 18.6701 179.183 21.2974 180.712 24.2549C182.241 27.2123 183.173 30.442 183.454 33.7595C183.735 37.077 183.36 40.4174 182.35 43.59C181.34 46.7626 179.715 49.7051 177.568 52.2497Z" fill="#3F3D56"/>
<path opacity="0.3" d="M141.842 55.2762C136.978 51.1718 133.836 45.3884 133.039 39.0744C132.242 32.7604 133.848 26.3776 137.539 21.1934C137.055 21.6815 136.586 22.1928 136.134 22.7272C133.986 25.2718 132.362 28.2143 131.352 31.3869C130.342 34.5595 129.967 37.8999 130.248 41.2174C130.529 44.5349 131.461 47.7646 132.99 50.722C134.519 53.6795 136.616 56.3068 139.16 58.4539C141.705 60.601 144.647 62.2259 147.82 63.2358C150.993 64.2457 154.333 64.6208 157.651 64.3398C160.968 64.0587 164.198 63.1269 167.155 61.5977C170.113 60.0685 172.74 57.9717 174.887 55.4271C175.338 54.8921 175.764 54.3441 176.162 53.7833C171.673 58.2941 165.652 60.9516 159.293 61.2281C152.935 61.5047 146.706 59.3801 141.842 55.2762Z" fill="black"/>
<path d="M211.673 81.3385C212.031 81.426 212.404 81.434 212.765 81.3619C213.127 81.2897 213.468 81.1392 213.764 80.921C214.061 80.7028 214.307 80.4221 214.483 80.0988C214.66 79.7755 214.764 79.4173 214.787 79.0496L223.417 76.6542L219.909 73.5957L212.252 76.3393C211.631 76.3411 211.033 76.5704 210.571 76.9838C210.108 77.3971 209.813 77.9658 209.742 78.582C209.671 79.1982 209.828 79.8192 210.184 80.3272C210.54 80.8353 211.07 81.1951 211.673 81.3385Z" fill="#FFB8B8"/>
<path d="M215.26 80.0711L214.735 75.082L221.944 71.1048L217.244 65.4154L218.011 59.0245L219.92 58.2061L219.98 58.2824C220.88 59.4404 228.778 69.6311 228.778 70.8909C228.778 72.1848 227.267 75.9845 225.2 77.0181C223.206 78.0151 215.719 79.9528 215.401 80.0349L215.26 80.0711Z" fill="#2F2E41"/>
<path d="M252.664 140H157.174C157.108 140 157.044 139.974 156.997 139.927C156.95 139.88 156.924 139.816 156.924 139.75C156.924 139.683 156.95 139.619 156.997 139.572C157.044 139.525 157.108 139.499 157.174 139.499H252.664C252.731 139.499 252.794 139.525 252.841 139.572C252.888 139.619 252.915 139.683 252.915 139.75C252.915 139.816 252.888 139.88 252.841 139.927C252.794 139.974 252.731 140 252.664 140Z" fill="#CCCCCC"/>
</g>
<path d="M62.7835 172V162.2H63.6375L70.3995 170.712H69.9515V162.2H70.9735V172H70.1195L63.3715 163.488H63.8195V172H62.7835ZM76.9582 172.07C76.2488 172.07 75.6095 171.911 75.0402 171.594C74.4802 171.267 74.0368 170.824 73.7102 170.264C73.3835 169.695 73.2202 169.046 73.2202 168.318C73.2202 167.581 73.3835 166.932 73.7102 166.372C74.0368 165.812 74.4802 165.373 75.0402 165.056C75.6002 164.739 76.2395 164.58 76.9582 164.58C77.6862 164.58 78.3302 164.739 78.8902 165.056C79.4595 165.373 79.9028 165.812 80.2202 166.372C80.5468 166.932 80.7102 167.581 80.7102 168.318C80.7102 169.046 80.5468 169.695 80.2202 170.264C79.9028 170.824 79.4595 171.267 78.8902 171.594C78.3208 171.911 77.6768 172.07 76.9582 172.07ZM76.9582 171.188C77.4902 171.188 77.9615 171.071 78.3722 170.838C78.7828 170.595 79.1048 170.259 79.3382 169.83C79.5808 169.391 79.7022 168.887 79.7022 168.318C79.7022 167.739 79.5808 167.235 79.3382 166.806C79.1048 166.377 78.7828 166.045 78.3722 165.812C77.9615 165.569 77.4948 165.448 76.9722 165.448C76.4495 165.448 75.9828 165.569 75.5722 165.812C75.1615 166.045 74.8348 166.377 74.5922 166.806C74.3495 167.235 74.2282 167.739 74.2282 168.318C74.2282 168.887 74.3495 169.391 74.5922 169.83C74.8348 170.259 75.1615 170.595 75.5722 170.838C75.9828 171.071 76.4448 171.188 76.9582 171.188ZM91.0096 172V170.376L90.9676 170.11V167.394C90.9676 166.769 90.7902 166.288 90.4356 165.952C90.0902 165.616 89.5722 165.448 88.8816 165.448C88.4056 165.448 87.9529 165.527 87.5236 165.686C87.0942 165.845 86.7302 166.055 86.4316 166.316L85.9836 165.574C86.3569 165.257 86.8049 165.014 87.3276 164.846C87.8502 164.669 88.4009 164.58 88.9796 164.58C89.9316 164.58 90.6642 164.818 91.1776 165.294C91.7002 165.761 91.9616 166.475 91.9616 167.436V172H91.0096ZM88.4756 172.07C87.9249 172.07 87.4442 171.981 87.0336 171.804C86.6322 171.617 86.3242 171.365 86.1096 171.048C85.8949 170.721 85.7876 170.348 85.7876 169.928C85.7876 169.545 85.8762 169.2 86.0536 168.892C86.2402 168.575 86.5389 168.323 86.9496 168.136C87.3696 167.94 87.9296 167.842 88.6296 167.842H91.1636V168.584H88.6576C87.9482 168.584 87.4536 168.71 87.1736 168.962C86.9029 169.214 86.7676 169.527 86.7676 169.9C86.7676 170.32 86.9309 170.656 87.2576 170.908C87.5842 171.16 88.0416 171.286 88.6296 171.286C89.1896 171.286 89.6702 171.16 90.0716 170.908C90.4822 170.647 90.7809 170.273 90.9676 169.788L91.1916 170.474C91.0049 170.959 90.6782 171.347 90.2116 171.636C89.7542 171.925 89.1756 172.07 88.4756 172.07ZM96.9854 172.07C96.2947 172.07 95.7627 171.883 95.3894 171.51C95.0161 171.137 94.8294 170.609 94.8294 169.928V163.026H95.8234V169.872C95.8234 170.301 95.9307 170.633 96.1454 170.866C96.3694 171.099 96.6867 171.216 97.0974 171.216C97.5361 171.216 97.9001 171.09 98.1894 170.838L98.5394 171.552C98.3434 171.729 98.1054 171.86 97.8254 171.944C97.5547 172.028 97.2747 172.07 96.9854 172.07ZM93.5134 165.476V164.65H98.0634V165.476H93.5134ZM102.481 172.07C101.791 172.07 101.259 171.883 100.885 171.51C100.512 171.137 100.325 170.609 100.325 169.928V163.026H101.319V169.872C101.319 170.301 101.427 170.633 101.641 170.866C101.865 171.099 102.183 171.216 102.593 171.216C103.032 171.216 103.396 171.09 103.685 170.838L104.035 171.552C103.839 171.729 103.601 171.86 103.321 171.944C103.051 172.028 102.771 172.07 102.481 172.07ZM99.0095 165.476V164.65H103.559V165.476H99.0095ZM108.707 172.07C107.942 172.07 107.27 171.911 106.691 171.594C106.113 171.267 105.66 170.824 105.333 170.264C105.007 169.695 104.843 169.046 104.843 168.318C104.843 167.59 104.997 166.946 105.305 166.386C105.623 165.826 106.052 165.387 106.593 165.07C107.144 164.743 107.76 164.58 108.441 164.58C109.132 164.58 109.743 164.739 110.275 165.056C110.817 165.364 111.241 165.803 111.549 166.372C111.857 166.932 112.011 167.581 112.011 168.318C112.011 168.365 112.007 168.416 111.997 168.472C111.997 168.519 111.997 168.57 111.997 168.626H105.599V167.884H111.465L111.073 168.178C111.073 167.646 110.957 167.175 110.723 166.764C110.499 166.344 110.191 166.017 109.799 165.784C109.407 165.551 108.955 165.434 108.441 165.434C107.937 165.434 107.485 165.551 107.083 165.784C106.682 166.017 106.369 166.344 106.145 166.764C105.921 167.184 105.809 167.665 105.809 168.206V168.36C105.809 168.92 105.931 169.415 106.173 169.844C106.425 170.264 106.771 170.595 107.209 170.838C107.657 171.071 108.166 171.188 108.735 171.188C109.183 171.188 109.599 171.109 109.981 170.95C110.373 170.791 110.709 170.549 110.989 170.222L111.549 170.866C111.223 171.258 110.812 171.557 110.317 171.762C109.832 171.967 109.295 172.07 108.707 172.07ZM117.786 164.58C118.384 164.58 118.906 164.697 119.354 164.93C119.812 165.154 120.166 165.499 120.418 165.966C120.68 166.433 120.81 167.021 120.81 167.73V172H119.816V167.828C119.816 167.053 119.62 166.47 119.228 166.078C118.846 165.677 118.304 165.476 117.604 165.476C117.082 165.476 116.624 165.583 116.232 165.798C115.85 166.003 115.551 166.307 115.336 166.708C115.131 167.1 115.028 167.576 115.028 168.136V172H114.034V164.65H114.986V166.666L114.832 166.288C115.066 165.756 115.439 165.341 115.952 165.042C116.466 164.734 117.077 164.58 117.786 164.58ZM126.421 172.07C125.721 172.07 125.091 171.911 124.531 171.594C123.981 171.277 123.547 170.838 123.229 170.278C122.912 169.709 122.753 169.055 122.753 168.318C122.753 167.571 122.912 166.918 123.229 166.358C123.547 165.798 123.981 165.364 124.531 165.056C125.091 164.739 125.721 164.58 126.421 164.58C127.065 164.58 127.639 164.725 128.143 165.014C128.657 165.303 129.063 165.728 129.361 166.288C129.669 166.839 129.823 167.515 129.823 168.318C129.823 169.111 129.674 169.788 129.375 170.348C129.077 170.908 128.671 171.337 128.157 171.636C127.653 171.925 127.075 172.07 126.421 172.07ZM126.491 171.188C127.014 171.188 127.481 171.071 127.891 170.838C128.311 170.595 128.638 170.259 128.871 169.83C129.114 169.391 129.235 168.887 129.235 168.318C129.235 167.739 129.114 167.235 128.871 166.806C128.638 166.377 128.311 166.045 127.891 165.812C127.481 165.569 127.014 165.448 126.491 165.448C125.978 165.448 125.516 165.569 125.105 165.812C124.695 166.045 124.368 166.377 124.125 166.806C123.883 167.235 123.761 167.739 123.761 168.318C123.761 168.887 123.883 169.391 124.125 169.83C124.368 170.259 124.695 170.595 125.105 170.838C125.516 171.071 125.978 171.188 126.491 171.188ZM129.263 172V169.788L129.361 168.304L129.221 166.82V161.612H130.215V172H129.263ZM137.59 172V170.376L137.548 170.11V167.394C137.548 166.769 137.37 166.288 137.016 165.952C136.67 165.616 136.152 165.448 135.462 165.448C134.986 165.448 134.533 165.527 134.104 165.686C133.674 165.845 133.31 166.055 133.012 166.316L132.564 165.574C132.937 165.257 133.385 165.014 133.908 164.846C134.43 164.669 134.981 164.58 135.56 164.58C136.512 164.58 137.244 164.818 137.758 165.294C138.28 165.761 138.542 166.475 138.542 167.436V172H137.59ZM135.056 172.07C134.505 172.07 134.024 171.981 133.614 171.804C133.212 171.617 132.904 171.365 132.69 171.048C132.475 170.721 132.368 170.348 132.368 169.928C132.368 169.545 132.456 169.2 132.634 168.892C132.82 168.575 133.119 168.323 133.53 168.136C133.95 167.94 134.51 167.842 135.21 167.842H137.744V168.584H135.238C134.528 168.584 134.034 168.71 133.754 168.962C133.483 169.214 133.348 169.527 133.348 169.9C133.348 170.32 133.511 170.656 133.838 170.908C134.164 171.16 134.622 171.286 135.21 171.286C135.77 171.286 136.25 171.16 136.652 170.908C137.062 170.647 137.361 170.273 137.548 169.788L137.772 170.474C137.585 170.959 137.258 171.347 136.792 171.636C136.334 171.925 135.756 172.07 135.056 172.07ZM144.993 164.58C145.591 164.58 146.113 164.697 146.561 164.93C147.019 165.154 147.373 165.499 147.625 165.966C147.887 166.433 148.017 167.021 148.017 167.73V172H147.023V167.828C147.023 167.053 146.827 166.47 146.435 166.078C146.053 165.677 145.511 165.476 144.811 165.476C144.289 165.476 143.831 165.583 143.439 165.798C143.057 166.003 142.758 166.307 142.543 166.708C142.338 167.1 142.235 167.576 142.235 168.136V172H141.241V164.65H142.193V166.666L142.039 166.288C142.273 165.756 142.646 165.341 143.159 165.042C143.673 164.734 144.284 164.58 144.993 164.58ZM153.754 172.07C153.026 172.07 152.373 171.911 151.794 171.594C151.225 171.267 150.777 170.824 150.45 170.264C150.124 169.695 149.96 169.046 149.96 168.318C149.96 167.581 150.124 166.932 150.45 166.372C150.777 165.812 151.225 165.373 151.794 165.056C152.373 164.739 153.026 164.58 153.754 164.58C154.38 164.58 154.944 164.701 155.448 164.944C155.952 165.187 156.349 165.551 156.638 166.036L155.896 166.54C155.644 166.167 155.332 165.891 154.958 165.714C154.585 165.537 154.179 165.448 153.74 165.448C153.218 165.448 152.746 165.569 152.326 165.812C151.906 166.045 151.575 166.377 151.332 166.806C151.09 167.235 150.968 167.739 150.968 168.318C150.968 168.897 151.09 169.401 151.332 169.83C151.575 170.259 151.906 170.595 152.326 170.838C152.746 171.071 153.218 171.188 153.74 171.188C154.179 171.188 154.585 171.099 154.958 170.922C155.332 170.745 155.644 170.474 155.896 170.11L156.638 170.614C156.349 171.09 155.952 171.454 155.448 171.706C154.944 171.949 154.38 172.07 153.754 172.07ZM161.59 172.07C160.825 172.07 160.153 171.911 159.574 171.594C158.995 171.267 158.543 170.824 158.216 170.264C157.889 169.695 157.726 169.046 157.726 168.318C157.726 167.59 157.88 166.946 158.188 166.386C158.505 165.826 158.935 165.387 159.476 165.07C160.027 164.743 160.643 164.58 161.324 164.58C162.015 164.58 162.626 164.739 163.158 165.056C163.699 165.364 164.124 165.803 164.432 166.372C164.74 166.932 164.894 167.581 164.894 168.318C164.894 168.365 164.889 168.416 164.88 168.472C164.88 168.519 164.88 168.57 164.88 168.626H158.482V167.884H164.348L163.956 168.178C163.956 167.646 163.839 167.175 163.606 166.764C163.382 166.344 163.074 166.017 162.682 165.784C162.29 165.551 161.837 165.434 161.324 165.434C160.82 165.434 160.367 165.551 159.966 165.784C159.565 166.017 159.252 166.344 159.028 166.764C158.804 167.184 158.692 167.665 158.692 168.206V168.36C158.692 168.92 158.813 169.415 159.056 169.844C159.308 170.264 159.653 170.595 160.092 170.838C160.54 171.071 161.049 171.188 161.618 171.188C162.066 171.188 162.481 171.109 162.864 170.95C163.256 170.791 163.592 170.549 163.872 170.222L164.432 170.866C164.105 171.258 163.695 171.557 163.2 171.762C162.715 171.967 162.178 172.07 161.59 172.07ZM170.581 172V164.65H171.533V166.652L171.435 166.302C171.641 165.742 171.986 165.317 172.471 165.028C172.957 164.729 173.559 164.58 174.277 164.58V165.546C174.24 165.546 174.203 165.546 174.165 165.546C174.128 165.537 174.091 165.532 174.053 165.532C173.279 165.532 172.672 165.77 172.233 166.246C171.795 166.713 171.575 167.38 171.575 168.248V172H170.581ZM179.145 172.07C178.379 172.07 177.707 171.911 177.129 171.594C176.55 171.267 176.097 170.824 175.771 170.264C175.444 169.695 175.281 169.046 175.281 168.318C175.281 167.59 175.435 166.946 175.743 166.386C176.06 165.826 176.489 165.387 177.031 165.07C177.581 164.743 178.197 164.58 178.879 164.58C179.569 164.58 180.181 164.739 180.713 165.056C181.254 165.364 181.679 165.803 181.987 166.372C182.295 166.932 182.449 167.581 182.449 168.318C182.449 168.365 182.444 168.416 182.435 168.472C182.435 168.519 182.435 168.57 182.435 168.626H176.037V167.884H181.903L181.511 168.178C181.511 167.646 181.394 167.175 181.161 166.764C180.937 166.344 180.629 166.017 180.237 165.784C179.845 165.551 179.392 165.434 178.879 165.434C178.375 165.434 177.922 165.551 177.521 165.784C177.119 166.017 176.807 166.344 176.583 166.764C176.359 167.184 176.247 167.665 176.247 168.206V168.36C176.247 168.92 176.368 169.415 176.611 169.844C176.863 170.264 177.208 170.595 177.647 170.838C178.095 171.071 178.603 171.188 179.173 171.188C179.621 171.188 180.036 171.109 180.419 170.95C180.811 170.791 181.147 170.549 181.427 170.222L181.987 170.866C181.66 171.258 181.249 171.557 180.755 171.762C180.269 171.967 179.733 172.07 179.145 172.07ZM187.524 172.07C186.796 172.07 186.143 171.911 185.564 171.594C184.995 171.267 184.547 170.824 184.22 170.264C183.893 169.695 183.73 169.046 183.73 168.318C183.73 167.581 183.893 166.932 184.22 166.372C184.547 165.812 184.995 165.373 185.564 165.056C186.143 164.739 186.796 164.58 187.524 164.58C188.149 164.58 188.714 164.701 189.218 164.944C189.722 165.187 190.119 165.551 190.408 166.036L189.666 166.54C189.414 166.167 189.101 165.891 188.728 165.714C188.355 165.537 187.949 165.448 187.51 165.448C186.987 165.448 186.516 165.569 186.096 165.812C185.676 166.045 185.345 166.377 185.102 166.806C184.859 167.235 184.738 167.739 184.738 168.318C184.738 168.897 184.859 169.401 185.102 169.83C185.345 170.259 185.676 170.595 186.096 170.838C186.516 171.071 186.987 171.188 187.51 171.188C187.949 171.188 188.355 171.099 188.728 170.922C189.101 170.745 189.414 170.474 189.666 170.11L190.408 170.614C190.119 171.09 189.722 171.454 189.218 171.706C188.714 171.949 188.149 172.07 187.524 172.07ZM195.234 172.07C194.524 172.07 193.885 171.911 193.316 171.594C192.756 171.267 192.312 170.824 191.986 170.264C191.659 169.695 191.496 169.046 191.496 168.318C191.496 167.581 191.659 166.932 191.986 166.372C192.312 165.812 192.756 165.373 193.316 165.056C193.876 164.739 194.515 164.58 195.234 164.58C195.962 164.58 196.606 164.739 197.166 165.056C197.735 165.373 198.178 165.812 198.496 166.372C198.822 166.932 198.986 167.581 198.986 168.318C198.986 169.046 198.822 169.695 198.496 170.264C198.178 170.824 197.735 171.267 197.166 171.594C196.596 171.911 195.952 172.07 195.234 172.07ZM195.234 171.188C195.766 171.188 196.237 171.071 196.648 170.838C197.058 170.595 197.38 170.259 197.614 169.83C197.856 169.391 197.978 168.887 197.978 168.318C197.978 167.739 197.856 167.235 197.614 166.806C197.38 166.377 197.058 166.045 196.648 165.812C196.237 165.569 195.77 165.448 195.248 165.448C194.725 165.448 194.258 165.569 193.848 165.812C193.437 166.045 193.11 166.377 192.868 166.806C192.625 167.235 192.504 167.739 192.504 168.318C192.504 168.887 192.625 169.391 192.868 169.83C193.11 170.259 193.437 170.595 193.848 170.838C194.258 171.071 194.72 171.188 195.234 171.188ZM201.015 172V164.65H201.967V166.652L201.869 166.302C202.074 165.742 202.42 165.317 202.905 165.028C203.39 164.729 203.992 164.58 204.711 164.58V165.546C204.674 165.546 204.636 165.546 204.599 165.546C204.562 165.537 204.524 165.532 204.487 165.532C203.712 165.532 203.106 165.77 202.667 166.246C202.228 166.713 202.009 167.38 202.009 168.248V172H201.015ZM209.382 172.07C208.682 172.07 208.052 171.911 207.492 171.594C206.942 171.277 206.508 170.838 206.19 170.278C205.873 169.709 205.714 169.055 205.714 168.318C205.714 167.571 205.873 166.918 206.19 166.358C206.508 165.798 206.942 165.364 207.492 165.056C208.052 164.739 208.682 164.58 209.382 164.58C210.026 164.58 210.6 164.725 211.104 165.014C211.618 165.303 212.024 165.728 212.322 166.288C212.63 166.839 212.784 167.515 212.784 168.318C212.784 169.111 212.635 169.788 212.336 170.348C212.038 170.908 211.632 171.337 211.118 171.636C210.614 171.925 210.036 172.07 209.382 172.07ZM209.452 171.188C209.975 171.188 210.442 171.071 210.852 170.838C211.272 170.595 211.599 170.259 211.832 169.83C212.075 169.391 212.196 168.887 212.196 168.318C212.196 167.739 212.075 167.235 211.832 166.806C211.599 166.377 211.272 166.045 210.852 165.812C210.442 165.569 209.975 165.448 209.452 165.448C208.939 165.448 208.477 165.569 208.066 165.812C207.656 166.045 207.329 166.377 207.086 166.806C206.844 167.235 206.722 167.739 206.722 168.318C206.722 168.887 206.844 169.391 207.086 169.83C207.329 170.259 207.656 170.595 208.066 170.838C208.477 171.071 208.939 171.188 209.452 171.188ZM212.224 172V169.788L212.322 168.304L212.182 166.82V161.612H213.176V172H212.224ZM217.919 172.07C217.312 172.07 216.738 171.986 216.197 171.818C215.655 171.641 215.231 171.421 214.923 171.16L215.371 170.376C215.669 170.6 216.052 170.796 216.519 170.964C216.985 171.123 217.475 171.202 217.989 171.202C218.689 171.202 219.193 171.095 219.501 170.88C219.809 170.656 219.963 170.362 219.963 169.998C219.963 169.727 219.874 169.517 219.697 169.368C219.529 169.209 219.305 169.093 219.025 169.018C218.745 168.934 218.432 168.864 218.087 168.808C217.741 168.752 217.396 168.687 217.051 168.612C216.715 168.537 216.407 168.43 216.127 168.29C215.847 168.141 215.618 167.94 215.441 167.688C215.273 167.436 215.189 167.1 215.189 166.68C215.189 166.279 215.301 165.919 215.525 165.602C215.749 165.285 216.075 165.037 216.505 164.86C216.943 164.673 217.475 164.58 218.101 164.58C218.577 164.58 219.053 164.645 219.529 164.776C220.005 164.897 220.397 165.061 220.705 165.266L220.271 166.064C219.944 165.84 219.594 165.681 219.221 165.588C218.847 165.485 218.474 165.434 218.101 165.434C217.438 165.434 216.948 165.551 216.631 165.784C216.323 166.008 216.169 166.297 216.169 166.652C216.169 166.932 216.253 167.151 216.421 167.31C216.598 167.469 216.827 167.595 217.107 167.688C217.396 167.772 217.709 167.842 218.045 167.898C218.39 167.954 218.731 168.024 219.067 168.108C219.412 168.183 219.725 168.29 220.005 168.43C220.294 168.561 220.523 168.752 220.691 169.004C220.868 169.247 220.957 169.569 220.957 169.97C220.957 170.399 220.835 170.773 220.593 171.09C220.359 171.398 220.014 171.641 219.557 171.818C219.109 171.986 218.563 172.07 217.919 172.07ZM226.613 172V163.726C226.613 163.073 226.804 162.545 227.187 162.144C227.569 161.743 228.12 161.542 228.839 161.542C229.119 161.542 229.389 161.579 229.651 161.654C229.912 161.729 230.131 161.845 230.309 162.004L229.973 162.746C229.833 162.625 229.669 162.536 229.483 162.48C229.296 162.415 229.095 162.382 228.881 162.382C228.461 162.382 228.139 162.499 227.915 162.732C227.691 162.965 227.579 163.311 227.579 163.768V164.888L227.607 165.35V172H226.613ZM225.297 165.476V164.65H229.847V165.476H225.297ZM234.062 172.07C233.352 172.07 232.713 171.911 232.144 171.594C231.584 171.267 231.14 170.824 230.814 170.264C230.487 169.695 230.324 169.046 230.324 168.318C230.324 167.581 230.487 166.932 230.814 166.372C231.14 165.812 231.584 165.373 232.144 165.056C232.704 164.739 233.343 164.58 234.062 164.58C234.79 164.58 235.434 164.739 235.994 165.056C236.563 165.373 237.006 165.812 237.324 166.372C237.65 166.932 237.814 167.581 237.814 168.318C237.814 169.046 237.65 169.695 237.324 170.264C237.006 170.824 236.563 171.267 235.994 171.594C235.424 171.911 234.78 172.07 234.062 172.07ZM234.062 171.188C234.594 171.188 235.065 171.071 235.476 170.838C235.886 170.595 236.208 170.259 236.442 169.83C236.684 169.391 236.806 168.887 236.806 168.318C236.806 167.739 236.684 167.235 236.442 166.806C236.208 166.377 235.886 166.045 235.476 165.812C235.065 165.569 234.598 165.448 234.076 165.448C233.553 165.448 233.086 165.569 232.676 165.812C232.265 166.045 231.938 166.377 231.696 166.806C231.453 167.235 231.332 167.739 231.332 168.318C231.332 168.887 231.453 169.391 231.696 169.83C231.938 170.259 232.265 170.595 232.676 170.838C233.086 171.071 233.548 171.188 234.062 171.188ZM242.881 172.07C242.256 172.07 241.71 171.953 241.243 171.72C240.776 171.487 240.412 171.137 240.151 170.67C239.899 170.203 239.773 169.62 239.773 168.92V164.65H240.767V168.808C240.767 169.592 240.958 170.185 241.341 170.586C241.733 170.978 242.279 171.174 242.979 171.174C243.492 171.174 243.936 171.071 244.309 170.866C244.692 170.651 244.981 170.343 245.177 169.942C245.382 169.541 245.485 169.06 245.485 168.5V164.65H246.479V172H245.527V169.984L245.681 170.348C245.448 170.889 245.084 171.314 244.589 171.622C244.104 171.921 243.534 172.07 242.881 172.07ZM253.001 164.58C253.599 164.58 254.121 164.697 254.569 164.93C255.027 165.154 255.381 165.499 255.633 165.966C255.895 166.433 256.025 167.021 256.025 167.73V172H255.031V167.828C255.031 167.053 254.835 166.47 254.443 166.078C254.061 165.677 253.519 165.476 252.819 165.476C252.297 165.476 251.839 165.583 251.447 165.798C251.065 166.003 250.766 166.307 250.551 166.708C250.346 167.1 250.243 167.576 250.243 168.136V172H249.249V164.65H250.201V166.666L250.047 166.288C250.281 165.756 250.654 165.341 251.167 165.042C251.681 164.734 252.292 164.58 253.001 164.58ZM261.636 172.07C260.936 172.07 260.306 171.911 259.746 171.594C259.196 171.277 258.762 170.838 258.444 170.278C258.127 169.709 257.968 169.055 257.968 168.318C257.968 167.571 258.127 166.918 258.444 166.358C258.762 165.798 259.196 165.364 259.746 165.056C260.306 164.739 260.936 164.58 261.636 164.58C262.28 164.58 262.854 164.725 263.358 165.014C263.872 165.303 264.278 165.728 264.576 166.288C264.884 166.839 265.038 167.515 265.038 168.318C265.038 169.111 264.889 169.788 264.59 170.348C264.292 170.908 263.886 171.337 263.372 171.636C262.868 171.925 262.29 172.07 261.636 172.07ZM261.706 171.188C262.229 171.188 262.696 171.071 263.106 170.838C263.526 170.595 263.853 170.259 264.086 169.83C264.329 169.391 264.45 168.887 264.45 168.318C264.45 167.739 264.329 167.235 264.086 166.806C263.853 166.377 263.526 166.045 263.106 165.812C262.696 165.569 262.229 165.448 261.706 165.448C261.193 165.448 260.731 165.569 260.32 165.812C259.91 166.045 259.583 166.377 259.34 166.806C259.098 167.235 258.976 167.739 258.976 168.318C258.976 168.887 259.098 169.391 259.34 169.83C259.583 170.259 259.91 170.595 260.32 170.838C260.731 171.071 261.193 171.188 261.706 171.188ZM264.478 172V169.788L264.576 168.304L264.436 166.82V161.612H265.43V172H264.478Z" fill="black"/>
<defs>
<clipPath id="clip0_2708_12850">
<rect width="177.83" height="140" fill="white" transform="translate(75.0852)"/>
</clipPath>
</defs>
</svg>
