<svg width="314" height="12" viewBox="0 0 314 12" fill="none" xmlns="http://www.w3.org/2000/svg">
<path d="M3.40234 9V1.368H0.450344V0.599999H7.24234V1.368H4.29034V9H3.40234ZM11.697 2.64C12.209 2.64 12.657 2.74 13.041 2.94C13.433 3.132 13.737 3.428 13.953 3.828C14.177 4.228 14.289 4.732 14.289 5.34V9H13.437V5.424C13.437 4.76 13.269 4.26 12.933 3.924C12.605 3.58 12.141 3.408 11.541 3.408C11.093 3.408 10.701 3.5 10.365 3.684C10.037 3.86 9.78097 4.12 9.59697 4.464C9.42097 4.8 9.33297 5.208 9.33297 5.688V9H8.48097V0.0959995H9.33297V4.428L9.16497 4.104C9.36497 3.648 9.68497 3.292 10.125 3.036C10.565 2.772 11.089 2.64 11.697 2.64ZM19.2663 9.06C18.6103 9.06 18.0343 8.924 17.5383 8.652C17.0423 8.372 16.6543 7.992 16.3743 7.512C16.0943 7.024 15.9543 6.468 15.9543 5.844C15.9543 5.22 16.0863 4.668 16.3503 4.188C16.6223 3.708 16.9903 3.332 17.4543 3.06C17.9263 2.78 18.4543 2.64 19.0383 2.64C19.6303 2.64 20.1543 2.776 20.6103 3.048C21.0743 3.312 21.4383 3.688 21.7023 4.176C21.9663 4.656 22.0983 5.212 22.0983 5.844C22.0983 5.884 22.0943 5.928 22.0863 5.976C22.0863 6.016 22.0863 6.06 22.0863 6.108H16.6023V5.472H21.6303L21.2943 5.724C21.2943 5.268 21.1943 4.864 20.9943 4.512C20.8023 4.152 20.5383 3.872 20.2023 3.672C19.8663 3.472 19.4783 3.372 19.0383 3.372C18.6063 3.372 18.2183 3.472 17.8743 3.672C17.5303 3.872 17.2623 4.152 17.0703 4.512C16.8783 4.872 16.7823 5.284 16.7823 5.748V5.88C16.7823 6.36 16.8863 6.784 17.0943 7.152C17.3103 7.512 17.6063 7.796 17.9823 8.004C18.3663 8.204 18.8023 8.304 19.2903 8.304C19.6743 8.304 20.0303 8.236 20.3583 8.1C20.6943 7.964 20.9823 7.756 21.2223 7.476L21.7023 8.028C21.4223 8.364 21.0703 8.62 20.6463 8.796C20.2303 8.972 19.7703 9.06 19.2663 9.06ZM23.8325 9V2.7H24.6485V4.416L24.5645 4.116C24.7405 3.636 25.0365 3.272 25.4525 3.024C25.8685 2.768 26.3845 2.64 27.0005 2.64V3.468C26.9685 3.468 26.9365 3.468 26.9045 3.468C26.8725 3.46 26.8405 3.456 26.8085 3.456C26.1445 3.456 25.6245 3.66 25.2485 4.068C24.8725 4.468 24.6845 5.04 24.6845 5.784V9H23.8325ZM31.1726 9.06C30.5166 9.06 29.9406 8.924 29.4446 8.652C28.9486 8.372 28.5606 7.992 28.2806 7.512C28.0006 7.024 27.8606 6.468 27.8606 5.844C27.8606 5.22 27.9926 4.668 28.2566 4.188C28.5286 3.708 28.8966 3.332 29.3606 3.06C29.8326 2.78 30.3606 2.64 30.9446 2.64C31.5366 2.64 32.0606 2.776 32.5166 3.048C32.9806 3.312 33.3446 3.688 33.6086 4.176C33.8726 4.656 34.0046 5.212 34.0046 5.844C34.0046 5.884 34.0006 5.928 33.9926 5.976C33.9926 6.016 33.9926 6.06 33.9926 6.108H28.5086V5.472H33.5366L33.2006 5.724C33.2006 5.268 33.1006 4.864 32.9006 4.512C32.7086 4.152 32.4446 3.872 32.1086 3.672C31.7726 3.472 31.3846 3.372 30.9446 3.372C30.5126 3.372 30.1246 3.472 29.7806 3.672C29.4366 3.872 29.1686 4.152 28.9766 4.512C28.7846 4.872 28.6886 5.284 28.6886 5.748V5.88C28.6886 6.36 28.7926 6.784 29.0006 7.152C29.2166 7.512 29.5126 7.796 29.8886 8.004C30.2726 8.204 30.7086 8.304 31.1966 8.304C31.5806 8.304 31.9366 8.236 32.2646 8.1C32.6006 7.964 32.8886 7.756 33.1286 7.476L33.6086 8.028C33.3286 8.364 32.9766 8.62 32.5526 8.796C32.1366 8.972 31.6766 9.06 31.1726 9.06ZM42.8274 9V7.608L42.7914 7.38V5.052C42.7914 4.516 42.6394 4.104 42.3354 3.816C42.0394 3.528 41.5954 3.384 41.0034 3.384C40.5954 3.384 40.2074 3.452 39.8394 3.588C39.4714 3.724 39.1594 3.904 38.9034 4.128L38.5194 3.492C38.8394 3.22 39.2234 3.012 39.6714 2.868C40.1194 2.716 40.5914 2.64 41.0874 2.64C41.9034 2.64 42.5314 2.844 42.9714 3.252C43.4194 3.652 43.6434 4.264 43.6434 5.088V9H42.8274ZM40.6554 9.06C40.1834 9.06 39.7714 8.984 39.4194 8.832C39.0754 8.672 38.8114 8.456 38.6274 8.184C38.4434 7.904 38.3514 7.584 38.3514 7.224C38.3514 6.896 38.4274 6.6 38.5794 6.336C38.7394 6.064 38.9954 5.848 39.3474 5.688C39.7074 5.52 40.1874 5.436 40.7874 5.436H42.9594V6.072H40.8114C40.2034 6.072 39.7794 6.18 39.5394 6.396C39.3074 6.612 39.1914 6.88 39.1914 7.2C39.1914 7.56 39.3314 7.848 39.6114 8.064C39.8914 8.28 40.2834 8.388 40.7874 8.388C41.2674 8.388 41.6794 8.28 42.0234 8.064C42.3754 7.84 42.6314 7.52 42.7914 7.104L42.9834 7.692C42.8234 8.108 42.5434 8.44 42.1434 8.688C41.7514 8.936 41.2554 9.06 40.6554 9.06ZM45.9575 9V2.7H46.7735V4.416L46.6895 4.116C46.8655 3.636 47.1615 3.272 47.5775 3.024C47.9935 2.768 48.5095 2.64 49.1255 2.64V3.468C49.0935 3.468 49.0615 3.468 49.0295 3.468C48.9975 3.46 48.9655 3.456 48.9335 3.456C48.2695 3.456 47.7495 3.66 47.3735 4.068C46.9975 4.468 46.8095 5.04 46.8095 5.784V9H45.9575ZM53.2976 9.06C52.6416 9.06 52.0656 8.924 51.5696 8.652C51.0736 8.372 50.6856 7.992 50.4056 7.512C50.1256 7.024 49.9856 6.468 49.9856 5.844C49.9856 5.22 50.1176 4.668 50.3816 4.188C50.6536 3.708 51.0216 3.332 51.4856 3.06C51.9576 2.78 52.4856 2.64 53.0696 2.64C53.6616 2.64 54.1856 2.776 54.6416 3.048C55.1056 3.312 55.4696 3.688 55.7336 4.176C55.9976 4.656 56.1296 5.212 56.1296 5.844C56.1296 5.884 56.1256 5.928 56.1176 5.976C56.1176 6.016 56.1176 6.06 56.1176 6.108H50.6336V5.472H55.6616L55.3256 5.724C55.3256 5.268 55.2256 4.864 55.0256 4.512C54.8336 4.152 54.5696 3.872 54.2336 3.672C53.8976 3.472 53.5096 3.372 53.0696 3.372C52.6376 3.372 52.2496 3.472 51.9056 3.672C51.5616 3.872 51.2936 4.152 51.1016 4.512C50.9096 4.872 50.8136 5.284 50.8136 5.748V5.88C50.8136 6.36 50.9176 6.784 51.1256 7.152C51.3416 7.512 51.6376 7.796 52.0136 8.004C52.3976 8.204 52.8336 8.304 53.3216 8.304C53.7056 8.304 54.0616 8.236 54.3896 8.1C54.7256 7.964 55.0136 7.756 55.2536 7.476L55.7336 8.028C55.4536 8.364 55.1016 8.62 54.6776 8.796C54.2616 8.972 53.8016 9.06 53.2976 9.06ZM64.2204 2.64C64.7324 2.64 65.1804 2.74 65.5644 2.94C65.9564 3.132 66.2604 3.428 66.4764 3.828C66.7004 4.228 66.8124 4.732 66.8124 5.34V9H65.9604V5.424C65.9604 4.76 65.7924 4.26 65.4564 3.924C65.1284 3.58 64.6644 3.408 64.0644 3.408C63.6164 3.408 63.2244 3.5 62.8884 3.684C62.5604 3.86 62.3044 4.12 62.1204 4.464C61.9444 4.8 61.8564 5.208 61.8564 5.688V9H61.0044V2.7H61.8204V4.428L61.6884 4.104C61.8884 3.648 62.2084 3.292 62.6484 3.036C63.0884 2.772 63.6124 2.64 64.2204 2.64ZM71.6818 9.06C71.0738 9.06 70.5258 8.924 70.0378 8.652C69.5578 8.372 69.1778 7.992 68.8978 7.512C68.6178 7.024 68.4778 6.468 68.4778 5.844C68.4778 5.212 68.6178 4.656 68.8978 4.176C69.1778 3.696 69.5578 3.32 70.0378 3.048C70.5178 2.776 71.0658 2.64 71.6818 2.64C72.3058 2.64 72.8578 2.776 73.3378 3.048C73.8258 3.32 74.2058 3.696 74.4778 4.176C74.7578 4.656 74.8978 5.212 74.8978 5.844C74.8978 6.468 74.7578 7.024 74.4778 7.512C74.2058 7.992 73.8258 8.372 73.3378 8.652C72.8498 8.924 72.2978 9.06 71.6818 9.06ZM71.6818 8.304C72.1378 8.304 72.5418 8.204 72.8938 8.004C73.2458 7.796 73.5218 7.508 73.7218 7.14C73.9298 6.764 74.0338 6.332 74.0338 5.844C74.0338 5.348 73.9298 4.916 73.7218 4.548C73.5218 4.18 73.2458 3.896 72.8938 3.696C72.5418 3.488 72.1418 3.384 71.6938 3.384C71.2458 3.384 70.8458 3.488 70.4938 3.696C70.1418 3.896 69.8618 4.18 69.6538 4.548C69.4458 4.916 69.3418 5.348 69.3418 5.844C69.3418 6.332 69.4458 6.764 69.6538 7.14C69.8618 7.508 70.1418 7.796 70.4938 8.004C70.8458 8.204 71.2418 8.304 71.6818 8.304ZM83.0298 9.06C82.4858 9.06 81.9938 8.936 81.5538 8.688C81.1138 8.432 80.7618 8.068 80.4978 7.596C80.2418 7.116 80.1138 6.532 80.1138 5.844C80.1138 5.156 80.2418 4.576 80.4978 4.104C80.7538 3.624 81.1018 3.26 81.5418 3.012C81.9818 2.764 82.4778 2.64 83.0298 2.64C83.6298 2.64 84.1658 2.776 84.6378 3.048C85.1178 3.312 85.4938 3.688 85.7658 4.176C86.0378 4.656 86.1738 5.212 86.1738 5.844C86.1738 6.484 86.0378 7.044 85.7658 7.524C85.4938 8.004 85.1178 8.38 84.6378 8.652C84.1658 8.924 83.6298 9.06 83.0298 9.06ZM79.7778 11.328V2.7H80.5938V4.596L80.5098 5.856L80.6298 7.128V11.328H79.7778ZM82.9698 8.304C83.4178 8.304 83.8178 8.204 84.1698 8.004C84.5218 7.796 84.8018 7.508 85.0098 7.14C85.2178 6.764 85.3218 6.332 85.3218 5.844C85.3218 5.356 85.2178 4.928 85.0098 4.56C84.8018 4.192 84.5218 3.904 84.1698 3.696C83.8178 3.488 83.4178 3.384 82.9698 3.384C82.5218 3.384 82.1178 3.488 81.7578 3.696C81.4058 3.904 81.1258 4.192 80.9178 4.56C80.7178 4.928 80.6178 5.356 80.6178 5.844C80.6178 6.332 80.7178 6.764 80.9178 7.14C81.1258 7.508 81.4058 7.796 81.7578 8.004C82.1178 8.204 82.5218 8.304 82.9698 8.304ZM90.5867 9.06C89.9307 9.06 89.3547 8.924 88.8587 8.652C88.3627 8.372 87.9747 7.992 87.6947 7.512C87.4147 7.024 87.2747 6.468 87.2747 5.844C87.2747 5.22 87.4067 4.668 87.6707 4.188C87.9427 3.708 88.3107 3.332 88.7747 3.06C89.2467 2.78 89.7747 2.64 90.3587 2.64C90.9507 2.64 91.4747 2.776 91.9307 3.048C92.3947 3.312 92.7587 3.688 93.0227 4.176C93.2867 4.656 93.4187 5.212 93.4187 5.844C93.4187 5.884 93.4147 5.928 93.4067 5.976C93.4067 6.016 93.4067 6.06 93.4067 6.108H87.9227V5.472H92.9507L92.6147 5.724C92.6147 5.268 92.5147 4.864 92.3147 4.512C92.1227 4.152 91.8587 3.872 91.5227 3.672C91.1867 3.472 90.7987 3.372 90.3587 3.372C89.9267 3.372 89.5387 3.472 89.1947 3.672C88.8507 3.872 88.5827 4.152 88.3907 4.512C88.1987 4.872 88.1027 5.284 88.1027 5.748V5.88C88.1027 6.36 88.2067 6.784 88.4147 7.152C88.6307 7.512 88.9267 7.796 89.3027 8.004C89.6867 8.204 90.1227 8.304 90.6107 8.304C90.9947 8.304 91.3507 8.236 91.6787 8.1C92.0147 7.964 92.3027 7.756 92.5427 7.476L93.0227 8.028C92.7427 8.364 92.3907 8.62 91.9667 8.796C91.5507 8.972 91.0907 9.06 90.5867 9.06ZM98.3688 2.64C98.8808 2.64 99.3288 2.74 99.7128 2.94C100.105 3.132 100.409 3.428 100.625 3.828C100.849 4.228 100.961 4.732 100.961 5.34V9H100.109V5.424C100.109 4.76 99.9408 4.26 99.6048 3.924C99.2768 3.58 98.8128 3.408 98.2128 3.408C97.7648 3.408 97.3728 3.5 97.0368 3.684C96.7088 3.86 96.4528 4.12 96.2688 4.464C96.0928 4.8 96.0048 5.208 96.0048 5.688V9H95.1528V2.7H95.9688V4.428L95.8368 4.104C96.0368 3.648 96.3568 3.292 96.7968 3.036C97.2368 2.772 97.7608 2.64 98.3688 2.64ZM105.77 9.06C105.17 9.06 104.63 8.924 104.15 8.652C103.678 8.38 103.306 8.004 103.034 7.524C102.762 7.036 102.626 6.476 102.626 5.844C102.626 5.204 102.762 4.644 103.034 4.164C103.306 3.684 103.678 3.312 104.15 3.048C104.63 2.776 105.17 2.64 105.77 2.64C106.322 2.64 106.814 2.764 107.246 3.012C107.686 3.26 108.034 3.624 108.29 4.104C108.554 4.576 108.686 5.156 108.686 5.844C108.686 6.524 108.558 7.104 108.302 7.584C108.046 8.064 107.698 8.432 107.258 8.688C106.826 8.936 106.33 9.06 105.77 9.06ZM105.83 8.304C106.278 8.304 106.678 8.204 107.03 8.004C107.39 7.796 107.67 7.508 107.87 7.14C108.078 6.764 108.182 6.332 108.182 5.844C108.182 5.348 108.078 4.916 107.87 4.548C107.67 4.18 107.39 3.896 107.03 3.696C106.678 3.488 106.278 3.384 105.83 3.384C105.39 3.384 104.994 3.488 104.642 3.696C104.29 3.896 104.01 4.18 103.802 4.548C103.594 4.916 103.49 5.348 103.49 5.844C103.49 6.332 103.594 6.764 103.802 7.14C104.01 7.508 104.29 7.796 104.642 8.004C104.994 8.204 105.39 8.304 105.83 8.304ZM108.206 9V7.104L108.29 5.832L108.17 4.56V0.0959995H109.022V9H108.206ZM111.395 9V2.7H112.247V9H111.395ZM111.827 1.308C111.651 1.308 111.503 1.248 111.383 1.128C111.263 1.008 111.203 0.864 111.203 0.696C111.203 0.527999 111.263 0.387999 111.383 0.275999C111.503 0.155999 111.651 0.0959995 111.827 0.0959995C112.003 0.0959995 112.151 0.151999 112.271 0.263999C112.391 0.375999 112.451 0.516 112.451 0.684C112.451 0.86 112.391 1.008 112.271 1.128C112.159 1.248 112.011 1.308 111.827 1.308ZM117.834 2.64C118.346 2.64 118.794 2.74 119.178 2.94C119.57 3.132 119.874 3.428 120.09 3.828C120.314 4.228 120.426 4.732 120.426 5.34V9H119.574V5.424C119.574 4.76 119.406 4.26 119.07 3.924C118.742 3.58 118.278 3.408 117.678 3.408C117.23 3.408 116.838 3.5 116.502 3.684C116.174 3.86 115.918 4.12 115.734 4.464C115.558 4.8 115.47 5.208 115.47 5.688V9H114.618V2.7H115.434V4.428L115.302 4.104C115.502 3.648 115.822 3.292 116.262 3.036C116.702 2.772 117.226 2.64 117.834 2.64ZM125.415 11.388C124.839 11.388 124.287 11.304 123.759 11.136C123.231 10.968 122.803 10.728 122.475 10.416L122.907 9.768C123.203 10.032 123.567 10.24 123.999 10.392C124.439 10.552 124.903 10.632 125.391 10.632C126.191 10.632 126.779 10.444 127.155 10.068C127.531 9.7 127.719 9.124 127.719 8.34V6.768L127.839 5.688L127.755 4.608V2.7H128.571V8.232C128.571 9.32 128.303 10.116 127.767 10.62C127.239 11.132 126.455 11.388 125.415 11.388ZM125.259 8.76C124.659 8.76 124.119 8.632 123.639 8.376C123.159 8.112 122.779 7.748 122.499 7.284C122.227 6.82 122.091 6.288 122.091 5.688C122.091 5.088 122.227 4.56 122.499 4.104C122.779 3.64 123.159 3.28 123.639 3.024C124.119 2.768 124.659 2.64 125.259 2.64C125.819 2.64 126.323 2.756 126.771 2.988C127.219 3.22 127.575 3.564 127.839 4.02C128.103 4.476 128.235 5.032 128.235 5.688C128.235 6.344 128.103 6.9 127.839 7.356C127.575 7.812 127.219 8.16 126.771 8.4C126.323 8.64 125.819 8.76 125.259 8.76ZM125.343 8.004C125.807 8.004 126.219 7.908 126.579 7.716C126.939 7.516 127.223 7.244 127.431 6.9C127.639 6.548 127.743 6.144 127.743 5.688C127.743 5.232 127.639 4.832 127.431 4.488C127.223 4.144 126.939 3.876 126.579 3.684C126.219 3.484 125.807 3.384 125.343 3.384C124.887 3.384 124.475 3.484 124.107 3.684C123.747 3.876 123.463 4.144 123.255 4.488C123.055 4.832 122.955 5.232 122.955 5.688C122.955 6.144 123.055 6.548 123.255 6.9C123.463 7.244 123.747 7.516 124.107 7.716C124.475 7.908 124.887 8.004 125.343 8.004ZM134.083 9V0.0959995H134.935V9H134.083ZM139.981 9.06C139.325 9.06 138.749 8.924 138.253 8.652C137.757 8.372 137.369 7.992 137.089 7.512C136.809 7.024 136.669 6.468 136.669 5.844C136.669 5.22 136.801 4.668 137.065 4.188C137.337 3.708 137.705 3.332 138.169 3.06C138.641 2.78 139.169 2.64 139.753 2.64C140.345 2.64 140.869 2.776 141.325 3.048C141.789 3.312 142.153 3.688 142.417 4.176C142.681 4.656 142.813 5.212 142.813 5.844C142.813 5.884 142.809 5.928 142.801 5.976C142.801 6.016 142.801 6.06 142.801 6.108H137.317V5.472H142.345L142.009 5.724C142.009 5.268 141.909 4.864 141.709 4.512C141.517 4.152 141.253 3.872 140.917 3.672C140.581 3.472 140.193 3.372 139.753 3.372C139.321 3.372 138.933 3.472 138.589 3.672C138.245 3.872 137.977 4.152 137.785 4.512C137.593 4.872 137.497 5.284 137.497 5.748V5.88C137.497 6.36 137.601 6.784 137.809 7.152C138.025 7.512 138.321 7.796 138.697 8.004C139.081 8.204 139.517 8.304 140.005 8.304C140.389 8.304 140.745 8.236 141.073 8.1C141.409 7.964 141.697 7.756 141.937 7.476L142.417 8.028C142.137 8.364 141.785 8.62 141.361 8.796C140.945 8.972 140.485 9.06 139.981 9.06ZM148.32 9V7.608L148.284 7.38V5.052C148.284 4.516 148.132 4.104 147.828 3.816C147.532 3.528 147.088 3.384 146.496 3.384C146.088 3.384 145.7 3.452 145.332 3.588C144.964 3.724 144.652 3.904 144.396 4.128L144.012 3.492C144.332 3.22 144.716 3.012 145.164 2.868C145.612 2.716 146.084 2.64 146.58 2.64C147.396 2.64 148.024 2.844 148.464 3.252C148.912 3.652 149.136 4.264 149.136 5.088V9H148.32ZM146.148 9.06C145.676 9.06 145.264 8.984 144.912 8.832C144.568 8.672 144.304 8.456 144.12 8.184C143.936 7.904 143.844 7.584 143.844 7.224C143.844 6.896 143.92 6.6 144.072 6.336C144.232 6.064 144.488 5.848 144.84 5.688C145.2 5.52 145.68 5.436 146.28 5.436H148.452V6.072H146.304C145.696 6.072 145.272 6.18 145.032 6.396C144.8 6.612 144.684 6.88 144.684 7.2C144.684 7.56 144.824 7.848 145.104 8.064C145.384 8.28 145.776 8.388 146.28 8.388C146.76 8.388 147.172 8.28 147.516 8.064C147.868 7.84 148.124 7.52 148.284 7.104L148.476 7.692C148.316 8.108 148.036 8.44 147.636 8.688C147.244 8.936 146.748 9.06 146.148 9.06ZM152.953 9L150.157 2.7H151.045L153.613 8.544H153.193L155.797 2.7H156.637L153.829 9H152.953ZM160.337 9.06C159.681 9.06 159.105 8.924 158.609 8.652C158.113 8.372 157.725 7.992 157.445 7.512C157.165 7.024 157.025 6.468 157.025 5.844C157.025 5.22 157.157 4.668 157.421 4.188C157.693 3.708 158.061 3.332 158.525 3.06C158.997 2.78 159.525 2.64 160.109 2.64C160.701 2.64 161.225 2.776 161.681 3.048C162.145 3.312 162.509 3.688 162.773 4.176C163.037 4.656 163.169 5.212 163.169 5.844C163.169 5.884 163.165 5.928 163.157 5.976C163.157 6.016 163.157 6.06 163.157 6.108H157.673V5.472H162.701L162.365 5.724C162.365 5.268 162.265 4.864 162.065 4.512C161.873 4.152 161.609 3.872 161.273 3.672C160.937 3.472 160.549 3.372 160.109 3.372C159.677 3.372 159.289 3.472 158.945 3.672C158.601 3.872 158.333 4.152 158.141 4.512C157.949 4.872 157.853 5.284 157.853 5.748V5.88C157.853 6.36 157.957 6.784 158.165 7.152C158.381 7.512 158.677 7.796 159.053 8.004C159.437 8.204 159.873 8.304 160.361 8.304C160.745 8.304 161.101 8.236 161.429 8.1C161.765 7.964 162.053 7.756 162.293 7.476L162.773 8.028C162.493 8.364 162.141 8.62 161.717 8.796C161.301 8.972 160.841 9.06 160.337 9.06ZM168.043 9V2.7H168.859V4.416L168.775 4.116C168.951 3.636 169.247 3.272 169.663 3.024C170.079 2.768 170.595 2.64 171.211 2.64V3.468C171.179 3.468 171.147 3.468 171.115 3.468C171.083 3.46 171.051 3.456 171.019 3.456C170.355 3.456 169.835 3.66 169.459 4.068C169.083 4.468 168.895 5.04 168.895 5.784V9H168.043ZM175.384 9.06C174.728 9.06 174.152 8.924 173.656 8.652C173.16 8.372 172.772 7.992 172.492 7.512C172.212 7.024 172.072 6.468 172.072 5.844C172.072 5.22 172.204 4.668 172.468 4.188C172.74 3.708 173.108 3.332 173.572 3.06C174.044 2.78 174.572 2.64 175.156 2.64C175.748 2.64 176.272 2.776 176.728 3.048C177.192 3.312 177.556 3.688 177.82 4.176C178.084 4.656 178.216 5.212 178.216 5.844C178.216 5.884 178.212 5.928 178.204 5.976C178.204 6.016 178.204 6.06 178.204 6.108H172.72V5.472H177.748L177.412 5.724C177.412 5.268 177.312 4.864 177.112 4.512C176.92 4.152 176.656 3.872 176.32 3.672C175.984 3.472 175.596 3.372 175.156 3.372C174.724 3.372 174.336 3.472 173.992 3.672C173.648 3.872 173.38 4.152 173.188 4.512C172.996 4.872 172.9 5.284 172.9 5.748V5.88C172.9 6.36 173.004 6.784 173.212 7.152C173.428 7.512 173.724 7.796 174.1 8.004C174.484 8.204 174.92 8.304 175.408 8.304C175.792 8.304 176.148 8.236 176.476 8.1C176.812 7.964 177.1 7.756 177.34 7.476L177.82 8.028C177.54 8.364 177.188 8.62 176.764 8.796C176.348 8.972 175.888 9.06 175.384 9.06ZM182.458 9.06C181.858 9.06 181.318 8.924 180.838 8.652C180.366 8.38 179.994 8.004 179.722 7.524C179.45 7.044 179.314 6.484 179.314 5.844C179.314 5.212 179.45 4.656 179.722 4.176C179.994 3.688 180.366 3.312 180.838 3.048C181.318 2.776 181.858 2.64 182.458 2.64C183.018 2.64 183.514 2.764 183.946 3.012C184.386 3.26 184.734 3.624 184.99 4.104C185.246 4.576 185.374 5.156 185.374 5.844C185.374 6.532 185.242 7.116 184.978 7.596C184.722 8.068 184.374 8.432 183.934 8.688C183.502 8.936 183.01 9.06 182.458 9.06ZM182.518 8.304C182.966 8.304 183.366 8.204 183.718 8.004C184.078 7.796 184.358 7.508 184.558 7.14C184.766 6.764 184.87 6.332 184.87 5.844C184.87 5.356 184.766 4.928 184.558 4.56C184.358 4.192 184.078 3.904 183.718 3.696C183.366 3.488 182.966 3.384 182.518 3.384C182.078 3.384 181.682 3.488 181.33 3.696C180.978 3.904 180.698 4.192 180.49 4.56C180.282 4.928 180.178 5.356 180.178 5.844C180.178 6.332 180.282 6.764 180.49 7.14C180.698 7.508 180.978 7.796 181.33 8.004C181.682 8.204 182.078 8.304 182.518 8.304ZM184.858 11.328V7.128L184.978 5.856L184.894 4.596V2.7H185.71V11.328H184.858ZM190.687 9.06C190.151 9.06 189.683 8.96 189.283 8.76C188.883 8.56 188.571 8.26 188.347 7.86C188.131 7.46 188.023 6.96 188.023 6.36V2.7H188.875V6.264C188.875 6.936 189.039 7.444 189.367 7.788C189.703 8.124 190.171 8.292 190.771 8.292C191.211 8.292 191.591 8.204 191.911 8.028C192.239 7.844 192.487 7.58 192.655 7.236C192.831 6.892 192.919 6.48 192.919 6V2.7H193.771V9H192.955V7.272L193.087 7.584C192.887 8.048 192.575 8.412 192.151 8.676C191.735 8.932 191.247 9.06 190.687 9.06ZM198.821 9.06C198.165 9.06 197.589 8.924 197.093 8.652C196.597 8.372 196.209 7.992 195.929 7.512C195.649 7.024 195.509 6.468 195.509 5.844C195.509 5.22 195.641 4.668 195.905 4.188C196.177 3.708 196.545 3.332 197.009 3.06C197.481 2.78 198.009 2.64 198.593 2.64C199.185 2.64 199.709 2.776 200.165 3.048C200.629 3.312 200.993 3.688 201.257 4.176C201.521 4.656 201.653 5.212 201.653 5.844C201.653 5.884 201.649 5.928 201.641 5.976C201.641 6.016 201.641 6.06 201.641 6.108H196.157V5.472H201.185L200.849 5.724C200.849 5.268 200.749 4.864 200.549 4.512C200.357 4.152 200.093 3.872 199.757 3.672C199.421 3.472 199.033 3.372 198.593 3.372C198.161 3.372 197.773 3.472 197.429 3.672C197.085 3.872 196.817 4.152 196.625 4.512C196.433 4.872 196.337 5.284 196.337 5.748V5.88C196.337 6.36 196.441 6.784 196.649 7.152C196.865 7.512 197.161 7.796 197.537 8.004C197.921 8.204 198.357 8.304 198.845 8.304C199.229 8.304 199.585 8.236 199.913 8.1C200.249 7.964 200.537 7.756 200.777 7.476L201.257 8.028C200.977 8.364 200.625 8.62 200.201 8.796C199.785 8.972 199.325 9.06 198.821 9.06ZM205.079 9.06C204.559 9.06 204.067 8.988 203.603 8.844C203.139 8.692 202.775 8.504 202.511 8.28L202.895 7.608C203.151 7.8 203.479 7.968 203.879 8.112C204.279 8.248 204.699 8.316 205.139 8.316C205.739 8.316 206.171 8.224 206.435 8.04C206.699 7.848 206.831 7.596 206.831 7.284C206.831 7.052 206.755 6.872 206.603 6.744C206.459 6.608 206.267 6.508 206.027 6.444C205.787 6.372 205.519 6.312 205.223 6.264C204.927 6.216 204.631 6.16 204.335 6.096C204.047 6.032 203.783 5.94 203.543 5.82C203.303 5.692 203.107 5.52 202.955 5.304C202.811 5.088 202.739 4.8 202.739 4.44C202.739 4.096 202.835 3.788 203.027 3.516C203.219 3.244 203.499 3.032 203.867 2.88C204.243 2.72 204.699 2.64 205.235 2.64C205.643 2.64 206.051 2.696 206.459 2.808C206.867 2.912 207.203 3.052 207.467 3.228L207.095 3.912C206.815 3.72 206.515 3.584 206.195 3.504C205.875 3.416 205.555 3.372 205.235 3.372C204.667 3.372 204.247 3.472 203.975 3.672C203.711 3.864 203.579 4.112 203.579 4.416C203.579 4.656 203.651 4.844 203.795 4.98C203.947 5.116 204.143 5.224 204.383 5.304C204.631 5.376 204.899 5.436 205.187 5.484C205.483 5.532 205.775 5.592 206.063 5.664C206.359 5.728 206.627 5.82 206.867 5.94C207.115 6.052 207.311 6.216 207.455 6.432C207.607 6.64 207.683 6.916 207.683 7.26C207.683 7.628 207.579 7.948 207.371 8.22C207.171 8.484 206.875 8.692 206.483 8.844C206.099 8.988 205.631 9.06 205.079 9.06ZM211.239 9.06C210.647 9.06 210.191 8.9 209.871 8.58C209.551 8.26 209.391 7.808 209.391 7.224V1.308H210.243V7.176C210.243 7.544 210.335 7.828 210.519 8.028C210.711 8.228 210.983 8.328 211.335 8.328C211.711 8.328 212.023 8.22 212.271 8.004L212.571 8.616C212.403 8.768 212.199 8.88 211.959 8.952C211.727 9.024 211.487 9.06 211.239 9.06ZM208.263 3.408V2.7H212.163V3.408H208.263ZM215.814 9.06C215.294 9.06 214.802 8.988 214.338 8.844C213.874 8.692 213.51 8.504 213.246 8.28L213.63 7.608C213.886 7.8 214.214 7.968 214.614 8.112C215.014 8.248 215.434 8.316 215.874 8.316C216.474 8.316 216.906 8.224 217.17 8.04C217.434 7.848 217.566 7.596 217.566 7.284C217.566 7.052 217.49 6.872 217.338 6.744C217.194 6.608 217.002 6.508 216.762 6.444C216.522 6.372 216.254 6.312 215.958 6.264C215.662 6.216 215.366 6.16 215.07 6.096C214.782 6.032 214.518 5.94 214.278 5.82C214.038 5.692 213.842 5.52 213.69 5.304C213.546 5.088 213.474 4.8 213.474 4.44C213.474 4.096 213.57 3.788 213.762 3.516C213.954 3.244 214.234 3.032 214.602 2.88C214.978 2.72 215.434 2.64 215.97 2.64C216.378 2.64 216.786 2.696 217.194 2.808C217.602 2.912 217.938 3.052 218.202 3.228L217.83 3.912C217.55 3.72 217.25 3.584 216.93 3.504C216.61 3.416 216.29 3.372 215.97 3.372C215.402 3.372 214.982 3.472 214.71 3.672C214.446 3.864 214.314 4.112 214.314 4.416C214.314 4.656 214.386 4.844 214.53 4.98C214.682 5.116 214.878 5.224 215.118 5.304C215.366 5.376 215.634 5.436 215.922 5.484C216.218 5.532 216.51 5.592 216.798 5.664C217.094 5.728 217.362 5.82 217.602 5.94C217.85 6.052 218.046 6.216 218.19 6.432C218.342 6.64 218.418 6.916 218.418 7.26C218.418 7.628 218.314 7.948 218.106 8.22C217.906 8.484 217.61 8.692 217.218 8.844C216.834 8.988 216.366 9.06 215.814 9.06ZM227.07 9V7.608L227.034 7.38V5.052C227.034 4.516 226.882 4.104 226.578 3.816C226.282 3.528 225.838 3.384 225.246 3.384C224.838 3.384 224.45 3.452 224.082 3.588C223.714 3.724 223.402 3.904 223.146 4.128L222.762 3.492C223.082 3.22 223.466 3.012 223.914 2.868C224.362 2.716 224.834 2.64 225.33 2.64C226.146 2.64 226.774 2.844 227.214 3.252C227.662 3.652 227.886 4.264 227.886 5.088V9H227.07ZM224.898 9.06C224.426 9.06 224.014 8.984 223.662 8.832C223.318 8.672 223.054 8.456 222.87 8.184C222.686 7.904 222.594 7.584 222.594 7.224C222.594 6.896 222.67 6.6 222.822 6.336C222.982 6.064 223.238 5.848 223.59 5.688C223.95 5.52 224.43 5.436 225.03 5.436H227.202V6.072H225.054C224.446 6.072 224.022 6.18 223.782 6.396C223.55 6.612 223.434 6.88 223.434 7.2C223.434 7.56 223.574 7.848 223.854 8.064C224.134 8.28 224.526 8.388 225.03 8.388C225.51 8.388 225.922 8.28 226.266 8.064C226.618 7.84 226.874 7.52 227.034 7.104L227.226 7.692C227.066 8.108 226.786 8.44 226.386 8.688C225.994 8.936 225.498 9.06 224.898 9.06ZM232.192 9.06C231.6 9.06 231.144 8.9 230.824 8.58C230.504 8.26 230.344 7.808 230.344 7.224V1.308H231.196V7.176C231.196 7.544 231.288 7.828 231.472 8.028C231.664 8.228 231.936 8.328 232.288 8.328C232.664 8.328 232.976 8.22 233.224 8.004L233.524 8.616C233.356 8.768 233.152 8.88 232.912 8.952C232.68 9.024 232.44 9.06 232.192 9.06ZM229.216 3.408V2.7H233.116V3.408H229.216ZM240.207 9.06C239.615 9.06 239.159 8.9 238.839 8.58C238.519 8.26 238.359 7.808 238.359 7.224V1.308H239.211V7.176C239.211 7.544 239.303 7.828 239.487 8.028C239.679 8.228 239.951 8.328 240.303 8.328C240.679 8.328 240.991 8.22 241.239 8.004L241.539 8.616C241.371 8.768 241.167 8.88 240.927 8.952C240.695 9.024 240.455 9.06 240.207 9.06ZM237.231 3.408V2.7H241.131V3.408H237.231ZM246.306 2.64C246.818 2.64 247.266 2.74 247.65 2.94C248.042 3.132 248.346 3.428 248.562 3.828C248.786 4.228 248.898 4.732 248.898 5.34V9H248.046V5.424C248.046 4.76 247.878 4.26 247.542 3.924C247.214 3.58 246.75 3.408 246.15 3.408C245.702 3.408 245.31 3.5 244.974 3.684C244.646 3.86 244.39 4.12 244.206 4.464C244.03 4.8 243.942 5.208 243.942 5.688V9H243.09V0.0959995H243.942V4.428L243.774 4.104C243.974 3.648 244.294 3.292 244.734 3.036C245.174 2.772 245.698 2.64 246.306 2.64ZM253.876 9.06C253.22 9.06 252.644 8.924 252.148 8.652C251.652 8.372 251.264 7.992 250.984 7.512C250.704 7.024 250.564 6.468 250.564 5.844C250.564 5.22 250.696 4.668 250.96 4.188C251.232 3.708 251.6 3.332 252.064 3.06C252.536 2.78 253.064 2.64 253.648 2.64C254.24 2.64 254.764 2.776 255.22 3.048C255.684 3.312 256.048 3.688 256.312 4.176C256.576 4.656 256.708 5.212 256.708 5.844C256.708 5.884 256.704 5.928 256.696 5.976C256.696 6.016 256.696 6.06 256.696 6.108H251.212V5.472H256.24L255.904 5.724C255.904 5.268 255.804 4.864 255.604 4.512C255.412 4.152 255.148 3.872 254.812 3.672C254.476 3.472 254.088 3.372 253.648 3.372C253.216 3.372 252.828 3.472 252.484 3.672C252.14 3.872 251.872 4.152 251.68 4.512C251.488 4.872 251.392 5.284 251.392 5.748V5.88C251.392 6.36 251.496 6.784 251.704 7.152C251.92 7.512 252.216 7.796 252.592 8.004C252.976 8.204 253.412 8.304 253.9 8.304C254.284 8.304 254.64 8.236 254.968 8.1C255.304 7.964 255.592 7.756 255.832 7.476L256.312 8.028C256.032 8.364 255.68 8.62 255.256 8.796C254.84 8.972 254.38 9.06 253.876 9.06ZM269.455 2.64C269.967 2.64 270.411 2.74 270.787 2.94C271.171 3.132 271.467 3.428 271.675 3.828C271.891 4.228 271.999 4.732 271.999 5.34V9H271.147V5.424C271.147 4.76 270.987 4.26 270.667 3.924C270.355 3.58 269.911 3.408 269.335 3.408C268.903 3.408 268.527 3.5 268.207 3.684C267.895 3.86 267.651 4.12 267.475 4.464C267.307 4.8 267.223 5.208 267.223 5.688V9H266.371V5.424C266.371 4.76 266.211 4.26 265.891 3.924C265.571 3.58 265.123 3.408 264.547 3.408C264.123 3.408 263.751 3.5 263.431 3.684C263.111 3.86 262.863 4.12 262.687 4.464C262.519 4.8 262.435 5.208 262.435 5.688V9H261.583V2.7H262.399V4.404L262.267 4.104C262.459 3.648 262.767 3.292 263.191 3.036C263.623 2.772 264.131 2.64 264.715 2.64C265.331 2.64 265.855 2.796 266.287 3.108C266.719 3.412 266.999 3.872 267.127 4.488L266.791 4.356C266.975 3.844 267.299 3.432 267.763 3.12C268.235 2.8 268.799 2.64 269.455 2.64ZM276.877 9.06C276.269 9.06 275.721 8.924 275.233 8.652C274.753 8.372 274.373 7.992 274.093 7.512C273.813 7.024 273.673 6.468 273.673 5.844C273.673 5.212 273.813 4.656 274.093 4.176C274.373 3.696 274.753 3.32 275.233 3.048C275.713 2.776 276.261 2.64 276.877 2.64C277.501 2.64 278.053 2.776 278.533 3.048C279.021 3.32 279.401 3.696 279.673 4.176C279.953 4.656 280.093 5.212 280.093 5.844C280.093 6.468 279.953 7.024 279.673 7.512C279.401 7.992 279.021 8.372 278.533 8.652C278.045 8.924 277.493 9.06 276.877 9.06ZM276.877 8.304C277.333 8.304 277.737 8.204 278.089 8.004C278.441 7.796 278.717 7.508 278.917 7.14C279.125 6.764 279.229 6.332 279.229 5.844C279.229 5.348 279.125 4.916 278.917 4.548C278.717 4.18 278.441 3.896 278.089 3.696C277.737 3.488 277.337 3.384 276.889 3.384C276.441 3.384 276.041 3.488 275.689 3.696C275.337 3.896 275.057 4.18 274.849 4.548C274.641 4.916 274.537 5.348 274.537 5.844C274.537 6.332 274.641 6.764 274.849 7.14C275.057 7.508 275.337 7.796 275.689 8.004C276.041 8.204 276.437 8.304 276.877 8.304ZM289.705 2.64C290.217 2.64 290.661 2.74 291.037 2.94C291.421 3.132 291.717 3.428 291.925 3.828C292.141 4.228 292.249 4.732 292.249 5.34V9H291.397V5.424C291.397 4.76 291.237 4.26 290.917 3.924C290.605 3.58 290.161 3.408 289.585 3.408C289.153 3.408 288.777 3.5 288.457 3.684C288.145 3.86 287.901 4.12 287.725 4.464C287.557 4.8 287.473 5.208 287.473 5.688V9H286.621V5.424C286.621 4.76 286.461 4.26 286.141 3.924C285.821 3.58 285.373 3.408 284.797 3.408C284.373 3.408 284.001 3.5 283.681 3.684C283.361 3.86 283.113 4.12 282.937 4.464C282.769 4.8 282.685 5.208 282.685 5.688V9H281.833V2.7H282.649V4.404L282.517 4.104C282.709 3.648 283.017 3.292 283.441 3.036C283.873 2.772 284.381 2.64 284.965 2.64C285.581 2.64 286.105 2.796 286.537 3.108C286.969 3.412 287.249 3.872 287.377 4.488L287.041 4.356C287.225 3.844 287.549 3.432 288.013 3.12C288.485 2.8 289.049 2.64 289.705 2.64ZM297.235 9.06C296.579 9.06 296.003 8.924 295.507 8.652C295.011 8.372 294.623 7.992 294.343 7.512C294.063 7.024 293.923 6.468 293.923 5.844C293.923 5.22 294.055 4.668 294.319 4.188C294.591 3.708 294.959 3.332 295.423 3.06C295.895 2.78 296.423 2.64 297.007 2.64C297.599 2.64 298.123 2.776 298.579 3.048C299.043 3.312 299.407 3.688 299.671 4.176C299.935 4.656 300.067 5.212 300.067 5.844C300.067 5.884 300.063 5.928 300.055 5.976C300.055 6.016 300.055 6.06 300.055 6.108H294.571V5.472H299.599L299.263 5.724C299.263 5.268 299.163 4.864 298.963 4.512C298.771 4.152 298.507 3.872 298.171 3.672C297.835 3.472 297.447 3.372 297.007 3.372C296.575 3.372 296.187 3.472 295.843 3.672C295.499 3.872 295.231 4.152 295.039 4.512C294.847 4.872 294.751 5.284 294.751 5.748V5.88C294.751 6.36 294.855 6.784 295.063 7.152C295.279 7.512 295.575 7.796 295.951 8.004C296.335 8.204 296.771 8.304 297.259 8.304C297.643 8.304 297.999 8.236 298.327 8.1C298.663 7.964 298.951 7.756 299.191 7.476L299.671 8.028C299.391 8.364 299.039 8.62 298.615 8.796C298.199 8.972 297.739 9.06 297.235 9.06ZM305.017 2.64C305.529 2.64 305.977 2.74 306.361 2.94C306.753 3.132 307.057 3.428 307.273 3.828C307.497 4.228 307.609 4.732 307.609 5.34V9H306.757V5.424C306.757 4.76 306.589 4.26 306.253 3.924C305.925 3.58 305.461 3.408 304.861 3.408C304.413 3.408 304.021 3.5 303.685 3.684C303.357 3.86 303.101 4.12 302.917 4.464C302.741 4.8 302.653 5.208 302.653 5.688V9H301.801V2.7H302.617V4.428L302.485 4.104C302.685 3.648 303.005 3.292 303.445 3.036C303.885 2.772 304.409 2.64 305.017 2.64ZM311.903 9.06C311.311 9.06 310.855 8.9 310.535 8.58C310.215 8.26 310.055 7.808 310.055 7.224V1.308H310.907V7.176C310.907 7.544 310.999 7.828 311.183 8.028C311.375 8.228 311.647 8.328 311.999 8.328C312.375 8.328 312.687 8.22 312.935 8.004L313.235 8.616C313.067 8.768 312.863 8.88 312.623 8.952C312.391 9.024 312.151 9.06 311.903 9.06ZM308.927 3.408V2.7H312.827V3.408H308.927Z" fill="#2D3439"/>
</svg>
