<svg width="25" height="24" viewBox="0 0 25 24" fill="none" xmlns="http://www.w3.org/2000/svg">
<path d="M13.0834 9.75C13.0834 9.55109 13.1624 9.36032 13.303 9.21967C13.4437 9.07902 13.6345 9 13.8334 9H16.0834C16.2823 9 16.4731 9.07902 16.6137 9.21967C16.7544 9.36032 16.8334 9.55109 16.8334 9.75C16.8334 9.94891 16.7544 10.1397 16.6137 10.2803C16.4731 10.421 16.2823 10.5 16.0834 10.5H13.8334C13.6345 10.5 13.4437 10.421 13.303 10.2803C13.1624 10.1397 13.0834 9.94891 13.0834 9.75ZM13.0834 15.75C13.0834 15.5511 13.1624 15.3603 13.303 15.2197C13.4437 15.079 13.6345 15 13.8334 15H16.0834C16.2823 15 16.4731 15.079 16.6137 15.2197C16.7544 15.3603 16.8334 15.5511 16.8334 15.75C16.8334 15.9489 16.7544 16.1397 16.6137 16.2803C16.4731 16.421 16.2823 16.5 16.0834 16.5H13.8334C13.6345 16.5 13.4437 16.421 13.303 16.2803C13.1624 16.1397 13.0834 15.9489 13.0834 15.75ZM8.58187 12C8.38335 12 8.19293 11.9212 8.05237 11.781L7.30237 11.031C7.16576 10.8895 7.09016 10.7001 7.09187 10.5034C7.09358 10.3068 7.17245 10.1187 7.31151 9.97964C7.45057 9.84058 7.63868 9.7617 7.83532 9.75999C8.03197 9.75829 8.22142 9.83388 8.36287 9.9705L8.58187 10.1895L10.3009 8.4705C10.4423 8.33388 10.6318 8.25829 10.8284 8.25999C11.0251 8.2617 11.2132 8.34058 11.3522 8.47964C11.4913 8.61869 11.5702 8.8068 11.5719 9.00345C11.5736 9.2001 11.498 9.38955 11.3614 9.531L9.11137 11.781C8.97082 11.9212 8.7804 12 8.58187 12ZM8.05237 17.781C8.19296 17.9211 8.38337 17.9998 8.58187 17.9998C8.78038 17.9998 8.97079 17.9211 9.11137 17.781L11.3614 15.531C11.498 15.3895 11.5736 15.2001 11.5719 15.0034C11.5702 14.8068 11.4913 14.6187 11.3522 14.4796C11.2132 14.3406 11.0251 14.2617 10.8284 14.26C10.6318 14.2583 10.4423 14.3339 10.3009 14.4705L8.58187 16.1895L8.36287 15.9705C8.22142 15.8339 8.03197 15.7583 7.83532 15.76C7.63868 15.7617 7.45057 15.8406 7.31151 15.9796C7.17245 16.1187 7.09358 16.3068 7.09187 16.5034C7.09016 16.7001 7.16576 16.8895 7.30237 17.031L8.05237 17.781ZM7.96087 3C8.11604 2.56113 8.4035 2.18119 8.78364 1.91254C9.16378 1.64389 9.61789 1.49976 10.0834 1.5H14.5834C15.0489 1.49976 15.503 1.64389 15.8831 1.91254C16.2633 2.18119 16.5507 2.56113 16.7059 3H17.5834C18.1801 3 18.7524 3.23705 19.1744 3.65901C19.5963 4.08097 19.8334 4.65326 19.8334 5.25V20.25C19.8334 20.8467 19.5963 21.419 19.1744 21.841C18.7524 22.2629 18.1801 22.5 17.5834 22.5H7.08337C6.48664 22.5 5.91434 22.2629 5.49238 21.841C5.07043 21.419 4.83337 20.8467 4.83337 20.25V5.25C4.83337 4.65326 5.07043 4.08097 5.49238 3.65901C5.91434 3.23705 6.48664 3 7.08337 3H7.96087ZM10.0834 3C9.88446 3 9.6937 3.07902 9.55304 3.21967C9.41239 3.36032 9.33337 3.55109 9.33337 3.75C9.33337 3.94891 9.41239 4.13968 9.55304 4.28033C9.6937 4.42098 9.88446 4.5 10.0834 4.5H14.5834C14.7823 4.5 14.9731 4.42098 15.1137 4.28033C15.2544 4.13968 15.3334 3.94891 15.3334 3.75C15.3334 3.55109 15.2544 3.36032 15.1137 3.21967C14.9731 3.07902 14.7823 3 14.5834 3H10.0834ZM7.96087 4.5H7.08337C6.88446 4.5 6.6937 4.57902 6.55304 4.71967C6.41239 4.86032 6.33337 5.05109 6.33337 5.25V20.25C6.33337 20.4489 6.41239 20.6397 6.55304 20.7803C6.6937 20.921 6.88446 21 7.08337 21H17.5834C17.7823 21 17.9731 20.921 18.1137 20.7803C18.2544 20.6397 18.3334 20.4489 18.3334 20.25V5.25C18.3334 5.05109 18.2544 4.86032 18.1137 4.71967C17.9731 4.57902 17.7823 4.5 17.5834 4.5H16.7059C16.5507 4.93887 16.2633 5.31881 15.8831 5.58746C15.503 5.85611 15.0489 6.00024 14.5834 6H10.0834C9.61789 6.00024 9.16378 5.85611 8.78364 5.58746C8.4035 5.31881 8.11604 4.93887 7.96087 4.5Z" fill="#2D3439"/>
</svg>
