<svg width="207" height="178" viewBox="0 0 207 178" fill="none" xmlns="http://www.w3.org/2000/svg">
<path d="M206.576 136.207H127.608V90.5095H206.576V136.207ZM128.09 135.725H206.094V90.9914H128.09V135.725Z" fill="#E0E0E0"/>
<path d="M190.285 114.876H138.184V116.403H190.285V114.876Z" fill="#F0F0F0"/>
<path d="M193.875 120.571H138.184V122.238H193.875V120.571Z" fill="#F0F0F0"/>
<path d="M193.875 126.334H138.184V128.001H193.875V126.334Z" fill="#F0F0F0"/>
<path d="M156.393 106.603H138.184V110.568H156.393V106.603Z" fill="#F0F0F0"/>
<path d="M206.335 90.7505H127.863V98.0262H206.335V90.7505Z" fill="#E0E0E0"/>
<path d="M200.298 96.9372C200.196 96.8409 201.208 95.6218 202.553 94.2149C203.897 92.8079 205.077 91.743 205.174 91.8346C205.27 91.9261 204.263 93.15 202.919 94.5618C201.574 95.9736 200.394 97.0336 200.298 96.9372Z" fill="white"/>
<path d="M205.183 96.9371C205.087 97.0335 203.911 95.9734 202.562 94.5617C201.213 93.1499 200.206 91.9308 200.307 91.8345C200.408 91.7381 201.579 92.7981 202.928 94.2147C204.278 95.6313 205.275 96.8407 205.183 96.9371Z" fill="white"/>
<path d="M109.404 0.256592H30.9321V45.477H109.404V0.256592Z" fill="#E6E6E6"/>
<path d="M93.3588 24.387H41.2578V25.9144H93.3588V24.387Z" fill="#F0F0F0"/>
<path d="M96.9485 30.0823H41.2578V31.7494H96.9485V30.0823Z" fill="#F0F0F0"/>
<path d="M96.9485 35.845H41.2578V37.5121H96.9485V35.845Z" fill="#F0F0F0"/>
<path d="M59.4664 16.1138H41.2578V20.0793H59.4664V16.1138Z" fill="#F0F0F0"/>
<path d="M109.404 0.256592H30.9321V7.53233H109.404V0.256592Z" fill="#E0E0E0"/>
<path d="M103.102 6.40956C103.001 6.31801 104.012 5.09414 105.357 3.68718C106.701 2.28021 107.882 1.21535 107.978 1.31172C108.074 1.40809 107.067 2.62714 105.723 4.0341C104.379 5.44106 103.198 6.49629 103.102 6.40956Z" fill="white"/>
<path d="M107.978 6.40958C107.882 6.50595 106.706 5.44591 105.357 4.03412C104.008 2.62234 103.001 1.40811 103.102 1.31175C103.203 1.21538 104.374 2.27542 105.723 3.6872C107.072 5.09898 108.079 6.31803 107.978 6.40958Z" fill="white"/>
<path d="M79.6843 84.2601H0.730469V38.5579H79.6843V84.2601ZM1.21231 83.7783H79.2024V39.0397H1.21231V83.7783Z" fill="#E0E0E0"/>
<path d="M63.3984 62.9292H11.2974V64.4566H63.3984V62.9292Z" fill="#F0F0F0"/>
<path d="M66.9881 68.6245H11.2974V70.2917H66.9881V68.6245Z" fill="#F0F0F0"/>
<path d="M66.9881 74.3872H11.2974V76.0544H66.9881V74.3872Z" fill="#F0F0F0"/>
<path d="M29.506 54.656H11.2974V58.6215H29.506V54.656Z" fill="#F0F0F0"/>
<path d="M79.4432 38.7988H0.971191V46.0746H79.4432V38.7988Z" fill="#E0E0E0"/>
<path d="M170.805 94.7305H78.1475V177.684H170.805V94.7305Z" fill="#E6E6E6"/>
<path d="M82.8066 68.6003H10.2227V144.013H82.8066V68.6003Z" fill="#F0F0F0"/>
<path d="M82.8066 68.6003H10.2227V76.8157H82.8066V68.6003Z" fill="#E0E0E0"/>
<path d="M16.2166 72.6238C16.2034 72.9217 16.103 73.2091 15.9278 73.4505C15.7527 73.6919 15.5105 73.8765 15.2314 73.9815C14.9523 74.0864 14.6485 74.1071 14.3577 74.041C14.0669 73.9748 13.802 73.8247 13.5957 73.6094C13.3895 73.394 13.251 73.1228 13.1975 72.8294C13.1441 72.536 13.1779 72.2334 13.2949 71.9591C13.4118 71.6848 13.6068 71.4509 13.8555 71.2864C14.1042 71.1218 14.3958 71.034 14.694 71.0337C15.1063 71.0438 15.498 71.2167 15.7833 71.5146C16.0685 71.8126 16.2243 72.2113 16.2166 72.6238Z" fill="white"/>
<path d="M22.3988 72.6238C22.3865 72.9231 22.2865 73.2122 22.1111 73.4551C21.9358 73.698 21.6929 73.884 21.4126 73.9899C21.1324 74.0958 20.8272 74.117 20.5351 74.0508C20.2429 73.9846 19.9766 73.8339 19.7694 73.6175C19.5622 73.4011 19.4233 73.1286 19.3698 72.8338C19.3163 72.5391 19.3506 72.2351 19.4686 71.9597C19.5865 71.6843 19.7829 71.4497 20.0332 71.2851C20.2834 71.1204 20.5766 71.033 20.8762 71.0337C21.2886 71.0438 21.6802 71.2167 21.9655 71.5147C22.2508 71.8126 22.4065 72.2113 22.3988 72.6238Z" fill="white"/>
<path d="M28.5804 72.6238C28.5681 72.9231 28.4681 73.2122 28.2928 73.4551C28.1174 73.698 27.8745 73.884 27.5943 73.9899C27.3141 74.0958 27.0089 74.117 26.7167 74.0508C26.4245 73.9846 26.1583 73.8339 25.9511 73.6175C25.7439 73.4011 25.6049 73.1286 25.5514 72.8338C25.4979 72.5391 25.5323 72.2351 25.6502 71.9597C25.7682 71.6843 25.9645 71.4497 26.2148 71.2851C26.4651 71.1204 26.7582 71.033 27.0578 71.0337C27.4702 71.0438 27.8618 71.2167 28.1471 71.5147C28.4324 71.8126 28.5882 72.2113 28.5804 72.6238Z" fill="white"/>
<path d="M196.212 16.7498H103.555V109.099H196.212V16.7498Z" fill="#F0F0F0"/>
<path d="M196.212 16.7498H103.555V27.567H196.212V16.7498Z" fill="#E0E0E0"/>
<path d="M111.447 22.0501C111.43 22.4433 111.298 22.8229 111.067 23.1418C110.836 23.4606 110.517 23.7046 110.148 23.8434C109.78 23.9823 109.379 24.0099 108.995 23.9229C108.611 23.8358 108.261 23.6379 107.989 23.3538C107.717 23.0696 107.534 22.7117 107.463 22.3245C107.392 21.9373 107.437 21.5379 107.591 21.1757C107.745 20.8136 108.003 20.5048 108.331 20.2876C108.659 20.0704 109.044 19.9545 109.438 19.9541C109.982 19.9667 110.498 20.1944 110.875 20.5872C111.252 20.98 111.457 21.506 111.447 22.0501Z" fill="white"/>
<path d="M118.998 20.6335C119.265 20.9236 119.441 21.2859 119.503 21.6752C119.566 22.0645 119.513 22.4637 119.35 22.823C119.187 23.1822 118.923 23.4857 118.589 23.6956C118.255 23.9055 117.867 24.0125 117.473 24.0033C117.078 23.9941 116.696 23.8691 116.372 23.6439C116.048 23.4186 115.798 23.1031 115.652 22.7367C115.507 22.3702 115.472 21.969 115.553 21.583C115.634 21.197 115.826 20.8434 116.107 20.5661C116.499 20.1924 117.024 19.9896 117.566 20.0023C118.108 20.0149 118.623 20.2419 118.998 20.6335Z" fill="white"/>
<path d="M127.723 22.0501C127.706 22.4433 127.574 22.8229 127.343 23.1418C127.112 23.4606 126.793 23.7046 126.425 23.8434C126.056 23.9823 125.655 24.0099 125.271 23.9229C124.888 23.8358 124.538 23.6379 124.265 23.3538C123.993 23.0696 123.81 22.7117 123.739 22.3245C123.669 21.9373 123.713 21.5379 123.867 21.1757C124.022 20.8136 124.279 20.5048 124.607 20.2876C124.935 20.0704 125.32 19.9545 125.714 19.9541C126.258 19.9667 126.775 20.1944 127.151 20.5872C127.528 20.98 127.734 21.506 127.723 22.0501Z" fill="white"/>
</svg>
