<svg width="310" height="301" viewBox="0 0 310 301" fill="none" xmlns="http://www.w3.org/2000/svg">
<path d="M38.7151 247.719H15.3291V255.846H38.7151V247.719Z" fill="#EBEBEB"/>
<path d="M25.6643 257.967H2.27832V266.094H25.6643V257.967Z" fill="#EBEBEB"/>
<path d="M92.5979 95.4199H69.2119V103.547H92.5979V95.4199Z" fill="#EBEBEB"/>
<path d="M79.554 105.668H56.168V113.795H79.554V105.668Z" fill="#EBEBEB"/>
<path d="M66.5608 95.4199H43.1748V103.547H66.5608V95.4199Z" fill="#EBEBEB"/>
<path d="M307.698 257.967H284.312V266.094H307.698V257.967Z" fill="#EBEBEB"/>
<path d="M294.654 2.1665H271.268V10.2935H294.654V2.1665Z" fill="#EBEBEB"/>
<path d="M307.698 12.4143H284.312V20.5413H307.698V12.4143Z" fill="#EBEBEB"/>
<path d="M25.6643 2.1665H2.27832V10.2935H25.6643V2.1665Z" fill="#EBEBEB"/>
<path d="M105.765 56.3247H0.0195312V60.8639H105.765V56.3247Z" fill="#EBEBEB"/>
<path d="M15.395 78.7373H11.277L9.62109 60.8638H15.395V78.7373Z" fill="#EBEBEB"/>
<path d="M90.3896 78.7373H94.5076L96.1635 60.8638H90.3896V78.7373Z" fill="#EBEBEB"/>
<path d="M9.62109 60.8638H15.3877V67.0153H10.1876L9.62109 60.8638Z" fill="#DBDBDB"/>
<path d="M96.1563 60.8638L95.5898 67.0153H90.3896V60.8638H96.1563Z" fill="#DBDBDB"/>
<path d="M30.5667 32.06C26.3907 37.7177 22.033 44.2904 20.9727 51.3861C20.9727 51.4951 21.1324 51.5314 21.1542 51.3861C21.6354 49.4489 22.2543 47.5485 23.0062 45.6994C25.7515 44.9731 28.446 44.3267 29.8913 41.596C31.3366 38.8652 31.1768 35.1394 30.8935 32.0818C30.879 31.9583 30.6539 31.9511 30.5667 32.06Z" fill="#EBEBEB"/>
<path d="M23.0427 45.6848C24.8856 41.3689 27.3656 37.3539 30.3999 33.7739C30.3999 33.7739 30.4507 33.7739 30.3999 33.7739C28.4879 36.243 26.8079 38.8833 25.3813 41.6612C26.7685 40.2595 28.2864 39.0031 29.5937 37.507C29.5937 37.507 29.6591 37.507 29.6373 37.5505C28.3822 39.2256 26.9038 40.721 25.2433 41.9953C24.7931 42.8378 24.3355 43.6803 23.8707 44.5155L24.2193 44.3412C24.0922 44.4114 23.9613 44.4744 23.8271 44.53C23.6092 44.9295 23.3914 45.3289 23.1662 45.7284C23.1299 45.8518 23.0064 45.772 23.0427 45.6848Z" fill="#A6A6A6"/>
<path d="M24.4445 44.2176C25.5667 43.5749 26.6375 42.8465 27.6474 42.0388C27.6474 42.0388 27.72 42.0388 27.691 42.0388C26.7106 42.8857 25.6358 43.6167 24.4881 44.2176C24.4373 44.3193 24.3937 44.2467 24.4445 44.2176Z" fill="#A6A6A6"/>
<path d="M20.5151 51.3207C20.5201 51.3369 20.5303 51.3511 20.544 51.3612C20.5577 51.3713 20.5743 51.3767 20.5913 51.3767C20.6084 51.3767 20.6249 51.3713 20.6387 51.3612C20.6524 51.3511 20.6625 51.3369 20.6676 51.3207C20.6676 48.9821 20.6676 46.6362 20.6676 44.2903C21.2631 43.0775 22.5486 42.4093 23.442 41.4433C24.0854 40.7347 24.6458 39.955 25.1124 39.1193C26.1896 37.1238 26.8471 34.929 27.0443 32.67C27.2912 30.1716 26.318 21.9211 25.294 22.2044C24.742 22.3496 22.9771 26.4386 22.5051 27.7894C21.7438 30.0196 21.1872 32.3144 20.8419 34.6454C20.0947 40.173 19.985 45.7681 20.5151 51.3207Z" fill="#EBEBEB"/>
<path d="M20.4931 41.2691C20.7288 38.2969 21.2147 35.3499 21.9457 32.4594C22.4883 29.3828 23.5154 26.4118 24.9888 23.657C24.9888 23.6061 25.0905 23.657 25.0687 23.7006C24.0069 25.845 23.1861 28.1006 22.6211 30.4258C22.7228 30.2588 22.8535 30.099 22.9625 29.9392C23.0714 29.7795 23.1077 29.9392 23.0714 30.0046C22.9294 30.263 22.7615 30.5064 22.5703 30.7309C22.0256 32.9097 21.6334 35.1975 21.2921 37.4489L21.3574 37.3472C21.3138 37.3472 21.2703 37.4925 21.2267 37.5724C21.0596 38.7126 20.8999 39.8529 20.7401 40.9859C22.8242 39.3308 24.4619 37.1813 25.5044 34.7326C24.6334 37.3651 22.9501 39.6536 20.6965 41.2691L20.5658 42.1842C20.5658 42.2423 20.4568 42.2278 20.4568 42.1842C20.4568 41.9082 20.4568 41.6395 20.4568 41.3708C20.4506 41.3622 20.4465 41.3522 20.445 41.3416C20.4435 41.3311 20.4446 41.3204 20.4481 41.3103C20.4517 41.3003 20.4577 41.2913 20.4655 41.2842C20.4734 41.277 20.4829 41.2718 20.4931 41.2691Z" fill="#A6A6A6"/>
<path d="M21.459 36.9478C23.0486 34.6921 24.4364 32.3007 25.606 29.8013C25.606 29.8013 25.6714 29.8013 25.6568 29.8013C24.728 32.4278 23.3303 34.8639 21.5316 36.9914C21.524 36.995 21.5157 36.9966 21.5073 36.9962C21.4989 36.9958 21.4908 36.9934 21.4836 36.9891C21.4764 36.9847 21.4704 36.9787 21.4661 36.9715C21.4618 36.9643 21.4594 36.9562 21.459 36.9478Z" fill="#A6A6A6"/>
<path d="M19.3676 45.3288C19.3394 46.8804 19.157 48.4253 18.8229 49.9407C18.8229 50.1005 18.8737 50.2675 18.8955 50.4418C19.3709 48.7686 19.6464 47.045 19.7162 45.3071C19.7318 45.2833 19.7401 45.2556 19.7401 45.2272C19.7401 45.1988 19.7318 45.171 19.7162 45.1473C19.7809 42.8156 19.6008 40.4836 19.1788 38.1896C18.4525 33.89 16.8765 29.7648 13.877 26.5692C13.8527 26.5481 13.8239 26.5328 13.7928 26.5246C13.7616 26.5164 13.7291 26.5154 13.6975 26.5217C13.6659 26.528 13.6363 26.5414 13.6107 26.561C13.5852 26.5806 13.5644 26.6058 13.5501 26.6346C12.3373 29.714 12.7585 33.3817 13.7898 36.4465C14.3485 38.1088 15.1487 39.6798 16.1647 41.1092C17.2251 42.5327 18.5324 43.7528 19.3676 45.3288Z" fill="#EBEBEB"/>
<path d="M14.2619 27.9856C17.229 32.6519 18.977 37.9885 19.3458 43.506C19.3458 43.6004 19.1933 43.6222 19.1788 43.506C19.1134 43.0194 19.0335 42.5328 18.9536 42.0535C17.7098 40.9738 16.6156 39.733 15.6999 38.364C15.6999 38.364 15.6999 38.3132 15.7435 38.364C16.7178 39.561 17.7631 40.6985 18.8737 41.7702C18.6704 40.5646 18.4307 39.3808 18.1475 38.2115L17.9223 37.95C17.8715 37.8919 17.9586 37.8048 18.0095 37.8629L18.0748 37.9428C17.6862 36.3437 17.2011 34.7697 16.6223 33.2293C15.8339 32.4308 15.1439 31.5408 14.5669 30.5784C14.5669 30.5348 14.5669 30.5784 14.5669 30.5784C14.9735 31.1826 15.4123 31.7644 15.8815 32.3214C16.0703 32.5393 16.2809 32.7499 16.477 32.9605C15.824 31.2902 15.0471 29.6709 14.153 28.1163C14.0949 27.9783 14.2183 27.9202 14.2619 27.9856Z" fill="#A6A6A6"/>
<path d="M14.8208 33.6722C15.7431 34.9069 16.789 36.0834 17.6387 37.3617C17.6445 37.3694 17.647 37.3791 17.6456 37.3886C17.6442 37.3981 17.6391 37.4067 17.6314 37.4125C17.6237 37.4183 17.6141 37.4208 17.6045 37.4194C17.595 37.4181 17.5864 37.413 17.5806 37.4053C16.4908 36.2954 15.5441 35.0535 14.7627 33.7085C14.7481 33.6649 14.8208 33.6359 14.8208 33.6722Z" fill="#A6A6A6"/>
<path d="M17.7837 37.6377L17.82 37.6813C17.82 37.6813 17.82 37.7466 17.7764 37.7249V37.6813C17.7764 37.6813 17.7256 37.6377 17.7837 37.6377Z" fill="#A6A6A6"/>
<path d="M9.37413 35.6839C9.70982 38.2604 10.7475 40.695 12.3736 42.7215C13.05 43.5136 13.8834 44.1566 14.8212 44.6098C15.8743 45.1255 17 45.7283 18.0676 46.1568C18.5731 47.4744 18.9453 48.8394 19.1788 50.2312C19.1788 50.115 19.2514 49.9915 19.2805 49.8753C18.5978 43.869 14.7122 38.7415 9.73727 35.4588C9.6991 35.4384 9.65624 35.4284 9.61299 35.4298C9.56974 35.4312 9.52761 35.444 9.49084 35.4668C9.45406 35.4896 9.42392 35.5216 9.40344 35.5597C9.38296 35.5979 9.37285 35.6407 9.37413 35.6839Z" fill="#EBEBEB"/>
<path d="M11.0953 37.4561C11.0902 37.4485 11.0876 37.4394 11.0879 37.4303C11.0882 37.4211 11.0914 37.4123 11.0971 37.405C11.1027 37.3978 11.1105 37.3925 11.1193 37.3899C11.1281 37.3874 11.1375 37.3876 11.1462 37.3907C13.875 39.4197 16.0503 42.1019 17.472 45.1909C17.4781 45.2069 17.4784 45.2246 17.4727 45.2408C17.467 45.2571 17.4558 45.2707 17.441 45.2794C17.4262 45.2881 17.4088 45.2913 17.3918 45.2884C17.3749 45.2855 17.3596 45.2767 17.3485 45.2635C17.1234 44.8568 16.8837 44.4646 16.6223 44.0797C15.466 43.7706 14.4131 43.1589 13.5719 42.3076C14.0135 42.7016 14.5013 43.0406 15.0245 43.3171C15.4893 43.5495 15.9831 43.6948 16.477 43.8836C16.0558 43.2154 15.62 42.5763 15.1625 41.959C13.9383 41.4922 12.7903 40.846 11.7562 40.0416C11.7199 40.0416 11.7562 39.9617 11.7562 39.9835C12.782 40.6038 13.8389 41.1711 14.9228 41.683C14.2351 40.7658 13.4879 39.8948 12.6859 39.0757C12.3009 38.8723 11.916 38.6617 11.5383 38.4438C11.5383 38.4438 11.5383 38.3785 11.5383 38.3857C11.8469 38.497 12.1418 38.6432 12.4171 38.8215C12.0467 38.3639 11.5892 37.8919 11.0953 37.4561Z" fill="#A6A6A6"/>
<path d="M11.1899 39.5259C11.257 39.566 11.3202 39.6122 11.3787 39.6639C11.3096 39.6348 11.2439 39.5983 11.1826 39.555C11.1826 39.555 11.1899 39.5041 11.1899 39.5259Z" fill="#A6A6A6"/>
<path d="M25.4099 56.3173H15.1768L15.6779 49.6138L15.874 47.4277H24.6183L24.8144 49.6138L25.4099 56.3173Z" fill="#DBDBDB"/>
<path d="M24.8142 49.6138H15.6777L15.8738 47.4277H24.6181L24.8142 49.6138Z" fill="#C7C7C7"/>
<path d="M25.3155 45.634H15.1768V47.8782H25.3155V45.634Z" fill="#DBDBDB"/>
<path d="M58.6445 56.303V25.7922H50.9606V56.303H58.6445Z" fill="#C7C7C7"/>
<path d="M58.6445 27.5133V24.158H50.9606V27.5133H58.6445Z" fill="#DBDBDB"/>
<path d="M58.6445 33.0476V31.8057H50.9606V33.0476H58.6445Z" fill="#DBDBDB"/>
<path d="M58.6445 52.3012V48.9458H50.9606V52.3012H58.6445Z" fill="#DBDBDB"/>
<path d="M64.0117 56.3029V20.7083H58.6446V56.3029H64.0117Z" fill="#DBDBDB"/>
<path d="M62.9219 37.7466V24.0564H59.6972V37.7466H62.9219Z" fill="#EBEBEB"/>
<path d="M102.256 52.4447L76.9424 27.4209L73.1691 31.2378L98.4829 56.2617L102.256 52.4447Z" fill="#C7C7C7"/>
<path d="M95.573 47.3235L85.8369 37.699L83.5699 39.9922L93.306 49.6168L95.573 47.3235Z" fill="#DBDBDB"/>
<path d="M73.126 56.3101V29.271H64.004V56.3101H73.126Z" fill="#A6A6A6"/>
<path d="M73.126 53.4413V50.9211H64.004V53.4413H73.126Z" fill="#C7C7C7"/>
<path d="M73.1338 49.2725V48.292H64.0118V49.2725H73.1338Z" fill="#C7C7C7"/>
<path d="M40.9904 56.3225L51.0107 32.9771L45.2244 30.4935L35.2041 53.8389L40.9904 56.3225Z" fill="#A6A6A6"/>
<path d="M42.0505 53.8449L42.9844 51.6692L37.1981 49.1856L36.2642 51.3613L42.0505 53.8449Z" fill="#C7C7C7"/>
<path d="M48.0081 39.9539L48.9424 37.7783L43.1565 35.2937L42.2223 37.4693L48.0081 39.9539Z" fill="#C7C7C7"/>
<path d="M47.0002 42.2866L47.3613 41.4458L41.5755 38.9612L41.2144 39.802L47.0002 42.2866Z" fill="#C7C7C7"/>
<path d="M215.055 192.145V300.258H280.419V192.145H215.055ZM274.478 260.357H220.988V232.213H274.478V260.357ZM274.478 225.495H220.988V197.367H274.478V225.495Z" fill="#DBDBDB"/>
<path d="M309.963 192.145H280.411V300.258H309.963V192.145Z" fill="#EBEBEB"/>
<path d="M233.698 197.367H220.988V225.51H233.698V197.367Z" fill="#EBEBEB"/>
<path d="M274.66 293.656H221.141V266.457H274.66V293.656ZM221.504 293.293H274.297V266.82H221.504V293.293Z" fill="#EBEBEB"/>
<path d="M253.176 274.185H242.616V278.041H253.176V274.185Z" fill="#EBEBEB"/>
<path d="M233.698 232.213H220.988V260.356H233.698V232.213Z" fill="#EBEBEB"/>
<path d="M267.164 260.356V234.407H258.224V260.356H267.164Z" fill="#A6A6A6"/>
<path d="M267.157 256.188V250.588H258.217V256.188H267.157Z" fill="#DBDBDB"/>
<path d="M267.157 246.085V242.766H258.217V246.085H267.157Z" fill="#DBDBDB"/>
<path d="M259.183 203.794H236.581V225.51H259.183V203.794Z" fill="#EBEBEB"/>
<path d="M267.774 203.794H259.183V225.51H267.774V203.794Z" fill="#C7C7C7"/>
<path d="M236.581 214.652H259.183L241.534 215.211L236.581 214.652Z" fill="#C7C7C7"/>
<path d="M259.183 222.888H236.581L254.229 223.447L259.183 222.888Z" fill="#C7C7C7"/>
<path d="M236.581 208.581H250.896L238.172 209.038L236.581 208.581Z" fill="#C7C7C7"/>
<path d="M259.183 219.692H244.868L257.592 220.15L259.183 219.692Z" fill="#C7C7C7"/>
<path d="M242.006 206.169H258.151L255.456 206.438L242.006 206.169Z" fill="#C7C7C7"/>
<path d="M238.781 216.983H254.926L252.232 217.252L238.781 216.983Z" fill="#C7C7C7"/>
<path d="M248.71 210.65H259.183L261.057 211.384L248.71 210.65Z" fill="#EBEBEB"/>
<path d="M233.697 210.65H244.17L246.044 211.384L233.697 210.65Z" fill="#EBEBEB"/>
<path d="M247.142 220.411H236.661L234.795 221.145L247.142 220.411Z" fill="#EBEBEB"/>
<path d="M259.183 217.935H267.593L269.467 218.661L259.183 217.935Z" fill="#C7C7C7"/>
<path d="M262.117 214.652H268.639L267.775 214.057L262.117 214.652Z" fill="#C7C7C7"/>
<path d="M274.471 232.678H267.157V260.356H274.471V232.678Z" fill="#EBEBEB"/>
<path d="M270.817 238.14C270.516 238.14 270.221 238.05 269.97 237.883C269.719 237.715 269.524 237.477 269.408 237.198C269.293 236.919 269.262 236.613 269.321 236.317C269.38 236.021 269.525 235.749 269.739 235.536C269.952 235.323 270.224 235.178 270.52 235.119C270.815 235.06 271.122 235.09 271.401 235.205C271.68 235.321 271.918 235.516 272.085 235.767C272.253 236.018 272.342 236.313 272.342 236.615C272.342 237.019 272.182 237.407 271.896 237.693C271.61 237.979 271.222 238.14 270.817 238.14Z" fill="white"/>
<path d="M270.818 237.486C270.645 237.486 270.477 237.435 270.334 237.339C270.19 237.244 270.079 237.107 270.013 236.948C269.947 236.789 269.929 236.614 269.963 236.445C269.997 236.276 270.08 236.12 270.202 235.998C270.323 235.877 270.479 235.794 270.648 235.76C270.817 235.726 270.992 235.744 271.151 235.81C271.311 235.875 271.447 235.987 271.542 236.13C271.638 236.274 271.689 236.442 271.689 236.615C271.689 236.846 271.598 237.068 271.434 237.231C271.271 237.394 271.049 237.486 270.818 237.486Z" fill="#A6A6A6"/>
<path d="M274.478 255.992V249.259H267.164V255.992H274.478Z" fill="white"/>
<path d="M258.216 254.648H230.538V260.4H258.216V254.648Z" fill="#C7C7C7"/>
<path d="M252.755 257.524C252.753 257.222 252.842 256.926 253.008 256.675C253.175 256.423 253.413 256.226 253.691 256.11C253.97 255.993 254.277 255.962 254.573 256.02C254.869 256.078 255.142 256.223 255.356 256.436C255.57 256.649 255.716 256.92 255.775 257.216C255.835 257.512 255.805 257.819 255.69 258.099C255.575 258.378 255.379 258.616 255.128 258.784C254.877 258.952 254.582 259.042 254.28 259.042C253.877 259.042 253.49 258.882 253.204 258.598C252.918 258.313 252.757 257.927 252.755 257.524Z" fill="white"/>
<path d="M253.409 257.524C253.409 257.352 253.46 257.183 253.556 257.04C253.652 256.896 253.788 256.785 253.947 256.719C254.106 256.653 254.282 256.635 254.451 256.669C254.62 256.703 254.775 256.786 254.897 256.908C255.019 257.029 255.102 257.185 255.135 257.354C255.169 257.523 255.152 257.698 255.086 257.857C255.02 258.017 254.908 258.153 254.765 258.249C254.622 258.344 254.453 258.395 254.281 258.395C254.05 258.395 253.828 258.304 253.664 258.14C253.501 257.977 253.409 257.755 253.409 257.524Z" fill="#A6A6A6"/>
<path d="M234.896 260.393H241.629V254.641H234.896V260.393Z" fill="white"/>
<path d="M309.1 249.317C302.135 258.759 294.88 269.689 293.122 281.513C293.122 281.694 293.391 281.752 293.427 281.571C294.232 278.356 295.261 275.201 296.507 272.129C301.089 270.866 305.578 269.834 307.982 265.288C310.436 260.618 310.124 254.532 309.659 249.441C309.608 249.15 309.238 249.136 309.1 249.317Z" fill="#8094D4"/>
<path d="M296.564 272.02C299.695 264.997 303.704 257.953 308.809 252.179C308.809 252.179 308.897 252.179 308.868 252.237C305.527 256.348 302.985 260.821 300.508 265.375C302.81 263.036 305.338 260.938 307.524 258.461C307.568 258.41 307.633 258.461 307.589 258.526C305.41 261.134 303.057 263.959 300.232 265.883C299.47 267.278 298.707 268.687 297.937 270.089C298.126 269.98 298.322 269.885 298.511 269.791L298.547 269.842C298.329 269.951 298.119 270.067 297.894 270.161L296.79 272.144C296.702 272.296 296.499 272.166 296.564 272.02Z" fill="#263238"/>
<path d="M298.888 269.566C300.761 268.521 302.549 267.328 304.233 266C304.277 265.963 304.349 266 304.299 266.065C302.666 267.475 300.877 268.693 298.968 269.696C298.951 269.701 298.933 269.7 298.917 269.693C298.901 269.687 298.888 269.676 298.879 269.661C298.87 269.646 298.866 269.629 298.868 269.612C298.869 269.595 298.876 269.579 298.888 269.566Z" fill="#263238"/>
<path d="M292.301 279.755C292.301 279.901 292.563 279.901 292.555 279.755C292.555 275.855 292.555 271.948 292.621 268.033C293.616 266.021 295.758 264.903 297.247 263.291C298.318 262.114 299.249 260.818 300.021 259.427C301.816 256.103 302.913 252.448 303.246 248.685C303.66 244.517 302.077 230.768 300.341 231.255C299.433 231.502 296.484 238.314 295.707 240.558C294.436 244.271 293.508 248.093 292.933 251.975C291.488 261.126 291.604 270.532 292.301 279.755Z" fill="#8094D4"/>
<path d="M292.258 262.957C292.468 258.025 293.579 253.05 294.618 248.271C295.736 243.122 297.044 238.278 299.702 233.688C299.712 233.671 299.728 233.658 299.747 233.652C299.766 233.647 299.786 233.649 299.804 233.659C299.821 233.668 299.834 233.685 299.839 233.704C299.845 233.723 299.842 233.743 299.833 233.761C298.068 237.333 296.702 241.089 295.758 244.96C295.933 244.684 296.15 244.422 296.332 244.153C296.405 244.052 296.579 244.153 296.506 244.255C296.271 244.672 295.993 245.064 295.678 245.424C295.673 245.427 295.666 245.428 295.66 245.428C295.654 245.428 295.648 245.427 295.642 245.424C294.734 249.107 294.073 252.869 293.514 256.624C293.559 256.579 293.6 256.53 293.637 256.478C293.637 256.478 293.717 256.478 293.696 256.522C293.674 256.565 293.55 256.776 293.478 256.9C293.194 258.802 292.933 260.705 292.664 262.594C296.063 259.688 298.961 256.275 300.595 252.063C298.997 256.42 296.47 260.313 292.606 262.957C292.534 263.465 292.461 263.973 292.396 264.482C292.396 264.584 292.207 264.554 292.207 264.482C292.207 264.039 292.207 263.589 292.25 263.138C292.236 263.128 292.224 263.114 292.216 263.098C292.208 263.081 292.204 263.063 292.205 263.046C292.206 263.028 292.211 263.01 292.22 262.995C292.229 262.979 292.242 262.966 292.258 262.957Z" fill="#263238"/>
<path d="M293.869 255.817C296.523 252.06 298.837 248.074 300.784 243.906C300.784 243.863 300.892 243.906 300.871 243.943C299.319 248.315 296.992 252.372 294 255.919C293.942 255.984 293.819 255.897 293.869 255.817Z" fill="#263238"/>
<path d="M297.342 242.955C298.416 241.052 299.52 239.2 300.559 237.268C300.559 237.21 300.661 237.268 300.639 237.312C299.811 239.335 298.761 241.259 297.509 243.049C297.414 243.173 297.254 243.064 297.342 242.955Z" fill="#263238"/>
<path d="M289.664 268.491C289.614 271.073 289.31 273.644 288.757 276.167C288.8 276.443 288.837 276.719 288.88 277.01C289.673 274.222 290.133 271.35 290.253 268.454C290.276 268.415 290.288 268.37 290.288 268.324C290.288 268.278 290.276 268.233 290.253 268.193C290.363 264.313 290.076 260.431 289.396 256.609C288.19 249.448 285.554 242.585 280.564 237.217C280.523 237.182 280.474 237.157 280.421 237.143C280.368 237.13 280.313 237.128 280.26 237.14C280.206 237.151 280.156 237.174 280.113 237.208C280.071 237.242 280.036 237.285 280.012 237.334C277.993 242.454 278.698 248.562 280.412 253.675C281.346 256.442 282.68 259.057 284.37 261.439C286.091 263.828 288.277 265.862 289.664 268.491Z" fill="#8094D4"/>
<path d="M281.16 239.6C285.888 247.276 289.149 256.384 289.585 265.448C289.585 265.607 289.323 265.651 289.302 265.491C289.185 264.671 289.062 263.864 288.931 263.058C286.874 261.242 285.069 259.158 283.564 256.863C283.564 256.827 283.6 256.776 283.629 256.812C285.255 258.804 286.996 260.698 288.844 262.484C288.503 260.48 288.118 258.512 287.631 256.565C287.501 256.42 287.377 256.268 287.254 256.122C287.13 255.977 287.312 255.89 287.392 255.984L287.508 256.108C286.841 253.444 286.016 250.823 285.038 248.257C283.833 246.804 282.482 245.577 281.61 243.848L281.669 243.812C282.395 244.8 283.056 245.795 283.847 246.717C284.167 247.08 284.523 247.443 284.85 247.777C283.76 244.996 282.466 242.299 280.979 239.709C280.971 239.685 280.972 239.66 280.981 239.637C280.989 239.614 281.006 239.595 281.027 239.583C281.047 239.57 281.072 239.565 281.096 239.568C281.121 239.571 281.143 239.582 281.16 239.6Z" fill="#263238"/>
<path d="M282.09 249.07C283.615 251.126 285.358 253.094 286.781 255.222C286.818 255.28 286.731 255.345 286.68 255.294C284.867 253.439 283.289 251.368 281.981 249.128C281.974 249.063 282.09 248.983 282.09 249.07Z" fill="#263238"/>
<path d="M287.021 255.694L287.087 255.759C287.13 255.803 287.087 255.875 287.021 255.832L286.956 255.766C286.905 255.723 286.978 255.65 287.021 255.694Z" fill="#263238"/>
<path d="M273.745 254.358C274.306 258.647 276.034 262.699 278.742 266.072C279.856 267.395 281.233 268.471 282.787 269.232C284.544 270.096 286.375 271.098 288.19 271.81C289.053 274.004 289.693 276.279 290.1 278.601C290.159 278.404 290.217 278.201 290.282 277.998C289.113 268.004 282.642 259.456 274.362 253.965C274.297 253.925 274.222 253.904 274.146 253.905C274.07 253.906 273.995 253.928 273.931 253.968C273.866 254.009 273.815 254.068 273.782 254.136C273.749 254.205 273.736 254.282 273.745 254.358Z" fill="#8094D4"/>
<path d="M276.606 257.313C276.548 257.263 276.606 257.161 276.694 257.204C281.242 260.586 284.868 265.056 287.239 270.205C287.297 270.343 287.116 270.459 287.036 270.321C286.651 269.653 286.259 268.992 285.859 268.353C283.971 267.997 282.184 266.668 280.775 265.404C280.739 265.368 280.775 265.317 280.833 265.346C281.556 266.003 282.359 266.567 283.223 267.024C283.993 267.416 284.828 267.663 285.627 267.975C284.9 266.864 284.174 265.796 283.448 264.765C281.408 263.989 279.494 262.914 277.768 261.577C277.718 261.533 277.768 261.446 277.827 261.482C279.536 262.512 281.295 263.455 283.099 264.307C281.948 262.78 280.704 261.324 279.373 259.95C278.734 259.616 278.081 259.274 277.463 258.911C277.413 258.911 277.463 258.795 277.463 258.817C277.975 258.999 278.463 259.243 278.916 259.543C278.204 258.788 277.434 258.04 276.606 257.313Z" fill="#263238"/>
<path d="M276.788 260.771C276.897 260.839 277.001 260.914 277.101 260.996C277.137 260.996 277.101 261.061 277.064 261.047C276.947 260.995 276.835 260.932 276.73 260.858C276.672 260.821 276.73 260.727 276.788 260.771Z" fill="#263238"/>
<path d="M303.195 300.258H280.514L282.344 279.603L282.751 275.049H300.966L301.365 279.603L303.195 300.258Z" fill="#455A64"/>
<path d="M301.365 279.603H282.344L282.75 275.049H300.965L301.365 279.603Z" fill="#263238"/>
<path d="M302.048 271.861H281.661V276.371H302.048V271.861Z" fill="#455A64"/>
<path d="M96.4252 221.632C93.2078 223.534 89.9614 225.379 86.7077 227.209C83.454 229.04 80.1712 230.841 76.9103 232.635C73.6493 234.429 70.3738 236.193 67.0402 237.936L62.0798 240.536C60.4166 241.379 58.7607 242.25 57.083 243.078C58.6881 242.12 60.3149 241.197 61.9272 240.253L66.8005 237.493C70.0542 235.663 73.337 233.862 76.598 232.068C79.8589 230.274 83.1344 228.517 86.468 226.774C89.8016 225.031 93.0843 223.302 96.4252 221.632Z" fill="#DBDBDB"/>
<path d="M59.8496 221.632C62.9581 223.084 66.0375 224.653 69.1023 226.207C72.1672 227.761 75.2175 229.366 78.2824 230.942C81.3473 232.518 84.3613 234.16 87.3826 235.808L91.9145 238.285C93.4107 239.135 94.9213 239.963 96.4102 240.827C94.8487 240.101 93.3163 239.324 91.762 238.568L87.1502 236.251C84.0853 234.697 81.035 233.092 77.9774 231.516C74.9198 229.94 71.8985 228.299 68.8772 226.65C65.8559 225.002 62.8491 223.346 59.8496 221.632Z" fill="#DBDBDB"/>
<path d="M133.552 221.632C130.342 223.534 127.095 225.379 123.841 227.209C120.588 229.04 117.305 230.841 114.037 232.635C110.769 234.429 107.5 236.193 104.167 237.936L99.2063 240.536C97.5431 241.379 95.8872 242.25 94.2168 243.078C95.8219 242.12 97.4414 241.197 99.0538 240.253L103.927 237.493C107.181 235.663 110.464 233.862 113.732 232.068C117 230.274 120.268 228.517 123.602 226.774C126.935 225.031 130.211 223.302 133.552 221.632Z" fill="#DBDBDB"/>
<path d="M96.9912 221.632C100.1 223.084 103.179 224.653 106.251 226.207C109.323 227.761 112.366 229.366 115.424 230.942C118.482 232.518 121.51 234.16 124.531 235.808L129.056 238.285C130.56 239.135 132.063 239.963 133.552 240.827C131.998 240.101 130.458 239.324 128.911 238.568L124.299 236.251C121.227 234.697 118.184 233.092 115.126 231.516C112.069 229.94 109.04 228.299 106.019 226.65C102.997 225.002 99.9762 223.346 96.9912 221.632Z" fill="#DBDBDB"/>
<path d="M126.769 216.49L128.729 228.292L142.057 300.258H144.206L134.518 228.292L133.087 216.49H126.769Z" fill="#DBDBDB"/>
<path d="M133.087 216.49H126.769L128.729 228.292H134.518L133.087 216.49Z" fill="#C7C7C7"/>
<path d="M84.9131 300.258H87.0629L100.39 228.292L102.358 216.49H96.0396L94.6088 228.292L84.9131 300.258Z" fill="#DBDBDB"/>
<path d="M96.0401 216.49L94.6094 228.292H100.391L102.359 216.49H96.0401Z" fill="#C7C7C7"/>
<path d="M44.9395 300.258H47.0892L60.4163 228.292L62.3845 216.49H56.066L54.6352 228.292L44.9395 300.258Z" fill="#DBDBDB"/>
<path d="M54.6348 228.292H60.4159L62.3841 216.49H56.0655L54.6348 228.292Z" fill="#C7C7C7"/>
<path d="M48.3457 222.031H146V211.747H109.447L97.1585 132.656H52.0715L48.3457 222.031Z" fill="#DBDBDB"/>
<path d="M48.3457 222.031H53.6693L57.1409 132.656H52.0715L48.3457 222.031Z" fill="#C7C7C7"/>
<path d="M37.0378 255.374H19.5928V258.439H37.0378V255.374Z" fill="#455A64"/>
<path d="M46.5007 300.258H44.6124L29.2518 228.531L28.373 224.442L25.6131 211.566L24.5891 206.765L20.7181 188.746L19.3672 182.435H26.0779L27.1746 188.746L27.8936 192.886L28.373 195.646L31.1255 211.566L32.0189 216.686L46.5007 300.258Z" fill="#455A64"/>
<path d="M26.0779 182.435L27.1746 188.746H20.7181L19.3672 182.435H26.0779Z" fill="#263238"/>
<path d="M32.0186 216.686L29.2515 228.531L28.3728 224.442L25.6129 211.565L24.5889 206.765L27.8934 192.886L28.3728 195.646L31.1253 211.565L32.0186 216.686Z" fill="#263238"/>
<path d="M37.3714 182.435L36.0205 188.746L31.1255 211.566L28.3729 224.442L12.1262 300.258H10.2451L25.613 211.566L28.3729 195.646L29.564 188.746L30.6606 182.435H37.3714Z" fill="#455A64"/>
<path d="M37.3719 182.435L36.021 188.746H29.5645L30.6611 182.435H37.3719Z" fill="#263238"/>
<path d="M193.556 255.374H176.111V258.439H193.556V255.374Z" fill="#455A64"/>
<path d="M203.02 300.258H201.132L185.771 228.531L184.893 224.442L182.133 211.566L181.109 206.765L177.238 188.746L175.887 182.435H182.597L183.694 188.746L184.413 192.886L184.893 195.646L187.645 211.566L188.538 216.686L203.02 300.258Z" fill="#455A64"/>
<path d="M182.597 182.435L183.694 188.746H177.238L175.887 182.435H182.597Z" fill="#263238"/>
<path d="M188.538 216.686L185.771 228.531L184.892 224.442L182.132 211.565L181.108 206.765L184.413 192.886L184.892 195.646L187.645 211.565L188.538 216.686Z" fill="#263238"/>
<path d="M193.891 182.435L192.54 188.746L187.645 211.566L184.892 224.442L168.646 300.258H166.765L182.133 211.566L184.892 195.646L186.084 188.746L187.18 182.435H193.891Z" fill="#455A64"/>
<path d="M193.89 182.435L192.54 188.746H186.083L187.18 182.435H193.89Z" fill="#263238"/>
<path d="M206.964 177.823H6.30176V182.435H206.964V177.823Z" fill="#455A64"/>
<path d="M213.246 169.013H0.0195312V177.823H213.246V169.013Z" fill="#37474F"/>
<path d="M17.261 168.577H48.5488L48.5488 138.517H17.261L17.261 168.577Z" fill="#EBEBEB"/>
<path d="M5.37264 168.577H17.2617L17.2617 138.517H5.37264L5.37264 168.577Z" fill="#C7C7C7"/>
<path d="M48.5495 153.543H17.2617L41.6935 154.321L48.5495 153.543Z" fill="#C7C7C7"/>
<path d="M17.2617 164.946H48.5495L24.1177 165.723L17.2617 164.946Z" fill="#C7C7C7"/>
<path d="M48.5495 145.14H28.7295L46.3489 145.772L48.5495 145.14Z" fill="#C7C7C7"/>
<path d="M17.2617 160.523H37.0817L19.4623 161.155L17.2617 160.523Z" fill="#C7C7C7"/>
<path d="M41.0471 141.8H18.6924L22.4182 142.177L41.0471 141.8Z" fill="#C7C7C7"/>
<path d="M45.5056 156.768H23.1582L26.884 157.146L45.5056 156.768Z" fill="#C7C7C7"/>
<path d="M31.765 148.009H17.2613L14.6758 149.019L31.765 148.009Z" fill="#EBEBEB"/>
<path d="M52.5433 148.009H38.0396L35.4541 149.019L52.5433 148.009Z" fill="#DBDBDB"/>
<path d="M33.9365 161.518H48.4329L51.0257 162.527L33.9365 161.518Z" fill="#DBDBDB"/>
<path d="M17.2613 158.09H5.61916L3.02637 159.099L17.2613 158.09Z" fill="#C7C7C7"/>
<path d="M13.2018 153.543H4.16699L5.3726 152.723L13.2018 153.543Z" fill="#C7C7C7"/>
<path d="M305.272 16.4451H145.601V228.524H305.272V16.4451Z" fill="#8094D4"/>
<g opacity="0.1">
<path d="M305.272 16.4451H145.601V228.524H305.272V16.4451Z" fill="#020100"/>
</g>
<path d="M300.929 16.4451H141.258V228.524H300.929V16.4451Z" fill="#8094D4"/>
<path d="M291.849 24.9102L150.905 26.7061L153.34 217.766L294.283 215.97L291.849 24.9102Z" fill="#EBEBEB"/>
<path d="M152.049 24.3156L147.914 215.346L288.836 218.396L292.971 27.3659L152.049 24.3156Z" fill="#DBDBDB"/>
<path d="M290.906 25.8066H149.951V216.882H290.906V25.8066Z" fill="white"/>
<path d="M181.247 83.6979C177.485 83.7923 170.186 83.9376 166.424 83.9812C166.344 79.6235 166.365 73.5301 166.329 69.1434V68.7803H166.692C171.101 68.8238 177.18 68.7803 181.53 68.8674C181.479 72.6368 181.348 79.9358 181.247 83.6979ZM181.247 83.6979C181.152 80.0665 181.022 72.8038 180.971 69.1725L181.247 69.4484C177.042 69.4993 170.963 69.5138 166.721 69.5356L167.084 69.1725C167.084 73.4647 167.048 79.4928 166.997 83.6979L166.721 83.4219C170.353 83.4655 177.652 83.6108 181.247 83.6979Z" fill="#C7C7C7"/>
<path d="M188.981 71.6343C199.65 71.1404 210.406 71.1404 221.075 71.6343C210.399 72.1354 199.65 72.1282 188.981 71.6343Z" fill="#C7C7C7"/>
<path d="M188.981 75.1422C216.347 74.6556 246.771 74.6702 274.159 75.1422C246.764 75.6071 216.355 75.6216 188.981 75.1422Z" fill="#C7C7C7"/>
<path d="M167.767 75.6653C168.304 76.1156 168.812 76.5804 169.321 77.0525C169.829 77.5246 170.316 78.0112 170.773 78.505C171.754 79.471 172.698 80.466 173.628 81.4755L171.964 81.5844C173.285 78.818 174.799 76.1484 176.496 73.5954C177.339 72.3269 178.235 71.0874 179.184 69.8769C180.141 68.654 181.18 67.4967 182.292 66.4126C181.848 67.8998 181.304 69.3556 180.665 70.7702C180.048 72.1719 179.365 73.5446 178.632 74.8809C177.168 77.5612 175.523 80.1382 173.708 82.594L172.792 83.8141L172.066 82.7029C171.296 81.5627 170.541 80.4151 169.815 79.2458C169.466 78.6503 169.088 78.0693 168.754 77.4665C168.42 76.8637 168.064 76.2899 167.767 75.6653Z" fill="#263238"/>
<path d="M181.247 110.991C177.485 111.086 170.186 111.231 166.424 111.274C166.344 106.917 166.365 100.831 166.329 96.4366V96.0735H166.692C171.101 96.1171 177.18 96.0735 181.53 96.1679C181.479 99.9372 181.348 107.229 181.247 110.991ZM181.247 110.991C181.152 107.36 181.022 100.097 180.971 96.4657L181.247 96.7489C177.042 96.7998 170.963 96.807 166.721 96.8288L167.084 96.4657C167.084 100.758 167.048 106.793 166.997 110.991L166.721 110.715C170.353 110.759 177.652 110.904 181.247 110.991Z" fill="#C7C7C7"/>
<path d="M188.981 98.9058C199.65 98.412 210.406 98.4047 221.075 98.9058C210.399 99.3997 199.65 99.3997 188.981 98.9058Z" fill="#C7C7C7"/>
<path d="M188.981 102.407C216.347 101.927 246.771 101.935 274.159 102.407C246.764 102.879 216.355 102.893 188.981 102.407Z" fill="#C7C7C7"/>
<path d="M167.767 102.93C168.304 103.38 168.812 103.845 169.321 104.317C169.829 104.789 170.316 105.275 170.773 105.769C171.754 106.743 172.698 107.738 173.628 108.747L171.964 108.849C173.288 106.098 174.803 103.443 176.496 100.903C177.339 99.6347 178.235 98.3952 179.184 97.1848C180.139 95.9603 181.178 94.8028 182.292 93.7205C181.848 95.2078 181.304 96.6636 180.665 98.0781C180.048 99.4871 179.365 100.852 178.632 102.196C177.168 104.874 175.523 107.449 173.708 109.902L172.792 111.129L172.066 110.011C171.296 108.878 170.541 107.73 169.815 106.554C169.466 105.958 169.088 105.377 168.754 104.774C168.42 104.172 168.064 103.554 167.767 102.93Z" fill="#263238"/>
<path d="M181.247 138.233C177.485 138.328 170.186 138.473 166.424 138.517C166.344 134.159 166.365 128.066 166.329 123.679V123.338H166.692C171.101 123.381 177.18 123.338 181.53 123.425C181.479 127.194 181.348 134.486 181.247 138.255V138.233ZM181.247 138.233C181.152 134.602 181.022 127.339 180.971 123.708L181.247 123.984C177.042 124.035 170.963 124.049 166.721 124.071L167.084 123.708C167.084 128 167.048 134.028 166.997 138.233L166.721 137.958C170.353 138.001 177.652 138.146 181.247 138.233Z" fill="#C7C7C7"/>
<path d="M188.981 126.17C199.65 125.676 210.406 125.676 221.075 126.17C210.399 126.664 199.65 126.664 188.981 126.17Z" fill="#C7C7C7"/>
<path d="M188.981 129.678C216.347 129.192 246.771 129.206 274.159 129.678C246.764 130.143 216.355 130.157 188.981 129.678Z" fill="#C7C7C7"/>
<path d="M181.247 165.498C177.485 165.592 170.186 165.738 166.424 165.781C166.344 161.424 166.365 155.337 166.329 150.943V150.58H166.692C171.101 150.624 177.18 150.58 181.53 150.675C181.479 154.437 181.348 161.736 181.247 165.498ZM181.247 165.498C181.152 161.867 181.022 154.604 180.971 150.973L181.247 151.256C177.042 151.307 170.963 151.314 166.721 151.336L167.084 150.973C167.084 155.265 167.048 161.3 166.997 165.498L166.721 165.222C170.353 165.266 177.652 165.411 181.247 165.498Z" fill="#C7C7C7"/>
<path d="M188.981 153.442C199.65 152.941 210.406 152.941 221.075 153.442C210.399 153.936 199.65 153.936 188.981 153.442Z" fill="#C7C7C7"/>
<path d="M188.981 156.942C216.347 156.463 246.771 156.47 274.159 156.942C246.764 157.415 216.355 157.429 188.981 156.942Z" fill="#C7C7C7"/>
<path d="M181.247 192.769C177.485 192.864 170.186 193.002 166.424 193.053C166.344 188.695 166.365 182.602 166.329 178.215V177.852H166.692C171.101 177.895 177.18 177.852 181.53 177.939C181.479 181.708 181.348 189 181.247 192.769ZM181.247 192.769C181.152 189.138 181.022 181.839 180.971 178.244L181.247 178.52C177.042 178.571 170.963 178.585 166.721 178.607L167.084 178.244C167.084 182.536 167.048 188.564 166.997 192.769L166.721 192.493C170.353 192.537 177.652 192.682 181.247 192.769Z" fill="#C7C7C7"/>
<path d="M188.981 180.713C199.65 180.22 210.406 180.22 221.075 180.713C210.399 181.207 199.65 181.207 188.981 180.713Z" fill="#C7C7C7"/>
<path d="M188.981 184.214C216.347 183.727 246.771 183.742 274.159 184.214C246.764 184.679 216.355 184.693 188.981 184.214Z" fill="#C7C7C7"/>
<path d="M207.174 46.1204H205.221V52.6568C205.221 52.836 205.15 53.0078 205.023 53.1344C204.896 53.2611 204.725 53.3323 204.545 53.3323C204.366 53.3323 204.194 53.2611 204.068 53.1344C203.941 53.0078 203.87 52.836 203.87 52.6568V46.1204H201.924C201.744 46.1185 201.572 46.0457 201.445 45.9179C201.319 45.79 201.248 45.6175 201.248 45.4377C201.247 45.3487 201.264 45.2604 201.298 45.1781C201.331 45.0957 201.381 45.0208 201.444 44.9579C201.507 44.895 201.581 44.8453 201.664 44.8117C201.746 44.7781 201.835 44.7613 201.924 44.7622H207.174C207.263 44.7613 207.352 44.7781 207.434 44.8117C207.516 44.8453 207.591 44.895 207.654 44.9579C207.717 45.0208 207.767 45.0957 207.8 45.1781C207.834 45.2604 207.851 45.3487 207.85 45.4377C207.84 45.6142 207.765 45.7809 207.641 45.9066C207.517 46.0323 207.351 46.1083 207.174 46.1204Z" fill="#8094D4"/>
<path d="M213.093 51.3351H210.108L209.505 52.9329C209.454 53.0603 209.366 53.1693 209.252 53.2458C209.138 53.3222 209.003 53.3625 208.866 53.3614C208.787 53.3612 208.709 53.3489 208.634 53.3251C208.468 53.2541 208.335 53.1242 208.26 52.9604C208.184 52.7967 208.173 52.6109 208.227 52.439L210.943 45.1763C211 45.05 211.092 44.9425 211.208 44.8666C211.323 44.7907 211.458 44.7495 211.597 44.7478C211.735 44.7495 211.87 44.7907 211.986 44.8666C212.102 44.9425 212.194 45.05 212.251 45.1763L214.967 52.439C215.021 52.6109 215.009 52.7967 214.934 52.9604C214.859 53.1242 214.726 53.2541 214.56 53.3251C214.485 53.3489 214.407 53.3612 214.328 53.3614C214.191 53.3631 214.057 53.3229 213.945 53.2463C213.832 53.1697 213.745 53.0603 213.696 52.9329L213.093 51.3351ZM212.592 49.9842L211.597 47.3406L210.602 49.9842H212.592Z" fill="#8094D4"/>
<path d="M216.166 51.2262C216.219 51.1613 216.285 51.1075 216.359 51.068C216.433 51.0284 216.514 51.0039 216.598 50.9958C216.682 50.9877 216.766 50.9962 216.846 51.0208C216.927 51.0454 217.002 51.0855 217.066 51.139C217.725 51.7004 218.548 52.0319 219.412 52.0832C219.961 52.096 220.499 51.9359 220.952 51.6256C221.104 51.5322 221.23 51.4035 221.321 51.2504C221.412 51.0974 221.465 50.9246 221.475 50.7468C221.478 50.6059 221.44 50.4672 221.366 50.3474C221.271 50.2003 221.144 50.0762 220.996 49.9843C220.475 49.6921 219.907 49.4954 219.318 49.4032C218.772 49.3126 218.239 49.1514 217.735 48.9239C217.269 48.7193 216.871 48.3869 216.587 47.9652C216.402 47.6613 216.306 47.3114 216.311 46.9557C216.323 46.6009 216.418 46.2538 216.588 45.9423C216.759 45.6308 216.999 45.3635 217.292 45.1618C217.917 44.7317 218.66 44.5059 219.419 44.5154C220.391 44.5649 221.325 44.9066 222.099 45.4959C222.236 45.5901 222.33 45.7343 222.362 45.8974C222.393 46.0605 222.359 46.2293 222.266 46.3674C222.223 46.4384 222.165 46.4999 222.097 46.5481C222.029 46.5963 221.952 46.6302 221.871 46.6479C221.79 46.6655 221.705 46.6665 221.624 46.6508C221.542 46.635 221.464 46.6029 221.395 46.5562C220.833 46.0958 220.144 45.8194 219.419 45.7646C218.927 45.7576 218.444 45.9049 218.04 46.1858C217.905 46.2669 217.793 46.3793 217.712 46.5134C217.631 46.6475 217.584 46.7993 217.575 46.9557C217.566 47.0782 217.597 47.2002 217.662 47.3043C217.748 47.4318 217.859 47.5405 217.989 47.6239C218.464 47.8983 218.986 48.0807 219.528 48.1613C220.114 48.2634 220.685 48.4365 221.228 48.677C221.725 48.8968 222.15 49.2516 222.455 49.701C222.649 50.0155 222.752 50.3775 222.753 50.7468C222.741 51.1256 222.638 51.496 222.454 51.827C222.269 52.158 222.008 52.4401 221.693 52.6497C221.031 53.1269 220.235 53.3813 219.419 53.3759C218.265 53.3241 217.159 52.8927 216.275 52.1486C216.207 52.0954 216.15 52.0293 216.107 51.954C216.065 51.8788 216.038 51.7958 216.028 51.7101C216.018 51.6243 216.025 51.5374 216.048 51.4543C216.072 51.3713 216.112 51.2937 216.166 51.2262Z" fill="#8094D4"/>
<path d="M224.634 52.6858V45.4957C224.634 45.3166 224.705 45.1448 224.832 45.0181C224.958 44.8915 225.13 44.8203 225.309 44.8203C225.488 44.8203 225.66 44.8915 225.787 45.0181C225.913 45.1448 225.985 45.3166 225.985 45.4957V49.0254L229.965 45.0309C230.027 44.9668 230.101 44.9158 230.184 44.881C230.266 44.8462 230.355 44.8283 230.444 44.8283C230.533 44.8283 230.622 44.8462 230.704 44.881C230.787 44.9158 230.861 44.9668 230.923 45.0309C231.049 45.1587 231.12 45.3309 231.12 45.5103C231.12 45.6897 231.049 45.8619 230.923 45.9896L228.222 48.6768L230.952 52.2573C231.01 52.325 231.053 52.4037 231.079 52.4886C231.106 52.5736 231.114 52.6629 231.105 52.7513C231.095 52.8397 231.068 52.9252 231.024 53.0026C230.98 53.08 230.921 53.1477 230.851 53.2015C230.733 53.3064 230.58 53.3634 230.422 53.3613C230.326 53.3592 230.231 53.336 230.144 53.2934C230.058 53.2507 229.981 53.1896 229.921 53.1143L227.263 49.6355L225.985 50.9428V52.6858C225.985 52.865 225.913 53.0368 225.787 53.1635C225.66 53.2901 225.488 53.3613 225.309 53.3613C225.13 53.3613 224.958 53.2901 224.832 53.1635C224.705 53.0368 224.634 52.865 224.634 52.6858Z" fill="#8094D4"/>
<path d="M233.029 51.2262C233.081 51.1606 233.146 51.1063 233.22 51.0663C233.293 51.0263 233.374 51.0015 233.457 50.9933C233.541 50.9852 233.625 50.9939 233.705 51.0189C233.785 51.044 233.859 51.0848 233.922 51.139C234.582 51.6995 235.405 52.0308 236.268 52.0832C236.817 52.096 237.356 51.9359 237.808 51.6256C237.961 51.5335 238.09 51.4053 238.182 51.2521C238.275 51.0989 238.328 50.9255 238.338 50.7468C238.342 50.6048 238.301 50.4652 238.222 50.3474C238.128 50.202 238.004 50.0782 237.859 49.9843C237.337 49.691 236.766 49.4942 236.174 49.4032C235.628 49.3126 235.095 49.1514 234.591 48.9239C234.126 48.721 233.73 48.388 233.45 47.9652C233.26 47.6634 233.162 47.3126 233.167 46.9557C233.179 46.6009 233.274 46.2538 233.444 45.9423C233.615 45.6308 233.855 45.3635 234.148 45.1618C234.773 44.7317 235.517 44.5059 236.276 44.5154C237.248 44.5635 238.182 44.9054 238.956 45.4959C239.096 45.5922 239.193 45.7404 239.224 45.908C239.255 46.0755 239.219 46.2486 239.123 46.3892C239.026 46.5298 238.878 46.6264 238.711 46.6577C238.543 46.6891 238.37 46.6526 238.229 46.5562C237.668 46.0958 236.978 45.8194 236.254 45.7646C235.761 45.7576 235.279 45.9049 234.874 46.1858C234.741 46.2682 234.63 46.381 234.549 46.5148C234.468 46.6486 234.42 46.7998 234.409 46.9557C234.404 47.0778 234.434 47.1988 234.496 47.3043C234.586 47.4317 234.699 47.5403 234.83 47.6239C235.302 47.8984 235.823 48.0808 236.363 48.1613C236.946 48.2644 237.514 48.4375 238.055 48.677C238.552 48.8968 238.977 49.2516 239.282 49.701C239.479 50.0141 239.583 50.377 239.58 50.7468C239.568 51.1256 239.465 51.496 239.281 51.827C239.097 52.158 238.836 52.4401 238.52 52.6497C237.859 53.1278 237.062 53.3823 236.247 53.3759C235.092 53.3209 233.988 52.8899 233.102 52.1486C233.036 52.0934 232.981 52.0255 232.941 51.9489C232.902 51.8723 232.878 51.7886 232.871 51.7027C232.864 51.6167 232.875 51.5303 232.902 51.4485C232.929 51.3666 232.972 51.2911 233.029 51.2262Z" fill="#8094D4"/>
<path d="M254.179 12.574H184.943V33.6795H254.179V12.574Z" fill="#C7C7C7"/>
<path d="M240.729 1.03345H197.762L195.859 12.5739H243.27L240.729 1.03345ZM219.558 9.31296C219.056 9.31296 218.566 9.1643 218.149 8.88578C217.733 8.60727 217.408 8.2114 217.216 7.74825C217.024 7.2851 216.974 6.77545 217.072 6.28377C217.169 5.79209 217.411 5.34045 217.765 4.98597C218.12 4.63149 218.571 4.39008 219.063 4.29228C219.555 4.19448 220.064 4.24467 220.528 4.43652C220.991 4.62836 221.387 4.95324 221.665 5.37007C221.944 5.78689 222.092 6.27695 222.092 6.77826C222.093 7.11139 222.028 7.44143 221.901 7.74938C221.774 8.05734 221.588 8.33714 221.352 8.5727C221.117 8.80826 220.837 8.99493 220.529 9.12197C220.221 9.24901 219.891 9.31392 219.558 9.31296Z" fill="#C7C7C7"/>
<path d="M243.27 12.5739H195.859L196.288 9.99561H242.697L243.27 12.5739Z" fill="#A6A6A6"/>
<path d="M0.0195312 300.258C99.301 299.815 210.682 299.808 309.964 300.258C210.682 300.708 99.301 300.701 0.0195312 300.258Z" fill="#263238"/>
<path d="M147.497 300.251C145.725 300.832 95.0745 300.185 93.1644 298.929C92.4381 298.471 92.0968 291.085 91.9443 282.152V281.869C91.908 280.031 91.8862 278.128 91.8789 276.211C91.8789 275.942 91.8789 275.681 91.8789 275.419L94.3264 249.143L128.207 249.47L124.873 275.499L124.83 276.531L124.627 281.92V282.471C124.627 282.471 143.902 291.39 145.855 292.988C147.809 294.586 149.276 299.691 147.497 300.251Z" fill="#AD6359"/>
<path d="M147.497 300.251C145.725 300.832 95.0745 300.185 93.1644 298.929C92.4381 298.471 92.0968 291.085 91.9443 282.152V281.869C91.908 280.031 91.8862 278.128 91.8789 276.211C91.8789 275.942 91.8789 275.681 91.8789 275.419L124.873 275.499L124.83 276.531L124.627 281.92V282.472C124.627 282.472 143.902 291.39 145.855 292.988C147.809 294.586 149.276 299.691 147.497 300.251Z" fill="#EBEBEB"/>
<path d="M147.504 300.251C146.589 300.548 132.833 300.519 119.383 300.251C116.674 300.192 113.987 300.134 111.394 300.062C101.8 299.8 93.8761 299.408 93.1426 298.929C92.409 298.449 92.0749 291.288 91.9297 282.522C91.9297 282.399 91.9297 282.275 91.9297 282.152C91.9297 282.028 91.9297 281.956 91.9297 281.861H91.966L124.605 281.919V282.471C124.605 282.471 143.887 291.39 145.841 292.981C147.795 294.571 149.276 299.684 147.504 300.251Z" fill="#8094D4"/>
<path d="M146.952 298.282C138.418 297.963 103.964 297.483 95.5027 297.818C95.4301 297.818 95.4301 297.868 95.5027 297.876C103.957 298.377 138.411 298.602 146.952 298.42C147.133 298.42 147.133 298.29 146.952 298.282Z" fill="#263238"/>
<path d="M128.258 282.058C124.91 281.389 120.792 281.854 118.191 284.236C118.09 284.331 118.191 284.469 118.337 284.44C121.558 283.445 124.877 282.797 128.236 282.508C128.296 282.511 128.354 282.49 128.398 282.45C128.442 282.409 128.469 282.353 128.472 282.294C128.475 282.234 128.454 282.175 128.414 282.131C128.373 282.087 128.317 282.06 128.258 282.058Z" fill="#263238"/>
<path d="M130.662 283.554C127.314 282.885 123.196 283.343 120.603 285.732C120.501 285.827 120.603 285.972 120.741 285.936C123.964 284.94 127.286 284.292 130.647 284.004C130.707 284.006 130.765 283.984 130.808 283.943C130.852 283.902 130.878 283.846 130.88 283.786C130.881 283.726 130.86 283.668 130.819 283.625C130.778 283.581 130.721 283.555 130.662 283.554Z" fill="#263238"/>
<path d="M133.073 285.042C129.718 284.374 125.607 284.839 123.007 287.221C122.905 287.316 123.007 287.454 123.145 287.425C126.368 286.426 129.689 285.778 133.051 285.493C133.111 285.496 133.17 285.475 133.214 285.434C133.258 285.394 133.285 285.338 133.287 285.278C133.29 285.219 133.269 285.16 133.229 285.116C133.189 285.072 133.133 285.045 133.073 285.042Z" fill="#263238"/>
<path d="M119.404 300.251C116.695 300.192 114.008 300.134 111.415 300.062C101.821 299.8 93.8976 299.408 93.164 298.929C92.4305 298.449 92.0964 291.288 91.9512 282.522C91.9512 282.399 91.9512 282.275 91.9512 282.152C91.9512 282.028 91.9512 281.956 91.9512 281.861H91.9875C96.4541 284.999 112.214 295.464 119.404 300.251Z" fill="#263238"/>
<path d="M126.573 282.036H90.0994C90.0994 282.036 97.4202 196.837 97.1369 195.348C96.7738 193.445 94.6168 184.824 91.748 173.56C90.8474 170.03 89.8742 166.253 88.8429 162.331C86.1194 151.735 83.1199 140.151 80.5053 130.07C76.5762 114.971 73.5186 107.193 73.5186 107.193H104.429C104.429 107.193 129.848 179.951 130.858 194.985C131.751 208.101 126.573 282.036 126.573 282.036Z" fill="#263238"/>
<path d="M124.954 275.811C119.383 275.695 120.988 275.652 115.418 275.594C112.687 275.594 94.77 275.419 92.2207 275.841C92.1699 275.841 92.1699 275.942 92.2207 275.957C94.77 276.378 112.687 276.218 115.418 276.189C120.988 276.131 119.383 276.087 124.954 275.971C124.975 275.971 124.995 275.963 125.01 275.948C125.025 275.933 125.034 275.913 125.034 275.891C125.034 275.87 125.025 275.85 125.01 275.835C124.995 275.82 124.975 275.811 124.954 275.811Z" fill="#37474F"/>
<path d="M104 190.155C102.802 184.882 101.015 179.718 99.454 174.54C96.2923 164.024 93.1088 153.514 89.9035 143.012C88.3057 137.762 80.8905 118.109 80.1569 115.494C79.8592 114.434 79.6994 115.015 80.0843 116.366C80.8542 119.089 93.5203 158.046 96.7305 168.723C98.338 174.078 99.9479 179.428 101.56 184.773C102.374 187.319 103.034 189.912 103.536 192.537C103.965 195.285 104.072 198.073 103.855 200.846C103.507 206.423 102.86 212.001 102.352 217.55L100.805 234.254C99.7784 245.361 98.7616 256.466 97.7545 267.568C97.6311 268.977 97.5076 270.379 97.3986 271.788C97.3986 272.26 98.0741 272.224 98.1249 271.788C99.3233 260.807 100.246 249.789 101.27 238.793C102.294 227.798 103.318 216.911 104.335 205.966C104.596 203.22 104.887 200.468 104.887 197.708C104.873 195.165 104.575 192.632 104 190.155Z" fill="#37474F"/>
<path d="M100.95 107.193C98.7713 123.795 94.726 150.98 91.7482 173.567C84.7688 146.201 73.5479 107.2 73.5479 107.2L100.95 107.193Z" fill="#37474F"/>
<path d="M109.781 300.752C108.002 301.333 57.3517 300.868 55.4416 299.626C54.7153 299.169 54.3376 291.782 54.1561 282.849V282.566C54.1125 280.728 54.0834 278.833 54.0689 276.908C54.0689 276.647 54.0689 276.378 54.0689 276.117C53.9454 263.218 54.8751 249.84 54.8751 249.84L87.9786 250.051L87.0562 276.08V277.112L86.8674 282.501V283.053C86.8674 283.053 106.172 291.906 108.14 293.489C110.108 295.072 111.553 300.178 109.781 300.752Z" fill="#AD6359"/>
<path d="M109.782 300.752C108.002 301.333 57.3521 300.868 55.442 299.626C54.7157 299.169 54.3381 291.782 54.1565 282.849V282.566C54.1129 280.728 54.0839 278.833 54.0693 276.908C54.0693 276.647 54.0693 276.378 54.0693 276.117L87.0566 276.08V277.112L86.8678 282.501V283.053C86.8678 283.053 106.172 291.906 108.14 293.489C110.109 295.072 111.554 300.178 109.782 300.752Z" fill="#EBEBEB"/>
<path d="M109.781 300.752C108.002 301.333 57.3518 300.868 55.4418 299.626C54.7155 299.168 54.3378 291.782 54.1562 282.849V282.566L86.8385 282.5V283.052C86.8385 283.052 106.143 291.906 108.111 293.489C110.079 295.072 111.554 300.178 109.781 300.752Z" fill="#8094D4"/>
<path d="M109.237 298.784C100.703 298.493 66.2489 298.144 57.7879 298.508C57.7152 298.508 57.7152 298.558 57.7879 298.558C66.2417 299.03 100.696 299.103 109.237 298.922C109.404 298.914 109.404 298.791 109.237 298.784Z" fill="#263238"/>
<path d="M90.4703 282.624C87.1149 281.97 83.0042 282.45 80.4114 284.803C80.317 284.897 80.4477 285.035 80.5566 285.006C83.7756 283.995 87.0946 283.335 90.4557 283.038C90.4999 283.025 90.5389 282.999 90.5672 282.963C90.5955 282.927 90.6115 282.882 90.6132 282.836C90.6148 282.79 90.6018 282.745 90.5762 282.707C90.5505 282.669 90.5134 282.64 90.4703 282.624Z" fill="#263238"/>
<path d="M92.8814 284.113C89.526 283.452 85.4153 283.931 82.8225 286.292C82.7281 286.386 82.8588 286.524 82.9678 286.495C86.1895 285.503 89.5081 284.858 92.8669 284.57C92.9276 284.572 92.9865 284.55 93.0308 284.508C93.075 284.467 93.101 284.409 93.1029 284.349C93.1048 284.288 93.0826 284.229 93.041 284.185C92.9995 284.141 92.9421 284.115 92.8814 284.113Z" fill="#263238"/>
<path d="M95.2921 285.594C91.9367 284.934 87.826 285.413 85.2405 287.773C85.1388 287.86 85.2405 288.006 85.3785 287.969C88.5994 286.97 91.9179 286.317 95.2776 286.023C95.3057 286.024 95.3337 286.019 95.3601 286.009C95.3865 286 95.4106 285.985 95.4312 285.965C95.4518 285.946 95.4683 285.923 95.48 285.897C95.4916 285.872 95.4981 285.844 95.4991 285.816C95.5 285.788 95.4954 285.76 95.4855 285.733C95.4757 285.707 95.4607 285.683 95.4414 285.662C95.4222 285.642 95.3991 285.625 95.3735 285.614C95.3479 285.602 95.3202 285.595 95.2921 285.594Z" fill="#263238"/>
<path d="M104.248 107.193C103.612 114.826 102.243 122.38 100.159 129.751C99.89 130.717 99.5923 131.668 99.2727 132.583C99.2727 132.583 96.5419 133.862 91.153 137.166C91.153 137.166 90.8044 149.07 90.4267 162.339C90.0345 177.177 89.6278 193.728 89.7004 197.236C90.0127 210.367 88.0736 282.573 88.0736 282.573L51.6074 282.733C51.6074 282.733 58.1439 202.117 58.1439 197.28C58.0712 189.545 59.9015 155.374 61.3104 130.463C62.1747 115.109 62.8864 107.222 62.8864 107.222L104.248 107.193Z" fill="#263238"/>
<path d="M86.8599 276.088C81.2894 276 82.8872 275.942 77.3167 275.92C74.5932 275.92 56.6761 275.826 54.1268 276.262C54.0687 276.262 54.076 276.364 54.1268 276.371C56.6761 276.785 74.5932 276.545 77.324 276.509C82.8945 276.429 81.2894 276.393 86.8599 276.255C86.8779 276.249 86.8937 276.238 86.9049 276.223C86.9161 276.208 86.9222 276.19 86.9222 276.171C86.9222 276.152 86.9161 276.134 86.9049 276.119C86.8937 276.104 86.8779 276.093 86.8599 276.088Z" fill="#37474F"/>
<path d="M65.9803 112.487C65.3121 132.823 64.6077 149.229 63.6998 169.572C62.792 189.915 61.5646 210.374 59.8651 230.732C58.9137 242.105 58.0204 258.105 56.793 269.457C56.793 269.529 56.9019 269.558 56.9092 269.457C59.5601 249.274 61.0344 224.319 62.3417 204.005C63.649 183.691 64.5205 163.334 65.2105 142.998C65.5954 131.494 65.8932 123.933 66.2345 112.429C66.2418 112.306 65.9876 112.32 65.9803 112.487Z" fill="#37474F"/>
<path d="M67.3818 125.705C68.2824 125.473 69.2411 125.4 70.1562 125.255C70.8825 125.139 71.6087 125.008 72.335 124.848C73.738 124.596 75.0675 124.035 76.2278 123.207C78.0435 121.755 80.1352 114.586 80.3894 114.129C80.8251 113.337 80.9559 114.027 80.9559 114.129C80.9559 114.964 79.0458 121.268 78.305 122.445C76.9541 124.623 74.5284 125.466 72.1099 125.771C71.4199 125.858 70.7227 125.909 70.0255 125.945C69.1461 126.025 68.2612 126.025 67.3818 125.945C67.3551 125.939 67.3313 125.923 67.3143 125.901C67.2973 125.88 67.2881 125.853 67.2881 125.825C67.2881 125.798 67.2973 125.771 67.3143 125.749C67.3313 125.728 67.3551 125.712 67.3818 125.705Z" fill="#37474F"/>
<path d="M99.1563 132.779C95.6067 134.068 92.1755 135.662 88.9013 137.544C88.8769 137.558 88.8587 137.582 88.8501 137.609C88.8415 137.636 88.8432 137.665 88.8549 137.691C88.8665 137.717 88.8873 137.738 88.9133 137.75C88.9392 137.761 88.9686 137.763 88.9957 137.754C92.4528 136.302 95.9825 134.849 99.3596 133.172C99.4004 133.139 99.4287 133.094 99.4395 133.043C99.4504 132.992 99.4432 132.938 99.4192 132.892C99.3952 132.846 99.3558 132.809 99.3079 132.789C99.2599 132.768 99.2064 132.765 99.1563 132.779Z" fill="#37474F"/>
<path d="M100.195 109.059C100.195 108.943 99.9772 108.914 99.9772 109.059C99.9788 112.918 99.7849 116.775 99.3962 120.614C99.2364 122.401 97.8057 132.235 94.7118 131.508C94.1961 131.392 93.9347 130.877 93.8548 130.099C93.865 129.079 94.0016 128.065 94.2615 127.078C94.6028 125.015 94.8788 122.946 95.0604 120.868C95.4164 116.989 95.3726 113.083 94.9296 109.212C94.9237 109.19 94.911 109.171 94.8932 109.158C94.8755 109.144 94.8539 109.137 94.8316 109.137C94.8093 109.137 94.7877 109.144 94.7699 109.158C94.7522 109.171 94.7394 109.19 94.7335 109.212C94.8261 114.59 94.5105 119.968 93.7894 125.299C93.4045 127.855 92.1117 131.712 94.7916 132.111C97.4716 132.511 99.2873 126.047 99.6214 124.282C100.471 119.254 100.664 114.137 100.195 109.059Z" fill="#37474F"/>
<path d="M94.7982 131.784C94.5083 132.447 94.2656 133.129 94.0719 133.825C93.8753 134.362 93.7769 134.931 93.7814 135.503C93.7814 135.612 93.9412 135.619 93.9993 135.546C94.3231 135.042 94.568 134.491 94.7256 133.912C94.958 133.28 95.2049 132.656 95.4518 132.017C95.4826 131.93 95.4778 131.835 95.4383 131.752C95.3988 131.669 95.3279 131.605 95.2412 131.574C95.1545 131.543 95.0592 131.548 94.9761 131.587C94.893 131.627 94.829 131.698 94.7982 131.784Z" fill="#37474F"/>
<path d="M98.1683 67.778C97.1007 84.032 97.8488 100.642 99.9332 103.649C103.165 108.319 124.38 118.305 131.519 120.128C133.857 120.723 139.152 105.181 137.59 103.126C136.029 101.07 112.897 92.0501 111.742 90.9824C111.125 90.4087 107.77 77.0453 104.937 67.9814C102.308 59.5566 98.4952 62.8394 98.1683 67.778Z" fill="#AD6359"/>
<path d="M123.479 118.036L130.436 98.4703C130.436 98.4703 114.24 91.2076 112.323 90.1182C111.51 89.6679 107.275 73.1524 105.06 65.9914C103.608 61.2851 99.1557 58.9466 97.478 68.3155C96.4975 73.7988 95.6696 100.33 99.2066 104.731C102.032 108.239 123.479 118.036 123.479 118.036Z" fill="#455A64"/>
<path d="M120.269 115.436C120.545 113.984 122.681 108.137 123.233 106.721C123.785 105.305 126.138 99.5598 126.74 98.0782C126.74 97.9983 126.9 98.0201 126.864 98.0782C126.327 99.5307 124.38 105.472 123.843 106.917C123.305 108.362 121.112 114.18 120.342 115.465C120.34 115.47 120.337 115.474 120.334 115.478C120.33 115.482 120.326 115.485 120.321 115.487C120.316 115.489 120.311 115.49 120.306 115.49C120.301 115.49 120.296 115.489 120.291 115.487C120.286 115.485 120.282 115.482 120.278 115.479C120.275 115.475 120.272 115.471 120.27 115.466C120.268 115.461 120.267 115.456 120.267 115.451C120.267 115.446 120.267 115.441 120.269 115.436Z" fill="#263238"/>
<path opacity="0.1" d="M116.666 114.811C110.13 111.63 100.993 106.939 99.2359 104.738C95.6989 100.33 96.5196 73.7988 97.5074 68.3155C98.3498 63.5802 99.9113 61.8444 101.429 61.8807L116.666 114.811Z" fill="#020100"/>
<path d="M61.4631 107.077C61.543 107.207 105.846 112.611 106.332 112.24C106.514 112.103 107.61 72.5061 102.962 61.9897C101.045 57.632 93.2666 55.3515 88.9235 59.9561C67.6945 82.427 61.3614 106.902 61.4631 107.077Z" fill="#EBEBEB"/>
<path d="M68.0881 123.868L74.8135 142.829L167.103 110.093L160.378 91.1325L68.0881 123.868Z" fill="#8094D4"/>
<path opacity="0.2" d="M68.0881 123.868L74.8135 142.829L167.103 110.093L160.378 91.1325L68.0881 123.868Z" fill="#020100"/>
<g opacity="0.1">
<path d="M158.994 95.8413C131.527 105.82 100.631 116.78 73.0107 126.345C100.478 116.366 131.374 105.406 158.994 95.8413Z" fill="black"/>
<path d="M160.33 99.6034C132.863 109.575 101.974 120.535 74.376 130.092C101.844 120.113 132.739 109.161 160.359 99.5889L160.33 99.6034Z" fill="black"/>
<path d="M161.659 103.358C134.192 113.337 103.296 124.297 75.6758 133.862C103.143 123.883 134.046 112.923 161.659 103.358Z" fill="black"/>
<path d="M162.981 107.12C135.514 117.099 104.618 128.059 76.998 137.624C104.466 127.645 135.361 116.693 162.981 107.12Z" fill="black"/>
</g>
<path d="M67.222 145.773C67.222 145.773 55.9139 151.212 52.101 140.464C48.2881 129.715 60.4967 126.81 60.4967 126.81L67.222 145.773Z" fill="#FF9ABB"/>
<path d="M59.9801 124.963L67.832 147.1L73.2053 145.194L65.3533 123.057L59.9801 124.963Z" fill="#A6A6A6"/>
<path d="M65.9088 122.852L73.7607 144.989L79.134 143.083L71.282 120.946L65.9088 122.852Z" fill="#A6A6A6"/>
<path d="M160.352 91.1133L176.526 93.4083L181.864 94.1346L178.233 98.1218L167.128 110.098L163.693 109.154C163.693 109.154 165.748 106.358 165.777 106.3L162.342 105.355C162.342 105.355 164.405 102.559 164.434 102.501L161.013 101.601C161.013 101.601 163.061 98.7609 163.083 98.6956L159.669 97.795C159.669 97.795 161.71 94.9553 161.739 94.8899L158.318 93.9893C158.318 93.9893 160.33 91.1714 160.352 91.1133Z" fill="#8094D4"/>
<path opacity="0.8" d="M160.352 91.1133L176.526 93.4083L181.864 94.1346L178.233 98.1218L167.128 110.098L163.693 109.154C163.693 109.154 165.748 106.358 165.777 106.3L162.342 105.355C162.342 105.355 164.405 102.559 164.434 102.501L161.013 101.601C161.013 101.601 163.061 98.7609 163.083 98.6956L159.669 97.795C159.669 97.795 161.71 94.9553 161.739 94.8899L158.318 93.9893C158.318 93.9893 160.33 91.1714 160.352 91.1133Z" fill="white"/>
<path d="M176.526 93.4082L181.864 94.149L178.197 98.1217L176.526 93.4082Z" fill="#263238"/>
<path d="M85.0666 62.5779C75.0659 71.4748 61.4918 87.8595 62.1019 92.0646C63.6271 102.588 71.4345 115.843 75.5234 120.745C77.9056 123.607 93.6221 111.761 91.6249 109.125C88.4874 104.949 81.014 91.7814 80.1643 90.0674C79.7067 89.1523 86.6426 76.6023 90.4193 68.0032C94.53 58.6488 89.9472 58.2494 85.0666 62.5779Z" fill="#AD6359"/>
<path d="M96.8901 117.382C96.3236 116.228 96.9264 115.93 98.9745 116.91C101.023 117.891 108.314 123.563 110.079 120.854C111.844 118.145 101.444 110.308 97.8923 108.921C94.3409 107.534 88.1748 106.539 88.1748 106.539C89.8743 108.464 93.5928 113.548 96.8901 117.382Z" fill="#AD6359"/>
<path d="M75.4141 120.665C80.4471 125.923 86.3953 132.787 94.2972 135.016C95.1699 135.29 96.1096 135.259 96.9626 134.929C100.492 135.997 102.046 134.646 102.046 134.646C105.634 134.646 107.043 133.041 107.043 133.041C107.043 133.041 111.19 134.239 112.338 131.85C113.631 129.177 107.544 128.008 104.588 125.313C97.8196 119.155 89.9177 108.5 88.1456 106.532L75.4141 120.665Z" fill="#AD6359"/>
<path d="M92.9682 123.846C94.9288 125.682 97.0133 127.38 99.2069 128.93C101.707 130.466 104.316 131.816 107.014 132.968C107.025 132.969 107.036 132.973 107.045 132.979C107.055 132.985 107.063 132.993 107.069 133.003C107.074 133.012 107.078 133.023 107.079 133.034C107.08 133.045 107.078 133.056 107.074 133.067C107.07 133.077 107.064 133.086 107.056 133.094C107.047 133.102 107.037 133.107 107.027 133.11C107.016 133.113 107.005 133.114 106.994 133.112C106.983 133.11 106.972 133.106 106.963 133.099C101.524 131.398 96.6559 128.238 92.8883 123.962C92.8011 123.839 92.8665 123.759 92.9682 123.846Z" fill="#263238"/>
<path d="M88.6613 127.398C90.7312 129.01 94.3843 131.828 102.09 134.566C102.09 134.566 102.09 134.624 102.09 134.617C97.0178 133.541 92.3453 131.074 88.5959 127.492C88.458 127.383 88.5233 127.289 88.6613 127.398Z" fill="#263238"/>
<path d="M86.3739 129.344C90.0052 131.959 92.6126 133.15 96.9629 134.907C96.9629 134.907 96.9629 134.965 96.9629 134.951C91.8137 133.498 90.1142 132.351 86.2867 129.453C86.1415 129.359 86.2359 129.242 86.3739 129.344Z" fill="#263238"/>
<path d="M71.2677 120.157L91.2983 106.438L81.1304 90.1182C84.6238 83.2259 91.1312 69.601 92.8307 64.4735C94.8279 58.46 91.3782 57.7265 86.2507 61.6992C74.6303 70.7776 59.6182 88.288 58.9283 91.9194C57.9406 97.1122 71.2677 120.157 71.2677 120.157Z" fill="#455A64"/>
<path d="M71.5071 115.189C72.5819 114.114 77.7022 110.476 78.9877 109.582C80.2732 108.689 85.5241 105.276 86.8822 104.368C86.9549 104.317 87.042 104.404 86.9694 104.455C85.6766 105.377 80.6581 109.212 79.3798 110.112C78.1016 111.013 72.9233 114.623 71.5506 115.255C71.5071 115.284 71.4707 115.225 71.5071 115.189Z" fill="#263238"/>
<path d="M89.1771 73.5445C87.1726 78.4977 84.4345 83.5961 82.1831 88.4476C82.0233 88.7962 81.5222 89.9002 81.4568 90.0745C83.7083 94.069 86.5407 98.3685 88.9011 102.348L91.3269 106.379L90.7749 106.728L91.2905 106.321V106.372L88.6251 102.486C86.0977 98.6663 83.2943 94.4975 80.992 90.5828C80.8976 90.3722 80.7669 90.2633 80.7814 89.9728C80.963 89.3264 81.2062 88.6989 81.5077 88.099C83.7591 83.3782 86.7078 78.0982 89.1553 73.4937L89.1771 73.5445Z" fill="#263238"/>
<path d="M89.3229 74.5105C88.9276 75.2839 88.3613 75.957 87.667 76.4787C88.179 75.79 88.7319 75.1328 89.3229 74.5105Z" fill="#263238"/>
<path d="M131.134 113.54C132.347 111.362 134.228 114.034 134.228 114.034C134.228 114.034 132.456 109.524 134.577 107.759C136.697 105.994 138.782 109.386 138.934 109.619C138.84 109.379 137.322 105.188 139.661 103.634C141.999 102.08 143.655 105.726 143.757 105.965C143.757 105.718 143.597 102.334 145.623 101.608C149.109 100.271 150.337 109.815 152.704 111.703L158.173 110.33C157.079 111.28 156.282 112.526 155.878 113.918C155.239 115.915 154.825 117.244 153.903 118.174C153.501 118.605 152.971 118.895 152.392 119.001C151.812 119.107 151.214 119.024 150.685 118.762C150.685 118.762 151.216 121.362 149.429 122.641C148.514 123.294 146.647 122.408 146.647 122.408C146.647 122.408 146.981 124.507 145.326 125.546C144.004 126.381 142.341 125.364 142.341 125.364C142.341 125.364 141.73 127.543 140.104 127.942C136.835 128.756 128.534 118.21 131.134 113.54Z" fill="#AD6359"/>
<path d="M154.004 111.55L158.057 110.345H158.536C163.947 110.25 168.384 115.574 164.687 116.758C161.877 117.658 158.006 114.47 155.246 115.814L154.004 111.55Z" fill="#AD6359"/>
<path d="M142.043 125.212C142.043 125.212 142.043 125.299 141.999 125.27C138.273 122.369 135.52 118.401 134.105 113.896C134.068 113.751 134.286 113.62 134.359 113.773C136.35 117.939 138.939 121.793 142.043 125.212Z" fill="#263238"/>
<path d="M146.662 122.452C146.662 122.488 146.662 122.546 146.589 122.51C142.922 119.605 139.603 114.811 138.753 109.582C138.753 109.401 138.876 109.212 138.927 109.415C139.741 112.85 143.699 119.285 146.662 122.452Z" fill="#263238"/>
<path d="M143.815 105.581C144.824 110.563 147.33 114.724 150.518 118.653C150.562 118.704 150.482 118.755 150.438 118.726C148.361 117.273 146.589 114.543 145.355 112.328C144.201 110.29 143.6 107.987 143.611 105.646C143.641 105.522 143.793 105.479 143.815 105.581Z" fill="#263238"/>
<path d="M95.0239 56.8621C92.8451 57.7408 93.0267 60.6169 94.5155 64.1684C96.0044 67.7198 98.3285 70.2255 100.718 70.0366C103.107 69.8478 104.001 66.4706 104.219 64.5315C104.386 63.0063 103.826 59.9269 101.197 58.4235C98.5681 56.9202 96.2658 56.3609 95.0239 56.8621Z" fill="#455A64"/>
<path d="M100.115 68.6785C97.5006 68.2791 94.472 62.4616 94.0508 58.8593C94.0508 58.6124 95.191 56.6006 96.5056 54.0877C97.29 52.5625 98.1324 50.8485 98.7861 49.2217L107.966 55.7945C106.57 57.5818 105.397 59.533 104.473 61.6046C104.384 61.8278 104.316 62.0588 104.269 62.2946C104.272 62.3333 104.272 62.3721 104.269 62.4108C103.935 63.7835 102.643 69.0635 100.115 68.6785Z" fill="#AD6359"/>
<path d="M104.269 62.331C104.269 62.331 104.269 62.3964 104.269 62.4399C103.904 62.3483 103.547 62.2269 103.201 62.0768C97.3911 59.5712 98.8872 51.8 99.4391 49.6648L101.727 51.3062L107.995 55.8018C106.597 57.5885 105.424 59.5398 104.501 61.612C104.4 61.8433 104.322 62.0841 104.269 62.331Z" fill="#263238"/>
<path d="M100.602 37.8047C98.5682 41.3343 98.0598 52.7514 100.195 55.8162C103.289 60.2537 109.637 62.0622 113.704 58.0531C117.669 54.1676 118.061 39.2717 115.57 36.3594C111.881 32.0744 103.594 32.5973 100.602 37.8047Z" fill="#AD6359"/>
<path d="M109.753 47.3987C109.753 47.3987 109.695 47.3987 109.695 47.464C109.695 48.2339 109.535 49.1127 108.823 49.3306C108.823 49.3306 108.823 49.3814 108.823 49.3741C109.688 49.3015 109.869 48.1322 109.753 47.3987Z" fill="#263238"/>
<path d="M109.106 46.5636C107.879 46.4038 107.653 48.8804 108.801 49.0256C109.948 49.1709 110.144 46.6943 109.106 46.5636Z" fill="#263238"/>
<path d="M114.117 47.6458C114.117 47.6458 114.175 47.6458 114.168 47.7184C114.081 48.481 114.103 49.3743 114.771 49.6866C114.771 49.6866 114.771 49.7374 114.771 49.7302C113.929 49.5341 113.907 48.3502 114.117 47.6458Z" fill="#263238"/>
<path d="M114.873 46.9048C116.115 46.9048 115.991 49.4032 114.873 49.3887C113.754 49.3742 113.834 46.8903 114.873 46.9048Z" fill="#263238"/>
<path d="M108.061 44.6244C108.4 44.5914 108.737 44.5405 109.07 44.4719C109.433 44.4709 109.785 44.351 110.072 44.1306C110.143 44.0374 110.18 43.924 110.18 43.8074C110.18 43.6908 110.143 43.5774 110.072 43.4842C109.914 43.3148 109.714 43.1901 109.492 43.1225C109.27 43.055 109.035 43.047 108.809 43.0993C108.334 43.1397 107.892 43.3545 107.567 43.7021C107.492 43.7876 107.445 43.8939 107.432 44.0068C107.419 44.1197 107.441 44.2338 107.495 44.3339C107.549 44.4341 107.631 44.5155 107.732 44.5674C107.834 44.6193 107.948 44.6392 108.061 44.6244Z" fill="#263238"/>
<path d="M116.115 44.9367C115.789 44.8393 115.469 44.7254 115.156 44.5953C114.801 44.5194 114.48 44.3309 114.241 44.0579C114.189 43.9605 114.169 43.8494 114.183 43.7401C114.198 43.6307 114.246 43.5286 114.321 43.4478C114.509 43.3126 114.73 43.2294 114.96 43.2064C115.191 43.1835 115.424 43.2216 115.635 43.3171C116.092 43.4499 116.483 43.7476 116.732 44.1523C116.776 44.246 116.792 44.3501 116.781 44.4528C116.769 44.5556 116.728 44.653 116.664 44.7343C116.6 44.8156 116.515 44.8775 116.418 44.9133C116.321 44.949 116.216 44.9571 116.115 44.9367Z" fill="#263238"/>
<path d="M109.157 51.909C109.323 52.2304 109.554 52.5138 109.836 52.7413C110.117 52.9688 110.442 53.1355 110.791 53.2308C111.096 53.316 111.412 53.3576 111.728 53.3543C111.789 53.3619 111.85 53.3619 111.91 53.3543H112.077C112.119 53.3502 112.159 53.3324 112.191 53.3036C112.222 53.2748 112.244 53.2365 112.251 53.1945V53.1146V53.042C112.324 52.4537 112.346 51.5531 112.346 51.5531C112.549 51.6838 113.609 52.2794 113.617 51.9598C113.783 49.2933 113.681 46.6168 113.312 43.9708C113.312 43.9516 113.304 43.9331 113.29 43.9195C113.277 43.9058 113.258 43.8982 113.239 43.8982C113.22 43.8982 113.201 43.9058 113.188 43.9195C113.174 43.9331 113.166 43.9516 113.166 43.9708C112.999 46.4329 113.261 48.9095 113.166 51.3933C112.792 51.1746 112.389 51.0107 111.968 50.9067C111.881 50.9067 111.968 52.6498 111.903 52.9185C111.415 52.9252 110.93 52.8335 110.479 52.6488C110.027 52.4641 109.617 52.1902 109.274 51.8436C109.179 51.8 109.114 51.8436 109.157 51.909Z" fill="#263238"/>
<path d="M97.7615 45.3943C97.6453 44.3412 97.1805 35.4008 97.6598 34.2678C98.1392 33.1348 99.1995 33.8683 99.2286 33.8102C99.2576 33.7521 99.4537 32.7789 100.115 32.5102C100.339 32.4584 100.571 32.453 100.797 32.4942C101.023 32.5354 101.238 32.6224 101.429 32.7499C101.429 32.7499 101.785 31.7476 102.475 31.5733C102.704 31.5426 102.937 31.5712 103.152 31.6564C103.367 31.7416 103.557 31.8806 103.702 32.0599C103.807 31.7952 103.975 31.5601 104.192 31.3753C104.408 31.1905 104.666 31.0615 104.944 30.9996C105.187 30.9723 105.432 31.024 105.642 31.147C105.853 31.27 106.018 31.4577 106.114 31.6823C106.114 31.6823 106.557 30.7454 107.261 30.6655C107.966 30.5856 108.438 31.3918 108.438 31.3918C108.576 31.1617 108.774 30.973 109.01 30.8453C109.247 30.7176 109.513 30.6555 109.781 30.6655C110.036 30.7248 110.266 30.8589 110.443 31.0505C110.621 31.2421 110.737 31.4823 110.776 31.7404C110.944 31.5271 111.158 31.3547 111.402 31.2365C111.646 31.1182 111.914 31.057 112.185 31.0577C112.962 31.1593 113.071 32.1689 113.071 32.1689C113.071 32.1689 113.522 31.3627 114.241 31.537C114.96 31.7113 114.967 32.7571 114.967 32.7571C114.967 32.7571 115.621 31.7404 116.34 32.2996C117.189 32.9678 117.247 39.5623 117.066 42.3222C117.066 42.3222 116.761 40.2813 115.976 40.2523C115.192 40.2232 114.662 41.9154 113.238 41.3853C111.815 40.8551 109.927 39.2064 107.82 39.2936C105.714 39.3808 104.022 41.4724 102.795 44.4937C101.436 47.8999 98.0375 47.8854 97.7615 45.3943Z" fill="#263238"/>
<path d="M107.654 50.943C107.062 50.8109 106.519 50.5152 106.087 50.0897C105.654 49.6642 105.35 49.1259 105.209 48.5361C105.068 47.9464 105.095 47.3288 105.288 46.7537C105.48 46.1786 105.83 45.6691 106.298 45.2831C106.766 44.8972 107.332 44.6503 107.934 44.5706C108.535 44.4909 109.146 44.5816 109.698 44.8323C110.251 45.083 110.721 45.4837 111.057 45.9888C111.393 46.4939 111.58 47.0831 111.597 47.6893C111.608 48.1814 111.508 48.6696 111.303 49.1171C111.098 49.5647 110.795 49.96 110.415 50.2732C110.035 50.5865 109.59 50.8095 109.111 50.9255C108.633 51.0415 108.134 51.0475 107.654 50.943ZM108.975 45.0384C108.737 44.9886 108.493 44.9667 108.249 44.973C107.538 45.002 106.864 45.3004 106.365 45.8079C105.865 46.3153 105.578 46.9937 105.56 47.7053C105.543 48.417 105.797 49.1087 106.271 49.64C106.745 50.1713 107.403 50.5025 108.112 50.5663C108.821 50.6301 109.527 50.4218 110.089 49.9836C110.65 49.5454 111.023 48.9102 111.133 48.2068C111.243 47.5035 111.081 46.7847 110.68 46.1963C110.28 45.6078 109.67 45.1939 108.975 45.0384Z" fill="#8094D4"/>
<path d="M115.047 51.6765C113.842 51.4005 113.021 49.9189 113.195 48.2339C113.265 47.4298 113.585 46.6677 114.11 46.0551C114.33 45.7881 114.609 45.577 114.926 45.4393C115.243 45.3017 115.588 45.2414 115.933 45.2635C116.275 45.3104 116.6 45.4393 116.88 45.6392C117.161 45.839 117.389 46.1038 117.546 46.411C117.935 47.1197 118.092 47.9324 117.996 48.7351C117.807 50.5144 116.58 51.8435 115.258 51.7055L115.047 51.6765ZM116.049 45.721H115.89C115.613 45.7055 115.336 45.7568 115.084 45.8706C114.831 45.9843 114.609 46.1572 114.437 46.3747C113.97 46.9165 113.687 47.5932 113.631 48.3066C113.464 49.8463 114.219 51.2117 115.301 51.3061C116.384 51.4005 117.4 50.2602 117.567 48.7205C117.649 48.0091 117.513 47.2896 117.175 46.6579C117.064 46.4311 116.907 46.2303 116.713 46.0688C116.519 45.9073 116.293 45.7888 116.049 45.721Z" fill="#8094D4"/>
<path d="M111.452 48.0525L111.212 47.6893C111.742 47.3334 112.926 46.8977 113.63 47.82L113.282 48.0815C112.657 47.2536 111.502 48.0161 111.452 48.0525Z" fill="#8094D4"/>
<path d="M97.0063 47.3843L96.6504 47.1447C96.7593 46.9776 97.7616 45.496 98.7348 45.4379C99.708 45.3798 105.366 46.5273 105.613 46.5782L105.525 47.0067C103.884 46.6726 99.4683 45.8301 98.7638 45.8737C98.0594 45.9173 97.275 46.9776 97.0063 47.3843Z" fill="#8094D4"/>
<path d="M100.892 47.2754C100.892 47.2754 99.1418 43.201 97.3406 43.7457C95.5395 44.2904 96.3384 49.8464 98.0669 50.9503C98.2811 51.1074 98.5251 51.2193 98.7838 51.2793C99.0426 51.3392 99.3109 51.346 99.5724 51.2991C99.8339 51.2523 100.083 51.1528 100.305 51.0067C100.527 50.8605 100.717 50.6709 100.863 50.4492L100.892 47.2754Z" fill="#AD6359"/>
<path d="M97.616 45.3362C97.616 45.3362 97.5725 45.3362 97.616 45.3798C98.8362 46.2004 99.2792 47.5586 99.5044 48.9603C99.4558 48.8103 99.375 48.6728 99.2678 48.5574C99.1605 48.4419 99.0293 48.3512 98.8833 48.2917C98.7374 48.2322 98.5802 48.2054 98.4228 48.213C98.2653 48.2205 98.1115 48.2624 97.9719 48.3357C97.9283 48.3357 97.9719 48.4156 97.9719 48.4156C98.221 48.3885 98.4724 48.4396 98.6911 48.562C98.9097 48.6844 99.0848 48.8718 99.1921 49.0983C99.3683 49.477 99.5023 49.874 99.5915 50.2821C99.6351 50.4201 99.8602 50.3983 99.8457 50.2821V50.2458C100.216 48.5318 99.3954 45.8809 97.616 45.3362Z" fill="#263238"/>
</svg>
